<?xml version="1.0" encoding="UTF-8" standalone="no"?>
<!DOCTYPE svg PUBLIC "-//W3C//DTD SVG 1.1//EN"
 "http://www.w3.org/Graphics/SVG/1.1/DTD/svg11.dtd">
<!-- Generated by graphviz version 2.38.0 (20140413.2041)
 -->
<!-- Title: plazza::CommandManager::parseCommand Pages: 1 -->
<svg width="487pt" height="180pt"
 viewBox="0.00 0.00 487.00 180.00" xmlns="http://www.w3.org/2000/svg" xmlns:xlink="http://www.w3.org/1999/xlink">
<g id="graph0" class="graph" transform="scale(1 1) rotate(0) translate(4 176)">
<title>plazza::CommandManager::parseCommand</title>
<!-- Node1 -->
<g id="node1" class="node"><title>Node1</title>
<polygon fill="#bfbfbf" stroke="black" points="0,-71 0,-101 134,-101 134,-71 0,-71"/>
<text text-anchor="start" x="8" y="-89" font-family="Helvetica,sans-Serif" font-size="10.00">plazza::CommandManager</text>
<text text-anchor="middle" x="67" y="-78" font-family="Helvetica,sans-Serif" font-size="10.00">::parseCommand</text>
</g>
<!-- Node2 -->
<g id="node2" class="node"><title>Node2</title>
<g id="a_node2"><a xlink:href="namespace_utils.html#a7a8a1e9f1eb898178260b874a5498119" target="_top" xlink:title="Utils::epur">
<polygon fill="none" stroke="black" points="207,-152.5 207,-171.5 269,-171.5 269,-152.5 207,-152.5"/>
<text text-anchor="middle" x="238" y="-159.5" font-family="Helvetica,sans-Serif" font-size="10.00">Utils::epur</text>
</a>
</g>
</g>
<!-- Node1&#45;&gt;Node2 -->
<g id="edge1" class="edge"><title>Node1&#45;&gt;Node2</title>
<path fill="none" stroke="midnightblue" d="M91.5232,-101.232C111.703,-113.781 141.891,-131.348 170,-143 178.521,-146.532 187.913,-149.646 196.901,-152.278"/>
<polygon fill="midnightblue" stroke="midnightblue" points="196.236,-155.726 206.808,-155.041 198.116,-148.983 196.236,-155.726"/>
</g>
<!-- Node4 -->
<g id="node4" class="node"><title>Node4</title>
<g id="a_node4"><a xlink:href="classplazza_1_1_command.html#a3b10f7e21627d1bceee8eb98068fdc3b" target="_top" xlink:title="reset command (arguments, type) ">
<polygon fill="none" stroke="black" points="176,-114.5 176,-133.5 300,-133.5 300,-114.5 176,-114.5"/>
<text text-anchor="middle" x="238" y="-121.5" font-family="Helvetica,sans-Serif" font-size="10.00">plazza::Command::reset</text>
</a>
</g>
</g>
<!-- Node1&#45;&gt;Node4 -->
<g id="edge3" class="edge"><title>Node1&#45;&gt;Node4</title>
<path fill="none" stroke="midnightblue" d="M134.308,-100.91C150.997,-104.662 168.679,-108.638 184.581,-112.214"/>
<polygon fill="midnightblue" stroke="midnightblue" points="184.222,-115.72 194.746,-114.499 185.757,-108.891 184.222,-115.72"/>
</g>
<!-- Node5 -->
<g id="node5" class="node"><title>Node5</title>
<g id="a_node5"><a xlink:href="classplazza_1_1_command.html#a5df91a7293dd881b2010ffae61526676" target="_top" xlink:title="Define command type. ">
<polygon fill="none" stroke="black" points="342,-95.5 342,-114.5 479,-114.5 479,-95.5 342,-95.5"/>
<text text-anchor="middle" x="410.5" y="-102.5" font-family="Helvetica,sans-Serif" font-size="10.00">plazza::Command::setType</text>
</a>
</g>
</g>
<!-- Node1&#45;&gt;Node5 -->
<g id="edge6" class="edge"><title>Node1&#45;&gt;Node5</title>
<path fill="none" stroke="midnightblue" d="M134.25,-89.6859C190.815,-92.8331 272.242,-97.3634 331.858,-100.68"/>
<polygon fill="midnightblue" stroke="midnightblue" points="331.797,-104.182 341.976,-101.243 332.186,-97.193 331.797,-104.182"/>
</g>
<!-- Node6 -->
<g id="node6" class="node"><title>Node6</title>
<g id="a_node6"><a xlink:href="namespace_utils.html#ab2d0013d50642f8b39a9e8a8577de612" target="_top" xlink:title="Utils::explode">
<polygon fill="none" stroke="black" points="199.5,-38.5 199.5,-57.5 276.5,-57.5 276.5,-38.5 199.5,-38.5"/>
<text text-anchor="middle" x="238" y="-45.5" font-family="Helvetica,sans-Serif" font-size="10.00">Utils::explode</text>
</a>
</g>
</g>
<!-- Node1&#45;&gt;Node6 -->
<g id="edge5" class="edge"><title>Node1&#45;&gt;Node6</title>
<path fill="none" stroke="midnightblue" d="M134.308,-71.0905C152.534,-66.9923 171.945,-62.6277 188.929,-58.809"/>
<polygon fill="midnightblue" stroke="midnightblue" points="190.168,-62.1177 199.157,-56.5091 188.633,-55.2882 190.168,-62.1177"/>
</g>
<!-- Node7 -->
<g id="node7" class="node"><title>Node7</title>
<g id="a_node7"><a xlink:href="classplazza_1_1_command.html#a7864f4fc6fc7dbbbd9b158c03453e139" target="_top" xlink:title="Define command arguments. ">
<polygon fill="none" stroke="black" points="170,-0.5 170,-19.5 306,-19.5 306,-0.5 170,-0.5"/>
<text text-anchor="middle" x="238" y="-7.5" font-family="Helvetica,sans-Serif" font-size="10.00">plazza::Command::setArgs</text>
</a>
</g>
</g>
<!-- Node1&#45;&gt;Node7 -->
<g id="edge7" class="edge"><title>Node1&#45;&gt;Node7</title>
<path fill="none" stroke="midnightblue" d="M91.5232,-70.7684C111.703,-58.2186 141.891,-40.6519 170,-29 175.717,-26.6301 181.827,-24.4483 187.943,-22.4742"/>
<polygon fill="midnightblue" stroke="midnightblue" points="188.968,-25.8207 197.505,-19.5456 186.918,-19.1276 188.968,-25.8207"/>
</g>
<!-- Node3 -->
<g id="node3" class="node"><title>Node3</title>
<g id="a_node3"><a xlink:href="namespace_utils.html#a0e06ef1fff4d33f0ece82eaa6440b537" target="_top" xlink:title="Utils::trim">
<polygon fill="none" stroke="black" points="381,-152.5 381,-171.5 440,-171.5 440,-152.5 381,-152.5"/>
<text text-anchor="middle" x="410.5" y="-159.5" font-family="Helvetica,sans-Serif" font-size="10.00">Utils::trim</text>
</a>
</g>
</g>
<!-- Node2&#45;&gt;Node3 -->
<g id="edge2" class="edge"><title>Node2&#45;&gt;Node3</title>
<path fill="none" stroke="midnightblue" d="M269.09,-162C297.31,-162 339.664,-162 370.473,-162"/>
<polygon fill="midnightblue" stroke="midnightblue" points="370.847,-165.5 380.846,-162 370.846,-158.5 370.847,-165.5"/>
</g>
<!-- Node4&#45;&gt;Node5 -->
<g id="edge4" class="edge"><title>Node4&#45;&gt;Node5</title>
<path fill="none" stroke="midnightblue" d="M300.073,-117.194C310.355,-116.048 321.149,-114.846 331.785,-113.66"/>
<polygon fill="midnightblue" stroke="midnightblue" points="332.362,-117.118 341.913,-112.532 331.587,-110.161 332.362,-117.118"/>
</g>
</g>
</svg>
