<?xml version="1.0" encoding="UTF-8" standalone="no"?>
<!DOCTYPE svg PUBLIC "-//W3C//DTD SVG 1.1//EN"
 "http://www.w3.org/Graphics/SVG/1.1/DTD/svg11.dtd">
<!-- Generated by graphviz version 2.38.0 (20140413.2041)
 -->
<!-- Title: plazza::Reception::flushServerData Pages: 1 -->
<!--zoomable 222 -->
<svg id="main" version="1.1" xmlns="http://www.w3.org/2000/svg" xmlns:xlink="http://www.w3.org/1999/xlink" xml:space="preserve" onload="init(evt)">
<style type="text/css"><![CDATA[
.edge:hover path { stroke: red; }
.edge:hover polygon { stroke: red; fill: red; }
]]></style>
<script type="text/javascript"><![CDATA[
var edges = document.getElementsByTagName('g');
if (edges && edges.length) {
  for (var i=0;i<edges.length;i++) {
    if (edges[i].id.substr(0,4)=='edge') {
      edges[i].setAttribute('class','edge');
    }
  }
}
]]></script>
        <defs>
                <circle id="rim" cx="0" cy="0" r="7"/>
                <circle id="rim2" cx="0" cy="0" r="3.5"/>
                <g id="zoomPlus">
                        <use xlink:href="#rim" fill="#404040">
                                <set attributeName="fill" to="#808080" begin="zoomplus.mouseover" end="zoomplus.mouseout"/>
                        </use>
                        <path d="M-4,0h8M0,-4v8" fill="none" stroke="white" stroke-width="1.5" pointer-events="none"/>
                </g>
                <g id="zoomMin">
                        <use xlink:href="#rim" fill="#404040">
                                <set attributeName="fill" to="#808080" begin="zoomminus.mouseover" end="zoomminus.mouseout"/>
                        </use>
                        <path d="M-4,0h8" fill="none" stroke="white" stroke-width="1.5" pointer-events="none"/>
                </g>
                <g id="dirArrow">
                        <path fill="none" stroke="white" stroke-width="1.5" d="M0,-3.0v7 M-2.5,-0.5L0,-3.0L2.5,-0.5"/>
                </g>
               <g id="resetDef">
                       <use xlink:href="#rim2" fill="#404040">
                               <set attributeName="fill" to="#808080" begin="reset.mouseover" end="reset.mouseout"/>
                       </use>
               </g>
        </defs>

<script type="text/javascript">
var viewWidth = 574;
var viewHeight = 222;
var sectionId = 'dynsection-12';
</script>
<script xlink:href="svgpan.js"/>
<svg id="graph" class="graph">
<g id="viewport">
<title>plazza::Reception::flushServerData</title>
<!-- Node1 -->
<g id="node1" class="node"><title>Node1</title>
<polygon fill="#bfbfbf" stroke="black" points="0,-49.5 0,-79.5 101,-79.5 101,-49.5 0,-49.5"/>
<text text-anchor="start" x="8" y="-67.5" font-family="Helvetica,sans-Serif" font-size="10.00">plazza::Reception::</text>
<text text-anchor="middle" x="50.5" y="-56.5" font-family="Helvetica,sans-Serif" font-size="10.00">flushServerData</text>
</g>
<!-- Node2 -->
<g id="node2" class="node"><title>Node2</title>
<g id="a_node2"><a xlink:href="classplazza_1_1_connector_pipe.html#a6a5aa2b09b3f85badda3ff5161e86f74" target="_top" xlink:title="plazza::ConnectorPipe\l::transfertData">
<polygon fill="none" stroke="black" points="137,-122.5 137,-152.5 253,-152.5 253,-122.5 137,-122.5"/>
<text text-anchor="start" x="145" y="-140.5" font-family="Helvetica,sans-Serif" font-size="10.00">plazza::ConnectorPipe</text>
<text text-anchor="middle" x="195" y="-129.5" font-family="Helvetica,sans-Serif" font-size="10.00">::transfertData</text>
</a>
</g>
</g>
<!-- Node1&#45;&gt;Node2 -->
<g id="edge1" class="edge"><title>Node1&#45;&gt;Node2</title>
<path fill="none" stroke="midnightblue" d="M81.0261,-79.6256C102.617,-90.6861 132.099,-105.789 155.532,-117.794"/>
<polygon fill="midnightblue" stroke="midnightblue" points="154.016,-120.949 164.512,-122.394 157.207,-114.719 154.016,-120.949"/>
</g>
<!-- Node7 -->
<g id="node7" class="node"><title>Node7</title>
<g id="a_node7"><a xlink:href="classplazza_1_1_reception.html#a7008f2d6490fcbd68ae4a34d9fe6b37d" target="_top" xlink:title="remove the office specified as office_id ">
<polygon fill="none" stroke="black" points="144.5,-49.5 144.5,-79.5 245.5,-79.5 245.5,-49.5 144.5,-49.5"/>
<text text-anchor="start" x="152.5" y="-67.5" font-family="Helvetica,sans-Serif" font-size="10.00">plazza::Reception::</text>
<text text-anchor="middle" x="195" y="-56.5" font-family="Helvetica,sans-Serif" font-size="10.00">removeOffice</text>
</a>
</g>
</g>
<!-- Node1&#45;&gt;Node7 -->
<g id="edge7" class="edge"><title>Node1&#45;&gt;Node7</title>
<path fill="none" stroke="midnightblue" d="M101.34,-64.5C111.923,-64.5 123.2,-64.5 134.113,-64.5"/>
<polygon fill="midnightblue" stroke="midnightblue" points="134.429,-68.0001 144.429,-64.5 134.429,-61.0001 134.429,-68.0001"/>
</g>
<!-- Node10 -->
<g id="node10" class="node"><title>Node10</title>
<g id="a_node10"><a xlink:href="classplazza_1_1_reception.html#ac663c7aa11a6b68ef0cef4d40e71006f" target="_top" xlink:title="Called when a task has ended. ">
<polygon fill="none" stroke="black" points="144.5,-0.5 144.5,-30.5 245.5,-30.5 245.5,-0.5 144.5,-0.5"/>
<text text-anchor="start" x="152.5" y="-18.5" font-family="Helvetica,sans-Serif" font-size="10.00">plazza::Reception::</text>
<text text-anchor="middle" x="195" y="-7.5" font-family="Helvetica,sans-Serif" font-size="10.00">completeTask</text>
</a>
</g>
</g>
<!-- Node1&#45;&gt;Node10 -->
<g id="edge10" class="edge"><title>Node1&#45;&gt;Node10</title>
<path fill="none" stroke="midnightblue" d="M95.4175,-49.3986C109.639,-44.5083 125.573,-39.0293 140.415,-33.9256"/>
<polygon fill="midnightblue" stroke="midnightblue" points="141.664,-37.1975 149.982,-30.6359 139.388,-30.5779 141.664,-37.1975"/>
</g>
<!-- Node3 -->
<g id="node3" class="node"><title>Node3</title>
<g id="a_node3"><a xlink:href="classplazza_1_1_connector_pipe.html#ac96ba32f2efbdaa1b0371ea98532b40b" target="_top" xlink:title="plazza::ConnectorPipe\l::getMode">
<polygon fill="none" stroke="black" points="293.5,-183.5 293.5,-213.5 409.5,-213.5 409.5,-183.5 293.5,-183.5"/>
<text text-anchor="start" x="301.5" y="-201.5" font-family="Helvetica,sans-Serif" font-size="10.00">plazza::ConnectorPipe</text>
<text text-anchor="middle" x="351.5" y="-190.5" font-family="Helvetica,sans-Serif" font-size="10.00">::getMode</text>
</a>
</g>
</g>
<!-- Node2&#45;&gt;Node3 -->
<g id="edge2" class="edge"><title>Node2&#45;&gt;Node3</title>
<path fill="none" stroke="midnightblue" d="M233.986,-152.678C250.829,-159.391 270.893,-167.365 289,-174.5 293.254,-176.176 297.675,-177.913 302.108,-179.65"/>
<polygon fill="midnightblue" stroke="midnightblue" points="301.185,-183.047 311.773,-183.432 303.736,-176.528 301.185,-183.047"/>
</g>
<!-- Node4 -->
<g id="node4" class="node"><title>Node4</title>
<g id="a_node4"><a xlink:href="classplazza_1_1_connector_pipe.html#a7570f6cfb8520505247db4727d45bed1" target="_top" xlink:title="plazza::ConnectorPipe\l::receiveData">
<polygon fill="none" stroke="black" points="293.5,-134.5 293.5,-164.5 409.5,-164.5 409.5,-134.5 293.5,-134.5"/>
<text text-anchor="start" x="301.5" y="-152.5" font-family="Helvetica,sans-Serif" font-size="10.00">plazza::ConnectorPipe</text>
<text text-anchor="middle" x="351.5" y="-141.5" font-family="Helvetica,sans-Serif" font-size="10.00">::receiveData</text>
</a>
</g>
</g>
<!-- Node2&#45;&gt;Node4 -->
<g id="edge3" class="edge"><title>Node2&#45;&gt;Node4</title>
<path fill="none" stroke="midnightblue" d="M253.091,-141.934C262.955,-142.7 273.29,-143.503 283.39,-144.288"/>
<polygon fill="midnightblue" stroke="midnightblue" points="283.145,-147.779 293.386,-145.064 283.687,-140.8 283.145,-147.779"/>
</g>
<!-- Node6 -->
<g id="node6" class="node"><title>Node6</title>
<g id="a_node6"><a xlink:href="classplazza_1_1_connector_pipe.html#ad8062cefc673b98824dff56b5534a056" target="_top" xlink:title="plazza::ConnectorPipe\l::sendData">
<polygon fill="none" stroke="black" points="293.5,-85.5 293.5,-115.5 409.5,-115.5 409.5,-85.5 293.5,-85.5"/>
<text text-anchor="start" x="301.5" y="-103.5" font-family="Helvetica,sans-Serif" font-size="10.00">plazza::ConnectorPipe</text>
<text text-anchor="middle" x="351.5" y="-92.5" font-family="Helvetica,sans-Serif" font-size="10.00">::sendData</text>
</a>
</g>
</g>
<!-- Node2&#45;&gt;Node6 -->
<g id="edge5" class="edge"><title>Node2&#45;&gt;Node6</title>
<path fill="none" stroke="midnightblue" d="M253.091,-123.828C262.955,-121.465 273.29,-118.99 283.39,-116.572"/>
<polygon fill="midnightblue" stroke="midnightblue" points="284.476,-119.911 293.386,-114.178 282.846,-113.103 284.476,-119.911"/>
</g>
<!-- Node5 -->
<g id="node5" class="node"><title>Node5</title>
<g id="a_node5"><a xlink:href="classplazza_1_1_connector_pipe.html#a81c0af2d4860745accb6ddf522180740" target="_top" xlink:title="plazza::ConnectorPipe\l::getFd">
<polygon fill="none" stroke="black" points="450,-109.5 450,-139.5 566,-139.5 566,-109.5 450,-109.5"/>
<text text-anchor="start" x="458" y="-127.5" font-family="Helvetica,sans-Serif" font-size="10.00">plazza::ConnectorPipe</text>
<text text-anchor="middle" x="508" y="-116.5" font-family="Helvetica,sans-Serif" font-size="10.00">::getFd</text>
</a>
</g>
</g>
<!-- Node4&#45;&gt;Node5 -->
<g id="edge4" class="edge"><title>Node4&#45;&gt;Node5</title>
<path fill="none" stroke="midnightblue" d="M409.591,-140.262C419.455,-138.666 429.79,-136.993 439.89,-135.359"/>
<polygon fill="midnightblue" stroke="midnightblue" points="440.573,-138.794 449.886,-133.742 439.455,-131.884 440.573,-138.794"/>
</g>
<!-- Node6&#45;&gt;Node5 -->
<g id="edge6" class="edge"><title>Node6&#45;&gt;Node5</title>
<path fill="none" stroke="midnightblue" d="M409.591,-109.369C419.455,-110.901 429.79,-112.506 439.89,-114.075"/>
<polygon fill="midnightblue" stroke="midnightblue" points="439.467,-117.551 449.886,-115.628 440.542,-110.634 439.467,-117.551"/>
</g>
<!-- Node8 -->
<g id="node8" class="node"><title>Node8</title>
<g id="a_node8"><a xlink:href="classplazza_1_1_process_manager.html#ad4dab5f3a6c4428075803708df27531a" target="_top" xlink:title="terminate the office ">
<polygon fill="none" stroke="black" points="289,-36.5 289,-66.5 414,-66.5 414,-36.5 289,-36.5"/>
<text text-anchor="start" x="297" y="-54.5" font-family="Helvetica,sans-Serif" font-size="10.00">plazza::ProcessManager</text>
<text text-anchor="middle" x="351.5" y="-43.5" font-family="Helvetica,sans-Serif" font-size="10.00">::kill</text>
</a>
</g>
</g>
<!-- Node7&#45;&gt;Node8 -->
<g id="edge8" class="edge"><title>Node7&#45;&gt;Node8</title>
<path fill="none" stroke="midnightblue" d="M245.735,-60.3152C256.271,-59.4286 267.593,-58.476 278.76,-57.5364"/>
<polygon fill="midnightblue" stroke="midnightblue" points="279.274,-61.0056 288.945,-56.6794 278.687,-54.0303 279.274,-61.0056"/>
</g>
<!-- Node9 -->
<g id="node9" class="node"><title>Node9</title>
<g id="a_node9"><a xlink:href="classplazza_1_1_office.html#a1f32b2702e30f57d8500edf91530f71c" target="_top" xlink:title="Get Office process pid. ">
<polygon fill="none" stroke="black" points="452.5,-42 452.5,-61 563.5,-61 563.5,-42 452.5,-42"/>
<text text-anchor="middle" x="508" y="-49" font-family="Helvetica,sans-Serif" font-size="10.00">plazza::Office::getPid</text>
</a>
</g>
</g>
<!-- Node8&#45;&gt;Node9 -->
<g id="edge9" class="edge"><title>Node8&#45;&gt;Node9</title>
<path fill="none" stroke="midnightblue" d="M414.006,-51.5C423.276,-51.5 432.862,-51.5 442.198,-51.5"/>
<polygon fill="midnightblue" stroke="midnightblue" points="442.205,-55.0001 452.205,-51.5 442.205,-48.0001 442.205,-55.0001"/>
</g>
</g>
</svg>
        <g id="navigator" transform="translate(0 0)" fill="#404254">
                <rect fill="#f2f5e9" fill-opacity="0.5" stroke="#606060" stroke-width=".5" x="0" y="0" width="60" height="60"/>
                <use id="zoomplus" xlink:href="#zoomPlus" x="17" y="9" onmousedown="handleZoom(evt,'in')"/>
                <use id="zoomminus" xlink:href="#zoomMin" x="42" y="9" onmousedown="handleZoom(evt,'out')"/>
                <use id="reset" xlink:href="#resetDef" x="30" y="36" onmousedown="handleReset()"/>
                <g id="arrowUp" xlink:href="#dirArrow" transform="translate(30 24)" onmousedown="handlePan(0,-1)">
                  <use xlink:href="#rim" fill="#404040">
                        <set attributeName="fill" to="#808080" begin="arrowUp.mouseover" end="arrowUp.mouseout"/>
                  </use>
                  <path fill="none" stroke="white" stroke-width="1.5" d="M0,-3.0v7 M-2.5,-0.5L0,-3.0L2.5,-0.5"/>
                </g>
                <g id="arrowRight" xlink:href="#dirArrow" transform="rotate(90) translate(36 -43)" onmousedown="handlePan(1,0)">
                  <use xlink:href="#rim" fill="#404040">
                        <set attributeName="fill" to="#808080" begin="arrowRight.mouseover" end="arrowRight.mouseout"/>
                  </use>
                  <path fill="none" stroke="white" stroke-width="1.5" d="M0,-3.0v7 M-2.5,-0.5L0,-3.0L2.5,-0.5"/>
                </g>
                <g id="arrowDown" xlink:href="#dirArrow" transform="rotate(180) translate(-30 -48)" onmousedown="handlePan(0,1)">
                  <use xlink:href="#rim" fill="#404040">
                        <set attributeName="fill" to="#808080" begin="arrowDown.mouseover" end="arrowDown.mouseout"/>
                  </use>
                  <path fill="none" stroke="white" stroke-width="1.5" d="M0,-3.0v7 M-2.5,-0.5L0,-3.0L2.5,-0.5"/>
                </g>
                <g id="arrowLeft" xlink:href="#dirArrow" transform="rotate(270) translate(-36 17)" onmousedown="handlePan(-1,0)">
                  <use xlink:href="#rim" fill="#404040">
                        <set attributeName="fill" to="#808080" begin="arrowLeft.mouseover" end="arrowLeft.mouseout"/>
                  </use>
                  <path fill="none" stroke="white" stroke-width="1.5" d="M0,-3.0v7 M-2.5,-0.5L0,-3.0L2.5,-0.5"/>
                </g>
        </g>
        <svg viewBox="0 0 15 15" width="100%" height="30px" preserveAspectRatio="xMaxYMin meet">
         <g id="arrow_out" transform="scale(0.3 0.3)">
          <a xlink:href="classplazza_1_1_reception_a9a226724be0364905ecf149ff0beaf4d_cgraph_org.svg" target="_base">
           <rect id="button" ry="5" rx="5" y="6" x="6" height="38" width="38"
                fill="#f2f5e9" fill-opacity="0.5" stroke="#606060" stroke-width="1.0"/>
           <path id="arrow"
             d="M 11.500037,31.436501 C 11.940474,20.09759 22.043105,11.32322 32.158766,21.979434 L 37.068811,17.246167 C 37.068811,17.246167 37.088388,32 37.088388,32 L 22.160133,31.978069 C 22.160133,31.978069 26.997745,27.140456 26.997745,27.140456 C 18.528582,18.264221 13.291696,25.230495 11.500037,31.436501 z"
             style="fill:#404040;"/>
          </a>
         </g>
        </svg>
</svg>
