<?xml version="1.0" encoding="UTF-8" standalone="no"?>
<!DOCTYPE svg PUBLIC "-//W3C//DTD SVG 1.1//EN"
 "http://www.w3.org/Graphics/SVG/1.1/DTD/svg11.dtd">
<!-- Generated by graphviz version 2.38.0 (20140413.2041)
 -->
<!-- Title: plazza::ThreadPool::createWorkers Pages: 1 -->
<svg width="906pt" height="83pt"
 viewBox="0.00 0.00 906.00 83.00" xmlns="http://www.w3.org/2000/svg" xmlns:xlink="http://www.w3.org/1999/xlink">
<g id="graph0" class="graph" transform="scale(1 1) rotate(0) translate(4 79)">
<title>plazza::ThreadPool::createWorkers</title>
<!-- Node1 -->
<g id="node1" class="node"><title>Node1</title>
<polygon fill="#bfbfbf" stroke="black" points="0,-22.5 0,-52.5 101,-52.5 101,-22.5 0,-22.5"/>
<text text-anchor="start" x="8" y="-40.5" font-family="Helvetica,sans-Serif" font-size="10.00">plazza::ThreadPool</text>
<text text-anchor="middle" x="50.5" y="-29.5" font-family="Helvetica,sans-Serif" font-size="10.00">::createWorkers</text>
</g>
<!-- Node2 -->
<g id="node2" class="node"><title>Node2</title>
<g id="a_node2"><a xlink:href="classplazza_1_1_office.html#a611c1821b8f7dfc4d6e4a4211714e2c7" target="_top" xlink:title="init the Office ">
<polygon fill="none" stroke="black" points="139.5,-50 139.5,-69 235.5,-69 235.5,-50 139.5,-50"/>
<text text-anchor="middle" x="187.5" y="-57" font-family="Helvetica,sans-Serif" font-size="10.00">plazza::Office::init</text>
</a>
</g>
</g>
<!-- Node1&#45;&gt;Node2 -->
<g id="edge1" class="edge"><title>Node1&#45;&gt;Node2</title>
<path fill="none" stroke="midnightblue" d="M111.109,-47.2141C120.531,-48.7495 130.161,-50.3188 139.251,-51.8002"/>
<polygon fill="midnightblue" stroke="midnightblue" points="111.435,-43.7211 101.002,-45.5671 110.309,-50.63 111.435,-43.7211"/>
</g>
<!-- Node8 -->
<g id="node8" class="node"><title>Node8</title>
<g id="a_node8"><a xlink:href="classplazza_1_1_thread_pool.html#ae3447aa58cee4c5206d194f144d207c3" target="_top" xlink:title="Class constructor. ">
<polygon fill="none" stroke="black" points="137,-0.5 137,-30.5 238,-30.5 238,-0.5 137,-0.5"/>
<text text-anchor="start" x="145" y="-18.5" font-family="Helvetica,sans-Serif" font-size="10.00">plazza::ThreadPool</text>
<text text-anchor="middle" x="187.5" y="-7.5" font-family="Helvetica,sans-Serif" font-size="10.00">::ThreadPool</text>
</a>
</g>
</g>
<!-- Node1&#45;&gt;Node8 -->
<g id="edge7" class="edge"><title>Node1&#45;&gt;Node8</title>
<path fill="none" stroke="midnightblue" d="M110.928,-27.8154C119.481,-26.4217 128.208,-24.9994 136.552,-23.6397"/>
<polygon fill="midnightblue" stroke="midnightblue" points="110.309,-24.37 101.002,-29.4329 111.435,-31.2789 110.309,-24.37"/>
</g>
<!-- Node3 -->
<g id="node3" class="node"><title>Node3</title>
<g id="a_node3"><a xlink:href="classplazza_1_1_process_manager.html#aaf7eabb8ae524f2faa9b152aa178a30b" target="_top" xlink:title="create an Office ">
<polygon fill="none" stroke="black" points="274,-44.5 274,-74.5 399,-74.5 399,-44.5 274,-44.5"/>
<text text-anchor="start" x="282" y="-62.5" font-family="Helvetica,sans-Serif" font-size="10.00">plazza::ProcessManager</text>
<text text-anchor="middle" x="336.5" y="-51.5" font-family="Helvetica,sans-Serif" font-size="10.00">::spawn</text>
</a>
</g>
</g>
<!-- Node2&#45;&gt;Node3 -->
<g id="edge2" class="edge"><title>Node2&#45;&gt;Node3</title>
<path fill="none" stroke="midnightblue" d="M245.947,-59.5C255.075,-59.5 264.55,-59.5 273.771,-59.5"/>
<polygon fill="midnightblue" stroke="midnightblue" points="245.821,-56.0001 235.821,-59.5 245.821,-63.0001 245.821,-56.0001"/>
</g>
<!-- Node4 -->
<g id="node4" class="node"><title>Node4</title>
<g id="a_node4"><a xlink:href="classplazza_1_1_reception.html#a7e1b50160865f662607dcddcbd9434f9" target="_top" xlink:title="Create an office. ">
<polygon fill="none" stroke="black" points="435,-44.5 435,-74.5 536,-74.5 536,-44.5 435,-44.5"/>
<text text-anchor="start" x="443" y="-62.5" font-family="Helvetica,sans-Serif" font-size="10.00">plazza::Reception::</text>
<text text-anchor="middle" x="485.5" y="-51.5" font-family="Helvetica,sans-Serif" font-size="10.00">createOffice</text>
</a>
</g>
</g>
<!-- Node3&#45;&gt;Node4 -->
<g id="edge3" class="edge"><title>Node3&#45;&gt;Node4</title>
<path fill="none" stroke="midnightblue" d="M409.694,-59.5C418.154,-59.5 426.638,-59.5 434.696,-59.5"/>
<polygon fill="midnightblue" stroke="midnightblue" points="409.415,-56.0001 399.415,-59.5 409.415,-63.0001 409.415,-56.0001"/>
</g>
<!-- Node5 -->
<g id="node5" class="node"><title>Node5</title>
<g id="a_node5"><a xlink:href="classplazza_1_1_reception.html#a7aa64f05388780e369663cd6800578ae" target="_top" xlink:title="Assign a task to the queue. ">
<polygon fill="none" stroke="black" points="572,-44.5 572,-74.5 673,-74.5 673,-44.5 572,-44.5"/>
<text text-anchor="start" x="580" y="-62.5" font-family="Helvetica,sans-Serif" font-size="10.00">plazza::Reception::</text>
<text text-anchor="middle" x="622.5" y="-51.5" font-family="Helvetica,sans-Serif" font-size="10.00">assignTask</text>
</a>
</g>
</g>
<!-- Node4&#45;&gt;Node5 -->
<g id="edge4" class="edge"><title>Node4&#45;&gt;Node5</title>
<path fill="none" stroke="midnightblue" d="M546.207,-59.5C554.67,-59.5 563.299,-59.5 571.552,-59.5"/>
<polygon fill="midnightblue" stroke="midnightblue" points="546.002,-56.0001 536.002,-59.5 546.002,-63.0001 546.002,-56.0001"/>
</g>
<!-- Node6 -->
<g id="node6" class="node"><title>Node6</title>
<g id="a_node6"><a xlink:href="classplazza_1_1_reception.html#add69bb3defc0d810a8f4fe2cdceacbb1" target="_top" xlink:title="run the office ">
<polygon fill="none" stroke="black" points="709,-50 709,-69 824,-69 824,-50 709,-50"/>
<text text-anchor="middle" x="766.5" y="-57" font-family="Helvetica,sans-Serif" font-size="10.00">plazza::Reception::run</text>
</a>
</g>
</g>
<!-- Node5&#45;&gt;Node6 -->
<g id="edge5" class="edge"><title>Node5&#45;&gt;Node6</title>
<path fill="none" stroke="midnightblue" d="M683.326,-59.5C691.771,-59.5 700.433,-59.5 708.817,-59.5"/>
<polygon fill="midnightblue" stroke="midnightblue" points="683.165,-56.0001 673.165,-59.5 683.165,-63.0001 683.165,-56.0001"/>
</g>
<!-- Node7 -->
<g id="node7" class="node"><title>Node7</title>
<g id="a_node7"><a xlink:href="gui_2sources_2main_8cpp.html#adacbe0175a79dff748855d8c9839f82b" target="_top" xlink:title="main">
<polygon fill="none" stroke="black" points="860,-50 860,-69 898,-69 898,-50 860,-50"/>
<text text-anchor="middle" x="879" y="-57" font-family="Helvetica,sans-Serif" font-size="10.00">main</text>
</a>
</g>
</g>
<!-- Node6&#45;&gt;Node7 -->
<g id="edge6" class="edge"><title>Node6&#45;&gt;Node7</title>
<path fill="none" stroke="midnightblue" d="M834.296,-59.5C843.626,-59.5 852.496,-59.5 859.776,-59.5"/>
<polygon fill="midnightblue" stroke="midnightblue" points="834.045,-56.0001 824.045,-59.5 834.045,-63.0001 834.045,-56.0001"/>
</g>
</g>
</svg>
