<?xml version="1.0" encoding="UTF-8" standalone="no"?>
<!DOCTYPE svg PUBLIC "-//W3C//DTD SVG 1.1//EN"
 "http://www.w3.org/Graphics/SVG/1.1/DTD/svg11.dtd">
<!-- Generated by graphviz version 2.38.0 (20140413.2041)
 -->
<!-- Title: plazza::File::getBuffer Pages: 1 -->
<svg width="575pt" height="138pt"
 viewBox="0.00 0.00 575.00 137.50" xmlns="http://www.w3.org/2000/svg" xmlns:xlink="http://www.w3.org/1999/xlink">
<g id="graph0" class="graph" transform="scale(1 1) rotate(0) translate(4 133.5)">
<title>plazza::File::getBuffer</title>
<!-- Node1 -->
<g id="node1" class="node"><title>Node1</title>
<polygon fill="#bfbfbf" stroke="black" points="0,-72 0,-91 113,-91 113,-72 0,-72"/>
<text text-anchor="middle" x="56.5" y="-79" font-family="Helvetica,sans-Serif" font-size="10.00">plazza::File::getBuffer</text>
</g>
<!-- Node2 -->
<g id="node2" class="node"><title>Node2</title>
<g id="a_node2"><a xlink:href="gui_2sources_2main__cypher_8cpp.html#add1099fd0935d5faefd7a4b92dfd955c" target="_top" xlink:title="xorf">
<polygon fill="none" stroke="black" points="201,-110 201,-129 234,-129 234,-110 201,-110"/>
<text text-anchor="middle" x="217.5" y="-117" font-family="Helvetica,sans-Serif" font-size="10.00">xorf</text>
</a>
</g>
</g>
<!-- Node1&#45;&gt;Node2 -->
<g id="edge1" class="edge"><title>Node1&#45;&gt;Node2</title>
<path fill="none" stroke="midnightblue" d="M107.758,-93.5112C139.874,-101.187 179.388,-110.63 200.838,-115.757"/>
<polygon fill="midnightblue" stroke="midnightblue" points="108.162,-90.0094 97.6224,-91.089 106.535,-96.8177 108.162,-90.0094"/>
</g>
<!-- Node4 -->
<g id="node4" class="node"><title>Node4</title>
<g id="a_node4"><a xlink:href="gui_2sources_2main__cypher_8cpp.html#a8bd3823ec173b4b29834b0f4ccb95326" target="_top" xlink:title="caesarf">
<polygon fill="none" stroke="black" points="193,-72 193,-91 242,-91 242,-72 193,-72"/>
<text text-anchor="middle" x="217.5" y="-79" font-family="Helvetica,sans-Serif" font-size="10.00">caesarf</text>
</a>
</g>
</g>
<!-- Node1&#45;&gt;Node4 -->
<g id="edge3" class="edge"><title>Node1&#45;&gt;Node4</title>
<path fill="none" stroke="midnightblue" d="M123.156,-81.5C147.774,-81.5 174.219,-81.5 192.653,-81.5"/>
<polygon fill="midnightblue" stroke="midnightblue" points="123.111,-78.0001 113.11,-81.5 123.11,-85.0001 123.111,-78.0001"/>
</g>
<!-- Node5 -->
<g id="node5" class="node"><title>Node5</title>
<g id="a_node5"><a xlink:href="classplazza_1_1_worker.html#af17344ef0f0311dadb4f7c7ea9565031" target="_top" xlink:title="Send task to perform to the worker. ">
<polygon fill="none" stroke="black" points="149,-31 149,-50 286,-50 286,-31 149,-31"/>
<text text-anchor="middle" x="217.5" y="-38" font-family="Helvetica,sans-Serif" font-size="10.00">plazza::Worker::performJob</text>
</a>
</g>
</g>
<!-- Node1&#45;&gt;Node5 -->
<g id="edge5" class="edge"><title>Node1&#45;&gt;Node5</title>
<path fill="none" stroke="midnightblue" d="M104.335,-69.423C128.333,-63.2349 157.137,-55.8073 179.547,-50.0286"/>
<polygon fill="midnightblue" stroke="midnightblue" points="103.187,-66.1046 94.3774,-71.9907 104.935,-72.8828 103.187,-66.1046"/>
</g>
<!-- Node3 -->
<g id="node3" class="node"><title>Node3</title>
<g id="a_node3"><a xlink:href="gui_2sources_2main__cypher_8cpp.html#a0c99d968a34e803d378692bde2e3f18f" target="_top" xlink:title="main">
<polygon fill="none" stroke="black" points="357,-110 357,-129 395,-129 395,-110 357,-110"/>
<text text-anchor="middle" x="376" y="-117" font-family="Helvetica,sans-Serif" font-size="10.00">main</text>
</a>
</g>
</g>
<!-- Node2&#45;&gt;Node3 -->
<g id="edge2" class="edge"><title>Node2&#45;&gt;Node3</title>
<path fill="none" stroke="midnightblue" d="M244.312,-119.5C275.957,-119.5 328.8,-119.5 356.607,-119.5"/>
<polygon fill="midnightblue" stroke="midnightblue" points="244.078,-116 234.078,-119.5 244.078,-123 244.078,-116"/>
</g>
<!-- Node4&#45;&gt;Node3 -->
<g id="edge4" class="edge"><title>Node4&#45;&gt;Node3</title>
<path fill="none" stroke="midnightblue" d="M252.109,-89.6607C284.187,-97.4496 331.306,-108.89 356.875,-115.099"/>
<polygon fill="midnightblue" stroke="midnightblue" points="252.812,-86.2298 242.269,-87.2714 251.161,-93.0322 252.812,-86.2298"/>
</g>
<!-- Node6 -->
<g id="node6" class="node"><title>Node6</title>
<g id="a_node6"><a xlink:href="classplazza_1_1_worker.html#aa7561bf24cd0a90230ddd99b43b18a11" target="_top" xlink:title="Start thread execution. ">
<polygon fill="none" stroke="black" points="322,-72 322,-91 430,-91 430,-72 322,-72"/>
<text text-anchor="middle" x="376" y="-79" font-family="Helvetica,sans-Serif" font-size="10.00">plazza::Worker::start</text>
</a>
</g>
</g>
<!-- Node5&#45;&gt;Node6 -->
<g id="edge6" class="edge"><title>Node5&#45;&gt;Node6</title>
<path fill="none" stroke="midnightblue" d="M264.599,-52.577C288.219,-58.7651 316.571,-66.1927 338.628,-71.9714"/>
<polygon fill="midnightblue" stroke="midnightblue" points="265.358,-49.1579 254.798,-50.0093 263.584,-55.9294 265.358,-49.1579"/>
</g>
<!-- Node7 -->
<g id="node7" class="node"><title>Node7</title>
<g id="a_node7"><a xlink:href="classplazza_1_1_thread_pool.html#a85b5323591017ee418afb0fdc9e3d9a7" target="_top" xlink:title="Get the number of total workers. ">
<polygon fill="none" stroke="black" points="325.5,-22.5 325.5,-52.5 426.5,-52.5 426.5,-22.5 325.5,-22.5"/>
<text text-anchor="start" x="333.5" y="-40.5" font-family="Helvetica,sans-Serif" font-size="10.00">plazza::ThreadPool</text>
<text text-anchor="middle" x="376" y="-29.5" font-family="Helvetica,sans-Serif" font-size="10.00">::getNbWorkers</text>
</a>
</g>
</g>
<!-- Node5&#45;&gt;Node7 -->
<g id="edge7" class="edge"><title>Node5&#45;&gt;Node7</title>
<path fill="none" stroke="midnightblue" d="M296.382,-39.0071C306.148,-38.8199 315.921,-38.6325 325.094,-38.4567"/>
<polygon fill="midnightblue" stroke="midnightblue" points="296.164,-35.5105 286.233,-39.2016 296.298,-42.5092 296.164,-35.5105"/>
</g>
<!-- Node8 -->
<g id="node8" class="node"><title>Node8</title>
<g id="a_node8"><a xlink:href="classplazza_1_1_thread_pool.html#ae3447aa58cee4c5206d194f144d207c3" target="_top" xlink:title="Class constructor. ">
<polygon fill="none" stroke="black" points="466,-0.5 466,-30.5 567,-30.5 567,-0.5 466,-0.5"/>
<text text-anchor="start" x="474" y="-18.5" font-family="Helvetica,sans-Serif" font-size="10.00">plazza::ThreadPool</text>
<text text-anchor="middle" x="516.5" y="-7.5" font-family="Helvetica,sans-Serif" font-size="10.00">::ThreadPool</text>
</a>
</g>
</g>
<!-- Node5&#45;&gt;Node8 -->
<g id="edge9" class="edge"><title>Node5&#45;&gt;Node8</title>
<path fill="none" stroke="midnightblue" d="M255.491,-27.9418C275.018,-21.9666 299.53,-15.4858 322,-12.5 369.582,-6.17746 382.007,-11.6583 430,-12.5 441.583,-12.7032 454.046,-13.061 465.776,-13.4605"/>
<polygon fill="midnightblue" stroke="midnightblue" points="254.26,-24.6597 245.771,-30.9991 256.361,-31.3372 254.26,-24.6597"/>
</g>
<!-- Node7&#45;&gt;Node8 -->
<g id="edge8" class="edge"><title>Node7&#45;&gt;Node8</title>
<path fill="none" stroke="midnightblue" d="M436.615,-28.0304C446.338,-26.4861 456.318,-24.9007 465.77,-23.3993"/>
<polygon fill="midnightblue" stroke="midnightblue" points="435.938,-24.5941 426.61,-29.6196 437.036,-31.5074 435.938,-24.5941"/>
</g>
</g>
</svg>
