<?xml version="1.0" encoding="UTF-8" standalone="no"?>
<!DOCTYPE svg PUBLIC "-//W3C//DTD SVG 1.1//EN"
 "http://www.w3.org/Graphics/SVG/1.1/DTD/svg11.dtd">
<!-- Generated by graphviz version 2.38.0 (20140413.2041)
 -->
<!-- Title: plazza::CondVar::wait Pages: 1 -->
<svg width="395pt" height="61pt"
 viewBox="0.00 0.00 395.00 61.00" xmlns="http://www.w3.org/2000/svg" xmlns:xlink="http://www.w3.org/1999/xlink">
<g id="graph0" class="graph" transform="scale(1 1) rotate(0) translate(4 57)">
<title>plazza::CondVar::wait</title>
<!-- Node1 -->
<g id="node1" class="node"><title>Node1</title>
<polygon fill="#bfbfbf" stroke="black" points="0,-6 0,-25 113,-25 113,-6 0,-6"/>
<text text-anchor="middle" x="56.5" y="-13" font-family="Helvetica,sans-Serif" font-size="10.00">plazza::CondVar::wait</text>
</g>
<!-- Node2 -->
<g id="node2" class="node"><title>Node2</title>
<g id="a_node2"><a xlink:href="classplazza_1_1_thread_pool.html#a85b5323591017ee418afb0fdc9e3d9a7" target="_top" xlink:title="Get the number of total workers. ">
<polygon fill="none" stroke="black" points="149,-22.5 149,-52.5 250,-52.5 250,-22.5 149,-22.5"/>
<text text-anchor="start" x="157" y="-40.5" font-family="Helvetica,sans-Serif" font-size="10.00">plazza::ThreadPool</text>
<text text-anchor="middle" x="199.5" y="-29.5" font-family="Helvetica,sans-Serif" font-size="10.00">::getNbWorkers</text>
</a>
</g>
</g>
<!-- Node1&#45;&gt;Node2 -->
<g id="edge1" class="edge"><title>Node1&#45;&gt;Node2</title>
<path fill="none" stroke="midnightblue" d="M123.204,-25.7516C131.765,-27.0875 140.422,-28.4381 148.665,-29.7243"/>
<polygon fill="midnightblue" stroke="midnightblue" points="123.647,-22.2785 113.227,-24.195 122.568,-29.1949 123.647,-22.2785"/>
</g>
<!-- Node3 -->
<g id="node3" class="node"><title>Node3</title>
<g id="a_node3"><a xlink:href="classplazza_1_1_thread_pool.html#ae3447aa58cee4c5206d194f144d207c3" target="_top" xlink:title="Class constructor. ">
<polygon fill="none" stroke="black" points="286,-0.5 286,-30.5 387,-30.5 387,-0.5 286,-0.5"/>
<text text-anchor="start" x="294" y="-18.5" font-family="Helvetica,sans-Serif" font-size="10.00">plazza::ThreadPool</text>
<text text-anchor="middle" x="336.5" y="-7.5" font-family="Helvetica,sans-Serif" font-size="10.00">::ThreadPool</text>
</a>
</g>
</g>
<!-- Node1&#45;&gt;Node3 -->
<g id="edge3" class="edge"><title>Node1&#45;&gt;Node3</title>
<path fill="none" stroke="midnightblue" d="M123.237,-13.8903C131.901,-13.7289 140.664,-13.5911 149,-13.5 193.886,-13.0095 205.114,-12.9751 250,-13.5 261.581,-13.6354 274.041,-13.874 285.771,-14.1403"/>
<polygon fill="midnightblue" stroke="midnightblue" points="123.071,-10.3928 113.142,-14.0894 123.209,-17.3915 123.071,-10.3928"/>
</g>
<!-- Node2&#45;&gt;Node3 -->
<g id="edge2" class="edge"><title>Node2&#45;&gt;Node3</title>
<path fill="none" stroke="midnightblue" d="M259.928,-27.8154C268.481,-26.4217 277.208,-24.9994 285.552,-23.6397"/>
<polygon fill="midnightblue" stroke="midnightblue" points="259.309,-24.37 250.002,-29.4329 260.435,-31.2789 259.309,-24.37"/>
</g>
</g>
</svg>
