<?xml version="1.0" encoding="UTF-8" standalone="no"?>
<!DOCTYPE svg PUBLIC "-//W3C//DTD SVG 1.1//EN"
 "http://www.w3.org/Graphics/SVG/1.1/DTD/svg11.dtd">
<!-- Generated by graphviz version 2.38.0 (20140413.2041)
 -->
<!-- Title: plazza::XorCypher::setKey Pages: 1 -->
<svg width="566pt" height="138pt"
 viewBox="0.00 0.00 566.00 137.50" xmlns="http://www.w3.org/2000/svg" xmlns:xlink="http://www.w3.org/1999/xlink">
<g id="graph0" class="graph" transform="scale(1 1) rotate(0) translate(4 133.5)">
<title>plazza::XorCypher::setKey</title>
<!-- Node1 -->
<g id="node1" class="node"><title>Node1</title>
<polygon fill="#bfbfbf" stroke="black" points="0,-63.5 0,-93.5 104,-93.5 104,-63.5 0,-63.5"/>
<text text-anchor="start" x="8" y="-81.5" font-family="Helvetica,sans-Serif" font-size="10.00">plazza::XorCypher::</text>
<text text-anchor="middle" x="52" y="-70.5" font-family="Helvetica,sans-Serif" font-size="10.00">setKey</text>
</g>
<!-- Node2 -->
<g id="node2" class="node"><title>Node2</title>
<g id="a_node2"><a xlink:href="gui_2sources_2main__cypher_8cpp.html#add1099fd0935d5faefd7a4b92dfd955c" target="_top" xlink:title="xorf">
<polygon fill="none" stroke="black" points="192,-99 192,-118 225,-118 225,-99 192,-99"/>
<text text-anchor="middle" x="208.5" y="-106" font-family="Helvetica,sans-Serif" font-size="10.00">xorf</text>
</a>
</g>
</g>
<!-- Node1&#45;&gt;Node2 -->
<g id="edge1" class="edge"><title>Node1&#45;&gt;Node2</title>
<path fill="none" stroke="midnightblue" d="M113.877,-90.3207C142.188,-95.8181 173.575,-101.913 191.865,-105.464"/>
<polygon fill="midnightblue" stroke="midnightblue" points="114.501,-86.8767 104.017,-88.4063 113.167,-93.7483 114.501,-86.8767"/>
</g>
<!-- Node4 -->
<g id="node4" class="node"><title>Node4</title>
<g id="a_node4"><a xlink:href="classplazza_1_1_worker.html#af17344ef0f0311dadb4f7c7ea9565031" target="_top" xlink:title="Send task to perform to the worker. ">
<polygon fill="none" stroke="black" points="140,-39 140,-58 277,-58 277,-39 140,-39"/>
<text text-anchor="middle" x="208.5" y="-46" font-family="Helvetica,sans-Serif" font-size="10.00">plazza::Worker::performJob</text>
</a>
</g>
</g>
<!-- Node1&#45;&gt;Node4 -->
<g id="edge3" class="edge"><title>Node1&#45;&gt;Node4</title>
<path fill="none" stroke="midnightblue" d="M114.043,-66.647C128.754,-63.7904 144.287,-60.7744 158.374,-58.039"/>
<polygon fill="midnightblue" stroke="midnightblue" points="113.167,-63.2517 104.017,-68.5937 114.501,-70.1233 113.167,-63.2517"/>
</g>
<!-- Node3 -->
<g id="node3" class="node"><title>Node3</title>
<g id="a_node3"><a xlink:href="gui_2sources_2main__cypher_8cpp.html#a0c99d968a34e803d378692bde2e3f18f" target="_top" xlink:title="main">
<polygon fill="none" stroke="black" points="348,-110 348,-129 386,-129 386,-110 348,-110"/>
<text text-anchor="middle" x="367" y="-117" font-family="Helvetica,sans-Serif" font-size="10.00">main</text>
</a>
</g>
</g>
<!-- Node2&#45;&gt;Node3 -->
<g id="edge2" class="edge"><title>Node2&#45;&gt;Node3</title>
<path fill="none" stroke="midnightblue" d="M235.312,-110.314C266.957,-112.539 319.8,-116.253 347.607,-118.207"/>
<polygon fill="midnightblue" stroke="midnightblue" points="235.299,-106.805 225.078,-109.595 234.808,-113.788 235.299,-106.805"/>
</g>
<!-- Node5 -->
<g id="node5" class="node"><title>Node5</title>
<g id="a_node5"><a xlink:href="classplazza_1_1_worker.html#aa7561bf24cd0a90230ddd99b43b18a11" target="_top" xlink:title="Start thread execution. ">
<polygon fill="none" stroke="black" points="313,-72 313,-91 421,-91 421,-72 313,-72"/>
<text text-anchor="middle" x="367" y="-79" font-family="Helvetica,sans-Serif" font-size="10.00">plazza::Worker::start</text>
</a>
</g>
</g>
<!-- Node4&#45;&gt;Node5 -->
<g id="edge4" class="edge"><title>Node4&#45;&gt;Node5</title>
<path fill="none" stroke="midnightblue" d="M264.748,-60.1497C283.11,-64.0216 303.327,-68.2846 320.835,-71.9765"/>
<polygon fill="midnightblue" stroke="midnightblue" points="265.273,-56.6836 254.766,-58.045 263.829,-63.533 265.273,-56.6836"/>
</g>
<!-- Node6 -->
<g id="node6" class="node"><title>Node6</title>
<g id="a_node6"><a xlink:href="classplazza_1_1_thread_pool.html#a85b5323591017ee418afb0fdc9e3d9a7" target="_top" xlink:title="Get the number of total workers. ">
<polygon fill="none" stroke="black" points="316.5,-22.5 316.5,-52.5 417.5,-52.5 417.5,-22.5 316.5,-22.5"/>
<text text-anchor="start" x="324.5" y="-40.5" font-family="Helvetica,sans-Serif" font-size="10.00">plazza::ThreadPool</text>
<text text-anchor="middle" x="367" y="-29.5" font-family="Helvetica,sans-Serif" font-size="10.00">::getNbWorkers</text>
</a>
</g>
</g>
<!-- Node4&#45;&gt;Node6 -->
<g id="edge5" class="edge"><title>Node4&#45;&gt;Node6</title>
<path fill="none" stroke="midnightblue" d="M287.382,-43.0259C297.148,-42.3395 306.921,-41.6525 316.094,-41.0078"/>
<polygon fill="midnightblue" stroke="midnightblue" points="286.963,-39.5466 277.233,-43.7392 287.454,-46.5294 286.963,-39.5466"/>
</g>
<!-- Node7 -->
<g id="node7" class="node"><title>Node7</title>
<g id="a_node7"><a xlink:href="classplazza_1_1_thread_pool.html#ae3447aa58cee4c5206d194f144d207c3" target="_top" xlink:title="Class constructor. ">
<polygon fill="none" stroke="black" points="457,-0.5 457,-30.5 558,-30.5 558,-0.5 457,-0.5"/>
<text text-anchor="start" x="465" y="-18.5" font-family="Helvetica,sans-Serif" font-size="10.00">plazza::ThreadPool</text>
<text text-anchor="middle" x="507.5" y="-7.5" font-family="Helvetica,sans-Serif" font-size="10.00">::ThreadPool</text>
</a>
</g>
</g>
<!-- Node4&#45;&gt;Node7 -->
<g id="edge7" class="edge"><title>Node4&#45;&gt;Node7</title>
<path fill="none" stroke="midnightblue" d="M239.686,-34.9863C259.961,-26.6692 287.529,-16.8033 313,-12.5 361.367,-4.32839 417.503,-6.45329 456.814,-9.78812"/>
<polygon fill="midnightblue" stroke="midnightblue" points="238.217,-31.807 230.359,-38.9137 240.934,-38.2583 238.217,-31.807"/>
</g>
<!-- Node6&#45;&gt;Node7 -->
<g id="edge6" class="edge"><title>Node6&#45;&gt;Node7</title>
<path fill="none" stroke="midnightblue" d="M427.615,-28.0304C437.338,-26.4861 447.318,-24.9007 456.77,-23.3993"/>
<polygon fill="midnightblue" stroke="midnightblue" points="426.938,-24.5941 417.61,-29.6196 428.036,-31.5074 426.938,-24.5941"/>
</g>
</g>
</svg>
