<?xml version="1.0" encoding="UTF-8" standalone="no"?>
<!DOCTYPE svg PUBLIC "-//W3C//DTD SVG 1.1//EN"
 "http://www.w3.org/Graphics/SVG/1.1/DTD/svg11.dtd">
<!-- Generated by graphviz version 2.38.0 (20140413.2041)
 -->
<!-- Title: plazza::Worker::start Pages: 1 -->
<svg width="750pt" height="339pt"
 viewBox="0.00 0.00 750.00 338.50" xmlns="http://www.w3.org/2000/svg" xmlns:xlink="http://www.w3.org/1999/xlink">
<g id="graph0" class="graph" transform="scale(1 1) rotate(0) translate(4 334.5)">
<title>plazza::Worker::start</title>
<polygon fill="white" stroke="none" points="-4,4 -4,-334.5 746,-334.5 746,4 -4,4"/>
<!-- Node1 -->
<g id="node1" class="node"><title>Node1</title>
<polygon fill="#bfbfbf" stroke="black" points="0,-213 0,-232 108,-232 108,-213 0,-213"/>
<text text-anchor="middle" x="54" y="-220" font-family="Helvetica,sans-Serif" font-size="10.00">plazza::Worker::start</text>
</g>
<!-- Node2 -->
<g id="node2" class="node"><title>Node2</title>
<g id="a_node2"><a xlink:href="classplazza_1_1_worker.html#ae24c778b32b5381e4217a3c25a9a23aa" target="_top" xlink:title="Get Thread instance. ">
<polygon fill="white" stroke="black" points="146.5,-289 146.5,-308 278.5,-308 278.5,-289 146.5,-289"/>
<text text-anchor="middle" x="212.5" y="-296" font-family="Helvetica,sans-Serif" font-size="10.00">plazza::Worker::getThread</text>
</a>
</g>
</g>
<!-- Node1&#45;&gt;Node2 -->
<g id="edge1" class="edge"><title>Node1&#45;&gt;Node2</title>
<path fill="none" stroke="midnightblue" d="M67.2939,-232.058C83.8732,-244.541 114.707,-266.348 144,-279.5 149.265,-281.864 154.895,-284.004 160.574,-285.922"/>
<polygon fill="midnightblue" stroke="midnightblue" points="159.531,-289.263 170.121,-288.94 161.641,-282.588 159.531,-289.263"/>
</g>
<!-- Node3 -->
<g id="node3" class="node"><title>Node3</title>
<g id="a_node3"><a xlink:href="classplazza_1_1_worker.html#afb27e757e97e37105f430b9544f4dc01" target="_top" xlink:title="Check if the Worker is busy. ">
<polygon fill="white" stroke="black" points="153,-251 153,-270 272,-270 272,-251 153,-251"/>
<text text-anchor="middle" x="212.5" y="-258" font-family="Helvetica,sans-Serif" font-size="10.00">plazza::Worker::isBusy</text>
</a>
</g>
</g>
<!-- Node1&#45;&gt;Node3 -->
<g id="edge2" class="edge"><title>Node1&#45;&gt;Node3</title>
<path fill="none" stroke="midnightblue" d="M94.4916,-232.089C115.143,-237.104 140.614,-243.288 162.512,-248.605"/>
<polygon fill="midnightblue" stroke="midnightblue" points="161.749,-252.021 172.292,-250.98 163.401,-245.219 161.749,-252.021"/>
</g>
<!-- Node4 -->
<g id="node4" class="node"><title>Node4</title>
<g id="a_node4"><a xlink:href="classplazza_1_1_worker.html#a7e0633e722049076c4c41777ccdf4a13" target="_top" xlink:title="Change worker working state. ">
<polygon fill="white" stroke="black" points="150,-213 150,-232 275,-232 275,-213 150,-213"/>
<text text-anchor="middle" x="212.5" y="-220" font-family="Helvetica,sans-Serif" font-size="10.00">plazza::Worker::setBusy</text>
</a>
</g>
</g>
<!-- Node1&#45;&gt;Node4 -->
<g id="edge3" class="edge"><title>Node1&#45;&gt;Node4</title>
<path fill="none" stroke="midnightblue" d="M108.421,-222.5C118.553,-222.5 129.306,-222.5 139.894,-222.5"/>
<polygon fill="midnightblue" stroke="midnightblue" points="139.971,-226 149.971,-222.5 139.971,-219 139.971,-226"/>
</g>
<!-- Node5 -->
<g id="node5" class="node"><title>Node5</title>
<g id="a_node5"><a xlink:href="classplazza_1_1_worker.html#af17344ef0f0311dadb4f7c7ea9565031" target="_top" xlink:title="Send task to perform to the worker. ">
<polygon fill="white" stroke="black" points="144,-175 144,-194 281,-194 281,-175 144,-175"/>
<text text-anchor="middle" x="212.5" y="-182" font-family="Helvetica,sans-Serif" font-size="10.00">plazza::Worker::performJob</text>
</a>
</g>
</g>
<!-- Node1&#45;&gt;Node5 -->
<g id="edge4" class="edge"><title>Node1&#45;&gt;Node5</title>
<path fill="none" stroke="midnightblue" d="M94.4916,-212.911C115.143,-207.896 140.614,-201.712 162.512,-196.395"/>
<polygon fill="midnightblue" stroke="midnightblue" points="163.401,-199.781 172.292,-194.02 161.749,-192.979 163.401,-199.781"/>
</g>
<!-- Node20 -->
<g id="node20" class="node"><title>Node20</title>
<g id="a_node20"><a xlink:href="classplazza_1_1_worker.html#a5bf3f55802d1770af6ea2ae95c4f90dc" target="_top" xlink:title="Get the list of result found. ">
<polygon fill="white" stroke="black" points="144.5,-137 144.5,-156 280.5,-156 280.5,-137 144.5,-137"/>
<text text-anchor="middle" x="212.5" y="-144" font-family="Helvetica,sans-Serif" font-size="10.00">plazza::Worker::getResults</text>
</a>
</g>
</g>
<!-- Node1&#45;&gt;Node20 -->
<g id="edge21" class="edge"><title>Node1&#45;&gt;Node20</title>
<path fill="none" stroke="midnightblue" d="M67.2939,-212.942C83.8732,-200.459 114.707,-178.652 144,-165.5 149.265,-163.136 154.895,-160.996 160.574,-159.078"/>
<polygon fill="midnightblue" stroke="midnightblue" points="161.641,-162.412 170.121,-156.06 159.531,-155.737 161.641,-162.412"/>
</g>
<!-- Node6 -->
<g id="node6" class="node"><title>Node6</title>
<g id="a_node6"><a xlink:href="classplazza_1_1_file.html#a65844e0df72307648e3f5432ed964fdc" target="_top" xlink:title="Load file provided as parameter. ">
<polygon fill="white" stroke="black" points="331.5,-311 331.5,-330 422.5,-330 422.5,-311 331.5,-311"/>
<text text-anchor="middle" x="377" y="-318" font-family="Helvetica,sans-Serif" font-size="10.00">plazza::File::load</text>
</a>
</g>
</g>
<!-- Node5&#45;&gt;Node6 -->
<g id="edge5" class="edge"><title>Node5&#45;&gt;Node6</title>
<path fill="none" stroke="midnightblue" d="M266.545,-194.117C271.812,-196.574 276.767,-199.651 281,-203.5 313.792,-233.318 285.927,-264.894 317,-296.5 320.732,-300.296 325.147,-303.513 329.856,-306.235"/>
<polygon fill="midnightblue" stroke="midnightblue" points="328.66,-309.55 339.171,-310.88 331.784,-303.285 328.66,-309.55"/>
</g>
<!-- Node8 -->
<g id="node8" class="node"><title>Node8</title>
<g id="a_node8"><a xlink:href="classplazza_1_1_file.html#a928bc2918fada3f1c04ca30d73e18341" target="_top" xlink:title="Check if file is loaded. ">
<polygon fill="white" stroke="black" points="481,-273 481,-292 585,-292 585,-273 481,-273"/>
<text text-anchor="middle" x="533" y="-280" font-family="Helvetica,sans-Serif" font-size="10.00">plazza::File::isOpen</text>
</a>
</g>
</g>
<!-- Node5&#45;&gt;Node8 -->
<g id="edge8" class="edge"><title>Node5&#45;&gt;Node8</title>
<path fill="none" stroke="midnightblue" d="M263.846,-194.005C269.975,-196.473 275.873,-199.583 281,-203.5 305.712,-222.379 290.639,-247 317,-263.5 362.771,-292.149 425.137,-294.565 470.912,-291.204"/>
<polygon fill="midnightblue" stroke="midnightblue" points="471.33,-294.681 480.999,-290.351 470.74,-287.706 471.33,-294.681"/>
</g>
<!-- Node9 -->
<g id="node9" class="node"><title>Node9</title>
<g id="a_node9"><a xlink:href="classplazza_1_1_file.html#a9fb543de19476d4e0623788120dbe793" target="_top" xlink:title="Get loaded file buffer. ">
<polygon fill="white" stroke="black" points="320.5,-235 320.5,-254 433.5,-254 433.5,-235 320.5,-235"/>
<text text-anchor="middle" x="377" y="-242" font-family="Helvetica,sans-Serif" font-size="10.00">plazza::File::getBuffer</text>
</a>
</g>
</g>
<!-- Node5&#45;&gt;Node9 -->
<g id="edge9" class="edge"><title>Node5&#45;&gt;Node9</title>
<path fill="none" stroke="midnightblue" d="M254.464,-194.087C263.373,-196.705 272.631,-199.848 281,-203.5 298.186,-211 299.956,-217.682 317,-225.5 321.768,-227.687 326.86,-229.73 331.979,-231.605"/>
<polygon fill="midnightblue" stroke="midnightblue" points="331.185,-235.034 341.78,-234.996 333.474,-228.418 331.185,-235.034"/>
</g>
<!-- Node10 -->
<g id="node10" class="node"><title>Node10</title>
<g id="a_node10"><a xlink:href="classplazza_1_1_xor_cracker.html#a4d74f576654cf3a0b83ce937d56e2cef" target="_top" xlink:title="plazza::XorCracker::run">
<polygon fill="white" stroke="black" points="317,-197 317,-216 437,-216 437,-197 317,-197"/>
<text text-anchor="middle" x="377" y="-204" font-family="Helvetica,sans-Serif" font-size="10.00">plazza::XorCracker::run</text>
</a>
</g>
</g>
<!-- Node5&#45;&gt;Node10 -->
<g id="edge10" class="edge"><title>Node5&#45;&gt;Node10</title>
<path fill="none" stroke="midnightblue" d="M281.003,-193.639C289.589,-194.801 298.387,-195.992 306.997,-197.158"/>
<polygon fill="midnightblue" stroke="midnightblue" points="306.614,-200.638 316.994,-198.511 307.554,-193.701 306.614,-200.638"/>
</g>
<!-- Node15 -->
<g id="node15" class="node"><title>Node15</title>
<g id="a_node15"><a xlink:href="classplazza_1_1_xor_cracker.html#aea0b940bf73740a1747d5a7a71fa6eb8" target="_top" xlink:title="plazza::XorCracker\l::getKeyXor">
<polygon fill="white" stroke="black" points="326.5,-147.5 326.5,-177.5 427.5,-177.5 427.5,-147.5 326.5,-147.5"/>
<text text-anchor="start" x="334.5" y="-165.5" font-family="Helvetica,sans-Serif" font-size="10.00">plazza::XorCracker</text>
<text text-anchor="middle" x="377" y="-154.5" font-family="Helvetica,sans-Serif" font-size="10.00">::getKeyXor</text>
</a>
</g>
</g>
<!-- Node5&#45;&gt;Node15 -->
<g id="edge15" class="edge"><title>Node5&#45;&gt;Node15</title>
<path fill="none" stroke="midnightblue" d="M281.003,-175.361C292.738,-173.772 304.868,-172.13 316.373,-170.573"/>
<polygon fill="midnightblue" stroke="midnightblue" points="316.858,-174.039 326.298,-169.229 315.919,-167.102 316.858,-174.039"/>
</g>
<!-- Node17 -->
<g id="node17" class="node"><title>Node17</title>
<g id="a_node17"><a xlink:href="classplazza_1_1_xor_cypher.html#ad0a9d682c47c355d1e8ee848eaa8bd80" target="_top" xlink:title="Set current cypher key. ">
<polygon fill="white" stroke="black" points="325,-98.5 325,-128.5 429,-128.5 429,-98.5 325,-98.5"/>
<text text-anchor="start" x="333" y="-116.5" font-family="Helvetica,sans-Serif" font-size="10.00">plazza::XorCypher::</text>
<text text-anchor="middle" x="377" y="-105.5" font-family="Helvetica,sans-Serif" font-size="10.00">setKey</text>
</a>
</g>
</g>
<!-- Node5&#45;&gt;Node17 -->
<g id="edge17" class="edge"><title>Node5&#45;&gt;Node17</title>
<path fill="none" stroke="midnightblue" d="M256.93,-174.959C265.142,-172.413 273.502,-169.287 281,-165.5 299.093,-156.361 299.447,-147.636 317,-137.5 319.69,-135.946 322.501,-134.445 325.372,-133.002"/>
<polygon fill="midnightblue" stroke="midnightblue" points="327.133,-136.042 334.681,-128.606 324.144,-129.712 327.133,-136.042"/>
</g>
<!-- Node18 -->
<g id="node18" class="node"><title>Node18</title>
<g id="a_node18"><a xlink:href="classplazza_1_1_caesar_cypher.html#a6a66388dc0df6d0a66595b279432bf08" target="_top" xlink:title="set actual shift ">
<polygon fill="white" stroke="black" points="320,-49.5 320,-79.5 434,-79.5 434,-49.5 320,-49.5"/>
<text text-anchor="start" x="328" y="-67.5" font-family="Helvetica,sans-Serif" font-size="10.00">plazza::CaesarCypher</text>
<text text-anchor="middle" x="377" y="-56.5" font-family="Helvetica,sans-Serif" font-size="10.00">::setMoved</text>
</a>
</g>
</g>
<!-- Node5&#45;&gt;Node18 -->
<g id="edge18" class="edge"><title>Node5&#45;&gt;Node18</title>
<path fill="none" stroke="midnightblue" d="M265.608,-174.895C271.173,-172.44 276.453,-169.361 281,-165.5 309.798,-141.05 289.615,-114.523 317,-88.5 318.127,-87.4288 319.309,-86.4029 320.535,-85.4205"/>
<polygon fill="midnightblue" stroke="midnightblue" points="322.873,-88.0635 329.18,-79.5501 318.941,-82.2724 322.873,-88.0635"/>
</g>
<!-- Node19 -->
<g id="node19" class="node"><title>Node19</title>
<g id="a_node19"><a xlink:href="classplazza_1_1_xor_cracker.html#a6cd011c228fb1cce2424815604ca2c9a" target="_top" xlink:title="plazza::XorCracker\l::getKeyCaesar">
<polygon fill="white" stroke="black" points="326.5,-0.5 326.5,-30.5 427.5,-30.5 427.5,-0.5 326.5,-0.5"/>
<text text-anchor="start" x="334.5" y="-18.5" font-family="Helvetica,sans-Serif" font-size="10.00">plazza::XorCracker</text>
<text text-anchor="middle" x="377" y="-7.5" font-family="Helvetica,sans-Serif" font-size="10.00">::getKeyCaesar</text>
</a>
</g>
</g>
<!-- Node5&#45;&gt;Node19 -->
<g id="edge19" class="edge"><title>Node5&#45;&gt;Node19</title>
<path fill="none" stroke="midnightblue" d="M267.566,-174.934C272.516,-172.46 277.119,-169.366 281,-165.5 322.263,-124.398 278.101,-82.846 317,-39.5 317.872,-38.5278 318.79,-37.5943 319.747,-36.6978"/>
<polygon fill="midnightblue" stroke="midnightblue" points="321.965,-39.4066 327.746,-30.5276 317.69,-33.8638 321.965,-39.4066"/>
</g>
<!-- Node7 -->
<g id="node7" class="node"><title>Node7</title>
<g id="a_node7"><a xlink:href="classplazza_1_1_file.html#aad99fa99466b458697a29effd5677b96" target="_top" xlink:title="Define file state. ">
<polygon fill="white" stroke="black" points="478,-311 478,-330 588,-330 588,-311 478,-311"/>
<text text-anchor="middle" x="533" y="-318" font-family="Helvetica,sans-Serif" font-size="10.00">plazza::File::setOpen</text>
</a>
</g>
</g>
<!-- Node6&#45;&gt;Node7 -->
<g id="edge6" class="edge"><title>Node6&#45;&gt;Node7</title>
<path fill="none" stroke="midnightblue" d="M422.543,-320.5C436.545,-320.5 452.3,-320.5 467.402,-320.5"/>
<polygon fill="midnightblue" stroke="midnightblue" points="467.722,-324 477.722,-320.5 467.722,-317 467.722,-324"/>
</g>
<!-- Node6&#45;&gt;Node8 -->
<g id="edge7" class="edge"><title>Node6&#45;&gt;Node8</title>
<path fill="none" stroke="midnightblue" d="M416.861,-310.911C437.091,-305.919 462.021,-299.768 483.504,-294.467"/>
<polygon fill="midnightblue" stroke="midnightblue" points="484.548,-297.814 493.419,-292.02 482.871,-291.018 484.548,-297.814"/>
</g>
<!-- Node11 -->
<g id="node11" class="node"><title>Node11</title>
<g id="a_node11"><a xlink:href="classplazza_1_1_xor_cracker.html#a0b187c82af91eba8d23f9cac170fe90a" target="_top" xlink:title="plazza::XorCracker\l::setBuffer">
<polygon fill="white" stroke="black" points="482.5,-207.5 482.5,-237.5 583.5,-237.5 583.5,-207.5 482.5,-207.5"/>
<text text-anchor="start" x="490.5" y="-225.5" font-family="Helvetica,sans-Serif" font-size="10.00">plazza::XorCracker</text>
<text text-anchor="middle" x="533" y="-214.5" font-family="Helvetica,sans-Serif" font-size="10.00">::setBuffer</text>
</a>
</g>
</g>
<!-- Node10&#45;&gt;Node11 -->
<g id="edge11" class="edge"><title>Node10&#45;&gt;Node11</title>
<path fill="none" stroke="midnightblue" d="M437.1,-212.64C448.646,-213.84 460.761,-215.099 472.326,-216.3"/>
<polygon fill="midnightblue" stroke="midnightblue" points="472.011,-219.786 482.32,-217.338 472.735,-212.824 472.011,-219.786"/>
</g>
<!-- Node12 -->
<g id="node12" class="node"><title>Node12</title>
<g id="a_node12"><a xlink:href="classplazza_1_1_xor_cracker.html#ad190633b59d1fb23b403f44d837085f8" target="_top" xlink:title="plazza::XorCracker::run">
<polygon fill="white" stroke="black" points="473,-169 473,-188 593,-188 593,-169 473,-169"/>
<text text-anchor="middle" x="533" y="-176" font-family="Helvetica,sans-Serif" font-size="10.00">plazza::XorCracker::run</text>
</a>
</g>
</g>
<!-- Node10&#45;&gt;Node12 -->
<g id="edge12" class="edge"><title>Node10&#45;&gt;Node12</title>
<path fill="none" stroke="midnightblue" d="M430.567,-196.942C443.081,-194.667 456.554,-192.217 469.465,-189.87"/>
<polygon fill="midnightblue" stroke="midnightblue" points="470.457,-193.247 479.67,-188.015 469.205,-186.36 470.457,-193.247"/>
</g>
<!-- Node13 -->
<g id="node13" class="node"><title>Node13</title>
<g id="a_node13"><a xlink:href="classplazza_1_1_xor_cracker.html#a39471c4bb769b0b20a3fdd34f5a77cec" target="_top" xlink:title="plazza::XorCracker\l::getMaxKeyLength">
<polygon fill="white" stroke="black" points="635,-188.5 635,-218.5 736,-218.5 736,-188.5 635,-188.5"/>
<text text-anchor="start" x="643" y="-206.5" font-family="Helvetica,sans-Serif" font-size="10.00">plazza::XorCracker</text>
<text text-anchor="middle" x="685.5" y="-195.5" font-family="Helvetica,sans-Serif" font-size="10.00">::getMaxKeyLength</text>
</a>
</g>
</g>
<!-- Node12&#45;&gt;Node13 -->
<g id="edge13" class="edge"><title>Node12&#45;&gt;Node13</title>
<path fill="none" stroke="midnightblue" d="M591.327,-188.023C602.266,-189.84 613.742,-191.746 624.754,-193.575"/>
<polygon fill="midnightblue" stroke="midnightblue" points="624.271,-197.043 634.709,-195.229 625.418,-190.138 624.271,-197.043"/>
</g>
<!-- Node14 -->
<g id="node14" class="node"><title>Node14</title>
<g id="a_node14"><a xlink:href="classplazza_1_1_xor_cracker.html#aa398a0cced229d03cf6a51c1b1ab8ba3" target="_top" xlink:title="plazza::XorCracker\l::setKnownKeyLength">
<polygon fill="white" stroke="black" points="629,-139.5 629,-169.5 742,-169.5 742,-139.5 629,-139.5"/>
<text text-anchor="start" x="637" y="-157.5" font-family="Helvetica,sans-Serif" font-size="10.00">plazza::XorCracker</text>
<text text-anchor="middle" x="685.5" y="-146.5" font-family="Helvetica,sans-Serif" font-size="10.00">::setKnownKeyLength</text>
</a>
</g>
</g>
<!-- Node12&#45;&gt;Node14 -->
<g id="edge14" class="edge"><title>Node12&#45;&gt;Node14</title>
<path fill="none" stroke="midnightblue" d="M593.05,-169.083C601.455,-167.743 610.142,-166.358 618.667,-164.998"/>
<polygon fill="midnightblue" stroke="midnightblue" points="619.247,-168.45 628.571,-163.419 618.145,-161.537 619.247,-168.45"/>
</g>
<!-- Node16 -->
<g id="node16" class="node"><title>Node16</title>
<g id="a_node16"><a xlink:href="classplazza_1_1_xor_cracker.html#a9bb75f11814aa5eb3264be361c1be106" target="_top" xlink:title="plazza::XorCracker\l::getKnownKeyLength">
<polygon fill="white" stroke="black" points="476.5,-68.5 476.5,-98.5 589.5,-98.5 589.5,-68.5 476.5,-68.5"/>
<text text-anchor="start" x="484.5" y="-86.5" font-family="Helvetica,sans-Serif" font-size="10.00">plazza::XorCracker</text>
<text text-anchor="middle" x="533" y="-75.5" font-family="Helvetica,sans-Serif" font-size="10.00">::getKnownKeyLength</text>
</a>
</g>
</g>
<!-- Node15&#45;&gt;Node16 -->
<g id="edge16" class="edge"><title>Node15&#45;&gt;Node16</title>
<path fill="none" stroke="midnightblue" d="M415.435,-147.412C422.66,-144.283 430.118,-140.9 437,-137.5 457.857,-127.196 480.531,-114.374 498.494,-103.809"/>
<polygon fill="midnightblue" stroke="midnightblue" points="500.607,-106.626 507.424,-98.5161 497.037,-100.604 500.607,-106.626"/>
</g>
<!-- Node19&#45;&gt;Node16 -->
<g id="edge20" class="edge"><title>Node19&#45;&gt;Node16</title>
<path fill="none" stroke="midnightblue" d="M415.881,-30.5992C422.926,-33.495 430.205,-36.5465 437,-39.5 454.836,-47.2531 474.359,-56.2118 491.042,-64.0138"/>
<polygon fill="midnightblue" stroke="midnightblue" points="489.963,-67.3738 500.503,-68.456 492.939,-61.0375 489.963,-67.3738"/>
</g>
</g>
</svg>
