<?xml version="1.0" encoding="UTF-8" standalone="no"?>
<!DOCTYPE svg PUBLIC "-//W3C//DTD SVG 1.1//EN"
 "http://www.w3.org/Graphics/SVG/1.1/DTD/svg11.dtd">
<!-- Generated by graphviz version 2.38.0 (20140413.2041)
 -->
<!-- Title: plazza::XorCracker::run Pages: 1 -->
<svg width="582pt" height="100pt"
 viewBox="0.00 0.00 582.00 99.50" xmlns="http://www.w3.org/2000/svg" xmlns:xlink="http://www.w3.org/1999/xlink">
<g id="graph0" class="graph" transform="scale(1 1) rotate(0) translate(4 95.5)">
<title>plazza::XorCracker::run</title>
<!-- Node1 -->
<g id="node1" class="node"><title>Node1</title>
<polygon fill="#bfbfbf" stroke="black" points="0,-28 0,-47 120,-47 120,-28 0,-28"/>
<text text-anchor="middle" x="60" y="-35" font-family="Helvetica,sans-Serif" font-size="10.00">plazza::XorCracker::run</text>
</g>
<!-- Node2 -->
<g id="node2" class="node"><title>Node2</title>
<g id="a_node2"><a xlink:href="classplazza_1_1_worker.html#af17344ef0f0311dadb4f7c7ea9565031" target="_top" xlink:title="Send task to perform to the worker. ">
<polygon fill="none" stroke="black" points="156,-28 156,-47 293,-47 293,-28 156,-28"/>
<text text-anchor="middle" x="224.5" y="-35" font-family="Helvetica,sans-Serif" font-size="10.00">plazza::Worker::performJob</text>
</a>
</g>
</g>
<!-- Node1&#45;&gt;Node2 -->
<g id="edge1" class="edge"><title>Node1&#45;&gt;Node2</title>
<path fill="none" stroke="midnightblue" d="M130.337,-37.5C138.801,-37.5 147.441,-37.5 155.88,-37.5"/>
<polygon fill="midnightblue" stroke="midnightblue" points="130.126,-34.0001 120.126,-37.5 130.126,-41.0001 130.126,-34.0001"/>
</g>
<!-- Node3 -->
<g id="node3" class="node"><title>Node3</title>
<g id="a_node3"><a xlink:href="classplazza_1_1_worker.html#aa7561bf24cd0a90230ddd99b43b18a11" target="_top" xlink:title="Start thread execution. ">
<polygon fill="none" stroke="black" points="329,-72 329,-91 437,-91 437,-72 329,-72"/>
<text text-anchor="middle" x="383" y="-79" font-family="Helvetica,sans-Serif" font-size="10.00">plazza::Worker::start</text>
</a>
</g>
</g>
<!-- Node2&#45;&gt;Node3 -->
<g id="edge2" class="edge"><title>Node2&#45;&gt;Node3</title>
<path fill="none" stroke="midnightblue" d="M269.395,-49.8412C294.322,-56.8493 325.051,-65.4888 348.108,-71.9713"/>
<polygon fill="midnightblue" stroke="midnightblue" points="270.032,-46.3846 259.458,-47.0473 268.138,-53.1233 270.032,-46.3846"/>
</g>
<!-- Node4 -->
<g id="node4" class="node"><title>Node4</title>
<g id="a_node4"><a xlink:href="classplazza_1_1_thread_pool.html#a85b5323591017ee418afb0fdc9e3d9a7" target="_top" xlink:title="Get the number of total workers. ">
<polygon fill="none" stroke="black" points="332.5,-22.5 332.5,-52.5 433.5,-52.5 433.5,-22.5 332.5,-22.5"/>
<text text-anchor="start" x="340.5" y="-40.5" font-family="Helvetica,sans-Serif" font-size="10.00">plazza::ThreadPool</text>
<text text-anchor="middle" x="383" y="-29.5" font-family="Helvetica,sans-Serif" font-size="10.00">::getNbWorkers</text>
</a>
</g>
</g>
<!-- Node2&#45;&gt;Node4 -->
<g id="edge3" class="edge"><title>Node2&#45;&gt;Node4</title>
<path fill="none" stroke="midnightblue" d="M303.382,-37.5C313.148,-37.5 322.921,-37.5 332.094,-37.5"/>
<polygon fill="midnightblue" stroke="midnightblue" points="303.233,-34.0001 293.233,-37.5 303.233,-41.0001 303.233,-34.0001"/>
</g>
<!-- Node5 -->
<g id="node5" class="node"><title>Node5</title>
<g id="a_node5"><a xlink:href="classplazza_1_1_thread_pool.html#ae3447aa58cee4c5206d194f144d207c3" target="_top" xlink:title="Class constructor. ">
<polygon fill="none" stroke="black" points="473,-0.5 473,-30.5 574,-30.5 574,-0.5 473,-0.5"/>
<text text-anchor="start" x="481" y="-18.5" font-family="Helvetica,sans-Serif" font-size="10.00">plazza::ThreadPool</text>
<text text-anchor="middle" x="523.5" y="-7.5" font-family="Helvetica,sans-Serif" font-size="10.00">::ThreadPool</text>
</a>
</g>
</g>
<!-- Node2&#45;&gt;Node5 -->
<g id="edge5" class="edge"><title>Node2&#45;&gt;Node5</title>
<path fill="none" stroke="midnightblue" d="M268.157,-25.3039C286.685,-20.6081 308.744,-15.8178 329,-13.5 376.689,-8.04325 389.003,-12.9387 437,-13.5 448.581,-13.6354 461.041,-13.874 472.771,-14.1403"/>
<polygon fill="midnightblue" stroke="midnightblue" points="267.052,-21.9748 258.26,-27.8866 268.82,-28.748 267.052,-21.9748"/>
</g>
<!-- Node4&#45;&gt;Node5 -->
<g id="edge4" class="edge"><title>Node4&#45;&gt;Node5</title>
<path fill="none" stroke="midnightblue" d="M443.615,-28.0304C453.338,-26.4861 463.318,-24.9007 472.77,-23.3993"/>
<polygon fill="midnightblue" stroke="midnightblue" points="442.938,-24.5941 433.61,-29.6196 444.036,-31.5074 442.938,-24.5941"/>
</g>
</g>
</svg>
