<?xml version="1.0" encoding="UTF-8" standalone="no"?>
<!DOCTYPE svg PUBLIC "-//W3C//DTD SVG 1.1//EN"
 "http://www.w3.org/Graphics/SVG/1.1/DTD/svg11.dtd">
<!-- Generated by graphviz version 2.38.0 (20140413.2041)
 -->
<!-- Title: plazza::Office::close Pages: 1 -->
<svg width="586pt" height="312pt"
 viewBox="0.00 0.00 586.00 312.00" xmlns="http://www.w3.org/2000/svg" xmlns:xlink="http://www.w3.org/1999/xlink">
<g id="graph0" class="graph" transform="scale(1 1) rotate(0) translate(4 308)">
<title>plazza::Office::close</title>
<!-- Node1 -->
<g id="node1" class="node"><title>Node1</title>
<polygon fill="#bfbfbf" stroke="black" points="0,-134 0,-153 107,-153 107,-134 0,-134"/>
<text text-anchor="middle" x="53.5" y="-141" font-family="Helvetica,sans-Serif" font-size="10.00">plazza::Office::close</text>
</g>
<!-- Node2 -->
<g id="node2" class="node"><title>Node2</title>
<g id="a_node2"><a xlink:href="classplazza_1_1_office.html#a1f32b2702e30f57d8500edf91530f71c" target="_top" xlink:title="Get Office process pid. ">
<polygon fill="none" stroke="black" points="145.5,-227 145.5,-246 256.5,-246 256.5,-227 145.5,-227"/>
<text text-anchor="middle" x="201" y="-234" font-family="Helvetica,sans-Serif" font-size="10.00">plazza::Office::getPid</text>
</a>
</g>
</g>
<!-- Node1&#45;&gt;Node2 -->
<g id="edge1" class="edge"><title>Node1&#45;&gt;Node2</title>
<path fill="none" stroke="midnightblue" d="M63.436,-153C78.4925,-168.507 110.472,-199.344 143,-217.5 146.74,-219.588 150.747,-221.494 154.839,-223.224"/>
<polygon fill="midnightblue" stroke="midnightblue" points="153.865,-226.601 164.455,-226.943 156.39,-220.072 153.865,-226.601"/>
</g>
<!-- Node3 -->
<g id="node3" class="node"><title>Node3</title>
<g id="a_node3"><a xlink:href="classplazza_1_1_connector_pipe.html#a6a5aa2b09b3f85badda3ff5161e86f74" target="_top" xlink:title="plazza::ConnectorPipe\l::transfertData">
<polygon fill="none" stroke="black" points="143,-177.5 143,-207.5 259,-207.5 259,-177.5 143,-177.5"/>
<text text-anchor="start" x="151" y="-195.5" font-family="Helvetica,sans-Serif" font-size="10.00">plazza::ConnectorPipe</text>
<text text-anchor="middle" x="201" y="-184.5" font-family="Helvetica,sans-Serif" font-size="10.00">::transfertData</text>
</a>
</g>
</g>
<!-- Node1&#45;&gt;Node3 -->
<g id="edge2" class="edge"><title>Node1&#45;&gt;Node3</title>
<path fill="none" stroke="midnightblue" d="M82.8993,-153.064C100.757,-159.078 124.38,-167.033 145.729,-174.223"/>
<polygon fill="midnightblue" stroke="midnightblue" points="144.755,-177.588 155.349,-177.463 146.989,-170.954 144.755,-177.588"/>
</g>
<!-- Node8 -->
<g id="node8" class="node"><title>Node8</title>
<g id="a_node8"><a xlink:href="classplazza_1_1_thread_pool.html#a927215245cf2e50525f7706056b26e50" target="_top" xlink:title="Stop the pool execution. ">
<polygon fill="none" stroke="black" points="150.5,-128.5 150.5,-158.5 251.5,-158.5 251.5,-128.5 150.5,-128.5"/>
<text text-anchor="start" x="158.5" y="-146.5" font-family="Helvetica,sans-Serif" font-size="10.00">plazza::ThreadPool</text>
<text text-anchor="middle" x="201" y="-135.5" font-family="Helvetica,sans-Serif" font-size="10.00">::stop</text>
</a>
</g>
</g>
<!-- Node1&#45;&gt;Node8 -->
<g id="edge8" class="edge"><title>Node1&#45;&gt;Node8</title>
<path fill="none" stroke="midnightblue" d="M107.029,-143.5C117.873,-143.5 129.368,-143.5 140.441,-143.5"/>
<polygon fill="midnightblue" stroke="midnightblue" points="140.461,-147 150.461,-143.5 140.461,-140 140.461,-147"/>
</g>
<!-- Node10 -->
<g id="node10" class="node"><title>Node10</title>
<g id="a_node10"><a xlink:href="classplazza_1_1_connector_pipe.html#a588544d4eebd85f8f05e43f826ea47bd" target="_top" xlink:title="plazza::ConnectorPipe\l::disconnect">
<polygon fill="none" stroke="black" points="302.5,-0.5 302.5,-30.5 418.5,-30.5 418.5,-0.5 302.5,-0.5"/>
<text text-anchor="start" x="310.5" y="-18.5" font-family="Helvetica,sans-Serif" font-size="10.00">plazza::ConnectorPipe</text>
<text text-anchor="middle" x="360.5" y="-7.5" font-family="Helvetica,sans-Serif" font-size="10.00">::disconnect</text>
</a>
</g>
</g>
<!-- Node1&#45;&gt;Node10 -->
<g id="edge10" class="edge"><title>Node1&#45;&gt;Node10</title>
<path fill="none" stroke="midnightblue" d="M60.9716,-133.824C74.0446,-115.125 105.567,-74.1415 143,-54.5 189.121,-30.2996 247.544,-20.8155 292.073,-17.2361"/>
<polygon fill="midnightblue" stroke="midnightblue" points="292.492,-20.7151 302.213,-16.503 291.987,-13.7333 292.492,-20.7151"/>
</g>
<!-- Node12 -->
<g id="node12" class="node"><title>Node12</title>
<g id="a_node12"><a xlink:href="classplazza_1_1_connector_pipe.html#ac6e124ff9380729df4e1491b3c365d95" target="_top" xlink:title="plazza::ConnectorPipe\l::destroy">
<polygon fill="none" stroke="black" points="143,-64.5 143,-94.5 259,-94.5 259,-64.5 143,-64.5"/>
<text text-anchor="start" x="151" y="-82.5" font-family="Helvetica,sans-Serif" font-size="10.00">plazza::ConnectorPipe</text>
<text text-anchor="middle" x="201" y="-71.5" font-family="Helvetica,sans-Serif" font-size="10.00">::destroy</text>
</a>
</g>
</g>
<!-- Node1&#45;&gt;Node12 -->
<g id="edge13" class="edge"><title>Node1&#45;&gt;Node12</title>
<path fill="none" stroke="midnightblue" d="M76.2828,-133.919C97.3939,-124.633 130.012,-110.285 156.457,-98.653"/>
<polygon fill="midnightblue" stroke="midnightblue" points="158.143,-101.735 165.887,-94.5048 155.325,-95.3275 158.143,-101.735"/>
</g>
<!-- Node4 -->
<g id="node4" class="node"><title>Node4</title>
<g id="a_node4"><a xlink:href="classplazza_1_1_connector_pipe.html#ac96ba32f2efbdaa1b0371ea98532b40b" target="_top" xlink:title="plazza::ConnectorPipe\l::getMode">
<polygon fill="none" stroke="black" points="302.5,-273.5 302.5,-303.5 418.5,-303.5 418.5,-273.5 302.5,-273.5"/>
<text text-anchor="start" x="310.5" y="-291.5" font-family="Helvetica,sans-Serif" font-size="10.00">plazza::ConnectorPipe</text>
<text text-anchor="middle" x="360.5" y="-280.5" font-family="Helvetica,sans-Serif" font-size="10.00">::getMode</text>
</a>
</g>
</g>
<!-- Node3&#45;&gt;Node4 -->
<g id="edge3" class="edge"><title>Node3&#45;&gt;Node4</title>
<path fill="none" stroke="midnightblue" d="M243.293,-207.595C248.834,-210.468 254.239,-213.765 259,-217.5 279.702,-233.741 273.843,-248.856 295,-264.5 296.873,-265.885 298.836,-267.199 300.862,-268.443"/>
<polygon fill="midnightblue" stroke="midnightblue" points="299.629,-271.757 310.085,-273.468 302.978,-265.61 299.629,-271.757"/>
</g>
<!-- Node5 -->
<g id="node5" class="node"><title>Node5</title>
<g id="a_node5"><a xlink:href="classplazza_1_1_connector_pipe.html#a7570f6cfb8520505247db4727d45bed1" target="_top" xlink:title="plazza::ConnectorPipe\l::receiveData">
<polygon fill="none" stroke="black" points="302.5,-175.5 302.5,-205.5 418.5,-205.5 418.5,-175.5 302.5,-175.5"/>
<text text-anchor="start" x="310.5" y="-193.5" font-family="Helvetica,sans-Serif" font-size="10.00">plazza::ConnectorPipe</text>
<text text-anchor="middle" x="360.5" y="-182.5" font-family="Helvetica,sans-Serif" font-size="10.00">::receiveData</text>
</a>
</g>
</g>
<!-- Node3&#45;&gt;Node5 -->
<g id="edge4" class="edge"><title>Node3&#45;&gt;Node5</title>
<path fill="none" stroke="midnightblue" d="M259.307,-191.772C270.081,-191.635 281.435,-191.491 292.475,-191.351"/>
<polygon fill="midnightblue" stroke="midnightblue" points="292.545,-194.851 302.5,-191.224 292.456,-187.851 292.545,-194.851"/>
</g>
<!-- Node7 -->
<g id="node7" class="node"><title>Node7</title>
<g id="a_node7"><a xlink:href="classplazza_1_1_connector_pipe.html#ad8062cefc673b98824dff56b5534a056" target="_top" xlink:title="plazza::ConnectorPipe\l::sendData">
<polygon fill="none" stroke="black" points="302.5,-224.5 302.5,-254.5 418.5,-254.5 418.5,-224.5 302.5,-224.5"/>
<text text-anchor="start" x="310.5" y="-242.5" font-family="Helvetica,sans-Serif" font-size="10.00">plazza::ConnectorPipe</text>
<text text-anchor="middle" x="360.5" y="-231.5" font-family="Helvetica,sans-Serif" font-size="10.00">::sendData</text>
</a>
</g>
</g>
<!-- Node3&#45;&gt;Node7 -->
<g id="edge6" class="edge"><title>Node3&#45;&gt;Node7</title>
<path fill="none" stroke="midnightblue" d="M252.267,-207.5C267.185,-211.952 283.678,-216.874 299.165,-221.495"/>
<polygon fill="midnightblue" stroke="midnightblue" points="298.587,-224.975 309.17,-224.481 300.589,-218.268 298.587,-224.975"/>
</g>
<!-- Node6 -->
<g id="node6" class="node"><title>Node6</title>
<g id="a_node6"><a xlink:href="classplazza_1_1_connector_pipe.html#a81c0af2d4860745accb6ddf522180740" target="_top" xlink:title="plazza::ConnectorPipe\l::getFd">
<polygon fill="none" stroke="black" points="462,-134.5 462,-164.5 578,-164.5 578,-134.5 462,-134.5"/>
<text text-anchor="start" x="470" y="-152.5" font-family="Helvetica,sans-Serif" font-size="10.00">plazza::ConnectorPipe</text>
<text text-anchor="middle" x="520" y="-141.5" font-family="Helvetica,sans-Serif" font-size="10.00">::getFd</text>
</a>
</g>
</g>
<!-- Node5&#45;&gt;Node6 -->
<g id="edge5" class="edge"><title>Node5&#45;&gt;Node6</title>
<path fill="none" stroke="midnightblue" d="M418.807,-175.582C429.691,-172.749 441.167,-169.761 452.313,-166.86"/>
<polygon fill="midnightblue" stroke="midnightblue" points="453.204,-170.245 462,-164.338 451.44,-163.47 453.204,-170.245"/>
</g>
<!-- Node7&#45;&gt;Node6 -->
<g id="edge7" class="edge"><title>Node7&#45;&gt;Node6</title>
<path fill="none" stroke="midnightblue" d="M406.575,-224.454C413.214,-221.746 419.875,-218.741 426,-215.5 449.761,-202.927 474.479,-185.124 492.455,-171.176"/>
<polygon fill="midnightblue" stroke="midnightblue" points="495.014,-173.616 500.704,-164.679 490.682,-168.117 495.014,-173.616"/>
</g>
<!-- Node9 -->
<g id="node9" class="node"><title>Node9</title>
<g id="a_node9"><a xlink:href="classplazza_1_1_cond_var.html#a06ecb812639ea15519117b3be3524e43" target="_top" xlink:title="Notify all. ">
<polygon fill="none" stroke="black" points="295,-137 295,-156 426,-156 426,-137 295,-137"/>
<text text-anchor="middle" x="360.5" y="-144" font-family="Helvetica,sans-Serif" font-size="10.00">plazza::CondVar::notifyAll</text>
</a>
</g>
</g>
<!-- Node8&#45;&gt;Node9 -->
<g id="edge9" class="edge"><title>Node8&#45;&gt;Node9</title>
<path fill="none" stroke="midnightblue" d="M251.834,-144.449C262.322,-144.649 273.605,-144.864 284.779,-145.077"/>
<polygon fill="midnightblue" stroke="midnightblue" points="284.919,-148.58 294.984,-145.271 285.053,-141.581 284.919,-148.58"/>
</g>
<!-- Node10&#45;&gt;Node6 -->
<g id="edge11" class="edge"><title>Node10&#45;&gt;Node6</title>
<path fill="none" stroke="midnightblue" d="M410.42,-30.596C415.891,-33.1769 421.21,-36.1338 426,-39.5 459.347,-62.9357 487.929,-101.117 504.296,-125.769"/>
<polygon fill="midnightblue" stroke="midnightblue" points="501.38,-127.704 509.76,-134.187 507.251,-123.893 501.38,-127.704"/>
</g>
<!-- Node11 -->
<g id="node11" class="node"><title>Node11</title>
<g id="a_node11"><a xlink:href="classplazza_1_1_connector_pipe.html#a4609ad27d1a9847c051fc3be7638e656" target="_top" xlink:title="plazza::ConnectorPipe\l::setFd">
<polygon fill="none" stroke="black" points="462,-0.5 462,-30.5 578,-30.5 578,-0.5 462,-0.5"/>
<text text-anchor="start" x="470" y="-18.5" font-family="Helvetica,sans-Serif" font-size="10.00">plazza::ConnectorPipe</text>
<text text-anchor="middle" x="520" y="-7.5" font-family="Helvetica,sans-Serif" font-size="10.00">::setFd</text>
</a>
</g>
</g>
<!-- Node10&#45;&gt;Node11 -->
<g id="edge12" class="edge"><title>Node10&#45;&gt;Node11</title>
<path fill="none" stroke="midnightblue" d="M418.807,-15.5C429.581,-15.5 440.935,-15.5 451.975,-15.5"/>
<polygon fill="midnightblue" stroke="midnightblue" points="452,-19.0001 462,-15.5 452,-12.0001 452,-19.0001"/>
</g>
<!-- Node12&#45;&gt;Node6 -->
<g id="edge14" class="edge"><title>Node12&#45;&gt;Node6</title>
<path fill="none" stroke="midnightblue" d="M259.155,-91.3989C304.463,-100.915 369.354,-114.732 426,-127.5 434.467,-129.408 443.357,-131.456 452.144,-133.505"/>
<polygon fill="midnightblue" stroke="midnightblue" points="451.457,-136.939 461.992,-135.813 453.054,-130.123 451.457,-136.939"/>
</g>
<!-- Node12&#45;&gt;Node10 -->
<g id="edge15" class="edge"><title>Node12&#45;&gt;Node10</title>
<path fill="none" stroke="midnightblue" d="M235.842,-64.4619C253.404,-56.7809 275.26,-47.4121 295,-39.5 299.412,-37.7317 304.01,-35.9334 308.63,-34.1571"/>
<polygon fill="midnightblue" stroke="midnightblue" points="309.989,-37.385 318.092,-30.5588 307.501,-30.8422 309.989,-37.385"/>
</g>
<!-- Node13 -->
<g id="node13" class="node"><title>Node13</title>
<g id="a_node13"><a xlink:href="classplazza_1_1_connector_pipe.html#acc3d09548d11f5e39ec5b53a2796e9df" target="_top" xlink:title="plazza::ConnectorPipe\l::getName">
<polygon fill="none" stroke="black" points="302.5,-49.5 302.5,-79.5 418.5,-79.5 418.5,-49.5 302.5,-49.5"/>
<text text-anchor="start" x="310.5" y="-67.5" font-family="Helvetica,sans-Serif" font-size="10.00">plazza::ConnectorPipe</text>
<text text-anchor="middle" x="360.5" y="-56.5" font-family="Helvetica,sans-Serif" font-size="10.00">::getName</text>
</a>
</g>
</g>
<!-- Node12&#45;&gt;Node13 -->
<g id="edge16" class="edge"><title>Node12&#45;&gt;Node13</title>
<path fill="none" stroke="midnightblue" d="M259.307,-74.0422C270.081,-73.0161 281.435,-71.9347 292.475,-70.8833"/>
<polygon fill="midnightblue" stroke="midnightblue" points="292.877,-74.361 302.5,-69.9286 292.213,-67.3925 292.877,-74.361"/>
</g>
</g>
</svg>
