<?xml version="1.0" encoding="UTF-8" standalone="no"?>
<!DOCTYPE svg PUBLIC "-//W3C//DTD SVG 1.1//EN"
 "http://www.w3.org/Graphics/SVG/1.1/DTD/svg11.dtd">
<!-- Generated by graphviz version 2.38.0 (20140413.2041)
 -->
<!-- Title: MainWindow::getUi Pages: 1 -->
<svg width="335pt" height="78pt"
 viewBox="0.00 0.00 335.00 77.50" xmlns="http://www.w3.org/2000/svg" xmlns:xlink="http://www.w3.org/1999/xlink">
<g id="graph0" class="graph" transform="scale(1 1) rotate(0) translate(4 73.5)">
<title>MainWindow::getUi</title>
<!-- Node1 -->
<g id="node1" class="node"><title>Node1</title>
<polygon fill="#bfbfbf" stroke="black" points="0,-28 0,-47 102,-47 102,-28 0,-28"/>
<text text-anchor="middle" x="51" y="-35" font-family="Helvetica,sans-Serif" font-size="10.00">MainWindow::getUi</text>
</g>
<!-- Node2 -->
<g id="node2" class="node"><title>Node2</title>
<g id="a_node2"><a xlink:href="classplazza_1_1_reception.html#add69bb3defc0d810a8f4fe2cdceacbb1" target="_top" xlink:title="run the office ">
<polygon fill="none" stroke="black" points="138,-50 138,-69 253,-69 253,-50 138,-50"/>
<text text-anchor="middle" x="195.5" y="-57" font-family="Helvetica,sans-Serif" font-size="10.00">plazza::Reception::run</text>
</a>
</g>
</g>
<!-- Node1&#45;&gt;Node2 -->
<g id="edge1" class="edge"><title>Node1&#45;&gt;Node2</title>
<path fill="none" stroke="midnightblue" d="M112.137,-46.7843C120.679,-48.1031 129.44,-49.4556 137.912,-50.7635"/>
<polygon fill="midnightblue" stroke="midnightblue" points="112.657,-43.3232 102.24,-45.2564 111.589,-50.2413 112.657,-43.3232"/>
</g>
<!-- Node4 -->
<g id="node4" class="node"><title>Node4</title>
<g id="a_node4"><a xlink:href="classplazza_1_1_reception.html#a9a68bacf594c0fd148eb011e7f807184" target="_top" xlink:title="Flush the server data. ">
<polygon fill="none" stroke="black" points="145,-0.5 145,-30.5 246,-30.5 246,-0.5 145,-0.5"/>
<text text-anchor="start" x="153" y="-18.5" font-family="Helvetica,sans-Serif" font-size="10.00">plazza::Reception::</text>
<text text-anchor="middle" x="195.5" y="-7.5" font-family="Helvetica,sans-Serif" font-size="10.00">flushServerData</text>
</a>
</g>
</g>
<!-- Node1&#45;&gt;Node4 -->
<g id="edge3" class="edge"><title>Node1&#45;&gt;Node4</title>
<path fill="none" stroke="midnightblue" d="M112.424,-28.1715C123.187,-26.5097 134.289,-24.7958 144.714,-23.1863"/>
<polygon fill="midnightblue" stroke="midnightblue" points="111.589,-24.7587 102.24,-29.7436 112.657,-31.6768 111.589,-24.7587"/>
</g>
<!-- Node3 -->
<g id="node3" class="node"><title>Node3</title>
<g id="a_node3"><a xlink:href="gui_2sources_2main_8cpp.html#adacbe0175a79dff748855d8c9839f82b" target="_top" xlink:title="main">
<polygon fill="none" stroke="black" points="289,-50 289,-69 327,-69 327,-50 289,-50"/>
<text text-anchor="middle" x="308" y="-57" font-family="Helvetica,sans-Serif" font-size="10.00">main</text>
</a>
</g>
</g>
<!-- Node2&#45;&gt;Node3 -->
<g id="edge2" class="edge"><title>Node2&#45;&gt;Node3</title>
<path fill="none" stroke="midnightblue" d="M263.296,-59.5C272.626,-59.5 281.496,-59.5 288.776,-59.5"/>
<polygon fill="midnightblue" stroke="midnightblue" points="263.045,-56.0001 253.045,-59.5 263.045,-63.0001 263.045,-56.0001"/>
</g>
</g>
</svg>
