<?xml version="1.0" encoding="UTF-8" standalone="no"?>
<!DOCTYPE svg PUBLIC "-//W3C//DTD SVG 1.1//EN"
 "http://www.w3.org/Graphics/SVG/1.1/DTD/svg11.dtd">
<!-- Generated by graphviz version 2.38.0 (20140413.2041)
 -->
<!-- Title: plazza::ConnectorPipe::disconnect Pages: 1 -->
<svg width="1225pt" height="165pt"
 viewBox="0.00 0.00 1225.00 165.00" xmlns="http://www.w3.org/2000/svg" xmlns:xlink="http://www.w3.org/1999/xlink">
<g id="graph0" class="graph" transform="scale(1 1) rotate(0) translate(4 161)">
<title>plazza::ConnectorPipe::disconnect</title>
<!-- Node1 -->
<g id="node1" class="node"><title>Node1</title>
<polygon fill="#bfbfbf" stroke="black" points="0,-60.5 0,-90.5 116,-90.5 116,-60.5 0,-60.5"/>
<text text-anchor="start" x="8" y="-78.5" font-family="Helvetica,sans-Serif" font-size="10.00">plazza::ConnectorPipe</text>
<text text-anchor="middle" x="58" y="-67.5" font-family="Helvetica,sans-Serif" font-size="10.00">::disconnect</text>
</g>
<!-- Node2 -->
<g id="node2" class="node"><title>Node2</title>
<g id="a_node2"><a xlink:href="classplazza_1_1_connector_pipe.html#ac6e124ff9380729df4e1491b3c365d95" target="_top" xlink:title="plazza::ConnectorPipe\l::destroy">
<polygon fill="none" stroke="black" points="152,-60.5 152,-90.5 268,-90.5 268,-60.5 152,-60.5"/>
<text text-anchor="start" x="160" y="-78.5" font-family="Helvetica,sans-Serif" font-size="10.00">plazza::ConnectorPipe</text>
<text text-anchor="middle" x="210" y="-67.5" font-family="Helvetica,sans-Serif" font-size="10.00">::destroy</text>
</a>
</g>
</g>
<!-- Node1&#45;&gt;Node2 -->
<g id="edge1" class="edge"><title>Node1&#45;&gt;Node2</title>
<path fill="none" stroke="midnightblue" d="M126.311,-75.5C134.728,-75.5 143.277,-75.5 151.525,-75.5"/>
<polygon fill="midnightblue" stroke="midnightblue" points="126.137,-72.0001 116.136,-75.5 126.136,-79.0001 126.137,-72.0001"/>
</g>
<!-- Node3 -->
<g id="node3" class="node"><title>Node3</title>
<g id="a_node3"><a xlink:href="classplazza_1_1_connector_pipe.html#aa37f2c5398dcbc14b774e763855eff2c" target="_top" xlink:title="plazza::ConnectorPipe\l::setMode">
<polygon fill="none" stroke="black" points="304,-126.5 304,-156.5 420,-156.5 420,-126.5 304,-126.5"/>
<text text-anchor="start" x="312" y="-144.5" font-family="Helvetica,sans-Serif" font-size="10.00">plazza::ConnectorPipe</text>
<text text-anchor="middle" x="362" y="-133.5" font-family="Helvetica,sans-Serif" font-size="10.00">::setMode</text>
</a>
</g>
</g>
<!-- Node1&#45;&gt;Node3 -->
<g id="edge11" class="edge"><title>Node1&#45;&gt;Node3</title>
<path fill="none" stroke="midnightblue" d="M96.4466,-95.0458C113.05,-102.908 133.078,-111.321 152,-116.5 202.227,-130.246 261.296,-136.435 303.8,-139.221"/>
<polygon fill="midnightblue" stroke="midnightblue" points="97.625,-91.7272 87.1004,-90.5091 94.5682,-98.0246 97.625,-91.7272"/>
</g>
<!-- Node4 -->
<g id="node4" class="node"><title>Node4</title>
<g id="a_node4"><a xlink:href="classplazza_1_1_office.html#a04316c75e42181f331b214729c8e7909" target="_top" xlink:title="Close the office. ">
<polygon fill="none" stroke="black" points="308.5,-72 308.5,-91 415.5,-91 415.5,-72 308.5,-72"/>
<text text-anchor="middle" x="362" y="-79" font-family="Helvetica,sans-Serif" font-size="10.00">plazza::Office::close</text>
</a>
</g>
</g>
<!-- Node1&#45;&gt;Node4 -->
<g id="edge12" class="edge"><title>Node1&#45;&gt;Node4</title>
<path fill="none" stroke="midnightblue" d="M117.57,-93.0016C128.895,-95.7049 140.741,-98.0707 152,-99.5 203.145,-105.993 216.68,-104.421 268,-99.5 285.353,-97.8362 304.28,-94.4641 320.502,-91.0838"/>
<polygon fill="midnightblue" stroke="midnightblue" points="118.33,-89.584 107.78,-90.5542 116.632,-96.375 118.33,-89.584"/>
</g>
<!-- Node11 -->
<g id="node11" class="node"><title>Node11</title>
<g id="a_node11"><a xlink:href="classplazza_1_1_reception.html#a8fe11050b70e7eed3ef576e875bff427" target="_top" xlink:title="Class destructor. ">
<polygon fill="none" stroke="black" points="311.5,-22.5 311.5,-52.5 412.5,-52.5 412.5,-22.5 311.5,-22.5"/>
<text text-anchor="start" x="319.5" y="-40.5" font-family="Helvetica,sans-Serif" font-size="10.00">plazza::Reception::</text>
<text text-anchor="middle" x="362" y="-29.5" font-family="Helvetica,sans-Serif" font-size="10.00">~Reception</text>
</a>
</g>
</g>
<!-- Node1&#45;&gt;Node11 -->
<g id="edge13" class="edge"><title>Node1&#45;&gt;Node11</title>
<path fill="none" stroke="midnightblue" d="M117.617,-57.836C128.938,-54.968 140.77,-52.3395 152,-50.5 205.994,-41.6553 268.737,-38.7171 311.28,-37.7974"/>
<polygon fill="midnightblue" stroke="midnightblue" points="116.613,-54.481 107.829,-60.4042 118.389,-61.2518 116.613,-54.481"/>
</g>
<!-- Node12 -->
<g id="node12" class="node"><title>Node12</title>
<g id="a_node12"><a xlink:href="classplazza_1_1_reception.html#a7389b5af68c57d0547f3ba41278c2002" target="_top" xlink:title="Send a task. ">
<polygon fill="none" stroke="black" points="456,-0.5 456,-30.5 557,-30.5 557,-0.5 456,-0.5"/>
<text text-anchor="start" x="464" y="-18.5" font-family="Helvetica,sans-Serif" font-size="10.00">plazza::Reception::</text>
<text text-anchor="middle" x="506.5" y="-7.5" font-family="Helvetica,sans-Serif" font-size="10.00">sendTask</text>
</a>
</g>
</g>
<!-- Node1&#45;&gt;Node12 -->
<g id="edge14" class="edge"><title>Node1&#45;&gt;Node12</title>
<path fill="none" stroke="midnightblue" d="M98.0829,-56.0434C114.403,-48.6221 133.775,-40.7047 152,-35.5 256.914,-5.53782 386.286,-7.50981 455.762,-11.5365"/>
<polygon fill="midnightblue" stroke="midnightblue" points="96.4514,-52.9421 88.8586,-60.3313 99.4021,-59.2898 96.4514,-52.9421"/>
</g>
<!-- Node2&#45;&gt;Node3 -->
<g id="edge2" class="edge"><title>Node2&#45;&gt;Node3</title>
<path fill="none" stroke="midnightblue" d="M254.605,-94.6864C277.576,-104.793 305.341,-117.01 326.747,-126.429"/>
<polygon fill="midnightblue" stroke="midnightblue" points="255.976,-91.4656 245.413,-90.6417 253.157,-97.8728 255.976,-91.4656"/>
</g>
<!-- Node2&#45;&gt;Node4 -->
<g id="edge3" class="edge"><title>Node2&#45;&gt;Node4</title>
<path fill="none" stroke="midnightblue" d="M278.192,-78.1877C288.339,-78.5936 298.679,-79.0072 308.458,-79.3983"/>
<polygon fill="midnightblue" stroke="midnightblue" points="278.268,-74.688 268.136,-77.7855 277.989,-81.6824 278.268,-74.688"/>
</g>
<!-- Node2&#45;&gt;Node11 -->
<g id="edge10" class="edge"><title>Node2&#45;&gt;Node11</title>
<path fill="none" stroke="midnightblue" d="M277.93,-58.5444C289.176,-55.6955 300.666,-52.7846 311.374,-50.0718"/>
<polygon fill="midnightblue" stroke="midnightblue" points="276.971,-55.1768 268.136,-61.0254 278.69,-61.9624 276.971,-55.1768"/>
</g>
<!-- Node5 -->
<g id="node5" class="node"><title>Node5</title>
<g id="a_node5"><a xlink:href="classplazza_1_1_office.html#a7c431da08f4460a011363f11f7066889" target="_top" xlink:title="Start the office. ">
<polygon fill="none" stroke="black" points="458,-69 458,-88 555,-88 555,-69 458,-69"/>
<text text-anchor="middle" x="506.5" y="-76" font-family="Helvetica,sans-Serif" font-size="10.00">plazza::Office::run</text>
</a>
</g>
</g>
<!-- Node4&#45;&gt;Node5 -->
<g id="edge4" class="edge"><title>Node4&#45;&gt;Node5</title>
<path fill="none" stroke="midnightblue" d="M425.824,-80.1774C436.544,-79.9517 447.522,-79.7206 457.769,-79.5049"/>
<polygon fill="midnightblue" stroke="midnightblue" points="425.581,-76.6816 415.657,-80.3914 425.728,-83.6801 425.581,-76.6816"/>
</g>
<!-- Node6 -->
<g id="node6" class="node"><title>Node6</title>
<g id="a_node6"><a xlink:href="classplazza_1_1_process_manager.html#aaf7eabb8ae524f2faa9b152aa178a30b" target="_top" xlink:title="create an Office ">
<polygon fill="none" stroke="black" points="593,-52.5 593,-82.5 718,-82.5 718,-52.5 593,-52.5"/>
<text text-anchor="start" x="601" y="-70.5" font-family="Helvetica,sans-Serif" font-size="10.00">plazza::ProcessManager</text>
<text text-anchor="middle" x="655.5" y="-59.5" font-family="Helvetica,sans-Serif" font-size="10.00">::spawn</text>
</a>
</g>
</g>
<!-- Node5&#45;&gt;Node6 -->
<g id="edge5" class="edge"><title>Node5&#45;&gt;Node6</title>
<path fill="none" stroke="midnightblue" d="M565.265,-74.1775C574.309,-73.5007 583.686,-72.799 592.814,-72.116"/>
<polygon fill="midnightblue" stroke="midnightblue" points="564.938,-70.6921 555.227,-74.9286 565.46,-77.6726 564.938,-70.6921"/>
</g>
<!-- Node7 -->
<g id="node7" class="node"><title>Node7</title>
<g id="a_node7"><a xlink:href="classplazza_1_1_reception.html#a7e1b50160865f662607dcddcbd9434f9" target="_top" xlink:title="Create an office. ">
<polygon fill="none" stroke="black" points="754,-49.5 754,-79.5 855,-79.5 855,-49.5 754,-49.5"/>
<text text-anchor="start" x="762" y="-67.5" font-family="Helvetica,sans-Serif" font-size="10.00">plazza::Reception::</text>
<text text-anchor="middle" x="804.5" y="-56.5" font-family="Helvetica,sans-Serif" font-size="10.00">createOffice</text>
</a>
</g>
</g>
<!-- Node6&#45;&gt;Node7 -->
<g id="edge6" class="edge"><title>Node6&#45;&gt;Node7</title>
<path fill="none" stroke="midnightblue" d="M728.415,-66.0324C736.968,-65.8578 745.549,-65.6827 753.696,-65.5164"/>
<polygon fill="midnightblue" stroke="midnightblue" points="728.342,-62.533 718.415,-66.2364 728.485,-69.5316 728.342,-62.533"/>
</g>
<!-- Node8 -->
<g id="node8" class="node"><title>Node8</title>
<g id="a_node8"><a xlink:href="classplazza_1_1_reception.html#a7aa64f05388780e369663cd6800578ae" target="_top" xlink:title="Assign a task to the queue. ">
<polygon fill="none" stroke="black" points="891,-26.5 891,-56.5 992,-56.5 992,-26.5 891,-26.5"/>
<text text-anchor="start" x="899" y="-44.5" font-family="Helvetica,sans-Serif" font-size="10.00">plazza::Reception::</text>
<text text-anchor="middle" x="941.5" y="-33.5" font-family="Helvetica,sans-Serif" font-size="10.00">assignTask</text>
</a>
</g>
</g>
<!-- Node7&#45;&gt;Node8 -->
<g id="edge7" class="edge"><title>Node7&#45;&gt;Node8</title>
<path fill="none" stroke="midnightblue" d="M864.928,-54.3752C873.481,-52.9181 882.208,-51.4312 890.552,-50.0097"/>
<polygon fill="midnightblue" stroke="midnightblue" points="864.273,-50.9364 855.002,-56.0662 865.448,-57.8369 864.273,-50.9364"/>
</g>
<!-- Node9 -->
<g id="node9" class="node"><title>Node9</title>
<g id="a_node9"><a xlink:href="classplazza_1_1_reception.html#add69bb3defc0d810a8f4fe2cdceacbb1" target="_top" xlink:title="run the office ">
<polygon fill="none" stroke="black" points="1028,-32 1028,-51 1143,-51 1143,-32 1028,-32"/>
<text text-anchor="middle" x="1085.5" y="-39" font-family="Helvetica,sans-Serif" font-size="10.00">plazza::Reception::run</text>
</a>
</g>
</g>
<!-- Node8&#45;&gt;Node9 -->
<g id="edge8" class="edge"><title>Node8&#45;&gt;Node9</title>
<path fill="none" stroke="midnightblue" d="M1002.33,-41.5C1010.77,-41.5 1019.43,-41.5 1027.82,-41.5"/>
<polygon fill="midnightblue" stroke="midnightblue" points="1002.16,-38.0001 992.165,-41.5 1002.16,-45.0001 1002.16,-38.0001"/>
</g>
<!-- Node10 -->
<g id="node10" class="node"><title>Node10</title>
<g id="a_node10"><a xlink:href="gui_2sources_2main_8cpp.html#adacbe0175a79dff748855d8c9839f82b" target="_top" xlink:title="main">
<polygon fill="none" stroke="black" points="1179,-32 1179,-51 1217,-51 1217,-32 1179,-32"/>
<text text-anchor="middle" x="1198" y="-39" font-family="Helvetica,sans-Serif" font-size="10.00">main</text>
</a>
</g>
</g>
<!-- Node9&#45;&gt;Node10 -->
<g id="edge9" class="edge"><title>Node9&#45;&gt;Node10</title>
<path fill="none" stroke="midnightblue" d="M1153.3,-41.5C1162.63,-41.5 1171.5,-41.5 1178.78,-41.5"/>
<polygon fill="midnightblue" stroke="midnightblue" points="1153.04,-38.0001 1143.04,-41.5 1153.04,-45.0001 1153.04,-38.0001"/>
</g>
<!-- Node12&#45;&gt;Node8 -->
<g id="edge15" class="edge"><title>Node12&#45;&gt;Node8</title>
<path fill="none" stroke="midnightblue" d="M567.305,-19.0911C653.385,-24.2598 810.64,-33.7024 890.744,-38.5123"/>
<polygon fill="midnightblue" stroke="midnightblue" points="567.362,-15.5883 557.171,-18.4825 566.943,-22.5757 567.362,-15.5883"/>
</g>
</g>
</svg>
