<?xml version="1.0" encoding="UTF-8" standalone="no"?>
<!DOCTYPE svg PUBLIC "-//W3C//DTD SVG 1.1//EN"
 "http://www.w3.org/Graphics/SVG/1.1/DTD/svg11.dtd">
<!-- Generated by graphviz version 2.38.0 (20140413.2041)
 -->
<!-- Title: plazza::ThreadPool::getNbWorkers Pages: 1 -->
<!--zoomable 339 -->
<svg id="main" version="1.1" xmlns="http://www.w3.org/2000/svg" xmlns:xlink="http://www.w3.org/1999/xlink" xml:space="preserve" onload="init(evt)">
<style type="text/css"><![CDATA[
.edge:hover path { stroke: red; }
.edge:hover polygon { stroke: red; fill: red; }
]]></style>
<script type="text/javascript"><![CDATA[
var edges = document.getElementsByTagName('g');
if (edges && edges.length) {
  for (var i=0;i<edges.length;i++) {
    if (edges[i].id.substr(0,4)=='edge') {
      edges[i].setAttribute('class','edge');
    }
  }
}
]]></script>
        <defs>
                <circle id="rim" cx="0" cy="0" r="7"/>
                <circle id="rim2" cx="0" cy="0" r="3.5"/>
                <g id="zoomPlus">
                        <use xlink:href="#rim" fill="#404040">
                                <set attributeName="fill" to="#808080" begin="zoomplus.mouseover" end="zoomplus.mouseout"/>
                        </use>
                        <path d="M-4,0h8M0,-4v8" fill="none" stroke="white" stroke-width="1.5" pointer-events="none"/>
                </g>
                <g id="zoomMin">
                        <use xlink:href="#rim" fill="#404040">
                                <set attributeName="fill" to="#808080" begin="zoomminus.mouseover" end="zoomminus.mouseout"/>
                        </use>
                        <path d="M-4,0h8" fill="none" stroke="white" stroke-width="1.5" pointer-events="none"/>
                </g>
                <g id="dirArrow">
                        <path fill="none" stroke="white" stroke-width="1.5" d="M0,-3.0v7 M-2.5,-0.5L0,-3.0L2.5,-0.5"/>
                </g>
               <g id="resetDef">
                       <use xlink:href="#rim2" fill="#404040">
                               <set attributeName="fill" to="#808080" begin="reset.mouseover" end="reset.mouseout"/>
                       </use>
               </g>
        </defs>

<script type="text/javascript">
var viewWidth = 743;
var viewHeight = 339;
var sectionId = 'dynsection-9';
</script>
<script xlink:href="svgpan.js"/>
<svg id="graph" class="graph">
<g id="viewport">
<title>plazza::ThreadPool::getNbWorkers</title>
<!-- Node1 -->
<g id="node1" class="node"><title>Node1</title>
<polygon fill="#bfbfbf" stroke="black" points="0,-188.5 0,-218.5 101,-218.5 101,-188.5 0,-188.5"/>
<text text-anchor="start" x="8" y="-206.5" font-family="Helvetica,sans-Serif" font-size="10.00">plazza::ThreadPool</text>
<text text-anchor="middle" x="50.5" y="-195.5" font-family="Helvetica,sans-Serif" font-size="10.00">::getNbWorkers</text>
</g>
<!-- Node2 -->
<g id="node2" class="node"><title>Node2</title>
<g id="a_node2"><a xlink:href="classplazza_1_1_cond_var.html#a97a8d7a37f416cf17f3b07cadf4f9b8d" target="_top" xlink:title="Wait until notified. ">
<polygon fill="none" stroke="black" points="149,-213 149,-232 262,-232 262,-213 149,-213"/>
<text text-anchor="middle" x="205.5" y="-220" font-family="Helvetica,sans-Serif" font-size="10.00">plazza::CondVar::wait</text>
</a>
</g>
</g>
<!-- Node1&#45;&gt;Node2 -->
<g id="edge1" class="edge"><title>Node1&#45;&gt;Node2</title>
<path fill="none" stroke="midnightblue" d="M101.175,-209.669C113.224,-211.165 126.289,-212.788 138.946,-214.359"/>
<polygon fill="midnightblue" stroke="midnightblue" points="138.627,-217.846 148.982,-215.606 139.49,-210.9 138.627,-217.846"/>
</g>
<!-- Node3 -->
<g id="node3" class="node"><title>Node3</title>
<g id="a_node3"><a xlink:href="classplazza_1_1_worker.html#af17344ef0f0311dadb4f7c7ea9565031" target="_top" xlink:title="Send task to perform to the worker. ">
<polygon fill="none" stroke="black" points="137,-175 137,-194 274,-194 274,-175 137,-175"/>
<text text-anchor="middle" x="205.5" y="-182" font-family="Helvetica,sans-Serif" font-size="10.00">plazza::Worker::performJob</text>
</a>
</g>
</g>
<!-- Node1&#45;&gt;Node3 -->
<g id="edge2" class="edge"><title>Node1&#45;&gt;Node3</title>
<path fill="none" stroke="midnightblue" d="M101.175,-197.331C109.39,-196.311 118.079,-195.232 126.788,-194.151"/>
<polygon fill="midnightblue" stroke="midnightblue" points="127.502,-197.589 136.994,-192.883 126.639,-190.642 127.502,-197.589"/>
</g>
<!-- Node4 -->
<g id="node4" class="node"><title>Node4</title>
<g id="a_node4"><a xlink:href="classplazza_1_1_file.html#a65844e0df72307648e3f5432ed964fdc" target="_top" xlink:title="Load file provided as parameter. ">
<polygon fill="none" stroke="black" points="324.5,-311 324.5,-330 415.5,-330 415.5,-311 324.5,-311"/>
<text text-anchor="middle" x="370" y="-318" font-family="Helvetica,sans-Serif" font-size="10.00">plazza::File::load</text>
</a>
</g>
</g>
<!-- Node3&#45;&gt;Node4 -->
<g id="edge3" class="edge"><title>Node3&#45;&gt;Node4</title>
<path fill="none" stroke="midnightblue" d="M259.545,-194.117C264.812,-196.574 269.767,-199.651 274,-203.5 306.792,-233.318 278.927,-264.894 310,-296.5 313.732,-300.296 318.147,-303.513 322.856,-306.235"/>
<polygon fill="midnightblue" stroke="midnightblue" points="321.66,-309.55 332.171,-310.88 324.784,-303.285 321.66,-309.55"/>
</g>
<!-- Node6 -->
<g id="node6" class="node"><title>Node6</title>
<g id="a_node6"><a xlink:href="classplazza_1_1_file.html#a928bc2918fada3f1c04ca30d73e18341" target="_top" xlink:title="Check if file is loaded. ">
<polygon fill="none" stroke="black" points="474,-273 474,-292 578,-292 578,-273 474,-273"/>
<text text-anchor="middle" x="526" y="-280" font-family="Helvetica,sans-Serif" font-size="10.00">plazza::File::isOpen</text>
</a>
</g>
</g>
<!-- Node3&#45;&gt;Node6 -->
<g id="edge6" class="edge"><title>Node3&#45;&gt;Node6</title>
<path fill="none" stroke="midnightblue" d="M256.846,-194.005C262.975,-196.473 268.873,-199.583 274,-203.5 298.712,-222.379 283.639,-247 310,-263.5 355.771,-292.149 418.137,-294.565 463.912,-291.204"/>
<polygon fill="midnightblue" stroke="midnightblue" points="464.33,-294.681 473.999,-290.351 463.74,-287.706 464.33,-294.681"/>
</g>
<!-- Node7 -->
<g id="node7" class="node"><title>Node7</title>
<g id="a_node7"><a xlink:href="classplazza_1_1_file.html#a9fb543de19476d4e0623788120dbe793" target="_top" xlink:title="Get loaded file buffer. ">
<polygon fill="none" stroke="black" points="313.5,-235 313.5,-254 426.5,-254 426.5,-235 313.5,-235"/>
<text text-anchor="middle" x="370" y="-242" font-family="Helvetica,sans-Serif" font-size="10.00">plazza::File::getBuffer</text>
</a>
</g>
</g>
<!-- Node3&#45;&gt;Node7 -->
<g id="edge7" class="edge"><title>Node3&#45;&gt;Node7</title>
<path fill="none" stroke="midnightblue" d="M247.464,-194.087C256.373,-196.705 265.631,-199.848 274,-203.5 291.186,-211 292.956,-217.682 310,-225.5 314.768,-227.687 319.86,-229.73 324.979,-231.605"/>
<polygon fill="midnightblue" stroke="midnightblue" points="324.185,-235.034 334.78,-234.996 326.474,-228.418 324.185,-235.034"/>
</g>
<!-- Node8 -->
<g id="node8" class="node"><title>Node8</title>
<g id="a_node8"><a xlink:href="classplazza_1_1_xor_cracker.html#a4d74f576654cf3a0b83ce937d56e2cef" target="_top" xlink:title="plazza::XorCracker::run">
<polygon fill="none" stroke="black" points="310,-197 310,-216 430,-216 430,-197 310,-197"/>
<text text-anchor="middle" x="370" y="-204" font-family="Helvetica,sans-Serif" font-size="10.00">plazza::XorCracker::run</text>
</a>
</g>
</g>
<!-- Node3&#45;&gt;Node8 -->
<g id="edge8" class="edge"><title>Node3&#45;&gt;Node8</title>
<path fill="none" stroke="midnightblue" d="M274.003,-193.639C282.589,-194.801 291.387,-195.992 299.997,-197.158"/>
<polygon fill="midnightblue" stroke="midnightblue" points="299.614,-200.638 309.994,-198.511 300.554,-193.701 299.614,-200.638"/>
</g>
<!-- Node13 -->
<g id="node13" class="node"><title>Node13</title>
<g id="a_node13"><a xlink:href="classplazza_1_1_xor_cracker.html#aea0b940bf73740a1747d5a7a71fa6eb8" target="_top" xlink:title="plazza::XorCracker\l::getKeyXor">
<polygon fill="none" stroke="black" points="319.5,-147.5 319.5,-177.5 420.5,-177.5 420.5,-147.5 319.5,-147.5"/>
<text text-anchor="start" x="327.5" y="-165.5" font-family="Helvetica,sans-Serif" font-size="10.00">plazza::XorCracker</text>
<text text-anchor="middle" x="370" y="-154.5" font-family="Helvetica,sans-Serif" font-size="10.00">::getKeyXor</text>
</a>
</g>
</g>
<!-- Node3&#45;&gt;Node13 -->
<g id="edge13" class="edge"><title>Node3&#45;&gt;Node13</title>
<path fill="none" stroke="midnightblue" d="M274.003,-175.361C285.738,-173.772 297.868,-172.13 309.373,-170.573"/>
<polygon fill="midnightblue" stroke="midnightblue" points="309.858,-174.039 319.298,-169.229 308.919,-167.102 309.858,-174.039"/>
</g>
<!-- Node15 -->
<g id="node15" class="node"><title>Node15</title>
<g id="a_node15"><a xlink:href="classplazza_1_1_xor_cypher.html#ad0a9d682c47c355d1e8ee848eaa8bd80" target="_top" xlink:title="Set current cypher key. ">
<polygon fill="none" stroke="black" points="318,-98.5 318,-128.5 422,-128.5 422,-98.5 318,-98.5"/>
<text text-anchor="start" x="326" y="-116.5" font-family="Helvetica,sans-Serif" font-size="10.00">plazza::XorCypher::</text>
<text text-anchor="middle" x="370" y="-105.5" font-family="Helvetica,sans-Serif" font-size="10.00">setKey</text>
</a>
</g>
</g>
<!-- Node3&#45;&gt;Node15 -->
<g id="edge15" class="edge"><title>Node3&#45;&gt;Node15</title>
<path fill="none" stroke="midnightblue" d="M227.012,-174.894C247.817,-165.219 280.995,-149.979 310,-137.5 313.885,-135.828 317.927,-134.12 321.991,-132.424"/>
<polygon fill="midnightblue" stroke="midnightblue" points="323.549,-135.568 331.453,-128.511 320.874,-129.099 323.549,-135.568"/>
</g>
<!-- Node16 -->
<g id="node16" class="node"><title>Node16</title>
<g id="a_node16"><a xlink:href="classplazza_1_1_caesar_cypher.html#a6a66388dc0df6d0a66595b279432bf08" target="_top" xlink:title="set actual shift ">
<polygon fill="none" stroke="black" points="313,-49.5 313,-79.5 427,-79.5 427,-49.5 313,-49.5"/>
<text text-anchor="start" x="321" y="-67.5" font-family="Helvetica,sans-Serif" font-size="10.00">plazza::CaesarCypher</text>
<text text-anchor="middle" x="370" y="-56.5" font-family="Helvetica,sans-Serif" font-size="10.00">::setMoved</text>
</a>
</g>
</g>
<!-- Node3&#45;&gt;Node16 -->
<g id="edge16" class="edge"><title>Node3&#45;&gt;Node16</title>
<path fill="none" stroke="midnightblue" d="M214.715,-174.829C231.137,-156.002 269.896,-114.04 310,-88.5 312.405,-86.9686 314.923,-85.5022 317.509,-84.1033"/>
<polygon fill="midnightblue" stroke="midnightblue" points="319.111,-87.2156 326.487,-79.6105 315.978,-80.9556 319.111,-87.2156"/>
</g>
<!-- Node17 -->
<g id="node17" class="node"><title>Node17</title>
<g id="a_node17"><a xlink:href="classplazza_1_1_xor_cracker.html#a6cd011c228fb1cce2424815604ca2c9a" target="_top" xlink:title="plazza::XorCracker\l::getKeyCaesar">
<polygon fill="none" stroke="black" points="319.5,-0.5 319.5,-30.5 420.5,-30.5 420.5,-0.5 319.5,-0.5"/>
<text text-anchor="start" x="327.5" y="-18.5" font-family="Helvetica,sans-Serif" font-size="10.00">plazza::XorCracker</text>
<text text-anchor="middle" x="370" y="-7.5" font-family="Helvetica,sans-Serif" font-size="10.00">::getKeyCaesar</text>
</a>
</g>
</g>
<!-- Node3&#45;&gt;Node17 -->
<g id="edge17" class="edge"><title>Node3&#45;&gt;Node17</title>
<path fill="none" stroke="midnightblue" d="M210.902,-174.959C223.098,-149.497 259.762,-79.187 310,-39.5 311.594,-38.2404 313.264,-37.038 314.99,-35.8911"/>
<polygon fill="midnightblue" stroke="midnightblue" points="317.14,-38.6874 323.997,-30.6105 313.6,-32.6486 317.14,-38.6874"/>
</g>
<!-- Node5 -->
<g id="node5" class="node"><title>Node5</title>
<g id="a_node5"><a xlink:href="classplazza_1_1_file.html#aad99fa99466b458697a29effd5677b96" target="_top" xlink:title="Define file state. ">
<polygon fill="none" stroke="black" points="471,-311 471,-330 581,-330 581,-311 471,-311"/>
<text text-anchor="middle" x="526" y="-318" font-family="Helvetica,sans-Serif" font-size="10.00">plazza::File::setOpen</text>
</a>
</g>
</g>
<!-- Node4&#45;&gt;Node5 -->
<g id="edge4" class="edge"><title>Node4&#45;&gt;Node5</title>
<path fill="none" stroke="midnightblue" d="M415.543,-320.5C429.545,-320.5 445.3,-320.5 460.402,-320.5"/>
<polygon fill="midnightblue" stroke="midnightblue" points="460.722,-324 470.722,-320.5 460.722,-317 460.722,-324"/>
</g>
<!-- Node4&#45;&gt;Node6 -->
<g id="edge5" class="edge"><title>Node4&#45;&gt;Node6</title>
<path fill="none" stroke="midnightblue" d="M409.861,-310.911C430.091,-305.919 455.021,-299.768 476.504,-294.467"/>
<polygon fill="midnightblue" stroke="midnightblue" points="477.548,-297.814 486.419,-292.02 475.871,-291.018 477.548,-297.814"/>
</g>
<!-- Node9 -->
<g id="node9" class="node"><title>Node9</title>
<g id="a_node9"><a xlink:href="classplazza_1_1_xor_cracker.html#a0b187c82af91eba8d23f9cac170fe90a" target="_top" xlink:title="plazza::XorCracker\l::setBuffer">
<polygon fill="none" stroke="black" points="475.5,-207.5 475.5,-237.5 576.5,-237.5 576.5,-207.5 475.5,-207.5"/>
<text text-anchor="start" x="483.5" y="-225.5" font-family="Helvetica,sans-Serif" font-size="10.00">plazza::XorCracker</text>
<text text-anchor="middle" x="526" y="-214.5" font-family="Helvetica,sans-Serif" font-size="10.00">::setBuffer</text>
</a>
</g>
</g>
<!-- Node8&#45;&gt;Node9 -->
<g id="edge9" class="edge"><title>Node8&#45;&gt;Node9</title>
<path fill="none" stroke="midnightblue" d="M430.1,-212.64C441.646,-213.84 453.761,-215.099 465.326,-216.3"/>
<polygon fill="midnightblue" stroke="midnightblue" points="465.011,-219.786 475.32,-217.338 465.735,-212.824 465.011,-219.786"/>
</g>
<!-- Node10 -->
<g id="node10" class="node"><title>Node10</title>
<g id="a_node10"><a xlink:href="classplazza_1_1_xor_cracker.html#ad190633b59d1fb23b403f44d837085f8" target="_top" xlink:title="plazza::XorCracker::run">
<polygon fill="none" stroke="black" points="466,-169 466,-188 586,-188 586,-169 466,-169"/>
<text text-anchor="middle" x="526" y="-176" font-family="Helvetica,sans-Serif" font-size="10.00">plazza::XorCracker::run</text>
</a>
</g>
</g>
<!-- Node8&#45;&gt;Node10 -->
<g id="edge10" class="edge"><title>Node8&#45;&gt;Node10</title>
<path fill="none" stroke="midnightblue" d="M423.567,-196.942C436.081,-194.667 449.554,-192.217 462.465,-189.87"/>
<polygon fill="midnightblue" stroke="midnightblue" points="463.457,-193.247 472.67,-188.015 462.205,-186.36 463.457,-193.247"/>
</g>
<!-- Node11 -->
<g id="node11" class="node"><title>Node11</title>
<g id="a_node11"><a xlink:href="classplazza_1_1_xor_cracker.html#a39471c4bb769b0b20a3fdd34f5a77cec" target="_top" xlink:title="plazza::XorCracker\l::getMaxKeyLength">
<polygon fill="none" stroke="black" points="628,-188.5 628,-218.5 729,-218.5 729,-188.5 628,-188.5"/>
<text text-anchor="start" x="636" y="-206.5" font-family="Helvetica,sans-Serif" font-size="10.00">plazza::XorCracker</text>
<text text-anchor="middle" x="678.5" y="-195.5" font-family="Helvetica,sans-Serif" font-size="10.00">::getMaxKeyLength</text>
</a>
</g>
</g>
<!-- Node10&#45;&gt;Node11 -->
<g id="edge11" class="edge"><title>Node10&#45;&gt;Node11</title>
<path fill="none" stroke="midnightblue" d="M584.327,-188.023C595.266,-189.84 606.742,-191.746 617.754,-193.575"/>
<polygon fill="midnightblue" stroke="midnightblue" points="617.271,-197.043 627.709,-195.229 618.418,-190.138 617.271,-197.043"/>
</g>
<!-- Node12 -->
<g id="node12" class="node"><title>Node12</title>
<g id="a_node12"><a xlink:href="classplazza_1_1_xor_cracker.html#aa398a0cced229d03cf6a51c1b1ab8ba3" target="_top" xlink:title="plazza::XorCracker\l::setKnownKeyLength">
<polygon fill="none" stroke="black" points="622,-139.5 622,-169.5 735,-169.5 735,-139.5 622,-139.5"/>
<text text-anchor="start" x="630" y="-157.5" font-family="Helvetica,sans-Serif" font-size="10.00">plazza::XorCracker</text>
<text text-anchor="middle" x="678.5" y="-146.5" font-family="Helvetica,sans-Serif" font-size="10.00">::setKnownKeyLength</text>
</a>
</g>
</g>
<!-- Node10&#45;&gt;Node12 -->
<g id="edge12" class="edge"><title>Node10&#45;&gt;Node12</title>
<path fill="none" stroke="midnightblue" d="M586.05,-169.083C594.455,-167.743 603.142,-166.358 611.667,-164.998"/>
<polygon fill="midnightblue" stroke="midnightblue" points="612.247,-168.45 621.571,-163.419 611.145,-161.537 612.247,-168.45"/>
</g>
<!-- Node14 -->
<g id="node14" class="node"><title>Node14</title>
<g id="a_node14"><a xlink:href="classplazza_1_1_xor_cracker.html#a9bb75f11814aa5eb3264be361c1be106" target="_top" xlink:title="plazza::XorCracker\l::getKnownKeyLength">
<polygon fill="none" stroke="black" points="469.5,-68.5 469.5,-98.5 582.5,-98.5 582.5,-68.5 469.5,-68.5"/>
<text text-anchor="start" x="477.5" y="-86.5" font-family="Helvetica,sans-Serif" font-size="10.00">plazza::XorCracker</text>
<text text-anchor="middle" x="526" y="-75.5" font-family="Helvetica,sans-Serif" font-size="10.00">::getKnownKeyLength</text>
</a>
</g>
</g>
<!-- Node13&#45;&gt;Node14 -->
<g id="edge14" class="edge"><title>Node13&#45;&gt;Node14</title>
<path fill="none" stroke="midnightblue" d="M408.435,-147.412C415.66,-144.283 423.118,-140.9 430,-137.5 450.857,-127.196 473.531,-114.374 491.494,-103.809"/>
<polygon fill="midnightblue" stroke="midnightblue" points="493.607,-106.626 500.424,-98.5161 490.037,-100.604 493.607,-106.626"/>
</g>
<!-- Node17&#45;&gt;Node14 -->
<g id="edge18" class="edge"><title>Node17&#45;&gt;Node14</title>
<path fill="none" stroke="midnightblue" d="M408.881,-30.5992C415.926,-33.495 423.205,-36.5465 430,-39.5 447.836,-47.2531 467.359,-56.2118 484.042,-64.0138"/>
<polygon fill="midnightblue" stroke="midnightblue" points="482.963,-67.3738 493.503,-68.456 485.939,-61.0375 482.963,-67.3738"/>
</g>
</g>
</svg>
        <g id="navigator" transform="translate(0 0)" fill="#404254">
                <rect fill="#f2f5e9" fill-opacity="0.5" stroke="#606060" stroke-width=".5" x="0" y="0" width="60" height="60"/>
                <use id="zoomplus" xlink:href="#zoomPlus" x="17" y="9" onmousedown="handleZoom(evt,'in')"/>
                <use id="zoomminus" xlink:href="#zoomMin" x="42" y="9" onmousedown="handleZoom(evt,'out')"/>
                <use id="reset" xlink:href="#resetDef" x="30" y="36" onmousedown="handleReset()"/>
                <g id="arrowUp" xlink:href="#dirArrow" transform="translate(30 24)" onmousedown="handlePan(0,-1)">
                  <use xlink:href="#rim" fill="#404040">
                        <set attributeName="fill" to="#808080" begin="arrowUp.mouseover" end="arrowUp.mouseout"/>
                  </use>
                  <path fill="none" stroke="white" stroke-width="1.5" d="M0,-3.0v7 M-2.5,-0.5L0,-3.0L2.5,-0.5"/>
                </g>
                <g id="arrowRight" xlink:href="#dirArrow" transform="rotate(90) translate(36 -43)" onmousedown="handlePan(1,0)">
                  <use xlink:href="#rim" fill="#404040">
                        <set attributeName="fill" to="#808080" begin="arrowRight.mouseover" end="arrowRight.mouseout"/>
                  </use>
                  <path fill="none" stroke="white" stroke-width="1.5" d="M0,-3.0v7 M-2.5,-0.5L0,-3.0L2.5,-0.5"/>
                </g>
                <g id="arrowDown" xlink:href="#dirArrow" transform="rotate(180) translate(-30 -48)" onmousedown="handlePan(0,1)">
                  <use xlink:href="#rim" fill="#404040">
                        <set attributeName="fill" to="#808080" begin="arrowDown.mouseover" end="arrowDown.mouseout"/>
                  </use>
                  <path fill="none" stroke="white" stroke-width="1.5" d="M0,-3.0v7 M-2.5,-0.5L0,-3.0L2.5,-0.5"/>
                </g>
                <g id="arrowLeft" xlink:href="#dirArrow" transform="rotate(270) translate(-36 17)" onmousedown="handlePan(-1,0)">
                  <use xlink:href="#rim" fill="#404040">
                        <set attributeName="fill" to="#808080" begin="arrowLeft.mouseover" end="arrowLeft.mouseout"/>
                  </use>
                  <path fill="none" stroke="white" stroke-width="1.5" d="M0,-3.0v7 M-2.5,-0.5L0,-3.0L2.5,-0.5"/>
                </g>
        </g>
        <svg viewBox="0 0 15 15" width="100%" height="30px" preserveAspectRatio="xMaxYMin meet">
         <g id="arrow_out" transform="scale(0.3 0.3)">
          <a xlink:href="classplazza_1_1_thread_pool_a85b5323591017ee418afb0fdc9e3d9a7_cgraph_org.svg" target="_base">
           <rect id="button" ry="5" rx="5" y="6" x="6" height="38" width="38"
                fill="#f2f5e9" fill-opacity="0.5" stroke="#606060" stroke-width="1.0"/>
           <path id="arrow"
             d="M 11.500037,31.436501 C 11.940474,20.09759 22.043105,11.32322 32.158766,21.979434 L 37.068811,17.246167 C 37.068811,17.246167 37.088388,32 37.088388,32 L 22.160133,31.978069 C 22.160133,31.978069 26.997745,27.140456 26.997745,27.140456 C 18.528582,18.264221 13.291696,25.230495 11.500037,31.436501 z"
             style="fill:#404040;"/>
          </a>
         </g>
        </svg>
</svg>
