<?xml version="1.0" encoding="UTF-8" standalone="no"?>
<!DOCTYPE svg PUBLIC "-//W3C//DTD SVG 1.1//EN"
 "http://www.w3.org/Graphics/SVG/1.1/DTD/svg11.dtd">
<!-- Generated by graphviz version 2.38.0 (20140413.2041)
 -->
<!-- Title: plazza::Reception::getOfficeCapacity Pages: 1 -->
<svg width="608pt" height="61pt"
 viewBox="0.00 0.00 608.00 61.00" xmlns="http://www.w3.org/2000/svg" xmlns:xlink="http://www.w3.org/1999/xlink">
<g id="graph0" class="graph" transform="scale(1 1) rotate(0) translate(4 57)">
<title>plazza::Reception::getOfficeCapacity</title>
<!-- Node1 -->
<g id="node1" class="node"><title>Node1</title>
<polygon fill="#bfbfbf" stroke="black" points="0,-0.5 0,-30.5 101,-30.5 101,-0.5 0,-0.5"/>
<text text-anchor="start" x="8" y="-18.5" font-family="Helvetica,sans-Serif" font-size="10.00">plazza::Reception::</text>
<text text-anchor="middle" x="50.5" y="-7.5" font-family="Helvetica,sans-Serif" font-size="10.00">getOfficeCapacity</text>
</g>
<!-- Node2 -->
<g id="node2" class="node"><title>Node2</title>
<g id="a_node2"><a xlink:href="classplazza_1_1_reception.html#a7e1b50160865f662607dcddcbd9434f9" target="_top" xlink:title="Create an office. ">
<polygon fill="none" stroke="black" points="137,-22.5 137,-52.5 238,-52.5 238,-22.5 137,-22.5"/>
<text text-anchor="start" x="145" y="-40.5" font-family="Helvetica,sans-Serif" font-size="10.00">plazza::Reception::</text>
<text text-anchor="middle" x="187.5" y="-29.5" font-family="Helvetica,sans-Serif" font-size="10.00">createOffice</text>
</a>
</g>
</g>
<!-- Node1&#45;&gt;Node2 -->
<g id="edge1" class="edge"><title>Node1&#45;&gt;Node2</title>
<path fill="none" stroke="midnightblue" d="M110.928,-25.1846C119.481,-26.5783 128.208,-28.0006 136.552,-29.3603"/>
<polygon fill="midnightblue" stroke="midnightblue" points="111.435,-21.7211 101.002,-23.5671 110.309,-28.63 111.435,-21.7211"/>
</g>
<!-- Node4 -->
<g id="node4" class="node"><title>Node4</title>
<g id="a_node4"><a xlink:href="classplazza_1_1_reception.html#add69bb3defc0d810a8f4fe2cdceacbb1" target="_top" xlink:title="run the office ">
<polygon fill="none" stroke="black" points="411,-6 411,-25 526,-25 526,-6 411,-6"/>
<text text-anchor="middle" x="468.5" y="-13" font-family="Helvetica,sans-Serif" font-size="10.00">plazza::Reception::run</text>
</a>
</g>
</g>
<!-- Node1&#45;&gt;Node4 -->
<g id="edge5" class="edge"><title>Node1&#45;&gt;Node4</title>
<path fill="none" stroke="midnightblue" d="M111.259,-13.1358C119.895,-12.872 128.674,-12.646 137,-12.5 242.762,-10.6451 269.236,-10.7854 375,-12.5 386.567,-12.6875 398.945,-13.0069 410.762,-13.3691"/>
<polygon fill="midnightblue" stroke="midnightblue" points="111.106,-9.63885 101.224,-13.4605 111.332,-16.6352 111.106,-9.63885"/>
</g>
<!-- Node3 -->
<g id="node3" class="node"><title>Node3</title>
<g id="a_node3"><a xlink:href="classplazza_1_1_reception.html#a7aa64f05388780e369663cd6800578ae" target="_top" xlink:title="Assign a task to the queue. ">
<polygon fill="none" stroke="black" points="274,-22.5 274,-52.5 375,-52.5 375,-22.5 274,-22.5"/>
<text text-anchor="start" x="282" y="-40.5" font-family="Helvetica,sans-Serif" font-size="10.00">plazza::Reception::</text>
<text text-anchor="middle" x="324.5" y="-29.5" font-family="Helvetica,sans-Serif" font-size="10.00">assignTask</text>
</a>
</g>
</g>
<!-- Node2&#45;&gt;Node3 -->
<g id="edge2" class="edge"><title>Node2&#45;&gt;Node3</title>
<path fill="none" stroke="midnightblue" d="M248.207,-37.5C256.67,-37.5 265.299,-37.5 273.552,-37.5"/>
<polygon fill="midnightblue" stroke="midnightblue" points="248.002,-34.0001 238.002,-37.5 248.002,-41.0001 248.002,-34.0001"/>
</g>
<!-- Node3&#45;&gt;Node4 -->
<g id="edge3" class="edge"><title>Node3&#45;&gt;Node4</title>
<path fill="none" stroke="midnightblue" d="M385.047,-28.2744C393.581,-26.9523 402.341,-25.5951 410.817,-24.2819"/>
<polygon fill="midnightblue" stroke="midnightblue" points="384.511,-24.8156 375.165,-29.8055 385.583,-31.7331 384.511,-24.8156"/>
</g>
<!-- Node5 -->
<g id="node5" class="node"><title>Node5</title>
<g id="a_node5"><a xlink:href="gui_2sources_2main_8cpp.html#adacbe0175a79dff748855d8c9839f82b" target="_top" xlink:title="main">
<polygon fill="none" stroke="black" points="562,-6 562,-25 600,-25 600,-6 562,-6"/>
<text text-anchor="middle" x="581" y="-13" font-family="Helvetica,sans-Serif" font-size="10.00">main</text>
</a>
</g>
</g>
<!-- Node4&#45;&gt;Node5 -->
<g id="edge4" class="edge"><title>Node4&#45;&gt;Node5</title>
<path fill="none" stroke="midnightblue" d="M536.296,-15.5C545.626,-15.5 554.496,-15.5 561.776,-15.5"/>
<polygon fill="midnightblue" stroke="midnightblue" points="536.045,-12.0001 526.045,-15.5 536.045,-19.0001 536.045,-12.0001"/>
</g>
</g>
</svg>
