<?xml version="1.0" encoding="UTF-8" standalone="no"?>
<!DOCTYPE svg PUBLIC "-//W3C//DTD SVG 1.1//EN"
 "http://www.w3.org/Graphics/SVG/1.1/DTD/svg11.dtd">
<!-- Generated by graphviz version 2.38.0 (20140413.2041)
 -->
<!-- Title: plazza::ThreadPool::ThreadPool Pages: 1 -->
<!--zoomable 576 -->
<svg id="main" version="1.1" xmlns="http://www.w3.org/2000/svg" xmlns:xlink="http://www.w3.org/1999/xlink" xml:space="preserve" onload="init(evt)">
<style type="text/css"><![CDATA[
.edge:hover path { stroke: red; }
.edge:hover polygon { stroke: red; fill: red; }
]]></style>
<script type="text/javascript"><![CDATA[
var edges = document.getElementsByTagName('g');
if (edges && edges.length) {
  for (var i=0;i<edges.length;i++) {
    if (edges[i].id.substr(0,4)=='edge') {
      edges[i].setAttribute('class','edge');
    }
  }
}
]]></script>
        <defs>
                <circle id="rim" cx="0" cy="0" r="7"/>
                <circle id="rim2" cx="0" cy="0" r="3.5"/>
                <g id="zoomPlus">
                        <use xlink:href="#rim" fill="#404040">
                                <set attributeName="fill" to="#808080" begin="zoomplus.mouseover" end="zoomplus.mouseout"/>
                        </use>
                        <path d="M-4,0h8M0,-4v8" fill="none" stroke="white" stroke-width="1.5" pointer-events="none"/>
                </g>
                <g id="zoomMin">
                        <use xlink:href="#rim" fill="#404040">
                                <set attributeName="fill" to="#808080" begin="zoomminus.mouseover" end="zoomminus.mouseout"/>
                        </use>
                        <path d="M-4,0h8" fill="none" stroke="white" stroke-width="1.5" pointer-events="none"/>
                </g>
                <g id="dirArrow">
                        <path fill="none" stroke="white" stroke-width="1.5" d="M0,-3.0v7 M-2.5,-0.5L0,-3.0L2.5,-0.5"/>
                </g>
               <g id="resetDef">
                       <use xlink:href="#rim2" fill="#404040">
                               <set attributeName="fill" to="#808080" begin="reset.mouseover" end="reset.mouseout"/>
                       </use>
               </g>
        </defs>

<script type="text/javascript">
var viewWidth = 884;
var viewHeight = 576;
var sectionId = 'dynsection-3';
</script>
<script xlink:href="svgpan.js"/>
<svg id="graph" class="graph">
<g id="viewport">
<title>plazza::ThreadPool::ThreadPool</title>
<!-- Node1 -->
<g id="node1" class="node"><title>Node1</title>
<polygon fill="#bfbfbf" stroke="black" points="0,-274.5 0,-304.5 101,-304.5 101,-274.5 0,-274.5"/>
<text text-anchor="start" x="8" y="-292.5" font-family="Helvetica,sans-Serif" font-size="10.00">plazza::ThreadPool</text>
<text text-anchor="middle" x="50.5" y="-281.5" font-family="Helvetica,sans-Serif" font-size="10.00">::ThreadPool</text>
</g>
<!-- Node2 -->
<g id="node2" class="node"><title>Node2</title>
<g id="a_node2"><a xlink:href="classplazza_1_1_thread_pool.html#ac203d64d54d1f0a5f9c2be1cfd48011b" target="_top" xlink:title="Class destructor. ">
<polygon fill="none" stroke="black" points="139,-537.5 139,-567.5 240,-567.5 240,-537.5 139,-537.5"/>
<text text-anchor="start" x="147" y="-555.5" font-family="Helvetica,sans-Serif" font-size="10.00">plazza::ThreadPool</text>
<text text-anchor="middle" x="189.5" y="-544.5" font-family="Helvetica,sans-Serif" font-size="10.00">::~ThreadPool</text>
</a>
</g>
</g>
<!-- Node1&#45;&gt;Node2 -->
<g id="edge1" class="edge"><title>Node1&#45;&gt;Node2</title>
<path fill="none" stroke="midnightblue" d="M52.9108,-304.708C57.4874,-345.874 75.401,-460.919 137,-528.5 137.878,-529.464 138.803,-530.392 139.768,-531.286"/>
<polygon fill="midnightblue" stroke="midnightblue" points="137.756,-534.154 147.815,-537.481 142.027,-528.607 137.756,-534.154"/>
</g>
<!-- Node3 -->
<g id="node3" class="node"><title>Node3</title>
<g id="a_node3"><a xlink:href="classplazza_1_1_thread_pool.html#a353ba248e5dffc93f2912c9148da05fb" target="_top" xlink:title="Add a job to the queue. ">
<polygon fill="none" stroke="black" points="139,-488.5 139,-518.5 240,-518.5 240,-488.5 139,-488.5"/>
<text text-anchor="start" x="147" y="-506.5" font-family="Helvetica,sans-Serif" font-size="10.00">plazza::ThreadPool</text>
<text text-anchor="middle" x="189.5" y="-495.5" font-family="Helvetica,sans-Serif" font-size="10.00">::addJob</text>
</a>
</g>
</g>
<!-- Node1&#45;&gt;Node3 -->
<g id="edge2" class="edge"><title>Node1&#45;&gt;Node3</title>
<path fill="none" stroke="midnightblue" d="M55.171,-304.588C64.0514,-338.417 89.5406,-421.435 137,-473.5 140.063,-476.86 143.591,-479.95 147.335,-482.765"/>
<polygon fill="midnightblue" stroke="midnightblue" points="145.536,-485.773 155.779,-488.482 149.461,-479.977 145.536,-485.773"/>
</g>
<!-- Node4 -->
<g id="node4" class="node"><title>Node4</title>
<g id="a_node4"><a xlink:href="classplazza_1_1_cond_var.html#a5a2666ecbdb8b14acfe186c91097af75" target="_top" xlink:title="Notify one. ">
<polygon fill="none" stroke="black" points="278,-472 278,-491 415,-491 415,-472 278,-472"/>
<text text-anchor="middle" x="346.5" y="-479" font-family="Helvetica,sans-Serif" font-size="10.00">plazza::CondVar::notifyOne</text>
</a>
</g>
</g>
<!-- Node1&#45;&gt;Node4 -->
<g id="edge4" class="edge"><title>Node1&#45;&gt;Node4</title>
<path fill="none" stroke="midnightblue" d="M56.828,-304.657C67.4893,-332.731 94.166,-392.838 137,-424.5 174.855,-452.482 225.675,-466.727 267.664,-473.979"/>
<polygon fill="midnightblue" stroke="midnightblue" points="267.149,-477.441 277.581,-475.592 268.272,-470.532 267.149,-477.441"/>
</g>
<!-- Node5 -->
<g id="node5" class="node"><title>Node5</title>
<g id="a_node5"><a xlink:href="classplazza_1_1_thread_pool.html#a85b5323591017ee418afb0fdc9e3d9a7" target="_top" xlink:title="Get the number of total workers. ">
<polygon fill="none" stroke="black" points="139,-362.5 139,-392.5 240,-392.5 240,-362.5 139,-362.5"/>
<text text-anchor="start" x="147" y="-380.5" font-family="Helvetica,sans-Serif" font-size="10.00">plazza::ThreadPool</text>
<text text-anchor="middle" x="189.5" y="-369.5" font-family="Helvetica,sans-Serif" font-size="10.00">::getNbWorkers</text>
</a>
</g>
</g>
<!-- Node1&#45;&gt;Node5 -->
<g id="edge5" class="edge"><title>Node1&#45;&gt;Node5</title>
<path fill="none" stroke="midnightblue" d="M73.0158,-304.696C90.1441,-316.647 114.837,-333.55 137,-347.5 142.105,-350.713 147.556,-354.019 152.93,-357.208"/>
<polygon fill="midnightblue" stroke="midnightblue" points="151.431,-360.386 161.827,-362.428 154.974,-354.349 151.431,-360.386"/>
</g>
<!-- Node6 -->
<g id="node6" class="node"><title>Node6</title>
<g id="a_node6"><a xlink:href="classplazza_1_1_cond_var.html#a97a8d7a37f416cf17f3b07cadf4f9b8d" target="_top" xlink:title="Wait until notified. ">
<polygon fill="none" stroke="black" points="290,-390 290,-409 403,-409 403,-390 290,-390"/>
<text text-anchor="middle" x="346.5" y="-397" font-family="Helvetica,sans-Serif" font-size="10.00">plazza::CondVar::wait</text>
</a>
</g>
</g>
<!-- Node1&#45;&gt;Node6 -->
<g id="edge24" class="edge"><title>Node1&#45;&gt;Node6</title>
<path fill="none" stroke="midnightblue" d="M57.6276,-304.824C68.8898,-330.617 95.5893,-381.904 137,-402.5 189.024,-428.374 257.769,-420.626 301.82,-411.244"/>
<polygon fill="midnightblue" stroke="midnightblue" points="302.655,-414.643 311.644,-409.037 301.12,-407.814 302.655,-414.643"/>
</g>
<!-- Node7 -->
<g id="node7" class="node"><title>Node7</title>
<g id="a_node7"><a xlink:href="classplazza_1_1_worker.html#af17344ef0f0311dadb4f7c7ea9565031" target="_top" xlink:title="Send task to perform to the worker. ">
<polygon fill="none" stroke="black" points="278,-338 278,-357 415,-357 415,-338 278,-338"/>
<text text-anchor="middle" x="346.5" y="-345" font-family="Helvetica,sans-Serif" font-size="10.00">plazza::Worker::performJob</text>
</a>
</g>
</g>
<!-- Node1&#45;&gt;Node7 -->
<g id="edge25" class="edge"><title>Node1&#45;&gt;Node7</title>
<path fill="none" stroke="midnightblue" d="M99.1536,-304.6C111.407,-308.161 124.626,-311.724 137,-314.5 179.929,-324.132 228.446,-331.987 267.87,-337.614"/>
<polygon fill="midnightblue" stroke="midnightblue" points="267.559,-341.105 277.95,-339.033 268.535,-334.173 267.559,-341.105"/>
</g>
<!-- Node22 -->
<g id="node22" class="node"><title>Node22</title>
<g id="a_node22"><a xlink:href="classplazza_1_1_thread_pool.html#a927215245cf2e50525f7706056b26e50" target="_top" xlink:title="Stop the pool execution. ">
<polygon fill="none" stroke="black" points="139,-274.5 139,-304.5 240,-304.5 240,-274.5 139,-274.5"/>
<text text-anchor="start" x="147" y="-292.5" font-family="Helvetica,sans-Serif" font-size="10.00">plazza::ThreadPool</text>
<text text-anchor="middle" x="189.5" y="-281.5" font-family="Helvetica,sans-Serif" font-size="10.00">::stop</text>
</a>
</g>
</g>
<!-- Node1&#45;&gt;Node22 -->
<g id="edge26" class="edge"><title>Node1&#45;&gt;Node22</title>
<path fill="none" stroke="midnightblue" d="M101.348,-289.5C110.242,-289.5 119.59,-289.5 128.727,-289.5"/>
<polygon fill="midnightblue" stroke="midnightblue" points="128.919,-293 138.919,-289.5 128.919,-286 128.919,-293"/>
</g>
<!-- Node23 -->
<g id="node23" class="node"><title>Node23</title>
<g id="a_node23"><a xlink:href="classplazza_1_1_cond_var.html#a06ecb812639ea15519117b3be3524e43" target="_top" xlink:title="Notify all. ">
<polygon fill="none" stroke="black" points="281,-258 281,-277 412,-277 412,-258 281,-258"/>
<text text-anchor="middle" x="346.5" y="-265" font-family="Helvetica,sans-Serif" font-size="10.00">plazza::CondVar::notifyAll</text>
</a>
</g>
</g>
<!-- Node1&#45;&gt;Node23 -->
<g id="edge28" class="edge"><title>Node1&#45;&gt;Node23</title>
<path fill="none" stroke="midnightblue" d="M96.2717,-274.449C109.256,-270.765 123.559,-267.351 137,-265.5 181.041,-259.436 230.81,-259.65 270.676,-261.515"/>
<polygon fill="midnightblue" stroke="midnightblue" points="270.686,-265.02 280.852,-262.036 271.044,-258.029 270.686,-265.02"/>
</g>
<!-- Node24 -->
<g id="node24" class="node"><title>Node24</title>
<g id="a_node24"><a xlink:href="classplazza_1_1_thread_pool.html#aa0600df9d22b7c083dc2cf35633fbb3d" target="_top" xlink:title="Get the Queue task length. ">
<polygon fill="none" stroke="black" points="139,-186.5 139,-216.5 240,-216.5 240,-186.5 139,-186.5"/>
<text text-anchor="start" x="147" y="-204.5" font-family="Helvetica,sans-Serif" font-size="10.00">plazza::ThreadPool</text>
<text text-anchor="middle" x="189.5" y="-193.5" font-family="Helvetica,sans-Serif" font-size="10.00">::getQueueLength</text>
</a>
</g>
</g>
<!-- Node1&#45;&gt;Node24 -->
<g id="edge29" class="edge"><title>Node1&#45;&gt;Node24</title>
<path fill="none" stroke="midnightblue" d="M73.0158,-274.304C90.1441,-262.353 114.837,-245.45 137,-231.5 142.105,-228.287 147.556,-224.981 152.93,-221.792"/>
<polygon fill="midnightblue" stroke="midnightblue" points="154.974,-224.651 161.827,-216.572 151.431,-218.614 154.974,-224.651"/>
</g>
<!-- Node25 -->
<g id="node25" class="node"><title>Node25</title>
<g id="a_node25"><a xlink:href="classplazza_1_1_thread_pool.html#a14887a37ed86db5df1c89237752149ff" target="_top" xlink:title="Get the number of free workers. ">
<polygon fill="none" stroke="black" points="137,-137.5 137,-167.5 242,-167.5 242,-137.5 137,-137.5"/>
<text text-anchor="start" x="145" y="-155.5" font-family="Helvetica,sans-Serif" font-size="10.00">plazza::ThreadPool</text>
<text text-anchor="middle" x="189.5" y="-144.5" font-family="Helvetica,sans-Serif" font-size="10.00">::getNbFreeWorkers</text>
</a>
</g>
</g>
<!-- Node1&#45;&gt;Node25 -->
<g id="edge30" class="edge"><title>Node1&#45;&gt;Node25</title>
<path fill="none" stroke="midnightblue" d="M59.9375,-274.285C73.5434,-250.892 102.342,-205.835 137,-177.5 138.986,-175.876 141.095,-174.326 143.283,-172.85"/>
<polygon fill="midnightblue" stroke="midnightblue" points="145.29,-175.726 152.011,-167.535 141.649,-169.747 145.29,-175.726"/>
</g>
<!-- Node26 -->
<g id="node26" class="node"><title>Node26</title>
<g id="a_node26"><a xlink:href="classplazza_1_1_worker.html#a7e0633e722049076c4c41777ccdf4a13" target="_top" xlink:title="Change worker working state. ">
<polygon fill="none" stroke="black" points="284,-121 284,-140 409,-140 409,-121 284,-121"/>
<text text-anchor="middle" x="346.5" y="-128" font-family="Helvetica,sans-Serif" font-size="10.00">plazza::Worker::setBusy</text>
</a>
</g>
</g>
<!-- Node1&#45;&gt;Node26 -->
<g id="edge32" class="edge"><title>Node1&#45;&gt;Node26</title>
<path fill="none" stroke="midnightblue" d="M54.1965,-274.44C61.0816,-241.035 82.7525,-161.114 137,-128.5 188.376,-97.6121 260.531,-107.522 305.084,-118.373"/>
<polygon fill="midnightblue" stroke="midnightblue" points="304.414,-121.815 314.97,-120.907 306.152,-115.034 304.414,-121.815"/>
</g>
<!-- Node27 -->
<g id="node27" class="node"><title>Node27</title>
<g id="a_node27"><a xlink:href="classplazza_1_1_thread_pool.html#a50d6a17e2c28ee6ff818b44ee9d19b83" target="_top" xlink:title="Add the number of workers to the pool. ">
<polygon fill="none" stroke="black" points="139,-49.5 139,-79.5 240,-79.5 240,-49.5 139,-49.5"/>
<text text-anchor="start" x="147" y="-67.5" font-family="Helvetica,sans-Serif" font-size="10.00">plazza::ThreadPool</text>
<text text-anchor="middle" x="189.5" y="-56.5" font-family="Helvetica,sans-Serif" font-size="10.00">::createWorkers</text>
</a>
</g>
</g>
<!-- Node1&#45;&gt;Node27 -->
<g id="edge33" class="edge"><title>Node1&#45;&gt;Node27</title>
<path fill="none" stroke="midnightblue" d="M54.7346,-274.308C62.9207,-238.98 87.424,-150.09 137,-94.5 139.986,-91.1516 143.438,-88.0768 147.113,-85.279"/>
<polygon fill="midnightblue" stroke="midnightblue" points="149.14,-88.133 155.417,-79.598 145.187,-82.3555 149.14,-88.133"/>
</g>
<!-- Node28 -->
<g id="node28" class="node"><title>Node28</title>
<g id="a_node28"><a xlink:href="classplazza_1_1_thread_pool.html#a658d483b836cb4fb3bf6f80e3d9f9a0b" target="_top" xlink:title="Class constructor. ">
<polygon fill="none" stroke="black" points="139,-0.5 139,-30.5 240,-30.5 240,-0.5 139,-0.5"/>
<text text-anchor="start" x="147" y="-18.5" font-family="Helvetica,sans-Serif" font-size="10.00">plazza::ThreadPool</text>
<text text-anchor="middle" x="189.5" y="-7.5" font-family="Helvetica,sans-Serif" font-size="10.00">::ThreadPool</text>
</a>
</g>
</g>
<!-- Node1&#45;&gt;Node28 -->
<g id="edge34" class="edge"><title>Node1&#45;&gt;Node28</title>
<path fill="none" stroke="midnightblue" d="M52.7127,-274.332C56.8384,-232.145 73.8176,-111.843 137,-40.5 138.155,-39.1956 139.394,-37.9526 140.699,-36.7688"/>
<polygon fill="midnightblue" stroke="midnightblue" points="142.943,-39.4592 148.782,-30.6189 138.705,-33.8881 142.943,-39.4592"/>
</g>
<!-- Node3&#45;&gt;Node4 -->
<g id="edge3" class="edge"><title>Node3&#45;&gt;Node4</title>
<path fill="none" stroke="midnightblue" d="M240.396,-496.418C249.395,-495.141 258.964,-493.782 268.523,-492.426"/>
<polygon fill="midnightblue" stroke="midnightblue" points="269.048,-495.886 278.457,-491.016 268.064,-488.956 269.048,-495.886"/>
</g>
<!-- Node5&#45;&gt;Node6 -->
<g id="edge6" class="edge"><title>Node5&#45;&gt;Node6</title>
<path fill="none" stroke="midnightblue" d="M240.396,-384.582C252.949,-386.364 266.614,-388.303 279.81,-390.176"/>
<polygon fill="midnightblue" stroke="midnightblue" points="279.392,-393.652 289.784,-391.592 280.375,-386.721 279.392,-393.652"/>
</g>
<!-- Node5&#45;&gt;Node7 -->
<g id="edge7" class="edge"><title>Node5&#45;&gt;Node7</title>
<path fill="none" stroke="midnightblue" d="M240.396,-367.843C254.921,-365.031 270.934,-361.932 285.988,-359.018"/>
<polygon fill="midnightblue" stroke="midnightblue" points="287.075,-362.373 296.227,-357.037 285.745,-355.501 287.075,-362.373"/>
</g>
<!-- Node8 -->
<g id="node8" class="node"><title>Node8</title>
<g id="a_node8"><a xlink:href="classplazza_1_1_file.html#a65844e0df72307648e3f5432ed964fdc" target="_top" xlink:title="Load file provided as parameter. ">
<polygon fill="none" stroke="black" points="465.5,-474 465.5,-493 556.5,-493 556.5,-474 465.5,-474"/>
<text text-anchor="middle" x="511" y="-481" font-family="Helvetica,sans-Serif" font-size="10.00">plazza::File::load</text>
</a>
</g>
</g>
<!-- Node7&#45;&gt;Node8 -->
<g id="edge8" class="edge"><title>Node7&#45;&gt;Node8</title>
<path fill="none" stroke="midnightblue" d="M377.873,-357.14C390.617,-362.405 404.811,-370.03 415,-380.5 441.911,-408.151 423.16,-432.785 451,-459.5 455.039,-463.376 459.788,-466.658 464.808,-469.428"/>
<polygon fill="midnightblue" stroke="midnightblue" points="463.515,-472.69 474.042,-473.882 466.556,-466.385 463.515,-472.69"/>
</g>
<!-- Node10 -->
<g id="node10" class="node"><title>Node10</title>
<g id="a_node10"><a xlink:href="classplazza_1_1_file.html#a928bc2918fada3f1c04ca30d73e18341" target="_top" xlink:title="Check if file is loaded. ">
<polygon fill="none" stroke="black" points="615,-436 615,-455 719,-455 719,-436 615,-436"/>
<text text-anchor="middle" x="667" y="-443" font-family="Helvetica,sans-Serif" font-size="10.00">plazza::File::isOpen</text>
</a>
</g>
</g>
<!-- Node7&#45;&gt;Node10 -->
<g id="edge11" class="edge"><title>Node7&#45;&gt;Node10</title>
<path fill="none" stroke="midnightblue" d="M373.783,-357.065C386.984,-362.651 402.734,-370.566 415,-380.5 435.175,-396.839 428.185,-414.112 451,-426.5 498.048,-452.047 559.547,-454.996 604.713,-452.615"/>
<polygon fill="midnightblue" stroke="midnightblue" points="605.196,-456.091 614.956,-451.969 604.755,-449.105 605.196,-456.091"/>
</g>
<!-- Node11 -->
<g id="node11" class="node"><title>Node11</title>
<g id="a_node11"><a xlink:href="classplazza_1_1_file.html#a9fb543de19476d4e0623788120dbe793" target="_top" xlink:title="Get loaded file buffer. ">
<polygon fill="none" stroke="black" points="454.5,-398 454.5,-417 567.5,-417 567.5,-398 454.5,-398"/>
<text text-anchor="middle" x="511" y="-405" font-family="Helvetica,sans-Serif" font-size="10.00">plazza::File::getBuffer</text>
</a>
</g>
</g>
<!-- Node7&#45;&gt;Node11 -->
<g id="edge12" class="edge"><title>Node7&#45;&gt;Node11</title>
<path fill="none" stroke="midnightblue" d="M370.356,-357.054C391.22,-365.656 422.983,-378.452 451,-388.5 456.916,-390.622 463.204,-392.764 469.386,-394.808"/>
<polygon fill="midnightblue" stroke="midnightblue" points="468.352,-398.152 478.944,-397.92 470.519,-391.496 468.352,-398.152"/>
</g>
<!-- Node12 -->
<g id="node12" class="node"><title>Node12</title>
<g id="a_node12"><a xlink:href="classplazza_1_1_xor_cracker.html#a4d74f576654cf3a0b83ce937d56e2cef" target="_top" xlink:title="plazza::XorCracker::run">
<polygon fill="none" stroke="black" points="451,-360 451,-379 571,-379 571,-360 451,-360"/>
<text text-anchor="middle" x="511" y="-367" font-family="Helvetica,sans-Serif" font-size="10.00">plazza::XorCracker::run</text>
</a>
</g>
</g>
<!-- Node7&#45;&gt;Node12 -->
<g id="edge13" class="edge"><title>Node7&#45;&gt;Node12</title>
<path fill="none" stroke="midnightblue" d="M415.003,-356.639C423.589,-357.801 432.387,-358.992 440.997,-360.158"/>
<polygon fill="midnightblue" stroke="midnightblue" points="440.614,-363.638 450.994,-361.511 441.554,-356.701 440.614,-363.638"/>
</g>
<!-- Node17 -->
<g id="node17" class="node"><title>Node17</title>
<g id="a_node17"><a xlink:href="classplazza_1_1_xor_cracker.html#aea0b940bf73740a1747d5a7a71fa6eb8" target="_top" xlink:title="plazza::XorCracker\l::getKeyXor">
<polygon fill="none" stroke="black" points="460.5,-310.5 460.5,-340.5 561.5,-340.5 561.5,-310.5 460.5,-310.5"/>
<text text-anchor="start" x="468.5" y="-328.5" font-family="Helvetica,sans-Serif" font-size="10.00">plazza::XorCracker</text>
<text text-anchor="middle" x="511" y="-317.5" font-family="Helvetica,sans-Serif" font-size="10.00">::getKeyXor</text>
</a>
</g>
</g>
<!-- Node7&#45;&gt;Node17 -->
<g id="edge18" class="edge"><title>Node7&#45;&gt;Node17</title>
<path fill="none" stroke="midnightblue" d="M415.003,-338.361C426.738,-336.772 438.868,-335.13 450.373,-333.573"/>
<polygon fill="midnightblue" stroke="midnightblue" points="450.858,-337.039 460.298,-332.229 449.919,-330.102 450.858,-337.039"/>
</g>
<!-- Node19 -->
<g id="node19" class="node"><title>Node19</title>
<g id="a_node19"><a xlink:href="classplazza_1_1_xor_cypher.html#ad0a9d682c47c355d1e8ee848eaa8bd80" target="_top" xlink:title="Set current cypher key. ">
<polygon fill="none" stroke="black" points="459,-261.5 459,-291.5 563,-291.5 563,-261.5 459,-261.5"/>
<text text-anchor="start" x="467" y="-279.5" font-family="Helvetica,sans-Serif" font-size="10.00">plazza::XorCypher::</text>
<text text-anchor="middle" x="511" y="-268.5" font-family="Helvetica,sans-Serif" font-size="10.00">setKey</text>
</a>
</g>
</g>
<!-- Node7&#45;&gt;Node19 -->
<g id="edge20" class="edge"><title>Node7&#45;&gt;Node19</title>
<path fill="none" stroke="midnightblue" d="M368.86,-337.876C389.755,-328.493 422.5,-313.87 451,-301.5 455.423,-299.58 460.04,-297.594 464.658,-295.618"/>
<polygon fill="midnightblue" stroke="midnightblue" points="466.25,-298.745 474.077,-291.604 463.505,-292.305 466.25,-298.745"/>
</g>
<!-- Node20 -->
<g id="node20" class="node"><title>Node20</title>
<g id="a_node20"><a xlink:href="classplazza_1_1_caesar_cypher.html#a6a66388dc0df6d0a66595b279432bf08" target="_top" xlink:title="set actual shift ">
<polygon fill="none" stroke="black" points="454,-212.5 454,-242.5 568,-242.5 568,-212.5 454,-212.5"/>
<text text-anchor="start" x="462" y="-230.5" font-family="Helvetica,sans-Serif" font-size="10.00">plazza::CaesarCypher</text>
<text text-anchor="middle" x="511" y="-219.5" font-family="Helvetica,sans-Serif" font-size="10.00">::setMoved</text>
</a>
</g>
</g>
<!-- Node7&#45;&gt;Node20 -->
<g id="edge21" class="edge"><title>Node7&#45;&gt;Node20</title>
<path fill="none" stroke="midnightblue" d="M358.557,-337.642C371.983,-325.642 395.277,-304.721 415,-286.5 431.165,-271.566 432.577,-264.539 451,-252.5 453.881,-250.617 456.927,-248.825 460.057,-247.127"/>
<polygon fill="midnightblue" stroke="midnightblue" points="461.677,-250.231 469.03,-242.603 458.525,-243.98 461.677,-250.231"/>
</g>
<!-- Node21 -->
<g id="node21" class="node"><title>Node21</title>
<g id="a_node21"><a xlink:href="classplazza_1_1_xor_cracker.html#a6cd011c228fb1cce2424815604ca2c9a" target="_top" xlink:title="plazza::XorCracker\l::getKeyCaesar">
<polygon fill="none" stroke="black" points="460.5,-163.5 460.5,-193.5 561.5,-193.5 561.5,-163.5 460.5,-163.5"/>
<text text-anchor="start" x="468.5" y="-181.5" font-family="Helvetica,sans-Serif" font-size="10.00">plazza::XorCracker</text>
<text text-anchor="middle" x="511" y="-170.5" font-family="Helvetica,sans-Serif" font-size="10.00">::getKeyCaesar</text>
</a>
</g>
</g>
<!-- Node7&#45;&gt;Node21 -->
<g id="edge22" class="edge"><title>Node7&#45;&gt;Node21</title>
<path fill="none" stroke="midnightblue" d="M361.263,-337.882C376.154,-326.892 399.802,-307.672 415,-286.5 438.448,-253.835 422.448,-231.812 451,-203.5 452.452,-202.061 453.999,-200.699 455.62,-199.412"/>
<polygon fill="midnightblue" stroke="midnightblue" points="457.928,-202.076 464.25,-193.574 454.006,-196.278 457.928,-202.076"/>
</g>
<!-- Node9 -->
<g id="node9" class="node"><title>Node9</title>
<g id="a_node9"><a xlink:href="classplazza_1_1_file.html#aad99fa99466b458697a29effd5677b96" target="_top" xlink:title="Define file state. ">
<polygon fill="none" stroke="black" points="612,-474 612,-493 722,-493 722,-474 612,-474"/>
<text text-anchor="middle" x="667" y="-481" font-family="Helvetica,sans-Serif" font-size="10.00">plazza::File::setOpen</text>
</a>
</g>
</g>
<!-- Node8&#45;&gt;Node9 -->
<g id="edge9" class="edge"><title>Node8&#45;&gt;Node9</title>
<path fill="none" stroke="midnightblue" d="M556.543,-483.5C570.545,-483.5 586.3,-483.5 601.402,-483.5"/>
<polygon fill="midnightblue" stroke="midnightblue" points="601.722,-487 611.722,-483.5 601.722,-480 601.722,-487"/>
</g>
<!-- Node8&#45;&gt;Node10 -->
<g id="edge10" class="edge"><title>Node8&#45;&gt;Node10</title>
<path fill="none" stroke="midnightblue" d="M550.861,-473.911C571.091,-468.919 596.021,-462.768 617.504,-457.467"/>
<polygon fill="midnightblue" stroke="midnightblue" points="618.548,-460.814 627.419,-455.02 616.871,-454.018 618.548,-460.814"/>
</g>
<!-- Node13 -->
<g id="node13" class="node"><title>Node13</title>
<g id="a_node13"><a xlink:href="classplazza_1_1_xor_cracker.html#a0b187c82af91eba8d23f9cac170fe90a" target="_top" xlink:title="plazza::XorCracker\l::setBuffer">
<polygon fill="none" stroke="black" points="616.5,-370.5 616.5,-400.5 717.5,-400.5 717.5,-370.5 616.5,-370.5"/>
<text text-anchor="start" x="624.5" y="-388.5" font-family="Helvetica,sans-Serif" font-size="10.00">plazza::XorCracker</text>
<text text-anchor="middle" x="667" y="-377.5" font-family="Helvetica,sans-Serif" font-size="10.00">::setBuffer</text>
</a>
</g>
</g>
<!-- Node12&#45;&gt;Node13 -->
<g id="edge14" class="edge"><title>Node12&#45;&gt;Node13</title>
<path fill="none" stroke="midnightblue" d="M571.1,-375.64C582.646,-376.84 594.761,-378.099 606.326,-379.3"/>
<polygon fill="midnightblue" stroke="midnightblue" points="606.011,-382.786 616.32,-380.338 606.735,-375.824 606.011,-382.786"/>
</g>
<!-- Node14 -->
<g id="node14" class="node"><title>Node14</title>
<g id="a_node14"><a xlink:href="classplazza_1_1_xor_cracker.html#ad190633b59d1fb23b403f44d837085f8" target="_top" xlink:title="plazza::XorCracker::run">
<polygon fill="none" stroke="black" points="607,-332 607,-351 727,-351 727,-332 607,-332"/>
<text text-anchor="middle" x="667" y="-339" font-family="Helvetica,sans-Serif" font-size="10.00">plazza::XorCracker::run</text>
</a>
</g>
</g>
<!-- Node12&#45;&gt;Node14 -->
<g id="edge15" class="edge"><title>Node12&#45;&gt;Node14</title>
<path fill="none" stroke="midnightblue" d="M564.567,-359.942C577.081,-357.667 590.554,-355.217 603.465,-352.87"/>
<polygon fill="midnightblue" stroke="midnightblue" points="604.457,-356.247 613.67,-351.015 603.205,-349.36 604.457,-356.247"/>
</g>
<!-- Node15 -->
<g id="node15" class="node"><title>Node15</title>
<g id="a_node15"><a xlink:href="classplazza_1_1_xor_cracker.html#a39471c4bb769b0b20a3fdd34f5a77cec" target="_top" xlink:title="plazza::XorCracker\l::getMaxKeyLength">
<polygon fill="none" stroke="black" points="769,-351.5 769,-381.5 870,-381.5 870,-351.5 769,-351.5"/>
<text text-anchor="start" x="777" y="-369.5" font-family="Helvetica,sans-Serif" font-size="10.00">plazza::XorCracker</text>
<text text-anchor="middle" x="819.5" y="-358.5" font-family="Helvetica,sans-Serif" font-size="10.00">::getMaxKeyLength</text>
</a>
</g>
</g>
<!-- Node14&#45;&gt;Node15 -->
<g id="edge16" class="edge"><title>Node14&#45;&gt;Node15</title>
<path fill="none" stroke="midnightblue" d="M725.327,-351.023C736.266,-352.84 747.742,-354.746 758.754,-356.575"/>
<polygon fill="midnightblue" stroke="midnightblue" points="758.271,-360.043 768.709,-358.229 759.418,-353.138 758.271,-360.043"/>
</g>
<!-- Node16 -->
<g id="node16" class="node"><title>Node16</title>
<g id="a_node16"><a xlink:href="classplazza_1_1_xor_cracker.html#aa398a0cced229d03cf6a51c1b1ab8ba3" target="_top" xlink:title="plazza::XorCracker\l::setKnownKeyLength">
<polygon fill="none" stroke="black" points="763,-302.5 763,-332.5 876,-332.5 876,-302.5 763,-302.5"/>
<text text-anchor="start" x="771" y="-320.5" font-family="Helvetica,sans-Serif" font-size="10.00">plazza::XorCracker</text>
<text text-anchor="middle" x="819.5" y="-309.5" font-family="Helvetica,sans-Serif" font-size="10.00">::setKnownKeyLength</text>
</a>
</g>
</g>
<!-- Node14&#45;&gt;Node16 -->
<g id="edge17" class="edge"><title>Node14&#45;&gt;Node16</title>
<path fill="none" stroke="midnightblue" d="M727.05,-332.083C735.455,-330.743 744.142,-329.358 752.667,-327.998"/>
<polygon fill="midnightblue" stroke="midnightblue" points="753.247,-331.45 762.571,-326.419 752.145,-324.537 753.247,-331.45"/>
</g>
<!-- Node18 -->
<g id="node18" class="node"><title>Node18</title>
<g id="a_node18"><a xlink:href="classplazza_1_1_xor_cracker.html#a9bb75f11814aa5eb3264be361c1be106" target="_top" xlink:title="plazza::XorCracker\l::getKnownKeyLength">
<polygon fill="none" stroke="black" points="610.5,-231.5 610.5,-261.5 723.5,-261.5 723.5,-231.5 610.5,-231.5"/>
<text text-anchor="start" x="618.5" y="-249.5" font-family="Helvetica,sans-Serif" font-size="10.00">plazza::XorCracker</text>
<text text-anchor="middle" x="667" y="-238.5" font-family="Helvetica,sans-Serif" font-size="10.00">::getKnownKeyLength</text>
</a>
</g>
</g>
<!-- Node17&#45;&gt;Node18 -->
<g id="edge19" class="edge"><title>Node17&#45;&gt;Node18</title>
<path fill="none" stroke="midnightblue" d="M551.372,-310.371C557.994,-307.575 564.744,-304.565 571,-301.5 592.132,-291.147 614.98,-277.985 632.972,-267.134"/>
<polygon fill="midnightblue" stroke="midnightblue" points="635.182,-269.886 641.903,-261.696 631.542,-263.907 635.182,-269.886"/>
</g>
<!-- Node21&#45;&gt;Node18 -->
<g id="edge23" class="edge"><title>Node21&#45;&gt;Node18</title>
<path fill="none" stroke="midnightblue" d="M547.94,-193.565C555.568,-196.808 563.562,-200.241 571,-203.5 588.327,-211.091 607.337,-219.649 623.769,-227.12"/>
<polygon fill="midnightblue" stroke="midnightblue" points="622.562,-230.417 633.114,-231.378 625.465,-224.047 622.562,-230.417"/>
</g>
<!-- Node22&#45;&gt;Node23 -->
<g id="edge27" class="edge"><title>Node22&#45;&gt;Node23</title>
<path fill="none" stroke="midnightblue" d="M240.396,-282.418C250.188,-281.028 260.656,-279.542 271.05,-278.067"/>
<polygon fill="midnightblue" stroke="midnightblue" points="271.56,-281.53 280.969,-276.659 270.576,-274.599 271.56,-281.53"/>
</g>
<!-- Node25&#45;&gt;Node26 -->
<g id="edge31" class="edge"><title>Node25&#45;&gt;Node26</title>
<path fill="none" stroke="midnightblue" d="M242.113,-145.174C252.257,-143.735 263.069,-142.2 273.736,-140.686"/>
<polygon fill="midnightblue" stroke="midnightblue" points="274.483,-144.115 283.892,-139.244 273.499,-137.184 274.483,-144.115"/>
</g>
</g>
</svg>
        <g id="navigator" transform="translate(0 0)" fill="#404254">
                <rect fill="#f2f5e9" fill-opacity="0.5" stroke="#606060" stroke-width=".5" x="0" y="0" width="60" height="60"/>
                <use id="zoomplus" xlink:href="#zoomPlus" x="17" y="9" onmousedown="handleZoom(evt,'in')"/>
                <use id="zoomminus" xlink:href="#zoomMin" x="42" y="9" onmousedown="handleZoom(evt,'out')"/>
                <use id="reset" xlink:href="#resetDef" x="30" y="36" onmousedown="handleReset()"/>
                <g id="arrowUp" xlink:href="#dirArrow" transform="translate(30 24)" onmousedown="handlePan(0,-1)">
                  <use xlink:href="#rim" fill="#404040">
                        <set attributeName="fill" to="#808080" begin="arrowUp.mouseover" end="arrowUp.mouseout"/>
                  </use>
                  <path fill="none" stroke="white" stroke-width="1.5" d="M0,-3.0v7 M-2.5,-0.5L0,-3.0L2.5,-0.5"/>
                </g>
                <g id="arrowRight" xlink:href="#dirArrow" transform="rotate(90) translate(36 -43)" onmousedown="handlePan(1,0)">
                  <use xlink:href="#rim" fill="#404040">
                        <set attributeName="fill" to="#808080" begin="arrowRight.mouseover" end="arrowRight.mouseout"/>
                  </use>
                  <path fill="none" stroke="white" stroke-width="1.5" d="M0,-3.0v7 M-2.5,-0.5L0,-3.0L2.5,-0.5"/>
                </g>
                <g id="arrowDown" xlink:href="#dirArrow" transform="rotate(180) translate(-30 -48)" onmousedown="handlePan(0,1)">
                  <use xlink:href="#rim" fill="#404040">
                        <set attributeName="fill" to="#808080" begin="arrowDown.mouseover" end="arrowDown.mouseout"/>
                  </use>
                  <path fill="none" stroke="white" stroke-width="1.5" d="M0,-3.0v7 M-2.5,-0.5L0,-3.0L2.5,-0.5"/>
                </g>
                <g id="arrowLeft" xlink:href="#dirArrow" transform="rotate(270) translate(-36 17)" onmousedown="handlePan(-1,0)">
                  <use xlink:href="#rim" fill="#404040">
                        <set attributeName="fill" to="#808080" begin="arrowLeft.mouseover" end="arrowLeft.mouseout"/>
                  </use>
                  <path fill="none" stroke="white" stroke-width="1.5" d="M0,-3.0v7 M-2.5,-0.5L0,-3.0L2.5,-0.5"/>
                </g>
        </g>
        <svg viewBox="0 0 15 15" width="100%" height="30px" preserveAspectRatio="xMaxYMin meet">
         <g id="arrow_out" transform="scale(0.3 0.3)">
          <a xlink:href="classplazza_1_1_thread_pool_ae3447aa58cee4c5206d194f144d207c3_cgraph_org.svg" target="_base">
           <rect id="button" ry="5" rx="5" y="6" x="6" height="38" width="38"
                fill="#f2f5e9" fill-opacity="0.5" stroke="#606060" stroke-width="1.0"/>
           <path id="arrow"
             d="M 11.500037,31.436501 C 11.940474,20.09759 22.043105,11.32322 32.158766,21.979434 L 37.068811,17.246167 C 37.068811,17.246167 37.088388,32 37.088388,32 L 22.160133,31.978069 C 22.160133,31.978069 26.997745,27.140456 26.997745,27.140456 C 18.528582,18.264221 13.291696,25.230495 11.500037,31.436501 z"
             style="fill:#404040;"/>
          </a>
         </g>
        </svg>
</svg>
