<?xml version="1.0" encoding="UTF-8" standalone="no"?>
<!DOCTYPE svg PUBLIC "-//W3C//DTD SVG 1.1//EN"
 "http://www.w3.org/Graphics/SVG/1.1/DTD/svg11.dtd">
<!-- Generated by graphviz version 2.38.0 (20140413.2041)
 -->
<!-- Title: plazza::File::load Pages: 1 -->
<svg width="553pt" height="176pt"
 viewBox="0.00 0.00 553.00 175.50" xmlns="http://www.w3.org/2000/svg" xmlns:xlink="http://www.w3.org/1999/xlink">
<g id="graph0" class="graph" transform="scale(1 1) rotate(0) translate(4 171.5)">
<title>plazza::File::load</title>
<!-- Node1 -->
<g id="node1" class="node"><title>Node1</title>
<polygon fill="#bfbfbf" stroke="black" points="0,-91 0,-110 91,-110 91,-91 0,-91"/>
<text text-anchor="middle" x="45.5" y="-98" font-family="Helvetica,sans-Serif" font-size="10.00">plazza::File::load</text>
</g>
<!-- Node2 -->
<g id="node2" class="node"><title>Node2</title>
<g id="a_node2"><a xlink:href="classplazza_1_1_file.html#a395dca510df648686a50be331d9b9cd4" target="_top" xlink:title="Class constructor using a filename. ">
<polygon fill="none" stroke="black" points="151,-148 151,-167 240,-167 240,-148 151,-148"/>
<text text-anchor="middle" x="195.5" y="-155" font-family="Helvetica,sans-Serif" font-size="10.00">plazza::File::File</text>
</a>
</g>
</g>
<!-- Node1&#45;&gt;Node2 -->
<g id="edge1" class="edge"><title>Node1&#45;&gt;Node2</title>
<path fill="none" stroke="midnightblue" d="M73.6282,-114.694C89.0131,-122.389 108.778,-131.689 127,-138.5 136.351,-141.995 146.637,-145.201 156.3,-147.944"/>
<polygon fill="midnightblue" stroke="midnightblue" points="75.1692,-111.551 64.6678,-110.147 72.0014,-117.793 75.1692,-111.551"/>
</g>
<!-- Node3 -->
<g id="node3" class="node"><title>Node3</title>
<g id="a_node3"><a xlink:href="gui_2sources_2main__cypher_8cpp.html#add1099fd0935d5faefd7a4b92dfd955c" target="_top" xlink:title="xorf">
<polygon fill="none" stroke="black" points="179,-110 179,-129 212,-129 212,-110 179,-110"/>
<text text-anchor="middle" x="195.5" y="-117" font-family="Helvetica,sans-Serif" font-size="10.00">xorf</text>
</a>
</g>
</g>
<!-- Node1&#45;&gt;Node3 -->
<g id="edge2" class="edge"><title>Node1&#45;&gt;Node3</title>
<path fill="none" stroke="midnightblue" d="M101.315,-107.537C129.041,-111.097 160.627,-115.151 178.988,-117.509"/>
<polygon fill="midnightblue" stroke="midnightblue" points="101.671,-104.054 91.3065,-106.252 100.779,-110.997 101.671,-104.054"/>
</g>
<!-- Node5 -->
<g id="node5" class="node"><title>Node5</title>
<g id="a_node5"><a xlink:href="gui_2sources_2main__cypher_8cpp.html#a8bd3823ec173b4b29834b0f4ccb95326" target="_top" xlink:title="caesarf">
<polygon fill="none" stroke="black" points="171,-72 171,-91 220,-91 220,-72 171,-72"/>
<text text-anchor="middle" x="195.5" y="-79" font-family="Helvetica,sans-Serif" font-size="10.00">caesarf</text>
</a>
</g>
</g>
<!-- Node1&#45;&gt;Node5 -->
<g id="edge4" class="edge"><title>Node1&#45;&gt;Node5</title>
<path fill="none" stroke="midnightblue" d="M101.374,-93.4554C125.349,-90.3775 152.201,-86.9303 170.888,-84.5313"/>
<polygon fill="midnightblue" stroke="midnightblue" points="100.779,-90.0029 91.3065,-94.7478 101.671,-96.9459 100.779,-90.0029"/>
</g>
<!-- Node6 -->
<g id="node6" class="node"><title>Node6</title>
<g id="a_node6"><a xlink:href="classplazza_1_1_worker.html#af17344ef0f0311dadb4f7c7ea9565031" target="_top" xlink:title="Send task to perform to the worker. ">
<polygon fill="none" stroke="black" points="127,-31 127,-50 264,-50 264,-31 127,-31"/>
<text text-anchor="middle" x="195.5" y="-38" font-family="Helvetica,sans-Serif" font-size="10.00">plazza::Worker::performJob</text>
</a>
</g>
</g>
<!-- Node1&#45;&gt;Node6 -->
<g id="edge6" class="edge"><title>Node1&#45;&gt;Node6</title>
<path fill="none" stroke="midnightblue" d="M74.0434,-86.4422C89.4178,-78.8645 109.039,-69.6333 127,-62.5 138.341,-57.996 151.005,-53.6854 162.273,-50.0923"/>
<polygon fill="midnightblue" stroke="midnightblue" points="72.4612,-83.3201 65.0723,-90.9132 75.5836,-89.5852 72.4612,-83.3201"/>
</g>
<!-- Node4 -->
<g id="node4" class="node"><title>Node4</title>
<g id="a_node4"><a xlink:href="gui_2sources_2main__cypher_8cpp.html#a0c99d968a34e803d378692bde2e3f18f" target="_top" xlink:title="main">
<polygon fill="none" stroke="black" points="335,-110 335,-129 373,-129 373,-110 335,-110"/>
<text text-anchor="middle" x="354" y="-117" font-family="Helvetica,sans-Serif" font-size="10.00">main</text>
</a>
</g>
</g>
<!-- Node3&#45;&gt;Node4 -->
<g id="edge3" class="edge"><title>Node3&#45;&gt;Node4</title>
<path fill="none" stroke="midnightblue" d="M222.312,-119.5C253.957,-119.5 306.8,-119.5 334.607,-119.5"/>
<polygon fill="midnightblue" stroke="midnightblue" points="222.078,-116 212.078,-119.5 222.078,-123 222.078,-116"/>
</g>
<!-- Node5&#45;&gt;Node4 -->
<g id="edge5" class="edge"><title>Node5&#45;&gt;Node4</title>
<path fill="none" stroke="midnightblue" d="M230.109,-89.6607C262.187,-97.4496 309.306,-108.89 334.875,-115.099"/>
<polygon fill="midnightblue" stroke="midnightblue" points="230.812,-86.2298 220.269,-87.2714 229.161,-93.0322 230.812,-86.2298"/>
</g>
<!-- Node7 -->
<g id="node7" class="node"><title>Node7</title>
<g id="a_node7"><a xlink:href="classplazza_1_1_worker.html#aa7561bf24cd0a90230ddd99b43b18a11" target="_top" xlink:title="Start thread execution. ">
<polygon fill="none" stroke="black" points="300,-72 300,-91 408,-91 408,-72 300,-72"/>
<text text-anchor="middle" x="354" y="-79" font-family="Helvetica,sans-Serif" font-size="10.00">plazza::Worker::start</text>
</a>
</g>
</g>
<!-- Node6&#45;&gt;Node7 -->
<g id="edge7" class="edge"><title>Node6&#45;&gt;Node7</title>
<path fill="none" stroke="midnightblue" d="M242.599,-52.577C266.219,-58.7651 294.571,-66.1927 316.628,-71.9714"/>
<polygon fill="midnightblue" stroke="midnightblue" points="243.358,-49.1579 232.798,-50.0093 241.584,-55.9294 243.358,-49.1579"/>
</g>
<!-- Node8 -->
<g id="node8" class="node"><title>Node8</title>
<g id="a_node8"><a xlink:href="classplazza_1_1_thread_pool.html#a85b5323591017ee418afb0fdc9e3d9a7" target="_top" xlink:title="Get the number of total workers. ">
<polygon fill="none" stroke="black" points="303.5,-22.5 303.5,-52.5 404.5,-52.5 404.5,-22.5 303.5,-22.5"/>
<text text-anchor="start" x="311.5" y="-40.5" font-family="Helvetica,sans-Serif" font-size="10.00">plazza::ThreadPool</text>
<text text-anchor="middle" x="354" y="-29.5" font-family="Helvetica,sans-Serif" font-size="10.00">::getNbWorkers</text>
</a>
</g>
</g>
<!-- Node6&#45;&gt;Node8 -->
<g id="edge8" class="edge"><title>Node6&#45;&gt;Node8</title>
<path fill="none" stroke="midnightblue" d="M274.382,-39.0071C284.148,-38.8199 293.921,-38.6325 303.094,-38.4567"/>
<polygon fill="midnightblue" stroke="midnightblue" points="274.164,-35.5105 264.233,-39.2016 274.298,-42.5092 274.164,-35.5105"/>
</g>
<!-- Node9 -->
<g id="node9" class="node"><title>Node9</title>
<g id="a_node9"><a xlink:href="classplazza_1_1_thread_pool.html#ae3447aa58cee4c5206d194f144d207c3" target="_top" xlink:title="Class constructor. ">
<polygon fill="none" stroke="black" points="444,-0.5 444,-30.5 545,-30.5 545,-0.5 444,-0.5"/>
<text text-anchor="start" x="452" y="-18.5" font-family="Helvetica,sans-Serif" font-size="10.00">plazza::ThreadPool</text>
<text text-anchor="middle" x="494.5" y="-7.5" font-family="Helvetica,sans-Serif" font-size="10.00">::ThreadPool</text>
</a>
</g>
</g>
<!-- Node6&#45;&gt;Node9 -->
<g id="edge10" class="edge"><title>Node6&#45;&gt;Node9</title>
<path fill="none" stroke="midnightblue" d="M233.491,-27.9418C253.018,-21.9666 277.53,-15.4858 300,-12.5 347.582,-6.17746 360.007,-11.6583 408,-12.5 419.583,-12.7032 432.046,-13.061 443.776,-13.4605"/>
<polygon fill="midnightblue" stroke="midnightblue" points="232.26,-24.6597 223.771,-30.9991 234.361,-31.3372 232.26,-24.6597"/>
</g>
<!-- Node8&#45;&gt;Node9 -->
<g id="edge9" class="edge"><title>Node8&#45;&gt;Node9</title>
<path fill="none" stroke="midnightblue" d="M414.615,-28.0304C424.338,-26.4861 434.318,-24.9007 443.77,-23.3993"/>
<polygon fill="midnightblue" stroke="midnightblue" points="413.938,-24.5941 404.61,-29.6196 415.036,-31.5074 413.938,-24.5941"/>
</g>
</g>
</svg>
