<?xml version="1.0" encoding="UTF-8" standalone="no"?>
<!DOCTYPE svg PUBLIC "-//W3C//DTD SVG 1.1//EN"
 "http://www.w3.org/Graphics/SVG/1.1/DTD/svg11.dtd">
<!-- Generated by graphviz version 2.38.0 (20140413.2041)
 -->
<!-- Title: plazza::ConnectorPipe::setFd Pages: 1 -->
<svg width="1373pt" height="285pt"
 viewBox="0.00 0.00 1373.00 284.73" xmlns="http://www.w3.org/2000/svg" xmlns:xlink="http://www.w3.org/1999/xlink">
<g id="graph0" class="graph" transform="scale(1 1) rotate(0) translate(4 280.732)">
<title>plazza::ConnectorPipe::setFd</title>
<!-- Node1 -->
<g id="node1" class="node"><title>Node1</title>
<polygon fill="#bfbfbf" stroke="black" points="0,-180.232 0,-210.232 116,-210.232 116,-180.232 0,-180.232"/>
<text text-anchor="start" x="8" y="-198.232" font-family="Helvetica,sans-Serif" font-size="10.00">plazza::ConnectorPipe</text>
<text text-anchor="middle" x="58" y="-187.232" font-family="Helvetica,sans-Serif" font-size="10.00">::setFd</text>
</g>
<!-- Node2 -->
<g id="node2" class="node"><title>Node2</title>
<g id="a_node2"><a xlink:href="classplazza_1_1_connector_pipe.html#a988af6e52af009b779739b0fc571fc07" target="_top" xlink:title="plazza::ConnectorPipe\l::connect">
<polygon fill="none" stroke="black" points="304,-224.232 304,-254.232 420,-254.232 420,-224.232 304,-224.232"/>
<text text-anchor="start" x="312" y="-242.232" font-family="Helvetica,sans-Serif" font-size="10.00">plazza::ConnectorPipe</text>
<text text-anchor="middle" x="362" y="-231.232" font-family="Helvetica,sans-Serif" font-size="10.00">::connect</text>
</a>
</g>
</g>
<!-- Node1&#45;&gt;Node2 -->
<g id="edge1" class="edge"><title>Node1&#45;&gt;Node2</title>
<path fill="none" stroke="midnightblue" d="M126.171,-205.4C134.86,-206.699 143.64,-208.003 152,-209.232 203.317,-216.778 261.758,-225.148 303.768,-231.125"/>
<polygon fill="midnightblue" stroke="midnightblue" points="126.451,-201.903 116.043,-203.883 125.414,-208.826 126.451,-201.903"/>
</g>
<!-- Node3 -->
<g id="node3" class="node"><title>Node3</title>
<g id="a_node3"><a xlink:href="classplazza_1_1_connector_pipe.html#aa37f2c5398dcbc14b774e763855eff2c" target="_top" xlink:title="plazza::ConnectorPipe\l::setMode">
<polygon fill="none" stroke="black" points="456,-109.232 456,-139.232 572,-139.232 572,-109.232 456,-109.232"/>
<text text-anchor="start" x="464" y="-127.232" font-family="Helvetica,sans-Serif" font-size="10.00">plazza::ConnectorPipe</text>
<text text-anchor="middle" x="514" y="-116.232" font-family="Helvetica,sans-Serif" font-size="10.00">::setMode</text>
</a>
</g>
</g>
<!-- Node1&#45;&gt;Node3 -->
<g id="edge23" class="edge"><title>Node1&#45;&gt;Node3</title>
<path fill="none" stroke="midnightblue" d="M126.059,-184.745C215.372,-170.778 371.835,-146.309 455.837,-133.172"/>
<polygon fill="midnightblue" stroke="midnightblue" points="125.379,-181.309 116.04,-186.312 126.46,-188.225 125.379,-181.309"/>
</g>
<!-- Node12 -->
<g id="node12" class="node"><title>Node12</title>
<g id="a_node12"><a xlink:href="classplazza_1_1_connector_pipe.html#a588544d4eebd85f8f05e43f826ea47bd" target="_top" xlink:title="plazza::ConnectorPipe\l::disconnect">
<polygon fill="none" stroke="black" points="152,-85.2324 152,-115.232 268,-115.232 268,-85.2324 152,-85.2324"/>
<text text-anchor="start" x="160" y="-103.232" font-family="Helvetica,sans-Serif" font-size="10.00">plazza::ConnectorPipe</text>
<text text-anchor="middle" x="210" y="-92.2324" font-family="Helvetica,sans-Serif" font-size="10.00">::disconnect</text>
</a>
</g>
</g>
<!-- Node1&#45;&gt;Node12 -->
<g id="edge12" class="edge"><title>Node1&#45;&gt;Node12</title>
<path fill="none" stroke="midnightblue" d="M91.4337,-174.691C119.516,-156.905 159.502,-131.581 184.847,-115.53"/>
<polygon fill="midnightblue" stroke="midnightblue" points="89.3435,-171.872 82.7679,-180.179 93.0888,-177.786 89.3435,-171.872"/>
</g>
<!-- Node2&#45;&gt;Node3 -->
<g id="edge2" class="edge"><title>Node2&#45;&gt;Node3</title>
<path fill="none" stroke="midnightblue" d="M407.706,-218.895C412.103,-215.98 416.299,-212.757 420,-209.232 442.795,-187.521 432.293,-168.945 456,-148.232 459.881,-144.841 464.311,-141.878 468.947,-139.302"/>
<polygon fill="midnightblue" stroke="midnightblue" points="405.819,-215.947 399.082,-224.123 409.448,-221.933 405.819,-215.947"/>
</g>
<!-- Node4 -->
<g id="node4" class="node"><title>Node4</title>
<g id="a_node4"><a xlink:href="classplazza_1_1_office.html#a611c1821b8f7dfc4d6e4a4211714e2c7" target="_top" xlink:title="init the Office ">
<polygon fill="none" stroke="black" points="608.5,-207.732 608.5,-226.732 704.5,-226.732 704.5,-207.732 608.5,-207.732"/>
<text text-anchor="middle" x="656.5" y="-214.732" font-family="Helvetica,sans-Serif" font-size="10.00">plazza::Office::init</text>
</a>
</g>
</g>
<!-- Node2&#45;&gt;Node4 -->
<g id="edge3" class="edge"><title>Node2&#45;&gt;Node4</title>
<path fill="none" stroke="midnightblue" d="M430.342,-234.167C484.765,-230.074 559.997,-224.415 608.208,-220.789"/>
<polygon fill="midnightblue" stroke="midnightblue" points="429.801,-230.698 420.091,-234.938 430.326,-237.678 429.801,-230.698"/>
</g>
<!-- Node10 -->
<g id="node10" class="node"><title>Node10</title>
<g id="a_node10"><a xlink:href="classplazza_1_1_reception.html#a7c23a1b9bc8832a06c25f8075f91dcaf" target="_top" xlink:title="Class constructor. ">
<polygon fill="none" stroke="black" points="463.5,-246.232 463.5,-276.232 564.5,-276.232 564.5,-246.232 463.5,-246.232"/>
<text text-anchor="start" x="471.5" y="-264.232" font-family="Helvetica,sans-Serif" font-size="10.00">plazza::Reception::</text>
<text text-anchor="middle" x="514" y="-253.232" font-family="Helvetica,sans-Serif" font-size="10.00">Reception</text>
</a>
</g>
</g>
<!-- Node2&#45;&gt;Node10 -->
<g id="edge9" class="edge"><title>Node2&#45;&gt;Node10</title>
<path fill="none" stroke="midnightblue" d="M430.271,-249.099C441.408,-250.732 452.774,-252.399 463.374,-253.954"/>
<polygon fill="midnightblue" stroke="midnightblue" points="430.539,-245.601 420.136,-247.612 429.523,-252.527 430.539,-245.601"/>
</g>
<!-- Node11 -->
<g id="node11" class="node"><title>Node11</title>
<g id="a_node11"><a xlink:href="classplazza_1_1_reception.html#a7389b5af68c57d0547f3ba41278c2002" target="_top" xlink:title="Send a task. ">
<polygon fill="none" stroke="black" points="463.5,-158.232 463.5,-188.232 564.5,-188.232 564.5,-158.232 463.5,-158.232"/>
<text text-anchor="start" x="471.5" y="-176.232" font-family="Helvetica,sans-Serif" font-size="10.00">plazza::Reception::</text>
<text text-anchor="middle" x="514" y="-165.232" font-family="Helvetica,sans-Serif" font-size="10.00">sendTask</text>
</a>
</g>
</g>
<!-- Node2&#45;&gt;Node11 -->
<g id="edge10" class="edge"><title>Node2&#45;&gt;Node11</title>
<path fill="none" stroke="midnightblue" d="M406.605,-220.046C429.576,-209.939 457.341,-197.722 478.747,-188.304"/>
<polygon fill="midnightblue" stroke="midnightblue" points="405.157,-216.86 397.413,-224.091 407.976,-223.267 405.157,-216.86"/>
</g>
<!-- Node5 -->
<g id="node5" class="node"><title>Node5</title>
<g id="a_node5"><a xlink:href="classplazza_1_1_process_manager.html#aaf7eabb8ae524f2faa9b152aa178a30b" target="_top" xlink:title="create an Office ">
<polygon fill="none" stroke="black" points="741,-202.232 741,-232.232 866,-232.232 866,-202.232 741,-202.232"/>
<text text-anchor="start" x="749" y="-220.232" font-family="Helvetica,sans-Serif" font-size="10.00">plazza::ProcessManager</text>
<text text-anchor="middle" x="803.5" y="-209.232" font-family="Helvetica,sans-Serif" font-size="10.00">::spawn</text>
</a>
</g>
</g>
<!-- Node4&#45;&gt;Node5 -->
<g id="edge4" class="edge"><title>Node4&#45;&gt;Node5</title>
<path fill="none" stroke="midnightblue" d="M714.831,-217.232C723.385,-217.232 732.234,-217.232 740.872,-217.232"/>
<polygon fill="midnightblue" stroke="midnightblue" points="714.577,-213.732 704.577,-217.232 714.577,-220.732 714.577,-213.732"/>
</g>
<!-- Node6 -->
<g id="node6" class="node"><title>Node6</title>
<g id="a_node6"><a xlink:href="classplazza_1_1_reception.html#a7e1b50160865f662607dcddcbd9434f9" target="_top" xlink:title="Create an office. ">
<polygon fill="none" stroke="black" points="902,-202.232 902,-232.232 1003,-232.232 1003,-202.232 902,-202.232"/>
<text text-anchor="start" x="910" y="-220.232" font-family="Helvetica,sans-Serif" font-size="10.00">plazza::Reception::</text>
<text text-anchor="middle" x="952.5" y="-209.232" font-family="Helvetica,sans-Serif" font-size="10.00">createOffice</text>
</a>
</g>
</g>
<!-- Node5&#45;&gt;Node6 -->
<g id="edge5" class="edge"><title>Node5&#45;&gt;Node6</title>
<path fill="none" stroke="midnightblue" d="M876.694,-217.232C885.154,-217.232 893.638,-217.232 901.696,-217.232"/>
<polygon fill="midnightblue" stroke="midnightblue" points="876.415,-213.732 866.415,-217.232 876.415,-220.732 876.415,-213.732"/>
</g>
<!-- Node7 -->
<g id="node7" class="node"><title>Node7</title>
<g id="a_node7"><a xlink:href="classplazza_1_1_reception.html#a7aa64f05388780e369663cd6800578ae" target="_top" xlink:title="Assign a task to the queue. ">
<polygon fill="none" stroke="black" points="1039,-180.232 1039,-210.232 1140,-210.232 1140,-180.232 1039,-180.232"/>
<text text-anchor="start" x="1047" y="-198.232" font-family="Helvetica,sans-Serif" font-size="10.00">plazza::Reception::</text>
<text text-anchor="middle" x="1089.5" y="-187.232" font-family="Helvetica,sans-Serif" font-size="10.00">assignTask</text>
</a>
</g>
</g>
<!-- Node6&#45;&gt;Node7 -->
<g id="edge6" class="edge"><title>Node6&#45;&gt;Node7</title>
<path fill="none" stroke="midnightblue" d="M1012.93,-207.548C1021.48,-206.154 1030.21,-204.732 1038.55,-203.372"/>
<polygon fill="midnightblue" stroke="midnightblue" points="1012.31,-204.102 1003,-209.165 1013.44,-211.011 1012.31,-204.102"/>
</g>
<!-- Node8 -->
<g id="node8" class="node"><title>Node8</title>
<g id="a_node8"><a xlink:href="classplazza_1_1_reception.html#add69bb3defc0d810a8f4fe2cdceacbb1" target="_top" xlink:title="run the office ">
<polygon fill="none" stroke="black" points="1176,-185.732 1176,-204.732 1291,-204.732 1291,-185.732 1176,-185.732"/>
<text text-anchor="middle" x="1233.5" y="-192.732" font-family="Helvetica,sans-Serif" font-size="10.00">plazza::Reception::run</text>
</a>
</g>
</g>
<!-- Node7&#45;&gt;Node8 -->
<g id="edge7" class="edge"><title>Node7&#45;&gt;Node8</title>
<path fill="none" stroke="midnightblue" d="M1150.33,-195.232C1158.77,-195.232 1167.43,-195.232 1175.82,-195.232"/>
<polygon fill="midnightblue" stroke="midnightblue" points="1150.16,-191.732 1140.16,-195.232 1150.16,-198.732 1150.16,-191.732"/>
</g>
<!-- Node9 -->
<g id="node9" class="node"><title>Node9</title>
<g id="a_node9"><a xlink:href="gui_2sources_2main_8cpp.html#adacbe0175a79dff748855d8c9839f82b" target="_top" xlink:title="main">
<polygon fill="none" stroke="black" points="1327,-185.732 1327,-204.732 1365,-204.732 1365,-185.732 1327,-185.732"/>
<text text-anchor="middle" x="1346" y="-192.732" font-family="Helvetica,sans-Serif" font-size="10.00">main</text>
</a>
</g>
</g>
<!-- Node8&#45;&gt;Node9 -->
<g id="edge8" class="edge"><title>Node8&#45;&gt;Node9</title>
<path fill="none" stroke="midnightblue" d="M1301.3,-195.232C1310.63,-195.232 1319.5,-195.232 1326.78,-195.232"/>
<polygon fill="midnightblue" stroke="midnightblue" points="1301.04,-191.732 1291.04,-195.232 1301.04,-198.732 1301.04,-191.732"/>
</g>
<!-- Node11&#45;&gt;Node7 -->
<g id="edge11" class="edge"><title>Node11&#45;&gt;Node7</title>
<path fill="none" stroke="midnightblue" d="M575.153,-175.54C688.898,-179.903 933.517,-189.287 1038.72,-193.323"/>
<polygon fill="midnightblue" stroke="midnightblue" points="575.018,-172.032 564.891,-175.146 574.75,-179.027 575.018,-172.032"/>
</g>
<!-- Node12&#45;&gt;Node3 -->
<g id="edge19" class="edge"><title>Node12&#45;&gt;Node3</title>
<path fill="none" stroke="midnightblue" d="M278.205,-105.573C331.541,-109.812 405.288,-115.672 455.819,-119.688"/>
<polygon fill="midnightblue" stroke="midnightblue" points="278.405,-102.078 268.159,-104.775 277.85,-109.056 278.405,-102.078"/>
</g>
<!-- Node12&#45;&gt;Node11 -->
<g id="edge22" class="edge"><title>Node12&#45;&gt;Node11</title>
<path fill="none" stroke="midnightblue" d="M272.843,-118C283.221,-120.844 293.898,-123.686 304,-126.232 358.275,-139.912 420.968,-153.751 463.423,-162.835"/>
<polygon fill="midnightblue" stroke="midnightblue" points="273.584,-114.574 263.012,-115.282 271.718,-121.32 273.584,-114.574"/>
</g>
<!-- Node13 -->
<g id="node13" class="node"><title>Node13</title>
<g id="a_node13"><a xlink:href="classplazza_1_1_connector_pipe.html#ac6e124ff9380729df4e1491b3c365d95" target="_top" xlink:title="plazza::ConnectorPipe\l::destroy">
<polygon fill="none" stroke="black" points="304,-22.2324 304,-52.2324 420,-52.2324 420,-22.2324 304,-22.2324"/>
<text text-anchor="start" x="312" y="-40.2324" font-family="Helvetica,sans-Serif" font-size="10.00">plazza::ConnectorPipe</text>
<text text-anchor="middle" x="362" y="-29.2324" font-family="Helvetica,sans-Serif" font-size="10.00">::destroy</text>
</a>
</g>
</g>
<!-- Node12&#45;&gt;Node13 -->
<g id="edge13" class="edge"><title>Node12&#45;&gt;Node13</title>
<path fill="none" stroke="midnightblue" d="M256.407,-81.1614C278.427,-71.9132 304.499,-60.9626 325.105,-52.3083"/>
<polygon fill="midnightblue" stroke="midnightblue" points="254.793,-78.043 246.929,-85.1423 257.504,-84.4968 254.793,-78.043"/>
</g>
<!-- Node14 -->
<g id="node14" class="node"><title>Node14</title>
<g id="a_node14"><a xlink:href="classplazza_1_1_office.html#a04316c75e42181f331b214729c8e7909" target="_top" xlink:title="Close the office. ">
<polygon fill="none" stroke="black" points="460.5,-21.7324 460.5,-40.7324 567.5,-40.7324 567.5,-21.7324 460.5,-21.7324"/>
<text text-anchor="middle" x="514" y="-28.7324" font-family="Helvetica,sans-Serif" font-size="10.00">plazza::Office::close</text>
</a>
</g>
</g>
<!-- Node12&#45;&gt;Node14 -->
<g id="edge20" class="edge"><title>Node12&#45;&gt;Node14</title>
<path fill="none" stroke="midnightblue" d="M227.319,-76.8536C243.83,-55.4391 271.51,-25.1676 304,-12.2324 366.284,12.5648 447.005,-8.0994 487.483,-21.6845"/>
<polygon fill="midnightblue" stroke="midnightblue" points="224.318,-75.023 221.147,-85.1321 229.93,-79.207 224.318,-75.023"/>
</g>
<!-- Node16 -->
<g id="node16" class="node"><title>Node16</title>
<g id="a_node16"><a xlink:href="classplazza_1_1_reception.html#a8fe11050b70e7eed3ef576e875bff427" target="_top" xlink:title="Class destructor. ">
<polygon fill="none" stroke="black" points="463.5,-60.2324 463.5,-90.2324 564.5,-90.2324 564.5,-60.2324 463.5,-60.2324"/>
<text text-anchor="start" x="471.5" y="-78.2324" font-family="Helvetica,sans-Serif" font-size="10.00">plazza::Reception::</text>
<text text-anchor="middle" x="514" y="-67.2324" font-family="Helvetica,sans-Serif" font-size="10.00">~Reception</text>
</a>
</g>
</g>
<!-- Node12&#45;&gt;Node16 -->
<g id="edge21" class="edge"><title>Node12&#45;&gt;Node16</title>
<path fill="none" stroke="midnightblue" d="M278.333,-94.6584C334.278,-90.0272 412.614,-83.5425 463.085,-79.3644"/>
<polygon fill="midnightblue" stroke="midnightblue" points="277.836,-91.1875 268.159,-95.5007 278.414,-98.1636 277.836,-91.1875"/>
</g>
<!-- Node13&#45;&gt;Node3 -->
<g id="edge14" class="edge"><title>Node13&#45;&gt;Node3</title>
<path fill="none" stroke="midnightblue" d="M391.716,-58.2748C409.693,-70.9632 433.617,-86.9852 456,-99.2324 462.351,-102.708 469.282,-106.076 476.055,-109.156"/>
<polygon fill="midnightblue" stroke="midnightblue" points="393.575,-55.3017 383.401,-52.3448 389.511,-61.0009 393.575,-55.3017"/>
</g>
<!-- Node13&#45;&gt;Node14 -->
<g id="edge15" class="edge"><title>Node13&#45;&gt;Node14</title>
<path fill="none" stroke="midnightblue" d="M430.192,-34.5447C440.339,-34.1388 450.679,-33.7252 460.458,-33.334"/>
<polygon fill="midnightblue" stroke="midnightblue" points="429.989,-31.0499 420.136,-34.9469 430.268,-38.0443 429.989,-31.0499"/>
</g>
<!-- Node13&#45;&gt;Node16 -->
<g id="edge18" class="edge"><title>Node13&#45;&gt;Node16</title>
<path fill="none" stroke="midnightblue" d="M429.93,-54.188C441.176,-57.0369 452.666,-59.9478 463.374,-62.6605"/>
<polygon fill="midnightblue" stroke="midnightblue" points="430.69,-50.7699 420.136,-51.7069 428.971,-57.5556 430.69,-50.7699"/>
</g>
<!-- Node15 -->
<g id="node15" class="node"><title>Node15</title>
<g id="a_node15"><a xlink:href="classplazza_1_1_office.html#a7c431da08f4460a011363f11f7066889" target="_top" xlink:title="Start the office. ">
<polygon fill="none" stroke="black" points="608,-73.7324 608,-92.7324 705,-92.7324 705,-73.7324 608,-73.7324"/>
<text text-anchor="middle" x="656.5" y="-80.7324" font-family="Helvetica,sans-Serif" font-size="10.00">plazza::Office::run</text>
</a>
</g>
</g>
<!-- Node14&#45;&gt;Node15 -->
<g id="edge16" class="edge"><title>Node14&#45;&gt;Node15</title>
<path fill="none" stroke="midnightblue" d="M554.451,-44.0709C560.351,-46.0812 566.348,-48.1754 572,-50.2324 592.507,-57.696 615.557,-66.8657 632.235,-73.6432"/>
<polygon fill="midnightblue" stroke="midnightblue" points="555.285,-40.6587 544.691,-40.7883 553.053,-47.2935 555.285,-40.6587"/>
</g>
<!-- Node15&#45;&gt;Node5 -->
<g id="edge17" class="edge"><title>Node15&#45;&gt;Node5</title>
<path fill="none" stroke="midnightblue" d="M675.524,-99.8894C703.957,-126.165 758.793,-176.841 786.149,-202.121"/>
<polygon fill="midnightblue" stroke="midnightblue" points="677.648,-97.0859 667.928,-92.8693 672.897,-102.227 677.648,-97.0859"/>
</g>
</g>
</svg>
