<?xml version="1.0" encoding="UTF-8" standalone="no"?>
<!DOCTYPE svg PUBLIC "-//W3C//DTD SVG 1.1//EN"
 "http://www.w3.org/Graphics/SVG/1.1/DTD/svg11.dtd">
<!-- Generated by graphviz version 2.38.0 (20140413.2041)
 -->
<!-- Title: plazza::ThreadPool::stop Pages: 1 -->
<svg width="1045pt" height="83pt"
 viewBox="0.00 0.00 1045.00 83.00" xmlns="http://www.w3.org/2000/svg" xmlns:xlink="http://www.w3.org/1999/xlink">
<g id="graph0" class="graph" transform="scale(1 1) rotate(0) translate(4 79)">
<title>plazza::ThreadPool::stop</title>
<!-- Node1 -->
<g id="node1" class="node"><title>Node1</title>
<polygon fill="#bfbfbf" stroke="black" points="0,-22.5 0,-52.5 101,-52.5 101,-22.5 0,-22.5"/>
<text text-anchor="start" x="8" y="-40.5" font-family="Helvetica,sans-Serif" font-size="10.00">plazza::ThreadPool</text>
<text text-anchor="middle" x="50.5" y="-29.5" font-family="Helvetica,sans-Serif" font-size="10.00">::stop</text>
</g>
<!-- Node2 -->
<g id="node2" class="node"><title>Node2</title>
<g id="a_node2"><a xlink:href="classplazza_1_1_office.html#a04316c75e42181f331b214729c8e7909" target="_top" xlink:title="Close the office. ">
<polygon fill="none" stroke="black" points="137,-50 137,-69 244,-69 244,-50 137,-50"/>
<text text-anchor="middle" x="190.5" y="-57" font-family="Helvetica,sans-Serif" font-size="10.00">plazza::Office::close</text>
</a>
</g>
</g>
<!-- Node1&#45;&gt;Node2 -->
<g id="edge1" class="edge"><title>Node1&#45;&gt;Node2</title>
<path fill="none" stroke="midnightblue" d="M111.246,-47.0247C119.803,-48.3889 128.554,-49.784 136.959,-51.1239"/>
<polygon fill="midnightblue" stroke="midnightblue" points="111.748,-43.5606 101.321,-45.4425 110.645,-50.4733 111.748,-43.5606"/>
</g>
<!-- Node9 -->
<g id="node9" class="node"><title>Node9</title>
<g id="a_node9"><a xlink:href="classplazza_1_1_thread_pool.html#ae3447aa58cee4c5206d194f144d207c3" target="_top" xlink:title="Class constructor. ">
<polygon fill="none" stroke="black" points="140,-0.5 140,-30.5 241,-30.5 241,-0.5 140,-0.5"/>
<text text-anchor="start" x="148" y="-18.5" font-family="Helvetica,sans-Serif" font-size="10.00">plazza::ThreadPool</text>
<text text-anchor="middle" x="190.5" y="-7.5" font-family="Helvetica,sans-Serif" font-size="10.00">::ThreadPool</text>
</a>
</g>
</g>
<!-- Node1&#45;&gt;Node9 -->
<g id="edge8" class="edge"><title>Node1&#45;&gt;Node9</title>
<path fill="none" stroke="midnightblue" d="M111.447,-27.9433C120.893,-26.4373 130.57,-24.8947 139.752,-23.4308"/>
<polygon fill="midnightblue" stroke="midnightblue" points="110.645,-24.5267 101.321,-29.5575 111.748,-31.4394 110.645,-24.5267"/>
</g>
<!-- Node3 -->
<g id="node3" class="node"><title>Node3</title>
<g id="a_node3"><a xlink:href="classplazza_1_1_office.html#a7c431da08f4460a011363f11f7066889" target="_top" xlink:title="Start the office. ">
<polygon fill="none" stroke="black" points="280,-50 280,-69 377,-69 377,-50 280,-50"/>
<text text-anchor="middle" x="328.5" y="-57" font-family="Helvetica,sans-Serif" font-size="10.00">plazza::Office::run</text>
</a>
</g>
</g>
<!-- Node2&#45;&gt;Node3 -->
<g id="edge2" class="edge"><title>Node2&#45;&gt;Node3</title>
<path fill="none" stroke="midnightblue" d="M254.167,-59.5C262.834,-59.5 271.616,-59.5 279.947,-59.5"/>
<polygon fill="midnightblue" stroke="midnightblue" points="254.081,-56.0001 244.081,-59.5 254.081,-63.0001 254.081,-56.0001"/>
</g>
<!-- Node4 -->
<g id="node4" class="node"><title>Node4</title>
<g id="a_node4"><a xlink:href="classplazza_1_1_process_manager.html#aaf7eabb8ae524f2faa9b152aa178a30b" target="_top" xlink:title="create an Office ">
<polygon fill="none" stroke="black" points="413,-44.5 413,-74.5 538,-74.5 538,-44.5 413,-44.5"/>
<text text-anchor="start" x="421" y="-62.5" font-family="Helvetica,sans-Serif" font-size="10.00">plazza::ProcessManager</text>
<text text-anchor="middle" x="475.5" y="-51.5" font-family="Helvetica,sans-Serif" font-size="10.00">::spawn</text>
</a>
</g>
</g>
<!-- Node3&#45;&gt;Node4 -->
<g id="edge3" class="edge"><title>Node3&#45;&gt;Node4</title>
<path fill="none" stroke="midnightblue" d="M387.451,-59.5C395.843,-59.5 404.506,-59.5 412.966,-59.5"/>
<polygon fill="midnightblue" stroke="midnightblue" points="387.38,-56.0001 377.38,-59.5 387.38,-63.0001 387.38,-56.0001"/>
</g>
<!-- Node5 -->
<g id="node5" class="node"><title>Node5</title>
<g id="a_node5"><a xlink:href="classplazza_1_1_reception.html#a7e1b50160865f662607dcddcbd9434f9" target="_top" xlink:title="Create an office. ">
<polygon fill="none" stroke="black" points="574,-44.5 574,-74.5 675,-74.5 675,-44.5 574,-44.5"/>
<text text-anchor="start" x="582" y="-62.5" font-family="Helvetica,sans-Serif" font-size="10.00">plazza::Reception::</text>
<text text-anchor="middle" x="624.5" y="-51.5" font-family="Helvetica,sans-Serif" font-size="10.00">createOffice</text>
</a>
</g>
</g>
<!-- Node4&#45;&gt;Node5 -->
<g id="edge4" class="edge"><title>Node4&#45;&gt;Node5</title>
<path fill="none" stroke="midnightblue" d="M548.694,-59.5C557.154,-59.5 565.638,-59.5 573.696,-59.5"/>
<polygon fill="midnightblue" stroke="midnightblue" points="548.415,-56.0001 538.415,-59.5 548.415,-63.0001 548.415,-56.0001"/>
</g>
<!-- Node6 -->
<g id="node6" class="node"><title>Node6</title>
<g id="a_node6"><a xlink:href="classplazza_1_1_reception.html#a7aa64f05388780e369663cd6800578ae" target="_top" xlink:title="Assign a task to the queue. ">
<polygon fill="none" stroke="black" points="711,-44.5 711,-74.5 812,-74.5 812,-44.5 711,-44.5"/>
<text text-anchor="start" x="719" y="-62.5" font-family="Helvetica,sans-Serif" font-size="10.00">plazza::Reception::</text>
<text text-anchor="middle" x="761.5" y="-51.5" font-family="Helvetica,sans-Serif" font-size="10.00">assignTask</text>
</a>
</g>
</g>
<!-- Node5&#45;&gt;Node6 -->
<g id="edge5" class="edge"><title>Node5&#45;&gt;Node6</title>
<path fill="none" stroke="midnightblue" d="M685.207,-59.5C693.67,-59.5 702.299,-59.5 710.552,-59.5"/>
<polygon fill="midnightblue" stroke="midnightblue" points="685.002,-56.0001 675.002,-59.5 685.002,-63.0001 685.002,-56.0001"/>
</g>
<!-- Node7 -->
<g id="node7" class="node"><title>Node7</title>
<g id="a_node7"><a xlink:href="classplazza_1_1_reception.html#add69bb3defc0d810a8f4fe2cdceacbb1" target="_top" xlink:title="run the office ">
<polygon fill="none" stroke="black" points="848,-50 848,-69 963,-69 963,-50 848,-50"/>
<text text-anchor="middle" x="905.5" y="-57" font-family="Helvetica,sans-Serif" font-size="10.00">plazza::Reception::run</text>
</a>
</g>
</g>
<!-- Node6&#45;&gt;Node7 -->
<g id="edge6" class="edge"><title>Node6&#45;&gt;Node7</title>
<path fill="none" stroke="midnightblue" d="M822.326,-59.5C830.771,-59.5 839.433,-59.5 847.817,-59.5"/>
<polygon fill="midnightblue" stroke="midnightblue" points="822.165,-56.0001 812.165,-59.5 822.165,-63.0001 822.165,-56.0001"/>
</g>
<!-- Node8 -->
<g id="node8" class="node"><title>Node8</title>
<g id="a_node8"><a xlink:href="gui_2sources_2main_8cpp.html#adacbe0175a79dff748855d8c9839f82b" target="_top" xlink:title="main">
<polygon fill="none" stroke="black" points="999,-50 999,-69 1037,-69 1037,-50 999,-50"/>
<text text-anchor="middle" x="1018" y="-57" font-family="Helvetica,sans-Serif" font-size="10.00">main</text>
</a>
</g>
</g>
<!-- Node7&#45;&gt;Node8 -->
<g id="edge7" class="edge"><title>Node7&#45;&gt;Node8</title>
<path fill="none" stroke="midnightblue" d="M973.296,-59.5C982.626,-59.5 991.496,-59.5 998.776,-59.5"/>
<polygon fill="midnightblue" stroke="midnightblue" points="973.045,-56.0001 963.045,-59.5 973.045,-63.0001 973.045,-56.0001"/>
</g>
</g>
</svg>
