<?xml version="1.0" encoding="UTF-8" standalone="no"?>
<!DOCTYPE svg PUBLIC "-//W3C//DTD SVG 1.1//EN"
 "http://www.w3.org/Graphics/SVG/1.1/DTD/svg11.dtd">
<!-- Generated by graphviz version 2.38.0 (20140413.2041)
 -->
<!-- Title: plazza::ConnectorPipe::setMode Pages: 1 -->
<svg width="1088pt" height="152pt"
 viewBox="0.00 0.00 1088.00 152.00" xmlns="http://www.w3.org/2000/svg" xmlns:xlink="http://www.w3.org/1999/xlink">
<g id="graph0" class="graph" transform="scale(1 1) rotate(0) translate(4 148)">
<title>plazza::ConnectorPipe::setMode</title>
<!-- Node1 -->
<g id="node1" class="node"><title>Node1</title>
<polygon fill="#bfbfbf" stroke="black" points="0,-91.5 0,-121.5 116,-121.5 116,-91.5 0,-91.5"/>
<text text-anchor="start" x="8" y="-109.5" font-family="Helvetica,sans-Serif" font-size="10.00">plazza::ConnectorPipe</text>
<text text-anchor="middle" x="58" y="-98.5" font-family="Helvetica,sans-Serif" font-size="10.00">::setMode</text>
</g>
<!-- Node2 -->
<g id="node2" class="node"><title>Node2</title>
<g id="a_node2"><a xlink:href="classplazza_1_1_connector_pipe.html#a988af6e52af009b779739b0fc571fc07" target="_top" xlink:title="plazza::ConnectorPipe\l::connect">
<polygon fill="none" stroke="black" points="152,-69.5 152,-99.5 268,-99.5 268,-69.5 152,-69.5"/>
<text text-anchor="start" x="160" y="-87.5" font-family="Helvetica,sans-Serif" font-size="10.00">plazza::ConnectorPipe</text>
<text text-anchor="middle" x="210" y="-76.5" font-family="Helvetica,sans-Serif" font-size="10.00">::connect</text>
</a>
</g>
</g>
<!-- Node1&#45;&gt;Node2 -->
<g id="edge1" class="edge"><title>Node1&#45;&gt;Node2</title>
<path fill="none" stroke="midnightblue" d="M126.033,-96.6685C134.54,-95.4207 143.186,-94.1527 151.525,-92.9296"/>
<polygon fill="midnightblue" stroke="midnightblue" points="125.523,-93.2058 116.136,-98.12 126.539,-100.132 125.523,-93.2058"/>
</g>
<!-- Node3 -->
<g id="node3" class="node"><title>Node3</title>
<g id="a_node3"><a xlink:href="classplazza_1_1_connector_pipe.html#aa37f2c5398dcbc14b774e763855eff2c" target="_top" xlink:title="plazza::ConnectorPipe\l::setMode">
<polygon fill="none" stroke="black" points="304,-113.5 304,-143.5 420,-143.5 420,-113.5 304,-113.5"/>
<text text-anchor="start" x="312" y="-131.5" font-family="Helvetica,sans-Serif" font-size="10.00">plazza::ConnectorPipe</text>
<text text-anchor="middle" x="362" y="-120.5" font-family="Helvetica,sans-Serif" font-size="10.00">::setMode</text>
</a>
</g>
</g>
<!-- Node1&#45;&gt;Node3 -->
<g id="edge12" class="edge"><title>Node1&#45;&gt;Node3</title>
<path fill="none" stroke="midnightblue" d="M126.205,-111.396C179.541,-115.281 253.288,-120.653 303.819,-124.334"/>
<polygon fill="midnightblue" stroke="midnightblue" points="126.387,-107.9 116.159,-110.664 125.878,-114.881 126.387,-107.9"/>
</g>
<!-- Node2&#45;&gt;Node3 -->
<g id="edge2" class="edge"><title>Node2&#45;&gt;Node3</title>
<path fill="none" stroke="midnightblue" d="M272.093,-102.421C284.605,-106.091 297.652,-109.918 309.774,-113.474"/>
<polygon fill="midnightblue" stroke="midnightblue" points="272.783,-98.9756 262.202,-99.5192 270.812,-105.693 272.783,-98.9756"/>
</g>
<!-- Node4 -->
<g id="node4" class="node"><title>Node4</title>
<g id="a_node4"><a xlink:href="classplazza_1_1_office.html#a611c1821b8f7dfc4d6e4a4211714e2c7" target="_top" xlink:title="init the Office ">
<polygon fill="none" stroke="black" points="314,-75 314,-94 410,-94 410,-75 314,-75"/>
<text text-anchor="middle" x="362" y="-82" font-family="Helvetica,sans-Serif" font-size="10.00">plazza::Office::init</text>
</a>
</g>
</g>
<!-- Node2&#45;&gt;Node4 -->
<g id="edge3" class="edge"><title>Node2&#45;&gt;Node4</title>
<path fill="none" stroke="midnightblue" d="M278.144,-84.5C290.167,-84.5 302.462,-84.5 313.775,-84.5"/>
<polygon fill="midnightblue" stroke="midnightblue" points="278.137,-81.0001 268.136,-84.5 278.136,-88.0001 278.137,-81.0001"/>
</g>
<!-- Node10 -->
<g id="node10" class="node"><title>Node10</title>
<g id="a_node10"><a xlink:href="classplazza_1_1_reception.html#a7c23a1b9bc8832a06c25f8075f91dcaf" target="_top" xlink:title="Class constructor. ">
<polygon fill="none" stroke="black" points="311.5,-25.5 311.5,-55.5 412.5,-55.5 412.5,-25.5 311.5,-25.5"/>
<text text-anchor="start" x="319.5" y="-43.5" font-family="Helvetica,sans-Serif" font-size="10.00">plazza::Reception::</text>
<text text-anchor="middle" x="362" y="-32.5" font-family="Helvetica,sans-Serif" font-size="10.00">Reception</text>
</a>
</g>
</g>
<!-- Node2&#45;&gt;Node10 -->
<g id="edge9" class="edge"><title>Node2&#45;&gt;Node10</title>
<path fill="none" stroke="midnightblue" d="M272.042,-66.5943C285.095,-62.7655 298.733,-58.7651 311.297,-55.0795"/>
<polygon fill="midnightblue" stroke="midnightblue" points="270.812,-63.3075 262.202,-69.4808 272.783,-70.0244 270.812,-63.3075"/>
</g>
<!-- Node11 -->
<g id="node11" class="node"><title>Node11</title>
<g id="a_node11"><a xlink:href="classplazza_1_1_reception.html#a7389b5af68c57d0547f3ba41278c2002" target="_top" xlink:title="Send a task. ">
<polygon fill="none" stroke="black" points="468,-0.5 468,-30.5 569,-30.5 569,-0.5 468,-0.5"/>
<text text-anchor="start" x="476" y="-18.5" font-family="Helvetica,sans-Serif" font-size="10.00">plazza::Reception::</text>
<text text-anchor="middle" x="518.5" y="-7.5" font-family="Helvetica,sans-Serif" font-size="10.00">sendTask</text>
</a>
</g>
</g>
<!-- Node2&#45;&gt;Node11 -->
<g id="edge10" class="edge"><title>Node2&#45;&gt;Node11</title>
<path fill="none" stroke="midnightblue" d="M232.431,-62.2248C249.913,-45.767 276.189,-24.6902 304,-15.5 357.847,2.29413 423.591,-1.18128 467.777,-6.85843"/>
<polygon fill="midnightblue" stroke="midnightblue" points="229.777,-59.9234 225.044,-69.4022 234.655,-64.944 229.777,-59.9234"/>
</g>
<!-- Node5 -->
<g id="node5" class="node"><title>Node5</title>
<g id="a_node5"><a xlink:href="classplazza_1_1_process_manager.html#aaf7eabb8ae524f2faa9b152aa178a30b" target="_top" xlink:title="create an Office ">
<polygon fill="none" stroke="black" points="456,-59.5 456,-89.5 581,-89.5 581,-59.5 456,-59.5"/>
<text text-anchor="start" x="464" y="-77.5" font-family="Helvetica,sans-Serif" font-size="10.00">plazza::ProcessManager</text>
<text text-anchor="middle" x="518.5" y="-66.5" font-family="Helvetica,sans-Serif" font-size="10.00">::spawn</text>
</a>
</g>
</g>
<!-- Node4&#45;&gt;Node5 -->
<g id="edge4" class="edge"><title>Node4&#45;&gt;Node5</title>
<path fill="none" stroke="midnightblue" d="M420.19,-80.7984C431.788,-80.0477 444.033,-79.2552 455.778,-78.4949"/>
<polygon fill="midnightblue" stroke="midnightblue" points="419.948,-77.3067 410.195,-81.4453 420.4,-84.292 419.948,-77.3067"/>
</g>
<!-- Node6 -->
<g id="node6" class="node"><title>Node6</title>
<g id="a_node6"><a xlink:href="classplazza_1_1_reception.html#a7e1b50160865f662607dcddcbd9434f9" target="_top" xlink:title="Create an office. ">
<polygon fill="none" stroke="black" points="617,-55.5 617,-85.5 718,-85.5 718,-55.5 617,-55.5"/>
<text text-anchor="start" x="625" y="-73.5" font-family="Helvetica,sans-Serif" font-size="10.00">plazza::Reception::</text>
<text text-anchor="middle" x="667.5" y="-62.5" font-family="Helvetica,sans-Serif" font-size="10.00">createOffice</text>
</a>
</g>
</g>
<!-- Node5&#45;&gt;Node6 -->
<g id="edge5" class="edge"><title>Node5&#45;&gt;Node6</title>
<path fill="none" stroke="midnightblue" d="M591.415,-72.5431C599.968,-72.3104 608.549,-72.0769 616.696,-71.8552"/>
<polygon fill="midnightblue" stroke="midnightblue" points="591.316,-69.0444 581.415,-72.8152 591.507,-76.0418 591.316,-69.0444"/>
</g>
<!-- Node7 -->
<g id="node7" class="node"><title>Node7</title>
<g id="a_node7"><a xlink:href="classplazza_1_1_reception.html#a7aa64f05388780e369663cd6800578ae" target="_top" xlink:title="Assign a task to the queue. ">
<polygon fill="none" stroke="black" points="754,-31.5 754,-61.5 855,-61.5 855,-31.5 754,-31.5"/>
<text text-anchor="start" x="762" y="-49.5" font-family="Helvetica,sans-Serif" font-size="10.00">plazza::Reception::</text>
<text text-anchor="middle" x="804.5" y="-38.5" font-family="Helvetica,sans-Serif" font-size="10.00">assignTask</text>
</a>
</g>
</g>
<!-- Node6&#45;&gt;Node7 -->
<g id="edge6" class="edge"><title>Node6&#45;&gt;Node7</title>
<path fill="none" stroke="midnightblue" d="M727.928,-59.935C736.481,-58.4146 745.208,-56.863 753.552,-55.3797"/>
<polygon fill="midnightblue" stroke="midnightblue" points="727.235,-56.5032 718.002,-61.6996 728.461,-63.3951 727.235,-56.5032"/>
</g>
<!-- Node8 -->
<g id="node8" class="node"><title>Node8</title>
<g id="a_node8"><a xlink:href="classplazza_1_1_reception.html#add69bb3defc0d810a8f4fe2cdceacbb1" target="_top" xlink:title="run the office ">
<polygon fill="none" stroke="black" points="891,-37 891,-56 1006,-56 1006,-37 891,-37"/>
<text text-anchor="middle" x="948.5" y="-44" font-family="Helvetica,sans-Serif" font-size="10.00">plazza::Reception::run</text>
</a>
</g>
</g>
<!-- Node7&#45;&gt;Node8 -->
<g id="edge7" class="edge"><title>Node7&#45;&gt;Node8</title>
<path fill="none" stroke="midnightblue" d="M865.326,-46.5C873.771,-46.5 882.433,-46.5 890.817,-46.5"/>
<polygon fill="midnightblue" stroke="midnightblue" points="865.165,-43.0001 855.165,-46.5 865.165,-50.0001 865.165,-43.0001"/>
</g>
<!-- Node9 -->
<g id="node9" class="node"><title>Node9</title>
<g id="a_node9"><a xlink:href="gui_2sources_2main_8cpp.html#adacbe0175a79dff748855d8c9839f82b" target="_top" xlink:title="main">
<polygon fill="none" stroke="black" points="1042,-37 1042,-56 1080,-56 1080,-37 1042,-37"/>
<text text-anchor="middle" x="1061" y="-44" font-family="Helvetica,sans-Serif" font-size="10.00">main</text>
</a>
</g>
</g>
<!-- Node8&#45;&gt;Node9 -->
<g id="edge8" class="edge"><title>Node8&#45;&gt;Node9</title>
<path fill="none" stroke="midnightblue" d="M1016.3,-46.5C1025.63,-46.5 1034.5,-46.5 1041.78,-46.5"/>
<polygon fill="midnightblue" stroke="midnightblue" points="1016.04,-43.0001 1006.04,-46.5 1016.04,-50.0001 1016.04,-43.0001"/>
</g>
<!-- Node11&#45;&gt;Node7 -->
<g id="edge11" class="edge"><title>Node11&#45;&gt;Node7</title>
<path fill="none" stroke="midnightblue" d="M579.343,-22.0321C631.138,-27.6858 705.164,-35.7661 753.763,-41.071"/>
<polygon fill="midnightblue" stroke="midnightblue" points="579.615,-18.5411 569.294,-20.9353 578.855,-25.4998 579.615,-18.5411"/>
</g>
</g>
</svg>
