<?xml version="1.0" encoding="UTF-8" standalone="no"?>
<!DOCTYPE svg PUBLIC "-//W3C//DTD SVG 1.1//EN"
 "http://www.w3.org/Graphics/SVG/1.1/DTD/svg11.dtd">
<!-- Generated by graphviz version 2.38.0 (20140413.2041)
 -->
<!-- Title: plazza::CaesarCypher Pages: 1 -->
<svg width="122pt" height="380pt"
 viewBox="0.00 0.00 122.00 380.00" xmlns="http://www.w3.org/2000/svg" xmlns:xlink="http://www.w3.org/1999/xlink">
<g id="graph0" class="graph" transform="scale(1 1) rotate(0) translate(4 376)">
<title>plazza::CaesarCypher</title>
<!-- Node1 -->
<g id="node1" class="node"><title>Node1</title>
<polygon fill="#bfbfbf" stroke="black" points="0,-0.5 0,-178.5 114,-178.5 114,-0.5 0,-0.5"/>
<text text-anchor="middle" x="57" y="-166.5" font-family="Helvetica,sans-Serif" font-size="10.00">plazza::CaesarCypher</text>
<polyline fill="none" stroke="black" points="0,-159.5 114,-159.5 "/>
<text text-anchor="middle" x="57" y="-147.5" font-family="Helvetica,sans-Serif" font-size="10.00"> </text>
<polyline fill="none" stroke="black" points="0,-140.5 114,-140.5 "/>
<text text-anchor="start" x="8" y="-128.5" font-family="Helvetica,sans-Serif" font-size="10.00">+ CaesarCypher()</text>
<text text-anchor="start" x="8" y="-117.5" font-family="Helvetica,sans-Serif" font-size="10.00">+ ~CaesarCypher()</text>
<text text-anchor="start" x="8" y="-106.5" font-family="Helvetica,sans-Serif" font-size="10.00">+ encrypt()</text>
<text text-anchor="start" x="8" y="-95.5" font-family="Helvetica,sans-Serif" font-size="10.00">+ decrypt()</text>
<text text-anchor="start" x="8" y="-84.5" font-family="Helvetica,sans-Serif" font-size="10.00">+ getMoved()</text>
<text text-anchor="start" x="8" y="-73.5" font-family="Helvetica,sans-Serif" font-size="10.00">+ setMoved()</text>
<text text-anchor="start" x="8" y="-62.5" font-family="Helvetica,sans-Serif" font-size="10.00">+ CaesarCypher()</text>
<text text-anchor="start" x="8" y="-51.5" font-family="Helvetica,sans-Serif" font-size="10.00">+ ~CaesarCypher()</text>
<text text-anchor="start" x="8" y="-40.5" font-family="Helvetica,sans-Serif" font-size="10.00">+ encrypt()</text>
<text text-anchor="start" x="8" y="-29.5" font-family="Helvetica,sans-Serif" font-size="10.00">+ decrypt()</text>
<text text-anchor="start" x="8" y="-18.5" font-family="Helvetica,sans-Serif" font-size="10.00">+ getMoved()</text>
<text text-anchor="start" x="8" y="-7.5" font-family="Helvetica,sans-Serif" font-size="10.00">+ setMoved()</text>
</g>
<!-- Node2 -->
<g id="node2" class="node"><title>Node2</title>
<g id="a_node2"><a xlink:href="classplazza_1_1_a_cypher.html" target="_top" xlink:title="Abstract class for cyphering. ">
<polygon fill="none" stroke="black" points="12.5,-215.5 12.5,-371.5 101.5,-371.5 101.5,-215.5 12.5,-215.5"/>
<text text-anchor="middle" x="57" y="-359.5" font-family="Helvetica,sans-Serif" font-size="10.00">plazza::ACypher</text>
<polyline fill="none" stroke="black" points="12.5,-352.5 101.5,-352.5 "/>
<text text-anchor="middle" x="57" y="-340.5" font-family="Helvetica,sans-Serif" font-size="10.00"> </text>
<polyline fill="none" stroke="black" points="12.5,-333.5 101.5,-333.5 "/>
<text text-anchor="start" x="20.5" y="-321.5" font-family="Helvetica,sans-Serif" font-size="10.00">+ ~ACypher()</text>
<text text-anchor="start" x="20.5" y="-310.5" font-family="Helvetica,sans-Serif" font-size="10.00">+ encrypt()</text>
<text text-anchor="start" x="20.5" y="-299.5" font-family="Helvetica,sans-Serif" font-size="10.00">+ decrypt()</text>
<text text-anchor="start" x="20.5" y="-288.5" font-family="Helvetica,sans-Serif" font-size="10.00">+ operator&lt;&lt;()</text>
<text text-anchor="start" x="20.5" y="-277.5" font-family="Helvetica,sans-Serif" font-size="10.00">+ operator&gt;&gt;()</text>
<text text-anchor="start" x="20.5" y="-266.5" font-family="Helvetica,sans-Serif" font-size="10.00">+ ~ACypher()</text>
<text text-anchor="start" x="20.5" y="-255.5" font-family="Helvetica,sans-Serif" font-size="10.00">+ encrypt()</text>
<text text-anchor="start" x="20.5" y="-244.5" font-family="Helvetica,sans-Serif" font-size="10.00">+ decrypt()</text>
<text text-anchor="start" x="20.5" y="-233.5" font-family="Helvetica,sans-Serif" font-size="10.00">+ operator&lt;&lt;()</text>
<text text-anchor="start" x="20.5" y="-222.5" font-family="Helvetica,sans-Serif" font-size="10.00">+ operator&gt;&gt;()</text>
</a>
</g>
</g>
<!-- Node2&#45;&gt;Node1 -->
<g id="edge1" class="edge"><title>Node2&#45;&gt;Node1</title>
<path fill="none" stroke="midnightblue" d="M50.3048,-205.117C50.2343,-196.403 50.2318,-187.551 50.2975,-178.828"/>
<polygon fill="none" stroke="midnightblue" points="46.8067,-205.308 50.4189,-215.268 53.8062,-205.229 46.8067,-205.308"/>
</g>
<!-- Node2&#45;&gt;Node1 -->
<g id="edge2" class="edge"><title>Node2&#45;&gt;Node1</title>
<path fill="none" stroke="midnightblue" d="M63.6952,-205.117C63.7657,-196.403 63.7682,-187.551 63.7025,-178.828"/>
<polygon fill="none" stroke="midnightblue" points="60.1938,-205.229 63.5811,-215.268 67.1933,-205.308 60.1938,-205.229"/>
</g>
</g>
</svg>
