<?xml version="1.0" encoding="UTF-8" standalone="no"?>
<!DOCTYPE svg PUBLIC "-//W3C//DTD SVG 1.1//EN"
 "http://www.w3.org/Graphics/SVG/1.1/DTD/svg11.dtd">
<!-- Generated by graphviz version 2.38.0 (20140413.2041)
 -->
<!-- Title: plazza::Error Pages: 1 -->
<svg width="164pt" height="342pt"
 viewBox="0.00 0.00 163.50 342.00" xmlns="http://www.w3.org/2000/svg" xmlns:xlink="http://www.w3.org/1999/xlink">
<g id="graph0" class="graph" transform="scale(1 1) rotate(0) translate(4 338)">
<title>plazza::Error</title>
<!-- Node1 -->
<g id="node1" class="node"><title>Node1</title>
<polygon fill="#bfbfbf" stroke="black" points="46,-127.5 46,-239.5 118,-239.5 118,-127.5 46,-127.5"/>
<text text-anchor="middle" x="82" y="-227.5" font-family="Helvetica,sans-Serif" font-size="10.00">plazza::Error</text>
<polyline fill="none" stroke="black" points="46,-220.5 118,-220.5 "/>
<text text-anchor="middle" x="82" y="-208.5" font-family="Helvetica,sans-Serif" font-size="10.00"> </text>
<polyline fill="none" stroke="black" points="46,-201.5 118,-201.5 "/>
<text text-anchor="start" x="54" y="-189.5" font-family="Helvetica,sans-Serif" font-size="10.00">+ Error()</text>
<text text-anchor="start" x="54" y="-178.5" font-family="Helvetica,sans-Serif" font-size="10.00">+ ~Error()</text>
<text text-anchor="start" x="54" y="-167.5" font-family="Helvetica,sans-Serif" font-size="10.00">+ what()</text>
<text text-anchor="start" x="54" y="-156.5" font-family="Helvetica,sans-Serif" font-size="10.00">+ Error()</text>
<text text-anchor="start" x="54" y="-145.5" font-family="Helvetica,sans-Serif" font-size="10.00">+ ~Error()</text>
<text text-anchor="start" x="54" y="-134.5" font-family="Helvetica,sans-Serif" font-size="10.00">+ what()</text>
</g>
<!-- Node4 -->
<g id="node4" class="node"><title>Node4</title>
<g id="a_node4"><a xlink:href="classplazza_1_1_command_error.html" target="_top" xlink:title="Error Class used for Command. ">
<polygon fill="none" stroke="black" points="23.5,-0.5 23.5,-90.5 140.5,-90.5 140.5,-0.5 23.5,-0.5"/>
<text text-anchor="middle" x="82" y="-78.5" font-family="Helvetica,sans-Serif" font-size="10.00">plazza::CommandError</text>
<polyline fill="none" stroke="black" points="23.5,-71.5 140.5,-71.5 "/>
<text text-anchor="middle" x="82" y="-59.5" font-family="Helvetica,sans-Serif" font-size="10.00"> </text>
<polyline fill="none" stroke="black" points="23.5,-52.5 140.5,-52.5 "/>
<text text-anchor="start" x="31.5" y="-40.5" font-family="Helvetica,sans-Serif" font-size="10.00">+ CommandError()</text>
<text text-anchor="start" x="31.5" y="-29.5" font-family="Helvetica,sans-Serif" font-size="10.00">+ ~CommandError()</text>
<text text-anchor="start" x="31.5" y="-18.5" font-family="Helvetica,sans-Serif" font-size="10.00">+ CommandError()</text>
<text text-anchor="start" x="31.5" y="-7.5" font-family="Helvetica,sans-Serif" font-size="10.00">+ ~CommandError()</text>
</a>
</g>
</g>
<!-- Node1&#45;&gt;Node4 -->
<g id="edge3" class="edge"><title>Node1&#45;&gt;Node4</title>
<path fill="none" stroke="midnightblue" d="M75.2543,-117.076C75.2242,-108.072 75.3521,-99.0069 75.638,-90.5144"/>
<polygon fill="none" stroke="midnightblue" points="71.7555,-117.219 75.3555,-127.184 78.7551,-117.149 71.7555,-117.219"/>
</g>
<!-- Node1&#45;&gt;Node4 -->
<g id="edge4" class="edge"><title>Node1&#45;&gt;Node4</title>
<path fill="none" stroke="midnightblue" d="M88.7457,-117.076C88.7758,-108.072 88.6479,-99.0069 88.362,-90.5144"/>
<polygon fill="none" stroke="midnightblue" points="85.2449,-117.149 88.6445,-127.184 92.2445,-117.219 85.2449,-117.149"/>
</g>
<!-- Node2 -->
<g id="node2" class="node"><title>Node2</title>
<polygon fill="none" stroke="#bfbfbf" points="0,-276.5 0,-333.5 78,-333.5 78,-276.5 0,-276.5"/>
<text text-anchor="middle" x="39" y="-321.5" font-family="Helvetica,sans-Serif" font-size="10.00">std::exception</text>
<polyline fill="none" stroke="#bfbfbf" points="0,-314.5 78,-314.5 "/>
<text text-anchor="middle" x="39" y="-302.5" font-family="Helvetica,sans-Serif" font-size="10.00"> </text>
<polyline fill="none" stroke="#bfbfbf" points="0,-295.5 78,-295.5 "/>
<text text-anchor="middle" x="39" y="-283.5" font-family="Helvetica,sans-Serif" font-size="10.00"> </text>
</g>
<!-- Node2&#45;&gt;Node1 -->
<g id="edge1" class="edge"><title>Node2&#45;&gt;Node1</title>
<path fill="none" stroke="midnightblue" d="M52.4346,-266.664C55.4988,-258.149 58.8186,-248.923 62.0892,-239.834"/>
<polygon fill="none" stroke="midnightblue" points="49.0657,-265.69 48.9731,-276.284 55.6523,-268.06 49.0657,-265.69"/>
</g>
<!-- Node3 -->
<g id="node3" class="node"><title>Node3</title>
<polygon fill="none" stroke="#bfbfbf" points="96.5,-276.5 96.5,-333.5 155.5,-333.5 155.5,-276.5 96.5,-276.5"/>
<text text-anchor="middle" x="126" y="-321.5" font-family="Helvetica,sans-Serif" font-size="10.00">exception</text>
<polyline fill="none" stroke="#bfbfbf" points="96.5,-314.5 155.5,-314.5 "/>
<text text-anchor="middle" x="126" y="-302.5" font-family="Helvetica,sans-Serif" font-size="10.00"> </text>
<polyline fill="none" stroke="#bfbfbf" points="96.5,-295.5 155.5,-295.5 "/>
<text text-anchor="middle" x="126" y="-283.5" font-family="Helvetica,sans-Serif" font-size="10.00"> </text>
</g>
<!-- Node3&#45;&gt;Node1 -->
<g id="edge2" class="edge"><title>Node3&#45;&gt;Node1</title>
<path fill="none" stroke="midnightblue" d="M112.253,-266.664C109.118,-258.149 105.72,-248.923 102.374,-239.834"/>
<polygon fill="none" stroke="midnightblue" points="109.055,-268.109 115.795,-276.284 115.624,-265.69 109.055,-268.109"/>
</g>
</g>
</svg>
