<?xml version="1.0" encoding="UTF-8" standalone="no"?>
<!DOCTYPE svg PUBLIC "-//W3C//DTD SVG 1.1//EN"
 "http://www.w3.org/Graphics/SVG/1.1/DTD/svg11.dtd">
<!-- Generated by graphviz version 2.38.0 (20140413.2041)
 -->
<!-- Title: plazza::Worker::performJob Pages: 1 -->
<svg width="426pt" height="100pt"
 viewBox="0.00 0.00 426.00 99.50" xmlns="http://www.w3.org/2000/svg" xmlns:xlink="http://www.w3.org/1999/xlink">
<g id="graph0" class="graph" transform="scale(1 1) rotate(0) translate(4 95.5)">
<title>plazza::Worker::performJob</title>
<!-- Node1 -->
<g id="node1" class="node"><title>Node1</title>
<polygon fill="#bfbfbf" stroke="black" points="0,-28 0,-47 137,-47 137,-28 0,-28"/>
<text text-anchor="middle" x="68.5" y="-35" font-family="Helvetica,sans-Serif" font-size="10.00">plazza::Worker::performJob</text>
</g>
<!-- Node2 -->
<g id="node2" class="node"><title>Node2</title>
<g id="a_node2"><a xlink:href="classplazza_1_1_worker.html#aa7561bf24cd0a90230ddd99b43b18a11" target="_top" xlink:title="Start thread execution. ">
<polygon fill="none" stroke="black" points="173,-72 173,-91 281,-91 281,-72 173,-72"/>
<text text-anchor="middle" x="227" y="-79" font-family="Helvetica,sans-Serif" font-size="10.00">plazza::Worker::start</text>
</a>
</g>
</g>
<!-- Node1&#45;&gt;Node2 -->
<g id="edge1" class="edge"><title>Node1&#45;&gt;Node2</title>
<path fill="none" stroke="midnightblue" d="M113.395,-49.8412C138.322,-56.8493 169.051,-65.4888 192.108,-71.9713"/>
<polygon fill="midnightblue" stroke="midnightblue" points="114.032,-46.3846 103.458,-47.0473 112.138,-53.1233 114.032,-46.3846"/>
</g>
<!-- Node3 -->
<g id="node3" class="node"><title>Node3</title>
<g id="a_node3"><a xlink:href="classplazza_1_1_thread_pool.html#a85b5323591017ee418afb0fdc9e3d9a7" target="_top" xlink:title="Get the number of total workers. ">
<polygon fill="none" stroke="black" points="176.5,-22.5 176.5,-52.5 277.5,-52.5 277.5,-22.5 176.5,-22.5"/>
<text text-anchor="start" x="184.5" y="-40.5" font-family="Helvetica,sans-Serif" font-size="10.00">plazza::ThreadPool</text>
<text text-anchor="middle" x="227" y="-29.5" font-family="Helvetica,sans-Serif" font-size="10.00">::getNbWorkers</text>
</a>
</g>
</g>
<!-- Node1&#45;&gt;Node3 -->
<g id="edge2" class="edge"><title>Node1&#45;&gt;Node3</title>
<path fill="none" stroke="midnightblue" d="M147.382,-37.5C157.148,-37.5 166.921,-37.5 176.094,-37.5"/>
<polygon fill="midnightblue" stroke="midnightblue" points="147.233,-34.0001 137.233,-37.5 147.233,-41.0001 147.233,-34.0001"/>
</g>
<!-- Node4 -->
<g id="node4" class="node"><title>Node4</title>
<g id="a_node4"><a xlink:href="classplazza_1_1_thread_pool.html#ae3447aa58cee4c5206d194f144d207c3" target="_top" xlink:title="Class constructor. ">
<polygon fill="none" stroke="black" points="317,-0.5 317,-30.5 418,-30.5 418,-0.5 317,-0.5"/>
<text text-anchor="start" x="325" y="-18.5" font-family="Helvetica,sans-Serif" font-size="10.00">plazza::ThreadPool</text>
<text text-anchor="middle" x="367.5" y="-7.5" font-family="Helvetica,sans-Serif" font-size="10.00">::ThreadPool</text>
</a>
</g>
</g>
<!-- Node1&#45;&gt;Node4 -->
<g id="edge4" class="edge"><title>Node1&#45;&gt;Node4</title>
<path fill="none" stroke="midnightblue" d="M112.157,-25.3039C130.685,-20.6081 152.744,-15.8178 173,-13.5 220.689,-8.04325 233.003,-12.9387 281,-13.5 292.581,-13.6354 305.041,-13.874 316.771,-14.1403"/>
<polygon fill="midnightblue" stroke="midnightblue" points="111.052,-21.9748 102.26,-27.8866 112.82,-28.748 111.052,-21.9748"/>
</g>
<!-- Node3&#45;&gt;Node4 -->
<g id="edge3" class="edge"><title>Node3&#45;&gt;Node4</title>
<path fill="none" stroke="midnightblue" d="M287.615,-28.0304C297.338,-26.4861 307.318,-24.9007 316.77,-23.3993"/>
<polygon fill="midnightblue" stroke="midnightblue" points="286.938,-24.5941 277.61,-29.6196 288.036,-31.5074 286.938,-24.5941"/>
</g>
</g>
</svg>
