<?xml version="1.0" encoding="UTF-8" standalone="no"?>
<!DOCTYPE svg PUBLIC "-//W3C//DTD SVG 1.1//EN"
 "http://www.w3.org/Graphics/SVG/1.1/DTD/svg11.dtd">
<!-- Generated by graphviz version 2.38.0 (20140413.2041)
 -->
<!-- Title: plazza::XorCracker::run Pages: 1 -->
<svg width="277pt" height="88pt"
 viewBox="0.00 0.00 277.00 88.00" xmlns="http://www.w3.org/2000/svg" xmlns:xlink="http://www.w3.org/1999/xlink">
<g id="graph0" class="graph" transform="scale(1 1) rotate(0) translate(4 84)">
<title>plazza::XorCracker::run</title>
<!-- Node1 -->
<g id="node1" class="node"><title>Node1</title>
<polygon fill="#bfbfbf" stroke="black" points="0,-30 0,-49 120,-49 120,-30 0,-30"/>
<text text-anchor="middle" x="60" y="-37" font-family="Helvetica,sans-Serif" font-size="10.00">plazza::XorCracker::run</text>
</g>
<!-- Node2 -->
<g id="node2" class="node"><title>Node2</title>
<g id="a_node2"><a xlink:href="classplazza_1_1_xor_cracker.html#a39471c4bb769b0b20a3fdd34f5a77cec" target="_top" xlink:title="plazza::XorCracker\l::getMaxKeyLength">
<polygon fill="none" stroke="black" points="162,-49.5 162,-79.5 263,-79.5 263,-49.5 162,-49.5"/>
<text text-anchor="start" x="170" y="-67.5" font-family="Helvetica,sans-Serif" font-size="10.00">plazza::XorCracker</text>
<text text-anchor="middle" x="212.5" y="-56.5" font-family="Helvetica,sans-Serif" font-size="10.00">::getMaxKeyLength</text>
</a>
</g>
</g>
<!-- Node1&#45;&gt;Node2 -->
<g id="edge1" class="edge"><title>Node1&#45;&gt;Node2</title>
<path fill="none" stroke="midnightblue" d="M118.327,-49.0227C129.266,-50.8399 140.742,-52.7461 151.754,-54.5755"/>
<polygon fill="midnightblue" stroke="midnightblue" points="151.271,-58.043 161.709,-56.2291 152.418,-51.1376 151.271,-58.043"/>
</g>
<!-- Node3 -->
<g id="node3" class="node"><title>Node3</title>
<g id="a_node3"><a xlink:href="classplazza_1_1_xor_cracker.html#aa398a0cced229d03cf6a51c1b1ab8ba3" target="_top" xlink:title="plazza::XorCracker\l::setKnownKeyLength">
<polygon fill="none" stroke="black" points="156,-0.5 156,-30.5 269,-30.5 269,-0.5 156,-0.5"/>
<text text-anchor="start" x="164" y="-18.5" font-family="Helvetica,sans-Serif" font-size="10.00">plazza::XorCracker</text>
<text text-anchor="middle" x="212.5" y="-7.5" font-family="Helvetica,sans-Serif" font-size="10.00">::setKnownKeyLength</text>
</a>
</g>
</g>
<!-- Node1&#45;&gt;Node3 -->
<g id="edge2" class="edge"><title>Node1&#45;&gt;Node3</title>
<path fill="none" stroke="midnightblue" d="M120.05,-30.0834C128.455,-28.7431 137.142,-27.3577 145.667,-25.9983"/>
<polygon fill="midnightblue" stroke="midnightblue" points="146.247,-29.4501 155.571,-24.4189 145.145,-22.5374 146.247,-29.4501"/>
</g>
</g>
</svg>
