<?xml version="1.0" encoding="UTF-8" standalone="no"?>
<!DOCTYPE svg PUBLIC "-//W3C//DTD SVG 1.1//EN"
 "http://www.w3.org/Graphics/SVG/1.1/DTD/svg11.dtd">
<!-- Generated by graphviz version 2.38.0 (20140413.2041)
 -->
<!-- Title: plazza::Reception::~Reception Pages: 1 -->
<svg width="565pt" height="132pt"
 viewBox="0.00 0.00 565.00 132.00" xmlns="http://www.w3.org/2000/svg" xmlns:xlink="http://www.w3.org/1999/xlink">
<g id="graph0" class="graph" transform="scale(1 1) rotate(0) translate(4 128)">
<title>plazza::Reception::~Reception</title>
<!-- Node1 -->
<g id="node1" class="node"><title>Node1</title>
<polygon fill="#bfbfbf" stroke="black" points="0,-66.5 0,-96.5 101,-96.5 101,-66.5 0,-66.5"/>
<text text-anchor="start" x="8" y="-84.5" font-family="Helvetica,sans-Serif" font-size="10.00">plazza::Reception::</text>
<text text-anchor="middle" x="50.5" y="-73.5" font-family="Helvetica,sans-Serif" font-size="10.00">~Reception</text>
</g>
<!-- Node2 -->
<g id="node2" class="node"><title>Node2</title>
<g id="a_node2"><a xlink:href="classplazza_1_1_connector_pipe.html#a588544d4eebd85f8f05e43f826ea47bd" target="_top" xlink:title="plazza::ConnectorPipe\l::disconnect">
<polygon fill="none" stroke="black" points="289,-88.5 289,-118.5 405,-118.5 405,-88.5 289,-88.5"/>
<text text-anchor="start" x="297" y="-106.5" font-family="Helvetica,sans-Serif" font-size="10.00">plazza::ConnectorPipe</text>
<text text-anchor="middle" x="347" y="-95.5" font-family="Helvetica,sans-Serif" font-size="10.00">::disconnect</text>
</a>
</g>
</g>
<!-- Node1&#45;&gt;Node2 -->
<g id="edge1" class="edge"><title>Node1&#45;&gt;Node2</title>
<path fill="none" stroke="midnightblue" d="M101.125,-85.2071C149.866,-88.8482 224.581,-94.4297 278.664,-98.4698"/>
<polygon fill="midnightblue" stroke="midnightblue" points="278.618,-101.976 288.851,-99.2308 279.139,-94.9955 278.618,-101.976"/>
</g>
<!-- Node5 -->
<g id="node5" class="node"><title>Node5</title>
<g id="a_node5"><a xlink:href="classplazza_1_1_connector_pipe.html#ac6e124ff9380729df4e1491b3c365d95" target="_top" xlink:title="plazza::ConnectorPipe\l::destroy">
<polygon fill="none" stroke="black" points="137,-44.5 137,-74.5 253,-74.5 253,-44.5 137,-44.5"/>
<text text-anchor="start" x="145" y="-62.5" font-family="Helvetica,sans-Serif" font-size="10.00">plazza::ConnectorPipe</text>
<text text-anchor="middle" x="195" y="-51.5" font-family="Helvetica,sans-Serif" font-size="10.00">::destroy</text>
</a>
</g>
</g>
<!-- Node1&#45;&gt;Node5 -->
<g id="edge4" class="edge"><title>Node1&#45;&gt;Node5</title>
<path fill="none" stroke="midnightblue" d="M101.34,-73.8055C109.531,-72.5408 118.139,-71.2119 126.671,-69.8946"/>
<polygon fill="midnightblue" stroke="midnightblue" points="127.275,-73.343 136.624,-68.3581 126.207,-66.4249 127.275,-73.343"/>
</g>
<!-- Node3 -->
<g id="node3" class="node"><title>Node3</title>
<g id="a_node3"><a xlink:href="classplazza_1_1_connector_pipe.html#a81c0af2d4860745accb6ddf522180740" target="_top" xlink:title="plazza::ConnectorPipe\l::getFd">
<polygon fill="none" stroke="black" points="441,-44.5 441,-74.5 557,-74.5 557,-44.5 441,-44.5"/>
<text text-anchor="start" x="449" y="-62.5" font-family="Helvetica,sans-Serif" font-size="10.00">plazza::ConnectorPipe</text>
<text text-anchor="middle" x="499" y="-51.5" font-family="Helvetica,sans-Serif" font-size="10.00">::getFd</text>
</a>
</g>
</g>
<!-- Node2&#45;&gt;Node3 -->
<g id="edge2" class="edge"><title>Node2&#45;&gt;Node3</title>
<path fill="none" stroke="midnightblue" d="M399.202,-88.4808C411.323,-84.9252 424.37,-81.0982 436.882,-77.4279"/>
<polygon fill="midnightblue" stroke="midnightblue" points="438.164,-80.6995 446.774,-74.5262 436.193,-73.9825 438.164,-80.6995"/>
</g>
<!-- Node4 -->
<g id="node4" class="node"><title>Node4</title>
<g id="a_node4"><a xlink:href="classplazza_1_1_connector_pipe.html#a4609ad27d1a9847c051fc3be7638e656" target="_top" xlink:title="plazza::ConnectorPipe\l::setFd">
<polygon fill="none" stroke="black" points="441,-93.5 441,-123.5 557,-123.5 557,-93.5 441,-93.5"/>
<text text-anchor="start" x="449" y="-111.5" font-family="Helvetica,sans-Serif" font-size="10.00">plazza::ConnectorPipe</text>
<text text-anchor="middle" x="499" y="-100.5" font-family="Helvetica,sans-Serif" font-size="10.00">::setFd</text>
</a>
</g>
</g>
<!-- Node2&#45;&gt;Node4 -->
<g id="edge3" class="edge"><title>Node2&#45;&gt;Node4</title>
<path fill="none" stroke="midnightblue" d="M405.136,-105.405C413.377,-105.679 421.923,-105.964 430.344,-106.245"/>
<polygon fill="midnightblue" stroke="midnightblue" points="430.414,-109.749 440.525,-106.584 430.648,-102.753 430.414,-109.749"/>
</g>
<!-- Node5&#45;&gt;Node2 -->
<g id="edge6" class="edge"><title>Node5&#45;&gt;Node2</title>
<path fill="none" stroke="midnightblue" d="M247.202,-74.5192C259.323,-78.0748 272.37,-81.9018 284.882,-85.5721"/>
<polygon fill="midnightblue" stroke="midnightblue" points="284.193,-89.0175 294.774,-88.4738 286.164,-82.3005 284.193,-89.0175"/>
</g>
<!-- Node5&#45;&gt;Node3 -->
<g id="edge5" class="edge"><title>Node5&#45;&gt;Node3</title>
<path fill="none" stroke="midnightblue" d="M253.159,-59.5C303.683,-59.5 377.429,-59.5 430.771,-59.5"/>
<polygon fill="midnightblue" stroke="midnightblue" points="430.819,-63.0001 440.819,-59.5 430.818,-56.0001 430.819,-63.0001"/>
</g>
<!-- Node6 -->
<g id="node6" class="node"><title>Node6</title>
<g id="a_node6"><a xlink:href="classplazza_1_1_connector_pipe.html#acc3d09548d11f5e39ec5b53a2796e9df" target="_top" xlink:title="plazza::ConnectorPipe\l::getName">
<polygon fill="none" stroke="black" points="289,-0.5 289,-30.5 405,-30.5 405,-0.5 289,-0.5"/>
<text text-anchor="start" x="297" y="-18.5" font-family="Helvetica,sans-Serif" font-size="10.00">plazza::ConnectorPipe</text>
<text text-anchor="middle" x="347" y="-7.5" font-family="Helvetica,sans-Serif" font-size="10.00">::getName</text>
</a>
</g>
</g>
<!-- Node5&#45;&gt;Node6 -->
<g id="edge7" class="edge"><title>Node5&#45;&gt;Node6</title>
<path fill="none" stroke="midnightblue" d="M247.202,-44.4808C259.323,-40.9252 272.37,-37.0982 284.882,-33.4279"/>
<polygon fill="midnightblue" stroke="midnightblue" points="286.164,-36.6995 294.774,-30.5262 284.193,-29.9825 286.164,-36.6995"/>
</g>
</g>
</svg>
