<?xml version="1.0" encoding="UTF-8" standalone="no"?>
<!DOCTYPE svg PUBLIC "-//W3C//DTD SVG 1.1//EN"
 "http://www.w3.org/Graphics/SVG/1.1/DTD/svg11.dtd">
<!-- Generated by graphviz version 2.38.0 (20140413.2041)
 -->
<!-- Title: plazza::Office::getTask Pages: 1 -->
<svg width="956pt" height="266pt"
 viewBox="0.00 0.00 956.00 266.00" xmlns="http://www.w3.org/2000/svg" xmlns:xlink="http://www.w3.org/1999/xlink">
<g id="graph0" class="graph" transform="scale(1 1) rotate(0) translate(4 262)">
<title>plazza::Office::getTask</title>
<!-- Node1 -->
<g id="node1" class="node"><title>Node1</title>
<polygon fill="#bfbfbf" stroke="black" points="0,-135 0,-154 119,-154 119,-135 0,-135"/>
<text text-anchor="middle" x="59.5" y="-142" font-family="Helvetica,sans-Serif" font-size="10.00">plazza::Office::getTask</text>
</g>
<!-- Node2 -->
<g id="node2" class="node"><title>Node2</title>
<g id="a_node2"><a xlink:href="classplazza_1_1_connector_pipe.html#a6a5aa2b09b3f85badda3ff5161e86f74" target="_top" xlink:title="plazza::ConnectorPipe\l::transfertData">
<polygon fill="none" stroke="black" points="517,-178.5 517,-208.5 633,-208.5 633,-178.5 517,-178.5"/>
<text text-anchor="start" x="525" y="-196.5" font-family="Helvetica,sans-Serif" font-size="10.00">plazza::ConnectorPipe</text>
<text text-anchor="middle" x="575" y="-185.5" font-family="Helvetica,sans-Serif" font-size="10.00">::transfertData</text>
</a>
</g>
</g>
<!-- Node1&#45;&gt;Node2 -->
<g id="edge1" class="edge"><title>Node1&#45;&gt;Node2</title>
<path fill="none" stroke="midnightblue" d="M119.405,-150.121C215.551,-159.295 405.614,-177.432 506.849,-187.092"/>
<polygon fill="midnightblue" stroke="midnightblue" points="506.67,-190.591 516.957,-188.057 507.335,-183.623 506.67,-190.591"/>
</g>
<!-- Node7 -->
<g id="node7" class="node"><title>Node7</title>
<g id="a_node7"><a xlink:href="classplazza_1_1_office.html#af53d889fe196fec1a3dcd1d738977048" target="_top" xlink:title="plazza::Office::assignTask">
<polygon fill="none" stroke="black" points="155,-92 155,-111 289,-111 289,-92 155,-92"/>
<text text-anchor="middle" x="222" y="-99" font-family="Helvetica,sans-Serif" font-size="10.00">plazza::Office::assignTask</text>
</a>
</g>
</g>
<!-- Node1&#45;&gt;Node7 -->
<g id="edge7" class="edge"><title>Node1&#45;&gt;Node7</title>
<path fill="none" stroke="midnightblue" d="M96.1202,-134.957C119.601,-128.666 150.556,-120.373 175.772,-113.617"/>
<polygon fill="midnightblue" stroke="midnightblue" points="176.726,-116.985 185.479,-111.016 174.914,-110.224 176.726,-116.985"/>
</g>
<!-- Node3 -->
<g id="node3" class="node"><title>Node3</title>
<g id="a_node3"><a xlink:href="classplazza_1_1_connector_pipe.html#ac96ba32f2efbdaa1b0371ea98532b40b" target="_top" xlink:title="plazza::ConnectorPipe\l::getMode">
<polygon fill="none" stroke="black" points="680,-227.5 680,-257.5 796,-257.5 796,-227.5 680,-227.5"/>
<text text-anchor="start" x="688" y="-245.5" font-family="Helvetica,sans-Serif" font-size="10.00">plazza::ConnectorPipe</text>
<text text-anchor="middle" x="738" y="-234.5" font-family="Helvetica,sans-Serif" font-size="10.00">::getMode</text>
</a>
</g>
</g>
<!-- Node2&#45;&gt;Node3 -->
<g id="edge2" class="edge"><title>Node2&#45;&gt;Node3</title>
<path fill="none" stroke="midnightblue" d="M625.619,-208.601C642.07,-213.608 660.549,-219.232 677.657,-224.439"/>
<polygon fill="midnightblue" stroke="midnightblue" points="676.959,-227.885 687.545,-227.448 678.997,-221.188 676.959,-227.885"/>
</g>
<!-- Node4 -->
<g id="node4" class="node"><title>Node4</title>
<g id="a_node4"><a xlink:href="classplazza_1_1_connector_pipe.html#a7570f6cfb8520505247db4727d45bed1" target="_top" xlink:title="plazza::ConnectorPipe\l::receiveData">
<polygon fill="none" stroke="black" points="680,-178.5 680,-208.5 796,-208.5 796,-178.5 680,-178.5"/>
<text text-anchor="start" x="688" y="-196.5" font-family="Helvetica,sans-Serif" font-size="10.00">plazza::ConnectorPipe</text>
<text text-anchor="middle" x="738" y="-185.5" font-family="Helvetica,sans-Serif" font-size="10.00">::receiveData</text>
</a>
</g>
</g>
<!-- Node2&#45;&gt;Node4 -->
<g id="edge3" class="edge"><title>Node2&#45;&gt;Node4</title>
<path fill="none" stroke="midnightblue" d="M633.216,-193.5C645.079,-193.5 657.68,-193.5 669.86,-193.5"/>
<polygon fill="midnightblue" stroke="midnightblue" points="669.968,-197 679.968,-193.5 669.968,-190 669.968,-197"/>
</g>
<!-- Node6 -->
<g id="node6" class="node"><title>Node6</title>
<g id="a_node6"><a xlink:href="classplazza_1_1_connector_pipe.html#ad8062cefc673b98824dff56b5534a056" target="_top" xlink:title="plazza::ConnectorPipe\l::sendData">
<polygon fill="none" stroke="black" points="680,-129.5 680,-159.5 796,-159.5 796,-129.5 680,-129.5"/>
<text text-anchor="start" x="688" y="-147.5" font-family="Helvetica,sans-Serif" font-size="10.00">plazza::ConnectorPipe</text>
<text text-anchor="middle" x="738" y="-136.5" font-family="Helvetica,sans-Serif" font-size="10.00">::sendData</text>
</a>
</g>
</g>
<!-- Node2&#45;&gt;Node6 -->
<g id="edge5" class="edge"><title>Node2&#45;&gt;Node6</title>
<path fill="none" stroke="midnightblue" d="M625.619,-178.399C642.07,-173.392 660.549,-167.768 677.657,-162.561"/>
<polygon fill="midnightblue" stroke="midnightblue" points="678.997,-165.812 687.545,-159.552 676.959,-159.115 678.997,-165.812"/>
</g>
<!-- Node5 -->
<g id="node5" class="node"><title>Node5</title>
<g id="a_node5"><a xlink:href="classplazza_1_1_connector_pipe.html#a81c0af2d4860745accb6ddf522180740" target="_top" xlink:title="plazza::ConnectorPipe\l::getFd">
<polygon fill="none" stroke="black" points="832,-153.5 832,-183.5 948,-183.5 948,-153.5 832,-153.5"/>
<text text-anchor="start" x="840" y="-171.5" font-family="Helvetica,sans-Serif" font-size="10.00">plazza::ConnectorPipe</text>
<text text-anchor="middle" x="890" y="-160.5" font-family="Helvetica,sans-Serif" font-size="10.00">::getFd</text>
</a>
</g>
</g>
<!-- Node4&#45;&gt;Node5 -->
<g id="edge4" class="edge"><title>Node4&#45;&gt;Node5</title>
<path fill="none" stroke="midnightblue" d="M796.136,-183.977C804.468,-182.589 813.111,-181.148 821.622,-179.73"/>
<polygon fill="midnightblue" stroke="midnightblue" points="822.237,-183.176 831.525,-178.079 821.086,-176.271 822.237,-183.176"/>
</g>
<!-- Node6&#45;&gt;Node5 -->
<g id="edge6" class="edge"><title>Node6&#45;&gt;Node5</title>
<path fill="none" stroke="midnightblue" d="M796.136,-153.642C804.468,-154.975 813.111,-156.358 821.622,-157.719"/>
<polygon fill="midnightblue" stroke="midnightblue" points="821.098,-161.18 831.525,-159.304 822.204,-154.268 821.098,-161.18"/>
</g>
<!-- Node8 -->
<g id="node8" class="node"><title>Node8</title>
<g id="a_node8"><a xlink:href="classplazza_1_1_office.html#ae5955f678a2422dee68f43b102502e57" target="_top" xlink:title="set number of available tasks ">
<polygon fill="none" stroke="black" points="506,-129.5 506,-159.5 644,-159.5 644,-129.5 506,-129.5"/>
<text text-anchor="start" x="514" y="-147.5" font-family="Helvetica,sans-Serif" font-size="10.00">plazza::Office::setFreeTask</text>
<text text-anchor="middle" x="575" y="-136.5" font-family="Helvetica,sans-Serif" font-size="10.00">Spots</text>
</a>
</g>
</g>
<!-- Node7&#45;&gt;Node8 -->
<g id="edge8" class="edge"><title>Node7&#45;&gt;Node8</title>
<path fill="none" stroke="midnightblue" d="M269.319,-111.02C286.724,-114.362 306.718,-117.921 325,-120.5 381.91,-128.527 446.521,-134.669 495.664,-138.729"/>
<polygon fill="midnightblue" stroke="midnightblue" points="495.656,-142.24 505.908,-139.564 496.225,-135.263 495.656,-142.24"/>
</g>
<!-- Node9 -->
<g id="node9" class="node"><title>Node9</title>
<g id="a_node9"><a xlink:href="classplazza_1_1_office.html#a0ca9b3768cf184e6d95edee417ca0231" target="_top" xlink:title="Get number of available tasks. ">
<polygon fill="none" stroke="black" points="506,-41.5 506,-71.5 644,-71.5 644,-41.5 506,-41.5"/>
<text text-anchor="start" x="514" y="-59.5" font-family="Helvetica,sans-Serif" font-size="10.00">plazza::Office::getFreeTask</text>
<text text-anchor="middle" x="575" y="-48.5" font-family="Helvetica,sans-Serif" font-size="10.00">Spots</text>
</a>
</g>
</g>
<!-- Node7&#45;&gt;Node9 -->
<g id="edge9" class="edge"><title>Node7&#45;&gt;Node9</title>
<path fill="none" stroke="midnightblue" d="M269.841,-91.9609C287.126,-88.6559 306.906,-85.1255 325,-82.5 381.923,-74.24 446.534,-67.572 495.673,-63.0572"/>
<polygon fill="midnightblue" stroke="midnightblue" points="496.274,-66.5172 505.916,-62.1267 495.64,-59.5459 496.274,-66.5172"/>
</g>
<!-- Node10 -->
<g id="node10" class="node"><title>Node10</title>
<g id="a_node10"><a xlink:href="classplazza_1_1_thread_pool.html#a353ba248e5dffc93f2912c9148da05fb" target="_top" xlink:title="Add a job to the queue. ">
<polygon fill="none" stroke="black" points="347,-0.5 347,-30.5 448,-30.5 448,-0.5 347,-0.5"/>
<text text-anchor="start" x="355" y="-18.5" font-family="Helvetica,sans-Serif" font-size="10.00">plazza::ThreadPool</text>
<text text-anchor="middle" x="397.5" y="-7.5" font-family="Helvetica,sans-Serif" font-size="10.00">::addJob</text>
</a>
</g>
</g>
<!-- Node7&#45;&gt;Node10 -->
<g id="edge10" class="edge"><title>Node7&#45;&gt;Node10</title>
<path fill="none" stroke="midnightblue" d="M240.927,-91.861C261.197,-81.0381 295.255,-63.0823 325,-48.5 334.207,-43.9865 344.156,-39.2852 353.622,-34.8935"/>
<polygon fill="midnightblue" stroke="midnightblue" points="355.267,-37.9894 362.882,-30.6235 352.335,-31.6327 355.267,-37.9894"/>
</g>
<!-- Node12 -->
<g id="node12" class="node"><title>Node12</title>
<g id="a_node12"><a xlink:href="classplazza_1_1_office.html#a40e5e47be8961ded30ee24e588a04e51" target="_top" xlink:title="Finish the task and send it to the server. ">
<polygon fill="none" stroke="black" points="325,-92 325,-111 470,-111 470,-92 325,-92"/>
<text text-anchor="middle" x="397.5" y="-99" font-family="Helvetica,sans-Serif" font-size="10.00">plazza::Office::completeTask</text>
</a>
</g>
</g>
<!-- Node7&#45;&gt;Node12 -->
<g id="edge12" class="edge"><title>Node7&#45;&gt;Node12</title>
<path fill="none" stroke="midnightblue" d="M289.088,-101.5C297.485,-101.5 306.157,-101.5 314.762,-101.5"/>
<polygon fill="midnightblue" stroke="midnightblue" points="314.814,-105 324.814,-101.5 314.814,-98.0001 314.814,-105"/>
</g>
<!-- Node11 -->
<g id="node11" class="node"><title>Node11</title>
<g id="a_node11"><a xlink:href="classplazza_1_1_cond_var.html#a5a2666ecbdb8b14acfe186c91097af75" target="_top" xlink:title="Notify one. ">
<polygon fill="none" stroke="black" points="506.5,-3 506.5,-22 643.5,-22 643.5,-3 506.5,-3"/>
<text text-anchor="middle" x="575" y="-10" font-family="Helvetica,sans-Serif" font-size="10.00">plazza::CondVar::notifyOne</text>
</a>
</g>
</g>
<!-- Node10&#45;&gt;Node11 -->
<g id="edge11" class="edge"><title>Node10&#45;&gt;Node11</title>
<path fill="none" stroke="midnightblue" d="M448.322,-14.6483C463.26,-14.393 480.014,-14.1066 496.3,-13.8282"/>
<polygon fill="midnightblue" stroke="midnightblue" points="496.42,-17.3268 506.359,-13.6563 496.301,-10.3278 496.42,-17.3268"/>
</g>
<!-- Node12&#45;&gt;Node2 -->
<g id="edge16" class="edge"><title>Node12&#45;&gt;Node2</title>
<path fill="none" stroke="midnightblue" d="M411.896,-111.111C431.74,-125.051 470.44,-151.11 506,-168.5 510.294,-170.6 514.811,-172.627 519.391,-174.557"/>
<polygon fill="midnightblue" stroke="midnightblue" points="518.246,-177.869 528.828,-178.374 520.87,-171.38 518.246,-177.869"/>
</g>
<!-- Node12&#45;&gt;Node8 -->
<g id="edge13" class="edge"><title>Node12&#45;&gt;Node8</title>
<path fill="none" stroke="midnightblue" d="M437.449,-111.043C456.714,-115.763 480.58,-121.611 502.943,-127.09"/>
<polygon fill="midnightblue" stroke="midnightblue" points="502.208,-130.513 512.753,-129.494 503.874,-123.714 502.208,-130.513"/>
</g>
<!-- Node12&#45;&gt;Node9 -->
<g id="edge14" class="edge"><title>Node12&#45;&gt;Node9</title>
<path fill="none" stroke="midnightblue" d="M435.719,-91.9567C456.059,-86.7413 481.893,-80.1171 505.713,-74.0095"/>
<polygon fill="midnightblue" stroke="midnightblue" points="506.607,-77.3937 515.424,-71.5195 504.868,-70.613 506.607,-77.3937"/>
</g>
<!-- Node13 -->
<g id="node13" class="node"><title>Node13</title>
<g id="a_node13"><a xlink:href="classplazza_1_1_office.html#a1f32b2702e30f57d8500edf91530f71c" target="_top" xlink:title="Get Office process pid. ">
<polygon fill="none" stroke="black" points="519.5,-91 519.5,-110 630.5,-110 630.5,-91 519.5,-91"/>
<text text-anchor="middle" x="575" y="-98" font-family="Helvetica,sans-Serif" font-size="10.00">plazza::Office::getPid</text>
</a>
</g>
</g>
<!-- Node12&#45;&gt;Node13 -->
<g id="edge15" class="edge"><title>Node12&#45;&gt;Node13</title>
<path fill="none" stroke="midnightblue" d="M470.136,-101.092C483.074,-101.018 496.496,-100.942 509.225,-100.869"/>
<polygon fill="midnightblue" stroke="midnightblue" points="509.282,-104.369 519.262,-100.812 509.242,-97.369 509.282,-104.369"/>
</g>
</g>
</svg>
