<?xml version="1.0" encoding="UTF-8" standalone="no"?>
<!DOCTYPE svg PUBLIC "-//W3C//DTD SVG 1.1//EN"
 "http://www.w3.org/Graphics/SVG/1.1/DTD/svg11.dtd">
<!-- Generated by graphviz version 2.38.0 (20140413.2041)
 -->
<!-- Title: plazza::Office::assignTask Pages: 1 -->
<svg width="801pt" height="214pt"
 viewBox="0.00 0.00 801.00 213.50" xmlns="http://www.w3.org/2000/svg" xmlns:xlink="http://www.w3.org/1999/xlink">
<g id="graph0" class="graph" transform="scale(1 1) rotate(0) translate(4 209.5)">
<title>plazza::Office::assignTask</title>
<!-- Node1 -->
<g id="node1" class="node"><title>Node1</title>
<polygon fill="#bfbfbf" stroke="black" points="0,-112.5 0,-131.5 134,-131.5 134,-112.5 0,-112.5"/>
<text text-anchor="middle" x="67" y="-119.5" font-family="Helvetica,sans-Serif" font-size="10.00">plazza::Office::assignTask</text>
</g>
<!-- Node2 -->
<g id="node2" class="node"><title>Node2</title>
<g id="a_node2"><a xlink:href="classplazza_1_1_office.html#ae5955f678a2422dee68f43b102502e57" target="_top" xlink:title="set number of available tasks ">
<polygon fill="none" stroke="black" points="351,-175 351,-205 489,-205 489,-175 351,-175"/>
<text text-anchor="start" x="359" y="-193" font-family="Helvetica,sans-Serif" font-size="10.00">plazza::Office::setFreeTask</text>
<text text-anchor="middle" x="420" y="-182" font-family="Helvetica,sans-Serif" font-size="10.00">Spots</text>
</a>
</g>
</g>
<!-- Node1&#45;&gt;Node2 -->
<g id="edge1" class="edge"><title>Node1&#45;&gt;Node2</title>
<path fill="none" stroke="midnightblue" d="M108.614,-131.579C127.274,-135.872 149.719,-140.883 170,-145 227.092,-156.59 291.853,-168.248 341.016,-176.793"/>
<polygon fill="midnightblue" stroke="midnightblue" points="340.497,-180.255 350.948,-178.514 341.692,-173.358 340.497,-180.255"/>
</g>
<!-- Node3 -->
<g id="node3" class="node"><title>Node3</title>
<g id="a_node3"><a xlink:href="classplazza_1_1_office.html#a0ca9b3768cf184e6d95edee417ca0231" target="_top" xlink:title="Get number of available tasks. ">
<polygon fill="none" stroke="black" points="351,-126 351,-156 489,-156 489,-126 351,-126"/>
<text text-anchor="start" x="359" y="-144" font-family="Helvetica,sans-Serif" font-size="10.00">plazza::Office::getFreeTask</text>
<text text-anchor="middle" x="420" y="-133" font-family="Helvetica,sans-Serif" font-size="10.00">Spots</text>
</a>
</g>
</g>
<!-- Node1&#45;&gt;Node3 -->
<g id="edge2" class="edge"><title>Node1&#45;&gt;Node3</title>
<path fill="none" stroke="midnightblue" d="M134.02,-125.574C192.712,-128.751 278.602,-133.4 340.734,-136.763"/>
<polygon fill="midnightblue" stroke="midnightblue" points="340.707,-140.267 350.881,-137.313 341.085,-133.277 340.707,-140.267"/>
</g>
<!-- Node4 -->
<g id="node4" class="node"><title>Node4</title>
<g id="a_node4"><a xlink:href="classplazza_1_1_thread_pool.html#a353ba248e5dffc93f2912c9148da05fb" target="_top" xlink:title="Add a job to the queue. ">
<polygon fill="none" stroke="black" points="192,-20 192,-50 293,-50 293,-20 192,-20"/>
<text text-anchor="start" x="200" y="-38" font-family="Helvetica,sans-Serif" font-size="10.00">plazza::ThreadPool</text>
<text text-anchor="middle" x="242.5" y="-27" font-family="Helvetica,sans-Serif" font-size="10.00">::addJob</text>
</a>
</g>
</g>
<!-- Node1&#45;&gt;Node4 -->
<g id="edge3" class="edge"><title>Node1&#45;&gt;Node4</title>
<path fill="none" stroke="midnightblue" d="M87.2304,-112.357C114.848,-98.5083 166.36,-72.6782 202.226,-54.6936"/>
<polygon fill="midnightblue" stroke="midnightblue" points="204.068,-57.6855 211.438,-50.0743 200.93,-51.4281 204.068,-57.6855"/>
</g>
<!-- Node6 -->
<g id="node6" class="node"><title>Node6</title>
<g id="a_node6"><a xlink:href="classplazza_1_1_office.html#a40e5e47be8961ded30ee24e588a04e51" target="_top" xlink:title="Finish the task and send it to the server. ">
<polygon fill="none" stroke="black" points="170,-93.5 170,-112.5 315,-112.5 315,-93.5 170,-93.5"/>
<text text-anchor="middle" x="242.5" y="-100.5" font-family="Helvetica,sans-Serif" font-size="10.00">plazza::Office::completeTask</text>
</a>
</g>
</g>
<!-- Node1&#45;&gt;Node6 -->
<g id="edge5" class="edge"><title>Node1&#45;&gt;Node6</title>
<path fill="none" stroke="midnightblue" d="M134.088,-114.763C142.485,-113.843 151.157,-112.894 159.762,-111.951"/>
<polygon fill="midnightblue" stroke="midnightblue" points="160.254,-115.418 169.814,-110.85 159.492,-108.46 160.254,-115.418"/>
</g>
<!-- Node5 -->
<g id="node5" class="node"><title>Node5</title>
<g id="a_node5"><a xlink:href="classplazza_1_1_cond_var.html#a5a2666ecbdb8b14acfe186c91097af75" target="_top" xlink:title="Notify one. ">
<polygon fill="none" stroke="black" points="351.5,-0.5 351.5,-19.5 488.5,-19.5 488.5,-0.5 351.5,-0.5"/>
<text text-anchor="middle" x="420" y="-7.5" font-family="Helvetica,sans-Serif" font-size="10.00">plazza::CondVar::notifyOne</text>
</a>
</g>
</g>
<!-- Node4&#45;&gt;Node5 -->
<g id="edge4" class="edge"><title>Node4&#45;&gt;Node5</title>
<path fill="none" stroke="midnightblue" d="M293.322,-27.9029C308.428,-25.751 325.39,-23.3347 341.848,-20.9903"/>
<polygon fill="midnightblue" stroke="midnightblue" points="342.603,-24.4182 352.009,-19.5428 341.616,-17.4881 342.603,-24.4182"/>
</g>
<!-- Node6&#45;&gt;Node2 -->
<g id="edge6" class="edge"><title>Node6&#45;&gt;Node2</title>
<path fill="none" stroke="midnightblue" d="M257.972,-112.689C278.177,-125.931 316.272,-149.875 351,-166 354.832,-167.779 358.836,-169.507 362.899,-171.165"/>
<polygon fill="midnightblue" stroke="midnightblue" points="361.848,-174.512 372.436,-174.9 364.401,-167.994 361.848,-174.512"/>
</g>
<!-- Node6&#45;&gt;Node3 -->
<g id="edge7" class="edge"><title>Node6&#45;&gt;Node3</title>
<path fill="none" stroke="midnightblue" d="M287.786,-112.589C303.893,-116.077 322.615,-120.13 340.784,-124.064"/>
<polygon fill="midnightblue" stroke="midnightblue" points="340.287,-127.538 350.802,-126.233 341.769,-120.696 340.287,-127.538"/>
</g>
<!-- Node7 -->
<g id="node7" class="node"><title>Node7</title>
<g id="a_node7"><a xlink:href="classplazza_1_1_office.html#a1f32b2702e30f57d8500edf91530f71c" target="_top" xlink:title="Get Office process pid. ">
<polygon fill="none" stroke="black" points="364.5,-38.5 364.5,-57.5 475.5,-57.5 475.5,-38.5 364.5,-38.5"/>
<text text-anchor="middle" x="420" y="-45.5" font-family="Helvetica,sans-Serif" font-size="10.00">plazza::Office::getPid</text>
</a>
</g>
</g>
<!-- Node6&#45;&gt;Node7 -->
<g id="edge8" class="edge"><title>Node6&#45;&gt;Node7</title>
<path fill="none" stroke="midnightblue" d="M270.771,-93.4421C292.427,-85.9552 323.529,-75.4316 351,-67 358.333,-64.7493 366.144,-62.4636 373.762,-60.2945"/>
<polygon fill="midnightblue" stroke="midnightblue" points="374.93,-63.6017 383.608,-57.523 373.033,-56.8636 374.93,-63.6017"/>
</g>
<!-- Node8 -->
<g id="node8" class="node"><title>Node8</title>
<g id="a_node8"><a xlink:href="classplazza_1_1_connector_pipe.html#a6a5aa2b09b3f85badda3ff5161e86f74" target="_top" xlink:title="plazza::ConnectorPipe\l::transfertData">
<polygon fill="none" stroke="black" points="362,-77 362,-107 478,-107 478,-77 362,-77"/>
<text text-anchor="start" x="370" y="-95" font-family="Helvetica,sans-Serif" font-size="10.00">plazza::ConnectorPipe</text>
<text text-anchor="middle" x="420" y="-84" font-family="Helvetica,sans-Serif" font-size="10.00">::transfertData</text>
</a>
</g>
</g>
<!-- Node6&#45;&gt;Node8 -->
<g id="edge9" class="edge"><title>Node6&#45;&gt;Node8</title>
<path fill="none" stroke="midnightblue" d="M315.136,-98.51C327.158,-97.7565 339.598,-96.9767 351.511,-96.2301"/>
<polygon fill="midnightblue" stroke="midnightblue" points="352.06,-99.7026 361.821,-95.5839 351.622,-92.7164 352.06,-99.7026"/>
</g>
<!-- Node9 -->
<g id="node9" class="node"><title>Node9</title>
<g id="a_node9"><a xlink:href="classplazza_1_1_connector_pipe.html#ac96ba32f2efbdaa1b0371ea98532b40b" target="_top" xlink:title="plazza::ConnectorPipe\l::getMode">
<polygon fill="none" stroke="black" points="525,-126 525,-156 641,-156 641,-126 525,-126"/>
<text text-anchor="start" x="533" y="-144" font-family="Helvetica,sans-Serif" font-size="10.00">plazza::ConnectorPipe</text>
<text text-anchor="middle" x="583" y="-133" font-family="Helvetica,sans-Serif" font-size="10.00">::getMode</text>
</a>
</g>
</g>
<!-- Node8&#45;&gt;Node9 -->
<g id="edge10" class="edge"><title>Node8&#45;&gt;Node9</title>
<path fill="none" stroke="midnightblue" d="M470.619,-107.101C487.07,-112.108 505.549,-117.732 522.657,-122.939"/>
<polygon fill="midnightblue" stroke="midnightblue" points="521.959,-126.385 532.545,-125.948 523.997,-119.688 521.959,-126.385"/>
</g>
<!-- Node10 -->
<g id="node10" class="node"><title>Node10</title>
<g id="a_node10"><a xlink:href="classplazza_1_1_connector_pipe.html#a7570f6cfb8520505247db4727d45bed1" target="_top" xlink:title="plazza::ConnectorPipe\l::receiveData">
<polygon fill="none" stroke="black" points="525,-28 525,-58 641,-58 641,-28 525,-28"/>
<text text-anchor="start" x="533" y="-46" font-family="Helvetica,sans-Serif" font-size="10.00">plazza::ConnectorPipe</text>
<text text-anchor="middle" x="583" y="-35" font-family="Helvetica,sans-Serif" font-size="10.00">::receiveData</text>
</a>
</g>
</g>
<!-- Node8&#45;&gt;Node10 -->
<g id="edge11" class="edge"><title>Node8&#45;&gt;Node10</title>
<path fill="none" stroke="midnightblue" d="M470.619,-76.8986C487.07,-71.8917 505.549,-66.2676 522.657,-61.061"/>
<polygon fill="midnightblue" stroke="midnightblue" points="523.997,-64.3116 532.545,-58.0516 521.959,-57.6149 523.997,-64.3116"/>
</g>
<!-- Node12 -->
<g id="node12" class="node"><title>Node12</title>
<g id="a_node12"><a xlink:href="classplazza_1_1_connector_pipe.html#ad8062cefc673b98824dff56b5534a056" target="_top" xlink:title="plazza::ConnectorPipe\l::sendData">
<polygon fill="none" stroke="black" points="525,-77 525,-107 641,-107 641,-77 525,-77"/>
<text text-anchor="start" x="533" y="-95" font-family="Helvetica,sans-Serif" font-size="10.00">plazza::ConnectorPipe</text>
<text text-anchor="middle" x="583" y="-84" font-family="Helvetica,sans-Serif" font-size="10.00">::sendData</text>
</a>
</g>
</g>
<!-- Node8&#45;&gt;Node12 -->
<g id="edge13" class="edge"><title>Node8&#45;&gt;Node12</title>
<path fill="none" stroke="midnightblue" d="M478.216,-92C490.079,-92 502.68,-92 514.86,-92"/>
<polygon fill="midnightblue" stroke="midnightblue" points="514.968,-95.5001 524.968,-92 514.968,-88.5001 514.968,-95.5001"/>
</g>
<!-- Node11 -->
<g id="node11" class="node"><title>Node11</title>
<g id="a_node11"><a xlink:href="classplazza_1_1_connector_pipe.html#a81c0af2d4860745accb6ddf522180740" target="_top" xlink:title="plazza::ConnectorPipe\l::getFd">
<polygon fill="none" stroke="black" points="677,-52 677,-82 793,-82 793,-52 677,-52"/>
<text text-anchor="start" x="685" y="-70" font-family="Helvetica,sans-Serif" font-size="10.00">plazza::ConnectorPipe</text>
<text text-anchor="middle" x="735" y="-59" font-family="Helvetica,sans-Serif" font-size="10.00">::getFd</text>
</a>
</g>
</g>
<!-- Node10&#45;&gt;Node11 -->
<g id="edge12" class="edge"><title>Node10&#45;&gt;Node11</title>
<path fill="none" stroke="midnightblue" d="M641.136,-52.1418C649.468,-53.4748 658.111,-54.8577 666.622,-56.2195"/>
<polygon fill="midnightblue" stroke="midnightblue" points="666.098,-59.6801 676.525,-57.8041 667.204,-52.768 666.098,-59.6801"/>
</g>
<!-- Node12&#45;&gt;Node11 -->
<g id="edge14" class="edge"><title>Node12&#45;&gt;Node11</title>
<path fill="none" stroke="midnightblue" d="M641.136,-82.4773C649.468,-81.0887 658.111,-79.6482 666.622,-78.2297"/>
<polygon fill="midnightblue" stroke="midnightblue" points="667.237,-81.6755 676.525,-76.5791 666.086,-74.7708 667.237,-81.6755"/>
</g>
</g>
</svg>
