<?xml version="1.0" encoding="UTF-8" standalone="no"?>
<!DOCTYPE svg PUBLIC "-//W3C//DTD SVG 1.1//EN"
 "http://www.w3.org/Graphics/SVG/1.1/DTD/svg11.dtd">
<!-- Generated by graphviz version 2.38.0 (20140413.2041)
 -->
<!-- Title: plazza::ThreadPool::getQueueLength Pages: 1 -->
<svg width="1057pt" height="83pt"
 viewBox="0.00 0.00 1057.00 83.00" xmlns="http://www.w3.org/2000/svg" xmlns:xlink="http://www.w3.org/1999/xlink">
<g id="graph0" class="graph" transform="scale(1 1) rotate(0) translate(4 79)">
<title>plazza::ThreadPool::getQueueLength</title>
<!-- Node1 -->
<g id="node1" class="node"><title>Node1</title>
<polygon fill="#bfbfbf" stroke="black" points="0,-22.5 0,-52.5 101,-52.5 101,-22.5 0,-22.5"/>
<text text-anchor="start" x="8" y="-40.5" font-family="Helvetica,sans-Serif" font-size="10.00">plazza::ThreadPool</text>
<text text-anchor="middle" x="50.5" y="-29.5" font-family="Helvetica,sans-Serif" font-size="10.00">::getQueueLength</text>
</g>
<!-- Node2 -->
<g id="node2" class="node"><title>Node2</title>
<g id="a_node2"><a xlink:href="classplazza_1_1_office.html#a7d91676d533d57dde86fbfe94e4e1a92" target="_top" xlink:title="Check if the office is active. ">
<polygon fill="none" stroke="black" points="137,-50 137,-69 256,-69 256,-50 137,-50"/>
<text text-anchor="middle" x="196.5" y="-57" font-family="Helvetica,sans-Serif" font-size="10.00">plazza::Office::isActive</text>
</a>
</g>
</g>
<!-- Node1&#45;&gt;Node2 -->
<g id="edge1" class="edge"><title>Node1&#45;&gt;Node2</title>
<path fill="none" stroke="midnightblue" d="M110.977,-46.5868C119.549,-47.8964 128.366,-49.2433 136.92,-50.5503"/>
<polygon fill="midnightblue" stroke="midnightblue" points="111.471,-43.1216 101.057,-45.0712 110.413,-50.0413 111.471,-43.1216"/>
</g>
<!-- Node9 -->
<g id="node9" class="node"><title>Node9</title>
<g id="a_node9"><a xlink:href="classplazza_1_1_thread_pool.html#ae3447aa58cee4c5206d194f144d207c3" target="_top" xlink:title="Class constructor. ">
<polygon fill="none" stroke="black" points="146,-0.5 146,-30.5 247,-30.5 247,-0.5 146,-0.5"/>
<text text-anchor="start" x="154" y="-18.5" font-family="Helvetica,sans-Serif" font-size="10.00">plazza::ThreadPool</text>
<text text-anchor="middle" x="196.5" y="-7.5" font-family="Helvetica,sans-Serif" font-size="10.00">::ThreadPool</text>
</a>
</g>
</g>
<!-- Node1&#45;&gt;Node9 -->
<g id="edge8" class="edge"><title>Node1&#45;&gt;Node9</title>
<path fill="none" stroke="midnightblue" d="M111.075,-28.3982C122.641,-26.6313 134.647,-24.7969 145.852,-23.0851"/>
<polygon fill="midnightblue" stroke="midnightblue" points="110.413,-24.9587 101.057,-29.9288 111.471,-31.8784 110.413,-24.9587"/>
</g>
<!-- Node3 -->
<g id="node3" class="node"><title>Node3</title>
<g id="a_node3"><a xlink:href="classplazza_1_1_office.html#a7c431da08f4460a011363f11f7066889" target="_top" xlink:title="Start the office. ">
<polygon fill="none" stroke="black" points="292,-50 292,-69 389,-69 389,-50 292,-50"/>
<text text-anchor="middle" x="340.5" y="-57" font-family="Helvetica,sans-Serif" font-size="10.00">plazza::Office::run</text>
</a>
</g>
</g>
<!-- Node2&#45;&gt;Node3 -->
<g id="edge2" class="edge"><title>Node2&#45;&gt;Node3</title>
<path fill="none" stroke="midnightblue" d="M266.216,-59.5C274.897,-59.5 283.624,-59.5 291.877,-59.5"/>
<polygon fill="midnightblue" stroke="midnightblue" points="266.077,-56.0001 256.077,-59.5 266.077,-63.0001 266.077,-56.0001"/>
</g>
<!-- Node4 -->
<g id="node4" class="node"><title>Node4</title>
<g id="a_node4"><a xlink:href="classplazza_1_1_process_manager.html#aaf7eabb8ae524f2faa9b152aa178a30b" target="_top" xlink:title="create an Office ">
<polygon fill="none" stroke="black" points="425,-44.5 425,-74.5 550,-74.5 550,-44.5 425,-44.5"/>
<text text-anchor="start" x="433" y="-62.5" font-family="Helvetica,sans-Serif" font-size="10.00">plazza::ProcessManager</text>
<text text-anchor="middle" x="487.5" y="-51.5" font-family="Helvetica,sans-Serif" font-size="10.00">::spawn</text>
</a>
</g>
</g>
<!-- Node3&#45;&gt;Node4 -->
<g id="edge3" class="edge"><title>Node3&#45;&gt;Node4</title>
<path fill="none" stroke="midnightblue" d="M399.451,-59.5C407.843,-59.5 416.506,-59.5 424.966,-59.5"/>
<polygon fill="midnightblue" stroke="midnightblue" points="399.38,-56.0001 389.38,-59.5 399.38,-63.0001 399.38,-56.0001"/>
</g>
<!-- Node5 -->
<g id="node5" class="node"><title>Node5</title>
<g id="a_node5"><a xlink:href="classplazza_1_1_reception.html#a7e1b50160865f662607dcddcbd9434f9" target="_top" xlink:title="Create an office. ">
<polygon fill="none" stroke="black" points="586,-44.5 586,-74.5 687,-74.5 687,-44.5 586,-44.5"/>
<text text-anchor="start" x="594" y="-62.5" font-family="Helvetica,sans-Serif" font-size="10.00">plazza::Reception::</text>
<text text-anchor="middle" x="636.5" y="-51.5" font-family="Helvetica,sans-Serif" font-size="10.00">createOffice</text>
</a>
</g>
</g>
<!-- Node4&#45;&gt;Node5 -->
<g id="edge4" class="edge"><title>Node4&#45;&gt;Node5</title>
<path fill="none" stroke="midnightblue" d="M560.694,-59.5C569.154,-59.5 577.638,-59.5 585.696,-59.5"/>
<polygon fill="midnightblue" stroke="midnightblue" points="560.415,-56.0001 550.415,-59.5 560.415,-63.0001 560.415,-56.0001"/>
</g>
<!-- Node6 -->
<g id="node6" class="node"><title>Node6</title>
<g id="a_node6"><a xlink:href="classplazza_1_1_reception.html#a7aa64f05388780e369663cd6800578ae" target="_top" xlink:title="Assign a task to the queue. ">
<polygon fill="none" stroke="black" points="723,-44.5 723,-74.5 824,-74.5 824,-44.5 723,-44.5"/>
<text text-anchor="start" x="731" y="-62.5" font-family="Helvetica,sans-Serif" font-size="10.00">plazza::Reception::</text>
<text text-anchor="middle" x="773.5" y="-51.5" font-family="Helvetica,sans-Serif" font-size="10.00">assignTask</text>
</a>
</g>
</g>
<!-- Node5&#45;&gt;Node6 -->
<g id="edge5" class="edge"><title>Node5&#45;&gt;Node6</title>
<path fill="none" stroke="midnightblue" d="M697.207,-59.5C705.67,-59.5 714.299,-59.5 722.552,-59.5"/>
<polygon fill="midnightblue" stroke="midnightblue" points="697.002,-56.0001 687.002,-59.5 697.002,-63.0001 697.002,-56.0001"/>
</g>
<!-- Node7 -->
<g id="node7" class="node"><title>Node7</title>
<g id="a_node7"><a xlink:href="classplazza_1_1_reception.html#add69bb3defc0d810a8f4fe2cdceacbb1" target="_top" xlink:title="run the office ">
<polygon fill="none" stroke="black" points="860,-50 860,-69 975,-69 975,-50 860,-50"/>
<text text-anchor="middle" x="917.5" y="-57" font-family="Helvetica,sans-Serif" font-size="10.00">plazza::Reception::run</text>
</a>
</g>
</g>
<!-- Node6&#45;&gt;Node7 -->
<g id="edge6" class="edge"><title>Node6&#45;&gt;Node7</title>
<path fill="none" stroke="midnightblue" d="M834.326,-59.5C842.771,-59.5 851.433,-59.5 859.817,-59.5"/>
<polygon fill="midnightblue" stroke="midnightblue" points="834.165,-56.0001 824.165,-59.5 834.165,-63.0001 834.165,-56.0001"/>
</g>
<!-- Node8 -->
<g id="node8" class="node"><title>Node8</title>
<g id="a_node8"><a xlink:href="gui_2sources_2main_8cpp.html#adacbe0175a79dff748855d8c9839f82b" target="_top" xlink:title="main">
<polygon fill="none" stroke="black" points="1011,-50 1011,-69 1049,-69 1049,-50 1011,-50"/>
<text text-anchor="middle" x="1030" y="-57" font-family="Helvetica,sans-Serif" font-size="10.00">main</text>
</a>
</g>
</g>
<!-- Node7&#45;&gt;Node8 -->
<g id="edge7" class="edge"><title>Node7&#45;&gt;Node8</title>
<path fill="none" stroke="midnightblue" d="M985.296,-59.5C994.626,-59.5 1003.5,-59.5 1010.78,-59.5"/>
<polygon fill="midnightblue" stroke="midnightblue" points="985.045,-56.0001 975.045,-59.5 985.045,-63.0001 985.045,-56.0001"/>
</g>
</g>
</svg>
