<?xml version="1.0" encoding="UTF-8" standalone="no"?>
<!DOCTYPE svg PUBLIC "-//W3C//DTD SVG 1.1//EN"
 "http://www.w3.org/Graphics/SVG/1.1/DTD/svg11.dtd">
<!-- Generated by graphviz version 2.38.0 (20140413.2041)
 -->
<!-- Title: plazza::Reception::Reception Pages: 1 -->
<svg width="413pt" height="186pt"
 viewBox="0.00 0.00 413.00 186.00" xmlns="http://www.w3.org/2000/svg" xmlns:xlink="http://www.w3.org/1999/xlink">
<g id="graph0" class="graph" transform="scale(1 1) rotate(0) translate(4 182)">
<title>plazza::Reception::Reception</title>
<!-- Node1 -->
<g id="node1" class="node"><title>Node1</title>
<polygon fill="#bfbfbf" stroke="black" points="0,-97.5 0,-127.5 101,-127.5 101,-97.5 0,-97.5"/>
<text text-anchor="start" x="8" y="-115.5" font-family="Helvetica,sans-Serif" font-size="10.00">plazza::Reception::</text>
<text text-anchor="middle" x="50.5" y="-104.5" font-family="Helvetica,sans-Serif" font-size="10.00">Reception</text>
</g>
<!-- Node2 -->
<g id="node2" class="node"><title>Node2</title>
<g id="a_node2"><a xlink:href="classplazza_1_1_connector_pipe.html#a62120c8eaf05eb207346618977ad311e" target="_top" xlink:title="plazza::ConnectorPipe\l::create">
<polygon fill="none" stroke="black" points="137,-122.5 137,-152.5 253,-152.5 253,-122.5 137,-122.5"/>
<text text-anchor="start" x="145" y="-140.5" font-family="Helvetica,sans-Serif" font-size="10.00">plazza::ConnectorPipe</text>
<text text-anchor="middle" x="195" y="-129.5" font-family="Helvetica,sans-Serif" font-size="10.00">::create</text>
</a>
</g>
</g>
<!-- Node1&#45;&gt;Node2 -->
<g id="edge1" class="edge"><title>Node1&#45;&gt;Node2</title>
<path fill="none" stroke="midnightblue" d="M101.34,-121.244C109.531,-122.681 118.139,-124.191 126.671,-125.688"/>
<polygon fill="midnightblue" stroke="midnightblue" points="126.169,-129.153 136.624,-127.434 127.379,-122.259 126.169,-129.153"/>
</g>
<!-- Node3 -->
<g id="node3" class="node"><title>Node3</title>
<g id="a_node3"><a xlink:href="classplazza_1_1_connector_pipe.html#a988af6e52af009b779739b0fc571fc07" target="_top" xlink:title="plazza::ConnectorPipe\l::connect">
<polygon fill="none" stroke="black" points="137,-73.5 137,-103.5 253,-103.5 253,-73.5 137,-73.5"/>
<text text-anchor="start" x="145" y="-91.5" font-family="Helvetica,sans-Serif" font-size="10.00">plazza::ConnectorPipe</text>
<text text-anchor="middle" x="195" y="-80.5" font-family="Helvetica,sans-Serif" font-size="10.00">::connect</text>
</a>
</g>
</g>
<!-- Node1&#45;&gt;Node3 -->
<g id="edge2" class="edge"><title>Node1&#45;&gt;Node3</title>
<path fill="none" stroke="midnightblue" d="M101.34,-104.106C109.531,-102.726 118.139,-101.277 126.671,-99.8396"/>
<polygon fill="midnightblue" stroke="midnightblue" points="127.344,-103.276 136.624,-98.1634 126.181,-96.3729 127.344,-103.276"/>
</g>
<!-- Node4 -->
<g id="node4" class="node"><title>Node4</title>
<g id="a_node4"><a xlink:href="classplazza_1_1_connector_pipe.html#a4609ad27d1a9847c051fc3be7638e656" target="_top" xlink:title="plazza::ConnectorPipe\l::setFd">
<polygon fill="none" stroke="black" points="289,-147.5 289,-177.5 405,-177.5 405,-147.5 289,-147.5"/>
<text text-anchor="start" x="297" y="-165.5" font-family="Helvetica,sans-Serif" font-size="10.00">plazza::ConnectorPipe</text>
<text text-anchor="middle" x="347" y="-154.5" font-family="Helvetica,sans-Serif" font-size="10.00">::setFd</text>
</a>
</g>
</g>
<!-- Node3&#45;&gt;Node4 -->
<g id="edge3" class="edge"><title>Node3&#45;&gt;Node4</title>
<path fill="none" stroke="midnightblue" d="M233.303,-103.617C239.973,-106.669 246.776,-110.017 253,-113.5 269.999,-123.012 271.931,-129.114 289,-138.5 291.87,-140.078 294.865,-141.621 297.914,-143.114"/>
<polygon fill="midnightblue" stroke="midnightblue" points="296.615,-146.37 307.157,-147.432 299.578,-140.028 296.615,-146.37"/>
</g>
<!-- Node5 -->
<g id="node5" class="node"><title>Node5</title>
<g id="a_node5"><a xlink:href="classplazza_1_1_connector_pipe.html#a81c0af2d4860745accb6ddf522180740" target="_top" xlink:title="plazza::ConnectorPipe\l::getFd">
<polygon fill="none" stroke="black" points="289,-98.5 289,-128.5 405,-128.5 405,-98.5 289,-98.5"/>
<text text-anchor="start" x="297" y="-116.5" font-family="Helvetica,sans-Serif" font-size="10.00">plazza::ConnectorPipe</text>
<text text-anchor="middle" x="347" y="-105.5" font-family="Helvetica,sans-Serif" font-size="10.00">::getFd</text>
</a>
</g>
</g>
<!-- Node3&#45;&gt;Node5 -->
<g id="edge4" class="edge"><title>Node3&#45;&gt;Node5</title>
<path fill="none" stroke="midnightblue" d="M253.136,-98.0227C261.468,-99.4113 270.111,-100.852 278.622,-102.27"/>
<polygon fill="midnightblue" stroke="midnightblue" points="278.086,-105.729 288.525,-103.921 279.237,-98.8245 278.086,-105.729"/>
</g>
<!-- Node6 -->
<g id="node6" class="node"><title>Node6</title>
<g id="a_node6"><a xlink:href="classplazza_1_1_connector_pipe.html#ae8ec632624616ac694227bc109f1f630" target="_top" xlink:title="plazza::ConnectorPipe\l::setName">
<polygon fill="none" stroke="black" points="289,-49.5 289,-79.5 405,-79.5 405,-49.5 289,-49.5"/>
<text text-anchor="start" x="297" y="-67.5" font-family="Helvetica,sans-Serif" font-size="10.00">plazza::ConnectorPipe</text>
<text text-anchor="middle" x="347" y="-56.5" font-family="Helvetica,sans-Serif" font-size="10.00">::setName</text>
</a>
</g>
</g>
<!-- Node3&#45;&gt;Node6 -->
<g id="edge5" class="edge"><title>Node3&#45;&gt;Node6</title>
<path fill="none" stroke="midnightblue" d="M253.136,-79.3582C261.468,-78.0252 270.111,-76.6423 278.622,-75.2805"/>
<polygon fill="midnightblue" stroke="midnightblue" points="279.204,-78.732 288.525,-73.6959 278.098,-71.8199 279.204,-78.732"/>
</g>
<!-- Node7 -->
<g id="node7" class="node"><title>Node7</title>
<g id="a_node7"><a xlink:href="classplazza_1_1_connector_pipe.html#acd75d9a8aed8dbcc567353f1340c14e2" target="_top" xlink:title="plazza::ConnectorPipe\l::setMode">
<polygon fill="none" stroke="black" points="289,-0.5 289,-30.5 405,-30.5 405,-0.5 289,-0.5"/>
<text text-anchor="start" x="297" y="-18.5" font-family="Helvetica,sans-Serif" font-size="10.00">plazza::ConnectorPipe</text>
<text text-anchor="middle" x="347" y="-7.5" font-family="Helvetica,sans-Serif" font-size="10.00">::setMode</text>
</a>
</g>
</g>
<!-- Node3&#45;&gt;Node7 -->
<g id="edge6" class="edge"><title>Node3&#45;&gt;Node7</title>
<path fill="none" stroke="midnightblue" d="M224.259,-73.3254C242.572,-63.6384 267.023,-50.9782 289,-40.5 293.004,-38.5911 297.189,-36.6517 301.394,-34.7405"/>
<polygon fill="midnightblue" stroke="midnightblue" points="302.879,-37.9106 310.571,-30.6247 300.014,-31.5236 302.879,-37.9106"/>
</g>
</g>
</svg>
