<?xml version="1.0" encoding="UTF-8" standalone="no"?>
<!DOCTYPE svg PUBLIC "-//W3C//DTD SVG 1.1//EN"
 "http://www.w3.org/Graphics/SVG/1.1/DTD/svg11.dtd">
<!-- Generated by graphviz version 2.38.0 (20140413.2041)
 -->
<!-- Title: plazza::XorCracker::getKeyXor Pages: 1 -->
<svg width="563pt" height="100pt"
 viewBox="0.00 0.00 563.00 99.50" xmlns="http://www.w3.org/2000/svg" xmlns:xlink="http://www.w3.org/1999/xlink">
<g id="graph0" class="graph" transform="scale(1 1) rotate(0) translate(4 95.5)">
<title>plazza::XorCracker::getKeyXor</title>
<!-- Node1 -->
<g id="node1" class="node"><title>Node1</title>
<polygon fill="#bfbfbf" stroke="black" points="0,-22.5 0,-52.5 101,-52.5 101,-22.5 0,-22.5"/>
<text text-anchor="start" x="8" y="-40.5" font-family="Helvetica,sans-Serif" font-size="10.00">plazza::XorCracker</text>
<text text-anchor="middle" x="50.5" y="-29.5" font-family="Helvetica,sans-Serif" font-size="10.00">::getKeyXor</text>
</g>
<!-- Node2 -->
<g id="node2" class="node"><title>Node2</title>
<g id="a_node2"><a xlink:href="classplazza_1_1_worker.html#af17344ef0f0311dadb4f7c7ea9565031" target="_top" xlink:title="Send task to perform to the worker. ">
<polygon fill="none" stroke="black" points="137,-28 137,-47 274,-47 274,-28 137,-28"/>
<text text-anchor="middle" x="205.5" y="-35" font-family="Helvetica,sans-Serif" font-size="10.00">plazza::Worker::performJob</text>
</a>
</g>
</g>
<!-- Node1&#45;&gt;Node2 -->
<g id="edge1" class="edge"><title>Node1&#45;&gt;Node2</title>
<path fill="none" stroke="midnightblue" d="M111.287,-37.5C119.717,-37.5 128.432,-37.5 136.994,-37.5"/>
<polygon fill="midnightblue" stroke="midnightblue" points="111.175,-34.0001 101.175,-37.5 111.175,-41.0001 111.175,-34.0001"/>
</g>
<!-- Node3 -->
<g id="node3" class="node"><title>Node3</title>
<g id="a_node3"><a xlink:href="classplazza_1_1_worker.html#aa7561bf24cd0a90230ddd99b43b18a11" target="_top" xlink:title="Start thread execution. ">
<polygon fill="none" stroke="black" points="310,-72 310,-91 418,-91 418,-72 310,-72"/>
<text text-anchor="middle" x="364" y="-79" font-family="Helvetica,sans-Serif" font-size="10.00">plazza::Worker::start</text>
</a>
</g>
</g>
<!-- Node2&#45;&gt;Node3 -->
<g id="edge2" class="edge"><title>Node2&#45;&gt;Node3</title>
<path fill="none" stroke="midnightblue" d="M250.395,-49.8412C275.322,-56.8493 306.051,-65.4888 329.108,-71.9713"/>
<polygon fill="midnightblue" stroke="midnightblue" points="251.032,-46.3846 240.458,-47.0473 249.138,-53.1233 251.032,-46.3846"/>
</g>
<!-- Node4 -->
<g id="node4" class="node"><title>Node4</title>
<g id="a_node4"><a xlink:href="classplazza_1_1_thread_pool.html#a85b5323591017ee418afb0fdc9e3d9a7" target="_top" xlink:title="Get the number of total workers. ">
<polygon fill="none" stroke="black" points="313.5,-22.5 313.5,-52.5 414.5,-52.5 414.5,-22.5 313.5,-22.5"/>
<text text-anchor="start" x="321.5" y="-40.5" font-family="Helvetica,sans-Serif" font-size="10.00">plazza::ThreadPool</text>
<text text-anchor="middle" x="364" y="-29.5" font-family="Helvetica,sans-Serif" font-size="10.00">::getNbWorkers</text>
</a>
</g>
</g>
<!-- Node2&#45;&gt;Node4 -->
<g id="edge3" class="edge"><title>Node2&#45;&gt;Node4</title>
<path fill="none" stroke="midnightblue" d="M284.382,-37.5C294.148,-37.5 303.921,-37.5 313.094,-37.5"/>
<polygon fill="midnightblue" stroke="midnightblue" points="284.233,-34.0001 274.233,-37.5 284.233,-41.0001 284.233,-34.0001"/>
</g>
<!-- Node5 -->
<g id="node5" class="node"><title>Node5</title>
<g id="a_node5"><a xlink:href="classplazza_1_1_thread_pool.html#ae3447aa58cee4c5206d194f144d207c3" target="_top" xlink:title="Class constructor. ">
<polygon fill="none" stroke="black" points="454,-0.5 454,-30.5 555,-30.5 555,-0.5 454,-0.5"/>
<text text-anchor="start" x="462" y="-18.5" font-family="Helvetica,sans-Serif" font-size="10.00">plazza::ThreadPool</text>
<text text-anchor="middle" x="504.5" y="-7.5" font-family="Helvetica,sans-Serif" font-size="10.00">::ThreadPool</text>
</a>
</g>
</g>
<!-- Node2&#45;&gt;Node5 -->
<g id="edge5" class="edge"><title>Node2&#45;&gt;Node5</title>
<path fill="none" stroke="midnightblue" d="M249.157,-25.3039C267.685,-20.6081 289.744,-15.8178 310,-13.5 357.689,-8.04325 370.003,-12.9387 418,-13.5 429.581,-13.6354 442.041,-13.874 453.771,-14.1403"/>
<polygon fill="midnightblue" stroke="midnightblue" points="248.052,-21.9748 239.26,-27.8866 249.82,-28.748 248.052,-21.9748"/>
</g>
<!-- Node4&#45;&gt;Node5 -->
<g id="edge4" class="edge"><title>Node4&#45;&gt;Node5</title>
<path fill="none" stroke="midnightblue" d="M424.615,-28.0304C434.338,-26.4861 444.318,-24.9007 453.77,-23.3993"/>
<polygon fill="midnightblue" stroke="midnightblue" points="423.938,-24.5941 414.61,-29.6196 425.036,-31.5074 423.938,-24.5941"/>
</g>
</g>
</svg>
