<?xml version="1.0" encoding="UTF-8" standalone="no"?>
<!DOCTYPE svg PUBLIC "-//W3C//DTD SVG 1.1//EN"
 "http://www.w3.org/Graphics/SVG/1.1/DTD/svg11.dtd">
<!-- Generated by graphviz version 2.38.0 (20140413.2041)
 -->
<!-- Title: plazza::XorCracker::run Pages: 1 -->
<svg width="433pt" height="107pt"
 viewBox="0.00 0.00 433.00 107.00" xmlns="http://www.w3.org/2000/svg" xmlns:xlink="http://www.w3.org/1999/xlink">
<g id="graph0" class="graph" transform="scale(1 1) rotate(0) translate(4 103)">
<title>plazza::XorCracker::run</title>
<!-- Node1 -->
<g id="node1" class="node"><title>Node1</title>
<polygon fill="#bfbfbf" stroke="black" points="0,-52 0,-71 120,-71 120,-52 0,-52"/>
<text text-anchor="middle" x="60" y="-59" font-family="Helvetica,sans-Serif" font-size="10.00">plazza::XorCracker::run</text>
</g>
<!-- Node2 -->
<g id="node2" class="node"><title>Node2</title>
<g id="a_node2"><a xlink:href="classplazza_1_1_xor_cracker.html#a0b187c82af91eba8d23f9cac170fe90a" target="_top" xlink:title="plazza::XorCracker\l::setBuffer">
<polygon fill="none" stroke="black" points="165.5,-68.5 165.5,-98.5 266.5,-98.5 266.5,-68.5 165.5,-68.5"/>
<text text-anchor="start" x="173.5" y="-86.5" font-family="Helvetica,sans-Serif" font-size="10.00">plazza::XorCracker</text>
<text text-anchor="middle" x="216" y="-75.5" font-family="Helvetica,sans-Serif" font-size="10.00">::setBuffer</text>
</a>
</g>
</g>
<!-- Node1&#45;&gt;Node2 -->
<g id="edge1" class="edge"><title>Node1&#45;&gt;Node2</title>
<path fill="none" stroke="midnightblue" d="M120.1,-69.9429C131.646,-71.5923 143.761,-73.323 155.326,-74.9752"/>
<polygon fill="midnightblue" stroke="midnightblue" points="154.925,-78.4533 165.32,-76.4028 155.915,-71.5237 154.925,-78.4533"/>
</g>
<!-- Node3 -->
<g id="node3" class="node"><title>Node3</title>
<g id="a_node3"><a xlink:href="classplazza_1_1_xor_cracker.html#ad190633b59d1fb23b403f44d837085f8" target="_top" xlink:title="plazza::XorCracker::run">
<polygon fill="none" stroke="black" points="156,-30 156,-49 276,-49 276,-30 156,-30"/>
<text text-anchor="middle" x="216" y="-37" font-family="Helvetica,sans-Serif" font-size="10.00">plazza::XorCracker::run</text>
</a>
</g>
</g>
<!-- Node1&#45;&gt;Node3 -->
<g id="edge2" class="edge"><title>Node1&#45;&gt;Node3</title>
<path fill="none" stroke="midnightblue" d="M120.1,-53.0571C128.513,-51.8552 137.228,-50.6102 145.813,-49.3839"/>
<polygon fill="midnightblue" stroke="midnightblue" points="146.399,-52.8357 155.804,-47.9566 145.409,-45.9061 146.399,-52.8357"/>
</g>
<!-- Node4 -->
<g id="node4" class="node"><title>Node4</title>
<g id="a_node4"><a xlink:href="classplazza_1_1_xor_cracker.html#a39471c4bb769b0b20a3fdd34f5a77cec" target="_top" xlink:title="plazza::XorCracker\l::getMaxKeyLength">
<polygon fill="none" stroke="black" points="318,-49.5 318,-79.5 419,-79.5 419,-49.5 318,-49.5"/>
<text text-anchor="start" x="326" y="-67.5" font-family="Helvetica,sans-Serif" font-size="10.00">plazza::XorCracker</text>
<text text-anchor="middle" x="368.5" y="-56.5" font-family="Helvetica,sans-Serif" font-size="10.00">::getMaxKeyLength</text>
</a>
</g>
</g>
<!-- Node3&#45;&gt;Node4 -->
<g id="edge3" class="edge"><title>Node3&#45;&gt;Node4</title>
<path fill="none" stroke="midnightblue" d="M274.327,-49.0227C285.266,-50.8399 296.742,-52.7461 307.754,-54.5755"/>
<polygon fill="midnightblue" stroke="midnightblue" points="307.271,-58.043 317.709,-56.2291 308.418,-51.1376 307.271,-58.043"/>
</g>
<!-- Node5 -->
<g id="node5" class="node"><title>Node5</title>
<g id="a_node5"><a xlink:href="classplazza_1_1_xor_cracker.html#aa398a0cced229d03cf6a51c1b1ab8ba3" target="_top" xlink:title="plazza::XorCracker\l::setKnownKeyLength">
<polygon fill="none" stroke="black" points="312,-0.5 312,-30.5 425,-30.5 425,-0.5 312,-0.5"/>
<text text-anchor="start" x="320" y="-18.5" font-family="Helvetica,sans-Serif" font-size="10.00">plazza::XorCracker</text>
<text text-anchor="middle" x="368.5" y="-7.5" font-family="Helvetica,sans-Serif" font-size="10.00">::setKnownKeyLength</text>
</a>
</g>
</g>
<!-- Node3&#45;&gt;Node5 -->
<g id="edge4" class="edge"><title>Node3&#45;&gt;Node5</title>
<path fill="none" stroke="midnightblue" d="M276.05,-30.0834C284.455,-28.7431 293.142,-27.3577 301.667,-25.9983"/>
<polygon fill="midnightblue" stroke="midnightblue" points="302.247,-29.4501 311.571,-24.4189 301.145,-22.5374 302.247,-29.4501"/>
</g>
</g>
</svg>
