<?xml version="1.0" encoding="UTF-8" standalone="no"?>
<!DOCTYPE svg PUBLIC "-//W3C//DTD SVG 1.1//EN"
 "http://www.w3.org/Graphics/SVG/1.1/DTD/svg11.dtd">
<!-- Generated by graphviz version 2.38.0 (20140413.2041)
 -->
<!-- Title: plazza::Reception::close Pages: 1 -->
<svg width="711pt" height="222pt"
 viewBox="0.00 0.00 711.00 222.00" xmlns="http://www.w3.org/2000/svg" xmlns:xlink="http://www.w3.org/1999/xlink">
<g id="graph0" class="graph" transform="scale(1 1) rotate(0) translate(4 218)">
<title>plazza::Reception::close</title>
<!-- Node1 -->
<g id="node1" class="node"><title>Node1</title>
<polygon fill="#bfbfbf" stroke="black" points="0,-49.5 0,-79.5 101,-79.5 101,-49.5 0,-49.5"/>
<text text-anchor="start" x="8" y="-67.5" font-family="Helvetica,sans-Serif" font-size="10.00">plazza::Reception::</text>
<text text-anchor="middle" x="50.5" y="-56.5" font-family="Helvetica,sans-Serif" font-size="10.00">close</text>
</g>
<!-- Node2 -->
<g id="node2" class="node"><title>Node2</title>
<g id="a_node2"><a xlink:href="classplazza_1_1_reception.html#a9a226724be0364905ecf149ff0beaf4d" target="_top" xlink:title="Flush the server data. ">
<polygon fill="none" stroke="black" points="137,-49.5 137,-79.5 238,-79.5 238,-49.5 137,-49.5"/>
<text text-anchor="start" x="145" y="-67.5" font-family="Helvetica,sans-Serif" font-size="10.00">plazza::Reception::</text>
<text text-anchor="middle" x="187.5" y="-56.5" font-family="Helvetica,sans-Serif" font-size="10.00">flushServerData</text>
</a>
</g>
</g>
<!-- Node1&#45;&gt;Node2 -->
<g id="edge1" class="edge"><title>Node1&#45;&gt;Node2</title>
<path fill="none" stroke="midnightblue" d="M101.002,-64.5C109.241,-64.5 117.866,-64.5 126.335,-64.5"/>
<polygon fill="midnightblue" stroke="midnightblue" points="126.552,-68.0001 136.552,-64.5 126.552,-61.0001 126.552,-68.0001"/>
</g>
<!-- Node3 -->
<g id="node3" class="node"><title>Node3</title>
<g id="a_node3"><a xlink:href="classplazza_1_1_connector_pipe.html#a6a5aa2b09b3f85badda3ff5161e86f74" target="_top" xlink:title="plazza::ConnectorPipe\l::transfertData">
<polygon fill="none" stroke="black" points="274,-122.5 274,-152.5 390,-152.5 390,-122.5 274,-122.5"/>
<text text-anchor="start" x="282" y="-140.5" font-family="Helvetica,sans-Serif" font-size="10.00">plazza::ConnectorPipe</text>
<text text-anchor="middle" x="332" y="-129.5" font-family="Helvetica,sans-Serif" font-size="10.00">::transfertData</text>
</a>
</g>
</g>
<!-- Node2&#45;&gt;Node3 -->
<g id="edge2" class="edge"><title>Node2&#45;&gt;Node3</title>
<path fill="none" stroke="midnightblue" d="M218.026,-79.6256C239.617,-90.6861 269.099,-105.789 292.532,-117.794"/>
<polygon fill="midnightblue" stroke="midnightblue" points="291.016,-120.949 301.512,-122.394 294.207,-114.719 291.016,-120.949"/>
</g>
<!-- Node8 -->
<g id="node8" class="node"><title>Node8</title>
<g id="a_node8"><a xlink:href="classplazza_1_1_reception.html#a7008f2d6490fcbd68ae4a34d9fe6b37d" target="_top" xlink:title="remove the office specified as office_id ">
<polygon fill="none" stroke="black" points="281.5,-49.5 281.5,-79.5 382.5,-79.5 382.5,-49.5 281.5,-49.5"/>
<text text-anchor="start" x="289.5" y="-67.5" font-family="Helvetica,sans-Serif" font-size="10.00">plazza::Reception::</text>
<text text-anchor="middle" x="332" y="-56.5" font-family="Helvetica,sans-Serif" font-size="10.00">removeOffice</text>
</a>
</g>
</g>
<!-- Node2&#45;&gt;Node8 -->
<g id="edge8" class="edge"><title>Node2&#45;&gt;Node8</title>
<path fill="none" stroke="midnightblue" d="M238.34,-64.5C248.923,-64.5 260.2,-64.5 271.113,-64.5"/>
<polygon fill="midnightblue" stroke="midnightblue" points="271.429,-68.0001 281.429,-64.5 271.429,-61.0001 271.429,-68.0001"/>
</g>
<!-- Node11 -->
<g id="node11" class="node"><title>Node11</title>
<g id="a_node11"><a xlink:href="classplazza_1_1_reception.html#ac663c7aa11a6b68ef0cef4d40e71006f" target="_top" xlink:title="Called when a task has ended. ">
<polygon fill="none" stroke="black" points="281.5,-0.5 281.5,-30.5 382.5,-30.5 382.5,-0.5 281.5,-0.5"/>
<text text-anchor="start" x="289.5" y="-18.5" font-family="Helvetica,sans-Serif" font-size="10.00">plazza::Reception::</text>
<text text-anchor="middle" x="332" y="-7.5" font-family="Helvetica,sans-Serif" font-size="10.00">completeTask</text>
</a>
</g>
</g>
<!-- Node2&#45;&gt;Node11 -->
<g id="edge11" class="edge"><title>Node2&#45;&gt;Node11</title>
<path fill="none" stroke="midnightblue" d="M232.417,-49.3986C246.639,-44.5083 262.573,-39.0293 277.415,-33.9256"/>
<polygon fill="midnightblue" stroke="midnightblue" points="278.664,-37.1975 286.982,-30.6359 276.388,-30.5779 278.664,-37.1975"/>
</g>
<!-- Node4 -->
<g id="node4" class="node"><title>Node4</title>
<g id="a_node4"><a xlink:href="classplazza_1_1_connector_pipe.html#ac96ba32f2efbdaa1b0371ea98532b40b" target="_top" xlink:title="plazza::ConnectorPipe\l::getMode">
<polygon fill="none" stroke="black" points="430.5,-183.5 430.5,-213.5 546.5,-213.5 546.5,-183.5 430.5,-183.5"/>
<text text-anchor="start" x="438.5" y="-201.5" font-family="Helvetica,sans-Serif" font-size="10.00">plazza::ConnectorPipe</text>
<text text-anchor="middle" x="488.5" y="-190.5" font-family="Helvetica,sans-Serif" font-size="10.00">::getMode</text>
</a>
</g>
</g>
<!-- Node3&#45;&gt;Node4 -->
<g id="edge3" class="edge"><title>Node3&#45;&gt;Node4</title>
<path fill="none" stroke="midnightblue" d="M370.986,-152.678C387.829,-159.391 407.893,-167.365 426,-174.5 430.254,-176.176 434.675,-177.913 439.108,-179.65"/>
<polygon fill="midnightblue" stroke="midnightblue" points="438.185,-183.047 448.773,-183.432 440.736,-176.528 438.185,-183.047"/>
</g>
<!-- Node5 -->
<g id="node5" class="node"><title>Node5</title>
<g id="a_node5"><a xlink:href="classplazza_1_1_connector_pipe.html#a7570f6cfb8520505247db4727d45bed1" target="_top" xlink:title="plazza::ConnectorPipe\l::receiveData">
<polygon fill="none" stroke="black" points="430.5,-134.5 430.5,-164.5 546.5,-164.5 546.5,-134.5 430.5,-134.5"/>
<text text-anchor="start" x="438.5" y="-152.5" font-family="Helvetica,sans-Serif" font-size="10.00">plazza::ConnectorPipe</text>
<text text-anchor="middle" x="488.5" y="-141.5" font-family="Helvetica,sans-Serif" font-size="10.00">::receiveData</text>
</a>
</g>
</g>
<!-- Node3&#45;&gt;Node5 -->
<g id="edge4" class="edge"><title>Node3&#45;&gt;Node5</title>
<path fill="none" stroke="midnightblue" d="M390.091,-141.934C399.955,-142.7 410.29,-143.503 420.39,-144.288"/>
<polygon fill="midnightblue" stroke="midnightblue" points="420.145,-147.779 430.386,-145.064 420.687,-140.8 420.145,-147.779"/>
</g>
<!-- Node7 -->
<g id="node7" class="node"><title>Node7</title>
<g id="a_node7"><a xlink:href="classplazza_1_1_connector_pipe.html#ad8062cefc673b98824dff56b5534a056" target="_top" xlink:title="plazza::ConnectorPipe\l::sendData">
<polygon fill="none" stroke="black" points="430.5,-85.5 430.5,-115.5 546.5,-115.5 546.5,-85.5 430.5,-85.5"/>
<text text-anchor="start" x="438.5" y="-103.5" font-family="Helvetica,sans-Serif" font-size="10.00">plazza::ConnectorPipe</text>
<text text-anchor="middle" x="488.5" y="-92.5" font-family="Helvetica,sans-Serif" font-size="10.00">::sendData</text>
</a>
</g>
</g>
<!-- Node3&#45;&gt;Node7 -->
<g id="edge6" class="edge"><title>Node3&#45;&gt;Node7</title>
<path fill="none" stroke="midnightblue" d="M390.091,-123.828C399.955,-121.465 410.29,-118.99 420.39,-116.572"/>
<polygon fill="midnightblue" stroke="midnightblue" points="421.476,-119.911 430.386,-114.178 419.846,-113.103 421.476,-119.911"/>
</g>
<!-- Node6 -->
<g id="node6" class="node"><title>Node6</title>
<g id="a_node6"><a xlink:href="classplazza_1_1_connector_pipe.html#a81c0af2d4860745accb6ddf522180740" target="_top" xlink:title="plazza::ConnectorPipe\l::getFd">
<polygon fill="none" stroke="black" points="587,-109.5 587,-139.5 703,-139.5 703,-109.5 587,-109.5"/>
<text text-anchor="start" x="595" y="-127.5" font-family="Helvetica,sans-Serif" font-size="10.00">plazza::ConnectorPipe</text>
<text text-anchor="middle" x="645" y="-116.5" font-family="Helvetica,sans-Serif" font-size="10.00">::getFd</text>
</a>
</g>
</g>
<!-- Node5&#45;&gt;Node6 -->
<g id="edge5" class="edge"><title>Node5&#45;&gt;Node6</title>
<path fill="none" stroke="midnightblue" d="M546.591,-140.262C556.455,-138.666 566.79,-136.993 576.89,-135.359"/>
<polygon fill="midnightblue" stroke="midnightblue" points="577.573,-138.794 586.886,-133.742 576.455,-131.884 577.573,-138.794"/>
</g>
<!-- Node7&#45;&gt;Node6 -->
<g id="edge7" class="edge"><title>Node7&#45;&gt;Node6</title>
<path fill="none" stroke="midnightblue" d="M546.591,-109.369C556.455,-110.901 566.79,-112.506 576.89,-114.075"/>
<polygon fill="midnightblue" stroke="midnightblue" points="576.467,-117.551 586.886,-115.628 577.542,-110.634 576.467,-117.551"/>
</g>
<!-- Node9 -->
<g id="node9" class="node"><title>Node9</title>
<g id="a_node9"><a xlink:href="classplazza_1_1_process_manager.html#ad4dab5f3a6c4428075803708df27531a" target="_top" xlink:title="terminate the office ">
<polygon fill="none" stroke="black" points="426,-36.5 426,-66.5 551,-66.5 551,-36.5 426,-36.5"/>
<text text-anchor="start" x="434" y="-54.5" font-family="Helvetica,sans-Serif" font-size="10.00">plazza::ProcessManager</text>
<text text-anchor="middle" x="488.5" y="-43.5" font-family="Helvetica,sans-Serif" font-size="10.00">::kill</text>
</a>
</g>
</g>
<!-- Node8&#45;&gt;Node9 -->
<g id="edge9" class="edge"><title>Node8&#45;&gt;Node9</title>
<path fill="none" stroke="midnightblue" d="M382.735,-60.3152C393.271,-59.4286 404.593,-58.476 415.76,-57.5364"/>
<polygon fill="midnightblue" stroke="midnightblue" points="416.274,-61.0056 425.945,-56.6794 415.687,-54.0303 416.274,-61.0056"/>
</g>
<!-- Node10 -->
<g id="node10" class="node"><title>Node10</title>
<g id="a_node10"><a xlink:href="classplazza_1_1_office.html#a1f32b2702e30f57d8500edf91530f71c" target="_top" xlink:title="Get Office process pid. ">
<polygon fill="none" stroke="black" points="589.5,-42 589.5,-61 700.5,-61 700.5,-42 589.5,-42"/>
<text text-anchor="middle" x="645" y="-49" font-family="Helvetica,sans-Serif" font-size="10.00">plazza::Office::getPid</text>
</a>
</g>
</g>
<!-- Node9&#45;&gt;Node10 -->
<g id="edge10" class="edge"><title>Node9&#45;&gt;Node10</title>
<path fill="none" stroke="midnightblue" d="M551.006,-51.5C560.276,-51.5 569.862,-51.5 579.198,-51.5"/>
<polygon fill="midnightblue" stroke="midnightblue" points="579.205,-55.0001 589.205,-51.5 579.205,-48.0001 579.205,-55.0001"/>
</g>
</g>
</svg>
