<?xml version="1.0" encoding="UTF-8" standalone="no"?>
<!DOCTYPE svg PUBLIC "-//W3C//DTD SVG 1.1//EN"
 "http://www.w3.org/Graphics/SVG/1.1/DTD/svg11.dtd">
<!-- Generated by graphviz version 2.38.0 (20140413.2041)
 -->
<!-- Title: plazza::XorCracker::getKnownKeyLength Pages: 1 -->
<svg width="712pt" height="102pt"
 viewBox="0.00 0.00 712.00 101.50" xmlns="http://www.w3.org/2000/svg" xmlns:xlink="http://www.w3.org/1999/xlink">
<g id="graph0" class="graph" transform="scale(1 1) rotate(0) translate(4 97.5)">
<title>plazza::XorCracker::getKnownKeyLength</title>
<!-- Node1 -->
<g id="node1" class="node"><title>Node1</title>
<polygon fill="#bfbfbf" stroke="black" points="0,-24.5 0,-54.5 113,-54.5 113,-24.5 0,-24.5"/>
<text text-anchor="start" x="8" y="-42.5" font-family="Helvetica,sans-Serif" font-size="10.00">plazza::XorCracker</text>
<text text-anchor="middle" x="56.5" y="-31.5" font-family="Helvetica,sans-Serif" font-size="10.00">::getKnownKeyLength</text>
</g>
<!-- Node2 -->
<g id="node2" class="node"><title>Node2</title>
<g id="a_node2"><a xlink:href="classplazza_1_1_xor_cracker.html#aea0b940bf73740a1747d5a7a71fa6eb8" target="_top" xlink:title="plazza::XorCracker\l::getKeyXor">
<polygon fill="none" stroke="black" points="149,-49.5 149,-79.5 250,-79.5 250,-49.5 149,-49.5"/>
<text text-anchor="start" x="157" y="-67.5" font-family="Helvetica,sans-Serif" font-size="10.00">plazza::XorCracker</text>
<text text-anchor="middle" x="199.5" y="-56.5" font-family="Helvetica,sans-Serif" font-size="10.00">::getKeyXor</text>
</a>
</g>
</g>
<!-- Node1&#45;&gt;Node2 -->
<g id="edge1" class="edge"><title>Node1&#45;&gt;Node2</title>
<path fill="none" stroke="midnightblue" d="M123.204,-51.1496C131.765,-52.6676 140.422,-54.2024 148.665,-55.6639"/>
<polygon fill="midnightblue" stroke="midnightblue" points="123.684,-47.6803 113.227,-49.3807 122.462,-54.5728 123.684,-47.6803"/>
</g>
<!-- Node7 -->
<g id="node7" class="node"><title>Node7</title>
<g id="a_node7"><a xlink:href="classplazza_1_1_xor_cracker.html#a6cd011c228fb1cce2424815604ca2c9a" target="_top" xlink:title="plazza::XorCracker\l::getKeyCaesar">
<polygon fill="none" stroke="black" points="149,-0.5 149,-30.5 250,-30.5 250,-0.5 149,-0.5"/>
<text text-anchor="start" x="157" y="-18.5" font-family="Helvetica,sans-Serif" font-size="10.00">plazza::XorCracker</text>
<text text-anchor="middle" x="199.5" y="-7.5" font-family="Helvetica,sans-Serif" font-size="10.00">::getKeyCaesar</text>
</a>
</g>
</g>
<!-- Node1&#45;&gt;Node7 -->
<g id="edge7" class="edge"><title>Node1&#45;&gt;Node7</title>
<path fill="none" stroke="midnightblue" d="M123.204,-28.3164C131.765,-26.8591 140.422,-25.3857 148.665,-23.9826"/>
<polygon fill="midnightblue" stroke="midnightblue" points="122.498,-24.8861 113.227,-30.0146 123.672,-31.7869 122.498,-24.8861"/>
</g>
<!-- Node3 -->
<g id="node3" class="node"><title>Node3</title>
<g id="a_node3"><a xlink:href="classplazza_1_1_worker.html#af17344ef0f0311dadb4f7c7ea9565031" target="_top" xlink:title="Send task to perform to the worker. ">
<polygon fill="none" stroke="black" points="286,-30 286,-49 423,-49 423,-30 286,-30"/>
<text text-anchor="middle" x="354.5" y="-37" font-family="Helvetica,sans-Serif" font-size="10.00">plazza::Worker::performJob</text>
</a>
</g>
</g>
<!-- Node2&#45;&gt;Node3 -->
<g id="edge2" class="edge"><title>Node2&#45;&gt;Node3</title>
<path fill="none" stroke="midnightblue" d="M260.156,-54.7524C271.703,-52.8655 283.789,-50.8906 295.29,-49.0115"/>
<polygon fill="midnightblue" stroke="midnightblue" points="259.479,-51.3163 250.175,-56.3832 260.608,-58.2247 259.479,-51.3163"/>
</g>
<!-- Node4 -->
<g id="node4" class="node"><title>Node4</title>
<g id="a_node4"><a xlink:href="classplazza_1_1_worker.html#aa7561bf24cd0a90230ddd99b43b18a11" target="_top" xlink:title="Start thread execution. ">
<polygon fill="none" stroke="black" points="459,-74 459,-93 567,-93 567,-74 459,-74"/>
<text text-anchor="middle" x="513" y="-81" font-family="Helvetica,sans-Serif" font-size="10.00">plazza::Worker::start</text>
</a>
</g>
</g>
<!-- Node3&#45;&gt;Node4 -->
<g id="edge3" class="edge"><title>Node3&#45;&gt;Node4</title>
<path fill="none" stroke="midnightblue" d="M399.395,-51.8412C424.322,-58.8493 455.051,-67.4888 478.108,-73.9713"/>
<polygon fill="midnightblue" stroke="midnightblue" points="400.032,-48.3846 389.458,-49.0473 398.138,-55.1233 400.032,-48.3846"/>
</g>
<!-- Node5 -->
<g id="node5" class="node"><title>Node5</title>
<g id="a_node5"><a xlink:href="classplazza_1_1_thread_pool.html#a85b5323591017ee418afb0fdc9e3d9a7" target="_top" xlink:title="Get the number of total workers. ">
<polygon fill="none" stroke="black" points="462.5,-24.5 462.5,-54.5 563.5,-54.5 563.5,-24.5 462.5,-24.5"/>
<text text-anchor="start" x="470.5" y="-42.5" font-family="Helvetica,sans-Serif" font-size="10.00">plazza::ThreadPool</text>
<text text-anchor="middle" x="513" y="-31.5" font-family="Helvetica,sans-Serif" font-size="10.00">::getNbWorkers</text>
</a>
</g>
</g>
<!-- Node3&#45;&gt;Node5 -->
<g id="edge4" class="edge"><title>Node3&#45;&gt;Node5</title>
<path fill="none" stroke="midnightblue" d="M433.382,-39.5C443.148,-39.5 452.921,-39.5 462.094,-39.5"/>
<polygon fill="midnightblue" stroke="midnightblue" points="433.233,-36.0001 423.233,-39.5 433.233,-43.0001 433.233,-36.0001"/>
</g>
<!-- Node6 -->
<g id="node6" class="node"><title>Node6</title>
<g id="a_node6"><a xlink:href="classplazza_1_1_thread_pool.html#ae3447aa58cee4c5206d194f144d207c3" target="_top" xlink:title="Class constructor. ">
<polygon fill="none" stroke="black" points="603,-2.5 603,-32.5 704,-32.5 704,-2.5 603,-2.5"/>
<text text-anchor="start" x="611" y="-20.5" font-family="Helvetica,sans-Serif" font-size="10.00">plazza::ThreadPool</text>
<text text-anchor="middle" x="653.5" y="-9.5" font-family="Helvetica,sans-Serif" font-size="10.00">::ThreadPool</text>
</a>
</g>
</g>
<!-- Node3&#45;&gt;Node6 -->
<g id="edge6" class="edge"><title>Node3&#45;&gt;Node6</title>
<path fill="none" stroke="midnightblue" d="M398.157,-27.3039C416.685,-22.6081 438.744,-17.8178 459,-15.5 506.689,-10.0433 519.003,-14.9387 567,-15.5 578.581,-15.6354 591.041,-15.874 602.771,-16.1403"/>
<polygon fill="midnightblue" stroke="midnightblue" points="397.052,-23.9748 388.26,-29.8866 398.82,-30.748 397.052,-23.9748"/>
</g>
<!-- Node5&#45;&gt;Node6 -->
<g id="edge5" class="edge"><title>Node5&#45;&gt;Node6</title>
<path fill="none" stroke="midnightblue" d="M573.615,-30.0304C583.338,-28.4861 593.318,-26.9007 602.77,-25.3993"/>
<polygon fill="midnightblue" stroke="midnightblue" points="572.938,-26.5941 563.61,-31.6196 574.036,-33.5074 572.938,-26.5941"/>
</g>
<!-- Node7&#45;&gt;Node3 -->
<g id="edge8" class="edge"><title>Node7&#45;&gt;Node3</title>
<path fill="none" stroke="midnightblue" d="M260.264,-24.8747C270.964,-26.5532 282.123,-28.3037 292.848,-29.986"/>
<polygon fill="midnightblue" stroke="midnightblue" points="260.596,-21.3842 250.175,-23.2921 259.511,-28.2996 260.596,-21.3842"/>
</g>
</g>
</svg>
