<?xml version="1.0" encoding="UTF-8" standalone="no"?>
<!DOCTYPE svg PUBLIC "-//W3C//DTD SVG 1.1//EN"
 "http://www.w3.org/Graphics/SVG/1.1/DTD/svg11.dtd">
<!-- Generated by graphviz version 2.38.0 (20140413.2041)
 -->
<!-- Title: plazza::ConnectorPipe::sendData Pages: 1 -->
<svg width="1581pt" height="319pt"
 viewBox="0.00 0.00 1581.00 318.66" xmlns="http://www.w3.org/2000/svg" xmlns:xlink="http://www.w3.org/1999/xlink">
<g id="graph0" class="graph" transform="scale(1 1) rotate(0) translate(4 314.658)">
<title>plazza::ConnectorPipe::sendData</title>
<!-- Node1 -->
<g id="node1" class="node"><title>Node1</title>
<polygon fill="#bfbfbf" stroke="black" points="0,-201.158 0,-231.158 116,-231.158 116,-201.158 0,-201.158"/>
<text text-anchor="start" x="8" y="-219.158" font-family="Helvetica,sans-Serif" font-size="10.00">plazza::ConnectorPipe</text>
<text text-anchor="middle" x="58" y="-208.158" font-family="Helvetica,sans-Serif" font-size="10.00">::sendData</text>
</g>
<!-- Node2 -->
<g id="node2" class="node"><title>Node2</title>
<g id="a_node2"><a xlink:href="classplazza_1_1_connector_pipe.html#a6a5aa2b09b3f85badda3ff5161e86f74" target="_top" xlink:title="plazza::ConnectorPipe\l::transfertData">
<polygon fill="none" stroke="black" points="152,-160.158 152,-190.158 268,-190.158 268,-160.158 152,-160.158"/>
<text text-anchor="start" x="160" y="-178.158" font-family="Helvetica,sans-Serif" font-size="10.00">plazza::ConnectorPipe</text>
<text text-anchor="middle" x="210" y="-167.158" font-family="Helvetica,sans-Serif" font-size="10.00">::transfertData</text>
</a>
</g>
</g>
<!-- Node1&#45;&gt;Node2 -->
<g id="edge1" class="edge"><title>Node1&#45;&gt;Node2</title>
<path fill="none" stroke="midnightblue" d="M123.921,-198.413C133.949,-195.672 144.221,-192.865 154.004,-190.191"/>
<polygon fill="midnightblue" stroke="midnightblue" points="122.726,-195.111 114.003,-201.124 124.572,-201.864 122.726,-195.111"/>
</g>
<!-- Node3 -->
<g id="node3" class="node"><title>Node3</title>
<g id="a_node3"><a xlink:href="classplazza_1_1_connector_pipe.html#aa37f2c5398dcbc14b774e763855eff2c" target="_top" xlink:title="plazza::ConnectorPipe\l::setMode">
<polygon fill="none" stroke="black" points="321.5,-280.158 321.5,-310.158 437.5,-310.158 437.5,-280.158 321.5,-280.158"/>
<text text-anchor="start" x="329.5" y="-298.158" font-family="Helvetica,sans-Serif" font-size="10.00">plazza::ConnectorPipe</text>
<text text-anchor="middle" x="379.5" y="-287.158" font-family="Helvetica,sans-Serif" font-size="10.00">::setMode</text>
</a>
</g>
</g>
<!-- Node1&#45;&gt;Node3 -->
<g id="edge20" class="edge"><title>Node1&#45;&gt;Node3</title>
<path fill="none" stroke="midnightblue" d="M125.902,-232.701C183.764,-247.008 266.517,-267.469 321.337,-281.024"/>
<polygon fill="midnightblue" stroke="midnightblue" points="126.668,-229.285 116.12,-230.282 124.988,-236.08 126.668,-229.285"/>
</g>
<!-- Node2&#45;&gt;Node3 -->
<g id="edge2" class="edge"><title>Node2&#45;&gt;Node3</title>
<path fill="none" stroke="midnightblue" d="M230.073,-198.078C247.606,-217.972 275.182,-246.445 304,-265.158 312.888,-270.929 323.064,-275.918 332.981,-280.08"/>
<polygon fill="midnightblue" stroke="midnightblue" points="232.611,-195.662 223.42,-190.391 227.318,-200.243 232.611,-195.662"/>
</g>
<!-- Node4 -->
<g id="node4" class="node"><title>Node4</title>
<g id="a_node4"><a xlink:href="classplazza_1_1_office.html#a04316c75e42181f331b214729c8e7909" target="_top" xlink:title="Close the office. ">
<polygon fill="none" stroke="black" points="504.5,-241.658 504.5,-260.658 611.5,-260.658 611.5,-241.658 504.5,-241.658"/>
<text text-anchor="middle" x="558" y="-248.658" font-family="Helvetica,sans-Serif" font-size="10.00">plazza::Office::close</text>
</a>
</g>
</g>
<!-- Node2&#45;&gt;Node4 -->
<g id="edge3" class="edge"><title>Node2&#45;&gt;Node4</title>
<path fill="none" stroke="midnightblue" d="M240.656,-195.943C258.242,-207.165 281.442,-220.126 304,-227.158 370.973,-248.038 452.35,-252.239 504.402,-252.425"/>
<polygon fill="midnightblue" stroke="midnightblue" points="242.287,-192.827 232.005,-190.274 238.45,-198.682 242.287,-192.827"/>
</g>
<!-- Node11 -->
<g id="node11" class="node"><title>Node11</title>
<g id="a_node11"><a xlink:href="classplazza_1_1_office.html#a9b483976ff17c8c541d34f8ce7098c38" target="_top" xlink:title="Get task for the private pipe. ">
<polygon fill="none" stroke="black" points="661,-184.658 661,-203.658 780,-203.658 780,-184.658 661,-184.658"/>
<text text-anchor="middle" x="720.5" y="-191.658" font-family="Helvetica,sans-Serif" font-size="10.00">plazza::Office::getTask</text>
</a>
</g>
</g>
<!-- Node2&#45;&gt;Node11 -->
<g id="edge10" class="edge"><title>Node2&#45;&gt;Node11</title>
<path fill="none" stroke="midnightblue" d="M278.296,-190.567C286.906,-192.049 295.633,-193.312 304,-194.158 430.673,-206.966 580.182,-202.113 660.825,-197.864"/>
<polygon fill="midnightblue" stroke="midnightblue" points="278.735,-187.09 268.27,-188.741 277.48,-193.977 278.735,-187.09"/>
</g>
<!-- Node12 -->
<g id="node12" class="node"><title>Node12</title>
<g id="a_node12"><a xlink:href="classplazza_1_1_office.html#a40e5e47be8961ded30ee24e588a04e51" target="_top" xlink:title="Finish the task and send it to the server. ">
<polygon fill="none" stroke="black" points="307,-165.658 307,-184.658 452,-184.658 452,-165.658 307,-165.658"/>
<text text-anchor="middle" x="379.5" y="-172.658" font-family="Helvetica,sans-Serif" font-size="10.00">plazza::Office::completeTask</text>
</a>
</g>
</g>
<!-- Node2&#45;&gt;Node12 -->
<g id="edge12" class="edge"><title>Node2&#45;&gt;Node12</title>
<path fill="none" stroke="midnightblue" d="M278.229,-175.158C287.621,-175.158 297.301,-175.158 306.771,-175.158"/>
<polygon fill="midnightblue" stroke="midnightblue" points="278.176,-171.658 268.176,-175.158 278.175,-178.658 278.176,-171.658"/>
</g>
<!-- Node14 -->
<g id="node14" class="node"><title>Node14</title>
<g id="a_node14"><a xlink:href="classplazza_1_1_office.html#a74ec46ef5ec705eac7a7d549742d66f0" target="_top" xlink:title="Function called when a worker finish a task. ">
<polygon fill="none" stroke="black" points="304,-127.658 304,-146.658 455,-146.658 455,-127.658 304,-127.658"/>
<text text-anchor="middle" x="379.5" y="-134.658" font-family="Helvetica,sans-Serif" font-size="10.00">plazza::Office::workerCallback</text>
</a>
</g>
</g>
<!-- Node2&#45;&gt;Node14 -->
<g id="edge15" class="edge"><title>Node2&#45;&gt;Node14</title>
<path fill="none" stroke="midnightblue" d="M278.028,-159.952C297.728,-155.483 318.714,-150.722 336.385,-146.713"/>
<polygon fill="midnightblue" stroke="midnightblue" points="277.153,-156.561 268.176,-162.187 278.702,-163.388 277.153,-156.561"/>
</g>
<!-- Node15 -->
<g id="node15" class="node"><title>Node15</title>
<g id="a_node15"><a xlink:href="classplazza_1_1_office.html#a7763a2b3e1b8ca78e6422f7c84560418" target="_top" xlink:title="plazza::Office::assignTask">
<polygon fill="none" stroke="black" points="312.5,-89.6584 312.5,-108.658 446.5,-108.658 446.5,-89.6584 312.5,-89.6584"/>
<text text-anchor="middle" x="379.5" y="-96.6584" font-family="Helvetica,sans-Serif" font-size="10.00">plazza::Office::assignTask</text>
</a>
</g>
</g>
<!-- Node2&#45;&gt;Node15 -->
<g id="edge16" class="edge"><title>Node2&#45;&gt;Node15</title>
<path fill="none" stroke="midnightblue" d="M240.161,-154.134C257.9,-142.164 281.421,-127.699 304,-118.158 312.853,-114.418 322.619,-111.278 332.084,-108.698"/>
<polygon fill="midnightblue" stroke="midnightblue" points="237.703,-151.576 231.447,-160.127 241.67,-157.344 237.703,-151.576"/>
</g>
<!-- Node16 -->
<g id="node16" class="node"><title>Node16</title>
<g id="a_node16"><a xlink:href="classplazza_1_1_reception.html#a9a68bacf594c0fd148eb011e7f807184" target="_top" xlink:title="Flush the server data. ">
<polygon fill="none" stroke="black" points="329,-40.1584 329,-70.1584 430,-70.1584 430,-40.1584 329,-40.1584"/>
<text text-anchor="start" x="337" y="-58.1584" font-family="Helvetica,sans-Serif" font-size="10.00">plazza::Reception::</text>
<text text-anchor="middle" x="379.5" y="-47.1584" font-family="Helvetica,sans-Serif" font-size="10.00">flushServerData</text>
</a>
</g>
</g>
<!-- Node2&#45;&gt;Node16 -->
<g id="edge17" class="edge"><title>Node2&#45;&gt;Node16</title>
<path fill="none" stroke="midnightblue" d="M228.147,-152.217C245.224,-130.83 273.269,-99.4208 304,-80.1584 311.629,-75.3762 320.277,-71.3982 328.91,-68.1275"/>
<polygon fill="midnightblue" stroke="midnightblue" points="225.345,-150.117 221.945,-160.152 230.861,-154.428 225.345,-150.117"/>
</g>
<!-- Node17 -->
<g id="node17" class="node"><title>Node17</title>
<g id="a_node17"><a xlink:href="classplazza_1_1_reception.html#a7389b5af68c57d0547f3ba41278c2002" target="_top" xlink:title="Send a task. ">
<polygon fill="none" stroke="black" points="670,-66.1584 670,-96.1584 771,-96.1584 771,-66.1584 670,-66.1584"/>
<text text-anchor="start" x="678" y="-84.1584" font-family="Helvetica,sans-Serif" font-size="10.00">plazza::Reception::</text>
<text text-anchor="middle" x="720.5" y="-73.1584" font-family="Helvetica,sans-Serif" font-size="10.00">sendTask</text>
</a>
</g>
</g>
<!-- Node2&#45;&gt;Node17 -->
<g id="edge18" class="edge"><title>Node2&#45;&gt;Node17</title>
<path fill="none" stroke="midnightblue" d="M218.524,-150.395C230.415,-116.179 257.15,-55.7679 304,-30.1584 433.136,40.4315 617.956,-32.565 689.564,-66.1582"/>
<polygon fill="midnightblue" stroke="midnightblue" points="215.13,-149.513 215.305,-160.106 221.774,-151.716 215.13,-149.513"/>
</g>
<!-- Node5 -->
<g id="node5" class="node"><title>Node5</title>
<g id="a_node5"><a xlink:href="classplazza_1_1_office.html#a7c431da08f4460a011363f11f7066889" target="_top" xlink:title="Start the office. ">
<polygon fill="none" stroke="black" points="816,-184.658 816,-203.658 913,-203.658 913,-184.658 816,-184.658"/>
<text text-anchor="middle" x="864.5" y="-191.658" font-family="Helvetica,sans-Serif" font-size="10.00">plazza::Office::run</text>
</a>
</g>
</g>
<!-- Node4&#45;&gt;Node5 -->
<g id="edge4" class="edge"><title>Node4&#45;&gt;Node5</title>
<path fill="none" stroke="midnightblue" d="M621.884,-241.264C666.199,-234.067 726.871,-223.763 780,-213.158 794.288,-210.307 809.873,-206.854 823.669,-203.678"/>
<polygon fill="midnightblue" stroke="midnightblue" points="621.151,-237.837 611.837,-242.888 622.268,-244.747 621.151,-237.837"/>
</g>
<!-- Node6 -->
<g id="node6" class="node"><title>Node6</title>
<g id="a_node6"><a xlink:href="classplazza_1_1_process_manager.html#aaf7eabb8ae524f2faa9b152aa178a30b" target="_top" xlink:title="create an Office ">
<polygon fill="none" stroke="black" points="949,-145.158 949,-175.158 1074,-175.158 1074,-145.158 949,-145.158"/>
<text text-anchor="start" x="957" y="-163.158" font-family="Helvetica,sans-Serif" font-size="10.00">plazza::ProcessManager</text>
<text text-anchor="middle" x="1011.5" y="-152.158" font-family="Helvetica,sans-Serif" font-size="10.00">::spawn</text>
</a>
</g>
</g>
<!-- Node5&#45;&gt;Node6 -->
<g id="edge5" class="edge"><title>Node5&#45;&gt;Node6</title>
<path fill="none" stroke="midnightblue" d="M916.168,-182.278C926.738,-179.799 937.991,-177.16 948.907,-174.601"/>
<polygon fill="midnightblue" stroke="midnightblue" points="915.213,-178.906 906.276,-184.597 916.811,-185.722 915.213,-178.906"/>
</g>
<!-- Node7 -->
<g id="node7" class="node"><title>Node7</title>
<g id="a_node7"><a xlink:href="classplazza_1_1_reception.html#a7e1b50160865f662607dcddcbd9434f9" target="_top" xlink:title="Create an office. ">
<polygon fill="none" stroke="black" points="1110,-128.158 1110,-158.158 1211,-158.158 1211,-128.158 1110,-128.158"/>
<text text-anchor="start" x="1118" y="-146.158" font-family="Helvetica,sans-Serif" font-size="10.00">plazza::Reception::</text>
<text text-anchor="middle" x="1160.5" y="-135.158" font-family="Helvetica,sans-Serif" font-size="10.00">createOffice</text>
</a>
</g>
</g>
<!-- Node6&#45;&gt;Node7 -->
<g id="edge6" class="edge"><title>Node6&#45;&gt;Node7</title>
<path fill="none" stroke="midnightblue" d="M1084.41,-151.842C1092.97,-150.853 1101.55,-149.86 1109.7,-148.918"/>
<polygon fill="midnightblue" stroke="midnightblue" points="1083.95,-148.372 1074.42,-152.998 1084.75,-155.326 1083.95,-148.372"/>
</g>
<!-- Node8 -->
<g id="node8" class="node"><title>Node8</title>
<g id="a_node8"><a xlink:href="classplazza_1_1_reception.html#a7aa64f05388780e369663cd6800578ae" target="_top" xlink:title="Assign a task to the queue. ">
<polygon fill="none" stroke="black" points="1247,-101.158 1247,-131.158 1348,-131.158 1348,-101.158 1247,-101.158"/>
<text text-anchor="start" x="1255" y="-119.158" font-family="Helvetica,sans-Serif" font-size="10.00">plazza::Reception::</text>
<text text-anchor="middle" x="1297.5" y="-108.158" font-family="Helvetica,sans-Serif" font-size="10.00">assignTask</text>
</a>
</g>
</g>
<!-- Node7&#45;&gt;Node8 -->
<g id="edge7" class="edge"><title>Node7&#45;&gt;Node8</title>
<path fill="none" stroke="midnightblue" d="M1220.93,-131.273C1229.48,-129.562 1238.21,-127.817 1246.55,-126.148"/>
<polygon fill="midnightblue" stroke="midnightblue" points="1220.12,-127.865 1211,-133.258 1221.49,-134.729 1220.12,-127.865"/>
</g>
<!-- Node9 -->
<g id="node9" class="node"><title>Node9</title>
<g id="a_node9"><a xlink:href="classplazza_1_1_reception.html#add69bb3defc0d810a8f4fe2cdceacbb1" target="_top" xlink:title="run the office ">
<polygon fill="none" stroke="black" points="1384,-106.658 1384,-125.658 1499,-125.658 1499,-106.658 1384,-106.658"/>
<text text-anchor="middle" x="1441.5" y="-113.658" font-family="Helvetica,sans-Serif" font-size="10.00">plazza::Reception::run</text>
</a>
</g>
</g>
<!-- Node8&#45;&gt;Node9 -->
<g id="edge8" class="edge"><title>Node8&#45;&gt;Node9</title>
<path fill="none" stroke="midnightblue" d="M1358.33,-116.158C1366.77,-116.158 1375.43,-116.158 1383.82,-116.158"/>
<polygon fill="midnightblue" stroke="midnightblue" points="1358.16,-112.658 1348.16,-116.158 1358.16,-119.658 1358.16,-112.658"/>
</g>
<!-- Node10 -->
<g id="node10" class="node"><title>Node10</title>
<g id="a_node10"><a xlink:href="gui_2sources_2main_8cpp.html#adacbe0175a79dff748855d8c9839f82b" target="_top" xlink:title="main">
<polygon fill="none" stroke="black" points="1535,-106.658 1535,-125.658 1573,-125.658 1573,-106.658 1535,-106.658"/>
<text text-anchor="middle" x="1554" y="-113.658" font-family="Helvetica,sans-Serif" font-size="10.00">main</text>
</a>
</g>
</g>
<!-- Node9&#45;&gt;Node10 -->
<g id="edge9" class="edge"><title>Node9&#45;&gt;Node10</title>
<path fill="none" stroke="midnightblue" d="M1509.3,-116.158C1518.63,-116.158 1527.5,-116.158 1534.78,-116.158"/>
<polygon fill="midnightblue" stroke="midnightblue" points="1509.04,-112.658 1499.04,-116.158 1509.04,-119.658 1509.04,-112.658"/>
</g>
<!-- Node11&#45;&gt;Node5 -->
<g id="edge11" class="edge"><title>Node11&#45;&gt;Node5</title>
<path fill="none" stroke="midnightblue" d="M790.216,-194.158C798.897,-194.158 807.624,-194.158 815.877,-194.158"/>
<polygon fill="midnightblue" stroke="midnightblue" points="790.077,-190.658 780.077,-194.158 790.077,-197.658 790.077,-190.658"/>
</g>
<!-- Node13 -->
<g id="node13" class="node"><title>Node13</title>
<g id="a_node13"><a xlink:href="classplazza_1_1_office.html#af53d889fe196fec1a3dcd1d738977048" target="_top" xlink:title="plazza::Office::assignTask">
<polygon fill="none" stroke="black" points="491,-165.658 491,-184.658 625,-184.658 625,-165.658 491,-165.658"/>
<text text-anchor="middle" x="558" y="-172.658" font-family="Helvetica,sans-Serif" font-size="10.00">plazza::Office::assignTask</text>
</a>
</g>
</g>
<!-- Node12&#45;&gt;Node13 -->
<g id="edge13" class="edge"><title>Node12&#45;&gt;Node13</title>
<path fill="none" stroke="midnightblue" d="M462.321,-175.158C471.855,-175.158 481.491,-175.158 490.779,-175.158"/>
<polygon fill="midnightblue" stroke="midnightblue" points="462.035,-171.658 452.035,-175.158 462.035,-178.658 462.035,-171.658"/>
</g>
<!-- Node13&#45;&gt;Node11 -->
<g id="edge14" class="edge"><title>Node13&#45;&gt;Node11</title>
<path fill="none" stroke="midnightblue" d="M635.266,-184.187C643.877,-185.206 652.55,-186.233 660.887,-187.22"/>
<polygon fill="midnightblue" stroke="midnightblue" points="635.55,-180.696 625.208,-182.996 634.727,-187.648 635.55,-180.696"/>
</g>
<!-- Node17&#45;&gt;Node8 -->
<g id="edge19" class="edge"><title>Node17&#45;&gt;Node8</title>
<path fill="none" stroke="midnightblue" d="M781.297,-84.7982C895.222,-91.7328 1141.42,-106.719 1246.89,-113.139"/>
<polygon fill="midnightblue" stroke="midnightblue" points="781.216,-81.2869 771.022,-84.1728 780.791,-88.274 781.216,-81.2869"/>
</g>
</g>
</svg>
