<?xml version="1.0" encoding="UTF-8" standalone="no"?>
<!DOCTYPE svg PUBLIC "-//W3C//DTD SVG 1.1//EN"
 "http://www.w3.org/Graphics/SVG/1.1/DTD/svg11.dtd">
<!-- Generated by graphviz version 2.38.0 (20140413.2041)
 -->
<!-- Title: plazza::File::load Pages: 1 -->
<svg width="245pt" height="66pt"
 viewBox="0.00 0.00 245.00 66.00" xmlns="http://www.w3.org/2000/svg" xmlns:xlink="http://www.w3.org/1999/xlink">
<g id="graph0" class="graph" transform="scale(1 1) rotate(0) translate(4 62)">
<title>plazza::File::load</title>
<!-- Node1 -->
<g id="node1" class="node"><title>Node1</title>
<polygon fill="#bfbfbf" stroke="black" points="0,-19.5 0,-38.5 91,-38.5 91,-19.5 0,-19.5"/>
<text text-anchor="middle" x="45.5" y="-26.5" font-family="Helvetica,sans-Serif" font-size="10.00">plazza::File::load</text>
</g>
<!-- Node2 -->
<g id="node2" class="node"><title>Node2</title>
<g id="a_node2"><a xlink:href="classplazza_1_1_file.html#aad99fa99466b458697a29effd5677b96" target="_top" xlink:title="Define file state. ">
<polygon fill="none" stroke="black" points="127,-38.5 127,-57.5 237,-57.5 237,-38.5 127,-38.5"/>
<text text-anchor="middle" x="182" y="-45.5" font-family="Helvetica,sans-Serif" font-size="10.00">plazza::File::setOpen</text>
</a>
</g>
</g>
<!-- Node1&#45;&gt;Node2 -->
<g id="edge1" class="edge"><title>Node1&#45;&gt;Node2</title>
<path fill="none" stroke="midnightblue" d="M91.2866,-35.3267C99.4155,-36.4751 108.039,-37.6933 116.601,-38.9028"/>
<polygon fill="midnightblue" stroke="midnightblue" points="116.199,-42.3807 126.591,-40.3139 117.178,-35.4495 116.199,-42.3807"/>
</g>
<!-- Node3 -->
<g id="node3" class="node"><title>Node3</title>
<g id="a_node3"><a xlink:href="classplazza_1_1_file.html#a928bc2918fada3f1c04ca30d73e18341" target="_top" xlink:title="Check if file is loaded. ">
<polygon fill="none" stroke="black" points="130,-0.5 130,-19.5 234,-19.5 234,-0.5 130,-0.5"/>
<text text-anchor="middle" x="182" y="-7.5" font-family="Helvetica,sans-Serif" font-size="10.00">plazza::File::isOpen</text>
</a>
</g>
</g>
<!-- Node1&#45;&gt;Node3 -->
<g id="edge2" class="edge"><title>Node1&#45;&gt;Node3</title>
<path fill="none" stroke="midnightblue" d="M91.2866,-22.6733C100.475,-21.3753 110.295,-19.9881 119.943,-18.6251"/>
<polygon fill="midnightblue" stroke="midnightblue" points="120.49,-22.0827 129.903,-17.2182 119.511,-15.1515 120.49,-22.0827"/>
</g>
</g>
</svg>
