<?xml version="1.0" encoding="UTF-8" standalone="no"?>
<!DOCTYPE svg PUBLIC "-//W3C//DTD SVG 1.1//EN"
 "http://www.w3.org/Graphics/SVG/1.1/DTD/svg11.dtd">
<!-- Generated by graphviz version 2.38.0 (20140413.2041)
 -->
<!-- Title: plazza::Reception::flushServerData Pages: 1 -->
<svg width="574pt" height="232pt"
 viewBox="0.00 0.00 574.00 232.00" xmlns="http://www.w3.org/2000/svg" xmlns:xlink="http://www.w3.org/1999/xlink">
<g id="graph0" class="graph" transform="scale(1 1) rotate(0) translate(4 228)">
<title>plazza::Reception::flushServerData</title>
<!-- Node1 -->
<g id="node1" class="node"><title>Node1</title>
<polygon fill="#bfbfbf" stroke="black" points="0,-71.5 0,-101.5 101,-101.5 101,-71.5 0,-71.5"/>
<text text-anchor="start" x="8" y="-89.5" font-family="Helvetica,sans-Serif" font-size="10.00">plazza::Reception::</text>
<text text-anchor="middle" x="50.5" y="-78.5" font-family="Helvetica,sans-Serif" font-size="10.00">flushServerData</text>
</g>
<!-- Node2 -->
<g id="node2" class="node"><title>Node2</title>
<g id="a_node2"><a xlink:href="classplazza_1_1_connector_pipe.html#a6a5aa2b09b3f85badda3ff5161e86f74" target="_top" xlink:title="plazza::ConnectorPipe\l::transfertData">
<polygon fill="none" stroke="black" points="137,-142.5 137,-172.5 253,-172.5 253,-142.5 137,-142.5"/>
<text text-anchor="start" x="145" y="-160.5" font-family="Helvetica,sans-Serif" font-size="10.00">plazza::ConnectorPipe</text>
<text text-anchor="middle" x="195" y="-149.5" font-family="Helvetica,sans-Serif" font-size="10.00">::transfertData</text>
</a>
</g>
</g>
<!-- Node1&#45;&gt;Node2 -->
<g id="edge1" class="edge"><title>Node1&#45;&gt;Node2</title>
<path fill="none" stroke="midnightblue" d="M81.7206,-101.557C102.975,-112.147 131.619,-126.419 154.655,-137.896"/>
<polygon fill="midnightblue" stroke="midnightblue" points="153.312,-141.138 163.823,-142.464 156.433,-134.872 153.312,-141.138"/>
</g>
<!-- Node7 -->
<g id="node7" class="node"><title>Node7</title>
<g id="a_node7"><a xlink:href="class_main_window.html#accc8bcd460991dc1d459371accea3d44" target="_top" xlink:title="MainWindow::getUi">
<polygon fill="none" stroke="black" points="144,-99 144,-118 246,-118 246,-99 144,-99"/>
<text text-anchor="middle" x="195" y="-106" font-family="Helvetica,sans-Serif" font-size="10.00">MainWindow::getUi</text>
</a>
</g>
</g>
<!-- Node1&#45;&gt;Node7 -->
<g id="edge7" class="edge"><title>Node1&#45;&gt;Node7</title>
<path fill="none" stroke="midnightblue" d="M101.34,-94.1945C111.801,-95.8096 122.941,-97.5295 133.737,-99.1962"/>
<polygon fill="midnightblue" stroke="midnightblue" points="133.531,-102.706 143.948,-100.773 134.599,-95.7877 133.531,-102.706"/>
</g>
<!-- Node8 -->
<g id="node8" class="node"><title>Node8</title>
<g id="a_node8"><a xlink:href="classplazza_1_1_reception.html#a7008f2d6490fcbd68ae4a34d9fe6b37d" target="_top" xlink:title="remove the office specified as office_id ">
<polygon fill="none" stroke="black" points="144.5,-49.5 144.5,-79.5 245.5,-79.5 245.5,-49.5 144.5,-49.5"/>
<text text-anchor="start" x="152.5" y="-67.5" font-family="Helvetica,sans-Serif" font-size="10.00">plazza::Reception::</text>
<text text-anchor="middle" x="195" y="-56.5" font-family="Helvetica,sans-Serif" font-size="10.00">removeOffice</text>
</a>
</g>
</g>
<!-- Node1&#45;&gt;Node8 -->
<g id="edge8" class="edge"><title>Node1&#45;&gt;Node8</title>
<path fill="none" stroke="midnightblue" d="M101.34,-78.8055C112.032,-77.1548 123.433,-75.3946 134.45,-73.6936"/>
<polygon fill="midnightblue" stroke="midnightblue" points="135.08,-77.1379 144.429,-72.153 134.012,-70.2199 135.08,-77.1379"/>
</g>
<!-- Node11 -->
<g id="node11" class="node"><title>Node11</title>
<g id="a_node11"><a xlink:href="classplazza_1_1_reception.html#ac663c7aa11a6b68ef0cef4d40e71006f" target="_top" xlink:title="Called when a task has ended. ">
<polygon fill="none" stroke="black" points="144.5,-0.5 144.5,-30.5 245.5,-30.5 245.5,-0.5 144.5,-0.5"/>
<text text-anchor="start" x="152.5" y="-18.5" font-family="Helvetica,sans-Serif" font-size="10.00">plazza::Reception::</text>
<text text-anchor="middle" x="195" y="-7.5" font-family="Helvetica,sans-Serif" font-size="10.00">completeTask</text>
</a>
</g>
</g>
<!-- Node1&#45;&gt;Node11 -->
<g id="edge11" class="edge"><title>Node1&#45;&gt;Node11</title>
<path fill="none" stroke="midnightblue" d="M77.3249,-71.3857C94.0994,-61.7985 116.567,-49.3844 137,-39.5 140.338,-37.8854 143.812,-36.2697 147.325,-34.6825"/>
<polygon fill="midnightblue" stroke="midnightblue" points="148.914,-37.8074 156.65,-30.5684 146.088,-31.403 148.914,-37.8074"/>
</g>
<!-- Node3 -->
<g id="node3" class="node"><title>Node3</title>
<g id="a_node3"><a xlink:href="classplazza_1_1_connector_pipe.html#ac96ba32f2efbdaa1b0371ea98532b40b" target="_top" xlink:title="plazza::ConnectorPipe\l::getMode">
<polygon fill="none" stroke="black" points="293.5,-193.5 293.5,-223.5 409.5,-223.5 409.5,-193.5 293.5,-193.5"/>
<text text-anchor="start" x="301.5" y="-211.5" font-family="Helvetica,sans-Serif" font-size="10.00">plazza::ConnectorPipe</text>
<text text-anchor="middle" x="351.5" y="-200.5" font-family="Helvetica,sans-Serif" font-size="10.00">::getMode</text>
</a>
</g>
</g>
<!-- Node2&#45;&gt;Node3 -->
<g id="edge2" class="edge"><title>Node2&#45;&gt;Node3</title>
<path fill="none" stroke="midnightblue" d="M241.519,-172.526C258.418,-178.104 277.768,-184.491 295.428,-190.321"/>
<polygon fill="midnightblue" stroke="midnightblue" points="294.446,-193.682 305.039,-193.494 296.64,-187.035 294.446,-193.682"/>
</g>
<!-- Node4 -->
<g id="node4" class="node"><title>Node4</title>
<g id="a_node4"><a xlink:href="classplazza_1_1_connector_pipe.html#a7570f6cfb8520505247db4727d45bed1" target="_top" xlink:title="plazza::ConnectorPipe\l::receiveData">
<polygon fill="none" stroke="black" points="293.5,-144.5 293.5,-174.5 409.5,-174.5 409.5,-144.5 293.5,-144.5"/>
<text text-anchor="start" x="301.5" y="-162.5" font-family="Helvetica,sans-Serif" font-size="10.00">plazza::ConnectorPipe</text>
<text text-anchor="middle" x="351.5" y="-151.5" font-family="Helvetica,sans-Serif" font-size="10.00">::receiveData</text>
</a>
</g>
</g>
<!-- Node2&#45;&gt;Node4 -->
<g id="edge3" class="edge"><title>Node2&#45;&gt;Node4</title>
<path fill="none" stroke="midnightblue" d="M253.091,-158.239C262.852,-158.365 273.075,-158.498 283.075,-158.627"/>
<polygon fill="midnightblue" stroke="midnightblue" points="283.341,-162.131 293.386,-158.761 283.432,-155.131 283.341,-162.131"/>
</g>
<!-- Node6 -->
<g id="node6" class="node"><title>Node6</title>
<g id="a_node6"><a xlink:href="classplazza_1_1_connector_pipe.html#ad8062cefc673b98824dff56b5534a056" target="_top" xlink:title="plazza::ConnectorPipe\l::sendData">
<polygon fill="none" stroke="black" points="293.5,-95.5 293.5,-125.5 409.5,-125.5 409.5,-95.5 293.5,-95.5"/>
<text text-anchor="start" x="301.5" y="-113.5" font-family="Helvetica,sans-Serif" font-size="10.00">plazza::ConnectorPipe</text>
<text text-anchor="middle" x="351.5" y="-102.5" font-family="Helvetica,sans-Serif" font-size="10.00">::sendData</text>
</a>
</g>
</g>
<!-- Node2&#45;&gt;Node6 -->
<g id="edge5" class="edge"><title>Node2&#45;&gt;Node6</title>
<path fill="none" stroke="midnightblue" d="M245.31,-142.5C259.943,-138.048 276.122,-133.126 291.314,-128.505"/>
<polygon fill="midnightblue" stroke="midnightblue" points="292.581,-131.778 301.129,-125.519 290.543,-125.081 292.581,-131.778"/>
</g>
<!-- Node5 -->
<g id="node5" class="node"><title>Node5</title>
<g id="a_node5"><a xlink:href="classplazza_1_1_connector_pipe.html#a81c0af2d4860745accb6ddf522180740" target="_top" xlink:title="plazza::ConnectorPipe\l::getFd">
<polygon fill="none" stroke="black" points="450,-119.5 450,-149.5 566,-149.5 566,-119.5 450,-119.5"/>
<text text-anchor="start" x="458" y="-137.5" font-family="Helvetica,sans-Serif" font-size="10.00">plazza::ConnectorPipe</text>
<text text-anchor="middle" x="508" y="-126.5" font-family="Helvetica,sans-Serif" font-size="10.00">::getFd</text>
</a>
</g>
</g>
<!-- Node4&#45;&gt;Node5 -->
<g id="edge4" class="edge"><title>Node4&#45;&gt;Node5</title>
<path fill="none" stroke="midnightblue" d="M409.591,-150.262C419.455,-148.666 429.79,-146.993 439.89,-145.359"/>
<polygon fill="midnightblue" stroke="midnightblue" points="440.573,-148.794 449.886,-143.742 439.455,-141.884 440.573,-148.794"/>
</g>
<!-- Node6&#45;&gt;Node5 -->
<g id="edge6" class="edge"><title>Node6&#45;&gt;Node5</title>
<path fill="none" stroke="midnightblue" d="M409.591,-119.369C419.455,-120.901 429.79,-122.506 439.89,-124.075"/>
<polygon fill="midnightblue" stroke="midnightblue" points="439.467,-127.551 449.886,-125.628 440.542,-120.634 439.467,-127.551"/>
</g>
<!-- Node9 -->
<g id="node9" class="node"><title>Node9</title>
<g id="a_node9"><a xlink:href="classplazza_1_1_process_manager.html#ad4dab5f3a6c4428075803708df27531a" target="_top" xlink:title="terminate the office ">
<polygon fill="none" stroke="black" points="289,-46.5 289,-76.5 414,-76.5 414,-46.5 289,-46.5"/>
<text text-anchor="start" x="297" y="-64.5" font-family="Helvetica,sans-Serif" font-size="10.00">plazza::ProcessManager</text>
<text text-anchor="middle" x="351.5" y="-53.5" font-family="Helvetica,sans-Serif" font-size="10.00">::kill</text>
</a>
</g>
</g>
<!-- Node8&#45;&gt;Node9 -->
<g id="edge9" class="edge"><title>Node8&#45;&gt;Node9</title>
<path fill="none" stroke="midnightblue" d="M245.735,-63.5343C256.271,-63.3297 267.593,-63.1099 278.76,-62.893"/>
<polygon fill="midnightblue" stroke="midnightblue" points="279.015,-66.3888 288.945,-62.6952 278.879,-59.3901 279.015,-66.3888"/>
</g>
<!-- Node10 -->
<g id="node10" class="node"><title>Node10</title>
<g id="a_node10"><a xlink:href="classplazza_1_1_office.html#a1f32b2702e30f57d8500edf91530f71c" target="_top" xlink:title="Get Office process pid. ">
<polygon fill="none" stroke="black" points="452.5,-52 452.5,-71 563.5,-71 563.5,-52 452.5,-52"/>
<text text-anchor="middle" x="508" y="-59" font-family="Helvetica,sans-Serif" font-size="10.00">plazza::Office::getPid</text>
</a>
</g>
</g>
<!-- Node9&#45;&gt;Node10 -->
<g id="edge10" class="edge"><title>Node9&#45;&gt;Node10</title>
<path fill="none" stroke="midnightblue" d="M414.006,-61.5C423.276,-61.5 432.862,-61.5 442.198,-61.5"/>
<polygon fill="midnightblue" stroke="midnightblue" points="442.205,-65.0001 452.205,-61.5 442.205,-58.0001 442.205,-65.0001"/>
</g>
</g>
</svg>
