<?xml version="1.0" encoding="UTF-8" standalone="no"?>
<!DOCTYPE svg PUBLIC "-//W3C//DTD SVG 1.1//EN"
 "http://www.w3.org/Graphics/SVG/1.1/DTD/svg11.dtd">
<!-- Generated by graphviz version 2.38.0 (20140413.2041)
 -->
<!-- Title: plazza::ProcessManager::kill Pages: 1 -->
<svg width="407pt" height="39pt"
 viewBox="0.00 0.00 407.00 39.00" xmlns="http://www.w3.org/2000/svg" xmlns:xlink="http://www.w3.org/1999/xlink">
<g id="graph0" class="graph" transform="scale(1 1) rotate(0) translate(4 35)">
<title>plazza::ProcessManager::kill</title>
<!-- Node1 -->
<g id="node1" class="node"><title>Node1</title>
<polygon fill="#bfbfbf" stroke="black" points="0,-0.5 0,-30.5 125,-30.5 125,-0.5 0,-0.5"/>
<text text-anchor="start" x="8" y="-18.5" font-family="Helvetica,sans-Serif" font-size="10.00">plazza::ProcessManager</text>
<text text-anchor="middle" x="62.5" y="-7.5" font-family="Helvetica,sans-Serif" font-size="10.00">::kill</text>
</g>
<!-- Node2 -->
<g id="node2" class="node"><title>Node2</title>
<g id="a_node2"><a xlink:href="classplazza_1_1_reception.html#a7008f2d6490fcbd68ae4a34d9fe6b37d" target="_top" xlink:title="remove the office specified as office_id ">
<polygon fill="none" stroke="black" points="161,-0.5 161,-30.5 262,-30.5 262,-0.5 161,-0.5"/>
<text text-anchor="start" x="169" y="-18.5" font-family="Helvetica,sans-Serif" font-size="10.00">plazza::Reception::</text>
<text text-anchor="middle" x="211.5" y="-7.5" font-family="Helvetica,sans-Serif" font-size="10.00">removeOffice</text>
</a>
</g>
</g>
<!-- Node1&#45;&gt;Node2 -->
<g id="edge1" class="edge"><title>Node1&#45;&gt;Node2</title>
<path fill="none" stroke="midnightblue" d="M135.694,-15.5C144.154,-15.5 152.638,-15.5 160.696,-15.5"/>
<polygon fill="midnightblue" stroke="midnightblue" points="135.415,-12.0001 125.415,-15.5 135.415,-19.0001 135.415,-12.0001"/>
</g>
<!-- Node3 -->
<g id="node3" class="node"><title>Node3</title>
<g id="a_node3"><a xlink:href="classplazza_1_1_reception.html#a9a68bacf594c0fd148eb011e7f807184" target="_top" xlink:title="Flush the server data. ">
<polygon fill="none" stroke="black" points="298,-0.5 298,-30.5 399,-30.5 399,-0.5 298,-0.5"/>
<text text-anchor="start" x="306" y="-18.5" font-family="Helvetica,sans-Serif" font-size="10.00">plazza::Reception::</text>
<text text-anchor="middle" x="348.5" y="-7.5" font-family="Helvetica,sans-Serif" font-size="10.00">flushServerData</text>
</a>
</g>
</g>
<!-- Node2&#45;&gt;Node3 -->
<g id="edge2" class="edge"><title>Node2&#45;&gt;Node3</title>
<path fill="none" stroke="midnightblue" d="M272.207,-15.5C280.67,-15.5 289.299,-15.5 297.552,-15.5"/>
<polygon fill="midnightblue" stroke="midnightblue" points="272.002,-12.0001 262.002,-15.5 272.002,-19.0001 272.002,-12.0001"/>
</g>
</g>
</svg>
