<?xml version="1.0" encoding="UTF-8" standalone="no"?>
<!DOCTYPE svg PUBLIC "-//W3C//DTD SVG 1.1//EN"
 "http://www.w3.org/Graphics/SVG/1.1/DTD/svg11.dtd">
<!-- Generated by graphviz version 2.38.0 (20140413.2041)
 -->
<!-- Title: plazza::Office::getPid Pages: 1 -->
<!--zoomable 234 -->
<svg id="main" version="1.1" xmlns="http://www.w3.org/2000/svg" xmlns:xlink="http://www.w3.org/1999/xlink" xml:space="preserve" onload="init(evt)">
<style type="text/css"><![CDATA[
.edge:hover path { stroke: red; }
.edge:hover polygon { stroke: red; fill: red; }
]]></style>
<script type="text/javascript"><![CDATA[
var edges = document.getElementsByTagName('g');
if (edges && edges.length) {
  for (var i=0;i<edges.length;i++) {
    if (edges[i].id.substr(0,4)=='edge') {
      edges[i].setAttribute('class','edge');
    }
  }
}
]]></script>
        <defs>
                <circle id="rim" cx="0" cy="0" r="7"/>
                <circle id="rim2" cx="0" cy="0" r="3.5"/>
                <g id="zoomPlus">
                        <use xlink:href="#rim" fill="#404040">
                                <set attributeName="fill" to="#808080" begin="zoomplus.mouseover" end="zoomplus.mouseout"/>
                        </use>
                        <path d="M-4,0h8M0,-4v8" fill="none" stroke="white" stroke-width="1.5" pointer-events="none"/>
                </g>
                <g id="zoomMin">
                        <use xlink:href="#rim" fill="#404040">
                                <set attributeName="fill" to="#808080" begin="zoomminus.mouseover" end="zoomminus.mouseout"/>
                        </use>
                        <path d="M-4,0h8" fill="none" stroke="white" stroke-width="1.5" pointer-events="none"/>
                </g>
                <g id="dirArrow">
                        <path fill="none" stroke="white" stroke-width="1.5" d="M0,-3.0v7 M-2.5,-0.5L0,-3.0L2.5,-0.5"/>
                </g>
               <g id="resetDef">
                       <use xlink:href="#rim2" fill="#404040">
                               <set attributeName="fill" to="#808080" begin="reset.mouseover" end="reset.mouseout"/>
                       </use>
               </g>
        </defs>

<script type="text/javascript">
var viewWidth = 1424;
var viewHeight = 234;
var sectionId = 'dynsection-10';
</script>
<script xlink:href="svgpan.js"/>
<svg id="graph" class="graph">
<g id="viewport">
<title>plazza::Office::getPid</title>
<!-- Node1 -->
<g id="node1" class="node"><title>Node1</title>
<polygon fill="#bfbfbf" stroke="black" points="0,-107 0,-126 111,-126 111,-107 0,-107"/>
<text text-anchor="middle" x="55.5" y="-114" font-family="Helvetica,sans-Serif" font-size="10.00">plazza::Office::getPid</text>
</g>
<!-- Node2 -->
<g id="node2" class="node"><title>Node2</title>
<g id="a_node2"><a xlink:href="classplazza_1_1_office.html#a611c1821b8f7dfc4d6e4a4211714e2c7" target="_top" xlink:title="init the Office ">
<polygon fill="none" stroke="black" points="659.5,-202 659.5,-221 755.5,-221 755.5,-202 659.5,-202"/>
<text text-anchor="middle" x="707.5" y="-209" font-family="Helvetica,sans-Serif" font-size="10.00">plazza::Office::init</text>
</a>
</g>
</g>
<!-- Node1&#45;&gt;Node2 -->
<g id="edge1" class="edge"><title>Node1&#45;&gt;Node2</title>
<path fill="none" stroke="midnightblue" d="M74.518,-132.81C91.7568,-147.341 119.181,-167.767 147,-177.5 327.495,-240.651 560.546,-226.887 659.128,-217.078"/>
<polygon fill="midnightblue" stroke="midnightblue" points="76.7658,-130.127 66.9163,-126.223 72.1815,-135.417 76.7658,-130.127"/>
</g>
<!-- Node8 -->
<g id="node8" class="node"><title>Node8</title>
<g id="a_node8"><a xlink:href="classplazza_1_1_office.html#a04316c75e42181f331b214729c8e7909" target="_top" xlink:title="Close the office. ">
<polygon fill="none" stroke="black" points="347.5,-164 347.5,-183 454.5,-183 454.5,-164 347.5,-164"/>
<text text-anchor="middle" x="401" y="-171" font-family="Helvetica,sans-Serif" font-size="10.00">plazza::Office::close</text>
</a>
</g>
</g>
<!-- Node1&#45;&gt;Node8 -->
<g id="edge7" class="edge"><title>Node1&#45;&gt;Node8</title>
<path fill="none" stroke="midnightblue" d="M83.3833,-130.494C100.989,-138.971 124.774,-149.149 147,-154.5 214.876,-170.841 295.686,-174.23 347.395,-174.442"/>
<polygon fill="midnightblue" stroke="midnightblue" points="84.8031,-127.292 74.2871,-126.001 81.7031,-133.568 84.8031,-127.292"/>
</g>
<!-- Node10 -->
<g id="node10" class="node"><title>Node10</title>
<g id="a_node10"><a xlink:href="classplazza_1_1_office.html#a40e5e47be8961ded30ee24e588a04e51" target="_top" xlink:title="Finish the task and send it to the server. ">
<polygon fill="none" stroke="black" points="150,-126 150,-145 295,-145 295,-126 150,-126"/>
<text text-anchor="middle" x="222.5" y="-133" font-family="Helvetica,sans-Serif" font-size="10.00">plazza::Office::completeTask</text>
</a>
</g>
</g>
<!-- Node1&#45;&gt;Node10 -->
<g id="edge10" class="edge"><title>Node1&#45;&gt;Node10</title>
<path fill="none" stroke="midnightblue" d="M121.4,-123.973C130.712,-125.046 140.337,-126.154 149.772,-127.24"/>
<polygon fill="midnightblue" stroke="midnightblue" points="121.777,-120.494 111.443,-122.827 120.977,-127.448 121.777,-120.494"/>
</g>
<!-- Node13 -->
<g id="node13" class="node"><title>Node13</title>
<g id="a_node13"><a xlink:href="classplazza_1_1_office.html#a74ec46ef5ec705eac7a7d549742d66f0" target="_top" xlink:title="Function called when a worker finish a task. ">
<polygon fill="none" stroke="black" points="147,-88 147,-107 298,-107 298,-88 147,-88"/>
<text text-anchor="middle" x="222.5" y="-95" font-family="Helvetica,sans-Serif" font-size="10.00">plazza::Office::workerCallback</text>
</a>
</g>
</g>
<!-- Node1&#45;&gt;Node13 -->
<g id="edge14" class="edge"><title>Node1&#45;&gt;Node13</title>
<path fill="none" stroke="midnightblue" d="M121.452,-109.021C129.78,-108.062 138.357,-107.074 146.824,-106.099"/>
<polygon fill="midnightblue" stroke="midnightblue" points="120.977,-105.552 111.443,-110.173 121.777,-112.506 120.977,-105.552"/>
</g>
<!-- Node14 -->
<g id="node14" class="node"><title>Node14</title>
<g id="a_node14"><a xlink:href="classplazza_1_1_office.html#a7763a2b3e1b8ca78e6422f7c84560418" target="_top" xlink:title="plazza::Office::assignTask">
<polygon fill="none" stroke="black" points="155.5,-50 155.5,-69 289.5,-69 289.5,-50 155.5,-50"/>
<text text-anchor="middle" x="222.5" y="-57" font-family="Helvetica,sans-Serif" font-size="10.00">plazza::Office::assignTask</text>
</a>
</g>
</g>
<!-- Node1&#45;&gt;Node14 -->
<g id="edge15" class="edge"><title>Node1&#45;&gt;Node14</title>
<path fill="none" stroke="midnightblue" d="M86.1379,-102.748C103.607,-94.9734 126.28,-85.4498 147,-78.5 157.377,-75.0193 168.75,-71.8191 179.416,-69.0767"/>
<polygon fill="midnightblue" stroke="midnightblue" points="84.6929,-99.5598 77.0139,-106.859 87.5689,-105.942 84.6929,-99.5598"/>
</g>
<!-- Node15 -->
<g id="node15" class="node"><title>Node15</title>
<g id="a_node15"><a xlink:href="classplazza_1_1_process_manager.html#ad4dab5f3a6c4428075803708df27531a" target="_top" xlink:title="terminate the office ">
<polygon fill="none" stroke="black" points="160,-0.5 160,-30.5 285,-30.5 285,-0.5 160,-0.5"/>
<text text-anchor="start" x="168" y="-18.5" font-family="Helvetica,sans-Serif" font-size="10.00">plazza::ProcessManager</text>
<text text-anchor="middle" x="222.5" y="-7.5" font-family="Helvetica,sans-Serif" font-size="10.00">::kill</text>
</a>
</g>
</g>
<!-- Node1&#45;&gt;Node15 -->
<g id="edge16" class="edge"><title>Node1&#45;&gt;Node15</title>
<path fill="none" stroke="midnightblue" d="M73.106,-99.178C90.2298,-82.1812 118.396,-56.5428 147,-40.5 153.663,-36.7627 160.977,-33.4642 168.336,-30.5913"/>
<polygon fill="midnightblue" stroke="midnightblue" points="70.1678,-97.1723 65.6333,-106.748 75.1494,-102.09 70.1678,-97.1723"/>
</g>
<!-- Node3 -->
<g id="node3" class="node"><title>Node3</title>
<g id="a_node3"><a xlink:href="classplazza_1_1_process_manager.html#aaf7eabb8ae524f2faa9b152aa178a30b" target="_top" xlink:title="create an Office ">
<polygon fill="none" stroke="black" points="792,-177.5 792,-207.5 917,-207.5 917,-177.5 792,-177.5"/>
<text text-anchor="start" x="800" y="-195.5" font-family="Helvetica,sans-Serif" font-size="10.00">plazza::ProcessManager</text>
<text text-anchor="middle" x="854.5" y="-184.5" font-family="Helvetica,sans-Serif" font-size="10.00">::spawn</text>
</a>
</g>
</g>
<!-- Node2&#45;&gt;Node3 -->
<g id="edge2" class="edge"><title>Node2&#45;&gt;Node3</title>
<path fill="none" stroke="midnightblue" d="M765.549,-204.025C774.191,-202.892 783.139,-201.72 791.872,-200.575"/>
<polygon fill="midnightblue" stroke="midnightblue" points="765.038,-200.562 755.577,-205.331 765.947,-207.502 765.038,-200.562"/>
</g>
<!-- Node4 -->
<g id="node4" class="node"><title>Node4</title>
<g id="a_node4"><a xlink:href="classplazza_1_1_reception.html#a7e1b50160865f662607dcddcbd9434f9" target="_top" xlink:title="Create an office. ">
<polygon fill="none" stroke="black" points="953,-177.5 953,-207.5 1054,-207.5 1054,-177.5 953,-177.5"/>
<text text-anchor="start" x="961" y="-195.5" font-family="Helvetica,sans-Serif" font-size="10.00">plazza::Reception::</text>
<text text-anchor="middle" x="1003.5" y="-184.5" font-family="Helvetica,sans-Serif" font-size="10.00">createOffice</text>
</a>
</g>
</g>
<!-- Node3&#45;&gt;Node4 -->
<g id="edge3" class="edge"><title>Node3&#45;&gt;Node4</title>
<path fill="none" stroke="midnightblue" d="M927.694,-192.5C936.154,-192.5 944.638,-192.5 952.696,-192.5"/>
<polygon fill="midnightblue" stroke="midnightblue" points="927.415,-189 917.415,-192.5 927.415,-196 927.415,-189"/>
</g>
<!-- Node5 -->
<g id="node5" class="node"><title>Node5</title>
<g id="a_node5"><a xlink:href="classplazza_1_1_reception.html#a7aa64f05388780e369663cd6800578ae" target="_top" xlink:title="Assign a task to the queue. ">
<polygon fill="none" stroke="black" points="1090,-177.5 1090,-207.5 1191,-207.5 1191,-177.5 1090,-177.5"/>
<text text-anchor="start" x="1098" y="-195.5" font-family="Helvetica,sans-Serif" font-size="10.00">plazza::Reception::</text>
<text text-anchor="middle" x="1140.5" y="-184.5" font-family="Helvetica,sans-Serif" font-size="10.00">assignTask</text>
</a>
</g>
</g>
<!-- Node4&#45;&gt;Node5 -->
<g id="edge4" class="edge"><title>Node4&#45;&gt;Node5</title>
<path fill="none" stroke="midnightblue" d="M1064.21,-192.5C1072.67,-192.5 1081.3,-192.5 1089.55,-192.5"/>
<polygon fill="midnightblue" stroke="midnightblue" points="1064,-189 1054,-192.5 1064,-196 1064,-189"/>
</g>
<!-- Node6 -->
<g id="node6" class="node"><title>Node6</title>
<g id="a_node6"><a xlink:href="classplazza_1_1_reception.html#add69bb3defc0d810a8f4fe2cdceacbb1" target="_top" xlink:title="run the office ">
<polygon fill="none" stroke="black" points="1227,-183 1227,-202 1342,-202 1342,-183 1227,-183"/>
<text text-anchor="middle" x="1284.5" y="-190" font-family="Helvetica,sans-Serif" font-size="10.00">plazza::Reception::run</text>
</a>
</g>
</g>
<!-- Node5&#45;&gt;Node6 -->
<g id="edge5" class="edge"><title>Node5&#45;&gt;Node6</title>
<path fill="none" stroke="midnightblue" d="M1201.33,-192.5C1209.77,-192.5 1218.43,-192.5 1226.82,-192.5"/>
<polygon fill="midnightblue" stroke="midnightblue" points="1201.16,-189 1191.16,-192.5 1201.16,-196 1201.16,-189"/>
</g>
<!-- Node7 -->
<g id="node7" class="node"><title>Node7</title>
<g id="a_node7"><a xlink:href="gui_2sources_2main_8cpp.html#adacbe0175a79dff748855d8c9839f82b" target="_top" xlink:title="main">
<polygon fill="none" stroke="black" points="1378,-183 1378,-202 1416,-202 1416,-183 1378,-183"/>
<text text-anchor="middle" x="1397" y="-190" font-family="Helvetica,sans-Serif" font-size="10.00">main</text>
</a>
</g>
</g>
<!-- Node6&#45;&gt;Node7 -->
<g id="edge6" class="edge"><title>Node6&#45;&gt;Node7</title>
<path fill="none" stroke="midnightblue" d="M1352.3,-192.5C1361.63,-192.5 1370.5,-192.5 1377.78,-192.5"/>
<polygon fill="midnightblue" stroke="midnightblue" points="1352.04,-189 1342.04,-192.5 1352.04,-196 1352.04,-189"/>
</g>
<!-- Node9 -->
<g id="node9" class="node"><title>Node9</title>
<g id="a_node9"><a xlink:href="classplazza_1_1_office.html#a7c431da08f4460a011363f11f7066889" target="_top" xlink:title="Start the office. ">
<polygon fill="none" stroke="black" points="659,-164 659,-183 756,-183 756,-164 659,-164"/>
<text text-anchor="middle" x="707.5" y="-171" font-family="Helvetica,sans-Serif" font-size="10.00">plazza::Office::run</text>
</a>
</g>
</g>
<!-- Node8&#45;&gt;Node9 -->
<g id="edge8" class="edge"><title>Node8&#45;&gt;Node9</title>
<path fill="none" stroke="midnightblue" d="M464.781,-173.5C522.455,-173.5 606.676,-173.5 658.955,-173.5"/>
<polygon fill="midnightblue" stroke="midnightblue" points="464.692,-170 454.692,-173.5 464.692,-177 464.692,-170"/>
</g>
<!-- Node9&#45;&gt;Node3 -->
<g id="edge9" class="edge"><title>Node9&#45;&gt;Node3</title>
<path fill="none" stroke="midnightblue" d="M766.451,-181.094C774.843,-182.193 783.506,-183.328 791.966,-184.437"/>
<polygon fill="midnightblue" stroke="midnightblue" points="766.75,-177.603 756.38,-179.774 765.841,-184.544 766.75,-177.603"/>
</g>
<!-- Node11 -->
<g id="node11" class="node"><title>Node11</title>
<g id="a_node11"><a xlink:href="classplazza_1_1_office.html#af53d889fe196fec1a3dcd1d738977048" target="_top" xlink:title="plazza::Office::assignTask">
<polygon fill="none" stroke="black" points="334,-126 334,-145 468,-145 468,-126 334,-126"/>
<text text-anchor="middle" x="401" y="-133" font-family="Helvetica,sans-Serif" font-size="10.00">plazza::Office::assignTask</text>
</a>
</g>
</g>
<!-- Node10&#45;&gt;Node11 -->
<g id="edge11" class="edge"><title>Node10&#45;&gt;Node11</title>
<path fill="none" stroke="midnightblue" d="M305.321,-135.5C314.855,-135.5 324.491,-135.5 333.779,-135.5"/>
<polygon fill="midnightblue" stroke="midnightblue" points="305.035,-132 295.035,-135.5 305.035,-139 305.035,-132"/>
</g>
<!-- Node12 -->
<g id="node12" class="node"><title>Node12</title>
<g id="a_node12"><a xlink:href="classplazza_1_1_office.html#a9b483976ff17c8c541d34f8ce7098c38" target="_top" xlink:title="Get task for the private pipe. ">
<polygon fill="none" stroke="black" points="504,-126 504,-145 623,-145 623,-126 504,-126"/>
<text text-anchor="middle" x="563.5" y="-133" font-family="Helvetica,sans-Serif" font-size="10.00">plazza::Office::getTask</text>
</a>
</g>
</g>
<!-- Node11&#45;&gt;Node12 -->
<g id="edge12" class="edge"><title>Node11&#45;&gt;Node12</title>
<path fill="none" stroke="midnightblue" d="M478.266,-135.5C486.877,-135.5 495.55,-135.5 503.887,-135.5"/>
<polygon fill="midnightblue" stroke="midnightblue" points="478.208,-132 468.208,-135.5 478.208,-139 478.208,-132"/>
</g>
<!-- Node12&#45;&gt;Node9 -->
<g id="edge13" class="edge"><title>Node12&#45;&gt;Node9</title>
<path fill="none" stroke="midnightblue" d="M609.993,-147.674C629.628,-152.929 652.266,-158.987 670.679,-163.914"/>
<polygon fill="midnightblue" stroke="midnightblue" points="610.897,-144.293 600.333,-145.089 609.088,-151.055 610.897,-144.293"/>
</g>
<!-- Node16 -->
<g id="node16" class="node"><title>Node16</title>
<g id="a_node16"><a xlink:href="classplazza_1_1_reception.html#a7008f2d6490fcbd68ae4a34d9fe6b37d" target="_top" xlink:title="remove the office specified as office_id ">
<polygon fill="none" stroke="black" points="350.5,-0.5 350.5,-30.5 451.5,-30.5 451.5,-0.5 350.5,-0.5"/>
<text text-anchor="start" x="358.5" y="-18.5" font-family="Helvetica,sans-Serif" font-size="10.00">plazza::Reception::</text>
<text text-anchor="middle" x="401" y="-7.5" font-family="Helvetica,sans-Serif" font-size="10.00">removeOffice</text>
</a>
</g>
</g>
<!-- Node15&#45;&gt;Node16 -->
<g id="edge17" class="edge"><title>Node15&#45;&gt;Node16</title>
<path fill="none" stroke="midnightblue" d="M295.348,-15.5C313.779,-15.5 333.2,-15.5 350.24,-15.5"/>
<polygon fill="midnightblue" stroke="midnightblue" points="295.231,-12.0001 285.231,-15.5 295.231,-19.0001 295.231,-12.0001"/>
</g>
<!-- Node17 -->
<g id="node17" class="node"><title>Node17</title>
<g id="a_node17"><a xlink:href="classplazza_1_1_reception.html#a9a68bacf594c0fd148eb011e7f807184" target="_top" xlink:title="Flush the server data. ">
<polygon fill="none" stroke="black" points="513,-0.5 513,-30.5 614,-30.5 614,-0.5 513,-0.5"/>
<text text-anchor="start" x="521" y="-18.5" font-family="Helvetica,sans-Serif" font-size="10.00">plazza::Reception::</text>
<text text-anchor="middle" x="563.5" y="-7.5" font-family="Helvetica,sans-Serif" font-size="10.00">flushServerData</text>
</a>
</g>
</g>
<!-- Node16&#45;&gt;Node17 -->
<g id="edge18" class="edge"><title>Node16&#45;&gt;Node17</title>
<path fill="none" stroke="midnightblue" d="M462.133,-15.5C478.867,-15.5 496.848,-15.5 512.903,-15.5"/>
<polygon fill="midnightblue" stroke="midnightblue" points="461.903,-12.0001 451.903,-15.5 461.903,-19.0001 461.903,-12.0001"/>
</g>
</g>
</svg>
        <g id="navigator" transform="translate(0 0)" fill="#404254">
                <rect fill="#f2f5e9" fill-opacity="0.5" stroke="#606060" stroke-width=".5" x="0" y="0" width="60" height="60"/>
                <use id="zoomplus" xlink:href="#zoomPlus" x="17" y="9" onmousedown="handleZoom(evt,'in')"/>
                <use id="zoomminus" xlink:href="#zoomMin" x="42" y="9" onmousedown="handleZoom(evt,'out')"/>
                <use id="reset" xlink:href="#resetDef" x="30" y="36" onmousedown="handleReset()"/>
                <g id="arrowUp" xlink:href="#dirArrow" transform="translate(30 24)" onmousedown="handlePan(0,-1)">
                  <use xlink:href="#rim" fill="#404040">
                        <set attributeName="fill" to="#808080" begin="arrowUp.mouseover" end="arrowUp.mouseout"/>
                  </use>
                  <path fill="none" stroke="white" stroke-width="1.5" d="M0,-3.0v7 M-2.5,-0.5L0,-3.0L2.5,-0.5"/>
                </g>
                <g id="arrowRight" xlink:href="#dirArrow" transform="rotate(90) translate(36 -43)" onmousedown="handlePan(1,0)">
                  <use xlink:href="#rim" fill="#404040">
                        <set attributeName="fill" to="#808080" begin="arrowRight.mouseover" end="arrowRight.mouseout"/>
                  </use>
                  <path fill="none" stroke="white" stroke-width="1.5" d="M0,-3.0v7 M-2.5,-0.5L0,-3.0L2.5,-0.5"/>
                </g>
                <g id="arrowDown" xlink:href="#dirArrow" transform="rotate(180) translate(-30 -48)" onmousedown="handlePan(0,1)">
                  <use xlink:href="#rim" fill="#404040">
                        <set attributeName="fill" to="#808080" begin="arrowDown.mouseover" end="arrowDown.mouseout"/>
                  </use>
                  <path fill="none" stroke="white" stroke-width="1.5" d="M0,-3.0v7 M-2.5,-0.5L0,-3.0L2.5,-0.5"/>
                </g>
                <g id="arrowLeft" xlink:href="#dirArrow" transform="rotate(270) translate(-36 17)" onmousedown="handlePan(-1,0)">
                  <use xlink:href="#rim" fill="#404040">
                        <set attributeName="fill" to="#808080" begin="arrowLeft.mouseover" end="arrowLeft.mouseout"/>
                  </use>
                  <path fill="none" stroke="white" stroke-width="1.5" d="M0,-3.0v7 M-2.5,-0.5L0,-3.0L2.5,-0.5"/>
                </g>
        </g>
        <svg viewBox="0 0 15 15" width="100%" height="30px" preserveAspectRatio="xMaxYMin meet">
         <g id="arrow_out" transform="scale(0.3 0.3)">
          <a xlink:href="classplazza_1_1_office_a1f32b2702e30f57d8500edf91530f71c_icgraph_org.svg" target="_base">
           <rect id="button" ry="5" rx="5" y="6" x="6" height="38" width="38"
                fill="#f2f5e9" fill-opacity="0.5" stroke="#606060" stroke-width="1.0"/>
           <path id="arrow"
             d="M 11.500037,31.436501 C 11.940474,20.09759 22.043105,11.32322 32.158766,21.979434 L 37.068811,17.246167 C 37.068811,17.246167 37.088388,32 37.088388,32 L 22.160133,31.978069 C 22.160133,31.978069 26.997745,27.140456 26.997745,27.140456 C 18.528582,18.264221 13.291696,25.230495 11.500037,31.436501 z"
             style="fill:#404040;"/>
          </a>
         </g>
        </svg>
</svg>
