<?xml version="1.0" encoding="UTF-8" standalone="no"?>
<!DOCTYPE svg PUBLIC "-//W3C//DTD SVG 1.1//EN"
 "http://www.w3.org/Graphics/SVG/1.1/DTD/svg11.dtd">
<!-- Generated by graphviz version 2.38.0 (20140413.2041)
 -->
<!-- Title: plazza::ConnectorPipe::transfertData Pages: 1 -->
<svg width="1429pt" height="316pt"
 viewBox="0.00 0.00 1429.00 316.41" xmlns="http://www.w3.org/2000/svg" xmlns:xlink="http://www.w3.org/1999/xlink">
<g id="graph0" class="graph" transform="scale(1 1) rotate(0) translate(4 312.411)">
<title>plazza::ConnectorPipe::transfertData</title>
<!-- Node1 -->
<g id="node1" class="node"><title>Node1</title>
<polygon fill="#bfbfbf" stroke="black" points="0,-138.911 0,-168.911 116,-168.911 116,-138.911 0,-138.911"/>
<text text-anchor="start" x="8" y="-156.911" font-family="Helvetica,sans-Serif" font-size="10.00">plazza::ConnectorPipe</text>
<text text-anchor="middle" x="58" y="-145.911" font-family="Helvetica,sans-Serif" font-size="10.00">::transfertData</text>
</g>
<!-- Node2 -->
<g id="node2" class="node"><title>Node2</title>
<g id="a_node2"><a xlink:href="classplazza_1_1_connector_pipe.html#aa37f2c5398dcbc14b774e763855eff2c" target="_top" xlink:title="plazza::ConnectorPipe\l::setMode">
<polygon fill="none" stroke="black" points="169.5,-277.911 169.5,-307.911 285.5,-307.911 285.5,-277.911 169.5,-277.911"/>
<text text-anchor="start" x="177.5" y="-295.911" font-family="Helvetica,sans-Serif" font-size="10.00">plazza::ConnectorPipe</text>
<text text-anchor="middle" x="227.5" y="-284.911" font-family="Helvetica,sans-Serif" font-size="10.00">::setMode</text>
</a>
</g>
</g>
<!-- Node1&#45;&gt;Node2 -->
<g id="edge1" class="edge"><title>Node1&#45;&gt;Node2</title>
<path fill="none" stroke="midnightblue" d="M74.0942,-177.567C90.6396,-201.854 119.233,-239.338 152,-262.911 160.149,-268.773 169.608,-273.711 178.994,-277.781"/>
<polygon fill="midnightblue" stroke="midnightblue" points="76.8173,-175.341 68.3593,-168.961 70.9922,-179.223 76.8173,-175.341"/>
</g>
<!-- Node3 -->
<g id="node3" class="node"><title>Node3</title>
<g id="a_node3"><a xlink:href="classplazza_1_1_office.html#a04316c75e42181f331b214729c8e7909" target="_top" xlink:title="Close the office. ">
<polygon fill="none" stroke="black" points="352.5,-239.411 352.5,-258.411 459.5,-258.411 459.5,-239.411 352.5,-239.411"/>
<text text-anchor="middle" x="406" y="-246.411" font-family="Helvetica,sans-Serif" font-size="10.00">plazza::Office::close</text>
</a>
</g>
</g>
<!-- Node1&#45;&gt;Node3 -->
<g id="edge2" class="edge"><title>Node1&#45;&gt;Node3</title>
<path fill="none" stroke="midnightblue" d="M80.8878,-176.383C98.446,-192.87 124.608,-214.182 152,-224.911 217.526,-250.576 299.612,-253.576 352.186,-252.192"/>
<polygon fill="midnightblue" stroke="midnightblue" points="83.0772,-173.631 73.4525,-169.202 78.2144,-178.667 83.0772,-173.631"/>
</g>
<!-- Node10 -->
<g id="node10" class="node"><title>Node10</title>
<g id="a_node10"><a xlink:href="classplazza_1_1_office.html#a9b483976ff17c8c541d34f8ce7098c38" target="_top" xlink:title="Get task for the private pipe. ">
<polygon fill="none" stroke="black" points="509,-182.411 509,-201.411 628,-201.411 628,-182.411 509,-182.411"/>
<text text-anchor="middle" x="568.5" y="-189.411" font-family="Helvetica,sans-Serif" font-size="10.00">plazza::Office::getTask</text>
</a>
</g>
</g>
<!-- Node1&#45;&gt;Node10 -->
<g id="edge9" class="edge"><title>Node1&#45;&gt;Node10</title>
<path fill="none" stroke="midnightblue" d="M97.0955,-173.383C113.533,-180.744 133.258,-188.229 152,-191.911 277.109,-216.484 427.526,-207.125 508.666,-198.976"/>
<polygon fill="midnightblue" stroke="midnightblue" points="98.3745,-170.118 87.8294,-169.093 95.4334,-176.471 98.3745,-170.118"/>
</g>
<!-- Node11 -->
<g id="node11" class="node"><title>Node11</title>
<g id="a_node11"><a xlink:href="classplazza_1_1_office.html#a40e5e47be8961ded30ee24e588a04e51" target="_top" xlink:title="Finish the task and send it to the server. ">
<polygon fill="none" stroke="black" points="155,-163.411 155,-182.411 300,-182.411 300,-163.411 155,-163.411"/>
<text text-anchor="middle" x="227.5" y="-170.411" font-family="Helvetica,sans-Serif" font-size="10.00">plazza::Office::completeTask</text>
</a>
</g>
</g>
<!-- Node1&#45;&gt;Node11 -->
<g id="edge11" class="edge"><title>Node1&#45;&gt;Node11</title>
<path fill="none" stroke="midnightblue" d="M126.229,-161.537C135.621,-162.602 145.301,-163.7 154.771,-164.774"/>
<polygon fill="midnightblue" stroke="midnightblue" points="126.506,-158.046 116.176,-160.396 125.717,-165.001 126.506,-158.046"/>
</g>
<!-- Node13 -->
<g id="node13" class="node"><title>Node13</title>
<g id="a_node13"><a xlink:href="classplazza_1_1_office.html#a74ec46ef5ec705eac7a7d549742d66f0" target="_top" xlink:title="Function called when a worker finish a task. ">
<polygon fill="none" stroke="black" points="152,-125.411 152,-144.411 303,-144.411 303,-125.411 152,-125.411"/>
<text text-anchor="middle" x="227.5" y="-132.411" font-family="Helvetica,sans-Serif" font-size="10.00">plazza::Office::workerCallback</text>
</a>
</g>
</g>
<!-- Node1&#45;&gt;Node13 -->
<g id="edge14" class="edge"><title>Node1&#45;&gt;Node13</title>
<path fill="none" stroke="midnightblue" d="M126.282,-146.279C134.68,-145.326 143.309,-144.347 151.812,-143.383"/>
<polygon fill="midnightblue" stroke="midnightblue" points="125.717,-142.82 116.176,-147.425 126.506,-149.776 125.717,-142.82"/>
</g>
<!-- Node14 -->
<g id="node14" class="node"><title>Node14</title>
<g id="a_node14"><a xlink:href="classplazza_1_1_office.html#a7763a2b3e1b8ca78e6422f7c84560418" target="_top" xlink:title="plazza::Office::assignTask">
<polygon fill="none" stroke="black" points="160.5,-87.4107 160.5,-106.411 294.5,-106.411 294.5,-87.4107 160.5,-87.4107"/>
<text text-anchor="middle" x="227.5" y="-94.4107" font-family="Helvetica,sans-Serif" font-size="10.00">plazza::Office::assignTask</text>
</a>
</g>
</g>
<!-- Node1&#45;&gt;Node14 -->
<g id="edge15" class="edge"><title>Node1&#45;&gt;Node14</title>
<path fill="none" stroke="midnightblue" d="M101.968,-134.905C117.551,-128.4 135.404,-121.389 152,-115.911 162.521,-112.438 174.051,-109.22 184.829,-106.457"/>
<polygon fill="midnightblue" stroke="midnightblue" points="100.437,-131.753 92.591,-138.872 103.164,-138.2 100.437,-131.753"/>
</g>
<!-- Node15 -->
<g id="node15" class="node"><title>Node15</title>
<g id="a_node15"><a xlink:href="classplazza_1_1_reception.html#a9a68bacf594c0fd148eb011e7f807184" target="_top" xlink:title="Flush the server data. ">
<polygon fill="none" stroke="black" points="177,-37.9107 177,-67.9107 278,-67.9107 278,-37.9107 177,-37.9107"/>
<text text-anchor="start" x="185" y="-55.9107" font-family="Helvetica,sans-Serif" font-size="10.00">plazza::Reception::</text>
<text text-anchor="middle" x="227.5" y="-44.9107" font-family="Helvetica,sans-Serif" font-size="10.00">flushServerData</text>
</a>
</g>
</g>
<!-- Node1&#45;&gt;Node15 -->
<g id="edge16" class="edge"><title>Node1&#45;&gt;Node15</title>
<path fill="none" stroke="midnightblue" d="M81.4287,-131.616C99.2762,-114.91 125.564,-92.5058 152,-77.9107 159.763,-73.6246 168.387,-69.9034 176.934,-66.7364"/>
<polygon fill="midnightblue" stroke="midnightblue" points="78.6726,-129.408 73.8522,-138.843 83.5041,-134.474 78.6726,-129.408"/>
</g>
<!-- Node16 -->
<g id="node16" class="node"><title>Node16</title>
<g id="a_node16"><a xlink:href="classplazza_1_1_reception.html#a7389b5af68c57d0547f3ba41278c2002" target="_top" xlink:title="Send a task. ">
<polygon fill="none" stroke="black" points="518,-63.9107 518,-93.9107 619,-93.9107 619,-63.9107 518,-63.9107"/>
<text text-anchor="start" x="526" y="-81.9107" font-family="Helvetica,sans-Serif" font-size="10.00">plazza::Reception::</text>
<text text-anchor="middle" x="568.5" y="-70.9107" font-family="Helvetica,sans-Serif" font-size="10.00">sendTask</text>
</a>
</g>
</g>
<!-- Node1&#45;&gt;Node16 -->
<g id="edge17" class="edge"><title>Node1&#45;&gt;Node16</title>
<path fill="none" stroke="midnightblue" d="M68.8652,-129.186C82.4617,-98.9075 110.132,-49.0455 152,-27.9107 282.569,38.0004 464.63,-31.2365 536.531,-63.8662"/>
<polygon fill="midnightblue" stroke="midnightblue" points="65.5371,-128.065 64.7936,-138.634 71.9656,-130.836 65.5371,-128.065"/>
</g>
<!-- Node4 -->
<g id="node4" class="node"><title>Node4</title>
<g id="a_node4"><a xlink:href="classplazza_1_1_office.html#a7c431da08f4460a011363f11f7066889" target="_top" xlink:title="Start the office. ">
<polygon fill="none" stroke="black" points="664,-182.411 664,-201.411 761,-201.411 761,-182.411 664,-182.411"/>
<text text-anchor="middle" x="712.5" y="-189.411" font-family="Helvetica,sans-Serif" font-size="10.00">plazza::Office::run</text>
</a>
</g>
</g>
<!-- Node3&#45;&gt;Node4 -->
<g id="edge3" class="edge"><title>Node3&#45;&gt;Node4</title>
<path fill="none" stroke="midnightblue" d="M469.884,-239.016C514.199,-231.819 574.871,-221.515 628,-210.911 642.288,-208.059 657.873,-204.606 671.669,-201.43"/>
<polygon fill="midnightblue" stroke="midnightblue" points="469.151,-235.589 459.837,-240.64 470.268,-242.499 469.151,-235.589"/>
</g>
<!-- Node5 -->
<g id="node5" class="node"><title>Node5</title>
<g id="a_node5"><a xlink:href="classplazza_1_1_process_manager.html#aaf7eabb8ae524f2faa9b152aa178a30b" target="_top" xlink:title="create an Office ">
<polygon fill="none" stroke="black" points="797,-142.911 797,-172.911 922,-172.911 922,-142.911 797,-142.911"/>
<text text-anchor="start" x="805" y="-160.911" font-family="Helvetica,sans-Serif" font-size="10.00">plazza::ProcessManager</text>
<text text-anchor="middle" x="859.5" y="-149.911" font-family="Helvetica,sans-Serif" font-size="10.00">::spawn</text>
</a>
</g>
</g>
<!-- Node4&#45;&gt;Node5 -->
<g id="edge4" class="edge"><title>Node4&#45;&gt;Node5</title>
<path fill="none" stroke="midnightblue" d="M764.168,-180.03C774.738,-177.551 785.991,-174.913 796.907,-172.353"/>
<polygon fill="midnightblue" stroke="midnightblue" points="763.213,-176.659 754.276,-182.349 764.811,-183.474 763.213,-176.659"/>
</g>
<!-- Node6 -->
<g id="node6" class="node"><title>Node6</title>
<g id="a_node6"><a xlink:href="classplazza_1_1_reception.html#a7e1b50160865f662607dcddcbd9434f9" target="_top" xlink:title="Create an office. ">
<polygon fill="none" stroke="black" points="958,-125.911 958,-155.911 1059,-155.911 1059,-125.911 958,-125.911"/>
<text text-anchor="start" x="966" y="-143.911" font-family="Helvetica,sans-Serif" font-size="10.00">plazza::Reception::</text>
<text text-anchor="middle" x="1008.5" y="-132.911" font-family="Helvetica,sans-Serif" font-size="10.00">createOffice</text>
</a>
</g>
</g>
<!-- Node5&#45;&gt;Node6 -->
<g id="edge5" class="edge"><title>Node5&#45;&gt;Node6</title>
<path fill="none" stroke="midnightblue" d="M932.415,-149.594C940.968,-148.605 949.549,-147.613 957.696,-146.67"/>
<polygon fill="midnightblue" stroke="midnightblue" points="931.947,-146.125 922.415,-150.75 932.751,-153.078 931.947,-146.125"/>
</g>
<!-- Node7 -->
<g id="node7" class="node"><title>Node7</title>
<g id="a_node7"><a xlink:href="classplazza_1_1_reception.html#a7aa64f05388780e369663cd6800578ae" target="_top" xlink:title="Assign a task to the queue. ">
<polygon fill="none" stroke="black" points="1095,-98.9107 1095,-128.911 1196,-128.911 1196,-98.9107 1095,-98.9107"/>
<text text-anchor="start" x="1103" y="-116.911" font-family="Helvetica,sans-Serif" font-size="10.00">plazza::Reception::</text>
<text text-anchor="middle" x="1145.5" y="-105.911" font-family="Helvetica,sans-Serif" font-size="10.00">assignTask</text>
</a>
</g>
</g>
<!-- Node6&#45;&gt;Node7 -->
<g id="edge6" class="edge"><title>Node6&#45;&gt;Node7</title>
<path fill="none" stroke="midnightblue" d="M1068.93,-129.025C1077.48,-127.315 1086.21,-125.569 1094.55,-123.9"/>
<polygon fill="midnightblue" stroke="midnightblue" points="1068.12,-125.617 1059,-131.01 1069.49,-132.481 1068.12,-125.617"/>
</g>
<!-- Node8 -->
<g id="node8" class="node"><title>Node8</title>
<g id="a_node8"><a xlink:href="classplazza_1_1_reception.html#add69bb3defc0d810a8f4fe2cdceacbb1" target="_top" xlink:title="run the office ">
<polygon fill="none" stroke="black" points="1232,-104.411 1232,-123.411 1347,-123.411 1347,-104.411 1232,-104.411"/>
<text text-anchor="middle" x="1289.5" y="-111.411" font-family="Helvetica,sans-Serif" font-size="10.00">plazza::Reception::run</text>
</a>
</g>
</g>
<!-- Node7&#45;&gt;Node8 -->
<g id="edge7" class="edge"><title>Node7&#45;&gt;Node8</title>
<path fill="none" stroke="midnightblue" d="M1206.33,-113.911C1214.77,-113.911 1223.43,-113.911 1231.82,-113.911"/>
<polygon fill="midnightblue" stroke="midnightblue" points="1206.16,-110.411 1196.16,-113.911 1206.16,-117.411 1206.16,-110.411"/>
</g>
<!-- Node9 -->
<g id="node9" class="node"><title>Node9</title>
<g id="a_node9"><a xlink:href="gui_2sources_2main_8cpp.html#adacbe0175a79dff748855d8c9839f82b" target="_top" xlink:title="main">
<polygon fill="none" stroke="black" points="1383,-104.411 1383,-123.411 1421,-123.411 1421,-104.411 1383,-104.411"/>
<text text-anchor="middle" x="1402" y="-111.411" font-family="Helvetica,sans-Serif" font-size="10.00">main</text>
</a>
</g>
</g>
<!-- Node8&#45;&gt;Node9 -->
<g id="edge8" class="edge"><title>Node8&#45;&gt;Node9</title>
<path fill="none" stroke="midnightblue" d="M1357.3,-113.911C1366.63,-113.911 1375.5,-113.911 1382.78,-113.911"/>
<polygon fill="midnightblue" stroke="midnightblue" points="1357.04,-110.411 1347.04,-113.911 1357.04,-117.411 1357.04,-110.411"/>
</g>
<!-- Node10&#45;&gt;Node4 -->
<g id="edge10" class="edge"><title>Node10&#45;&gt;Node4</title>
<path fill="none" stroke="midnightblue" d="M638.216,-191.911C646.897,-191.911 655.624,-191.911 663.877,-191.911"/>
<polygon fill="midnightblue" stroke="midnightblue" points="638.077,-188.411 628.077,-191.911 638.077,-195.411 638.077,-188.411"/>
</g>
<!-- Node12 -->
<g id="node12" class="node"><title>Node12</title>
<g id="a_node12"><a xlink:href="classplazza_1_1_office.html#af53d889fe196fec1a3dcd1d738977048" target="_top" xlink:title="plazza::Office::assignTask">
<polygon fill="none" stroke="black" points="339,-163.411 339,-182.411 473,-182.411 473,-163.411 339,-163.411"/>
<text text-anchor="middle" x="406" y="-170.411" font-family="Helvetica,sans-Serif" font-size="10.00">plazza::Office::assignTask</text>
</a>
</g>
</g>
<!-- Node11&#45;&gt;Node12 -->
<g id="edge12" class="edge"><title>Node11&#45;&gt;Node12</title>
<path fill="none" stroke="midnightblue" d="M310.321,-172.911C319.855,-172.911 329.491,-172.911 338.779,-172.911"/>
<polygon fill="midnightblue" stroke="midnightblue" points="310.035,-169.411 300.035,-172.911 310.035,-176.411 310.035,-169.411"/>
</g>
<!-- Node12&#45;&gt;Node10 -->
<g id="edge13" class="edge"><title>Node12&#45;&gt;Node10</title>
<path fill="none" stroke="midnightblue" d="M483.266,-181.939C491.877,-182.959 500.55,-183.985 508.887,-184.972"/>
<polygon fill="midnightblue" stroke="midnightblue" points="483.55,-178.448 473.208,-180.748 482.727,-185.4 483.55,-178.448"/>
</g>
<!-- Node16&#45;&gt;Node7 -->
<g id="edge18" class="edge"><title>Node16&#45;&gt;Node7</title>
<path fill="none" stroke="midnightblue" d="M629.297,-82.5505C743.222,-89.4851 989.417,-104.471 1094.89,-110.891"/>
<polygon fill="midnightblue" stroke="midnightblue" points="629.216,-79.0392 619.022,-81.9251 628.791,-86.0263 629.216,-79.0392"/>
</g>
</g>
</svg>
