<?xml version="1.0" encoding="UTF-8" standalone="no"?>
<!DOCTYPE svg PUBLIC "-//W3C//DTD SVG 1.1//EN"
 "http://www.w3.org/Graphics/SVG/1.1/DTD/svg11.dtd">
<!-- Generated by graphviz version 2.38.0 (20140413.2041)
 -->
<!-- Title: plazza::Command::setType Pages: 1 -->
<svg width="639pt" height="142pt"
 viewBox="0.00 0.00 639.00 142.00" xmlns="http://www.w3.org/2000/svg" xmlns:xlink="http://www.w3.org/1999/xlink">
<g id="graph0" class="graph" transform="scale(1 1) rotate(0) translate(4 138)">
<title>plazza::Command::setType</title>
<!-- Node1 -->
<g id="node1" class="node"><title>Node1</title>
<polygon fill="#bfbfbf" stroke="black" points="0,-57.5 0,-76.5 137,-76.5 137,-57.5 0,-57.5"/>
<text text-anchor="middle" x="68.5" y="-64.5" font-family="Helvetica,sans-Serif" font-size="10.00">plazza::Command::setType</text>
</g>
<!-- Node2 -->
<g id="node2" class="node"><title>Node2</title>
<g id="a_node2"><a xlink:href="classplazza_1_1_command.html#a3b10f7e21627d1bceee8eb98068fdc3b" target="_top" xlink:title="reset command (arguments, type) ">
<polygon fill="none" stroke="black" points="179.5,-114.5 179.5,-133.5 303.5,-133.5 303.5,-114.5 179.5,-114.5"/>
<text text-anchor="middle" x="241.5" y="-121.5" font-family="Helvetica,sans-Serif" font-size="10.00">plazza::Command::reset</text>
</a>
</g>
</g>
<!-- Node1&#45;&gt;Node2 -->
<g id="edge1" class="edge"><title>Node1&#45;&gt;Node2</title>
<path fill="none" stroke="midnightblue" d="M107.876,-79.7919C139.369,-90.2898 183.268,-104.923 211.785,-114.428"/>
<polygon fill="midnightblue" stroke="midnightblue" points="108.715,-76.3825 98.1216,-76.5405 106.502,-83.0233 108.715,-76.3825"/>
</g>
<!-- Node3 -->
<g id="node3" class="node"><title>Node3</title>
<g id="a_node3"><a xlink:href="classplazza_1_1_command_manager.html#a9cdbbe033645c4f2f730aa923db71585" target="_top" xlink:title="Parse command provided as parameter. ">
<polygon fill="none" stroke="black" points="346,-90 346,-120 480,-120 480,-90 346,-90"/>
<text text-anchor="start" x="354" y="-108" font-family="Helvetica,sans-Serif" font-size="10.00">plazza::CommandManager</text>
<text text-anchor="middle" x="413" y="-97" font-family="Helvetica,sans-Serif" font-size="10.00">::parseCommand</text>
</a>
</g>
</g>
<!-- Node1&#45;&gt;Node3 -->
<g id="edge5" class="edge"><title>Node1&#45;&gt;Node3</title>
<path fill="none" stroke="midnightblue" d="M147.337,-75.6359C207.261,-82.2844 289.173,-91.3725 345.929,-97.6695"/>
<polygon fill="midnightblue" stroke="midnightblue" points="147.492,-72.1317 137.167,-74.5076 146.72,-79.089 147.492,-72.1317"/>
</g>
<!-- Node5 -->
<g id="node5" class="node"><title>Node5</title>
<g id="a_node5"><a xlink:href="classplazza_1_1_command.html#a6fe573e3b5c7a4cc580fd64e9c34aec1" target="_top" xlink:title="Define command type using a literal string. ">
<polygon fill="none" stroke="black" points="173,-38.5 173,-57.5 310,-57.5 310,-38.5 173,-38.5"/>
<text text-anchor="middle" x="241.5" y="-45.5" font-family="Helvetica,sans-Serif" font-size="10.00">plazza::Command::setType</text>
</a>
</g>
</g>
<!-- Node1&#45;&gt;Node5 -->
<g id="edge4" class="edge"><title>Node1&#45;&gt;Node5</title>
<path fill="none" stroke="midnightblue" d="M147.1,-58.3778C155.692,-57.4231 164.391,-56.4565 172.847,-55.517"/>
<polygon fill="midnightblue" stroke="midnightblue" points="146.636,-54.9077 137.084,-59.4907 147.409,-61.8649 146.636,-54.9077"/>
</g>
<!-- Node6 -->
<g id="node6" class="node"><title>Node6</title>
<g id="a_node6"><a xlink:href="classplazza_1_1_reception.html#add69bb3defc0d810a8f4fe2cdceacbb1" target="_top" xlink:title="run the office ">
<polygon fill="none" stroke="black" points="184,-0.5 184,-19.5 299,-19.5 299,-0.5 184,-0.5"/>
<text text-anchor="middle" x="241.5" y="-7.5" font-family="Helvetica,sans-Serif" font-size="10.00">plazza::Reception::run</text>
</a>
</g>
</g>
<!-- Node1&#45;&gt;Node6 -->
<g id="edge6" class="edge"><title>Node1&#45;&gt;Node6</title>
<path fill="none" stroke="midnightblue" d="M103.343,-53.8218C123.449,-46.1818 149.525,-36.6006 173,-29 183.192,-25.6999 194.353,-22.4236 204.613,-19.5445"/>
<polygon fill="midnightblue" stroke="midnightblue" points="102.079,-50.5577 93.9897,-57.3993 104.58,-57.0957 102.079,-50.5577"/>
</g>
<!-- Node2&#45;&gt;Node3 -->
<g id="edge2" class="edge"><title>Node2&#45;&gt;Node3</title>
<path fill="none" stroke="midnightblue" d="M313.748,-116.013C324.351,-114.825 335.244,-113.604 345.739,-112.428"/>
<polygon fill="midnightblue" stroke="midnightblue" points="313.241,-112.548 303.693,-117.141 314.021,-119.505 313.241,-112.548"/>
</g>
<!-- Node4 -->
<g id="node4" class="node"><title>Node4</title>
<g id="a_node4"><a xlink:href="classplazza_1_1_reception.html#a73427abbd4f108f41e9c9c348b50310a" target="_top" xlink:title="run the office ">
<polygon fill="none" stroke="black" points="516,-95.5 516,-114.5 631,-114.5 631,-95.5 516,-95.5"/>
<text text-anchor="middle" x="573.5" y="-102.5" font-family="Helvetica,sans-Serif" font-size="10.00">plazza::Reception::run</text>
</a>
</g>
</g>
<!-- Node3&#45;&gt;Node4 -->
<g id="edge3" class="edge"><title>Node3&#45;&gt;Node4</title>
<path fill="none" stroke="midnightblue" d="M490.523,-105C498.942,-105 507.402,-105 515.523,-105"/>
<polygon fill="midnightblue" stroke="midnightblue" points="490.3,-101.5 480.3,-105 490.3,-108.5 490.3,-101.5"/>
</g>
<!-- Node7 -->
<g id="node7" class="node"><title>Node7</title>
<g id="a_node7"><a xlink:href="gui_2sources_2main_8cpp.html#adacbe0175a79dff748855d8c9839f82b" target="_top" xlink:title="main">
<polygon fill="none" stroke="black" points="394,-0.5 394,-19.5 432,-19.5 432,-0.5 394,-0.5"/>
<text text-anchor="middle" x="413" y="-7.5" font-family="Helvetica,sans-Serif" font-size="10.00">main</text>
</a>
</g>
</g>
<!-- Node6&#45;&gt;Node7 -->
<g id="edge7" class="edge"><title>Node6&#45;&gt;Node7</title>
<path fill="none" stroke="midnightblue" d="M309.605,-10C340.091,-10 373.764,-10 393.884,-10"/>
<polygon fill="midnightblue" stroke="midnightblue" points="309.413,-6.5001 299.413,-10 309.413,-13.5001 309.413,-6.5001"/>
</g>
</g>
</svg>
