<?xml version="1.0" encoding="UTF-8" standalone="no"?>
<!DOCTYPE svg PUBLIC "-//W3C//DTD SVG 1.1//EN"
 "http://www.w3.org/Graphics/SVG/1.1/DTD/svg11.dtd">
<!-- Generated by graphviz version 2.38.0 (20140413.2041)
 -->
<!-- Title: plazza::XorCracker::run Pages: 1 -->
<svg width="738pt" height="100pt"
 viewBox="0.00 0.00 738.00 99.50" xmlns="http://www.w3.org/2000/svg" xmlns:xlink="http://www.w3.org/1999/xlink">
<g id="graph0" class="graph" transform="scale(1 1) rotate(0) translate(4 95.5)">
<title>plazza::XorCracker::run</title>
<!-- Node1 -->
<g id="node1" class="node"><title>Node1</title>
<polygon fill="#bfbfbf" stroke="black" points="0,-28 0,-47 120,-47 120,-28 0,-28"/>
<text text-anchor="middle" x="60" y="-35" font-family="Helvetica,sans-Serif" font-size="10.00">plazza::XorCracker::run</text>
</g>
<!-- Node2 -->
<g id="node2" class="node"><title>Node2</title>
<g id="a_node2"><a xlink:href="classplazza_1_1_xor_cracker.html#a4d74f576654cf3a0b83ce937d56e2cef" target="_top" xlink:title="plazza::XorCracker::run">
<polygon fill="none" stroke="black" points="156,-28 156,-47 276,-47 276,-28 156,-28"/>
<text text-anchor="middle" x="216" y="-35" font-family="Helvetica,sans-Serif" font-size="10.00">plazza::XorCracker::run</text>
</a>
</g>
</g>
<!-- Node1&#45;&gt;Node2 -->
<g id="edge1" class="edge"><title>Node1&#45;&gt;Node2</title>
<path fill="none" stroke="midnightblue" d="M130.369,-37.5C138.862,-37.5 147.48,-37.5 155.804,-37.5"/>
<polygon fill="midnightblue" stroke="midnightblue" points="130.1,-34.0001 120.1,-37.5 130.1,-41.0001 130.1,-34.0001"/>
</g>
<!-- Node3 -->
<g id="node3" class="node"><title>Node3</title>
<g id="a_node3"><a xlink:href="classplazza_1_1_worker.html#af17344ef0f0311dadb4f7c7ea9565031" target="_top" xlink:title="Send task to perform to the worker. ">
<polygon fill="none" stroke="black" points="312,-28 312,-47 449,-47 449,-28 312,-28"/>
<text text-anchor="middle" x="380.5" y="-35" font-family="Helvetica,sans-Serif" font-size="10.00">plazza::Worker::performJob</text>
</a>
</g>
</g>
<!-- Node2&#45;&gt;Node3 -->
<g id="edge2" class="edge"><title>Node2&#45;&gt;Node3</title>
<path fill="none" stroke="midnightblue" d="M286.337,-37.5C294.801,-37.5 303.441,-37.5 311.88,-37.5"/>
<polygon fill="midnightblue" stroke="midnightblue" points="286.126,-34.0001 276.126,-37.5 286.126,-41.0001 286.126,-34.0001"/>
</g>
<!-- Node4 -->
<g id="node4" class="node"><title>Node4</title>
<g id="a_node4"><a xlink:href="classplazza_1_1_worker.html#aa7561bf24cd0a90230ddd99b43b18a11" target="_top" xlink:title="Start thread execution. ">
<polygon fill="none" stroke="black" points="485,-72 485,-91 593,-91 593,-72 485,-72"/>
<text text-anchor="middle" x="539" y="-79" font-family="Helvetica,sans-Serif" font-size="10.00">plazza::Worker::start</text>
</a>
</g>
</g>
<!-- Node3&#45;&gt;Node4 -->
<g id="edge3" class="edge"><title>Node3&#45;&gt;Node4</title>
<path fill="none" stroke="midnightblue" d="M425.395,-49.8412C450.322,-56.8493 481.051,-65.4888 504.108,-71.9713"/>
<polygon fill="midnightblue" stroke="midnightblue" points="426.032,-46.3846 415.458,-47.0473 424.138,-53.1233 426.032,-46.3846"/>
</g>
<!-- Node5 -->
<g id="node5" class="node"><title>Node5</title>
<g id="a_node5"><a xlink:href="classplazza_1_1_thread_pool.html#a85b5323591017ee418afb0fdc9e3d9a7" target="_top" xlink:title="Get the number of total workers. ">
<polygon fill="none" stroke="black" points="488.5,-22.5 488.5,-52.5 589.5,-52.5 589.5,-22.5 488.5,-22.5"/>
<text text-anchor="start" x="496.5" y="-40.5" font-family="Helvetica,sans-Serif" font-size="10.00">plazza::ThreadPool</text>
<text text-anchor="middle" x="539" y="-29.5" font-family="Helvetica,sans-Serif" font-size="10.00">::getNbWorkers</text>
</a>
</g>
</g>
<!-- Node3&#45;&gt;Node5 -->
<g id="edge4" class="edge"><title>Node3&#45;&gt;Node5</title>
<path fill="none" stroke="midnightblue" d="M459.382,-37.5C469.148,-37.5 478.921,-37.5 488.094,-37.5"/>
<polygon fill="midnightblue" stroke="midnightblue" points="459.233,-34.0001 449.233,-37.5 459.233,-41.0001 459.233,-34.0001"/>
</g>
<!-- Node6 -->
<g id="node6" class="node"><title>Node6</title>
<g id="a_node6"><a xlink:href="classplazza_1_1_thread_pool.html#ae3447aa58cee4c5206d194f144d207c3" target="_top" xlink:title="Class constructor. ">
<polygon fill="none" stroke="black" points="629,-0.5 629,-30.5 730,-30.5 730,-0.5 629,-0.5"/>
<text text-anchor="start" x="637" y="-18.5" font-family="Helvetica,sans-Serif" font-size="10.00">plazza::ThreadPool</text>
<text text-anchor="middle" x="679.5" y="-7.5" font-family="Helvetica,sans-Serif" font-size="10.00">::ThreadPool</text>
</a>
</g>
</g>
<!-- Node3&#45;&gt;Node6 -->
<g id="edge6" class="edge"><title>Node3&#45;&gt;Node6</title>
<path fill="none" stroke="midnightblue" d="M424.157,-25.3039C442.685,-20.6081 464.744,-15.8178 485,-13.5 532.689,-8.04325 545.003,-12.9387 593,-13.5 604.581,-13.6354 617.041,-13.874 628.771,-14.1403"/>
<polygon fill="midnightblue" stroke="midnightblue" points="423.052,-21.9748 414.26,-27.8866 424.82,-28.748 423.052,-21.9748"/>
</g>
<!-- Node5&#45;&gt;Node6 -->
<g id="edge5" class="edge"><title>Node5&#45;&gt;Node6</title>
<path fill="none" stroke="midnightblue" d="M599.615,-28.0304C609.338,-26.4861 619.318,-24.9007 628.77,-23.3993"/>
<polygon fill="midnightblue" stroke="midnightblue" points="598.938,-24.5941 589.61,-29.6196 600.036,-31.5074 598.938,-24.5941"/>
</g>
</g>
</svg>
