<?xml version="1.0" encoding="UTF-8" standalone="no"?>
<!DOCTYPE svg PUBLIC "-//W3C//DTD SVG 1.1//EN"
 "http://www.w3.org/Graphics/SVG/1.1/DTD/svg11.dtd">
<!-- Generated by graphviz version 2.38.0 (20140413.2041)
 -->
<!-- Title: plazza::Reception::assignTask Pages: 1 -->
<svg width="1546pt" height="698pt"
 viewBox="0.00 0.00 1546.00 698.47" xmlns="http://www.w3.org/2000/svg" xmlns:xlink="http://www.w3.org/1999/xlink">
<g id="graph0" class="graph" transform="scale(1 1) rotate(0) translate(4 694.469)">
<title>plazza::Reception::assignTask</title>
<!-- Node1 -->
<g id="node1" class="node"><title>Node1</title>
<polygon fill="#bfbfbf" stroke="black" points="0,-575 0,-605 101,-605 101,-575 0,-575"/>
<text text-anchor="start" x="8" y="-593" font-family="Helvetica,sans-Serif" font-size="10.00">plazza::Reception::</text>
<text text-anchor="middle" x="50.5" y="-582" font-family="Helvetica,sans-Serif" font-size="10.00">assignTask</text>
</g>
<!-- Node2 -->
<g id="node2" class="node"><title>Node2</title>
<g id="a_node2"><a xlink:href="classplazza_1_1_reception.html#a7389b5af68c57d0547f3ba41278c2002" target="_top" xlink:title="Send a task. ">
<polygon fill="none" stroke="black" points="915,-608 915,-638 1016,-638 1016,-608 915,-608"/>
<text text-anchor="start" x="923" y="-626" font-family="Helvetica,sans-Serif" font-size="10.00">plazza::Reception::</text>
<text text-anchor="middle" x="965.5" y="-615" font-family="Helvetica,sans-Serif" font-size="10.00">sendTask</text>
</a>
</g>
</g>
<!-- Node1&#45;&gt;Node2 -->
<g id="edge1" class="edge"><title>Node1&#45;&gt;Node2</title>
<path fill="none" stroke="midnightblue" d="M101.138,-597.312C157.724,-605.002 253.063,-616 335.5,-616 335.5,-616 335.5,-616 628.5,-616 725.144,-616 837.389,-618.93 904.588,-620.999"/>
<polygon fill="midnightblue" stroke="midnightblue" points="904.873,-624.51 914.977,-621.323 905.091,-617.513 904.873,-624.51"/>
</g>
<!-- Node14 -->
<g id="node14" class="node"><title>Node14</title>
<g id="a_node14"><a xlink:href="classplazza_1_1_reception.html#a7e1b50160865f662607dcddcbd9434f9" target="_top" xlink:title="Create an office. ">
<polygon fill="none" stroke="black" points="137,-550 137,-580 238,-580 238,-550 137,-550"/>
<text text-anchor="start" x="145" y="-568" font-family="Helvetica,sans-Serif" font-size="10.00">plazza::Reception::</text>
<text text-anchor="middle" x="187.5" y="-557" font-family="Helvetica,sans-Serif" font-size="10.00">createOffice</text>
</a>
</g>
</g>
<!-- Node1&#45;&gt;Node14 -->
<g id="edge17" class="edge"><title>Node1&#45;&gt;Node14</title>
<path fill="none" stroke="midnightblue" d="M101.002,-580.833C109.332,-579.29 118.056,-577.675 126.614,-576.09"/>
<polygon fill="midnightblue" stroke="midnightblue" points="127.356,-579.512 136.552,-574.25 126.081,-572.629 127.356,-579.512"/>
</g>
<!-- Node3 -->
<g id="node3" class="node"><title>Node3</title>
<g id="a_node3"><a xlink:href="classplazza_1_1_connector_pipe.html#a988af6e52af009b779739b0fc571fc07" target="_top" xlink:title="plazza::ConnectorPipe\l::connect">
<polygon fill="none" stroke="black" points="1262.5,-511 1262.5,-541 1378.5,-541 1378.5,-511 1262.5,-511"/>
<text text-anchor="start" x="1270.5" y="-529" font-family="Helvetica,sans-Serif" font-size="10.00">plazza::ConnectorPipe</text>
<text text-anchor="middle" x="1320.5" y="-518" font-family="Helvetica,sans-Serif" font-size="10.00">::connect</text>
</a>
</g>
</g>
<!-- Node2&#45;&gt;Node3 -->
<g id="edge2" class="edge"><title>Node2&#45;&gt;Node3</title>
<path fill="none" stroke="midnightblue" d="M990.628,-638.055C1037.4,-665.144 1142.53,-715.659 1219,-675 1268.65,-648.601 1298.2,-585.533 1311.34,-550.504"/>
<polygon fill="midnightblue" stroke="midnightblue" points="1314.67,-551.607 1314.76,-541.013 1308.08,-549.236 1314.67,-551.607"/>
</g>
<!-- Node8 -->
<g id="node8" class="node"><title>Node8</title>
<g id="a_node8"><a xlink:href="classplazza_1_1_office.html#a68a916edaa033b082542493f27fa8b79" target="_top" xlink:title="get Office private key ">
<polygon fill="none" stroke="black" points="1074,-613.5 1074,-632.5 1219,-632.5 1219,-613.5 1074,-613.5"/>
<text text-anchor="middle" x="1146.5" y="-620.5" font-family="Helvetica,sans-Serif" font-size="10.00">plazza::Office::getPrivateKey</text>
</a>
</g>
</g>
<!-- Node2&#45;&gt;Node8 -->
<g id="edge7" class="edge"><title>Node2&#45;&gt;Node8</title>
<path fill="none" stroke="midnightblue" d="M1016.36,-623C1031.1,-623 1047.63,-623 1063.81,-623"/>
<polygon fill="midnightblue" stroke="midnightblue" points="1063.83,-626.5 1073.83,-623 1063.83,-619.5 1063.83,-626.5"/>
</g>
<!-- Node9 -->
<g id="node9" class="node"><title>Node9</title>
<g id="a_node9"><a xlink:href="classplazza_1_1_connector_pipe.html#a6a5aa2b09b3f85badda3ff5161e86f74" target="_top" xlink:title="plazza::ConnectorPipe\l::transfertData">
<polygon fill="none" stroke="black" points="1088.5,-176 1088.5,-206 1204.5,-206 1204.5,-176 1088.5,-176"/>
<text text-anchor="start" x="1096.5" y="-194" font-family="Helvetica,sans-Serif" font-size="10.00">plazza::ConnectorPipe</text>
<text text-anchor="middle" x="1146.5" y="-183" font-family="Helvetica,sans-Serif" font-size="10.00">::transfertData</text>
</a>
</g>
</g>
<!-- Node2&#45;&gt;Node9 -->
<g id="edge8" class="edge"><title>Node2&#45;&gt;Node9</title>
<path fill="none" stroke="midnightblue" d="M981.154,-607.679C997.999,-589.056 1024.99,-555.898 1038,-522 1062.61,-457.869 1030.71,-268.332 1074,-215 1075.73,-212.865 1077.66,-210.919 1079.75,-209.145"/>
<polygon fill="midnightblue" stroke="midnightblue" points="1082.22,-211.692 1088.44,-203.121 1078.23,-205.937 1082.22,-211.692"/>
</g>
<!-- Node13 -->
<g id="node13" class="node"><title>Node13</title>
<g id="a_node13"><a xlink:href="classplazza_1_1_connector_pipe.html#a588544d4eebd85f8f05e43f826ea47bd" target="_top" xlink:title="plazza::ConnectorPipe\l::disconnect">
<polygon fill="none" stroke="black" points="1262.5,-400 1262.5,-430 1378.5,-430 1378.5,-400 1262.5,-400"/>
<text text-anchor="start" x="1270.5" y="-418" font-family="Helvetica,sans-Serif" font-size="10.00">plazza::ConnectorPipe</text>
<text text-anchor="middle" x="1320.5" y="-407" font-family="Helvetica,sans-Serif" font-size="10.00">::disconnect</text>
</a>
</g>
</g>
<!-- Node2&#45;&gt;Node13 -->
<g id="edge14" class="edge"><title>Node2&#45;&gt;Node13</title>
<path fill="none" stroke="midnightblue" d="M999.162,-638.073C1051.49,-659.72 1154.73,-691.834 1219,-642 1269.77,-602.632 1227.35,-559.994 1255,-502 1266.33,-478.225 1284.58,-454.42 1298.77,-437.736"/>
<polygon fill="midnightblue" stroke="midnightblue" points="1301.45,-439.993 1305.37,-430.15 1296.17,-435.4 1301.45,-439.993"/>
</g>
<!-- Node4 -->
<g id="node4" class="node"><title>Node4</title>
<g id="a_node4"><a xlink:href="classplazza_1_1_connector_pipe.html#a4609ad27d1a9847c051fc3be7638e656" target="_top" xlink:title="plazza::ConnectorPipe\l::setFd">
<polygon fill="none" stroke="black" points="1422,-420 1422,-450 1538,-450 1538,-420 1422,-420"/>
<text text-anchor="start" x="1430" y="-438" font-family="Helvetica,sans-Serif" font-size="10.00">plazza::ConnectorPipe</text>
<text text-anchor="middle" x="1480" y="-427" font-family="Helvetica,sans-Serif" font-size="10.00">::setFd</text>
</a>
</g>
</g>
<!-- Node3&#45;&gt;Node4 -->
<g id="edge3" class="edge"><title>Node3&#45;&gt;Node4</title>
<path fill="none" stroke="midnightblue" d="M1347.51,-510.973C1373.84,-495.759 1414.73,-472.132 1443.92,-455.268"/>
<polygon fill="midnightblue" stroke="midnightblue" points="1446.05,-458.082 1452.95,-450.049 1442.54,-452.021 1446.05,-458.082"/>
</g>
<!-- Node5 -->
<g id="node5" class="node"><title>Node5</title>
<g id="a_node5"><a xlink:href="classplazza_1_1_connector_pipe.html#a81c0af2d4860745accb6ddf522180740" target="_top" xlink:title="plazza::ConnectorPipe\l::getFd">
<polygon fill="none" stroke="black" points="1422,-307 1422,-337 1538,-337 1538,-307 1422,-307"/>
<text text-anchor="start" x="1430" y="-325" font-family="Helvetica,sans-Serif" font-size="10.00">plazza::ConnectorPipe</text>
<text text-anchor="middle" x="1480" y="-314" font-family="Helvetica,sans-Serif" font-size="10.00">::getFd</text>
</a>
</g>
</g>
<!-- Node3&#45;&gt;Node5 -->
<g id="edge4" class="edge"><title>Node3&#45;&gt;Node5</title>
<path fill="none" stroke="midnightblue" d="M1333.08,-510.999C1360.33,-475.705 1428.65,-387.217 1461.21,-345.046"/>
<polygon fill="midnightblue" stroke="midnightblue" points="1464.06,-347.077 1467.4,-337.023 1458.52,-342.799 1464.06,-347.077"/>
</g>
<!-- Node6 -->
<g id="node6" class="node"><title>Node6</title>
<g id="a_node6"><a xlink:href="classplazza_1_1_connector_pipe.html#ae8ec632624616ac694227bc109f1f630" target="_top" xlink:title="plazza::ConnectorPipe\l::setName">
<polygon fill="none" stroke="black" points="1422,-535 1422,-565 1538,-565 1538,-535 1422,-535"/>
<text text-anchor="start" x="1430" y="-553" font-family="Helvetica,sans-Serif" font-size="10.00">plazza::ConnectorPipe</text>
<text text-anchor="middle" x="1480" y="-542" font-family="Helvetica,sans-Serif" font-size="10.00">::setName</text>
</a>
</g>
</g>
<!-- Node3&#45;&gt;Node6 -->
<g id="edge5" class="edge"><title>Node3&#45;&gt;Node6</title>
<path fill="none" stroke="midnightblue" d="M1378.81,-534.732C1389.58,-536.374 1400.94,-538.104 1411.98,-539.787"/>
<polygon fill="midnightblue" stroke="midnightblue" points="1411.59,-543.268 1422,-541.314 1412.64,-536.348 1411.59,-543.268"/>
</g>
<!-- Node7 -->
<g id="node7" class="node"><title>Node7</title>
<g id="a_node7"><a xlink:href="classplazza_1_1_connector_pipe.html#acd75d9a8aed8dbcc567353f1340c14e2" target="_top" xlink:title="plazza::ConnectorPipe\l::setMode">
<polygon fill="none" stroke="black" points="1422,-486 1422,-516 1538,-516 1538,-486 1422,-486"/>
<text text-anchor="start" x="1430" y="-504" font-family="Helvetica,sans-Serif" font-size="10.00">plazza::ConnectorPipe</text>
<text text-anchor="middle" x="1480" y="-493" font-family="Helvetica,sans-Serif" font-size="10.00">::setMode</text>
</a>
</g>
</g>
<!-- Node3&#45;&gt;Node7 -->
<g id="edge6" class="edge"><title>Node3&#45;&gt;Node7</title>
<path fill="none" stroke="midnightblue" d="M1378.81,-516.904C1389.58,-515.193 1400.94,-513.391 1411.98,-511.639"/>
<polygon fill="midnightblue" stroke="midnightblue" points="1412.67,-515.072 1422,-510.048 1411.57,-508.159 1412.67,-515.072"/>
</g>
<!-- Node10 -->
<g id="node10" class="node"><title>Node10</title>
<g id="a_node10"><a xlink:href="classplazza_1_1_connector_pipe.html#ac96ba32f2efbdaa1b0371ea98532b40b" target="_top" xlink:title="plazza::ConnectorPipe\l::getMode">
<polygon fill="none" stroke="black" points="1262.5,-176 1262.5,-206 1378.5,-206 1378.5,-176 1262.5,-176"/>
<text text-anchor="start" x="1270.5" y="-194" font-family="Helvetica,sans-Serif" font-size="10.00">plazza::ConnectorPipe</text>
<text text-anchor="middle" x="1320.5" y="-183" font-family="Helvetica,sans-Serif" font-size="10.00">::getMode</text>
</a>
</g>
</g>
<!-- Node9&#45;&gt;Node10 -->
<g id="edge9" class="edge"><title>Node9&#45;&gt;Node10</title>
<path fill="none" stroke="midnightblue" d="M1204.77,-191C1220,-191 1236.59,-191 1252.3,-191"/>
<polygon fill="midnightblue" stroke="midnightblue" points="1252.48,-194.5 1262.48,-191 1252.48,-187.5 1252.48,-194.5"/>
</g>
<!-- Node11 -->
<g id="node11" class="node"><title>Node11</title>
<g id="a_node11"><a xlink:href="classplazza_1_1_connector_pipe.html#a7570f6cfb8520505247db4727d45bed1" target="_top" xlink:title="plazza::ConnectorPipe\l::receiveData">
<polygon fill="none" stroke="black" points="1262.5,-225 1262.5,-255 1378.5,-255 1378.5,-225 1262.5,-225"/>
<text text-anchor="start" x="1270.5" y="-243" font-family="Helvetica,sans-Serif" font-size="10.00">plazza::ConnectorPipe</text>
<text text-anchor="middle" x="1320.5" y="-232" font-family="Helvetica,sans-Serif" font-size="10.00">::receiveData</text>
</a>
</g>
</g>
<!-- Node9&#45;&gt;Node11 -->
<g id="edge10" class="edge"><title>Node9&#45;&gt;Node11</title>
<path fill="none" stroke="midnightblue" d="M1200.51,-206.101C1218.33,-211.179 1238.38,-216.89 1256.87,-222.158"/>
<polygon fill="midnightblue" stroke="midnightblue" points="1256.09,-225.575 1266.67,-224.948 1258.01,-218.842 1256.09,-225.575"/>
</g>
<!-- Node12 -->
<g id="node12" class="node"><title>Node12</title>
<g id="a_node12"><a xlink:href="classplazza_1_1_connector_pipe.html#ad8062cefc673b98824dff56b5534a056" target="_top" xlink:title="plazza::ConnectorPipe\l::sendData">
<polygon fill="none" stroke="black" points="1262.5,-127 1262.5,-157 1378.5,-157 1378.5,-127 1262.5,-127"/>
<text text-anchor="start" x="1270.5" y="-145" font-family="Helvetica,sans-Serif" font-size="10.00">plazza::ConnectorPipe</text>
<text text-anchor="middle" x="1320.5" y="-134" font-family="Helvetica,sans-Serif" font-size="10.00">::sendData</text>
</a>
</g>
</g>
<!-- Node9&#45;&gt;Node12 -->
<g id="edge12" class="edge"><title>Node9&#45;&gt;Node12</title>
<path fill="none" stroke="midnightblue" d="M1200.51,-175.899C1218.33,-170.821 1238.38,-165.11 1256.87,-159.842"/>
<polygon fill="midnightblue" stroke="midnightblue" points="1258.01,-163.158 1266.67,-157.052 1256.09,-156.425 1258.01,-163.158"/>
</g>
<!-- Node11&#45;&gt;Node5 -->
<g id="edge11" class="edge"><title>Node11&#45;&gt;Node5</title>
<path fill="none" stroke="midnightblue" d="M1363.61,-255.059C1371.17,-258.117 1378.9,-261.482 1386,-265 1407.39,-275.592 1430.26,-289.569 1447.97,-301.032"/>
<polygon fill="midnightblue" stroke="midnightblue" points="1446.44,-304.215 1456.72,-306.766 1450.27,-298.359 1446.44,-304.215"/>
</g>
<!-- Node12&#45;&gt;Node5 -->
<g id="edge13" class="edge"><title>Node12&#45;&gt;Node5</title>
<path fill="none" stroke="midnightblue" d="M1372.3,-157.021C1377.2,-159.585 1381.87,-162.558 1386,-166 1429.03,-201.854 1457.12,-263.056 1470.29,-297.169"/>
<polygon fill="midnightblue" stroke="midnightblue" points="1467.12,-298.685 1473.89,-306.829 1473.67,-296.236 1467.12,-298.685"/>
</g>
<!-- Node13&#45;&gt;Node4 -->
<g id="edge16" class="edge"><title>Node13&#45;&gt;Node4</title>
<path fill="none" stroke="midnightblue" d="M1378.81,-422.277C1389.58,-423.645 1400.94,-425.087 1411.98,-426.489"/>
<polygon fill="midnightblue" stroke="midnightblue" points="1411.64,-429.974 1422,-427.762 1412.52,-423.03 1411.64,-429.974"/>
</g>
<!-- Node13&#45;&gt;Node5 -->
<g id="edge15" class="edge"><title>Node13&#45;&gt;Node5</title>
<path fill="none" stroke="midnightblue" d="M1364.89,-399.988C1372.09,-396.989 1379.36,-393.631 1386,-390 1410.13,-376.801 1435.17,-358.164 1453.18,-343.738"/>
<polygon fill="midnightblue" stroke="midnightblue" points="1455.87,-346.061 1461.42,-337.036 1451.45,-340.629 1455.87,-346.061"/>
</g>
<!-- Node15 -->
<g id="node15" class="node"><title>Node15</title>
<g id="a_node15"><a xlink:href="classplazza_1_1_reception.html#a277c0b1b54e1b1c259716cd66253b40f" target="_top" xlink:title="Get the office capacity. ">
<polygon fill="none" stroke="black" points="286,-550 286,-580 387,-580 387,-550 286,-550"/>
<text text-anchor="start" x="294" y="-568" font-family="Helvetica,sans-Serif" font-size="10.00">plazza::Reception::</text>
<text text-anchor="middle" x="336.5" y="-557" font-family="Helvetica,sans-Serif" font-size="10.00">getOfficeCapacity</text>
</a>
</g>
</g>
<!-- Node14&#45;&gt;Node15 -->
<g id="edge18" class="edge"><title>Node14&#45;&gt;Node15</title>
<path fill="none" stroke="midnightblue" d="M238.267,-565C250.241,-565 263.155,-565 275.539,-565"/>
<polygon fill="midnightblue" stroke="midnightblue" points="275.784,-568.5 285.784,-565 275.784,-561.5 275.784,-568.5"/>
</g>
<!-- Node16 -->
<g id="node16" class="node"><title>Node16</title>
<g id="a_node16"><a xlink:href="classplazza_1_1_process_manager.html#aaf7eabb8ae524f2faa9b152aa178a30b" target="_top" xlink:title="create an Office ">
<polygon fill="none" stroke="black" points="274,-488 274,-518 399,-518 399,-488 274,-488"/>
<text text-anchor="start" x="282" y="-506" font-family="Helvetica,sans-Serif" font-size="10.00">plazza::ProcessManager</text>
<text text-anchor="middle" x="336.5" y="-495" font-family="Helvetica,sans-Serif" font-size="10.00">::spawn</text>
</a>
</g>
</g>
<!-- Node14&#45;&gt;Node16 -->
<g id="edge19" class="edge"><title>Node14&#45;&gt;Node16</title>
<path fill="none" stroke="midnightblue" d="M224.085,-549.992C243.98,-541.6 268.979,-531.057 290.253,-522.084"/>
<polygon fill="midnightblue" stroke="midnightblue" points="291.88,-525.196 299.734,-518.085 289.159,-518.746 291.88,-525.196"/>
</g>
<!-- Node17 -->
<g id="node17" class="node"><title>Node17</title>
<g id="a_node17"><a xlink:href="classplazza_1_1_office.html#a611c1821b8f7dfc4d6e4a4211714e2c7" target="_top" xlink:title="init the Office ">
<polygon fill="none" stroke="black" points="917.5,-493.5 917.5,-512.5 1013.5,-512.5 1013.5,-493.5 917.5,-493.5"/>
<text text-anchor="middle" x="965.5" y="-500.5" font-family="Helvetica,sans-Serif" font-size="10.00">plazza::Office::init</text>
</a>
</g>
</g>
<!-- Node16&#45;&gt;Node17 -->
<g id="edge20" class="edge"><title>Node16&#45;&gt;Node17</title>
<path fill="none" stroke="midnightblue" d="M399.048,-503C520.349,-503 788.749,-503 906.835,-503"/>
<polygon fill="midnightblue" stroke="midnightblue" points="907.108,-506.5 917.108,-503 907.107,-499.5 907.108,-506.5"/>
</g>
<!-- Node18 -->
<g id="node18" class="node"><title>Node18</title>
<g id="a_node18"><a xlink:href="classplazza_1_1_office.html#a16495312d113667c635e467b0b7ff35d" target="_top" xlink:title="Set process pid. ">
<polygon fill="none" stroke="black" points="1091,-400.5 1091,-419.5 1202,-419.5 1202,-400.5 1091,-400.5"/>
<text text-anchor="middle" x="1146.5" y="-407.5" font-family="Helvetica,sans-Serif" font-size="10.00">plazza::Office::setPid</text>
</a>
</g>
</g>
<!-- Node16&#45;&gt;Node18 -->
<g id="edge55" class="edge"><title>Node16&#45;&gt;Node18</title>
<path fill="none" stroke="midnightblue" d="M377.522,-487.858C432.707,-468.373 535.664,-437 626.5,-437 626.5,-437 626.5,-437 791,-437 892.482,-437 1009.83,-425.863 1080.81,-417.895"/>
<polygon fill="midnightblue" stroke="midnightblue" points="1081.4,-421.35 1090.94,-416.744 1080.61,-414.395 1081.4,-421.35"/>
</g>
<!-- Node19 -->
<g id="node19" class="node"><title>Node19</title>
<g id="a_node19"><a xlink:href="classplazza_1_1_office.html#a31faf030f19d5172ed774c81f693d0aa" target="_top" xlink:title="Set Office private key. ">
<polygon fill="none" stroke="black" points="1074,-575.5 1074,-594.5 1219,-594.5 1219,-575.5 1074,-575.5"/>
<text text-anchor="middle" x="1146.5" y="-582.5" font-family="Helvetica,sans-Serif" font-size="10.00">plazza::Office::setPrivateKey</text>
</a>
</g>
</g>
<!-- Node16&#45;&gt;Node19 -->
<g id="edge56" class="edge"><title>Node16&#45;&gt;Node19</title>
<path fill="none" stroke="midnightblue" d="M376.569,-518.036C431.498,-537.79 535.08,-570 626.5,-570 626.5,-570 626.5,-570 791,-570 884.5,-570 991.748,-575.273 1063.57,-579.566"/>
<polygon fill="midnightblue" stroke="midnightblue" points="1063.71,-583.081 1073.91,-580.192 1064.14,-576.094 1063.71,-583.081"/>
</g>
<!-- Node23 -->
<g id="node23" class="node"><title>Node23</title>
<g id="a_node23"><a xlink:href="classplazza_1_1_office.html#a7c431da08f4460a011363f11f7066889" target="_top" xlink:title="Start the office. ">
<polygon fill="none" stroke="black" points="435,-222.5 435,-241.5 532,-241.5 532,-222.5 435,-222.5"/>
<text text-anchor="middle" x="483.5" y="-229.5" font-family="Helvetica,sans-Serif" font-size="10.00">plazza::Office::run</text>
</a>
</g>
</g>
<!-- Node16&#45;&gt;Node23 -->
<g id="edge28" class="edge"><title>Node16&#45;&gt;Node23</title>
<path fill="none" stroke="midnightblue" d="M345.711,-487.653C370.649,-441.046 445.449,-301.247 472.554,-250.589"/>
<polygon fill="midnightblue" stroke="midnightblue" points="475.678,-252.168 477.31,-241.7 469.506,-248.866 475.678,-252.168"/>
</g>
<!-- Node17&#45;&gt;Node3 -->
<g id="edge21" class="edge"><title>Node17&#45;&gt;Node3</title>
<path fill="none" stroke="midnightblue" d="M999.094,-512.627C1020.23,-518.36 1048.49,-525.073 1074,-528 1133.89,-534.873 1202.54,-533.54 1251.99,-530.972"/>
<polygon fill="midnightblue" stroke="midnightblue" points="1252.45,-534.452 1262.24,-530.408 1252.07,-527.463 1252.45,-534.452"/>
</g>
<!-- Node17&#45;&gt;Node8 -->
<g id="edge26" class="edge"><title>Node17&#45;&gt;Node8</title>
<path fill="none" stroke="midnightblue" d="M973.97,-512.718C990.012,-532.899 1029.9,-579.505 1074,-604 1078.13,-606.296 1082.56,-608.324 1087.1,-610.115"/>
<polygon fill="midnightblue" stroke="midnightblue" points="1085.95,-613.42 1096.54,-613.465 1088.29,-606.823 1085.95,-613.42"/>
</g>
<!-- Node17&#45;&gt;Node18 -->
<g id="edge22" class="edge"><title>Node17&#45;&gt;Node18</title>
<path fill="none" stroke="midnightblue" d="M979.218,-493.422C1003.12,-475.559 1054.14,-438.141 1074,-429 1079.23,-426.592 1084.83,-424.445 1090.49,-422.541"/>
<polygon fill="midnightblue" stroke="midnightblue" points="1091.54,-425.879 1100.05,-419.563 1089.46,-419.196 1091.54,-425.879"/>
</g>
<!-- Node17&#45;&gt;Node19 -->
<g id="edge23" class="edge"><title>Node17&#45;&gt;Node19</title>
<path fill="none" stroke="midnightblue" d="M982.103,-512.52C1002.65,-524.798 1040.15,-546.315 1074,-561 1083.37,-565.065 1093.67,-568.88 1103.46,-572.222"/>
<polygon fill="midnightblue" stroke="midnightblue" points="1102.43,-575.569 1113.03,-575.396 1104.64,-568.925 1102.43,-575.569"/>
</g>
<!-- Node20 -->
<g id="node20" class="node"><title>Node20</title>
<g id="a_node20"><a xlink:href="classplazza_1_1_office.html#a1f32b2702e30f57d8500edf91530f71c" target="_top" xlink:title="Get Office process pid. ">
<polygon fill="none" stroke="black" points="1091,-274.5 1091,-293.5 1202,-293.5 1202,-274.5 1091,-274.5"/>
<text text-anchor="middle" x="1146.5" y="-281.5" font-family="Helvetica,sans-Serif" font-size="10.00">plazza::Office::getPid</text>
</a>
</g>
</g>
<!-- Node17&#45;&gt;Node20 -->
<g id="edge24" class="edge"><title>Node17&#45;&gt;Node20</title>
<path fill="none" stroke="midnightblue" d="M968.772,-493.296C976.875,-460.897 1007.5,-355.542 1074,-303 1076.44,-301.072 1079.06,-299.338 1081.8,-297.78"/>
<polygon fill="midnightblue" stroke="midnightblue" points="1083.43,-300.881 1090.91,-293.375 1080.38,-294.579 1083.43,-300.881"/>
</g>
<!-- Node21 -->
<g id="node21" class="node"><title>Node21</title>
<g id="a_node21"><a xlink:href="classplazza_1_1_connector_pipe.html#a62120c8eaf05eb207346618977ad311e" target="_top" xlink:title="plazza::ConnectorPipe\l::create">
<polygon fill="none" stroke="black" points="1088.5,-439 1088.5,-469 1204.5,-469 1204.5,-439 1088.5,-439"/>
<text text-anchor="start" x="1096.5" y="-457" font-family="Helvetica,sans-Serif" font-size="10.00">plazza::ConnectorPipe</text>
<text text-anchor="middle" x="1146.5" y="-446" font-family="Helvetica,sans-Serif" font-size="10.00">::create</text>
</a>
</g>
</g>
<!-- Node17&#45;&gt;Node21 -->
<g id="edge25" class="edge"><title>Node17&#45;&gt;Node21</title>
<path fill="none" stroke="midnightblue" d="M1001.44,-493.436C1024,-487.26 1054.05,-479.035 1080.86,-471.696"/>
<polygon fill="midnightblue" stroke="midnightblue" points="1081.85,-475.053 1090.57,-469.037 1080,-468.302 1081.85,-475.053"/>
</g>
<!-- Node22 -->
<g id="node22" class="node"><title>Node22</title>
<g id="a_node22"><a xlink:href="classplazza_1_1_thread_pool.html#a50d6a17e2c28ee6ff818b44ee9d19b83" target="_top" xlink:title="Add the number of workers to the pool. ">
<polygon fill="none" stroke="black" points="1096,-488 1096,-518 1197,-518 1197,-488 1096,-488"/>
<text text-anchor="start" x="1104" y="-506" font-family="Helvetica,sans-Serif" font-size="10.00">plazza::ThreadPool</text>
<text text-anchor="middle" x="1146.5" y="-495" font-family="Helvetica,sans-Serif" font-size="10.00">::createWorkers</text>
</a>
</g>
</g>
<!-- Node17&#45;&gt;Node22 -->
<g id="edge27" class="edge"><title>Node17&#45;&gt;Node22</title>
<path fill="none" stroke="midnightblue" d="M1013.53,-503C1035.64,-503 1062.24,-503 1085.76,-503"/>
<polygon fill="midnightblue" stroke="midnightblue" points="1085.97,-506.5 1095.97,-503 1085.97,-499.5 1085.97,-506.5"/>
</g>
<!-- Node24 -->
<g id="node24" class="node"><title>Node24</title>
<g id="a_node24"><a xlink:href="classplazza_1_1_office.html#a7d91676d533d57dde86fbfe94e4e1a92" target="_top" xlink:title="Check if the office is active. ">
<polygon fill="none" stroke="black" points="568,-74.5 568,-93.5 687,-93.5 687,-74.5 568,-74.5"/>
<text text-anchor="middle" x="627.5" y="-81.5" font-family="Helvetica,sans-Serif" font-size="10.00">plazza::Office::isActive</text>
</a>
</g>
</g>
<!-- Node23&#45;&gt;Node24 -->
<g id="edge29" class="edge"><title>Node23&#45;&gt;Node24</title>
<path fill="none" stroke="midnightblue" d="M493.817,-222.289C517.493,-197.613 580.203,-132.253 610.143,-101.048"/>
<polygon fill="midnightblue" stroke="midnightblue" points="612.936,-103.193 617.333,-93.554 607.884,-98.3467 612.936,-103.193"/>
</g>
<!-- Node28 -->
<g id="node28" class="node"><title>Node28</title>
<g id="a_node28"><a xlink:href="classplazza_1_1_office.html#a9b483976ff17c8c541d34f8ce7098c38" target="_top" xlink:title="Get task for the private pipe. ">
<polygon fill="none" stroke="black" points="568,-202.5 568,-221.5 687,-221.5 687,-202.5 568,-202.5"/>
<text text-anchor="middle" x="627.5" y="-209.5" font-family="Helvetica,sans-Serif" font-size="10.00">plazza::Office::getTask</text>
</a>
</g>
</g>
<!-- Node23&#45;&gt;Node28 -->
<g id="edge33" class="edge"><title>Node23&#45;&gt;Node28</title>
<path fill="none" stroke="midnightblue" d="M532.179,-225.285C540.402,-224.126 549.095,-222.902 557.744,-221.684"/>
<polygon fill="midnightblue" stroke="midnightblue" points="558.431,-225.122 567.845,-220.261 557.454,-218.19 558.431,-225.122"/>
</g>
<!-- Node35 -->
<g id="node35" class="node"><title>Node35</title>
<g id="a_node35"><a xlink:href="classplazza_1_1_office.html#a04316c75e42181f331b214729c8e7909" target="_top" xlink:title="Close the office. ">
<polygon fill="none" stroke="black" points="912,-255.5 912,-274.5 1019,-274.5 1019,-255.5 912,-255.5"/>
<text text-anchor="middle" x="965.5" y="-262.5" font-family="Helvetica,sans-Serif" font-size="10.00">plazza::Office::close</text>
</a>
</g>
</g>
<!-- Node23&#45;&gt;Node35 -->
<g id="edge45" class="edge"><title>Node23&#45;&gt;Node35</title>
<path fill="none" stroke="midnightblue" d="M532.279,-235.285C619.537,-241.284 804.628,-254.009 901.854,-260.693"/>
<polygon fill="midnightblue" stroke="midnightblue" points="901.621,-264.185 911.838,-261.379 902.101,-257.202 901.621,-264.185"/>
</g>
<!-- Node25 -->
<g id="node25" class="node"><title>Node25</title>
<g id="a_node25"><a xlink:href="classplazza_1_1_thread_pool.html#a14887a37ed86db5df1c89237752149ff" target="_top" xlink:title="Get the number of free workers. ">
<polygon fill="none" stroke="black" points="737.5,-4 737.5,-34 842.5,-34 842.5,-4 737.5,-4"/>
<text text-anchor="start" x="745.5" y="-22" font-family="Helvetica,sans-Serif" font-size="10.00">plazza::ThreadPool</text>
<text text-anchor="middle" x="790" y="-11" font-family="Helvetica,sans-Serif" font-size="10.00">::getNbFreeWorkers</text>
</a>
</g>
</g>
<!-- Node24&#45;&gt;Node25 -->
<g id="edge30" class="edge"><title>Node24&#45;&gt;Node25</title>
<path fill="none" stroke="midnightblue" d="M652.182,-74.409C675.866,-64.8175 712.924,-49.8096 742.502,-37.8311"/>
<polygon fill="midnightblue" stroke="midnightblue" points="743.861,-41.0569 751.816,-34.0591 741.233,-34.5688 743.861,-41.0569"/>
</g>
<!-- Node27 -->
<g id="node27" class="node"><title>Node27</title>
<g id="a_node27"><a xlink:href="classplazza_1_1_thread_pool.html#aa0600df9d22b7c083dc2cf35633fbb3d" target="_top" xlink:title="Get the Queue task length. ">
<polygon fill="none" stroke="black" points="739.5,-69 739.5,-99 840.5,-99 840.5,-69 739.5,-69"/>
<text text-anchor="start" x="747.5" y="-87" font-family="Helvetica,sans-Serif" font-size="10.00">plazza::ThreadPool</text>
<text text-anchor="middle" x="790" y="-76" font-family="Helvetica,sans-Serif" font-size="10.00">::getQueueLength</text>
</a>
</g>
</g>
<!-- Node24&#45;&gt;Node27 -->
<g id="edge32" class="edge"><title>Node24&#45;&gt;Node27</title>
<path fill="none" stroke="midnightblue" d="M687.353,-84C700.97,-84 715.474,-84 729.134,-84"/>
<polygon fill="midnightblue" stroke="midnightblue" points="729.386,-87.5001 739.386,-84 729.386,-80.5001 729.386,-87.5001"/>
</g>
<!-- Node26 -->
<g id="node26" class="node"><title>Node26</title>
<g id="a_node26"><a xlink:href="classplazza_1_1_worker.html#a7e0633e722049076c4c41777ccdf4a13" target="_top" xlink:title="Change worker working state. ">
<polygon fill="none" stroke="black" points="903,-0.5 903,-19.5 1028,-19.5 1028,-0.5 903,-0.5"/>
<text text-anchor="middle" x="965.5" y="-7.5" font-family="Helvetica,sans-Serif" font-size="10.00">plazza::Worker::setBusy</text>
</a>
</g>
</g>
<!-- Node25&#45;&gt;Node26 -->
<g id="edge31" class="edge"><title>Node25&#45;&gt;Node26</title>
<path fill="none" stroke="midnightblue" d="M842.586,-16.3241C858.22,-15.5131 875.689,-14.6069 892.409,-13.7396"/>
<polygon fill="midnightblue" stroke="midnightblue" points="892.894,-17.2192 902.7,-13.2058 892.532,-10.2286 892.894,-17.2192"/>
</g>
<!-- Node28&#45;&gt;Node9 -->
<g id="edge34" class="edge"><title>Node28&#45;&gt;Node9</title>
<path fill="none" stroke="midnightblue" d="M687.052,-209.622C783.666,-205.697 975.923,-197.888 1078.07,-193.739"/>
<polygon fill="midnightblue" stroke="midnightblue" points="1078.42,-197.228 1088.27,-193.325 1078.13,-190.234 1078.42,-197.228"/>
</g>
<!-- Node29 -->
<g id="node29" class="node"><title>Node29</title>
<g id="a_node29"><a xlink:href="classplazza_1_1_office.html#af53d889fe196fec1a3dcd1d738977048" target="_top" xlink:title="plazza::Office::assignTask">
<polygon fill="none" stroke="black" points="723,-126.5 723,-145.5 857,-145.5 857,-126.5 723,-126.5"/>
<text text-anchor="middle" x="790" y="-133.5" font-family="Helvetica,sans-Serif" font-size="10.00">plazza::Office::assignTask</text>
</a>
</g>
</g>
<!-- Node28&#45;&gt;Node29 -->
<g id="edge35" class="edge"><title>Node28&#45;&gt;Node29</title>
<path fill="none" stroke="midnightblue" d="M648.827,-202.375C676.806,-189.126 727.362,-165.187 759.5,-149.969"/>
<polygon fill="midnightblue" stroke="midnightblue" points="761.298,-152.99 768.838,-145.547 758.302,-146.664 761.298,-152.99"/>
</g>
<!-- Node30 -->
<g id="node30" class="node"><title>Node30</title>
<g id="a_node30"><a xlink:href="classplazza_1_1_office.html#ae5955f678a2422dee68f43b102502e57" target="_top" xlink:title="set number of available tasks ">
<polygon fill="none" stroke="black" points="1077.5,-127 1077.5,-157 1215.5,-157 1215.5,-127 1077.5,-127"/>
<text text-anchor="start" x="1085.5" y="-145" font-family="Helvetica,sans-Serif" font-size="10.00">plazza::Office::setFreeTask</text>
<text text-anchor="middle" x="1146.5" y="-134" font-family="Helvetica,sans-Serif" font-size="10.00">Spots</text>
</a>
</g>
</g>
<!-- Node29&#45;&gt;Node30 -->
<g id="edge36" class="edge"><title>Node29&#45;&gt;Node30</title>
<path fill="none" stroke="midnightblue" d="M857.263,-137.122C916.775,-138.129 1004.22,-139.609 1067.17,-140.674"/>
<polygon fill="midnightblue" stroke="midnightblue" points="1067.39,-144.178 1077.45,-140.848 1067.51,-137.179 1067.39,-144.178"/>
</g>
<!-- Node31 -->
<g id="node31" class="node"><title>Node31</title>
<g id="a_node31"><a xlink:href="classplazza_1_1_office.html#a0ca9b3768cf184e6d95edee417ca0231" target="_top" xlink:title="Get number of available tasks. ">
<polygon fill="none" stroke="black" points="1077.5,-78 1077.5,-108 1215.5,-108 1215.5,-78 1077.5,-78"/>
<text text-anchor="start" x="1085.5" y="-96" font-family="Helvetica,sans-Serif" font-size="10.00">plazza::Office::getFreeTask</text>
<text text-anchor="middle" x="1146.5" y="-85" font-family="Helvetica,sans-Serif" font-size="10.00">Spots</text>
</a>
</g>
</g>
<!-- Node29&#45;&gt;Node31 -->
<g id="edge37" class="edge"><title>Node29&#45;&gt;Node31</title>
<path fill="none" stroke="midnightblue" d="M857.263,-127.962C916.775,-120.744 1004.22,-110.137 1067.17,-102.501"/>
<polygon fill="midnightblue" stroke="midnightblue" points="1067.94,-105.933 1077.45,-101.254 1067.1,-98.984 1067.94,-105.933"/>
</g>
<!-- Node32 -->
<g id="node32" class="node"><title>Node32</title>
<g id="a_node32"><a xlink:href="classplazza_1_1_thread_pool.html#a353ba248e5dffc93f2912c9148da05fb" target="_top" xlink:title="Add a job to the queue. ">
<polygon fill="none" stroke="black" points="915,-39 915,-69 1016,-69 1016,-39 915,-39"/>
<text text-anchor="start" x="923" y="-57" font-family="Helvetica,sans-Serif" font-size="10.00">plazza::ThreadPool</text>
<text text-anchor="middle" x="965.5" y="-46" font-family="Helvetica,sans-Serif" font-size="10.00">::addJob</text>
</a>
</g>
</g>
<!-- Node29&#45;&gt;Node32 -->
<g id="edge38" class="edge"><title>Node29&#45;&gt;Node32</title>
<path fill="none" stroke="midnightblue" d="M816.59,-126.441C829.04,-121.466 844.073,-114.972 857,-108 873.925,-98.8718 876.057,-93.0947 893,-84 900.167,-80.1526 907.935,-76.45 915.62,-73.0382"/>
<polygon fill="midnightblue" stroke="midnightblue" points="917.113,-76.2061 924.908,-69.0305 914.34,-69.779 917.113,-76.2061"/>
</g>
<!-- Node34 -->
<g id="node34" class="node"><title>Node34</title>
<g id="a_node34"><a xlink:href="classplazza_1_1_office.html#a40e5e47be8961ded30ee24e588a04e51" target="_top" xlink:title="Finish the task and send it to the server. ">
<polygon fill="none" stroke="black" points="893,-164.5 893,-183.5 1038,-183.5 1038,-164.5 893,-164.5"/>
<text text-anchor="middle" x="965.5" y="-171.5" font-family="Helvetica,sans-Serif" font-size="10.00">plazza::Office::completeTask</text>
</a>
</g>
</g>
<!-- Node29&#45;&gt;Node34 -->
<g id="edge40" class="edge"><title>Node29&#45;&gt;Node34</title>
<path fill="none" stroke="midnightblue" d="M834.781,-145.589C857.986,-150.671 886.678,-156.955 911.173,-162.32"/>
<polygon fill="midnightblue" stroke="midnightblue" points="910.516,-165.759 921.033,-164.48 912.014,-158.921 910.516,-165.759"/>
</g>
<!-- Node33 -->
<g id="node33" class="node"><title>Node33</title>
<g id="a_node33"><a xlink:href="classplazza_1_1_cond_var.html#a5a2666ecbdb8b14acfe186c91097af75" target="_top" xlink:title="Notify one. ">
<polygon fill="none" stroke="black" points="1078,-39.5 1078,-58.5 1215,-58.5 1215,-39.5 1078,-39.5"/>
<text text-anchor="middle" x="1146.5" y="-46.5" font-family="Helvetica,sans-Serif" font-size="10.00">plazza::CondVar::notifyOne</text>
</a>
</g>
</g>
<!-- Node32&#45;&gt;Node33 -->
<g id="edge39" class="edge"><title>Node32&#45;&gt;Node33</title>
<path fill="none" stroke="midnightblue" d="M1016.36,-52.6072C1032.27,-52.1628 1050.28,-51.6598 1067.68,-51.1736"/>
<polygon fill="midnightblue" stroke="midnightblue" points="1067.95,-54.6678 1077.84,-50.8898 1067.75,-47.6705 1067.95,-54.6678"/>
</g>
<!-- Node34&#45;&gt;Node9 -->
<g id="edge44" class="edge"><title>Node34&#45;&gt;Node9</title>
<path fill="none" stroke="midnightblue" d="M1038.02,-180.792C1051.23,-182.047 1065,-183.354 1078.09,-184.597"/>
<polygon fill="midnightblue" stroke="midnightblue" points="1078.13,-188.117 1088.42,-185.579 1078.79,-181.149 1078.13,-188.117"/>
</g>
<!-- Node34&#45;&gt;Node20 -->
<g id="edge43" class="edge"><title>Node34&#45;&gt;Node20</title>
<path fill="none" stroke="midnightblue" d="M975.276,-183.691C992.443,-202.069 1032.44,-242.104 1074,-264 1079.19,-266.733 1084.79,-269.126 1090.49,-271.213"/>
<polygon fill="midnightblue" stroke="midnightblue" points="1089.54,-274.586 1100.13,-274.445 1091.76,-267.948 1089.54,-274.586"/>
</g>
<!-- Node34&#45;&gt;Node30 -->
<g id="edge41" class="edge"><title>Node34&#45;&gt;Node30</title>
<path fill="none" stroke="midnightblue" d="M1019.72,-164.486C1034.66,-161.816 1051.21,-158.856 1067.28,-155.984"/>
<polygon fill="midnightblue" stroke="midnightblue" points="1067.97,-159.416 1077.2,-154.21 1066.74,-152.525 1067.97,-159.416"/>
</g>
<!-- Node34&#45;&gt;Node31 -->
<g id="edge42" class="edge"><title>Node34&#45;&gt;Node31</title>
<path fill="none" stroke="midnightblue" d="M982.484,-164.458C1003.13,-152.383 1040.42,-131.423 1074,-117 1078.36,-115.128 1082.91,-113.306 1087.52,-111.556"/>
<polygon fill="midnightblue" stroke="midnightblue" points="1088.83,-114.803 1097.02,-108.074 1086.42,-108.231 1088.83,-114.803"/>
</g>
<!-- Node35&#45;&gt;Node9 -->
<g id="edge47" class="edge"><title>Node35&#45;&gt;Node9</title>
<path fill="none" stroke="midnightblue" d="M985.636,-255.308C1006.92,-244.718 1042.46,-227.585 1074,-215 1078.74,-213.108 1083.7,-211.235 1088.7,-209.42"/>
<polygon fill="midnightblue" stroke="midnightblue" points="1090.05,-212.653 1098.31,-206.01 1087.71,-206.056 1090.05,-212.653"/>
</g>
<!-- Node35&#45;&gt;Node13 -->
<g id="edge50" class="edge"><title>Node35&#45;&gt;Node13</title>
<path fill="none" stroke="midnightblue" d="M975.574,-274.712C992.938,-292.71 1032.81,-331.296 1074,-352 1082.14,-356.091 1182.48,-381.253 1252.33,-398.513"/>
<polygon fill="midnightblue" stroke="midnightblue" points="1251.85,-402 1262.4,-400.998 1253.53,-395.204 1251.85,-402"/>
</g>
<!-- Node35&#45;&gt;Node20 -->
<g id="edge46" class="edge"><title>Node35&#45;&gt;Node20</title>
<path fill="none" stroke="midnightblue" d="M1019.24,-270.598C1038.56,-272.649 1060.64,-274.993 1080.89,-277.142"/>
<polygon fill="midnightblue" stroke="midnightblue" points="1080.65,-280.636 1090.97,-278.211 1081.39,-273.675 1080.65,-280.636"/>
</g>
<!-- Node36 -->
<g id="node36" class="node"><title>Node36</title>
<g id="a_node36"><a xlink:href="classplazza_1_1_thread_pool.html#a927215245cf2e50525f7706056b26e50" target="_top" xlink:title="Stop the pool execution. ">
<polygon fill="none" stroke="black" points="1096,-225 1096,-255 1197,-255 1197,-225 1096,-225"/>
<text text-anchor="start" x="1104" y="-243" font-family="Helvetica,sans-Serif" font-size="10.00">plazza::ThreadPool</text>
<text text-anchor="middle" x="1146.5" y="-232" font-family="Helvetica,sans-Serif" font-size="10.00">::stop</text>
</a>
</g>
</g>
<!-- Node35&#45;&gt;Node36 -->
<g id="edge48" class="edge"><title>Node35&#45;&gt;Node36</title>
<path fill="none" stroke="midnightblue" d="M1019.24,-257.634C1040.16,-254.712 1064.32,-251.337 1085.88,-248.327"/>
<polygon fill="midnightblue" stroke="midnightblue" points="1086.48,-251.777 1095.9,-246.928 1085.51,-244.845 1086.48,-251.777"/>
</g>
<!-- Node38 -->
<g id="node38" class="node"><title>Node38</title>
<g id="a_node38"><a xlink:href="classplazza_1_1_connector_pipe.html#ac6e124ff9380729df4e1491b3c365d95" target="_top" xlink:title="plazza::ConnectorPipe\l::destroy">
<polygon fill="none" stroke="black" points="1088.5,-313 1088.5,-343 1204.5,-343 1204.5,-313 1088.5,-313"/>
<text text-anchor="start" x="1096.5" y="-331" font-family="Helvetica,sans-Serif" font-size="10.00">plazza::ConnectorPipe</text>
<text text-anchor="middle" x="1146.5" y="-320" font-family="Helvetica,sans-Serif" font-size="10.00">::destroy</text>
</a>
</g>
</g>
<!-- Node35&#45;&gt;Node38 -->
<g id="edge51" class="edge"><title>Node35&#45;&gt;Node38</title>
<path fill="none" stroke="midnightblue" d="M993.44,-274.552C1015.18,-282.252 1046.55,-293.349 1074,-303 1080.02,-305.118 1086.34,-307.332 1092.61,-309.53"/>
<polygon fill="midnightblue" stroke="midnightblue" points="1091.79,-312.952 1102.39,-312.953 1094.11,-306.345 1091.79,-312.952"/>
</g>
<!-- Node37 -->
<g id="node37" class="node"><title>Node37</title>
<g id="a_node37"><a xlink:href="classplazza_1_1_cond_var.html#a06ecb812639ea15519117b3be3524e43" target="_top" xlink:title="Notify all. ">
<polygon fill="none" stroke="black" points="1255,-274.5 1255,-293.5 1386,-293.5 1386,-274.5 1255,-274.5"/>
<text text-anchor="middle" x="1320.5" y="-281.5" font-family="Helvetica,sans-Serif" font-size="10.00">plazza::CondVar::notifyAll</text>
</a>
</g>
</g>
<!-- Node36&#45;&gt;Node37 -->
<g id="edge49" class="edge"><title>Node36&#45;&gt;Node37</title>
<path fill="none" stroke="midnightblue" d="M1197.25,-252.727C1220.84,-258.762 1248.89,-265.938 1272.17,-271.892"/>
<polygon fill="midnightblue" stroke="midnightblue" points="1271.6,-275.36 1282.16,-274.448 1273.34,-268.579 1271.6,-275.36"/>
</g>
<!-- Node38&#45;&gt;Node5 -->
<g id="edge52" class="edge"><title>Node38&#45;&gt;Node5</title>
<path fill="none" stroke="midnightblue" d="M1204.86,-326.962C1262.32,-325.922 1350.73,-324.322 1411.52,-323.221"/>
<polygon fill="midnightblue" stroke="midnightblue" points="1411.85,-326.716 1421.78,-323.036 1411.72,-319.717 1411.85,-326.716"/>
</g>
<!-- Node38&#45;&gt;Node13 -->
<g id="edge53" class="edge"><title>Node38&#45;&gt;Node13</title>
<path fill="none" stroke="midnightblue" d="M1189.87,-343.066C1199.75,-347.307 1210,-352.333 1219,-358 1237.12,-369.407 1236.73,-378.843 1255,-390 1258.21,-391.962 1261.61,-393.818 1265.09,-395.565"/>
<polygon fill="midnightblue" stroke="midnightblue" points="1263.9,-398.874 1274.44,-399.932 1266.86,-392.531 1263.9,-398.874"/>
</g>
<!-- Node39 -->
<g id="node39" class="node"><title>Node39</title>
<g id="a_node39"><a xlink:href="classplazza_1_1_connector_pipe.html#acc3d09548d11f5e39ec5b53a2796e9df" target="_top" xlink:title="plazza::ConnectorPipe\l::getName">
<polygon fill="none" stroke="black" points="1262.5,-351 1262.5,-381 1378.5,-381 1378.5,-351 1262.5,-351"/>
<text text-anchor="start" x="1270.5" y="-369" font-family="Helvetica,sans-Serif" font-size="10.00">plazza::ConnectorPipe</text>
<text text-anchor="middle" x="1320.5" y="-358" font-family="Helvetica,sans-Serif" font-size="10.00">::getName</text>
</a>
</g>
</g>
<!-- Node38&#45;&gt;Node39 -->
<g id="edge54" class="edge"><title>Node38&#45;&gt;Node39</title>
<path fill="none" stroke="midnightblue" d="M1204.77,-340.653C1220,-344.018 1236.59,-347.684 1252.3,-351.154"/>
<polygon fill="midnightblue" stroke="midnightblue" points="1251.96,-354.662 1262.48,-353.402 1253.47,-347.827 1251.96,-354.662"/>
</g>
</g>
</svg>
