<?xml version="1.0" encoding="UTF-8" standalone="no"?>
<!DOCTYPE svg PUBLIC "-//W3C//DTD SVG 1.1//EN"
 "http://www.w3.org/Graphics/SVG/1.1/DTD/svg11.dtd">
<!-- Generated by graphviz version 2.38.0 (20140413.2041)
 -->
<!-- Title: plazza::Worker::setBusy Pages: 1 -->
<svg width="1259pt" height="122pt"
 viewBox="0.00 0.00 1259.00 121.50" xmlns="http://www.w3.org/2000/svg" xmlns:xlink="http://www.w3.org/1999/xlink">
<g id="graph0" class="graph" transform="scale(1 1) rotate(0) translate(4 117.5)">
<title>plazza::Worker::setBusy</title>
<!-- Node1 -->
<g id="node1" class="node"><title>Node1</title>
<polygon fill="#bfbfbf" stroke="black" points="0,-50 0,-69 125,-69 125,-50 0,-50"/>
<text text-anchor="middle" x="62.5" y="-57" font-family="Helvetica,sans-Serif" font-size="10.00">plazza::Worker::setBusy</text>
</g>
<!-- Node2 -->
<g id="node2" class="node"><title>Node2</title>
<g id="a_node2"><a xlink:href="classplazza_1_1_worker.html#aa7561bf24cd0a90230ddd99b43b18a11" target="_top" xlink:title="Start thread execution. ">
<polygon fill="none" stroke="black" points="161,-94 161,-113 269,-113 269,-94 161,-94"/>
<text text-anchor="middle" x="215" y="-101" font-family="Helvetica,sans-Serif" font-size="10.00">plazza::Worker::start</text>
</a>
</g>
</g>
<!-- Node1&#45;&gt;Node2 -->
<g id="edge1" class="edge"><title>Node1&#45;&gt;Node2</title>
<path fill="none" stroke="midnightblue" d="M106.032,-71.9347C129.946,-78.926 159.333,-87.5177 181.407,-93.9713"/>
<polygon fill="midnightblue" stroke="midnightblue" points="106.737,-68.4942 96.1563,-69.0473 104.772,-75.2129 106.737,-68.4942"/>
</g>
<!-- Node3 -->
<g id="node3" class="node"><title>Node3</title>
<g id="a_node3"><a xlink:href="classplazza_1_1_thread_pool.html#a14887a37ed86db5df1c89237752149ff" target="_top" xlink:title="Get the number of free workers. ">
<polygon fill="none" stroke="black" points="162.5,-44.5 162.5,-74.5 267.5,-74.5 267.5,-44.5 162.5,-44.5"/>
<text text-anchor="start" x="170.5" y="-62.5" font-family="Helvetica,sans-Serif" font-size="10.00">plazza::ThreadPool</text>
<text text-anchor="middle" x="215" y="-51.5" font-family="Helvetica,sans-Serif" font-size="10.00">::getNbFreeWorkers</text>
</a>
</g>
</g>
<!-- Node1&#45;&gt;Node3 -->
<g id="edge2" class="edge"><title>Node1&#45;&gt;Node3</title>
<path fill="none" stroke="midnightblue" d="M135.355,-59.5C144.445,-59.5 153.601,-59.5 162.292,-59.5"/>
<polygon fill="midnightblue" stroke="midnightblue" points="135.148,-56.0001 125.148,-59.5 135.148,-63.0001 135.148,-56.0001"/>
</g>
<!-- Node12 -->
<g id="node12" class="node"><title>Node12</title>
<g id="a_node12"><a xlink:href="classplazza_1_1_thread_pool.html#ae3447aa58cee4c5206d194f144d207c3" target="_top" xlink:title="Class constructor. ">
<polygon fill="none" stroke="black" points="331,-0.5 331,-30.5 432,-30.5 432,-0.5 331,-0.5"/>
<text text-anchor="start" x="339" y="-18.5" font-family="Helvetica,sans-Serif" font-size="10.00">plazza::ThreadPool</text>
<text text-anchor="middle" x="381.5" y="-7.5" font-family="Helvetica,sans-Serif" font-size="10.00">::ThreadPool</text>
</a>
</g>
</g>
<!-- Node1&#45;&gt;Node12 -->
<g id="edge12" class="edge"><title>Node1&#45;&gt;Node12</title>
<path fill="none" stroke="midnightblue" d="M105.006,-47.2497C122.197,-42.5977 142.423,-37.6634 161,-34.5 218.881,-24.6434 286.267,-19.7759 330.95,-17.4583"/>
<polygon fill="midnightblue" stroke="midnightblue" points="103.977,-43.9028 95.2713,-49.9405 105.842,-50.6498 103.977,-43.9028"/>
</g>
<!-- Node4 -->
<g id="node4" class="node"><title>Node4</title>
<g id="a_node4"><a xlink:href="classplazza_1_1_office.html#a9effeb6357d3a84d8bc1d91dda19ed55" target="_top" xlink:title="Get the number of inactive workers. ">
<polygon fill="none" stroke="black" points="305,-88 305,-107 458,-107 458,-88 305,-88"/>
<text text-anchor="middle" x="381.5" y="-95" font-family="Helvetica,sans-Serif" font-size="10.00">plazza::Office::getFreeWorkers</text>
</a>
</g>
</g>
<!-- Node3&#45;&gt;Node4 -->
<g id="edge3" class="edge"><title>Node3&#45;&gt;Node4</title>
<path fill="none" stroke="midnightblue" d="M277.535,-73.7147C298.131,-78.4725 320.581,-83.6584 339.246,-87.9702"/>
<polygon fill="midnightblue" stroke="midnightblue" points="278.129,-70.2598 267.597,-71.4192 276.553,-77.0802 278.129,-70.2598"/>
</g>
<!-- Node5 -->
<g id="node5" class="node"><title>Node5</title>
<g id="a_node5"><a xlink:href="classplazza_1_1_office.html#a7d91676d533d57dde86fbfe94e4e1a92" target="_top" xlink:title="Check if the office is active. ">
<polygon fill="none" stroke="black" points="322,-50 322,-69 441,-69 441,-50 322,-50"/>
<text text-anchor="middle" x="381.5" y="-57" font-family="Helvetica,sans-Serif" font-size="10.00">plazza::Office::isActive</text>
</a>
</g>
</g>
<!-- Node3&#45;&gt;Node5 -->
<g id="edge4" class="edge"><title>Node3&#45;&gt;Node5</title>
<path fill="none" stroke="midnightblue" d="M277.913,-59.5C292.334,-59.5 307.645,-59.5 321.916,-59.5"/>
<polygon fill="midnightblue" stroke="midnightblue" points="277.598,-56.0001 267.597,-59.5 277.597,-63.0001 277.598,-56.0001"/>
</g>
<!-- Node3&#45;&gt;Node12 -->
<g id="edge11" class="edge"><title>Node3&#45;&gt;Node12</title>
<path fill="none" stroke="midnightblue" d="M277.727,-42.9893C295.237,-38.306 314.071,-33.2682 330.773,-28.8008"/>
<polygon fill="midnightblue" stroke="midnightblue" points="276.353,-39.7337 267.597,-45.6988 278.162,-46.496 276.353,-39.7337"/>
</g>
<!-- Node6 -->
<g id="node6" class="node"><title>Node6</title>
<g id="a_node6"><a xlink:href="classplazza_1_1_office.html#a7c431da08f4460a011363f11f7066889" target="_top" xlink:title="Start the office. ">
<polygon fill="none" stroke="black" points="494,-50 494,-69 591,-69 591,-50 494,-50"/>
<text text-anchor="middle" x="542.5" y="-57" font-family="Helvetica,sans-Serif" font-size="10.00">plazza::Office::run</text>
</a>
</g>
</g>
<!-- Node5&#45;&gt;Node6 -->
<g id="edge5" class="edge"><title>Node5&#45;&gt;Node6</title>
<path fill="none" stroke="midnightblue" d="M451.548,-59.5C465.834,-59.5 480.579,-59.5 493.892,-59.5"/>
<polygon fill="midnightblue" stroke="midnightblue" points="451.254,-56.0001 441.254,-59.5 451.254,-63.0001 451.254,-56.0001"/>
</g>
<!-- Node7 -->
<g id="node7" class="node"><title>Node7</title>
<g id="a_node7"><a xlink:href="classplazza_1_1_process_manager.html#aaf7eabb8ae524f2faa9b152aa178a30b" target="_top" xlink:title="create an Office ">
<polygon fill="none" stroke="black" points="627,-44.5 627,-74.5 752,-74.5 752,-44.5 627,-44.5"/>
<text text-anchor="start" x="635" y="-62.5" font-family="Helvetica,sans-Serif" font-size="10.00">plazza::ProcessManager</text>
<text text-anchor="middle" x="689.5" y="-51.5" font-family="Helvetica,sans-Serif" font-size="10.00">::spawn</text>
</a>
</g>
</g>
<!-- Node6&#45;&gt;Node7 -->
<g id="edge6" class="edge"><title>Node6&#45;&gt;Node7</title>
<path fill="none" stroke="midnightblue" d="M601.451,-59.5C609.843,-59.5 618.506,-59.5 626.966,-59.5"/>
<polygon fill="midnightblue" stroke="midnightblue" points="601.38,-56.0001 591.38,-59.5 601.38,-63.0001 601.38,-56.0001"/>
</g>
<!-- Node8 -->
<g id="node8" class="node"><title>Node8</title>
<g id="a_node8"><a xlink:href="classplazza_1_1_reception.html#a7e1b50160865f662607dcddcbd9434f9" target="_top" xlink:title="Create an office. ">
<polygon fill="none" stroke="black" points="788,-44.5 788,-74.5 889,-74.5 889,-44.5 788,-44.5"/>
<text text-anchor="start" x="796" y="-62.5" font-family="Helvetica,sans-Serif" font-size="10.00">plazza::Reception::</text>
<text text-anchor="middle" x="838.5" y="-51.5" font-family="Helvetica,sans-Serif" font-size="10.00">createOffice</text>
</a>
</g>
</g>
<!-- Node7&#45;&gt;Node8 -->
<g id="edge7" class="edge"><title>Node7&#45;&gt;Node8</title>
<path fill="none" stroke="midnightblue" d="M762.694,-59.5C771.154,-59.5 779.638,-59.5 787.696,-59.5"/>
<polygon fill="midnightblue" stroke="midnightblue" points="762.415,-56.0001 752.415,-59.5 762.415,-63.0001 762.415,-56.0001"/>
</g>
<!-- Node9 -->
<g id="node9" class="node"><title>Node9</title>
<g id="a_node9"><a xlink:href="classplazza_1_1_reception.html#a7aa64f05388780e369663cd6800578ae" target="_top" xlink:title="Assign a task to the queue. ">
<polygon fill="none" stroke="black" points="925,-44.5 925,-74.5 1026,-74.5 1026,-44.5 925,-44.5"/>
<text text-anchor="start" x="933" y="-62.5" font-family="Helvetica,sans-Serif" font-size="10.00">plazza::Reception::</text>
<text text-anchor="middle" x="975.5" y="-51.5" font-family="Helvetica,sans-Serif" font-size="10.00">assignTask</text>
</a>
</g>
</g>
<!-- Node8&#45;&gt;Node9 -->
<g id="edge8" class="edge"><title>Node8&#45;&gt;Node9</title>
<path fill="none" stroke="midnightblue" d="M899.207,-59.5C907.67,-59.5 916.299,-59.5 924.552,-59.5"/>
<polygon fill="midnightblue" stroke="midnightblue" points="899.002,-56.0001 889.002,-59.5 899.002,-63.0001 899.002,-56.0001"/>
</g>
<!-- Node10 -->
<g id="node10" class="node"><title>Node10</title>
<g id="a_node10"><a xlink:href="classplazza_1_1_reception.html#add69bb3defc0d810a8f4fe2cdceacbb1" target="_top" xlink:title="run the office ">
<polygon fill="none" stroke="black" points="1062,-50 1062,-69 1177,-69 1177,-50 1062,-50"/>
<text text-anchor="middle" x="1119.5" y="-57" font-family="Helvetica,sans-Serif" font-size="10.00">plazza::Reception::run</text>
</a>
</g>
</g>
<!-- Node9&#45;&gt;Node10 -->
<g id="edge9" class="edge"><title>Node9&#45;&gt;Node10</title>
<path fill="none" stroke="midnightblue" d="M1036.33,-59.5C1044.77,-59.5 1053.43,-59.5 1061.82,-59.5"/>
<polygon fill="midnightblue" stroke="midnightblue" points="1036.16,-56.0001 1026.16,-59.5 1036.16,-63.0001 1036.16,-56.0001"/>
</g>
<!-- Node11 -->
<g id="node11" class="node"><title>Node11</title>
<g id="a_node11"><a xlink:href="gui_2sources_2main_8cpp.html#adacbe0175a79dff748855d8c9839f82b" target="_top" xlink:title="main">
<polygon fill="none" stroke="black" points="1213,-50 1213,-69 1251,-69 1251,-50 1213,-50"/>
<text text-anchor="middle" x="1232" y="-57" font-family="Helvetica,sans-Serif" font-size="10.00">main</text>
</a>
</g>
</g>
<!-- Node10&#45;&gt;Node11 -->
<g id="edge10" class="edge"><title>Node10&#45;&gt;Node11</title>
<path fill="none" stroke="midnightblue" d="M1187.3,-59.5C1196.63,-59.5 1205.5,-59.5 1212.78,-59.5"/>
<polygon fill="midnightblue" stroke="midnightblue" points="1187.04,-56.0001 1177.04,-59.5 1187.04,-63.0001 1187.04,-56.0001"/>
</g>
</g>
</svg>
