<?xml version="1.0" encoding="UTF-8" standalone="no"?>
<!DOCTYPE svg PUBLIC "-//W3C//DTD SVG 1.1//EN"
 "http://www.w3.org/Graphics/SVG/1.1/DTD/svg11.dtd">
<!-- Generated by graphviz version 2.38.0 (20140413.2041)
 -->
<!-- Title: plazza::Reception::createOffice Pages: 1 -->
<svg width="1428pt" height="564pt"
 viewBox="0.00 0.00 1428.00 564.00" xmlns="http://www.w3.org/2000/svg" xmlns:xlink="http://www.w3.org/1999/xlink">
<g id="graph0" class="graph" transform="scale(1 1) rotate(0) translate(4 560)">
<title>plazza::Reception::createOffice</title>
<!-- Node1 -->
<g id="node1" class="node"><title>Node1</title>
<polygon fill="#bfbfbf" stroke="black" points="0,-353.5 0,-383.5 101,-383.5 101,-353.5 0,-353.5"/>
<text text-anchor="start" x="8" y="-371.5" font-family="Helvetica,sans-Serif" font-size="10.00">plazza::Reception::</text>
<text text-anchor="middle" x="50.5" y="-360.5" font-family="Helvetica,sans-Serif" font-size="10.00">createOffice</text>
</g>
<!-- Node2 -->
<g id="node2" class="node"><title>Node2</title>
<g id="a_node2"><a xlink:href="classplazza_1_1_reception.html#a277c0b1b54e1b1c259716cd66253b40f" target="_top" xlink:title="Get the office capacity. ">
<polygon fill="none" stroke="black" points="149,-378.5 149,-408.5 250,-408.5 250,-378.5 149,-378.5"/>
<text text-anchor="start" x="157" y="-396.5" font-family="Helvetica,sans-Serif" font-size="10.00">plazza::Reception::</text>
<text text-anchor="middle" x="199.5" y="-385.5" font-family="Helvetica,sans-Serif" font-size="10.00">getOfficeCapacity</text>
</a>
</g>
</g>
<!-- Node1&#45;&gt;Node2 -->
<g id="edge1" class="edge"><title>Node1&#45;&gt;Node2</title>
<path fill="none" stroke="midnightblue" d="M101.267,-376.964C113.361,-379.021 126.414,-381.24 138.91,-383.366"/>
<polygon fill="midnightblue" stroke="midnightblue" points="138.338,-386.819 148.784,-385.045 139.512,-379.918 138.338,-386.819"/>
</g>
<!-- Node3 -->
<g id="node3" class="node"><title>Node3</title>
<g id="a_node3"><a xlink:href="classplazza_1_1_process_manager.html#aaf7eabb8ae524f2faa9b152aa178a30b" target="_top" xlink:title="create an Office ">
<polygon fill="none" stroke="black" points="137,-329.5 137,-359.5 262,-359.5 262,-329.5 137,-329.5"/>
<text text-anchor="start" x="145" y="-347.5" font-family="Helvetica,sans-Serif" font-size="10.00">plazza::ProcessManager</text>
<text text-anchor="middle" x="199.5" y="-336.5" font-family="Helvetica,sans-Serif" font-size="10.00">::spawn</text>
</a>
</g>
</g>
<!-- Node1&#45;&gt;Node3 -->
<g id="edge2" class="edge"><title>Node1&#45;&gt;Node3</title>
<path fill="none" stroke="midnightblue" d="M101.267,-360.375C109.469,-359.036 118.113,-357.624 126.724,-356.218"/>
<polygon fill="midnightblue" stroke="midnightblue" points="127.486,-359.641 136.791,-354.575 126.358,-352.732 127.486,-359.641"/>
</g>
<!-- Node4 -->
<g id="node4" class="node"><title>Node4</title>
<g id="a_node4"><a xlink:href="classplazza_1_1_office.html#a611c1821b8f7dfc4d6e4a4211714e2c7" target="_top" xlink:title="init the Office ">
<polygon fill="none" stroke="black" points="298.5,-378 298.5,-397 394.5,-397 394.5,-378 298.5,-378"/>
<text text-anchor="middle" x="346.5" y="-385" font-family="Helvetica,sans-Serif" font-size="10.00">plazza::Office::init</text>
</a>
</g>
</g>
<!-- Node3&#45;&gt;Node4 -->
<g id="edge3" class="edge"><title>Node3&#45;&gt;Node4</title>
<path fill="none" stroke="midnightblue" d="M251.214,-359.539C268.257,-364.593 287.071,-370.173 303.38,-375.009"/>
<polygon fill="midnightblue" stroke="midnightblue" points="302.591,-378.426 313.173,-377.914 304.581,-371.715 302.591,-378.426"/>
</g>
<!-- Node10 -->
<g id="node10" class="node"><title>Node10</title>
<g id="a_node10"><a xlink:href="classplazza_1_1_office.html#a16495312d113667c635e467b0b7ff35d" target="_top" xlink:title="Set process pid. ">
<polygon fill="none" stroke="black" points="448,-520 448,-539 559,-539 559,-520 448,-520"/>
<text text-anchor="middle" x="503.5" y="-527" font-family="Helvetica,sans-Serif" font-size="10.00">plazza::Office::setPid</text>
</a>
</g>
</g>
<!-- Node3&#45;&gt;Node10 -->
<g id="edge49" class="edge"><title>Node3&#45;&gt;Node10</title>
<path fill="none" stroke="midnightblue" d="M245.998,-359.594C251.582,-362.207 257.055,-365.173 262,-368.5 281.302,-381.487 280.604,-391.052 298,-406.5 353.1,-455.429 365.701,-471.35 431,-505.5 439.18,-509.778 448.277,-513.52 457.166,-516.697"/>
<polygon fill="midnightblue" stroke="midnightblue" points="456.082,-520.025 466.676,-519.92 458.329,-513.395 456.082,-520.025"/>
</g>
<!-- Node11 -->
<g id="node11" class="node"><title>Node11</title>
<g id="a_node11"><a xlink:href="classplazza_1_1_office.html#a31faf030f19d5172ed774c81f693d0aa" target="_top" xlink:title="Set Office private key. ">
<polygon fill="none" stroke="black" points="431,-268 431,-287 576,-287 576,-268 431,-268"/>
<text text-anchor="middle" x="503.5" y="-275" font-family="Helvetica,sans-Serif" font-size="10.00">plazza::Office::setPrivateKey</text>
</a>
</g>
</g>
<!-- Node3&#45;&gt;Node11 -->
<g id="edge50" class="edge"><title>Node3&#45;&gt;Node11</title>
<path fill="none" stroke="midnightblue" d="M262.343,-330.78C317.349,-318.577 396.946,-300.918 449.196,-289.326"/>
<polygon fill="midnightblue" stroke="midnightblue" points="450.261,-292.675 459.266,-287.092 448.745,-285.841 450.261,-292.675"/>
</g>
<!-- Node16 -->
<g id="node16" class="node"><title>Node16</title>
<g id="a_node16"><a xlink:href="classplazza_1_1_office.html#a7c431da08f4460a011363f11f7066889" target="_top" xlink:title="Start the office. ">
<polygon fill="none" stroke="black" points="298,-211 298,-230 395,-230 395,-211 298,-211"/>
<text text-anchor="middle" x="346.5" y="-218" font-family="Helvetica,sans-Serif" font-size="10.00">plazza::Office::run</text>
</a>
</g>
</g>
<!-- Node3&#45;&gt;Node16 -->
<g id="edge15" class="edge"><title>Node3&#45;&gt;Node16</title>
<path fill="none" stroke="midnightblue" d="M218.28,-329.295C245.693,-305.852 298.061,-261.068 326.306,-236.914"/>
<polygon fill="midnightblue" stroke="midnightblue" points="328.918,-239.286 334.243,-230.127 324.368,-233.966 328.918,-239.286"/>
</g>
<!-- Node5 -->
<g id="node5" class="node"><title>Node5</title>
<g id="a_node5"><a xlink:href="classplazza_1_1_connector_pipe.html#a988af6e52af009b779739b0fc571fc07" target="_top" xlink:title="plazza::ConnectorPipe\l::connect">
<polygon fill="none" stroke="black" points="1144.5,-476.5 1144.5,-506.5 1260.5,-506.5 1260.5,-476.5 1144.5,-476.5"/>
<text text-anchor="start" x="1152.5" y="-494.5" font-family="Helvetica,sans-Serif" font-size="10.00">plazza::ConnectorPipe</text>
<text text-anchor="middle" x="1202.5" y="-483.5" font-family="Helvetica,sans-Serif" font-size="10.00">::connect</text>
</a>
</g>
</g>
<!-- Node4&#45;&gt;Node5 -->
<g id="edge4" class="edge"><title>Node4&#45;&gt;Node5</title>
<path fill="none" stroke="midnightblue" d="M385.938,-397.13C389.143,-398.669 392.216,-400.447 395,-402.5 417.62,-419.186 407.139,-439.641 431,-454.5 525.226,-513.178 566.997,-491.5 678,-491.5 678,-491.5 678,-491.5 855.5,-491.5 952.203,-491.5 1064.11,-491.5 1133.86,-491.5"/>
<polygon fill="midnightblue" stroke="midnightblue" points="1134.26,-495 1144.26,-491.5 1134.26,-488 1134.26,-495"/>
</g>
<!-- Node4&#45;&gt;Node10 -->
<g id="edge9" class="edge"><title>Node4&#45;&gt;Node10</title>
<path fill="none" stroke="midnightblue" d="M351.801,-397.331C362.132,-419.823 390.521,-475.399 431,-505.5 436.779,-509.797 443.375,-513.356 450.17,-516.295"/>
<polygon fill="midnightblue" stroke="midnightblue" points="448.914,-519.562 459.502,-519.93 451.454,-513.039 448.914,-519.562"/>
</g>
<!-- Node4&#45;&gt;Node11 -->
<g id="edge10" class="edge"><title>Node4&#45;&gt;Node11</title>
<path fill="none" stroke="midnightblue" d="M353.558,-377.861C365.808,-359.188 395.409,-318.03 431,-296.5 434.585,-294.331 438.418,-292.406 442.377,-290.699"/>
<polygon fill="midnightblue" stroke="midnightblue" points="443.699,-293.941 451.786,-287.096 441.196,-287.403 443.699,-293.941"/>
</g>
<!-- Node12 -->
<g id="node12" class="node"><title>Node12</title>
<g id="a_node12"><a xlink:href="classplazza_1_1_office.html#a1f32b2702e30f57d8500edf91530f71c" target="_top" xlink:title="Get Office process pid. ">
<polygon fill="none" stroke="black" points="976.5,-292 976.5,-311 1087.5,-311 1087.5,-292 976.5,-292"/>
<text text-anchor="middle" x="1032" y="-299" font-family="Helvetica,sans-Serif" font-size="10.00">plazza::Office::getPid</text>
</a>
</g>
</g>
<!-- Node4&#45;&gt;Node12 -->
<g id="edge11" class="edge"><title>Node4&#45;&gt;Node12</title>
<path fill="none" stroke="midnightblue" d="M383.185,-397.016C387.274,-398.615 391.298,-400.437 395,-402.5 413.444,-412.778 411.205,-426.152 431,-433.5 491.416,-455.928 512.205,-442.623 576,-433.5 598.172,-430.329 941.464,-326.653 963,-320.5 970.624,-318.322 978.737,-316.031 986.605,-313.824"/>
<polygon fill="midnightblue" stroke="midnightblue" points="987.698,-317.153 996.385,-311.088 985.811,-310.412 987.698,-317.153"/>
</g>
<!-- Node13 -->
<g id="node13" class="node"><title>Node13</title>
<g id="a_node13"><a xlink:href="classplazza_1_1_connector_pipe.html#a62120c8eaf05eb207346618977ad311e" target="_top" xlink:title="plazza::ConnectorPipe\l::create">
<polygon fill="none" stroke="black" points="445.5,-394.5 445.5,-424.5 561.5,-424.5 561.5,-394.5 445.5,-394.5"/>
<text text-anchor="start" x="453.5" y="-412.5" font-family="Helvetica,sans-Serif" font-size="10.00">plazza::ConnectorPipe</text>
<text text-anchor="middle" x="503.5" y="-401.5" font-family="Helvetica,sans-Serif" font-size="10.00">::create</text>
</a>
</g>
</g>
<!-- Node4&#45;&gt;Node13 -->
<g id="edge12" class="edge"><title>Node4&#45;&gt;Node13</title>
<path fill="none" stroke="midnightblue" d="M394.847,-394.22C407.546,-396.023 421.525,-398.007 435.085,-399.931"/>
<polygon fill="midnightblue" stroke="midnightblue" points="434.952,-403.448 445.344,-401.388 435.936,-396.517 434.952,-403.448"/>
</g>
<!-- Node14 -->
<g id="node14" class="node"><title>Node14</title>
<g id="a_node14"><a xlink:href="classplazza_1_1_office.html#a68a916edaa033b082542493f27fa8b79" target="_top" xlink:title="get Office private key ">
<polygon fill="none" stroke="black" points="431,-356 431,-375 576,-375 576,-356 431,-356"/>
<text text-anchor="middle" x="503.5" y="-363" font-family="Helvetica,sans-Serif" font-size="10.00">plazza::Office::getPrivateKey</text>
</a>
</g>
</g>
<!-- Node4&#45;&gt;Node14 -->
<g id="edge13" class="edge"><title>Node4&#45;&gt;Node14</title>
<path fill="none" stroke="midnightblue" d="M394.847,-380.78C404.563,-379.401 415.027,-377.916 425.479,-376.432"/>
<polygon fill="midnightblue" stroke="midnightblue" points="426.064,-379.884 435.473,-375.014 425.08,-372.954 426.064,-379.884"/>
</g>
<!-- Node15 -->
<g id="node15" class="node"><title>Node15</title>
<g id="a_node15"><a xlink:href="classplazza_1_1_thread_pool.html#a50d6a17e2c28ee6ff818b44ee9d19b83" target="_top" xlink:title="Add the number of workers to the pool. ">
<polygon fill="none" stroke="black" points="453,-306.5 453,-336.5 554,-336.5 554,-306.5 453,-306.5"/>
<text text-anchor="start" x="461" y="-324.5" font-family="Helvetica,sans-Serif" font-size="10.00">plazza::ThreadPool</text>
<text text-anchor="middle" x="503.5" y="-313.5" font-family="Helvetica,sans-Serif" font-size="10.00">::createWorkers</text>
</a>
</g>
</g>
<!-- Node4&#45;&gt;Node15 -->
<g id="edge14" class="edge"><title>Node4&#45;&gt;Node15</title>
<path fill="none" stroke="midnightblue" d="M365.453,-377.903C382.169,-369.157 407.909,-356.165 431,-346.5 436.155,-344.342 441.57,-342.212 447.015,-340.159"/>
<polygon fill="midnightblue" stroke="midnightblue" points="448.623,-343.297 456.8,-336.559 446.207,-336.727 448.623,-343.297"/>
</g>
<!-- Node6 -->
<g id="node6" class="node"><title>Node6</title>
<g id="a_node6"><a xlink:href="classplazza_1_1_connector_pipe.html#a4609ad27d1a9847c051fc3be7638e656" target="_top" xlink:title="plazza::ConnectorPipe\l::setFd">
<polygon fill="none" stroke="black" points="1304,-427.5 1304,-457.5 1420,-457.5 1420,-427.5 1304,-427.5"/>
<text text-anchor="start" x="1312" y="-445.5" font-family="Helvetica,sans-Serif" font-size="10.00">plazza::ConnectorPipe</text>
<text text-anchor="middle" x="1362" y="-434.5" font-family="Helvetica,sans-Serif" font-size="10.00">::setFd</text>
</a>
</g>
</g>
<!-- Node5&#45;&gt;Node6 -->
<g id="edge5" class="edge"><title>Node5&#45;&gt;Node6</title>
<path fill="none" stroke="midnightblue" d="M1252.04,-476.399C1268.13,-471.392 1286.21,-465.768 1302.95,-460.561"/>
<polygon fill="midnightblue" stroke="midnightblue" points="1304.11,-463.864 1312.62,-457.552 1302.03,-457.18 1304.11,-463.864"/>
</g>
<!-- Node7 -->
<g id="node7" class="node"><title>Node7</title>
<g id="a_node7"><a xlink:href="classplazza_1_1_connector_pipe.html#a81c0af2d4860745accb6ddf522180740" target="_top" xlink:title="plazza::ConnectorPipe\l::getFd">
<polygon fill="none" stroke="black" points="1304,-334.5 1304,-364.5 1420,-364.5 1420,-334.5 1304,-334.5"/>
<text text-anchor="start" x="1312" y="-352.5" font-family="Helvetica,sans-Serif" font-size="10.00">plazza::ConnectorPipe</text>
<text text-anchor="middle" x="1362" y="-341.5" font-family="Helvetica,sans-Serif" font-size="10.00">::getFd</text>
</a>
</g>
</g>
<!-- Node5&#45;&gt;Node7 -->
<g id="edge6" class="edge"><title>Node5&#45;&gt;Node7</title>
<path fill="none" stroke="midnightblue" d="M1251.65,-476.408C1257.44,-473.582 1263.04,-470.297 1268,-466.5 1289.46,-450.071 1287.31,-438.755 1304,-417.5 1316.05,-402.149 1330.14,-385.336 1341.29,-372.269"/>
<polygon fill="midnightblue" stroke="midnightblue" points="1343.96,-374.533 1347.81,-364.663 1338.65,-369.977 1343.96,-374.533"/>
</g>
<!-- Node8 -->
<g id="node8" class="node"><title>Node8</title>
<g id="a_node8"><a xlink:href="classplazza_1_1_connector_pipe.html#ae8ec632624616ac694227bc109f1f630" target="_top" xlink:title="plazza::ConnectorPipe\l::setName">
<polygon fill="none" stroke="black" points="1304,-525.5 1304,-555.5 1420,-555.5 1420,-525.5 1304,-525.5"/>
<text text-anchor="start" x="1312" y="-543.5" font-family="Helvetica,sans-Serif" font-size="10.00">plazza::ConnectorPipe</text>
<text text-anchor="middle" x="1362" y="-532.5" font-family="Helvetica,sans-Serif" font-size="10.00">::setName</text>
</a>
</g>
</g>
<!-- Node5&#45;&gt;Node8 -->
<g id="edge7" class="edge"><title>Node5&#45;&gt;Node8</title>
<path fill="none" stroke="midnightblue" d="M1252.04,-506.601C1268.13,-511.608 1286.21,-517.232 1302.95,-522.439"/>
<polygon fill="midnightblue" stroke="midnightblue" points="1302.03,-525.82 1312.62,-525.448 1304.11,-519.136 1302.03,-525.82"/>
</g>
<!-- Node9 -->
<g id="node9" class="node"><title>Node9</title>
<g id="a_node9"><a xlink:href="classplazza_1_1_connector_pipe.html#acd75d9a8aed8dbcc567353f1340c14e2" target="_top" xlink:title="plazza::ConnectorPipe\l::setMode">
<polygon fill="none" stroke="black" points="1304,-476.5 1304,-506.5 1420,-506.5 1420,-476.5 1304,-476.5"/>
<text text-anchor="start" x="1312" y="-494.5" font-family="Helvetica,sans-Serif" font-size="10.00">plazza::ConnectorPipe</text>
<text text-anchor="middle" x="1362" y="-483.5" font-family="Helvetica,sans-Serif" font-size="10.00">::setMode</text>
</a>
</g>
</g>
<!-- Node5&#45;&gt;Node9 -->
<g id="edge8" class="edge"><title>Node5&#45;&gt;Node9</title>
<path fill="none" stroke="midnightblue" d="M1260.81,-491.5C1271.58,-491.5 1282.94,-491.5 1293.98,-491.5"/>
<polygon fill="midnightblue" stroke="midnightblue" points="1294,-495 1304,-491.5 1294,-488 1294,-495"/>
</g>
<!-- Node17 -->
<g id="node17" class="node"><title>Node17</title>
<g id="a_node17"><a xlink:href="classplazza_1_1_office.html#a7d91676d533d57dde86fbfe94e4e1a92" target="_top" xlink:title="Check if the office is active. ">
<polygon fill="none" stroke="black" points="444,-192 444,-211 563,-211 563,-192 444,-192"/>
<text text-anchor="middle" x="503.5" y="-199" font-family="Helvetica,sans-Serif" font-size="10.00">plazza::Office::isActive</text>
</a>
</g>
</g>
<!-- Node16&#45;&gt;Node17 -->
<g id="edge16" class="edge"><title>Node16&#45;&gt;Node17</title>
<path fill="none" stroke="midnightblue" d="M395.27,-214.644C407.412,-213.156 420.702,-211.527 433.665,-209.938"/>
<polygon fill="midnightblue" stroke="midnightblue" points="434.463,-213.366 443.962,-208.676 433.611,-206.418 434.463,-213.366"/>
</g>
<!-- Node21 -->
<g id="node21" class="node"><title>Node21</title>
<g id="a_node21"><a xlink:href="classplazza_1_1_office.html#a9b483976ff17c8c541d34f8ce7098c38" target="_top" xlink:title="Get task for the private pipe. ">
<polygon fill="none" stroke="black" points="444,-148 444,-167 563,-167 563,-148 444,-148"/>
<text text-anchor="middle" x="503.5" y="-155" font-family="Helvetica,sans-Serif" font-size="10.00">plazza::Office::getTask</text>
</a>
</g>
</g>
<!-- Node16&#45;&gt;Node21 -->
<g id="edge20" class="edge"><title>Node16&#45;&gt;Node21</title>
<path fill="none" stroke="midnightblue" d="M367.189,-210.928C383.972,-202.916 408.829,-191.4 431,-182.5 441.558,-178.262 453.146,-174.033 463.862,-170.291"/>
<polygon fill="midnightblue" stroke="midnightblue" points="465.088,-173.571 473.403,-167.006 462.809,-166.952 465.088,-173.571"/>
</g>
<!-- Node32 -->
<g id="node32" class="node"><title>Node32</title>
<g id="a_node32"><a xlink:href="classplazza_1_1_office.html#a04316c75e42181f331b214729c8e7909" target="_top" xlink:title="Close the office. ">
<polygon fill="none" stroke="black" points="801,-385 801,-404 908,-404 908,-385 801,-385"/>
<text text-anchor="middle" x="854.5" y="-392" font-family="Helvetica,sans-Serif" font-size="10.00">plazza::Office::close</text>
</a>
</g>
</g>
<!-- Node16&#45;&gt;Node32 -->
<g id="edge37" class="edge"><title>Node16&#45;&gt;Node32</title>
<path fill="none" stroke="midnightblue" d="M395.274,-224.37C442.173,-229.111 515.302,-239.041 576,-258.5 588.996,-262.666 756.67,-346.141 824.906,-380.208"/>
<polygon fill="midnightblue" stroke="midnightblue" points="823.712,-383.524 834.222,-384.861 826.84,-377.262 823.712,-383.524"/>
</g>
<!-- Node18 -->
<g id="node18" class="node"><title>Node18</title>
<g id="a_node18"><a xlink:href="classplazza_1_1_thread_pool.html#a14887a37ed86db5df1c89237752149ff" target="_top" xlink:title="Get the number of free workers. ">
<polygon fill="none" stroke="black" points="626.5,-235.5 626.5,-265.5 731.5,-265.5 731.5,-235.5 626.5,-235.5"/>
<text text-anchor="start" x="634.5" y="-253.5" font-family="Helvetica,sans-Serif" font-size="10.00">plazza::ThreadPool</text>
<text text-anchor="middle" x="679" y="-242.5" font-family="Helvetica,sans-Serif" font-size="10.00">::getNbFreeWorkers</text>
</a>
</g>
</g>
<!-- Node17&#45;&gt;Node18 -->
<g id="edge17" class="edge"><title>Node17&#45;&gt;Node18</title>
<path fill="none" stroke="midnightblue" d="M538.364,-211.064C560.575,-217.337 590.266,-225.722 616.558,-233.147"/>
<polygon fill="midnightblue" stroke="midnightblue" points="615.87,-236.59 626.445,-235.94 617.773,-229.854 615.87,-236.59"/>
</g>
<!-- Node20 -->
<g id="node20" class="node"><title>Node20</title>
<g id="a_node20"><a xlink:href="classplazza_1_1_thread_pool.html#aa0600df9d22b7c083dc2cf35633fbb3d" target="_top" xlink:title="Get the Queue task length. ">
<polygon fill="none" stroke="black" points="628.5,-186.5 628.5,-216.5 729.5,-216.5 729.5,-186.5 628.5,-186.5"/>
<text text-anchor="start" x="636.5" y="-204.5" font-family="Helvetica,sans-Serif" font-size="10.00">plazza::ThreadPool</text>
<text text-anchor="middle" x="679" y="-193.5" font-family="Helvetica,sans-Serif" font-size="10.00">::getQueueLength</text>
</a>
</g>
</g>
<!-- Node17&#45;&gt;Node20 -->
<g id="edge19" class="edge"><title>Node17&#45;&gt;Node20</title>
<path fill="none" stroke="midnightblue" d="M563.239,-201.5C580.908,-201.5 600.313,-201.5 618.058,-201.5"/>
<polygon fill="midnightblue" stroke="midnightblue" points="618.289,-205 628.289,-201.5 618.289,-198 618.289,-205"/>
</g>
<!-- Node19 -->
<g id="node19" class="node"><title>Node19</title>
<g id="a_node19"><a xlink:href="classplazza_1_1_worker.html#a7e0633e722049076c4c41777ccdf4a13" target="_top" xlink:title="Change worker working state. ">
<polygon fill="none" stroke="black" points="792,-241 792,-260 917,-260 917,-241 792,-241"/>
<text text-anchor="middle" x="854.5" y="-248" font-family="Helvetica,sans-Serif" font-size="10.00">plazza::Worker::setBusy</text>
</a>
</g>
</g>
<!-- Node18&#45;&gt;Node19 -->
<g id="edge18" class="edge"><title>Node18&#45;&gt;Node19</title>
<path fill="none" stroke="midnightblue" d="M731.586,-250.5C747.22,-250.5 764.689,-250.5 781.409,-250.5"/>
<polygon fill="midnightblue" stroke="midnightblue" points="781.7,-254 791.7,-250.5 781.7,-247 781.7,-254"/>
</g>
<!-- Node22 -->
<g id="node22" class="node"><title>Node22</title>
<g id="a_node22"><a xlink:href="classplazza_1_1_connector_pipe.html#a6a5aa2b09b3f85badda3ff5161e86f74" target="_top" xlink:title="plazza::ConnectorPipe\l::transfertData">
<polygon fill="none" stroke="black" points="974,-167.5 974,-197.5 1090,-197.5 1090,-167.5 974,-167.5"/>
<text text-anchor="start" x="982" y="-185.5" font-family="Helvetica,sans-Serif" font-size="10.00">plazza::ConnectorPipe</text>
<text text-anchor="middle" x="1032" y="-174.5" font-family="Helvetica,sans-Serif" font-size="10.00">::transfertData</text>
</a>
</g>
</g>
<!-- Node21&#45;&gt;Node22 -->
<g id="edge21" class="edge"><title>Node21&#45;&gt;Node22</title>
<path fill="none" stroke="midnightblue" d="M563.11,-160.283C661.552,-164.957 859.519,-174.357 963.574,-179.298"/>
<polygon fill="midnightblue" stroke="midnightblue" points="963.495,-182.798 973.649,-179.777 963.827,-175.806 963.495,-182.798"/>
</g>
<!-- Node26 -->
<g id="node26" class="node"><title>Node26</title>
<g id="a_node26"><a xlink:href="classplazza_1_1_office.html#af53d889fe196fec1a3dcd1d738977048" target="_top" xlink:title="plazza::Office::assignTask">
<polygon fill="none" stroke="black" points="612,-88 612,-107 746,-107 746,-88 612,-88"/>
<text text-anchor="middle" x="679" y="-95" font-family="Helvetica,sans-Serif" font-size="10.00">plazza::Office::assignTask</text>
</a>
</g>
</g>
<!-- Node21&#45;&gt;Node26 -->
<g id="edge27" class="edge"><title>Node21&#45;&gt;Node26</title>
<path fill="none" stroke="midnightblue" d="M531.992,-147.993C561.347,-137.841 608.043,-121.693 640.701,-110.399"/>
<polygon fill="midnightblue" stroke="midnightblue" points="642.043,-113.638 650.35,-107.062 639.756,-107.022 642.043,-113.638"/>
</g>
<!-- Node23 -->
<g id="node23" class="node"><title>Node23</title>
<g id="a_node23"><a xlink:href="classplazza_1_1_connector_pipe.html#ac96ba32f2efbdaa1b0371ea98532b40b" target="_top" xlink:title="plazza::ConnectorPipe\l::getMode">
<polygon fill="none" stroke="black" points="1144.5,-203.5 1144.5,-233.5 1260.5,-233.5 1260.5,-203.5 1144.5,-203.5"/>
<text text-anchor="start" x="1152.5" y="-221.5" font-family="Helvetica,sans-Serif" font-size="10.00">plazza::ConnectorPipe</text>
<text text-anchor="middle" x="1202.5" y="-210.5" font-family="Helvetica,sans-Serif" font-size="10.00">::getMode</text>
</a>
</g>
</g>
<!-- Node22&#45;&gt;Node23 -->
<g id="edge22" class="edge"><title>Node22&#45;&gt;Node23</title>
<path fill="none" stroke="midnightblue" d="M1090.05,-194.688C1104.24,-197.721 1119.59,-201 1134.23,-204.128"/>
<polygon fill="midnightblue" stroke="midnightblue" points="1133.72,-207.597 1144.23,-206.263 1135.18,-200.751 1133.72,-207.597"/>
</g>
<!-- Node24 -->
<g id="node24" class="node"><title>Node24</title>
<g id="a_node24"><a xlink:href="classplazza_1_1_connector_pipe.html#a7570f6cfb8520505247db4727d45bed1" target="_top" xlink:title="plazza::ConnectorPipe\l::receiveData">
<polygon fill="none" stroke="black" points="1144.5,-154.5 1144.5,-184.5 1260.5,-184.5 1260.5,-154.5 1144.5,-154.5"/>
<text text-anchor="start" x="1152.5" y="-172.5" font-family="Helvetica,sans-Serif" font-size="10.00">plazza::ConnectorPipe</text>
<text text-anchor="middle" x="1202.5" y="-161.5" font-family="Helvetica,sans-Serif" font-size="10.00">::receiveData</text>
</a>
</g>
</g>
<!-- Node22&#45;&gt;Node24 -->
<g id="edge23" class="edge"><title>Node22&#45;&gt;Node24</title>
<path fill="none" stroke="midnightblue" d="M1090.05,-178.099C1104.24,-177.004 1119.59,-175.819 1134.23,-174.69"/>
<polygon fill="midnightblue" stroke="midnightblue" points="1134.52,-178.178 1144.23,-173.919 1133.99,-171.198 1134.52,-178.178"/>
</g>
<!-- Node25 -->
<g id="node25" class="node"><title>Node25</title>
<g id="a_node25"><a xlink:href="classplazza_1_1_connector_pipe.html#ad8062cefc673b98824dff56b5534a056" target="_top" xlink:title="plazza::ConnectorPipe\l::sendData">
<polygon fill="none" stroke="black" points="1144.5,-252.5 1144.5,-282.5 1260.5,-282.5 1260.5,-252.5 1144.5,-252.5"/>
<text text-anchor="start" x="1152.5" y="-270.5" font-family="Helvetica,sans-Serif" font-size="10.00">plazza::ConnectorPipe</text>
<text text-anchor="middle" x="1202.5" y="-259.5" font-family="Helvetica,sans-Serif" font-size="10.00">::sendData</text>
</a>
</g>
</g>
<!-- Node22&#45;&gt;Node25 -->
<g id="edge25" class="edge"><title>Node22&#45;&gt;Node25</title>
<path fill="none" stroke="midnightblue" d="M1056.81,-197.641C1077.53,-210.475 1108.61,-228.908 1137,-242.5 1141.31,-244.563 1145.84,-246.589 1150.41,-248.539"/>
<polygon fill="midnightblue" stroke="midnightblue" points="1149.23,-251.838 1159.81,-252.423 1151.9,-245.369 1149.23,-251.838"/>
</g>
<!-- Node24&#45;&gt;Node7 -->
<g id="edge24" class="edge"><title>Node24&#45;&gt;Node7</title>
<path fill="none" stroke="midnightblue" d="M1254.3,-184.521C1259.2,-187.085 1263.87,-190.058 1268,-193.5 1311.03,-229.354 1339.12,-290.556 1352.29,-324.669"/>
<polygon fill="midnightblue" stroke="midnightblue" points="1349.12,-326.185 1355.89,-334.329 1355.67,-323.736 1349.12,-326.185"/>
</g>
<!-- Node25&#45;&gt;Node7 -->
<g id="edge26" class="edge"><title>Node25&#45;&gt;Node7</title>
<path fill="none" stroke="midnightblue" d="M1245.61,-282.559C1253.17,-285.617 1260.9,-288.982 1268,-292.5 1289.39,-303.092 1312.26,-317.069 1329.97,-328.532"/>
<polygon fill="midnightblue" stroke="midnightblue" points="1328.44,-331.715 1338.72,-334.266 1332.27,-325.859 1328.44,-331.715"/>
</g>
<!-- Node27 -->
<g id="node27" class="node"><title>Node27</title>
<g id="a_node27"><a xlink:href="classplazza_1_1_office.html#ae5955f678a2422dee68f43b102502e57" target="_top" xlink:title="set number of available tasks ">
<polygon fill="none" stroke="black" points="963,-110.5 963,-140.5 1101,-140.5 1101,-110.5 963,-110.5"/>
<text text-anchor="start" x="971" y="-128.5" font-family="Helvetica,sans-Serif" font-size="10.00">plazza::Office::setFreeTask</text>
<text text-anchor="middle" x="1032" y="-117.5" font-family="Helvetica,sans-Serif" font-size="10.00">Spots</text>
</a>
</g>
</g>
<!-- Node26&#45;&gt;Node27 -->
<g id="edge28" class="edge"><title>Node26&#45;&gt;Node27</title>
<path fill="none" stroke="midnightblue" d="M746.061,-102.409C795.815,-106.149 865.702,-111.49 927,-116.5 935.309,-117.179 943.99,-117.905 952.64,-118.638"/>
<polygon fill="midnightblue" stroke="midnightblue" points="952.497,-122.139 962.758,-119.501 953.091,-115.164 952.497,-122.139"/>
</g>
<!-- Node28 -->
<g id="node28" class="node"><title>Node28</title>
<g id="a_node28"><a xlink:href="classplazza_1_1_office.html#a0ca9b3768cf184e6d95edee417ca0231" target="_top" xlink:title="Get number of available tasks. ">
<polygon fill="none" stroke="black" points="963,-52.5 963,-82.5 1101,-82.5 1101,-52.5 963,-52.5"/>
<text text-anchor="start" x="971" y="-70.5" font-family="Helvetica,sans-Serif" font-size="10.00">plazza::Office::getFreeTask</text>
<text text-anchor="middle" x="1032" y="-59.5" font-family="Helvetica,sans-Serif" font-size="10.00">Spots</text>
</a>
</g>
</g>
<!-- Node26&#45;&gt;Node28 -->
<g id="edge29" class="edge"><title>Node26&#45;&gt;Node28</title>
<path fill="none" stroke="midnightblue" d="M746.02,-91.8572C804.712,-86.8409 890.602,-79.4998 952.734,-74.1894"/>
<polygon fill="midnightblue" stroke="midnightblue" points="953.216,-77.6611 962.881,-73.3221 952.62,-70.6865 953.216,-77.6611"/>
</g>
<!-- Node29 -->
<g id="node29" class="node"><title>Node29</title>
<g id="a_node29"><a xlink:href="classplazza_1_1_thread_pool.html#a353ba248e5dffc93f2912c9148da05fb" target="_top" xlink:title="Add a job to the queue. ">
<polygon fill="none" stroke="black" points="804,-0.5 804,-30.5 905,-30.5 905,-0.5 804,-0.5"/>
<text text-anchor="start" x="812" y="-18.5" font-family="Helvetica,sans-Serif" font-size="10.00">plazza::ThreadPool</text>
<text text-anchor="middle" x="854.5" y="-7.5" font-family="Helvetica,sans-Serif" font-size="10.00">::addJob</text>
</a>
</g>
</g>
<!-- Node26&#45;&gt;Node29 -->
<g id="edge30" class="edge"><title>Node26&#45;&gt;Node29</title>
<path fill="none" stroke="midnightblue" d="M697.858,-87.8866C718.066,-77.1278 752.069,-59.3856 782,-45.5 789.985,-41.7956 798.556,-38.0262 806.892,-34.4668"/>
<polygon fill="midnightblue" stroke="midnightblue" points="808.311,-37.6671 816.161,-30.552 805.587,-31.2187 808.311,-37.6671"/>
</g>
<!-- Node31 -->
<g id="node31" class="node"><title>Node31</title>
<g id="a_node31"><a xlink:href="classplazza_1_1_office.html#a40e5e47be8961ded30ee24e588a04e51" target="_top" xlink:title="Finish the task and send it to the server. ">
<polygon fill="none" stroke="black" points="782,-126 782,-145 927,-145 927,-126 782,-126"/>
<text text-anchor="middle" x="854.5" y="-133" font-family="Helvetica,sans-Serif" font-size="10.00">plazza::Office::completeTask</text>
</a>
</g>
</g>
<!-- Node26&#45;&gt;Node31 -->
<g id="edge32" class="edge"><title>Node26&#45;&gt;Node31</title>
<path fill="none" stroke="midnightblue" d="M723.781,-107.089C746.986,-112.171 775.678,-118.455 800.173,-123.82"/>
<polygon fill="midnightblue" stroke="midnightblue" points="799.516,-127.259 810.033,-125.98 801.014,-120.421 799.516,-127.259"/>
</g>
<!-- Node30 -->
<g id="node30" class="node"><title>Node30</title>
<g id="a_node30"><a xlink:href="classplazza_1_1_cond_var.html#a5a2666ecbdb8b14acfe186c91097af75" target="_top" xlink:title="Notify one. ">
<polygon fill="none" stroke="black" points="963.5,-6 963.5,-25 1100.5,-25 1100.5,-6 963.5,-6"/>
<text text-anchor="middle" x="1032" y="-13" font-family="Helvetica,sans-Serif" font-size="10.00">plazza::CondVar::notifyOne</text>
</a>
</g>
</g>
<!-- Node29&#45;&gt;Node30 -->
<g id="edge31" class="edge"><title>Node29&#45;&gt;Node30</title>
<path fill="none" stroke="midnightblue" d="M905.322,-15.5C920.26,-15.5 937.014,-15.5 953.3,-15.5"/>
<polygon fill="midnightblue" stroke="midnightblue" points="953.359,-19.0001 963.359,-15.5 953.359,-12.0001 953.359,-19.0001"/>
</g>
<!-- Node31&#45;&gt;Node12 -->
<g id="edge35" class="edge"><title>Node31&#45;&gt;Node12</title>
<path fill="none" stroke="midnightblue" d="M865.694,-145.142C894.531,-172.419 976.949,-250.375 1013.35,-284.806"/>
<polygon fill="midnightblue" stroke="midnightblue" points="1011.11,-287.502 1020.78,-291.831 1015.92,-282.417 1011.11,-287.502"/>
</g>
<!-- Node31&#45;&gt;Node22 -->
<g id="edge36" class="edge"><title>Node31&#45;&gt;Node22</title>
<path fill="none" stroke="midnightblue" d="M891.015,-145.011C912.236,-150.694 939.866,-158.094 964.966,-164.816"/>
<polygon fill="midnightblue" stroke="midnightblue" points="964.242,-168.245 974.807,-167.451 966.053,-161.483 964.242,-168.245"/>
</g>
<!-- Node31&#45;&gt;Node27 -->
<g id="edge33" class="edge"><title>Node31&#45;&gt;Node27</title>
<path fill="none" stroke="midnightblue" d="M927.136,-131.418C935.651,-130.933 944.376,-130.436 952.975,-129.946"/>
<polygon fill="midnightblue" stroke="midnightblue" points="953.207,-133.438 962.992,-129.375 952.809,-126.45 953.207,-133.438"/>
</g>
<!-- Node31&#45;&gt;Node28 -->
<g id="edge34" class="edge"><title>Node31&#45;&gt;Node28</title>
<path fill="none" stroke="midnightblue" d="M880.273,-125.901C906.76,-115.639 949.427,-99.1068 982.616,-86.2471"/>
<polygon fill="midnightblue" stroke="midnightblue" points="984.083,-89.4324 992.143,-82.5558 981.554,-82.9052 984.083,-89.4324"/>
</g>
<!-- Node32&#45;&gt;Node12 -->
<g id="edge38" class="edge"><title>Node32&#45;&gt;Node12</title>
<path fill="none" stroke="midnightblue" d="M898.461,-384.881C908.425,-381.391 918.569,-376.716 927,-370.5 949.04,-354.25 940.55,-336.178 963,-320.5 965.85,-318.51 968.903,-316.727 972.079,-315.131"/>
<polygon fill="midnightblue" stroke="midnightblue" points="973.527,-318.318 981.29,-311.107 970.725,-311.903 973.527,-318.318"/>
</g>
<!-- Node32&#45;&gt;Node22 -->
<g id="edge39" class="edge"><title>Node32&#45;&gt;Node22</title>
<path fill="none" stroke="midnightblue" d="M863.497,-384.84C889.758,-353.117 973.845,-251.542 1011.93,-205.534"/>
<polygon fill="midnightblue" stroke="midnightblue" points="1014.8,-207.554 1018.48,-197.619 1009.41,-203.09 1014.8,-207.554"/>
</g>
<!-- Node33 -->
<g id="node33" class="node"><title>Node33</title>
<g id="a_node33"><a xlink:href="classplazza_1_1_thread_pool.html#a927215245cf2e50525f7706056b26e50" target="_top" xlink:title="Stop the pool execution. ">
<polygon fill="none" stroke="black" points="981.5,-330.5 981.5,-360.5 1082.5,-360.5 1082.5,-330.5 981.5,-330.5"/>
<text text-anchor="start" x="989.5" y="-348.5" font-family="Helvetica,sans-Serif" font-size="10.00">plazza::ThreadPool</text>
<text text-anchor="middle" x="1032" y="-337.5" font-family="Helvetica,sans-Serif" font-size="10.00">::stop</text>
</a>
</g>
</g>
<!-- Node32&#45;&gt;Node33 -->
<g id="edge40" class="edge"><title>Node32&#45;&gt;Node33</title>
<path fill="none" stroke="midnightblue" d="M889.755,-384.936C912.943,-378.462 944.19,-369.738 971.398,-362.141"/>
<polygon fill="midnightblue" stroke="midnightblue" points="972.527,-365.46 981.218,-359.399 970.645,-358.718 972.527,-365.46"/>
</g>
<!-- Node35 -->
<g id="node35" class="node"><title>Node35</title>
<g id="a_node35"><a xlink:href="classplazza_1_1_connector_pipe.html#a588544d4eebd85f8f05e43f826ea47bd" target="_top" xlink:title="plazza::ConnectorPipe\l::disconnect">
<polygon fill="none" stroke="black" points="1144.5,-427.5 1144.5,-457.5 1260.5,-457.5 1260.5,-427.5 1144.5,-427.5"/>
<text text-anchor="start" x="1152.5" y="-445.5" font-family="Helvetica,sans-Serif" font-size="10.00">plazza::ConnectorPipe</text>
<text text-anchor="middle" x="1202.5" y="-434.5" font-family="Helvetica,sans-Serif" font-size="10.00">::disconnect</text>
</a>
</g>
</g>
<!-- Node32&#45;&gt;Node35 -->
<g id="edge42" class="edge"><title>Node32&#45;&gt;Node35</title>
<path fill="none" stroke="midnightblue" d="M893.097,-404.05C913.638,-408.974 939.591,-414.723 963,-418.5 1020.41,-427.764 1086.21,-434.065 1134.14,-437.878"/>
<polygon fill="midnightblue" stroke="midnightblue" points="1134.15,-441.389 1144.39,-438.678 1134.69,-434.411 1134.15,-441.389"/>
</g>
<!-- Node36 -->
<g id="node36" class="node"><title>Node36</title>
<g id="a_node36"><a xlink:href="classplazza_1_1_connector_pipe.html#ac6e124ff9380729df4e1491b3c365d95" target="_top" xlink:title="plazza::ConnectorPipe\l::destroy">
<polygon fill="none" stroke="black" points="974,-379.5 974,-409.5 1090,-409.5 1090,-379.5 974,-379.5"/>
<text text-anchor="start" x="982" y="-397.5" font-family="Helvetica,sans-Serif" font-size="10.00">plazza::ConnectorPipe</text>
<text text-anchor="middle" x="1032" y="-386.5" font-family="Helvetica,sans-Serif" font-size="10.00">::destroy</text>
</a>
</g>
</g>
<!-- Node32&#45;&gt;Node36 -->
<g id="edge45" class="edge"><title>Node32&#45;&gt;Node36</title>
<path fill="none" stroke="midnightblue" d="M908.156,-394.5C925.62,-394.5 945.304,-394.5 963.715,-394.5"/>
<polygon fill="midnightblue" stroke="midnightblue" points="963.791,-398 973.791,-394.5 963.791,-391 963.791,-398"/>
</g>
<!-- Node34 -->
<g id="node34" class="node"><title>Node34</title>
<g id="a_node34"><a xlink:href="classplazza_1_1_cond_var.html#a06ecb812639ea15519117b3be3524e43" target="_top" xlink:title="Notify all. ">
<polygon fill="none" stroke="black" points="1137,-302 1137,-321 1268,-321 1268,-302 1137,-302"/>
<text text-anchor="middle" x="1202.5" y="-309" font-family="Helvetica,sans-Serif" font-size="10.00">plazza::CondVar::notifyAll</text>
</a>
</g>
</g>
<!-- Node33&#45;&gt;Node34 -->
<g id="edge41" class="edge"><title>Node33&#45;&gt;Node34</title>
<path fill="none" stroke="midnightblue" d="M1082.64,-335.483C1101.99,-331.578 1124.29,-327.079 1144.31,-323.04"/>
<polygon fill="midnightblue" stroke="midnightblue" points="1145.12,-326.446 1154.23,-321.037 1143.74,-319.584 1145.12,-326.446"/>
</g>
<!-- Node35&#45;&gt;Node6 -->
<g id="edge44" class="edge"><title>Node35&#45;&gt;Node6</title>
<path fill="none" stroke="midnightblue" d="M1260.81,-442.5C1271.58,-442.5 1282.94,-442.5 1293.98,-442.5"/>
<polygon fill="midnightblue" stroke="midnightblue" points="1294,-446 1304,-442.5 1294,-439 1294,-446"/>
</g>
<!-- Node35&#45;&gt;Node7 -->
<g id="edge43" class="edge"><title>Node35&#45;&gt;Node7</title>
<path fill="none" stroke="midnightblue" d="M1246.89,-427.488C1254.09,-424.489 1261.36,-421.131 1268,-417.5 1292.13,-404.301 1317.17,-385.664 1335.18,-371.238"/>
<polygon fill="midnightblue" stroke="midnightblue" points="1337.87,-373.561 1343.42,-364.536 1333.45,-368.129 1337.87,-373.561"/>
</g>
<!-- Node36&#45;&gt;Node7 -->
<g id="edge46" class="edge"><title>Node36&#45;&gt;Node7</title>
<path fill="none" stroke="midnightblue" d="M1086.1,-379.483C1102.32,-375.367 1120.29,-371.278 1137,-368.5 1189.15,-359.827 1248.82,-355.013 1293.46,-352.402"/>
<polygon fill="midnightblue" stroke="midnightblue" points="1293.82,-355.888 1303.6,-351.831 1293.42,-348.899 1293.82,-355.888"/>
</g>
<!-- Node36&#45;&gt;Node35 -->
<g id="edge47" class="edge"><title>Node36&#45;&gt;Node35</title>
<path fill="none" stroke="midnightblue" d="M1085.85,-409.556C1102.63,-414.336 1121.35,-419.669 1138.76,-424.628"/>
<polygon fill="midnightblue" stroke="midnightblue" points="1138.26,-428.124 1148.84,-427.498 1140.18,-421.392 1138.26,-428.124"/>
</g>
<!-- Node37 -->
<g id="node37" class="node"><title>Node37</title>
<g id="a_node37"><a xlink:href="classplazza_1_1_connector_pipe.html#acc3d09548d11f5e39ec5b53a2796e9df" target="_top" xlink:title="plazza::ConnectorPipe\l::getName">
<polygon fill="none" stroke="black" points="1144.5,-378.5 1144.5,-408.5 1260.5,-408.5 1260.5,-378.5 1144.5,-378.5"/>
<text text-anchor="start" x="1152.5" y="-396.5" font-family="Helvetica,sans-Serif" font-size="10.00">plazza::ConnectorPipe</text>
<text text-anchor="middle" x="1202.5" y="-385.5" font-family="Helvetica,sans-Serif" font-size="10.00">::getName</text>
</a>
</g>
</g>
<!-- Node36&#45;&gt;Node37 -->
<g id="edge48" class="edge"><title>Node36&#45;&gt;Node37</title>
<path fill="none" stroke="midnightblue" d="M1090.05,-394.161C1104.11,-394.078 1119.3,-393.988 1133.81,-393.902"/>
<polygon fill="midnightblue" stroke="midnightblue" points="1134.25,-397.399 1144.23,-393.84 1134.21,-390.399 1134.25,-397.399"/>
</g>
</g>
</svg>
