<?xml version="1.0" encoding="UTF-8" standalone="no"?>
<!DOCTYPE svg PUBLIC "-//W3C//DTD SVG 1.1//EN"
 "http://www.w3.org/Graphics/SVG/1.1/DTD/svg11.dtd">
<!-- Generated by graphviz version 2.38.0 (20140413.2041)
 -->
<!-- Title: plazza::File::isOpen Pages: 1 -->
<svg width="693pt" height="192pt"
 viewBox="0.00 0.00 693.00 191.50" xmlns="http://www.w3.org/2000/svg" xmlns:xlink="http://www.w3.org/1999/xlink">
<g id="graph0" class="graph" transform="scale(1 1) rotate(0) translate(4 187.5)">
<title>plazza::File::isOpen</title>
<!-- Node1 -->
<g id="node1" class="node"><title>Node1</title>
<polygon fill="#bfbfbf" stroke="black" points="0,-107 0,-126 104,-126 104,-107 0,-107"/>
<text text-anchor="middle" x="52" y="-114" font-family="Helvetica,sans-Serif" font-size="10.00">plazza::File::isOpen</text>
</g>
<!-- Node2 -->
<g id="node2" class="node"><title>Node2</title>
<g id="a_node2"><a xlink:href="classplazza_1_1_file.html#a65844e0df72307648e3f5432ed964fdc" target="_top" xlink:title="Load file provided as parameter. ">
<polygon fill="none" stroke="black" points="140,-126 140,-145 231,-145 231,-126 140,-126"/>
<text text-anchor="middle" x="185.5" y="-133" font-family="Helvetica,sans-Serif" font-size="10.00">plazza::File::load</text>
</a>
</g>
</g>
<!-- Node1&#45;&gt;Node2 -->
<g id="edge1" class="edge"><title>Node1&#45;&gt;Node2</title>
<path fill="none" stroke="midnightblue" d="M114.193,-125.342C122.761,-126.579 131.432,-127.832 139.622,-129.016"/>
<polygon fill="midnightblue" stroke="midnightblue" points="114.616,-121.866 104.218,-123.9 113.615,-128.794 114.616,-121.866"/>
</g>
<!-- Node4 -->
<g id="node4" class="node"><title>Node4</title>
<g id="a_node4"><a xlink:href="gui_2sources_2main__cypher_8cpp.html#add1099fd0935d5faefd7a4b92dfd955c" target="_top" xlink:title="xorf">
<polygon fill="none" stroke="black" points="319,-164 319,-183 352,-183 352,-164 319,-164"/>
<text text-anchor="middle" x="335.5" y="-171" font-family="Helvetica,sans-Serif" font-size="10.00">xorf</text>
</a>
</g>
</g>
<!-- Node1&#45;&gt;Node4 -->
<g id="edge12" class="edge"><title>Node1&#45;&gt;Node4</title>
<path fill="none" stroke="midnightblue" d="M79.612,-130.738C96.4457,-139.077 118.932,-149.017 140,-154.5 204.848,-171.376 285.402,-173.521 318.831,-173.621"/>
<polygon fill="midnightblue" stroke="midnightblue" points="80.9076,-127.471 70.4072,-126.059 77.7356,-133.711 80.9076,-127.471"/>
</g>
<!-- Node6 -->
<g id="node6" class="node"><title>Node6</title>
<g id="a_node6"><a xlink:href="gui_2sources_2main__cypher_8cpp.html#a8bd3823ec173b4b29834b0f4ccb95326" target="_top" xlink:title="caesarf">
<polygon fill="none" stroke="black" points="311,-88 311,-107 360,-107 360,-88 311,-88"/>
<text text-anchor="middle" x="335.5" y="-95" font-family="Helvetica,sans-Serif" font-size="10.00">caesarf</text>
</a>
</g>
</g>
<!-- Node1&#45;&gt;Node6 -->
<g id="edge13" class="edge"><title>Node1&#45;&gt;Node6</title>
<path fill="none" stroke="midnightblue" d="M114.296,-112.363C175.887,-108.206 267.663,-102.011 310.66,-99.1091"/>
<polygon fill="midnightblue" stroke="midnightblue" points="114.046,-108.872 104.304,-113.037 114.517,-115.856 114.046,-108.872"/>
</g>
<!-- Node7 -->
<g id="node7" class="node"><title>Node7</title>
<g id="a_node7"><a xlink:href="classplazza_1_1_worker.html#af17344ef0f0311dadb4f7c7ea9565031" target="_top" xlink:title="Send task to perform to the worker. ">
<polygon fill="none" stroke="black" points="267,-50 267,-69 404,-69 404,-50 267,-50"/>
<text text-anchor="middle" x="335.5" y="-57" font-family="Helvetica,sans-Serif" font-size="10.00">plazza::Worker::performJob</text>
</a>
</g>
</g>
<!-- Node1&#45;&gt;Node7 -->
<g id="edge14" class="edge"><title>Node1&#45;&gt;Node7</title>
<path fill="none" stroke="midnightblue" d="M110.21,-104.916C162.349,-94.3582 238.456,-78.9475 287.23,-69.0716"/>
<polygon fill="midnightblue" stroke="midnightblue" points="109.223,-101.544 100.117,-106.959 110.612,-108.405 109.223,-101.544"/>
</g>
<!-- Node3 -->
<g id="node3" class="node"><title>Node3</title>
<g id="a_node3"><a xlink:href="classplazza_1_1_file.html#a395dca510df648686a50be331d9b9cd4" target="_top" xlink:title="Class constructor using a filename. ">
<polygon fill="none" stroke="black" points="291,-126 291,-145 380,-145 380,-126 291,-126"/>
<text text-anchor="middle" x="335.5" y="-133" font-family="Helvetica,sans-Serif" font-size="10.00">plazza::File::File</text>
</a>
</g>
</g>
<!-- Node2&#45;&gt;Node3 -->
<g id="edge2" class="edge"><title>Node2&#45;&gt;Node3</title>
<path fill="none" stroke="midnightblue" d="M241.745,-135.5C257.966,-135.5 275.474,-135.5 290.863,-135.5"/>
<polygon fill="midnightblue" stroke="midnightblue" points="241.307,-132 231.307,-135.5 241.306,-139 241.307,-132"/>
</g>
<!-- Node2&#45;&gt;Node4 -->
<g id="edge3" class="edge"><title>Node2&#45;&gt;Node4</title>
<path fill="none" stroke="midnightblue" d="M233.885,-147.666C263.122,-155.173 298.752,-164.322 318.81,-169.472"/>
<polygon fill="midnightblue" stroke="midnightblue" points="234.403,-144.186 223.847,-145.089 232.662,-150.966 234.403,-144.186"/>
</g>
<!-- Node2&#45;&gt;Node6 -->
<g id="edge5" class="edge"><title>Node2&#45;&gt;Node6</title>
<path fill="none" stroke="midnightblue" d="M233.75,-123.368C259.363,-116.792 289.915,-108.948 310.608,-103.634"/>
<polygon fill="midnightblue" stroke="midnightblue" points="232.662,-120.034 223.847,-125.911 234.403,-126.814 232.662,-120.034"/>
</g>
<!-- Node2&#45;&gt;Node7 -->
<g id="edge7" class="edge"><title>Node2&#45;&gt;Node7</title>
<path fill="none" stroke="midnightblue" d="M205.289,-119.365C220.904,-106.68 244.18,-89.3901 267,-78.5 274.801,-74.7773 283.467,-71.6581 291.918,-69.0939"/>
<polygon fill="midnightblue" stroke="midnightblue" points="202.914,-116.788 197.454,-125.868 207.385,-122.174 202.914,-116.788"/>
</g>
<!-- Node5 -->
<g id="node5" class="node"><title>Node5</title>
<g id="a_node5"><a xlink:href="gui_2sources_2main__cypher_8cpp.html#a0c99d968a34e803d378692bde2e3f18f" target="_top" xlink:title="main">
<polygon fill="none" stroke="black" points="475,-145 475,-164 513,-164 513,-145 475,-145"/>
<text text-anchor="middle" x="494" y="-152" font-family="Helvetica,sans-Serif" font-size="10.00">main</text>
</a>
</g>
</g>
<!-- Node4&#45;&gt;Node5 -->
<g id="edge4" class="edge"><title>Node4&#45;&gt;Node5</title>
<path fill="none" stroke="midnightblue" d="M362.312,-170.366C393.957,-166.524 446.8,-160.109 474.607,-156.733"/>
<polygon fill="midnightblue" stroke="midnightblue" points="361.583,-166.929 352.078,-171.609 362.427,-173.878 361.583,-166.929"/>
</g>
<!-- Node6&#45;&gt;Node5 -->
<g id="edge6" class="edge"><title>Node6&#45;&gt;Node5</title>
<path fill="none" stroke="midnightblue" d="M369.828,-105.963C380.806,-108.993 393.012,-112.626 404,-116.5 429.035,-125.326 457.069,-137.733 474.864,-145.938"/>
<polygon fill="midnightblue" stroke="midnightblue" points="370.728,-102.58 360.162,-103.359 368.908,-109.339 370.728,-102.58"/>
</g>
<!-- Node8 -->
<g id="node8" class="node"><title>Node8</title>
<g id="a_node8"><a xlink:href="classplazza_1_1_worker.html#aa7561bf24cd0a90230ddd99b43b18a11" target="_top" xlink:title="Start thread execution. ">
<polygon fill="none" stroke="black" points="440,-88 440,-107 548,-107 548,-88 440,-88"/>
<text text-anchor="middle" x="494" y="-95" font-family="Helvetica,sans-Serif" font-size="10.00">plazza::Worker::start</text>
</a>
</g>
</g>
<!-- Node7&#45;&gt;Node8 -->
<g id="edge8" class="edge"><title>Node7&#45;&gt;Node8</title>
<path fill="none" stroke="midnightblue" d="M385.789,-71.468C407.72,-76.7931 433.185,-82.9762 453.792,-87.9799"/>
<polygon fill="midnightblue" stroke="midnightblue" points="386.535,-68.0475 375.992,-69.089 384.883,-74.8498 386.535,-68.0475"/>
</g>
<!-- Node9 -->
<g id="node9" class="node"><title>Node9</title>
<g id="a_node9"><a xlink:href="classplazza_1_1_thread_pool.html#a85b5323591017ee418afb0fdc9e3d9a7" target="_top" xlink:title="Get the number of total workers. ">
<polygon fill="none" stroke="black" points="443.5,-0.5 443.5,-30.5 544.5,-30.5 544.5,-0.5 443.5,-0.5"/>
<text text-anchor="start" x="451.5" y="-18.5" font-family="Helvetica,sans-Serif" font-size="10.00">plazza::ThreadPool</text>
<text text-anchor="middle" x="494" y="-7.5" font-family="Helvetica,sans-Serif" font-size="10.00">::getNbWorkers</text>
</a>
</g>
</g>
<!-- Node7&#45;&gt;Node9 -->
<g id="edge9" class="edge"><title>Node7&#45;&gt;Node9</title>
<path fill="none" stroke="midnightblue" d="M380.343,-47.1735C399.939,-41.6642 423.129,-35.1443 443.36,-29.4563"/>
<polygon fill="midnightblue" stroke="midnightblue" points="379.138,-43.8767 370.458,-49.9527 381.032,-50.6154 379.138,-43.8767"/>
</g>
<!-- Node10 -->
<g id="node10" class="node"><title>Node10</title>
<g id="a_node10"><a xlink:href="classplazza_1_1_thread_pool.html#ae3447aa58cee4c5206d194f144d207c3" target="_top" xlink:title="Class constructor. ">
<polygon fill="none" stroke="black" points="584,-22.5 584,-52.5 685,-52.5 685,-22.5 584,-22.5"/>
<text text-anchor="start" x="592" y="-40.5" font-family="Helvetica,sans-Serif" font-size="10.00">plazza::ThreadPool</text>
<text text-anchor="middle" x="634.5" y="-29.5" font-family="Helvetica,sans-Serif" font-size="10.00">::ThreadPool</text>
</a>
</g>
</g>
<!-- Node7&#45;&gt;Node10 -->
<g id="edge11" class="edge"><title>Node7&#45;&gt;Node10</title>
<path fill="none" stroke="midnightblue" d="M414.405,-53.7292C467.931,-49.7644 537.404,-44.6182 583.619,-41.1949"/>
<polygon fill="midnightblue" stroke="midnightblue" points="413.98,-50.2511 404.266,-54.4803 414.497,-57.232 413.98,-50.2511"/>
</g>
<!-- Node9&#45;&gt;Node10 -->
<g id="edge10" class="edge"><title>Node9&#45;&gt;Node10</title>
<path fill="none" stroke="midnightblue" d="M554.615,-24.9696C564.338,-26.5139 574.318,-28.0993 583.77,-29.6007"/>
<polygon fill="midnightblue" stroke="midnightblue" points="555.036,-21.4926 544.61,-23.3804 553.938,-28.4059 555.036,-21.4926"/>
</g>
</g>
</svg>
