<?xml version="1.0" encoding="UTF-8" standalone="no"?>
<!DOCTYPE svg PUBLIC "-//W3C//DTD SVG 1.1//EN"
 "http://www.w3.org/Graphics/SVG/1.1/DTD/svg11.dtd">
<!-- Generated by graphviz version 2.38.0 (20140413.2041)
 -->
<!-- Title: plazza::XorCracker::getMaxKeyLength Pages: 1 -->
<svg width="875pt" height="100pt"
 viewBox="0.00 0.00 875.00 99.50" xmlns="http://www.w3.org/2000/svg" xmlns:xlink="http://www.w3.org/1999/xlink">
<g id="graph0" class="graph" transform="scale(1 1) rotate(0) translate(4 95.5)">
<title>plazza::XorCracker::getMaxKeyLength</title>
<!-- Node1 -->
<g id="node1" class="node"><title>Node1</title>
<polygon fill="#bfbfbf" stroke="black" points="0,-22.5 0,-52.5 101,-52.5 101,-22.5 0,-22.5"/>
<text text-anchor="start" x="8" y="-40.5" font-family="Helvetica,sans-Serif" font-size="10.00">plazza::XorCracker</text>
<text text-anchor="middle" x="50.5" y="-29.5" font-family="Helvetica,sans-Serif" font-size="10.00">::getMaxKeyLength</text>
</g>
<!-- Node2 -->
<g id="node2" class="node"><title>Node2</title>
<g id="a_node2"><a xlink:href="classplazza_1_1_xor_cracker.html#ad190633b59d1fb23b403f44d837085f8" target="_top" xlink:title="plazza::XorCracker::run">
<polygon fill="none" stroke="black" points="137,-28 137,-47 257,-47 257,-28 137,-28"/>
<text text-anchor="middle" x="197" y="-35" font-family="Helvetica,sans-Serif" font-size="10.00">plazza::XorCracker::run</text>
</a>
</g>
</g>
<!-- Node1&#45;&gt;Node2 -->
<g id="edge1" class="edge"><title>Node1&#45;&gt;Node2</title>
<path fill="none" stroke="midnightblue" d="M111.391,-37.5C119.843,-37.5 128.528,-37.5 136.964,-37.5"/>
<polygon fill="midnightblue" stroke="midnightblue" points="111.229,-34.0001 101.229,-37.5 111.229,-41.0001 111.229,-34.0001"/>
</g>
<!-- Node3 -->
<g id="node3" class="node"><title>Node3</title>
<g id="a_node3"><a xlink:href="classplazza_1_1_xor_cracker.html#a4d74f576654cf3a0b83ce937d56e2cef" target="_top" xlink:title="plazza::XorCracker::run">
<polygon fill="none" stroke="black" points="293,-28 293,-47 413,-47 413,-28 293,-28"/>
<text text-anchor="middle" x="353" y="-35" font-family="Helvetica,sans-Serif" font-size="10.00">plazza::XorCracker::run</text>
</a>
</g>
</g>
<!-- Node2&#45;&gt;Node3 -->
<g id="edge2" class="edge"><title>Node2&#45;&gt;Node3</title>
<path fill="none" stroke="midnightblue" d="M267.369,-37.5C275.862,-37.5 284.48,-37.5 292.804,-37.5"/>
<polygon fill="midnightblue" stroke="midnightblue" points="267.1,-34.0001 257.1,-37.5 267.1,-41.0001 267.1,-34.0001"/>
</g>
<!-- Node4 -->
<g id="node4" class="node"><title>Node4</title>
<g id="a_node4"><a xlink:href="classplazza_1_1_worker.html#af17344ef0f0311dadb4f7c7ea9565031" target="_top" xlink:title="Send task to perform to the worker. ">
<polygon fill="none" stroke="black" points="449,-28 449,-47 586,-47 586,-28 449,-28"/>
<text text-anchor="middle" x="517.5" y="-35" font-family="Helvetica,sans-Serif" font-size="10.00">plazza::Worker::performJob</text>
</a>
</g>
</g>
<!-- Node3&#45;&gt;Node4 -->
<g id="edge3" class="edge"><title>Node3&#45;&gt;Node4</title>
<path fill="none" stroke="midnightblue" d="M423.337,-37.5C431.801,-37.5 440.441,-37.5 448.88,-37.5"/>
<polygon fill="midnightblue" stroke="midnightblue" points="423.126,-34.0001 413.126,-37.5 423.126,-41.0001 423.126,-34.0001"/>
</g>
<!-- Node5 -->
<g id="node5" class="node"><title>Node5</title>
<g id="a_node5"><a xlink:href="classplazza_1_1_worker.html#aa7561bf24cd0a90230ddd99b43b18a11" target="_top" xlink:title="Start thread execution. ">
<polygon fill="none" stroke="black" points="622,-72 622,-91 730,-91 730,-72 622,-72"/>
<text text-anchor="middle" x="676" y="-79" font-family="Helvetica,sans-Serif" font-size="10.00">plazza::Worker::start</text>
</a>
</g>
</g>
<!-- Node4&#45;&gt;Node5 -->
<g id="edge4" class="edge"><title>Node4&#45;&gt;Node5</title>
<path fill="none" stroke="midnightblue" d="M562.395,-49.8412C587.322,-56.8493 618.051,-65.4888 641.108,-71.9713"/>
<polygon fill="midnightblue" stroke="midnightblue" points="563.032,-46.3846 552.458,-47.0473 561.138,-53.1233 563.032,-46.3846"/>
</g>
<!-- Node6 -->
<g id="node6" class="node"><title>Node6</title>
<g id="a_node6"><a xlink:href="classplazza_1_1_thread_pool.html#a85b5323591017ee418afb0fdc9e3d9a7" target="_top" xlink:title="Get the number of total workers. ">
<polygon fill="none" stroke="black" points="625.5,-22.5 625.5,-52.5 726.5,-52.5 726.5,-22.5 625.5,-22.5"/>
<text text-anchor="start" x="633.5" y="-40.5" font-family="Helvetica,sans-Serif" font-size="10.00">plazza::ThreadPool</text>
<text text-anchor="middle" x="676" y="-29.5" font-family="Helvetica,sans-Serif" font-size="10.00">::getNbWorkers</text>
</a>
</g>
</g>
<!-- Node4&#45;&gt;Node6 -->
<g id="edge5" class="edge"><title>Node4&#45;&gt;Node6</title>
<path fill="none" stroke="midnightblue" d="M596.382,-37.5C606.148,-37.5 615.921,-37.5 625.094,-37.5"/>
<polygon fill="midnightblue" stroke="midnightblue" points="596.233,-34.0001 586.233,-37.5 596.233,-41.0001 596.233,-34.0001"/>
</g>
<!-- Node7 -->
<g id="node7" class="node"><title>Node7</title>
<g id="a_node7"><a xlink:href="classplazza_1_1_thread_pool.html#ae3447aa58cee4c5206d194f144d207c3" target="_top" xlink:title="Class constructor. ">
<polygon fill="none" stroke="black" points="766,-0.5 766,-30.5 867,-30.5 867,-0.5 766,-0.5"/>
<text text-anchor="start" x="774" y="-18.5" font-family="Helvetica,sans-Serif" font-size="10.00">plazza::ThreadPool</text>
<text text-anchor="middle" x="816.5" y="-7.5" font-family="Helvetica,sans-Serif" font-size="10.00">::ThreadPool</text>
</a>
</g>
</g>
<!-- Node4&#45;&gt;Node7 -->
<g id="edge7" class="edge"><title>Node4&#45;&gt;Node7</title>
<path fill="none" stroke="midnightblue" d="M561.157,-25.3039C579.685,-20.6081 601.744,-15.8178 622,-13.5 669.689,-8.04325 682.003,-12.9387 730,-13.5 741.581,-13.6354 754.041,-13.874 765.771,-14.1403"/>
<polygon fill="midnightblue" stroke="midnightblue" points="560.052,-21.9748 551.26,-27.8866 561.82,-28.748 560.052,-21.9748"/>
</g>
<!-- Node6&#45;&gt;Node7 -->
<g id="edge6" class="edge"><title>Node6&#45;&gt;Node7</title>
<path fill="none" stroke="midnightblue" d="M736.615,-28.0304C746.338,-26.4861 756.318,-24.9007 765.77,-23.3993"/>
<polygon fill="midnightblue" stroke="midnightblue" points="735.938,-24.5941 726.61,-29.6196 737.036,-31.5074 735.938,-24.5941"/>
</g>
</g>
</svg>
