<?xml version="1.0" encoding="UTF-8" standalone="no"?>
<!DOCTYPE svg PUBLIC "-//W3C//DTD SVG 1.1//EN"
 "http://www.w3.org/Graphics/SVG/1.1/DTD/svg11.dtd">
<!-- Generated by graphviz version 2.38.0 (20140413.2041)
 -->
<!-- Title: plazza::ACypher Pages: 1 -->
<svg width="238pt" height="380pt"
 viewBox="0.00 0.00 238.00 380.00" xmlns="http://www.w3.org/2000/svg" xmlns:xlink="http://www.w3.org/1999/xlink">
<g id="graph0" class="graph" transform="scale(1 1) rotate(0) translate(4 376)">
<title>plazza::ACypher</title>
<!-- Node1 -->
<g id="node1" class="node"><title>Node1</title>
<polygon fill="#bfbfbf" stroke="black" points="74.5,-215.5 74.5,-371.5 163.5,-371.5 163.5,-215.5 74.5,-215.5"/>
<text text-anchor="middle" x="119" y="-359.5" font-family="Helvetica,sans-Serif" font-size="10.00">plazza::ACypher</text>
<polyline fill="none" stroke="black" points="74.5,-352.5 163.5,-352.5 "/>
<text text-anchor="middle" x="119" y="-340.5" font-family="Helvetica,sans-Serif" font-size="10.00"> </text>
<polyline fill="none" stroke="black" points="74.5,-333.5 163.5,-333.5 "/>
<text text-anchor="start" x="82.5" y="-321.5" font-family="Helvetica,sans-Serif" font-size="10.00">+ ~ACypher()</text>
<text text-anchor="start" x="82.5" y="-310.5" font-family="Helvetica,sans-Serif" font-size="10.00">+ encrypt()</text>
<text text-anchor="start" x="82.5" y="-299.5" font-family="Helvetica,sans-Serif" font-size="10.00">+ decrypt()</text>
<text text-anchor="start" x="82.5" y="-288.5" font-family="Helvetica,sans-Serif" font-size="10.00">+ operator&lt;&lt;()</text>
<text text-anchor="start" x="82.5" y="-277.5" font-family="Helvetica,sans-Serif" font-size="10.00">+ operator&gt;&gt;()</text>
<text text-anchor="start" x="82.5" y="-266.5" font-family="Helvetica,sans-Serif" font-size="10.00">+ ~ACypher()</text>
<text text-anchor="start" x="82.5" y="-255.5" font-family="Helvetica,sans-Serif" font-size="10.00">+ encrypt()</text>
<text text-anchor="start" x="82.5" y="-244.5" font-family="Helvetica,sans-Serif" font-size="10.00">+ decrypt()</text>
<text text-anchor="start" x="82.5" y="-233.5" font-family="Helvetica,sans-Serif" font-size="10.00">+ operator&lt;&lt;()</text>
<text text-anchor="start" x="82.5" y="-222.5" font-family="Helvetica,sans-Serif" font-size="10.00">+ operator&gt;&gt;()</text>
</g>
<!-- Node2 -->
<g id="node2" class="node"><title>Node2</title>
<g id="a_node2"><a xlink:href="classplazza_1_1_caesar_cypher.html" target="_top" xlink:title="Caesar cypher class. ">
<polygon fill="none" stroke="black" points="0,-0.5 0,-178.5 114,-178.5 114,-0.5 0,-0.5"/>
<text text-anchor="middle" x="57" y="-166.5" font-family="Helvetica,sans-Serif" font-size="10.00">plazza::CaesarCypher</text>
<polyline fill="none" stroke="black" points="0,-159.5 114,-159.5 "/>
<text text-anchor="middle" x="57" y="-147.5" font-family="Helvetica,sans-Serif" font-size="10.00"> </text>
<polyline fill="none" stroke="black" points="0,-140.5 114,-140.5 "/>
<text text-anchor="start" x="8" y="-128.5" font-family="Helvetica,sans-Serif" font-size="10.00">+ CaesarCypher()</text>
<text text-anchor="start" x="8" y="-117.5" font-family="Helvetica,sans-Serif" font-size="10.00">+ ~CaesarCypher()</text>
<text text-anchor="start" x="8" y="-106.5" font-family="Helvetica,sans-Serif" font-size="10.00">+ encrypt()</text>
<text text-anchor="start" x="8" y="-95.5" font-family="Helvetica,sans-Serif" font-size="10.00">+ decrypt()</text>
<text text-anchor="start" x="8" y="-84.5" font-family="Helvetica,sans-Serif" font-size="10.00">+ getMoved()</text>
<text text-anchor="start" x="8" y="-73.5" font-family="Helvetica,sans-Serif" font-size="10.00">+ setMoved()</text>
<text text-anchor="start" x="8" y="-62.5" font-family="Helvetica,sans-Serif" font-size="10.00">+ CaesarCypher()</text>
<text text-anchor="start" x="8" y="-51.5" font-family="Helvetica,sans-Serif" font-size="10.00">+ ~CaesarCypher()</text>
<text text-anchor="start" x="8" y="-40.5" font-family="Helvetica,sans-Serif" font-size="10.00">+ encrypt()</text>
<text text-anchor="start" x="8" y="-29.5" font-family="Helvetica,sans-Serif" font-size="10.00">+ decrypt()</text>
<text text-anchor="start" x="8" y="-18.5" font-family="Helvetica,sans-Serif" font-size="10.00">+ getMoved()</text>
<text text-anchor="start" x="8" y="-7.5" font-family="Helvetica,sans-Serif" font-size="10.00">+ setMoved()</text>
</a>
</g>
</g>
<!-- Node1&#45;&gt;Node2 -->
<g id="edge1" class="edge"><title>Node1&#45;&gt;Node2</title>
<path fill="none" stroke="midnightblue" d="M85.6635,-205.685C82.8575,-196.788 80.0766,-187.741 77.4079,-178.828"/>
<polygon fill="none" stroke="midnightblue" points="82.3454,-206.801 88.714,-215.268 89.0155,-204.677 82.3454,-206.801"/>
</g>
<!-- Node1&#45;&gt;Node2 -->
<g id="edge2" class="edge"><title>Node1&#45;&gt;Node2</title>
<path fill="none" stroke="midnightblue" d="M98.9596,-205.401C96.3297,-196.596 93.586,-187.646 90.813,-178.828"/>
<polygon fill="none" stroke="midnightblue" points="95.6849,-206.67 101.876,-215.268 102.398,-204.686 95.6849,-206.67"/>
</g>
<!-- Node3 -->
<g id="node3" class="node"><title>Node3</title>
<g id="a_node3"><a xlink:href="classplazza_1_1_xor_cypher.html" target="_top" xlink:title="Class used for encrypt &amp; decrypt using XOR. ">
<polygon fill="none" stroke="black" points="132,-0.5 132,-178.5 230,-178.5 230,-0.5 132,-0.5"/>
<text text-anchor="middle" x="181" y="-166.5" font-family="Helvetica,sans-Serif" font-size="10.00">plazza::XorCypher</text>
<polyline fill="none" stroke="black" points="132,-159.5 230,-159.5 "/>
<text text-anchor="middle" x="181" y="-147.5" font-family="Helvetica,sans-Serif" font-size="10.00"> </text>
<polyline fill="none" stroke="black" points="132,-140.5 230,-140.5 "/>
<text text-anchor="start" x="140" y="-128.5" font-family="Helvetica,sans-Serif" font-size="10.00">+ XorCypher()</text>
<text text-anchor="start" x="140" y="-117.5" font-family="Helvetica,sans-Serif" font-size="10.00">+ ~XorCypher()</text>
<text text-anchor="start" x="140" y="-106.5" font-family="Helvetica,sans-Serif" font-size="10.00">+ encrypt()</text>
<text text-anchor="start" x="140" y="-95.5" font-family="Helvetica,sans-Serif" font-size="10.00">+ decrypt()</text>
<text text-anchor="start" x="140" y="-84.5" font-family="Helvetica,sans-Serif" font-size="10.00">+ getKey()</text>
<text text-anchor="start" x="140" y="-73.5" font-family="Helvetica,sans-Serif" font-size="10.00">+ setKey()</text>
<text text-anchor="start" x="140" y="-62.5" font-family="Helvetica,sans-Serif" font-size="10.00">+ XorCypher()</text>
<text text-anchor="start" x="140" y="-51.5" font-family="Helvetica,sans-Serif" font-size="10.00">+ ~XorCypher()</text>
<text text-anchor="start" x="140" y="-40.5" font-family="Helvetica,sans-Serif" font-size="10.00">+ encrypt()</text>
<text text-anchor="start" x="140" y="-29.5" font-family="Helvetica,sans-Serif" font-size="10.00">+ decrypt()</text>
<text text-anchor="start" x="140" y="-18.5" font-family="Helvetica,sans-Serif" font-size="10.00">+ getKey()</text>
<text text-anchor="start" x="140" y="-7.5" font-family="Helvetica,sans-Serif" font-size="10.00">+ setKey()</text>
</a>
</g>
</g>
<!-- Node1&#45;&gt;Node3 -->
<g id="edge3" class="edge"><title>Node1&#45;&gt;Node3</title>
<path fill="none" stroke="midnightblue" d="M139.04,-205.401C141.67,-196.596 144.414,-187.646 147.187,-178.828"/>
<polygon fill="none" stroke="midnightblue" points="135.602,-204.686 136.124,-215.268 142.315,-206.67 135.602,-204.686"/>
</g>
<!-- Node1&#45;&gt;Node3 -->
<g id="edge4" class="edge"><title>Node1&#45;&gt;Node3</title>
<path fill="none" stroke="midnightblue" d="M152.337,-205.685C155.143,-196.788 157.923,-187.741 160.592,-178.828"/>
<polygon fill="none" stroke="midnightblue" points="148.984,-204.677 149.286,-215.268 155.655,-206.801 148.984,-204.677"/>
</g>
</g>
</svg>
