<?xml version="1.0" encoding="UTF-8" standalone="no"?>
<!DOCTYPE svg PUBLIC "-//W3C//DTD SVG 1.1//EN"
 "http://www.w3.org/Graphics/SVG/1.1/DTD/svg11.dtd">
<!-- Generated by graphviz version 2.38.0 (20140413.2041)
 -->
<!-- Title: plazza::ConnectorPipe::getFd Pages: 1 -->
<!--zoomable 490 -->
<svg id="main" version="1.1" xmlns="http://www.w3.org/2000/svg" xmlns:xlink="http://www.w3.org/1999/xlink" xml:space="preserve" onload="init(evt)">
<style type="text/css"><![CDATA[
.edge:hover path { stroke: red; }
.edge:hover polygon { stroke: red; fill: red; }
]]></style>
<script type="text/javascript"><![CDATA[
var edges = document.getElementsByTagName('g');
if (edges && edges.length) {
  for (var i=0;i<edges.length;i++) {
    if (edges[i].id.substr(0,4)=='edge') {
      edges[i].setAttribute('class','edge');
    }
  }
}
]]></script>
        <defs>
                <circle id="rim" cx="0" cy="0" r="7"/>
                <circle id="rim2" cx="0" cy="0" r="3.5"/>
                <g id="zoomPlus">
                        <use xlink:href="#rim" fill="#404040">
                                <set attributeName="fill" to="#808080" begin="zoomplus.mouseover" end="zoomplus.mouseout"/>
                        </use>
                        <path d="M-4,0h8M0,-4v8" fill="none" stroke="white" stroke-width="1.5" pointer-events="none"/>
                </g>
                <g id="zoomMin">
                        <use xlink:href="#rim" fill="#404040">
                                <set attributeName="fill" to="#808080" begin="zoomminus.mouseover" end="zoomminus.mouseout"/>
                        </use>
                        <path d="M-4,0h8" fill="none" stroke="white" stroke-width="1.5" pointer-events="none"/>
                </g>
                <g id="dirArrow">
                        <path fill="none" stroke="white" stroke-width="1.5" d="M0,-3.0v7 M-2.5,-0.5L0,-3.0L2.5,-0.5"/>
                </g>
               <g id="resetDef">
                       <use xlink:href="#rim2" fill="#404040">
                               <set attributeName="fill" to="#808080" begin="reset.mouseover" end="reset.mouseout"/>
                       </use>
               </g>
        </defs>

<script type="text/javascript">
var viewWidth = 1733;
var viewHeight = 490;
var sectionId = 'dynsection-8';
</script>
<script xlink:href="svgpan.js"/>
<svg id="graph" class="graph">
<g id="viewport">
<title>plazza::ConnectorPipe::getFd</title>
<!-- Node1 -->
<g id="node1" class="node"><title>Node1</title>
<polygon fill="#bfbfbf" stroke="black" points="0,-285.5 0,-315.5 116,-315.5 116,-285.5 0,-285.5"/>
<text text-anchor="start" x="8" y="-303.5" font-family="Helvetica,sans-Serif" font-size="10.00">plazza::ConnectorPipe</text>
<text text-anchor="middle" x="58" y="-292.5" font-family="Helvetica,sans-Serif" font-size="10.00">::getFd</text>
</g>
<!-- Node2 -->
<g id="node2" class="node"><title>Node2</title>
<g id="a_node2"><a xlink:href="classplazza_1_1_connector_pipe.html#a988af6e52af009b779739b0fc571fc07" target="_top" xlink:title="plazza::ConnectorPipe\l::connect">
<polygon fill="none" stroke="black" points="304,-88.5 304,-118.5 420,-118.5 420,-88.5 304,-88.5"/>
<text text-anchor="start" x="312" y="-106.5" font-family="Helvetica,sans-Serif" font-size="10.00">plazza::ConnectorPipe</text>
<text text-anchor="middle" x="362" y="-95.5" font-family="Helvetica,sans-Serif" font-size="10.00">::connect</text>
</a>
</g>
</g>
<!-- Node1&#45;&gt;Node2 -->
<g id="edge1" class="edge"><title>Node1&#45;&gt;Node2</title>
<path fill="none" stroke="midnightblue" d="M77.2649,-277.451C94.7679,-256.464 122.776,-225.616 152,-204.5 205.243,-166.028 275.415,-135.601 319.373,-118.571"/>
<polygon fill="midnightblue" stroke="midnightblue" points="74.5096,-275.291 70.8717,-285.242 79.9209,-279.732 74.5096,-275.291"/>
</g>
<!-- Node3 -->
<g id="node3" class="node"><title>Node3</title>
<g id="a_node3"><a xlink:href="classplazza_1_1_connector_pipe.html#aa37f2c5398dcbc14b774e763855eff2c" target="_top" xlink:title="plazza::ConnectorPipe\l::setMode">
<polygon fill="none" stroke="black" points="473.5,-339.5 473.5,-369.5 589.5,-369.5 589.5,-339.5 473.5,-339.5"/>
<text text-anchor="start" x="481.5" y="-357.5" font-family="Helvetica,sans-Serif" font-size="10.00">plazza::ConnectorPipe</text>
<text text-anchor="middle" x="531.5" y="-346.5" font-family="Helvetica,sans-Serif" font-size="10.00">::setMode</text>
</a>
</g>
</g>
<!-- Node1&#45;&gt;Node3 -->
<g id="edge41" class="edge"><title>Node1&#45;&gt;Node3</title>
<path fill="none" stroke="midnightblue" d="M126.498,-308.23C219.598,-318.893 385.799,-337.928 473.187,-347.936"/>
<polygon fill="midnightblue" stroke="midnightblue" points="126.677,-304.728 116.344,-307.067 125.881,-311.683 126.677,-304.728"/>
</g>
<!-- Node12 -->
<g id="node12" class="node"><title>Node12</title>
<g id="a_node12"><a xlink:href="classplazza_1_1_connector_pipe.html#a588544d4eebd85f8f05e43f826ea47bd" target="_top" xlink:title="plazza::ConnectorPipe\l::disconnect">
<polygon fill="none" stroke="black" points="152,-367.5 152,-397.5 268,-397.5 268,-367.5 152,-367.5"/>
<text text-anchor="start" x="160" y="-385.5" font-family="Helvetica,sans-Serif" font-size="10.00">plazza::ConnectorPipe</text>
<text text-anchor="middle" x="210" y="-374.5" font-family="Helvetica,sans-Serif" font-size="10.00">::disconnect</text>
</a>
</g>
</g>
<!-- Node1&#45;&gt;Node12 -->
<g id="edge12" class="edge"><title>Node1&#45;&gt;Node12</title>
<path fill="none" stroke="midnightblue" d="M95.4812,-320.443C121.967,-334.922 157.25,-354.21 181.409,-367.417"/>
<polygon fill="midnightblue" stroke="midnightblue" points="96.9657,-317.266 86.5123,-315.54 93.6079,-323.408 96.9657,-317.266"/>
</g>
<!-- Node13 -->
<g id="node13" class="node"><title>Node13</title>
<g id="a_node13"><a xlink:href="classplazza_1_1_connector_pipe.html#ac6e124ff9380729df4e1491b3c365d95" target="_top" xlink:title="plazza::ConnectorPipe\l::destroy">
<polygon fill="none" stroke="black" points="304,-427.5 304,-457.5 420,-457.5 420,-427.5 304,-427.5"/>
<text text-anchor="start" x="312" y="-445.5" font-family="Helvetica,sans-Serif" font-size="10.00">plazza::ConnectorPipe</text>
<text text-anchor="middle" x="362" y="-434.5" font-family="Helvetica,sans-Serif" font-size="10.00">::destroy</text>
</a>
</g>
</g>
<!-- Node1&#45;&gt;Node13 -->
<g id="edge23" class="edge"><title>Node1&#45;&gt;Node13</title>
<path fill="none" stroke="midnightblue" d="M73.0734,-324.511C88.9474,-349.285 117.151,-386.98 152,-406.5 198.739,-432.681 259.862,-440.73 303.921,-442.802"/>
<polygon fill="midnightblue" stroke="midnightblue" points="75.8568,-322.359 67.6051,-315.714 69.9117,-326.055 75.8568,-322.359"/>
</g>
<!-- Node17 -->
<g id="node17" class="node"><title>Node17</title>
<g id="a_node17"><a xlink:href="classplazza_1_1_connector_pipe.html#ad8062cefc673b98824dff56b5534a056" target="_top" xlink:title="plazza::ConnectorPipe\l::sendData">
<polygon fill="none" stroke="black" points="152,-263.5 152,-293.5 268,-293.5 268,-263.5 152,-263.5"/>
<text text-anchor="start" x="160" y="-281.5" font-family="Helvetica,sans-Serif" font-size="10.00">plazza::ConnectorPipe</text>
<text text-anchor="middle" x="210" y="-270.5" font-family="Helvetica,sans-Serif" font-size="10.00">::sendData</text>
</a>
</g>
</g>
<!-- Node1&#45;&gt;Node17 -->
<g id="edge24" class="edge"><title>Node1&#45;&gt;Node17</title>
<path fill="none" stroke="midnightblue" d="M126.033,-290.668C134.54,-289.421 143.186,-288.153 151.525,-286.93"/>
<polygon fill="midnightblue" stroke="midnightblue" points="125.523,-287.206 116.136,-292.12 126.539,-294.132 125.523,-287.206"/>
</g>
<!-- Node25 -->
<g id="node25" class="node"><title>Node25</title>
<g id="a_node25"><a xlink:href="classplazza_1_1_connector_pipe.html#a7570f6cfb8520505247db4727d45bed1" target="_top" xlink:title="plazza::ConnectorPipe\l::receiveData">
<polygon fill="none" stroke="black" points="152,-214.5 152,-244.5 268,-244.5 268,-214.5 152,-214.5"/>
<text text-anchor="start" x="160" y="-232.5" font-family="Helvetica,sans-Serif" font-size="10.00">plazza::ConnectorPipe</text>
<text text-anchor="middle" x="210" y="-221.5" font-family="Helvetica,sans-Serif" font-size="10.00">::receiveData</text>
</a>
</g>
</g>
<!-- Node1&#45;&gt;Node25 -->
<g id="edge38" class="edge"><title>Node1&#45;&gt;Node25</title>
<path fill="none" stroke="midnightblue" d="M96.6192,-280.741C113.432,-272.104 133.575,-262.022 152,-253.5 158.432,-250.525 165.336,-247.489 172.041,-244.621"/>
<polygon fill="midnightblue" stroke="midnightblue" points="94.9323,-277.673 87.6531,-285.372 98.1443,-283.893 94.9323,-277.673"/>
</g>
<!-- Node2&#45;&gt;Node3 -->
<g id="edge2" class="edge"><title>Node2&#45;&gt;Node3</title>
<path fill="none" stroke="midnightblue" d="M384.6,-126.207C396.661,-140.047 411.024,-158.652 420,-177.5 449.85,-240.18 409.198,-278.223 456,-329.5 460.874,-334.841 466.924,-339.041 473.453,-342.346"/>
<polygon fill="midnightblue" stroke="midnightblue" points="387.102,-123.755 377.822,-118.643 381.889,-128.427 387.102,-123.755"/>
</g>
<!-- Node4 -->
<g id="node4" class="node"><title>Node4</title>
<g id="a_node4"><a xlink:href="classplazza_1_1_office.html#a611c1821b8f7dfc4d6e4a4211714e2c7" target="_top" xlink:title="init the Office ">
<polygon fill="none" stroke="black" points="662,-53 662,-72 758,-72 758,-53 662,-53"/>
<text text-anchor="middle" x="710" y="-60" font-family="Helvetica,sans-Serif" font-size="10.00">plazza::Office::init</text>
</a>
</g>
</g>
<!-- Node2&#45;&gt;Node4 -->
<g id="edge3" class="edge"><title>Node2&#45;&gt;Node4</title>
<path fill="none" stroke="midnightblue" d="M421.619,-85.8454C432.939,-82.9766 444.771,-80.3453 456,-78.5 527.006,-66.8309 610.512,-63.5408 661.588,-62.6867"/>
<polygon fill="midnightblue" stroke="midnightblue" points="420.614,-82.4904 411.83,-88.4139 422.391,-89.2612 420.614,-82.4904"/>
</g>
<!-- Node10 -->
<g id="node10" class="node"><title>Node10</title>
<g id="a_node10"><a xlink:href="classplazza_1_1_reception.html#a7c23a1b9bc8832a06c25f8075f91dcaf" target="_top" xlink:title="Class constructor. ">
<polygon fill="none" stroke="black" points="481,-0.5 481,-30.5 582,-30.5 582,-0.5 481,-0.5"/>
<text text-anchor="start" x="489" y="-18.5" font-family="Helvetica,sans-Serif" font-size="10.00">plazza::Reception::</text>
<text text-anchor="middle" x="531.5" y="-7.5" font-family="Helvetica,sans-Serif" font-size="10.00">Reception</text>
</a>
</g>
</g>
<!-- Node2&#45;&gt;Node10 -->
<g id="edge9" class="edge"><title>Node2&#45;&gt;Node10</title>
<path fill="none" stroke="midnightblue" d="M393.683,-82.4686C411.443,-70.7827 434.477,-56.4393 456,-45.5 466.565,-40.1301 478.328,-35.0188 489.328,-30.5864"/>
<polygon fill="midnightblue" stroke="midnightblue" points="391.299,-79.8512 384.913,-88.3052 395.177,-85.6788 391.299,-79.8512"/>
</g>
<!-- Node11 -->
<g id="node11" class="node"><title>Node11</title>
<g id="a_node11"><a xlink:href="classplazza_1_1_reception.html#a7389b5af68c57d0547f3ba41278c2002" target="_top" xlink:title="Send a task. ">
<polygon fill="none" stroke="black" points="481,-88.5 481,-118.5 582,-118.5 582,-88.5 481,-88.5"/>
<text text-anchor="start" x="489" y="-106.5" font-family="Helvetica,sans-Serif" font-size="10.00">plazza::Reception::</text>
<text text-anchor="middle" x="531.5" y="-95.5" font-family="Helvetica,sans-Serif" font-size="10.00">sendTask</text>
</a>
</g>
</g>
<!-- Node2&#45;&gt;Node11 -->
<g id="edge10" class="edge"><title>Node2&#45;&gt;Node11</title>
<path fill="none" stroke="midnightblue" d="M430.508,-103.5C447.334,-103.5 465.068,-103.5 480.854,-103.5"/>
<polygon fill="midnightblue" stroke="midnightblue" points="430.176,-100 420.176,-103.5 430.175,-107 430.176,-100"/>
</g>
<!-- Node5 -->
<g id="node5" class="node"><title>Node5</title>
<g id="a_node5"><a xlink:href="classplazza_1_1_process_manager.html#aaf7eabb8ae524f2faa9b152aa178a30b" target="_top" xlink:title="create an Office ">
<polygon fill="none" stroke="black" points="1101,-132.5 1101,-162.5 1226,-162.5 1226,-132.5 1101,-132.5"/>
<text text-anchor="start" x="1109" y="-150.5" font-family="Helvetica,sans-Serif" font-size="10.00">plazza::ProcessManager</text>
<text text-anchor="middle" x="1163.5" y="-139.5" font-family="Helvetica,sans-Serif" font-size="10.00">::spawn</text>
</a>
</g>
</g>
<!-- Node4&#45;&gt;Node5 -->
<g id="edge4" class="edge"><title>Node4&#45;&gt;Node5</title>
<path fill="none" stroke="midnightblue" d="M768.052,-73.2406C853.255,-89.2812 1013.1,-119.374 1100.88,-135.9"/>
<polygon fill="midnightblue" stroke="midnightblue" points="768.516,-69.7666 758.041,-71.3559 767.22,-76.6457 768.516,-69.7666"/>
</g>
<!-- Node6 -->
<g id="node6" class="node"><title>Node6</title>
<g id="a_node6"><a xlink:href="classplazza_1_1_reception.html#a7e1b50160865f662607dcddcbd9434f9" target="_top" xlink:title="Create an office. ">
<polygon fill="none" stroke="black" points="1262,-132.5 1262,-162.5 1363,-162.5 1363,-132.5 1262,-132.5"/>
<text text-anchor="start" x="1270" y="-150.5" font-family="Helvetica,sans-Serif" font-size="10.00">plazza::Reception::</text>
<text text-anchor="middle" x="1312.5" y="-139.5" font-family="Helvetica,sans-Serif" font-size="10.00">createOffice</text>
</a>
</g>
</g>
<!-- Node5&#45;&gt;Node6 -->
<g id="edge5" class="edge"><title>Node5&#45;&gt;Node6</title>
<path fill="none" stroke="midnightblue" d="M1236.69,-147.5C1245.15,-147.5 1253.64,-147.5 1261.7,-147.5"/>
<polygon fill="midnightblue" stroke="midnightblue" points="1236.42,-144 1226.42,-147.5 1236.42,-151 1236.42,-144"/>
</g>
<!-- Node7 -->
<g id="node7" class="node"><title>Node7</title>
<g id="a_node7"><a xlink:href="classplazza_1_1_reception.html#a7aa64f05388780e369663cd6800578ae" target="_top" xlink:title="Assign a task to the queue. ">
<polygon fill="none" stroke="black" points="1399,-110.5 1399,-140.5 1500,-140.5 1500,-110.5 1399,-110.5"/>
<text text-anchor="start" x="1407" y="-128.5" font-family="Helvetica,sans-Serif" font-size="10.00">plazza::Reception::</text>
<text text-anchor="middle" x="1449.5" y="-117.5" font-family="Helvetica,sans-Serif" font-size="10.00">assignTask</text>
</a>
</g>
</g>
<!-- Node6&#45;&gt;Node7 -->
<g id="edge6" class="edge"><title>Node6&#45;&gt;Node7</title>
<path fill="none" stroke="midnightblue" d="M1372.93,-137.815C1381.48,-136.422 1390.21,-134.999 1398.55,-133.64"/>
<polygon fill="midnightblue" stroke="midnightblue" points="1372.31,-134.37 1363,-139.433 1373.44,-141.279 1372.31,-134.37"/>
</g>
<!-- Node8 -->
<g id="node8" class="node"><title>Node8</title>
<g id="a_node8"><a xlink:href="classplazza_1_1_reception.html#add69bb3defc0d810a8f4fe2cdceacbb1" target="_top" xlink:title="run the office ">
<polygon fill="none" stroke="black" points="1536,-116 1536,-135 1651,-135 1651,-116 1536,-116"/>
<text text-anchor="middle" x="1593.5" y="-123" font-family="Helvetica,sans-Serif" font-size="10.00">plazza::Reception::run</text>
</a>
</g>
</g>
<!-- Node7&#45;&gt;Node8 -->
<g id="edge7" class="edge"><title>Node7&#45;&gt;Node8</title>
<path fill="none" stroke="midnightblue" d="M1510.33,-125.5C1518.77,-125.5 1527.43,-125.5 1535.82,-125.5"/>
<polygon fill="midnightblue" stroke="midnightblue" points="1510.16,-122 1500.16,-125.5 1510.16,-129 1510.16,-122"/>
</g>
<!-- Node9 -->
<g id="node9" class="node"><title>Node9</title>
<g id="a_node9"><a xlink:href="gui_2sources_2main_8cpp.html#adacbe0175a79dff748855d8c9839f82b" target="_top" xlink:title="main">
<polygon fill="none" stroke="black" points="1687,-116 1687,-135 1725,-135 1725,-116 1687,-116"/>
<text text-anchor="middle" x="1706" y="-123" font-family="Helvetica,sans-Serif" font-size="10.00">main</text>
</a>
</g>
</g>
<!-- Node8&#45;&gt;Node9 -->
<g id="edge8" class="edge"><title>Node8&#45;&gt;Node9</title>
<path fill="none" stroke="midnightblue" d="M1661.3,-125.5C1670.63,-125.5 1679.5,-125.5 1686.78,-125.5"/>
<polygon fill="midnightblue" stroke="midnightblue" points="1661.04,-122 1651.04,-125.5 1661.04,-129 1661.04,-122"/>
</g>
<!-- Node11&#45;&gt;Node7 -->
<g id="edge11" class="edge"><title>Node11&#45;&gt;Node7</title>
<path fill="none" stroke="midnightblue" d="M592.246,-103.5C659.969,-103.5 773.674,-103.5 871.5,-103.5 871.5,-103.5 871.5,-103.5 1164.5,-103.5 1246.84,-103.5 1342.21,-112.806 1398.83,-119.313"/>
<polygon fill="midnightblue" stroke="midnightblue" points="592.188,-100 582.188,-103.5 592.188,-107 592.188,-100"/>
</g>
<!-- Node12&#45;&gt;Node3 -->
<g id="edge19" class="edge"><title>Node12&#45;&gt;Node3</title>
<path fill="none" stroke="midnightblue" d="M278.261,-376.605C336.106,-371.536 418.63,-364.304 473.337,-359.51"/>
<polygon fill="midnightblue" stroke="midnightblue" points="277.776,-373.134 268.12,-377.494 278.388,-380.108 277.776,-373.134"/>
</g>
<!-- Node12&#45;&gt;Node11 -->
<g id="edge22" class="edge"><title>Node12&#45;&gt;Node11</title>
<path fill="none" stroke="midnightblue" d="M230.686,-359.386C242.879,-344.083 258.054,-323.104 268,-302.5 293.133,-250.435 263.891,-219.137 304,-177.5 328.61,-151.952 421.899,-127.424 480.802,-114.014"/>
<polygon fill="midnightblue" stroke="midnightblue" points="227.871,-357.3 224.272,-367.265 233.3,-361.719 227.871,-357.3"/>
</g>
<!-- Node12&#45;&gt;Node13 -->
<g id="edge13" class="edge"><title>Node12&#45;&gt;Node13</title>
<path fill="none" stroke="midnightblue" d="M258.242,-401.397C279.262,-409.805 303.669,-419.568 323.421,-427.468"/>
<polygon fill="midnightblue" stroke="midnightblue" points="259.436,-398.105 248.851,-397.641 256.836,-404.604 259.436,-398.105"/>
</g>
<!-- Node14 -->
<g id="node14" class="node"><title>Node14</title>
<g id="a_node14"><a xlink:href="classplazza_1_1_office.html#a04316c75e42181f331b214729c8e7909" target="_top" xlink:title="Close the office. ">
<polygon fill="none" stroke="black" points="478,-389 478,-408 585,-408 585,-389 478,-389"/>
<text text-anchor="middle" x="531.5" y="-396" font-family="Helvetica,sans-Serif" font-size="10.00">plazza::Office::close</text>
</a>
</g>
</g>
<!-- Node12&#45;&gt;Node14 -->
<g id="edge20" class="edge"><title>Node12&#45;&gt;Node14</title>
<path fill="none" stroke="midnightblue" d="M278.167,-385.864C337.629,-388.841 423.224,-393.128 477.849,-395.863"/>
<polygon fill="midnightblue" stroke="midnightblue" points="278.283,-382.365 268.12,-385.36 277.933,-389.356 278.283,-382.365"/>
</g>
<!-- Node16 -->
<g id="node16" class="node"><title>Node16</title>
<g id="a_node16"><a xlink:href="classplazza_1_1_reception.html#a8fe11050b70e7eed3ef576e875bff427" target="_top" xlink:title="Class destructor. ">
<polygon fill="none" stroke="black" points="481,-449.5 481,-479.5 582,-479.5 582,-449.5 481,-449.5"/>
<text text-anchor="start" x="489" y="-467.5" font-family="Helvetica,sans-Serif" font-size="10.00">plazza::Reception::</text>
<text text-anchor="middle" x="531.5" y="-456.5" font-family="Helvetica,sans-Serif" font-size="10.00">~Reception</text>
</a>
</g>
</g>
<!-- Node12&#45;&gt;Node16 -->
<g id="edge21" class="edge"><title>Node12&#45;&gt;Node16</title>
<path fill="none" stroke="midnightblue" d="M228.125,-405.53C244.871,-425.944 272.411,-454.346 304,-466.5 361.621,-488.67 433.756,-482.895 480.931,-475.113"/>
<polygon fill="midnightblue" stroke="midnightblue" points="230.795,-403.264 221.835,-397.61 225.313,-407.618 230.795,-403.264"/>
</g>
<!-- Node13&#45;&gt;Node3 -->
<g id="edge14" class="edge"><title>Node13&#45;&gt;Node3</title>
<path fill="none" stroke="midnightblue" d="M390.25,-421.13C408.174,-407.825 432.568,-391.097 456,-379.5 463.336,-375.869 471.326,-372.567 479.26,-369.639"/>
<polygon fill="midnightblue" stroke="midnightblue" points="387.881,-418.533 382.004,-427.349 392.096,-424.122 387.881,-418.533"/>
</g>
<!-- Node13&#45;&gt;Node14 -->
<g id="edge15" class="edge"><title>Node13&#45;&gt;Node14</title>
<path fill="none" stroke="midnightblue" d="M430.113,-424.87C452.033,-419.112 475.537,-412.938 494.288,-408.012"/>
<polygon fill="midnightblue" stroke="midnightblue" points="428.958,-421.555 420.176,-427.481 430.737,-428.325 428.958,-421.555"/>
</g>
<!-- Node13&#45;&gt;Node16 -->
<g id="edge18" class="edge"><title>Node13&#45;&gt;Node16</title>
<path fill="none" stroke="midnightblue" d="M430.508,-451.367C447.334,-453.577 465.068,-455.906 480.854,-457.979"/>
<polygon fill="midnightblue" stroke="midnightblue" points="430.546,-447.842 420.176,-450.01 429.635,-454.782 430.546,-447.842"/>
</g>
<!-- Node15 -->
<g id="node15" class="node"><title>Node15</title>
<g id="a_node15"><a xlink:href="classplazza_1_1_office.html#a7c431da08f4460a011363f11f7066889" target="_top" xlink:title="Start the office. ">
<polygon fill="none" stroke="black" points="968,-206 968,-225 1065,-225 1065,-206 968,-206"/>
<text text-anchor="middle" x="1016.5" y="-213" font-family="Helvetica,sans-Serif" font-size="10.00">plazza::Office::run</text>
</a>
</g>
</g>
<!-- Node14&#45;&gt;Node15 -->
<g id="edge16" class="edge"><title>Node14&#45;&gt;Node15</title>
<path fill="none" stroke="midnightblue" d="M581.08,-386.343C589.765,-383.919 598.69,-381.263 607,-378.5 758.075,-328.273 934.035,-251.738 994.131,-225.065"/>
<polygon fill="midnightblue" stroke="midnightblue" points="580.152,-382.968 571.423,-388.974 581.992,-389.722 580.152,-382.968"/>
</g>
<!-- Node15&#45;&gt;Node5 -->
<g id="edge17" class="edge"><title>Node15&#45;&gt;Node5</title>
<path fill="none" stroke="midnightblue" d="M1047.04,-201.647C1071.26,-190.286 1105.5,-174.232 1130.4,-162.556"/>
<polygon fill="midnightblue" stroke="midnightblue" points="1045.54,-198.487 1037.97,-205.901 1048.51,-204.824 1045.54,-198.487"/>
</g>
<!-- Node17&#45;&gt;Node3 -->
<g id="edge37" class="edge"><title>Node17&#45;&gt;Node3</title>
<path fill="none" stroke="midnightblue" d="M278.341,-281.581C320.081,-285.087 374.271,-292.564 420,-308.5 437.492,-314.595 439.132,-321.847 456,-329.5 463.951,-333.107 472.583,-336.474 481.059,-339.494"/>
<polygon fill="midnightblue" stroke="midnightblue" points="278.525,-278.085 268.282,-280.793 277.977,-285.064 278.525,-278.085"/>
</g>
<!-- Node18 -->
<g id="node18" class="node"><title>Node18</title>
<g id="a_node18"><a xlink:href="classplazza_1_1_connector_pipe.html#a6a5aa2b09b3f85badda3ff5161e86f74" target="_top" xlink:title="plazza::ConnectorPipe\l::transfertData">
<polygon fill="none" stroke="black" points="304,-187.5 304,-217.5 420,-217.5 420,-187.5 304,-187.5"/>
<text text-anchor="start" x="312" y="-205.5" font-family="Helvetica,sans-Serif" font-size="10.00">plazza::ConnectorPipe</text>
<text text-anchor="middle" x="362" y="-194.5" font-family="Helvetica,sans-Serif" font-size="10.00">::transfertData</text>
</a>
</g>
</g>
<!-- Node17&#45;&gt;Node18 -->
<g id="edge25" class="edge"><title>Node17&#45;&gt;Node18</title>
<path fill="none" stroke="midnightblue" d="M256.169,-259.129C260.191,-257.272 264.183,-255.379 268,-253.5 290.964,-242.195 316.408,-228.131 334.869,-217.637"/>
<polygon fill="midnightblue" stroke="midnightblue" points="254.462,-256.06 246.798,-263.376 257.351,-262.436 254.462,-256.06"/>
</g>
<!-- Node18&#45;&gt;Node3 -->
<g id="edge26" class="edge"><title>Node18&#45;&gt;Node3</title>
<path fill="none" stroke="midnightblue" d="M409.666,-223.14C413.447,-225.938 416.97,-229.052 420,-232.5 450.351,-267.046 422.974,-297.502 456,-329.5 460.997,-334.342 466.96,-338.246 473.305,-341.395"/>
<polygon fill="midnightblue" stroke="midnightblue" points="411.352,-220.061 401.069,-217.512 407.519,-225.918 411.352,-220.061"/>
</g>
<!-- Node18&#45;&gt;Node11 -->
<g id="edge36" class="edge"><title>Node18&#45;&gt;Node11</title>
<path fill="none" stroke="midnightblue" d="M398.579,-182.055C405.914,-177.289 413.406,-171.991 420,-166.5 438.128,-151.406 436.121,-140.2 456,-127.5 463.558,-122.672 472.17,-118.738 480.792,-115.558"/>
<polygon fill="midnightblue" stroke="midnightblue" points="396.706,-179.098 390.104,-187.384 400.433,-185.024 396.706,-179.098"/>
</g>
<!-- Node18&#45;&gt;Node14 -->
<g id="edge27" class="edge"><title>Node18&#45;&gt;Node14</title>
<path fill="none" stroke="midnightblue" d="M369.266,-227.48C380.206,-265.853 406.493,-338.997 456,-378.5 462.385,-383.595 469.958,-387.398 477.789,-390.234"/>
<polygon fill="midnightblue" stroke="midnightblue" points="372.589,-226.362 366.581,-217.636 365.836,-228.205 372.589,-226.362"/>
</g>
<!-- Node19 -->
<g id="node19" class="node"><title>Node19</title>
<g id="a_node19"><a xlink:href="classplazza_1_1_office.html#a9b483976ff17c8c541d34f8ce7098c38" target="_top" xlink:title="Get task for the private pipe. ">
<polygon fill="none" stroke="black" points="813,-206 813,-225 932,-225 932,-206 813,-206"/>
<text text-anchor="middle" x="872.5" y="-213" font-family="Helvetica,sans-Serif" font-size="10.00">plazza::Office::getTask</text>
</a>
</g>
</g>
<!-- Node18&#45;&gt;Node19 -->
<g id="edge28" class="edge"><title>Node18&#45;&gt;Node19</title>
<path fill="none" stroke="midnightblue" d="M430.366,-204.222C530.701,-206.787 717.752,-211.569 812.802,-213.999"/>
<polygon fill="midnightblue" stroke="midnightblue" points="430.429,-200.723 420.343,-203.966 430.25,-207.721 430.429,-200.723"/>
</g>
<!-- Node20 -->
<g id="node20" class="node"><title>Node20</title>
<g id="a_node20"><a xlink:href="classplazza_1_1_office.html#a40e5e47be8961ded30ee24e588a04e51" target="_top" xlink:title="Finish the task and send it to the server. ">
<polygon fill="none" stroke="black" points="459,-225 459,-244 604,-244 604,-225 459,-225"/>
<text text-anchor="middle" x="531.5" y="-232" font-family="Helvetica,sans-Serif" font-size="10.00">plazza::Office::completeTask</text>
</a>
</g>
</g>
<!-- Node18&#45;&gt;Node20 -->
<g id="edge30" class="edge"><title>Node18&#45;&gt;Node20</title>
<path fill="none" stroke="midnightblue" d="M430.458,-215.388C447.201,-218.586 464.847,-221.957 480.579,-224.963"/>
<polygon fill="midnightblue" stroke="midnightblue" points="430.655,-211.862 420.176,-213.423 429.341,-218.737 430.655,-211.862"/>
</g>
<!-- Node22 -->
<g id="node22" class="node"><title>Node22</title>
<g id="a_node22"><a xlink:href="classplazza_1_1_office.html#a74ec46ef5ec705eac7a7d549742d66f0" target="_top" xlink:title="Function called when a worker finish a task. ">
<polygon fill="none" stroke="black" points="456,-301 456,-320 607,-320 607,-301 456,-301"/>
<text text-anchor="middle" x="531.5" y="-308" font-family="Helvetica,sans-Serif" font-size="10.00">plazza::Office::workerCallback</text>
</a>
</g>
</g>
<!-- Node18&#45;&gt;Node22 -->
<g id="edge33" class="edge"><title>Node18&#45;&gt;Node22</title>
<path fill="none" stroke="midnightblue" d="M407.478,-222.776C411.948,-225.712 416.224,-228.956 420,-232.5 442.398,-253.522 431.294,-273.246 456,-291.5 461.26,-295.387 467.237,-298.482 473.462,-300.945"/>
<polygon fill="midnightblue" stroke="midnightblue" points="409.094,-219.664 398.721,-217.511 405.488,-225.664 409.094,-219.664"/>
</g>
<!-- Node23 -->
<g id="node23" class="node"><title>Node23</title>
<g id="a_node23"><a xlink:href="classplazza_1_1_office.html#a7763a2b3e1b8ca78e6422f7c84560418" target="_top" xlink:title="plazza::Office::assignTask">
<polygon fill="none" stroke="black" points="464.5,-263 464.5,-282 598.5,-282 598.5,-263 464.5,-263"/>
<text text-anchor="middle" x="531.5" y="-270" font-family="Helvetica,sans-Serif" font-size="10.00">plazza::Office::assignTask</text>
</a>
</g>
</g>
<!-- Node18&#45;&gt;Node23 -->
<g id="edge34" class="edge"><title>Node18&#45;&gt;Node23</title>
<path fill="none" stroke="midnightblue" d="M401.2,-222.312C407.506,-225.666 413.955,-229.148 420,-232.5 436.2,-241.482 438.86,-246.477 456,-253.5 465.016,-257.195 474.949,-260.327 484.541,-262.918"/>
<polygon fill="midnightblue" stroke="midnightblue" points="402.605,-219.096 392.129,-217.519 399.336,-225.285 402.605,-219.096"/>
</g>
<!-- Node24 -->
<g id="node24" class="node"><title>Node24</title>
<g id="a_node24"><a xlink:href="classplazza_1_1_reception.html#a9a68bacf594c0fd148eb011e7f807184" target="_top" xlink:title="Flush the server data. ">
<polygon fill="none" stroke="black" points="481,-137.5 481,-167.5 582,-167.5 582,-137.5 481,-137.5"/>
<text text-anchor="start" x="489" y="-155.5" font-family="Helvetica,sans-Serif" font-size="10.00">plazza::Reception::</text>
<text text-anchor="middle" x="531.5" y="-144.5" font-family="Helvetica,sans-Serif" font-size="10.00">flushServerData</text>
</a>
</g>
</g>
<!-- Node18&#45;&gt;Node24 -->
<g id="edge35" class="edge"><title>Node18&#45;&gt;Node24</title>
<path fill="none" stroke="midnightblue" d="M422.99,-184.593C441.957,-178.931 462.697,-172.74 480.857,-167.319"/>
<polygon fill="midnightblue" stroke="midnightblue" points="421.837,-181.284 413.256,-187.498 423.839,-187.992 421.837,-181.284"/>
</g>
<!-- Node19&#45;&gt;Node15 -->
<g id="edge29" class="edge"><title>Node19&#45;&gt;Node15</title>
<path fill="none" stroke="midnightblue" d="M942.216,-215.5C950.897,-215.5 959.624,-215.5 967.877,-215.5"/>
<polygon fill="midnightblue" stroke="midnightblue" points="942.077,-212 932.077,-215.5 942.077,-219 942.077,-212"/>
</g>
<!-- Node21 -->
<g id="node21" class="node"><title>Node21</title>
<g id="a_node21"><a xlink:href="classplazza_1_1_office.html#af53d889fe196fec1a3dcd1d738977048" target="_top" xlink:title="plazza::Office::assignTask">
<polygon fill="none" stroke="black" points="643,-225 643,-244 777,-244 777,-225 643,-225"/>
<text text-anchor="middle" x="710" y="-232" font-family="Helvetica,sans-Serif" font-size="10.00">plazza::Office::assignTask</text>
</a>
</g>
</g>
<!-- Node20&#45;&gt;Node21 -->
<g id="edge31" class="edge"><title>Node20&#45;&gt;Node21</title>
<path fill="none" stroke="midnightblue" d="M614.321,-234.5C623.855,-234.5 633.491,-234.5 642.779,-234.5"/>
<polygon fill="midnightblue" stroke="midnightblue" points="614.035,-231 604.035,-234.5 614.035,-238 614.035,-231"/>
</g>
<!-- Node21&#45;&gt;Node19 -->
<g id="edge32" class="edge"><title>Node21&#45;&gt;Node19</title>
<path fill="none" stroke="midnightblue" d="M787.266,-225.472C795.877,-224.452 804.55,-223.425 812.887,-222.439"/>
<polygon fill="midnightblue" stroke="midnightblue" points="786.727,-222.011 777.208,-226.662 787.55,-228.962 786.727,-222.011"/>
</g>
<!-- Node25&#45;&gt;Node3 -->
<g id="edge40" class="edge"><title>Node25&#45;&gt;Node3</title>
<path fill="none" stroke="midnightblue" d="M278.584,-234.65C321.976,-240.636 377.881,-253.568 420,-281.5 442.224,-296.238 434.383,-313.886 456,-329.5 461.309,-333.334 467.246,-336.61 473.389,-339.401"/>
<polygon fill="midnightblue" stroke="midnightblue" points="278.767,-231.145 268.403,-233.34 277.874,-238.088 278.767,-231.145"/>
</g>
<!-- Node25&#45;&gt;Node18 -->
<g id="edge39" class="edge"><title>Node25&#45;&gt;Node18</title>
<path fill="none" stroke="midnightblue" d="M278.033,-217.434C286.54,-215.903 295.186,-214.347 303.525,-212.845"/>
<polygon fill="midnightblue" stroke="midnightblue" points="277.358,-213.999 268.136,-219.215 278.598,-220.888 277.358,-213.999"/>
</g>
</g>
</svg>
        <g id="navigator" transform="translate(0 0)" fill="#404254">
                <rect fill="#f2f5e9" fill-opacity="0.5" stroke="#606060" stroke-width=".5" x="0" y="0" width="60" height="60"/>
                <use id="zoomplus" xlink:href="#zoomPlus" x="17" y="9" onmousedown="handleZoom(evt,'in')"/>
                <use id="zoomminus" xlink:href="#zoomMin" x="42" y="9" onmousedown="handleZoom(evt,'out')"/>
                <use id="reset" xlink:href="#resetDef" x="30" y="36" onmousedown="handleReset()"/>
                <g id="arrowUp" xlink:href="#dirArrow" transform="translate(30 24)" onmousedown="handlePan(0,-1)">
                  <use xlink:href="#rim" fill="#404040">
                        <set attributeName="fill" to="#808080" begin="arrowUp.mouseover" end="arrowUp.mouseout"/>
                  </use>
                  <path fill="none" stroke="white" stroke-width="1.5" d="M0,-3.0v7 M-2.5,-0.5L0,-3.0L2.5,-0.5"/>
                </g>
                <g id="arrowRight" xlink:href="#dirArrow" transform="rotate(90) translate(36 -43)" onmousedown="handlePan(1,0)">
                  <use xlink:href="#rim" fill="#404040">
                        <set attributeName="fill" to="#808080" begin="arrowRight.mouseover" end="arrowRight.mouseout"/>
                  </use>
                  <path fill="none" stroke="white" stroke-width="1.5" d="M0,-3.0v7 M-2.5,-0.5L0,-3.0L2.5,-0.5"/>
                </g>
                <g id="arrowDown" xlink:href="#dirArrow" transform="rotate(180) translate(-30 -48)" onmousedown="handlePan(0,1)">
                  <use xlink:href="#rim" fill="#404040">
                        <set attributeName="fill" to="#808080" begin="arrowDown.mouseover" end="arrowDown.mouseout"/>
                  </use>
                  <path fill="none" stroke="white" stroke-width="1.5" d="M0,-3.0v7 M-2.5,-0.5L0,-3.0L2.5,-0.5"/>
                </g>
                <g id="arrowLeft" xlink:href="#dirArrow" transform="rotate(270) translate(-36 17)" onmousedown="handlePan(-1,0)">
                  <use xlink:href="#rim" fill="#404040">
                        <set attributeName="fill" to="#808080" begin="arrowLeft.mouseover" end="arrowLeft.mouseout"/>
                  </use>
                  <path fill="none" stroke="white" stroke-width="1.5" d="M0,-3.0v7 M-2.5,-0.5L0,-3.0L2.5,-0.5"/>
                </g>
        </g>
        <svg viewBox="0 0 15 15" width="100%" height="30px" preserveAspectRatio="xMaxYMin meet">
         <g id="arrow_out" transform="scale(0.3 0.3)">
          <a xlink:href="classplazza_1_1_connector_pipe_a81c0af2d4860745accb6ddf522180740_icgraph_org.svg" target="_base">
           <rect id="button" ry="5" rx="5" y="6" x="6" height="38" width="38"
                fill="#f2f5e9" fill-opacity="0.5" stroke="#606060" stroke-width="1.0"/>
           <path id="arrow"
             d="M 11.500037,31.436501 C 11.940474,20.09759 22.043105,11.32322 32.158766,21.979434 L 37.068811,17.246167 C 37.068811,17.246167 37.088388,32 37.088388,32 L 22.160133,31.978069 C 22.160133,31.978069 26.997745,27.140456 26.997745,27.140456 C 18.528582,18.264221 13.291696,25.230495 11.500037,31.436501 z"
             style="fill:#404040;"/>
          </a>
         </g>
        </svg>
</svg>
