<?xml version="1.0" encoding="UTF-8" standalone="no"?>
<!DOCTYPE svg PUBLIC "-//W3C//DTD SVG 1.1//EN"
 "http://www.w3.org/Graphics/SVG/1.1/DTD/svg11.dtd">
<!-- Generated by graphviz version 2.38.0 (20140413.2041)
 -->
<!-- Title: plazza::Office::setPid Pages: 1 -->
<svg width="911pt" height="53pt"
 viewBox="0.00 0.00 911.00 52.50" xmlns="http://www.w3.org/2000/svg" xmlns:xlink="http://www.w3.org/1999/xlink">
<g id="graph0" class="graph" transform="scale(1 1) rotate(0) translate(4 48.5)">
<title>plazza::Office::setPid</title>
<!-- Node1 -->
<g id="node1" class="node"><title>Node1</title>
<polygon fill="#bfbfbf" stroke="black" points="0,-6 0,-25 111,-25 111,-6 0,-6"/>
<text text-anchor="middle" x="55.5" y="-13" font-family="Helvetica,sans-Serif" font-size="10.00">plazza::Office::setPid</text>
</g>
<!-- Node2 -->
<g id="node2" class="node"><title>Node2</title>
<g id="a_node2"><a xlink:href="classplazza_1_1_office.html#a611c1821b8f7dfc4d6e4a4211714e2c7" target="_top" xlink:title="init the Office ">
<polygon fill="none" stroke="black" points="147,-25 147,-44 243,-44 243,-25 147,-25"/>
<text text-anchor="middle" x="195" y="-32" font-family="Helvetica,sans-Serif" font-size="10.00">plazza::Office::init</text>
</a>
</g>
</g>
<!-- Node1&#45;&gt;Node2 -->
<g id="edge1" class="edge"><title>Node1&#45;&gt;Node2</title>
<path fill="none" stroke="midnightblue" d="M121.327,-24.4579C129.981,-25.6538 138.719,-26.8611 146.988,-28.0038"/>
<polygon fill="midnightblue" stroke="midnightblue" points="121.624,-20.9657 111.239,-23.0639 120.665,-27.8998 121.624,-20.9657"/>
</g>
<!-- Node3 -->
<g id="node3" class="node"><title>Node3</title>
<g id="a_node3"><a xlink:href="classplazza_1_1_process_manager.html#aaf7eabb8ae524f2faa9b152aa178a30b" target="_top" xlink:title="create an Office ">
<polygon fill="none" stroke="black" points="279,-0.5 279,-30.5 404,-30.5 404,-0.5 279,-0.5"/>
<text text-anchor="start" x="287" y="-18.5" font-family="Helvetica,sans-Serif" font-size="10.00">plazza::ProcessManager</text>
<text text-anchor="middle" x="341.5" y="-7.5" font-family="Helvetica,sans-Serif" font-size="10.00">::spawn</text>
</a>
</g>
</g>
<!-- Node1&#45;&gt;Node3 -->
<g id="edge7" class="edge"><title>Node1&#45;&gt;Node3</title>
<path fill="none" stroke="midnightblue" d="M121.383,-15.5C168.638,-15.5 232.247,-15.5 278.756,-15.5"/>
<polygon fill="midnightblue" stroke="midnightblue" points="121.258,-12.0001 111.258,-15.5 121.258,-19.0001 121.258,-12.0001"/>
</g>
<!-- Node2&#45;&gt;Node3 -->
<g id="edge2" class="edge"><title>Node2&#45;&gt;Node3</title>
<path fill="none" stroke="midnightblue" d="M253.368,-26.9569C261.749,-25.8548 270.41,-24.716 278.872,-23.6033"/>
<polygon fill="midnightblue" stroke="midnightblue" points="252.773,-23.5048 243.315,-28.2787 253.686,-30.4451 252.773,-23.5048"/>
</g>
<!-- Node4 -->
<g id="node4" class="node"><title>Node4</title>
<g id="a_node4"><a xlink:href="classplazza_1_1_reception.html#a7e1b50160865f662607dcddcbd9434f9" target="_top" xlink:title="Create an office. ">
<polygon fill="none" stroke="black" points="440,-0.5 440,-30.5 541,-30.5 541,-0.5 440,-0.5"/>
<text text-anchor="start" x="448" y="-18.5" font-family="Helvetica,sans-Serif" font-size="10.00">plazza::Reception::</text>
<text text-anchor="middle" x="490.5" y="-7.5" font-family="Helvetica,sans-Serif" font-size="10.00">createOffice</text>
</a>
</g>
</g>
<!-- Node3&#45;&gt;Node4 -->
<g id="edge3" class="edge"><title>Node3&#45;&gt;Node4</title>
<path fill="none" stroke="midnightblue" d="M414.694,-15.5C423.154,-15.5 431.638,-15.5 439.696,-15.5"/>
<polygon fill="midnightblue" stroke="midnightblue" points="414.415,-12.0001 404.415,-15.5 414.415,-19.0001 414.415,-12.0001"/>
</g>
<!-- Node5 -->
<g id="node5" class="node"><title>Node5</title>
<g id="a_node5"><a xlink:href="classplazza_1_1_reception.html#a7aa64f05388780e369663cd6800578ae" target="_top" xlink:title="Assign a task to the queue. ">
<polygon fill="none" stroke="black" points="577,-0.5 577,-30.5 678,-30.5 678,-0.5 577,-0.5"/>
<text text-anchor="start" x="585" y="-18.5" font-family="Helvetica,sans-Serif" font-size="10.00">plazza::Reception::</text>
<text text-anchor="middle" x="627.5" y="-7.5" font-family="Helvetica,sans-Serif" font-size="10.00">assignTask</text>
</a>
</g>
</g>
<!-- Node4&#45;&gt;Node5 -->
<g id="edge4" class="edge"><title>Node4&#45;&gt;Node5</title>
<path fill="none" stroke="midnightblue" d="M551.207,-15.5C559.67,-15.5 568.299,-15.5 576.552,-15.5"/>
<polygon fill="midnightblue" stroke="midnightblue" points="551.002,-12.0001 541.002,-15.5 551.002,-19.0001 551.002,-12.0001"/>
</g>
<!-- Node6 -->
<g id="node6" class="node"><title>Node6</title>
<g id="a_node6"><a xlink:href="classplazza_1_1_reception.html#add69bb3defc0d810a8f4fe2cdceacbb1" target="_top" xlink:title="run the office ">
<polygon fill="none" stroke="black" points="714,-6 714,-25 829,-25 829,-6 714,-6"/>
<text text-anchor="middle" x="771.5" y="-13" font-family="Helvetica,sans-Serif" font-size="10.00">plazza::Reception::run</text>
</a>
</g>
</g>
<!-- Node5&#45;&gt;Node6 -->
<g id="edge5" class="edge"><title>Node5&#45;&gt;Node6</title>
<path fill="none" stroke="midnightblue" d="M688.326,-15.5C696.771,-15.5 705.433,-15.5 713.817,-15.5"/>
<polygon fill="midnightblue" stroke="midnightblue" points="688.165,-12.0001 678.165,-15.5 688.165,-19.0001 688.165,-12.0001"/>
</g>
<!-- Node7 -->
<g id="node7" class="node"><title>Node7</title>
<g id="a_node7"><a xlink:href="gui_2sources_2main_8cpp.html#adacbe0175a79dff748855d8c9839f82b" target="_top" xlink:title="main">
<polygon fill="none" stroke="black" points="865,-6 865,-25 903,-25 903,-6 865,-6"/>
<text text-anchor="middle" x="884" y="-13" font-family="Helvetica,sans-Serif" font-size="10.00">main</text>
</a>
</g>
</g>
<!-- Node6&#45;&gt;Node7 -->
<g id="edge6" class="edge"><title>Node6&#45;&gt;Node7</title>
<path fill="none" stroke="midnightblue" d="M839.296,-15.5C848.626,-15.5 857.496,-15.5 864.776,-15.5"/>
<polygon fill="midnightblue" stroke="midnightblue" points="839.045,-12.0001 829.045,-15.5 839.045,-19.0001 839.045,-12.0001"/>
</g>
</g>
</svg>
