<?xml version="1.0" encoding="UTF-8" standalone="no"?>
<!DOCTYPE svg PUBLIC "-//W3C//DTD SVG 1.1//EN"
 "http://www.w3.org/Graphics/SVG/1.1/DTD/svg11.dtd">
<!-- Generated by graphviz version 2.38.0 (20140413.2041)
 -->
<!-- Title: plazza::Thread::Thread Pages: 1 -->
<svg width="289pt" height="344pt"
 viewBox="0.00 0.00 289.00 343.50" xmlns="http://www.w3.org/2000/svg" xmlns:xlink="http://www.w3.org/1999/xlink">
<g id="graph0" class="graph" transform="scale(1 1) rotate(0) translate(4 339.5)">
<title>plazza::Thread::Thread</title>
<polygon fill="white" stroke="none" points="-4,4 -4,-339.5 285,-339.5 285,4 -4,4"/>
<!-- Node1 -->
<g id="node1" class="node"><title>Node1</title>
<polygon fill="#bfbfbf" stroke="black" points="0,-164 0,-183 117,-183 117,-164 0,-164"/>
<text text-anchor="middle" x="58.5" y="-171" font-family="Helvetica,sans-Serif" font-size="10.00">plazza::Thread::Thread</text>
</g>
<!-- Node2 -->
<g id="node2" class="node"><title>Node2</title>
<g id="a_node2"><a xlink:href="classplazza_1_1_thread.html#a851fa71cbd06ef1304ab3e5a01a9b84a" target="_top" target="_top" xlink:title="Default class constructor. The object created is not a Thread. ">
<polygon fill="white" stroke="black" points="158.5,-316 158.5,-335 275.5,-335 275.5,-316 158.5,-316"/>
<text text-anchor="middle" x="217" y="-323" font-family="Helvetica,sans-Serif" font-size="10.00">plazza::Thread::Thread</text>
</a>
</g>
</g>
<!-- Node1&#45;&gt;Node2 -->
<g id="edge1" class="edge"><title>Node1&#45;&gt;Node2</title>
<path fill="none" stroke="midnightblue" d="M63.569,-183.199C74.3535,-207.716 106.093,-272.623 153,-306.5 155.686,-308.44 158.572,-310.184 161.577,-311.752"/>
<polygon fill="midnightblue" stroke="midnightblue" points="160.321,-315.025 170.876,-315.946 163.2,-308.644 160.321,-315.025"/>
</g>
<!-- Node3 -->
<g id="node3" class="node"><title>Node3</title>
<g id="a_node3"><a xlink:href="classplazza_1_1_thread.html#af01db6e6ff18dc202ab3ff33a793a50a" target="_top" target="_top" xlink:title="Class destructor. ">
<polygon fill="white" stroke="black" points="155.5,-278 155.5,-297 278.5,-297 278.5,-278 155.5,-278"/>
<text text-anchor="middle" x="217" y="-285" font-family="Helvetica,sans-Serif" font-size="10.00">plazza::Thread::~Thread</text>
</a>
</g>
</g>
<!-- Node1&#45;&gt;Node3 -->
<g id="edge2" class="edge"><title>Node1&#45;&gt;Node3</title>
<path fill="none" stroke="midnightblue" d="M66.316,-183.139C80.3395,-202.265 114.368,-245.178 153,-268.5 156.576,-270.659 160.415,-272.588 164.37,-274.31"/>
<polygon fill="midnightblue" stroke="midnightblue" points="163.15,-277.591 173.738,-277.962 165.692,-271.069 163.15,-277.591"/>
</g>
<!-- Node4 -->
<g id="node4" class="node"><title>Node4</title>
<g id="a_node4"><a xlink:href="classplazza_1_1_thread.html#a5c1dc886fb837cd80792190294303b4f" target="_top" target="_top" xlink:title="Operator=. Used to move Thread instance. ">
<polygon fill="white" stroke="black" points="153,-240 153,-259 281,-259 281,-240 153,-240"/>
<text text-anchor="middle" x="217" y="-247" font-family="Helvetica,sans-Serif" font-size="10.00">plazza::Thread::operator=</text>
</a>
</g>
</g>
<!-- Node1&#45;&gt;Node4 -->
<g id="edge3" class="edge"><title>Node1&#45;&gt;Node4</title>
<path fill="none" stroke="midnightblue" d="M72.8376,-183.145C90.4572,-195.523 122.798,-217.006 153,-230.5 158.085,-232.772 163.518,-234.868 168.981,-236.772"/>
<polygon fill="midnightblue" stroke="midnightblue" points="168.189,-240.195 178.782,-239.989 170.372,-233.544 168.189,-240.195"/>
</g>
<!-- Node5 -->
<g id="node5" class="node"><title>Node5</title>
<g id="a_node5"><a xlink:href="classplazza_1_1_thread.html#ab3c39ec62bde01961a7dbe02dbaa72ea" target="_top" target="_top" xlink:title="Get thread id. ">
<polygon fill="white" stroke="black" points="162.5,-202 162.5,-221 271.5,-221 271.5,-202 162.5,-202"/>
<text text-anchor="middle" x="217" y="-209" font-family="Helvetica,sans-Serif" font-size="10.00">plazza::Thread::getId</text>
</a>
</g>
</g>
<!-- Node1&#45;&gt;Node5 -->
<g id="edge4" class="edge"><title>Node1&#45;&gt;Node5</title>
<path fill="none" stroke="midnightblue" d="M98.9916,-183.089C119.643,-188.104 145.114,-194.288 167.012,-199.605"/>
<polygon fill="midnightblue" stroke="midnightblue" points="166.249,-203.021 176.792,-201.98 167.901,-196.219 166.249,-203.021"/>
</g>
<!-- Node6 -->
<g id="node6" class="node"><title>Node6</title>
<g id="a_node6"><a xlink:href="classplazza_1_1_thread.html#a7e7c19f27324f8156c41b5f3f4f7e663" target="_top" target="_top" xlink:title="Define if a thread is joinable. ">
<polygon fill="white" stroke="black" points="157,-164 157,-183 277,-183 277,-164 157,-164"/>
<text text-anchor="middle" x="217" y="-171" font-family="Helvetica,sans-Serif" font-size="10.00">plazza::Thread::joinable</text>
</a>
</g>
</g>
<!-- Node1&#45;&gt;Node6 -->
<g id="edge5" class="edge"><title>Node1&#45;&gt;Node6</title>
<path fill="none" stroke="midnightblue" d="M117.33,-173.5C126.895,-173.5 136.896,-173.5 146.708,-173.5"/>
<polygon fill="midnightblue" stroke="midnightblue" points="146.838,-177 156.838,-173.5 146.838,-170 146.838,-177"/>
</g>
<!-- Node7 -->
<g id="node7" class="node"><title>Node7</title>
<g id="a_node7"><a xlink:href="classplazza_1_1_thread.html#a8c017ca3a337dea507e74f8651533cb6" target="_top" target="_top" xlink:title="Join a thread. ">
<polygon fill="white" stroke="black" points="166,-126 166,-145 268,-145 268,-126 166,-126"/>
<text text-anchor="middle" x="217" y="-133" font-family="Helvetica,sans-Serif" font-size="10.00">plazza::Thread::join</text>
</a>
</g>
</g>
<!-- Node1&#45;&gt;Node7 -->
<g id="edge6" class="edge"><title>Node1&#45;&gt;Node7</title>
<path fill="none" stroke="midnightblue" d="M98.9916,-163.911C119.643,-158.896 145.114,-152.712 167.012,-147.395"/>
<polygon fill="midnightblue" stroke="midnightblue" points="167.901,-150.781 176.792,-145.02 166.249,-143.979 167.901,-150.781"/>
</g>
<!-- Node8 -->
<g id="node8" class="node"><title>Node8</title>
<g id="a_node8"><a xlink:href="classplazza_1_1_thread.html#a52e0d1c84bfb141d1562d47007fa9627" target="_top" target="_top" xlink:title="Detach a thread. ">
<polygon fill="white" stroke="black" points="159,-88 159,-107 275,-107 275,-88 159,-88"/>
<text text-anchor="middle" x="217" y="-95" font-family="Helvetica,sans-Serif" font-size="10.00">plazza::Thread::detach</text>
</a>
</g>
</g>
<!-- Node1&#45;&gt;Node8 -->
<g id="edge7" class="edge"><title>Node1&#45;&gt;Node8</title>
<path fill="none" stroke="midnightblue" d="M72.8376,-163.855C90.4572,-151.477 122.798,-129.994 153,-116.5 158.085,-114.228 163.518,-112.132 168.981,-110.228"/>
<polygon fill="midnightblue" stroke="midnightblue" points="170.372,-113.456 178.782,-107.011 168.189,-106.805 170.372,-113.456"/>
</g>
<!-- Node9 -->
<g id="node9" class="node"><title>Node9</title>
<g id="a_node9"><a xlink:href="classplazza_1_1_thread.html#a5869c61dde9e6a649a7bf487faec209a" target="_top" target="_top" xlink:title="Swap a thread. ">
<polygon fill="white" stroke="black" points="162,-50 162,-69 272,-69 272,-50 162,-50"/>
<text text-anchor="middle" x="217" y="-57" font-family="Helvetica,sans-Serif" font-size="10.00">plazza::Thread::swap</text>
</a>
</g>
</g>
<!-- Node1&#45;&gt;Node9 -->
<g id="edge8" class="edge"><title>Node1&#45;&gt;Node9</title>
<path fill="none" stroke="midnightblue" d="M66.316,-163.861C80.3395,-144.735 114.368,-101.822 153,-78.5 156.576,-76.3413 160.415,-74.4116 164.37,-72.6896"/>
<polygon fill="midnightblue" stroke="midnightblue" points="165.692,-75.931 173.738,-69.0384 163.15,-69.4089 165.692,-75.931"/>
</g>
<!-- Node10 -->
<g id="node10" class="node"><title>Node10</title>
<g id="a_node10"><a xlink:href="classplazza_1_1_thread.html#a44d3c051cba95a86b0a5044b1df6d6a3" target="_top" target="_top" xlink:title="Swap thread. ">
<polygon fill="white" stroke="black" points="160.5,-0.5 160.5,-30.5 273.5,-30.5 273.5,-0.5 160.5,-0.5"/>
<text text-anchor="start" x="168.5" y="-18.5" font-family="Helvetica,sans-Serif" font-size="10.00">plazza::Thread::native</text>
<text text-anchor="middle" x="217" y="-7.5" font-family="Helvetica,sans-Serif" font-size="10.00">_handle</text>
</a>
</g>
</g>
<!-- Node1&#45;&gt;Node10 -->
<g id="edge9" class="edge"><title>Node1&#45;&gt;Node10</title>
<path fill="none" stroke="midnightblue" d="M63.9105,-163.681C75.2614,-139.444 107.793,-76.1616 153,-40.5 155.252,-38.7236 157.646,-37.0588 160.135,-35.5004"/>
<polygon fill="midnightblue" stroke="midnightblue" points="161.873,-38.539 168.894,-30.605 158.457,-32.4287 161.873,-38.539"/>
</g>
</g>
</svg>
