<?xml version="1.0" encoding="UTF-8" standalone="no"?>
<!DOCTYPE svg PUBLIC "-//W3C//DTD SVG 1.1//EN"
 "http://www.w3.org/Graphics/SVG/1.1/DTD/svg11.dtd">
<!-- Generated by graphviz version 2.38.0 (20140413.2041)
 -->
<!-- Title: plazza::ConnectorPipe::destroy Pages: 1 -->
<svg width="428pt" height="132pt"
 viewBox="0.00 0.00 428.00 132.00" xmlns="http://www.w3.org/2000/svg" xmlns:xlink="http://www.w3.org/1999/xlink">
<g id="graph0" class="graph" transform="scale(1 1) rotate(0) translate(4 128)">
<title>plazza::ConnectorPipe::destroy</title>
<!-- Node1 -->
<g id="node1" class="node"><title>Node1</title>
<polygon fill="#bfbfbf" stroke="black" points="0,-49.5 0,-79.5 116,-79.5 116,-49.5 0,-49.5"/>
<text text-anchor="start" x="8" y="-67.5" font-family="Helvetica,sans-Serif" font-size="10.00">plazza::ConnectorPipe</text>
<text text-anchor="middle" x="58" y="-56.5" font-family="Helvetica,sans-Serif" font-size="10.00">::destroy</text>
</g>
<!-- Node2 -->
<g id="node2" class="node"><title>Node2</title>
<g id="a_node2"><a xlink:href="classplazza_1_1_connector_pipe.html#a81c0af2d4860745accb6ddf522180740" target="_top" xlink:title="plazza::ConnectorPipe\l::getFd">
<polygon fill="none" stroke="black" points="304,-93.5 304,-123.5 420,-123.5 420,-93.5 304,-93.5"/>
<text text-anchor="start" x="312" y="-111.5" font-family="Helvetica,sans-Serif" font-size="10.00">plazza::ConnectorPipe</text>
<text text-anchor="middle" x="362" y="-100.5" font-family="Helvetica,sans-Serif" font-size="10.00">::getFd</text>
</a>
</g>
</g>
<!-- Node1&#45;&gt;Node2 -->
<g id="edge1" class="edge"><title>Node1&#45;&gt;Node2</title>
<path fill="none" stroke="midnightblue" d="M111.311,-79.5347C124.502,-82.9008 138.697,-86.162 152,-88.5 198.996,-96.7597 252.578,-101.802 293.723,-104.757"/>
<polygon fill="midnightblue" stroke="midnightblue" points="293.685,-108.263 303.904,-105.464 294.17,-101.28 293.685,-108.263"/>
</g>
<!-- Node3 -->
<g id="node3" class="node"><title>Node3</title>
<g id="a_node3"><a xlink:href="classplazza_1_1_connector_pipe.html#a588544d4eebd85f8f05e43f826ea47bd" target="_top" xlink:title="plazza::ConnectorPipe\l::disconnect">
<polygon fill="none" stroke="black" points="152,-49.5 152,-79.5 268,-79.5 268,-49.5 152,-49.5"/>
<text text-anchor="start" x="160" y="-67.5" font-family="Helvetica,sans-Serif" font-size="10.00">plazza::ConnectorPipe</text>
<text text-anchor="middle" x="210" y="-56.5" font-family="Helvetica,sans-Serif" font-size="10.00">::disconnect</text>
</a>
</g>
</g>
<!-- Node1&#45;&gt;Node3 -->
<g id="edge2" class="edge"><title>Node1&#45;&gt;Node3</title>
<path fill="none" stroke="midnightblue" d="M116.136,-64.5C124.377,-64.5 132.923,-64.5 141.344,-64.5"/>
<polygon fill="midnightblue" stroke="midnightblue" points="141.526,-68.0001 151.525,-64.5 141.525,-61.0001 141.526,-68.0001"/>
</g>
<!-- Node5 -->
<g id="node5" class="node"><title>Node5</title>
<g id="a_node5"><a xlink:href="classplazza_1_1_connector_pipe.html#acc3d09548d11f5e39ec5b53a2796e9df" target="_top" xlink:title="plazza::ConnectorPipe\l::getName">
<polygon fill="none" stroke="black" points="152,-0.5 152,-30.5 268,-30.5 268,-0.5 152,-0.5"/>
<text text-anchor="start" x="160" y="-18.5" font-family="Helvetica,sans-Serif" font-size="10.00">plazza::ConnectorPipe</text>
<text text-anchor="middle" x="210" y="-7.5" font-family="Helvetica,sans-Serif" font-size="10.00">::getName</text>
</a>
</g>
</g>
<!-- Node1&#45;&gt;Node5 -->
<g id="edge5" class="edge"><title>Node1&#45;&gt;Node5</title>
<path fill="none" stroke="midnightblue" d="M105.229,-49.3986C120.413,-44.4385 137.451,-38.8726 153.264,-33.7071"/>
<polygon fill="midnightblue" stroke="midnightblue" points="154.505,-36.9838 162.924,-30.5516 152.331,-30.3298 154.505,-36.9838"/>
</g>
<!-- Node3&#45;&gt;Node2 -->
<g id="edge3" class="edge"><title>Node3&#45;&gt;Node2</title>
<path fill="none" stroke="midnightblue" d="M262.202,-79.5192C274.323,-83.0748 287.37,-86.9018 299.882,-90.5721"/>
<polygon fill="midnightblue" stroke="midnightblue" points="299.193,-94.0175 309.774,-93.4738 301.164,-87.3005 299.193,-94.0175"/>
</g>
<!-- Node4 -->
<g id="node4" class="node"><title>Node4</title>
<g id="a_node4"><a xlink:href="classplazza_1_1_connector_pipe.html#a4609ad27d1a9847c051fc3be7638e656" target="_top" xlink:title="plazza::ConnectorPipe\l::setFd">
<polygon fill="none" stroke="black" points="304,-44.5 304,-74.5 420,-74.5 420,-44.5 304,-44.5"/>
<text text-anchor="start" x="312" y="-62.5" font-family="Helvetica,sans-Serif" font-size="10.00">plazza::ConnectorPipe</text>
<text text-anchor="middle" x="362" y="-51.5" font-family="Helvetica,sans-Serif" font-size="10.00">::setFd</text>
</a>
</g>
</g>
<!-- Node3&#45;&gt;Node4 -->
<g id="edge4" class="edge"><title>Node3&#45;&gt;Node4</title>
<path fill="none" stroke="midnightblue" d="M268.136,-62.5955C276.377,-62.3208 284.923,-62.0359 293.344,-61.7552"/>
<polygon fill="midnightblue" stroke="midnightblue" points="293.648,-65.2471 303.525,-61.4158 293.414,-58.251 293.648,-65.2471"/>
</g>
</g>
</svg>
