<?xml version="1.0" encoding="UTF-8" standalone="no"?>
<!DOCTYPE svg PUBLIC "-//W3C//DTD SVG 1.1//EN"
 "http://www.w3.org/Graphics/SVG/1.1/DTD/svg11.dtd">
<!-- Generated by graphviz version 2.38.0 (20140413.2041)
 -->
<!-- Title: plazza::Command::setArgs Pages: 1 -->
<svg width="465pt" height="78pt"
 viewBox="0.00 0.00 465.00 77.50" xmlns="http://www.w3.org/2000/svg" xmlns:xlink="http://www.w3.org/1999/xlink">
<g id="graph0" class="graph" transform="scale(1 1) rotate(0) translate(4 73.5)">
<title>plazza::Command::setArgs</title>
<!-- Node1 -->
<g id="node1" class="node"><title>Node1</title>
<polygon fill="#bfbfbf" stroke="black" points="0,-22.5 0,-41.5 136,-41.5 136,-22.5 0,-22.5"/>
<text text-anchor="middle" x="68" y="-29.5" font-family="Helvetica,sans-Serif" font-size="10.00">plazza::Command::setArgs</text>
</g>
<!-- Node2 -->
<g id="node2" class="node"><title>Node2</title>
<g id="a_node2"><a xlink:href="classplazza_1_1_command_manager.html#a9cdbbe033645c4f2f730aa923db71585" target="_top" xlink:title="Parse command provided as parameter. ">
<polygon fill="none" stroke="black" points="172,-39 172,-69 306,-69 306,-39 172,-39"/>
<text text-anchor="start" x="180" y="-57" font-family="Helvetica,sans-Serif" font-size="10.00">plazza::CommandManager</text>
<text text-anchor="middle" x="239" y="-46" font-family="Helvetica,sans-Serif" font-size="10.00">::parseCommand</text>
</a>
</g>
</g>
<!-- Node1&#45;&gt;Node2 -->
<g id="edge1" class="edge"><title>Node1&#45;&gt;Node2</title>
<path fill="none" stroke="midnightblue" d="M146.23,-42.0537C154.764,-43.1646 163.398,-44.2885 171.78,-45.3796"/>
<polygon fill="midnightblue" stroke="midnightblue" points="146.647,-38.5785 136.279,-40.7582 145.743,-45.5199 146.647,-38.5785"/>
</g>
<!-- Node4 -->
<g id="node4" class="node"><title>Node4</title>
<g id="a_node4"><a xlink:href="classplazza_1_1_reception.html#add69bb3defc0d810a8f4fe2cdceacbb1" target="_top" xlink:title="run the office ">
<polygon fill="none" stroke="black" points="181.5,-0.5 181.5,-19.5 296.5,-19.5 296.5,-0.5 181.5,-0.5"/>
<text text-anchor="middle" x="239" y="-7.5" font-family="Helvetica,sans-Serif" font-size="10.00">plazza::Reception::run</text>
</a>
</g>
</g>
<!-- Node1&#45;&gt;Node4 -->
<g id="edge3" class="edge"><title>Node1&#45;&gt;Node4</title>
<path fill="none" stroke="midnightblue" d="M146.506,-21.9104C158.224,-20.3851 170.121,-18.8363 181.29,-17.3823"/>
<polygon fill="midnightblue" stroke="midnightblue" points="145.743,-18.4801 136.279,-23.2418 146.647,-25.4216 145.743,-18.4801"/>
</g>
<!-- Node3 -->
<g id="node3" class="node"><title>Node3</title>
<g id="a_node3"><a xlink:href="classplazza_1_1_reception.html#a73427abbd4f108f41e9c9c348b50310a" target="_top" xlink:title="run the office ">
<polygon fill="none" stroke="black" points="342,-44.5 342,-63.5 457,-63.5 457,-44.5 342,-44.5"/>
<text text-anchor="middle" x="399.5" y="-51.5" font-family="Helvetica,sans-Serif" font-size="10.00">plazza::Reception::run</text>
</a>
</g>
</g>
<!-- Node2&#45;&gt;Node3 -->
<g id="edge2" class="edge"><title>Node2&#45;&gt;Node3</title>
<path fill="none" stroke="midnightblue" d="M316.523,-54C324.942,-54 333.402,-54 341.523,-54"/>
<polygon fill="midnightblue" stroke="midnightblue" points="316.3,-50.5001 306.3,-54 316.3,-57.5001 316.3,-50.5001"/>
</g>
<!-- Node5 -->
<g id="node5" class="node"><title>Node5</title>
<g id="a_node5"><a xlink:href="gui_2sources_2main_8cpp.html#adacbe0175a79dff748855d8c9839f82b" target="_top" xlink:title="main">
<polygon fill="none" stroke="black" points="380.5,-0.5 380.5,-19.5 418.5,-19.5 418.5,-0.5 380.5,-0.5"/>
<text text-anchor="middle" x="399.5" y="-7.5" font-family="Helvetica,sans-Serif" font-size="10.00">main</text>
</a>
</g>
</g>
<!-- Node4&#45;&gt;Node5 -->
<g id="edge4" class="edge"><title>Node4&#45;&gt;Node5</title>
<path fill="none" stroke="midnightblue" d="M306.882,-10C333.569,-10 362.175,-10 380.189,-10"/>
<polygon fill="midnightblue" stroke="midnightblue" points="306.774,-6.5001 296.774,-10 306.774,-13.5001 306.774,-6.5001"/>
</g>
</g>
</svg>
