<?xml version="1.0" encoding="UTF-8" standalone="no"?>
<!DOCTYPE svg PUBLIC "-//W3C//DTD SVG 1.1//EN"
 "http://www.w3.org/Graphics/SVG/1.1/DTD/svg11.dtd">
<!-- Generated by graphviz version 2.38.0 (20140413.2041)
 -->
<!-- Title: plazza::XorCracker::setKnownKeyLength Pages: 1 -->
<svg width="887pt" height="100pt"
 viewBox="0.00 0.00 887.00 99.50" xmlns="http://www.w3.org/2000/svg" xmlns:xlink="http://www.w3.org/1999/xlink">
<g id="graph0" class="graph" transform="scale(1 1) rotate(0) translate(4 95.5)">
<title>plazza::XorCracker::setKnownKeyLength</title>
<!-- Node1 -->
<g id="node1" class="node"><title>Node1</title>
<polygon fill="#bfbfbf" stroke="black" points="0,-22.5 0,-52.5 113,-52.5 113,-22.5 0,-22.5"/>
<text text-anchor="start" x="8" y="-40.5" font-family="Helvetica,sans-Serif" font-size="10.00">plazza::XorCracker</text>
<text text-anchor="middle" x="56.5" y="-29.5" font-family="Helvetica,sans-Serif" font-size="10.00">::setKnownKeyLength</text>
</g>
<!-- Node2 -->
<g id="node2" class="node"><title>Node2</title>
<g id="a_node2"><a xlink:href="classplazza_1_1_xor_cracker.html#ad190633b59d1fb23b403f44d837085f8" target="_top" xlink:title="plazza::XorCracker::run">
<polygon fill="none" stroke="black" points="149,-28 149,-47 269,-47 269,-28 149,-28"/>
<text text-anchor="middle" x="209" y="-35" font-family="Helvetica,sans-Serif" font-size="10.00">plazza::XorCracker::run</text>
</a>
</g>
</g>
<!-- Node1&#45;&gt;Node2 -->
<g id="edge1" class="edge"><title>Node1&#45;&gt;Node2</title>
<path fill="none" stroke="midnightblue" d="M123.346,-37.5C131.825,-37.5 140.465,-37.5 148.828,-37.5"/>
<polygon fill="midnightblue" stroke="midnightblue" points="123.113,-34.0001 113.113,-37.5 123.113,-41.0001 123.113,-34.0001"/>
</g>
<!-- Node3 -->
<g id="node3" class="node"><title>Node3</title>
<g id="a_node3"><a xlink:href="classplazza_1_1_xor_cracker.html#a4d74f576654cf3a0b83ce937d56e2cef" target="_top" xlink:title="plazza::XorCracker::run">
<polygon fill="none" stroke="black" points="305,-28 305,-47 425,-47 425,-28 305,-28"/>
<text text-anchor="middle" x="365" y="-35" font-family="Helvetica,sans-Serif" font-size="10.00">plazza::XorCracker::run</text>
</a>
</g>
</g>
<!-- Node2&#45;&gt;Node3 -->
<g id="edge2" class="edge"><title>Node2&#45;&gt;Node3</title>
<path fill="none" stroke="midnightblue" d="M279.369,-37.5C287.862,-37.5 296.48,-37.5 304.804,-37.5"/>
<polygon fill="midnightblue" stroke="midnightblue" points="279.1,-34.0001 269.1,-37.5 279.1,-41.0001 279.1,-34.0001"/>
</g>
<!-- Node4 -->
<g id="node4" class="node"><title>Node4</title>
<g id="a_node4"><a xlink:href="classplazza_1_1_worker.html#af17344ef0f0311dadb4f7c7ea9565031" target="_top" xlink:title="Send task to perform to the worker. ">
<polygon fill="none" stroke="black" points="461,-28 461,-47 598,-47 598,-28 461,-28"/>
<text text-anchor="middle" x="529.5" y="-35" font-family="Helvetica,sans-Serif" font-size="10.00">plazza::Worker::performJob</text>
</a>
</g>
</g>
<!-- Node3&#45;&gt;Node4 -->
<g id="edge3" class="edge"><title>Node3&#45;&gt;Node4</title>
<path fill="none" stroke="midnightblue" d="M435.337,-37.5C443.801,-37.5 452.441,-37.5 460.88,-37.5"/>
<polygon fill="midnightblue" stroke="midnightblue" points="435.126,-34.0001 425.126,-37.5 435.126,-41.0001 435.126,-34.0001"/>
</g>
<!-- Node5 -->
<g id="node5" class="node"><title>Node5</title>
<g id="a_node5"><a xlink:href="classplazza_1_1_worker.html#aa7561bf24cd0a90230ddd99b43b18a11" target="_top" xlink:title="Start thread execution. ">
<polygon fill="none" stroke="black" points="634,-72 634,-91 742,-91 742,-72 634,-72"/>
<text text-anchor="middle" x="688" y="-79" font-family="Helvetica,sans-Serif" font-size="10.00">plazza::Worker::start</text>
</a>
</g>
</g>
<!-- Node4&#45;&gt;Node5 -->
<g id="edge4" class="edge"><title>Node4&#45;&gt;Node5</title>
<path fill="none" stroke="midnightblue" d="M574.395,-49.8412C599.322,-56.8493 630.051,-65.4888 653.108,-71.9713"/>
<polygon fill="midnightblue" stroke="midnightblue" points="575.032,-46.3846 564.458,-47.0473 573.138,-53.1233 575.032,-46.3846"/>
</g>
<!-- Node6 -->
<g id="node6" class="node"><title>Node6</title>
<g id="a_node6"><a xlink:href="classplazza_1_1_thread_pool.html#a85b5323591017ee418afb0fdc9e3d9a7" target="_top" xlink:title="Get the number of total workers. ">
<polygon fill="none" stroke="black" points="637.5,-22.5 637.5,-52.5 738.5,-52.5 738.5,-22.5 637.5,-22.5"/>
<text text-anchor="start" x="645.5" y="-40.5" font-family="Helvetica,sans-Serif" font-size="10.00">plazza::ThreadPool</text>
<text text-anchor="middle" x="688" y="-29.5" font-family="Helvetica,sans-Serif" font-size="10.00">::getNbWorkers</text>
</a>
</g>
</g>
<!-- Node4&#45;&gt;Node6 -->
<g id="edge5" class="edge"><title>Node4&#45;&gt;Node6</title>
<path fill="none" stroke="midnightblue" d="M608.382,-37.5C618.148,-37.5 627.921,-37.5 637.094,-37.5"/>
<polygon fill="midnightblue" stroke="midnightblue" points="608.233,-34.0001 598.233,-37.5 608.233,-41.0001 608.233,-34.0001"/>
</g>
<!-- Node7 -->
<g id="node7" class="node"><title>Node7</title>
<g id="a_node7"><a xlink:href="classplazza_1_1_thread_pool.html#ae3447aa58cee4c5206d194f144d207c3" target="_top" xlink:title="Class constructor. ">
<polygon fill="none" stroke="black" points="778,-0.5 778,-30.5 879,-30.5 879,-0.5 778,-0.5"/>
<text text-anchor="start" x="786" y="-18.5" font-family="Helvetica,sans-Serif" font-size="10.00">plazza::ThreadPool</text>
<text text-anchor="middle" x="828.5" y="-7.5" font-family="Helvetica,sans-Serif" font-size="10.00">::ThreadPool</text>
</a>
</g>
</g>
<!-- Node4&#45;&gt;Node7 -->
<g id="edge7" class="edge"><title>Node4&#45;&gt;Node7</title>
<path fill="none" stroke="midnightblue" d="M573.157,-25.3039C591.685,-20.6081 613.744,-15.8178 634,-13.5 681.689,-8.04325 694.003,-12.9387 742,-13.5 753.581,-13.6354 766.041,-13.874 777.771,-14.1403"/>
<polygon fill="midnightblue" stroke="midnightblue" points="572.052,-21.9748 563.26,-27.8866 573.82,-28.748 572.052,-21.9748"/>
</g>
<!-- Node6&#45;&gt;Node7 -->
<g id="edge6" class="edge"><title>Node6&#45;&gt;Node7</title>
<path fill="none" stroke="midnightblue" d="M748.615,-28.0304C758.338,-26.4861 768.318,-24.9007 777.77,-23.3993"/>
<polygon fill="midnightblue" stroke="midnightblue" points="747.938,-24.5941 738.61,-29.6196 749.036,-31.5074 747.938,-24.5941"/>
</g>
</g>
</svg>
