<?xml version="1.0" encoding="UTF-8" standalone="no"?>
<!DOCTYPE svg PUBLIC "-//W3C//DTD SVG 1.1//EN"
 "http://www.w3.org/Graphics/SVG/1.1/DTD/svg11.dtd">
<!-- Generated by graphviz version 2.38.0 (20140413.2041)
 -->
<!-- Title: plazza::Office::assignTask Pages: 1 -->
<svg width="801pt" height="273pt"
 viewBox="0.00 0.00 801.00 272.50" xmlns="http://www.w3.org/2000/svg" xmlns:xlink="http://www.w3.org/1999/xlink">
<g id="graph0" class="graph" transform="scale(1 1) rotate(0) translate(4 268.5)">
<title>plazza::Office::assignTask</title>
<!-- Node1 -->
<g id="node1" class="node"><title>Node1</title>
<polygon fill="#bfbfbf" stroke="black" points="0,-126.5 0,-145.5 134,-145.5 134,-126.5 0,-126.5"/>
<text text-anchor="middle" x="67" y="-133.5" font-family="Helvetica,sans-Serif" font-size="10.00">plazza::Office::assignTask</text>
</g>
<!-- Node2 -->
<g id="node2" class="node"><title>Node2</title>
<g id="a_node2"><a xlink:href="classplazza_1_1_office.html#ae5955f678a2422dee68f43b102502e57" target="_top" xlink:title="set number of available tasks ">
<polygon fill="none" stroke="black" points="351,-234 351,-264 489,-264 489,-234 351,-234"/>
<text text-anchor="start" x="359" y="-252" font-family="Helvetica,sans-Serif" font-size="10.00">plazza::Office::setFreeTask</text>
<text text-anchor="middle" x="420" y="-241" font-family="Helvetica,sans-Serif" font-size="10.00">Spots</text>
</a>
</g>
</g>
<!-- Node1&#45;&gt;Node2 -->
<g id="edge1" class="edge"><title>Node1&#45;&gt;Node2</title>
<path fill="none" stroke="midnightblue" d="M77.0184,-145.761C93.5802,-162.992 130.759,-198.531 170,-215 224.199,-237.746 290.31,-245.968 340.787,-248.653"/>
<polygon fill="midnightblue" stroke="midnightblue" points="340.835,-252.159 350.988,-249.132 341.163,-245.167 340.835,-252.159"/>
</g>
<!-- Node3 -->
<g id="node3" class="node"><title>Node3</title>
<g id="a_node3"><a xlink:href="classplazza_1_1_office.html#a0ca9b3768cf184e6d95edee417ca0231" target="_top" xlink:title="Get number of available tasks. ">
<polygon fill="none" stroke="black" points="351,-184 351,-214 489,-214 489,-184 351,-184"/>
<text text-anchor="start" x="359" y="-202" font-family="Helvetica,sans-Serif" font-size="10.00">plazza::Office::getFreeTask</text>
<text text-anchor="middle" x="420" y="-191" font-family="Helvetica,sans-Serif" font-size="10.00">Spots</text>
</a>
</g>
</g>
<!-- Node1&#45;&gt;Node3 -->
<g id="edge2" class="edge"><title>Node1&#45;&gt;Node3</title>
<path fill="none" stroke="midnightblue" d="M80.3187,-145.542C98.6596,-159.103 134.778,-183.372 170,-193 225.705,-208.228 291.055,-209.2 340.826,-206.647"/>
<polygon fill="midnightblue" stroke="midnightblue" points="341.099,-210.137 350.883,-206.072 340.7,-203.149 341.099,-210.137"/>
</g>
<!-- Node4 -->
<g id="node4" class="node"><title>Node4</title>
<g id="a_node4"><a xlink:href="classplazza_1_1_thread_pool.html#a353ba248e5dffc93f2912c9148da05fb" target="_top" xlink:title="Add a job to the queue. ">
<polygon fill="none" stroke="black" points="192,-39 192,-69 293,-69 293,-39 192,-39"/>
<text text-anchor="start" x="200" y="-57" font-family="Helvetica,sans-Serif" font-size="10.00">plazza::ThreadPool</text>
<text text-anchor="middle" x="242.5" y="-46" font-family="Helvetica,sans-Serif" font-size="10.00">::addJob</text>
</a>
</g>
</g>
<!-- Node1&#45;&gt;Node4 -->
<g id="edge3" class="edge"><title>Node1&#45;&gt;Node4</title>
<path fill="none" stroke="midnightblue" d="M85.8581,-126.387C106.066,-115.628 140.069,-97.8856 170,-84 177.985,-80.2956 186.556,-76.5262 194.892,-72.9668"/>
<polygon fill="midnightblue" stroke="midnightblue" points="196.311,-76.1671 204.161,-69.052 193.587,-69.7187 196.311,-76.1671"/>
</g>
<!-- Node6 -->
<g id="node6" class="node"><title>Node6</title>
<g id="a_node6"><a xlink:href="classplazza_1_1_office.html#a40e5e47be8961ded30ee24e588a04e51" target="_top" xlink:title="Finish the task and send it to the server. ">
<polygon fill="none" stroke="black" points="170,-164.5 170,-183.5 315,-183.5 315,-164.5 170,-164.5"/>
<text text-anchor="middle" x="242.5" y="-171.5" font-family="Helvetica,sans-Serif" font-size="10.00">plazza::Office::completeTask</text>
</a>
</g>
</g>
<!-- Node1&#45;&gt;Node6 -->
<g id="edge5" class="edge"><title>Node1&#45;&gt;Node6</title>
<path fill="none" stroke="midnightblue" d="M111.781,-145.589C134.986,-150.671 163.678,-156.955 188.173,-162.32"/>
<polygon fill="midnightblue" stroke="midnightblue" points="187.516,-165.759 198.033,-164.48 189.014,-158.921 187.516,-165.759"/>
</g>
<!-- Node7 -->
<g id="node7" class="node"><title>Node7</title>
<g id="a_node7"><a xlink:href="classplazza_1_1_office.html#a1f32b2702e30f57d8500edf91530f71c" target="_top" xlink:title="Get Office process pid. ">
<polygon fill="none" stroke="black" points="364.5,-143.5 364.5,-162.5 475.5,-162.5 475.5,-143.5 364.5,-143.5"/>
<text text-anchor="middle" x="420" y="-150.5" font-family="Helvetica,sans-Serif" font-size="10.00">plazza::Office::getPid</text>
</a>
</g>
</g>
<!-- Node1&#45;&gt;Node7 -->
<g id="edge15" class="edge"><title>Node1&#45;&gt;Node7</title>
<path fill="none" stroke="midnightblue" d="M134.02,-139.198C197.039,-142.25 291.413,-146.821 354.067,-149.855"/>
<polygon fill="midnightblue" stroke="midnightblue" points="354.068,-153.359 364.226,-150.347 354.407,-146.367 354.068,-153.359"/>
</g>
<!-- Node8 -->
<g id="node8" class="node"><title>Node8</title>
<g id="a_node8"><a xlink:href="classplazza_1_1_connector_pipe.html#a6a5aa2b09b3f85badda3ff5161e86f74" target="_top" xlink:title="plazza::ConnectorPipe\l::transfertData">
<polygon fill="none" stroke="black" points="362,-90 362,-120 478,-120 478,-90 362,-90"/>
<text text-anchor="start" x="370" y="-108" font-family="Helvetica,sans-Serif" font-size="10.00">plazza::ConnectorPipe</text>
<text text-anchor="middle" x="420" y="-97" font-family="Helvetica,sans-Serif" font-size="10.00">::transfertData</text>
</a>
</g>
</g>
<!-- Node1&#45;&gt;Node8 -->
<g id="edge16" class="edge"><title>Node1&#45;&gt;Node8</title>
<path fill="none" stroke="midnightblue" d="M134.02,-130.169C196.286,-124.67 289.164,-116.467 351.81,-110.934"/>
<polygon fill="midnightblue" stroke="midnightblue" points="352.327,-114.402 361.981,-110.036 351.711,-107.429 352.327,-114.402"/>
</g>
<!-- Node13 -->
<g id="node13" class="node"><title>Node13</title>
<g id="a_node13"><a xlink:href="classplazza_1_1_office.html#ad404ff085f53a1586f6d8132b6c0317f" target="_top" xlink:title="operator = ">
<polygon fill="none" stroke="black" points="180,-0.5 180,-19.5 305,-19.5 305,-0.5 180,-0.5"/>
<text text-anchor="middle" x="242.5" y="-7.5" font-family="Helvetica,sans-Serif" font-size="10.00">plazza::Office::operator=</text>
</a>
</g>
</g>
<!-- Node1&#45;&gt;Node13 -->
<g id="edge17" class="edge"><title>Node1&#45;&gt;Node13</title>
<path fill="none" stroke="midnightblue" d="M74.382,-126.318C88.7944,-105.242 126.052,-55.0179 170,-29 173.668,-26.8285 177.587,-24.9007 181.629,-23.1899"/>
<polygon fill="midnightblue" stroke="midnightblue" points="183.1,-26.3761 191.227,-19.5793 180.635,-19.8244 183.1,-26.3761"/>
</g>
<!-- Node5 -->
<g id="node5" class="node"><title>Node5</title>
<g id="a_node5"><a xlink:href="classplazza_1_1_cond_var.html#a5a2666ecbdb8b14acfe186c91097af75" target="_top" xlink:title="Notify one. ">
<polygon fill="none" stroke="black" points="351.5,-44.5 351.5,-63.5 488.5,-63.5 488.5,-44.5 351.5,-44.5"/>
<text text-anchor="middle" x="420" y="-51.5" font-family="Helvetica,sans-Serif" font-size="10.00">plazza::CondVar::notifyOne</text>
</a>
</g>
</g>
<!-- Node4&#45;&gt;Node5 -->
<g id="edge4" class="edge"><title>Node4&#45;&gt;Node5</title>
<path fill="none" stroke="midnightblue" d="M293.322,-54C308.26,-54 325.014,-54 341.3,-54"/>
<polygon fill="midnightblue" stroke="midnightblue" points="341.359,-57.5001 351.359,-54 341.359,-50.5001 341.359,-57.5001"/>
</g>
<!-- Node6&#45;&gt;Node2 -->
<g id="edge6" class="edge"><title>Node6&#45;&gt;Node2</title>
<path fill="none" stroke="midnightblue" d="M263.544,-183.591C285.012,-193.755 320.161,-210.091 351,-223 356.738,-225.402 362.784,-227.842 368.806,-230.215"/>
<polygon fill="midnightblue" stroke="midnightblue" points="367.615,-233.507 378.203,-233.877 370.156,-226.985 367.615,-233.507"/>
</g>
<!-- Node6&#45;&gt;Node3 -->
<g id="edge7" class="edge"><title>Node6&#45;&gt;Node3</title>
<path fill="none" stroke="midnightblue" d="M310.35,-183.523C320.303,-184.941 330.637,-186.413 340.798,-187.86"/>
<polygon fill="midnightblue" stroke="midnightblue" points="340.488,-191.351 350.881,-189.296 341.475,-184.421 340.488,-191.351"/>
</g>
<!-- Node6&#45;&gt;Node7 -->
<g id="edge8" class="edge"><title>Node6&#45;&gt;Node7</title>
<path fill="none" stroke="midnightblue" d="M315.136,-165.428C328.074,-163.88 341.496,-162.274 354.225,-160.751"/>
<polygon fill="midnightblue" stroke="midnightblue" points="354.748,-164.213 364.262,-159.55 353.917,-157.263 354.748,-164.213"/>
</g>
<!-- Node6&#45;&gt;Node8 -->
<g id="edge9" class="edge"><title>Node6&#45;&gt;Node8</title>
<path fill="none" stroke="midnightblue" d="M267.903,-164.406C294.477,-153.958 337.647,-136.985 371.053,-123.851"/>
<polygon fill="midnightblue" stroke="midnightblue" points="372.609,-127 380.635,-120.084 370.048,-120.485 372.609,-127"/>
</g>
<!-- Node9 -->
<g id="node9" class="node"><title>Node9</title>
<g id="a_node9"><a xlink:href="classplazza_1_1_connector_pipe.html#ac96ba32f2efbdaa1b0371ea98532b40b" target="_top" xlink:title="plazza::ConnectorPipe\l::getMode">
<polygon fill="none" stroke="black" points="525,-139 525,-169 641,-169 641,-139 525,-139"/>
<text text-anchor="start" x="533" y="-157" font-family="Helvetica,sans-Serif" font-size="10.00">plazza::ConnectorPipe</text>
<text text-anchor="middle" x="583" y="-146" font-family="Helvetica,sans-Serif" font-size="10.00">::getMode</text>
</a>
</g>
</g>
<!-- Node8&#45;&gt;Node9 -->
<g id="edge10" class="edge"><title>Node8&#45;&gt;Node9</title>
<path fill="none" stroke="midnightblue" d="M470.619,-120.101C487.07,-125.108 505.549,-130.732 522.657,-135.939"/>
<polygon fill="midnightblue" stroke="midnightblue" points="521.959,-139.385 532.545,-138.948 523.997,-132.688 521.959,-139.385"/>
</g>
<!-- Node10 -->
<g id="node10" class="node"><title>Node10</title>
<g id="a_node10"><a xlink:href="classplazza_1_1_connector_pipe.html#a7570f6cfb8520505247db4727d45bed1" target="_top" xlink:title="plazza::ConnectorPipe\l::receiveData">
<polygon fill="none" stroke="black" points="525,-41 525,-71 641,-71 641,-41 525,-41"/>
<text text-anchor="start" x="533" y="-59" font-family="Helvetica,sans-Serif" font-size="10.00">plazza::ConnectorPipe</text>
<text text-anchor="middle" x="583" y="-48" font-family="Helvetica,sans-Serif" font-size="10.00">::receiveData</text>
</a>
</g>
</g>
<!-- Node8&#45;&gt;Node10 -->
<g id="edge11" class="edge"><title>Node8&#45;&gt;Node10</title>
<path fill="none" stroke="midnightblue" d="M470.619,-89.8986C487.07,-84.8917 505.549,-79.2676 522.657,-74.061"/>
<polygon fill="midnightblue" stroke="midnightblue" points="523.997,-77.3116 532.545,-71.0516 521.959,-70.6149 523.997,-77.3116"/>
</g>
<!-- Node12 -->
<g id="node12" class="node"><title>Node12</title>
<g id="a_node12"><a xlink:href="classplazza_1_1_connector_pipe.html#ad8062cefc673b98824dff56b5534a056" target="_top" xlink:title="plazza::ConnectorPipe\l::sendData">
<polygon fill="none" stroke="black" points="525,-90 525,-120 641,-120 641,-90 525,-90"/>
<text text-anchor="start" x="533" y="-108" font-family="Helvetica,sans-Serif" font-size="10.00">plazza::ConnectorPipe</text>
<text text-anchor="middle" x="583" y="-97" font-family="Helvetica,sans-Serif" font-size="10.00">::sendData</text>
</a>
</g>
</g>
<!-- Node8&#45;&gt;Node12 -->
<g id="edge13" class="edge"><title>Node8&#45;&gt;Node12</title>
<path fill="none" stroke="midnightblue" d="M478.216,-105C490.079,-105 502.68,-105 514.86,-105"/>
<polygon fill="midnightblue" stroke="midnightblue" points="514.968,-108.5 524.968,-105 514.968,-101.5 514.968,-108.5"/>
</g>
<!-- Node11 -->
<g id="node11" class="node"><title>Node11</title>
<g id="a_node11"><a xlink:href="classplazza_1_1_connector_pipe.html#a81c0af2d4860745accb6ddf522180740" target="_top" xlink:title="plazza::ConnectorPipe\l::getFd">
<polygon fill="none" stroke="black" points="677,-65 677,-95 793,-95 793,-65 677,-65"/>
<text text-anchor="start" x="685" y="-83" font-family="Helvetica,sans-Serif" font-size="10.00">plazza::ConnectorPipe</text>
<text text-anchor="middle" x="735" y="-72" font-family="Helvetica,sans-Serif" font-size="10.00">::getFd</text>
</a>
</g>
</g>
<!-- Node10&#45;&gt;Node11 -->
<g id="edge12" class="edge"><title>Node10&#45;&gt;Node11</title>
<path fill="none" stroke="midnightblue" d="M641.136,-65.1418C649.468,-66.4748 658.111,-67.8577 666.622,-69.2195"/>
<polygon fill="midnightblue" stroke="midnightblue" points="666.098,-72.6801 676.525,-70.8041 667.204,-65.768 666.098,-72.6801"/>
</g>
<!-- Node12&#45;&gt;Node11 -->
<g id="edge14" class="edge"><title>Node12&#45;&gt;Node11</title>
<path fill="none" stroke="midnightblue" d="M641.136,-95.4773C649.468,-94.0887 658.111,-92.6482 666.622,-91.2297"/>
<polygon fill="midnightblue" stroke="midnightblue" points="667.237,-94.6755 676.525,-89.5791 666.086,-87.7708 667.237,-94.6755"/>
</g>
</g>
</svg>
