<?xml version="1.0" encoding="UTF-8" standalone="no"?>
<!DOCTYPE svg PUBLIC "-//W3C//DTD SVG 1.1//EN"
 "http://www.w3.org/Graphics/SVG/1.1/DTD/svg11.dtd">
<!-- Generated by graphviz version 2.38.0 (20140413.2041)
 -->
<!-- Title: plazza::ConnectorPipe::connect Pages: 1 -->
<svg width="936pt" height="152pt"
 viewBox="0.00 0.00 936.00 152.00" xmlns="http://www.w3.org/2000/svg" xmlns:xlink="http://www.w3.org/1999/xlink">
<g id="graph0" class="graph" transform="scale(1 1) rotate(0) translate(4 148)">
<title>plazza::ConnectorPipe::connect</title>
<!-- Node1 -->
<g id="node1" class="node"><title>Node1</title>
<polygon fill="#bfbfbf" stroke="black" points="0,-47.5 0,-77.5 116,-77.5 116,-47.5 0,-47.5"/>
<text text-anchor="start" x="8" y="-65.5" font-family="Helvetica,sans-Serif" font-size="10.00">plazza::ConnectorPipe</text>
<text text-anchor="middle" x="58" y="-54.5" font-family="Helvetica,sans-Serif" font-size="10.00">::connect</text>
</g>
<!-- Node2 -->
<g id="node2" class="node"><title>Node2</title>
<g id="a_node2"><a xlink:href="classplazza_1_1_connector_pipe.html#aa37f2c5398dcbc14b774e763855eff2c" target="_top" xlink:title="plazza::ConnectorPipe\l::setMode">
<polygon fill="none" stroke="black" points="152,-113.5 152,-143.5 268,-143.5 268,-113.5 152,-113.5"/>
<text text-anchor="start" x="160" y="-131.5" font-family="Helvetica,sans-Serif" font-size="10.00">plazza::ConnectorPipe</text>
<text text-anchor="middle" x="210" y="-120.5" font-family="Helvetica,sans-Serif" font-size="10.00">::setMode</text>
</a>
</g>
</g>
<!-- Node1&#45;&gt;Node2 -->
<g id="edge1" class="edge"><title>Node1&#45;&gt;Node2</title>
<path fill="none" stroke="midnightblue" d="M102.425,-81.6648C118.051,-88.5557 135.815,-96.3828 152,-103.5 159.32,-106.719 167.171,-110.166 174.634,-113.44"/>
<polygon fill="midnightblue" stroke="midnightblue" points="103.567,-78.3432 93.0051,-77.5099 100.742,-84.7479 103.567,-78.3432"/>
</g>
<!-- Node3 -->
<g id="node3" class="node"><title>Node3</title>
<g id="a_node3"><a xlink:href="classplazza_1_1_office.html#a611c1821b8f7dfc4d6e4a4211714e2c7" target="_top" xlink:title="init the Office ">
<polygon fill="none" stroke="black" points="162,-75 162,-94 258,-94 258,-75 162,-75"/>
<text text-anchor="middle" x="210" y="-82" font-family="Helvetica,sans-Serif" font-size="10.00">plazza::Office::init</text>
</a>
</g>
</g>
<!-- Node1&#45;&gt;Node3 -->
<g id="edge2" class="edge"><title>Node1&#45;&gt;Node3</title>
<path fill="none" stroke="midnightblue" d="M126.144,-72.3478C138.167,-74.1112 150.462,-75.9145 161.775,-77.5737"/>
<polygon fill="midnightblue" stroke="midnightblue" points="126.539,-68.8683 116.136,-70.88 125.523,-75.7942 126.539,-68.8683"/>
</g>
<!-- Node9 -->
<g id="node9" class="node"><title>Node9</title>
<g id="a_node9"><a xlink:href="classplazza_1_1_reception.html#a7c23a1b9bc8832a06c25f8075f91dcaf" target="_top" xlink:title="Class constructor. ">
<polygon fill="none" stroke="black" points="159.5,-25.5 159.5,-55.5 260.5,-55.5 260.5,-25.5 159.5,-25.5"/>
<text text-anchor="start" x="167.5" y="-43.5" font-family="Helvetica,sans-Serif" font-size="10.00">plazza::Reception::</text>
<text text-anchor="middle" x="210" y="-32.5" font-family="Helvetica,sans-Serif" font-size="10.00">Reception</text>
</a>
</g>
</g>
<!-- Node1&#45;&gt;Node9 -->
<g id="edge8" class="edge"><title>Node1&#45;&gt;Node9</title>
<path fill="none" stroke="midnightblue" d="M126.271,-52.6336C137.408,-51.0002 148.774,-49.3331 159.374,-47.7784"/>
<polygon fill="midnightblue" stroke="midnightblue" points="125.523,-49.2058 116.136,-54.12 126.539,-56.1317 125.523,-49.2058"/>
</g>
<!-- Node10 -->
<g id="node10" class="node"><title>Node10</title>
<g id="a_node10"><a xlink:href="classplazza_1_1_reception.html#a7389b5af68c57d0547f3ba41278c2002" target="_top" xlink:title="Send a task. ">
<polygon fill="none" stroke="black" points="316,-0.5 316,-30.5 417,-30.5 417,-0.5 316,-0.5"/>
<text text-anchor="start" x="324" y="-18.5" font-family="Helvetica,sans-Serif" font-size="10.00">plazza::Reception::</text>
<text text-anchor="middle" x="366.5" y="-7.5" font-family="Helvetica,sans-Serif" font-size="10.00">sendTask</text>
</a>
</g>
</g>
<!-- Node1&#45;&gt;Node10 -->
<g id="edge9" class="edge"><title>Node1&#45;&gt;Node10</title>
<path fill="none" stroke="midnightblue" d="M90.1362,-42.1275C107.558,-31.9496 130.121,-20.7145 152,-15.5 206.985,-2.39505 272.224,-4.90342 315.988,-9.07375"/>
<polygon fill="midnightblue" stroke="midnightblue" points="88.2841,-39.1572 81.5251,-47.3161 91.8968,-45.153 88.2841,-39.1572"/>
</g>
<!-- Node4 -->
<g id="node4" class="node"><title>Node4</title>
<g id="a_node4"><a xlink:href="classplazza_1_1_process_manager.html#aaf7eabb8ae524f2faa9b152aa178a30b" target="_top" xlink:title="create an Office ">
<polygon fill="none" stroke="black" points="304,-59.5 304,-89.5 429,-89.5 429,-59.5 304,-59.5"/>
<text text-anchor="start" x="312" y="-77.5" font-family="Helvetica,sans-Serif" font-size="10.00">plazza::ProcessManager</text>
<text text-anchor="middle" x="366.5" y="-66.5" font-family="Helvetica,sans-Serif" font-size="10.00">::spawn</text>
</a>
</g>
</g>
<!-- Node3&#45;&gt;Node4 -->
<g id="edge3" class="edge"><title>Node3&#45;&gt;Node4</title>
<path fill="none" stroke="midnightblue" d="M268.19,-80.7984C279.788,-80.0477 292.033,-79.2552 303.778,-78.4949"/>
<polygon fill="midnightblue" stroke="midnightblue" points="267.948,-77.3067 258.195,-81.4453 268.4,-84.292 267.948,-77.3067"/>
</g>
<!-- Node5 -->
<g id="node5" class="node"><title>Node5</title>
<g id="a_node5"><a xlink:href="classplazza_1_1_reception.html#a7e1b50160865f662607dcddcbd9434f9" target="_top" xlink:title="Create an office. ">
<polygon fill="none" stroke="black" points="465,-55.5 465,-85.5 566,-85.5 566,-55.5 465,-55.5"/>
<text text-anchor="start" x="473" y="-73.5" font-family="Helvetica,sans-Serif" font-size="10.00">plazza::Reception::</text>
<text text-anchor="middle" x="515.5" y="-62.5" font-family="Helvetica,sans-Serif" font-size="10.00">createOffice</text>
</a>
</g>
</g>
<!-- Node4&#45;&gt;Node5 -->
<g id="edge4" class="edge"><title>Node4&#45;&gt;Node5</title>
<path fill="none" stroke="midnightblue" d="M439.415,-72.5431C447.968,-72.3104 456.549,-72.0769 464.696,-71.8552"/>
<polygon fill="midnightblue" stroke="midnightblue" points="439.316,-69.0444 429.415,-72.8152 439.507,-76.0418 439.316,-69.0444"/>
</g>
<!-- Node6 -->
<g id="node6" class="node"><title>Node6</title>
<g id="a_node6"><a xlink:href="classplazza_1_1_reception.html#a7aa64f05388780e369663cd6800578ae" target="_top" xlink:title="Assign a task to the queue. ">
<polygon fill="none" stroke="black" points="602,-31.5 602,-61.5 703,-61.5 703,-31.5 602,-31.5"/>
<text text-anchor="start" x="610" y="-49.5" font-family="Helvetica,sans-Serif" font-size="10.00">plazza::Reception::</text>
<text text-anchor="middle" x="652.5" y="-38.5" font-family="Helvetica,sans-Serif" font-size="10.00">assignTask</text>
</a>
</g>
</g>
<!-- Node5&#45;&gt;Node6 -->
<g id="edge5" class="edge"><title>Node5&#45;&gt;Node6</title>
<path fill="none" stroke="midnightblue" d="M575.928,-59.935C584.481,-58.4146 593.208,-56.863 601.552,-55.3797"/>
<polygon fill="midnightblue" stroke="midnightblue" points="575.235,-56.5032 566.002,-61.6996 576.461,-63.3951 575.235,-56.5032"/>
</g>
<!-- Node7 -->
<g id="node7" class="node"><title>Node7</title>
<g id="a_node7"><a xlink:href="classplazza_1_1_reception.html#add69bb3defc0d810a8f4fe2cdceacbb1" target="_top" xlink:title="run the office ">
<polygon fill="none" stroke="black" points="739,-37 739,-56 854,-56 854,-37 739,-37"/>
<text text-anchor="middle" x="796.5" y="-44" font-family="Helvetica,sans-Serif" font-size="10.00">plazza::Reception::run</text>
</a>
</g>
</g>
<!-- Node6&#45;&gt;Node7 -->
<g id="edge6" class="edge"><title>Node6&#45;&gt;Node7</title>
<path fill="none" stroke="midnightblue" d="M713.326,-46.5C721.771,-46.5 730.433,-46.5 738.817,-46.5"/>
<polygon fill="midnightblue" stroke="midnightblue" points="713.165,-43.0001 703.165,-46.5 713.165,-50.0001 713.165,-43.0001"/>
</g>
<!-- Node8 -->
<g id="node8" class="node"><title>Node8</title>
<g id="a_node8"><a xlink:href="gui_2sources_2main_8cpp.html#adacbe0175a79dff748855d8c9839f82b" target="_top" xlink:title="main">
<polygon fill="none" stroke="black" points="890,-37 890,-56 928,-56 928,-37 890,-37"/>
<text text-anchor="middle" x="909" y="-44" font-family="Helvetica,sans-Serif" font-size="10.00">main</text>
</a>
</g>
</g>
<!-- Node7&#45;&gt;Node8 -->
<g id="edge7" class="edge"><title>Node7&#45;&gt;Node8</title>
<path fill="none" stroke="midnightblue" d="M864.296,-46.5C873.626,-46.5 882.496,-46.5 889.776,-46.5"/>
<polygon fill="midnightblue" stroke="midnightblue" points="864.045,-43.0001 854.045,-46.5 864.045,-50.0001 864.045,-43.0001"/>
</g>
<!-- Node10&#45;&gt;Node6 -->
<g id="edge10" class="edge"><title>Node10&#45;&gt;Node6</title>
<path fill="none" stroke="midnightblue" d="M427.343,-22.0321C479.138,-27.6858 553.164,-35.7661 601.763,-41.071"/>
<polygon fill="midnightblue" stroke="midnightblue" points="427.615,-18.5411 417.294,-20.9353 426.855,-25.4998 427.615,-18.5411"/>
</g>
</g>
</svg>
