<?xml version="1.0" encoding="UTF-8" standalone="no"?>
<!DOCTYPE svg PUBLIC "-//W3C//DTD SVG 1.1//EN"
 "http://www.w3.org/Graphics/SVG/1.1/DTD/svg11.dtd">
<!-- Generated by graphviz version 2.38.0 (20140413.2041)
 -->
<!-- Title: plazza::ProcessManager::spawn Pages: 1 -->
<svg width="1291pt" height="564pt"
 viewBox="0.00 0.00 1291.00 564.00" xmlns="http://www.w3.org/2000/svg" xmlns:xlink="http://www.w3.org/1999/xlink">
<g id="graph0" class="graph" transform="scale(1 1) rotate(0) translate(4 560)">
<title>plazza::ProcessManager::spawn</title>
<!-- Node1 -->
<g id="node1" class="node"><title>Node1</title>
<polygon fill="#bfbfbf" stroke="black" points="0,-329.5 0,-359.5 125,-359.5 125,-329.5 0,-329.5"/>
<text text-anchor="start" x="8" y="-347.5" font-family="Helvetica,sans-Serif" font-size="10.00">plazza::ProcessManager</text>
<text text-anchor="middle" x="62.5" y="-336.5" font-family="Helvetica,sans-Serif" font-size="10.00">::spawn</text>
</g>
<!-- Node2 -->
<g id="node2" class="node"><title>Node2</title>
<g id="a_node2"><a xlink:href="classplazza_1_1_office.html#a611c1821b8f7dfc4d6e4a4211714e2c7" target="_top" xlink:title="init the Office ">
<polygon fill="none" stroke="black" points="161.5,-378 161.5,-397 257.5,-397 257.5,-378 161.5,-378"/>
<text text-anchor="middle" x="209.5" y="-385" font-family="Helvetica,sans-Serif" font-size="10.00">plazza::Office::init</text>
</a>
</g>
</g>
<!-- Node1&#45;&gt;Node2 -->
<g id="edge1" class="edge"><title>Node1&#45;&gt;Node2</title>
<path fill="none" stroke="midnightblue" d="M114.214,-359.539C131.257,-364.593 150.071,-370.173 166.38,-375.009"/>
<polygon fill="midnightblue" stroke="midnightblue" points="165.591,-378.426 176.173,-377.914 167.581,-371.715 165.591,-378.426"/>
</g>
<!-- Node8 -->
<g id="node8" class="node"><title>Node8</title>
<g id="a_node8"><a xlink:href="classplazza_1_1_office.html#a16495312d113667c635e467b0b7ff35d" target="_top" xlink:title="Set process pid. ">
<polygon fill="none" stroke="black" points="311,-520 311,-539 422,-539 422,-520 311,-520"/>
<text text-anchor="middle" x="366.5" y="-527" font-family="Helvetica,sans-Serif" font-size="10.00">plazza::Office::setPid</text>
</a>
</g>
</g>
<!-- Node1&#45;&gt;Node8 -->
<g id="edge47" class="edge"><title>Node1&#45;&gt;Node8</title>
<path fill="none" stroke="midnightblue" d="M81.1854,-359.554C118.378,-390.578 208.344,-462.337 294,-505.5 302.415,-509.741 311.75,-513.494 320.822,-516.698"/>
<polygon fill="midnightblue" stroke="midnightblue" points="319.913,-520.085 330.507,-519.957 322.145,-513.451 319.913,-520.085"/>
</g>
<!-- Node9 -->
<g id="node9" class="node"><title>Node9</title>
<g id="a_node9"><a xlink:href="classplazza_1_1_office.html#a31faf030f19d5172ed774c81f693d0aa" target="_top" xlink:title="Set Office private key. ">
<polygon fill="none" stroke="black" points="294,-268 294,-287 439,-287 439,-268 294,-268"/>
<text text-anchor="middle" x="366.5" y="-275" font-family="Helvetica,sans-Serif" font-size="10.00">plazza::Office::setPrivateKey</text>
</a>
</g>
</g>
<!-- Node1&#45;&gt;Node9 -->
<g id="edge48" class="edge"><title>Node1&#45;&gt;Node9</title>
<path fill="none" stroke="midnightblue" d="M125.343,-330.78C180.349,-318.577 259.946,-300.918 312.196,-289.326"/>
<polygon fill="midnightblue" stroke="midnightblue" points="313.261,-292.675 322.266,-287.092 311.745,-285.841 313.261,-292.675"/>
</g>
<!-- Node14 -->
<g id="node14" class="node"><title>Node14</title>
<g id="a_node14"><a xlink:href="classplazza_1_1_office.html#a7c431da08f4460a011363f11f7066889" target="_top" xlink:title="Start the office. ">
<polygon fill="none" stroke="black" points="161,-211 161,-230 258,-230 258,-211 161,-211"/>
<text text-anchor="middle" x="209.5" y="-218" font-family="Helvetica,sans-Serif" font-size="10.00">plazza::Office::run</text>
</a>
</g>
</g>
<!-- Node1&#45;&gt;Node14 -->
<g id="edge13" class="edge"><title>Node1&#45;&gt;Node14</title>
<path fill="none" stroke="midnightblue" d="M81.2798,-329.295C108.693,-305.852 161.061,-261.068 189.306,-236.914"/>
<polygon fill="midnightblue" stroke="midnightblue" points="191.918,-239.286 197.243,-230.127 187.368,-233.966 191.918,-239.286"/>
</g>
<!-- Node3 -->
<g id="node3" class="node"><title>Node3</title>
<g id="a_node3"><a xlink:href="classplazza_1_1_connector_pipe.html#a988af6e52af009b779739b0fc571fc07" target="_top" xlink:title="plazza::ConnectorPipe\l::connect">
<polygon fill="none" stroke="black" points="1007.5,-476.5 1007.5,-506.5 1123.5,-506.5 1123.5,-476.5 1007.5,-476.5"/>
<text text-anchor="start" x="1015.5" y="-494.5" font-family="Helvetica,sans-Serif" font-size="10.00">plazza::ConnectorPipe</text>
<text text-anchor="middle" x="1065.5" y="-483.5" font-family="Helvetica,sans-Serif" font-size="10.00">::connect</text>
</a>
</g>
</g>
<!-- Node2&#45;&gt;Node3 -->
<g id="edge2" class="edge"><title>Node2&#45;&gt;Node3</title>
<path fill="none" stroke="midnightblue" d="M224.878,-397.291C234.428,-403.915 247.156,-412.978 258,-421.5 274.601,-434.547 274.841,-443.626 294,-452.5 394.846,-499.209 429.862,-491.5 541,-491.5 541,-491.5 541,-491.5 718.5,-491.5 815.203,-491.5 927.11,-491.5 996.856,-491.5"/>
<polygon fill="midnightblue" stroke="midnightblue" points="997.257,-495 1007.26,-491.5 997.257,-488 997.257,-495"/>
</g>
<!-- Node2&#45;&gt;Node8 -->
<g id="edge7" class="edge"><title>Node2&#45;&gt;Node8</title>
<path fill="none" stroke="midnightblue" d="M214.801,-397.331C225.132,-419.823 253.521,-475.399 294,-505.5 299.779,-509.797 306.375,-513.356 313.17,-516.295"/>
<polygon fill="midnightblue" stroke="midnightblue" points="311.914,-519.562 322.502,-519.93 314.454,-513.039 311.914,-519.562"/>
</g>
<!-- Node2&#45;&gt;Node9 -->
<g id="edge8" class="edge"><title>Node2&#45;&gt;Node9</title>
<path fill="none" stroke="midnightblue" d="M216.558,-377.861C228.808,-359.188 258.409,-318.03 294,-296.5 297.585,-294.331 301.418,-292.406 305.377,-290.699"/>
<polygon fill="midnightblue" stroke="midnightblue" points="306.699,-293.941 314.786,-287.096 304.196,-287.403 306.699,-293.941"/>
</g>
<!-- Node10 -->
<g id="node10" class="node"><title>Node10</title>
<g id="a_node10"><a xlink:href="classplazza_1_1_office.html#a1f32b2702e30f57d8500edf91530f71c" target="_top" xlink:title="Get Office process pid. ">
<polygon fill="none" stroke="black" points="839.5,-292 839.5,-311 950.5,-311 950.5,-292 839.5,-292"/>
<text text-anchor="middle" x="895" y="-299" font-family="Helvetica,sans-Serif" font-size="10.00">plazza::Office::getPid</text>
</a>
</g>
</g>
<!-- Node2&#45;&gt;Node10 -->
<g id="edge9" class="edge"><title>Node2&#45;&gt;Node10</title>
<path fill="none" stroke="midnightblue" d="M222.938,-397.014C238.542,-408.294 266.59,-426.45 294,-433.5 356.413,-449.554 375.205,-442.623 439,-433.5 461.172,-430.329 804.464,-326.653 826,-320.5 833.624,-318.322 841.737,-316.031 849.605,-313.824"/>
<polygon fill="midnightblue" stroke="midnightblue" points="850.698,-317.153 859.385,-311.088 848.811,-310.412 850.698,-317.153"/>
</g>
<!-- Node11 -->
<g id="node11" class="node"><title>Node11</title>
<g id="a_node11"><a xlink:href="classplazza_1_1_connector_pipe.html#a62120c8eaf05eb207346618977ad311e" target="_top" xlink:title="plazza::ConnectorPipe\l::create">
<polygon fill="none" stroke="black" points="308.5,-394.5 308.5,-424.5 424.5,-424.5 424.5,-394.5 308.5,-394.5"/>
<text text-anchor="start" x="316.5" y="-412.5" font-family="Helvetica,sans-Serif" font-size="10.00">plazza::ConnectorPipe</text>
<text text-anchor="middle" x="366.5" y="-401.5" font-family="Helvetica,sans-Serif" font-size="10.00">::create</text>
</a>
</g>
</g>
<!-- Node2&#45;&gt;Node11 -->
<g id="edge10" class="edge"><title>Node2&#45;&gt;Node11</title>
<path fill="none" stroke="midnightblue" d="M257.847,-394.22C270.546,-396.023 284.525,-398.007 298.085,-399.931"/>
<polygon fill="midnightblue" stroke="midnightblue" points="297.952,-403.448 308.344,-401.388 298.936,-396.517 297.952,-403.448"/>
</g>
<!-- Node12 -->
<g id="node12" class="node"><title>Node12</title>
<g id="a_node12"><a xlink:href="classplazza_1_1_office.html#a68a916edaa033b082542493f27fa8b79" target="_top" xlink:title="get Office private key ">
<polygon fill="none" stroke="black" points="294,-356 294,-375 439,-375 439,-356 294,-356"/>
<text text-anchor="middle" x="366.5" y="-363" font-family="Helvetica,sans-Serif" font-size="10.00">plazza::Office::getPrivateKey</text>
</a>
</g>
</g>
<!-- Node2&#45;&gt;Node12 -->
<g id="edge11" class="edge"><title>Node2&#45;&gt;Node12</title>
<path fill="none" stroke="midnightblue" d="M257.847,-380.78C267.563,-379.401 278.027,-377.916 288.479,-376.432"/>
<polygon fill="midnightblue" stroke="midnightblue" points="289.064,-379.884 298.473,-375.014 288.08,-372.954 289.064,-379.884"/>
</g>
<!-- Node13 -->
<g id="node13" class="node"><title>Node13</title>
<g id="a_node13"><a xlink:href="classplazza_1_1_thread_pool.html#a50d6a17e2c28ee6ff818b44ee9d19b83" target="_top" xlink:title="Add the number of workers to the pool. ">
<polygon fill="none" stroke="black" points="316,-306.5 316,-336.5 417,-336.5 417,-306.5 316,-306.5"/>
<text text-anchor="start" x="324" y="-324.5" font-family="Helvetica,sans-Serif" font-size="10.00">plazza::ThreadPool</text>
<text text-anchor="middle" x="366.5" y="-313.5" font-family="Helvetica,sans-Serif" font-size="10.00">::createWorkers</text>
</a>
</g>
</g>
<!-- Node2&#45;&gt;Node13 -->
<g id="edge12" class="edge"><title>Node2&#45;&gt;Node13</title>
<path fill="none" stroke="midnightblue" d="M228.453,-377.903C245.169,-369.157 270.909,-356.165 294,-346.5 299.155,-344.342 304.57,-342.212 310.015,-340.159"/>
<polygon fill="midnightblue" stroke="midnightblue" points="311.623,-343.297 319.8,-336.559 309.207,-336.727 311.623,-343.297"/>
</g>
<!-- Node4 -->
<g id="node4" class="node"><title>Node4</title>
<g id="a_node4"><a xlink:href="classplazza_1_1_connector_pipe.html#a4609ad27d1a9847c051fc3be7638e656" target="_top" xlink:title="plazza::ConnectorPipe\l::setFd">
<polygon fill="none" stroke="black" points="1167,-427.5 1167,-457.5 1283,-457.5 1283,-427.5 1167,-427.5"/>
<text text-anchor="start" x="1175" y="-445.5" font-family="Helvetica,sans-Serif" font-size="10.00">plazza::ConnectorPipe</text>
<text text-anchor="middle" x="1225" y="-434.5" font-family="Helvetica,sans-Serif" font-size="10.00">::setFd</text>
</a>
</g>
</g>
<!-- Node3&#45;&gt;Node4 -->
<g id="edge3" class="edge"><title>Node3&#45;&gt;Node4</title>
<path fill="none" stroke="midnightblue" d="M1115.04,-476.399C1131.13,-471.392 1149.21,-465.768 1165.95,-460.561"/>
<polygon fill="midnightblue" stroke="midnightblue" points="1167.11,-463.864 1175.62,-457.552 1165.03,-457.18 1167.11,-463.864"/>
</g>
<!-- Node5 -->
<g id="node5" class="node"><title>Node5</title>
<g id="a_node5"><a xlink:href="classplazza_1_1_connector_pipe.html#a81c0af2d4860745accb6ddf522180740" target="_top" xlink:title="plazza::ConnectorPipe\l::getFd">
<polygon fill="none" stroke="black" points="1167,-334.5 1167,-364.5 1283,-364.5 1283,-334.5 1167,-334.5"/>
<text text-anchor="start" x="1175" y="-352.5" font-family="Helvetica,sans-Serif" font-size="10.00">plazza::ConnectorPipe</text>
<text text-anchor="middle" x="1225" y="-341.5" font-family="Helvetica,sans-Serif" font-size="10.00">::getFd</text>
</a>
</g>
</g>
<!-- Node3&#45;&gt;Node5 -->
<g id="edge4" class="edge"><title>Node3&#45;&gt;Node5</title>
<path fill="none" stroke="midnightblue" d="M1114.65,-476.408C1120.44,-473.582 1126.04,-470.297 1131,-466.5 1152.46,-450.071 1150.31,-438.755 1167,-417.5 1179.05,-402.149 1193.14,-385.336 1204.29,-372.269"/>
<polygon fill="midnightblue" stroke="midnightblue" points="1206.96,-374.533 1210.81,-364.663 1201.65,-369.977 1206.96,-374.533"/>
</g>
<!-- Node6 -->
<g id="node6" class="node"><title>Node6</title>
<g id="a_node6"><a xlink:href="classplazza_1_1_connector_pipe.html#ae8ec632624616ac694227bc109f1f630" target="_top" xlink:title="plazza::ConnectorPipe\l::setName">
<polygon fill="none" stroke="black" points="1167,-525.5 1167,-555.5 1283,-555.5 1283,-525.5 1167,-525.5"/>
<text text-anchor="start" x="1175" y="-543.5" font-family="Helvetica,sans-Serif" font-size="10.00">plazza::ConnectorPipe</text>
<text text-anchor="middle" x="1225" y="-532.5" font-family="Helvetica,sans-Serif" font-size="10.00">::setName</text>
</a>
</g>
</g>
<!-- Node3&#45;&gt;Node6 -->
<g id="edge5" class="edge"><title>Node3&#45;&gt;Node6</title>
<path fill="none" stroke="midnightblue" d="M1115.04,-506.601C1131.13,-511.608 1149.21,-517.232 1165.95,-522.439"/>
<polygon fill="midnightblue" stroke="midnightblue" points="1165.03,-525.82 1175.62,-525.448 1167.11,-519.136 1165.03,-525.82"/>
</g>
<!-- Node7 -->
<g id="node7" class="node"><title>Node7</title>
<g id="a_node7"><a xlink:href="classplazza_1_1_connector_pipe.html#acd75d9a8aed8dbcc567353f1340c14e2" target="_top" xlink:title="plazza::ConnectorPipe\l::setMode">
<polygon fill="none" stroke="black" points="1167,-476.5 1167,-506.5 1283,-506.5 1283,-476.5 1167,-476.5"/>
<text text-anchor="start" x="1175" y="-494.5" font-family="Helvetica,sans-Serif" font-size="10.00">plazza::ConnectorPipe</text>
<text text-anchor="middle" x="1225" y="-483.5" font-family="Helvetica,sans-Serif" font-size="10.00">::setMode</text>
</a>
</g>
</g>
<!-- Node3&#45;&gt;Node7 -->
<g id="edge6" class="edge"><title>Node3&#45;&gt;Node7</title>
<path fill="none" stroke="midnightblue" d="M1123.81,-491.5C1134.58,-491.5 1145.94,-491.5 1156.98,-491.5"/>
<polygon fill="midnightblue" stroke="midnightblue" points="1157,-495 1167,-491.5 1157,-488 1157,-495"/>
</g>
<!-- Node15 -->
<g id="node15" class="node"><title>Node15</title>
<g id="a_node15"><a xlink:href="classplazza_1_1_office.html#a7d91676d533d57dde86fbfe94e4e1a92" target="_top" xlink:title="Check if the office is active. ">
<polygon fill="none" stroke="black" points="307,-192 307,-211 426,-211 426,-192 307,-192"/>
<text text-anchor="middle" x="366.5" y="-199" font-family="Helvetica,sans-Serif" font-size="10.00">plazza::Office::isActive</text>
</a>
</g>
</g>
<!-- Node14&#45;&gt;Node15 -->
<g id="edge14" class="edge"><title>Node14&#45;&gt;Node15</title>
<path fill="none" stroke="midnightblue" d="M258.27,-214.644C270.412,-213.156 283.702,-211.527 296.665,-209.938"/>
<polygon fill="midnightblue" stroke="midnightblue" points="297.463,-213.366 306.962,-208.676 296.611,-206.418 297.463,-213.366"/>
</g>
<!-- Node19 -->
<g id="node19" class="node"><title>Node19</title>
<g id="a_node19"><a xlink:href="classplazza_1_1_office.html#a9b483976ff17c8c541d34f8ce7098c38" target="_top" xlink:title="Get task for the private pipe. ">
<polygon fill="none" stroke="black" points="307,-148 307,-167 426,-167 426,-148 307,-148"/>
<text text-anchor="middle" x="366.5" y="-155" font-family="Helvetica,sans-Serif" font-size="10.00">plazza::Office::getTask</text>
</a>
</g>
</g>
<!-- Node14&#45;&gt;Node19 -->
<g id="edge18" class="edge"><title>Node14&#45;&gt;Node19</title>
<path fill="none" stroke="midnightblue" d="M230.189,-210.928C246.972,-202.916 271.829,-191.4 294,-182.5 304.558,-178.262 316.146,-174.033 326.862,-170.291"/>
<polygon fill="midnightblue" stroke="midnightblue" points="328.088,-173.571 336.403,-167.006 325.809,-166.952 328.088,-173.571"/>
</g>
<!-- Node30 -->
<g id="node30" class="node"><title>Node30</title>
<g id="a_node30"><a xlink:href="classplazza_1_1_office.html#a04316c75e42181f331b214729c8e7909" target="_top" xlink:title="Close the office. ">
<polygon fill="none" stroke="black" points="664,-385 664,-404 771,-404 771,-385 664,-385"/>
<text text-anchor="middle" x="717.5" y="-392" font-family="Helvetica,sans-Serif" font-size="10.00">plazza::Office::close</text>
</a>
</g>
</g>
<!-- Node14&#45;&gt;Node30 -->
<g id="edge35" class="edge"><title>Node14&#45;&gt;Node30</title>
<path fill="none" stroke="midnightblue" d="M258.274,-224.37C305.173,-229.111 378.302,-239.041 439,-258.5 451.996,-262.666 619.67,-346.141 687.906,-380.208"/>
<polygon fill="midnightblue" stroke="midnightblue" points="686.712,-383.524 697.222,-384.861 689.84,-377.262 686.712,-383.524"/>
</g>
<!-- Node16 -->
<g id="node16" class="node"><title>Node16</title>
<g id="a_node16"><a xlink:href="classplazza_1_1_thread_pool.html#a14887a37ed86db5df1c89237752149ff" target="_top" xlink:title="Get the number of free workers. ">
<polygon fill="none" stroke="black" points="489.5,-235.5 489.5,-265.5 594.5,-265.5 594.5,-235.5 489.5,-235.5"/>
<text text-anchor="start" x="497.5" y="-253.5" font-family="Helvetica,sans-Serif" font-size="10.00">plazza::ThreadPool</text>
<text text-anchor="middle" x="542" y="-242.5" font-family="Helvetica,sans-Serif" font-size="10.00">::getNbFreeWorkers</text>
</a>
</g>
</g>
<!-- Node15&#45;&gt;Node16 -->
<g id="edge15" class="edge"><title>Node15&#45;&gt;Node16</title>
<path fill="none" stroke="midnightblue" d="M401.364,-211.064C423.575,-217.337 453.266,-225.722 479.558,-233.147"/>
<polygon fill="midnightblue" stroke="midnightblue" points="478.87,-236.59 489.445,-235.94 480.773,-229.854 478.87,-236.59"/>
</g>
<!-- Node18 -->
<g id="node18" class="node"><title>Node18</title>
<g id="a_node18"><a xlink:href="classplazza_1_1_thread_pool.html#aa0600df9d22b7c083dc2cf35633fbb3d" target="_top" xlink:title="Get the Queue task length. ">
<polygon fill="none" stroke="black" points="491.5,-186.5 491.5,-216.5 592.5,-216.5 592.5,-186.5 491.5,-186.5"/>
<text text-anchor="start" x="499.5" y="-204.5" font-family="Helvetica,sans-Serif" font-size="10.00">plazza::ThreadPool</text>
<text text-anchor="middle" x="542" y="-193.5" font-family="Helvetica,sans-Serif" font-size="10.00">::getQueueLength</text>
</a>
</g>
</g>
<!-- Node15&#45;&gt;Node18 -->
<g id="edge17" class="edge"><title>Node15&#45;&gt;Node18</title>
<path fill="none" stroke="midnightblue" d="M426.239,-201.5C443.908,-201.5 463.313,-201.5 481.058,-201.5"/>
<polygon fill="midnightblue" stroke="midnightblue" points="481.289,-205 491.289,-201.5 481.289,-198 481.289,-205"/>
</g>
<!-- Node17 -->
<g id="node17" class="node"><title>Node17</title>
<g id="a_node17"><a xlink:href="classplazza_1_1_worker.html#a7e0633e722049076c4c41777ccdf4a13" target="_top" xlink:title="Change worker working state. ">
<polygon fill="none" stroke="black" points="655,-241 655,-260 780,-260 780,-241 655,-241"/>
<text text-anchor="middle" x="717.5" y="-248" font-family="Helvetica,sans-Serif" font-size="10.00">plazza::Worker::setBusy</text>
</a>
</g>
</g>
<!-- Node16&#45;&gt;Node17 -->
<g id="edge16" class="edge"><title>Node16&#45;&gt;Node17</title>
<path fill="none" stroke="midnightblue" d="M594.586,-250.5C610.22,-250.5 627.689,-250.5 644.409,-250.5"/>
<polygon fill="midnightblue" stroke="midnightblue" points="644.7,-254 654.7,-250.5 644.7,-247 644.7,-254"/>
</g>
<!-- Node20 -->
<g id="node20" class="node"><title>Node20</title>
<g id="a_node20"><a xlink:href="classplazza_1_1_connector_pipe.html#a6a5aa2b09b3f85badda3ff5161e86f74" target="_top" xlink:title="plazza::ConnectorPipe\l::transfertData">
<polygon fill="none" stroke="black" points="837,-167.5 837,-197.5 953,-197.5 953,-167.5 837,-167.5"/>
<text text-anchor="start" x="845" y="-185.5" font-family="Helvetica,sans-Serif" font-size="10.00">plazza::ConnectorPipe</text>
<text text-anchor="middle" x="895" y="-174.5" font-family="Helvetica,sans-Serif" font-size="10.00">::transfertData</text>
</a>
</g>
</g>
<!-- Node19&#45;&gt;Node20 -->
<g id="edge19" class="edge"><title>Node19&#45;&gt;Node20</title>
<path fill="none" stroke="midnightblue" d="M426.11,-160.283C524.552,-164.957 722.519,-174.357 826.574,-179.298"/>
<polygon fill="midnightblue" stroke="midnightblue" points="826.495,-182.798 836.649,-179.777 826.827,-175.806 826.495,-182.798"/>
</g>
<!-- Node24 -->
<g id="node24" class="node"><title>Node24</title>
<g id="a_node24"><a xlink:href="classplazza_1_1_office.html#af53d889fe196fec1a3dcd1d738977048" target="_top" xlink:title="plazza::Office::assignTask">
<polygon fill="none" stroke="black" points="475,-88 475,-107 609,-107 609,-88 475,-88"/>
<text text-anchor="middle" x="542" y="-95" font-family="Helvetica,sans-Serif" font-size="10.00">plazza::Office::assignTask</text>
</a>
</g>
</g>
<!-- Node19&#45;&gt;Node24 -->
<g id="edge25" class="edge"><title>Node19&#45;&gt;Node24</title>
<path fill="none" stroke="midnightblue" d="M394.992,-147.993C424.347,-137.841 471.043,-121.693 503.701,-110.399"/>
<polygon fill="midnightblue" stroke="midnightblue" points="505.043,-113.638 513.35,-107.062 502.756,-107.022 505.043,-113.638"/>
</g>
<!-- Node21 -->
<g id="node21" class="node"><title>Node21</title>
<g id="a_node21"><a xlink:href="classplazza_1_1_connector_pipe.html#ac96ba32f2efbdaa1b0371ea98532b40b" target="_top" xlink:title="plazza::ConnectorPipe\l::getMode">
<polygon fill="none" stroke="black" points="1007.5,-203.5 1007.5,-233.5 1123.5,-233.5 1123.5,-203.5 1007.5,-203.5"/>
<text text-anchor="start" x="1015.5" y="-221.5" font-family="Helvetica,sans-Serif" font-size="10.00">plazza::ConnectorPipe</text>
<text text-anchor="middle" x="1065.5" y="-210.5" font-family="Helvetica,sans-Serif" font-size="10.00">::getMode</text>
</a>
</g>
</g>
<!-- Node20&#45;&gt;Node21 -->
<g id="edge20" class="edge"><title>Node20&#45;&gt;Node21</title>
<path fill="none" stroke="midnightblue" d="M953.046,-194.688C967.242,-197.721 982.593,-201 997.229,-204.128"/>
<polygon fill="midnightblue" stroke="midnightblue" points="996.715,-207.597 1007.23,-206.263 998.178,-200.751 996.715,-207.597"/>
</g>
<!-- Node22 -->
<g id="node22" class="node"><title>Node22</title>
<g id="a_node22"><a xlink:href="classplazza_1_1_connector_pipe.html#a7570f6cfb8520505247db4727d45bed1" target="_top" xlink:title="plazza::ConnectorPipe\l::receiveData">
<polygon fill="none" stroke="black" points="1007.5,-154.5 1007.5,-184.5 1123.5,-184.5 1123.5,-154.5 1007.5,-154.5"/>
<text text-anchor="start" x="1015.5" y="-172.5" font-family="Helvetica,sans-Serif" font-size="10.00">plazza::ConnectorPipe</text>
<text text-anchor="middle" x="1065.5" y="-161.5" font-family="Helvetica,sans-Serif" font-size="10.00">::receiveData</text>
</a>
</g>
</g>
<!-- Node20&#45;&gt;Node22 -->
<g id="edge21" class="edge"><title>Node20&#45;&gt;Node22</title>
<path fill="none" stroke="midnightblue" d="M953.046,-178.099C967.242,-177.004 982.593,-175.819 997.229,-174.69"/>
<polygon fill="midnightblue" stroke="midnightblue" points="997.525,-178.178 1007.23,-173.919 996.986,-171.198 997.525,-178.178"/>
</g>
<!-- Node23 -->
<g id="node23" class="node"><title>Node23</title>
<g id="a_node23"><a xlink:href="classplazza_1_1_connector_pipe.html#ad8062cefc673b98824dff56b5534a056" target="_top" xlink:title="plazza::ConnectorPipe\l::sendData">
<polygon fill="none" stroke="black" points="1007.5,-252.5 1007.5,-282.5 1123.5,-282.5 1123.5,-252.5 1007.5,-252.5"/>
<text text-anchor="start" x="1015.5" y="-270.5" font-family="Helvetica,sans-Serif" font-size="10.00">plazza::ConnectorPipe</text>
<text text-anchor="middle" x="1065.5" y="-259.5" font-family="Helvetica,sans-Serif" font-size="10.00">::sendData</text>
</a>
</g>
</g>
<!-- Node20&#45;&gt;Node23 -->
<g id="edge23" class="edge"><title>Node20&#45;&gt;Node23</title>
<path fill="none" stroke="midnightblue" d="M919.807,-197.641C940.528,-210.475 971.61,-228.908 1000,-242.5 1004.31,-244.563 1008.84,-246.589 1013.41,-248.539"/>
<polygon fill="midnightblue" stroke="midnightblue" points="1012.23,-251.838 1022.81,-252.423 1014.9,-245.369 1012.23,-251.838"/>
</g>
<!-- Node22&#45;&gt;Node5 -->
<g id="edge22" class="edge"><title>Node22&#45;&gt;Node5</title>
<path fill="none" stroke="midnightblue" d="M1117.3,-184.521C1122.2,-187.085 1126.87,-190.058 1131,-193.5 1174.03,-229.354 1202.12,-290.556 1215.29,-324.669"/>
<polygon fill="midnightblue" stroke="midnightblue" points="1212.12,-326.185 1218.89,-334.329 1218.67,-323.736 1212.12,-326.185"/>
</g>
<!-- Node23&#45;&gt;Node5 -->
<g id="edge24" class="edge"><title>Node23&#45;&gt;Node5</title>
<path fill="none" stroke="midnightblue" d="M1108.61,-282.559C1116.17,-285.617 1123.9,-288.982 1131,-292.5 1152.39,-303.092 1175.26,-317.069 1192.97,-328.532"/>
<polygon fill="midnightblue" stroke="midnightblue" points="1191.44,-331.715 1201.72,-334.266 1195.27,-325.859 1191.44,-331.715"/>
</g>
<!-- Node25 -->
<g id="node25" class="node"><title>Node25</title>
<g id="a_node25"><a xlink:href="classplazza_1_1_office.html#ae5955f678a2422dee68f43b102502e57" target="_top" xlink:title="set number of available tasks ">
<polygon fill="none" stroke="black" points="826,-110.5 826,-140.5 964,-140.5 964,-110.5 826,-110.5"/>
<text text-anchor="start" x="834" y="-128.5" font-family="Helvetica,sans-Serif" font-size="10.00">plazza::Office::setFreeTask</text>
<text text-anchor="middle" x="895" y="-117.5" font-family="Helvetica,sans-Serif" font-size="10.00">Spots</text>
</a>
</g>
</g>
<!-- Node24&#45;&gt;Node25 -->
<g id="edge26" class="edge"><title>Node24&#45;&gt;Node25</title>
<path fill="none" stroke="midnightblue" d="M609.061,-102.409C658.815,-106.149 728.702,-111.49 790,-116.5 798.309,-117.179 806.99,-117.905 815.64,-118.638"/>
<polygon fill="midnightblue" stroke="midnightblue" points="815.497,-122.139 825.758,-119.501 816.091,-115.164 815.497,-122.139"/>
</g>
<!-- Node26 -->
<g id="node26" class="node"><title>Node26</title>
<g id="a_node26"><a xlink:href="classplazza_1_1_office.html#a0ca9b3768cf184e6d95edee417ca0231" target="_top" xlink:title="Get number of available tasks. ">
<polygon fill="none" stroke="black" points="826,-52.5 826,-82.5 964,-82.5 964,-52.5 826,-52.5"/>
<text text-anchor="start" x="834" y="-70.5" font-family="Helvetica,sans-Serif" font-size="10.00">plazza::Office::getFreeTask</text>
<text text-anchor="middle" x="895" y="-59.5" font-family="Helvetica,sans-Serif" font-size="10.00">Spots</text>
</a>
</g>
</g>
<!-- Node24&#45;&gt;Node26 -->
<g id="edge27" class="edge"><title>Node24&#45;&gt;Node26</title>
<path fill="none" stroke="midnightblue" d="M609.02,-91.8572C667.712,-86.8409 753.602,-79.4998 815.734,-74.1894"/>
<polygon fill="midnightblue" stroke="midnightblue" points="816.216,-77.6611 825.881,-73.3221 815.62,-70.6865 816.216,-77.6611"/>
</g>
<!-- Node27 -->
<g id="node27" class="node"><title>Node27</title>
<g id="a_node27"><a xlink:href="classplazza_1_1_thread_pool.html#a353ba248e5dffc93f2912c9148da05fb" target="_top" xlink:title="Add a job to the queue. ">
<polygon fill="none" stroke="black" points="667,-0.5 667,-30.5 768,-30.5 768,-0.5 667,-0.5"/>
<text text-anchor="start" x="675" y="-18.5" font-family="Helvetica,sans-Serif" font-size="10.00">plazza::ThreadPool</text>
<text text-anchor="middle" x="717.5" y="-7.5" font-family="Helvetica,sans-Serif" font-size="10.00">::addJob</text>
</a>
</g>
</g>
<!-- Node24&#45;&gt;Node27 -->
<g id="edge28" class="edge"><title>Node24&#45;&gt;Node27</title>
<path fill="none" stroke="midnightblue" d="M560.858,-87.8866C581.066,-77.1278 615.069,-59.3856 645,-45.5 652.985,-41.7956 661.556,-38.0262 669.892,-34.4668"/>
<polygon fill="midnightblue" stroke="midnightblue" points="671.311,-37.6671 679.161,-30.552 668.587,-31.2187 671.311,-37.6671"/>
</g>
<!-- Node29 -->
<g id="node29" class="node"><title>Node29</title>
<g id="a_node29"><a xlink:href="classplazza_1_1_office.html#a40e5e47be8961ded30ee24e588a04e51" target="_top" xlink:title="Finish the task and send it to the server. ">
<polygon fill="none" stroke="black" points="645,-126 645,-145 790,-145 790,-126 645,-126"/>
<text text-anchor="middle" x="717.5" y="-133" font-family="Helvetica,sans-Serif" font-size="10.00">plazza::Office::completeTask</text>
</a>
</g>
</g>
<!-- Node24&#45;&gt;Node29 -->
<g id="edge30" class="edge"><title>Node24&#45;&gt;Node29</title>
<path fill="none" stroke="midnightblue" d="M586.781,-107.089C609.986,-112.171 638.678,-118.455 663.173,-123.82"/>
<polygon fill="midnightblue" stroke="midnightblue" points="662.516,-127.259 673.033,-125.98 664.014,-120.421 662.516,-127.259"/>
</g>
<!-- Node28 -->
<g id="node28" class="node"><title>Node28</title>
<g id="a_node28"><a xlink:href="classplazza_1_1_cond_var.html#a5a2666ecbdb8b14acfe186c91097af75" target="_top" xlink:title="Notify one. ">
<polygon fill="none" stroke="black" points="826.5,-6 826.5,-25 963.5,-25 963.5,-6 826.5,-6"/>
<text text-anchor="middle" x="895" y="-13" font-family="Helvetica,sans-Serif" font-size="10.00">plazza::CondVar::notifyOne</text>
</a>
</g>
</g>
<!-- Node27&#45;&gt;Node28 -->
<g id="edge29" class="edge"><title>Node27&#45;&gt;Node28</title>
<path fill="none" stroke="midnightblue" d="M768.322,-15.5C783.26,-15.5 800.014,-15.5 816.3,-15.5"/>
<polygon fill="midnightblue" stroke="midnightblue" points="816.359,-19.0001 826.359,-15.5 816.359,-12.0001 816.359,-19.0001"/>
</g>
<!-- Node29&#45;&gt;Node10 -->
<g id="edge33" class="edge"><title>Node29&#45;&gt;Node10</title>
<path fill="none" stroke="midnightblue" d="M728.694,-145.142C757.531,-172.419 839.949,-250.375 876.351,-284.806"/>
<polygon fill="midnightblue" stroke="midnightblue" points="874.108,-287.502 883.778,-291.831 878.918,-282.417 874.108,-287.502"/>
</g>
<!-- Node29&#45;&gt;Node20 -->
<g id="edge34" class="edge"><title>Node29&#45;&gt;Node20</title>
<path fill="none" stroke="midnightblue" d="M754.015,-145.011C775.236,-150.694 802.866,-158.094 827.966,-164.816"/>
<polygon fill="midnightblue" stroke="midnightblue" points="827.242,-168.245 837.807,-167.451 829.053,-161.483 827.242,-168.245"/>
</g>
<!-- Node29&#45;&gt;Node25 -->
<g id="edge31" class="edge"><title>Node29&#45;&gt;Node25</title>
<path fill="none" stroke="midnightblue" d="M790.136,-131.418C798.651,-130.933 807.376,-130.436 815.975,-129.946"/>
<polygon fill="midnightblue" stroke="midnightblue" points="816.207,-133.438 825.992,-129.375 815.809,-126.45 816.207,-133.438"/>
</g>
<!-- Node29&#45;&gt;Node26 -->
<g id="edge32" class="edge"><title>Node29&#45;&gt;Node26</title>
<path fill="none" stroke="midnightblue" d="M743.273,-125.901C769.76,-115.639 812.427,-99.1068 845.616,-86.2471"/>
<polygon fill="midnightblue" stroke="midnightblue" points="847.083,-89.4324 855.143,-82.5558 844.554,-82.9052 847.083,-89.4324"/>
</g>
<!-- Node30&#45;&gt;Node10 -->
<g id="edge36" class="edge"><title>Node30&#45;&gt;Node10</title>
<path fill="none" stroke="midnightblue" d="M761.461,-384.881C771.425,-381.391 781.569,-376.716 790,-370.5 812.04,-354.25 803.55,-336.178 826,-320.5 828.85,-318.51 831.903,-316.727 835.079,-315.131"/>
<polygon fill="midnightblue" stroke="midnightblue" points="836.527,-318.318 844.29,-311.107 833.725,-311.903 836.527,-318.318"/>
</g>
<!-- Node30&#45;&gt;Node20 -->
<g id="edge37" class="edge"><title>Node30&#45;&gt;Node20</title>
<path fill="none" stroke="midnightblue" d="M726.497,-384.84C752.758,-353.117 836.845,-251.542 874.932,-205.534"/>
<polygon fill="midnightblue" stroke="midnightblue" points="877.803,-207.554 881.484,-197.619 872.411,-203.09 877.803,-207.554"/>
</g>
<!-- Node31 -->
<g id="node31" class="node"><title>Node31</title>
<g id="a_node31"><a xlink:href="classplazza_1_1_thread_pool.html#a927215245cf2e50525f7706056b26e50" target="_top" xlink:title="Stop the pool execution. ">
<polygon fill="none" stroke="black" points="844.5,-330.5 844.5,-360.5 945.5,-360.5 945.5,-330.5 844.5,-330.5"/>
<text text-anchor="start" x="852.5" y="-348.5" font-family="Helvetica,sans-Serif" font-size="10.00">plazza::ThreadPool</text>
<text text-anchor="middle" x="895" y="-337.5" font-family="Helvetica,sans-Serif" font-size="10.00">::stop</text>
</a>
</g>
</g>
<!-- Node30&#45;&gt;Node31 -->
<g id="edge38" class="edge"><title>Node30&#45;&gt;Node31</title>
<path fill="none" stroke="midnightblue" d="M752.755,-384.936C775.943,-378.462 807.19,-369.738 834.398,-362.141"/>
<polygon fill="midnightblue" stroke="midnightblue" points="835.527,-365.46 844.218,-359.399 833.645,-358.718 835.527,-365.46"/>
</g>
<!-- Node33 -->
<g id="node33" class="node"><title>Node33</title>
<g id="a_node33"><a xlink:href="classplazza_1_1_connector_pipe.html#a588544d4eebd85f8f05e43f826ea47bd" target="_top" xlink:title="plazza::ConnectorPipe\l::disconnect">
<polygon fill="none" stroke="black" points="1007.5,-427.5 1007.5,-457.5 1123.5,-457.5 1123.5,-427.5 1007.5,-427.5"/>
<text text-anchor="start" x="1015.5" y="-445.5" font-family="Helvetica,sans-Serif" font-size="10.00">plazza::ConnectorPipe</text>
<text text-anchor="middle" x="1065.5" y="-434.5" font-family="Helvetica,sans-Serif" font-size="10.00">::disconnect</text>
</a>
</g>
</g>
<!-- Node30&#45;&gt;Node33 -->
<g id="edge40" class="edge"><title>Node30&#45;&gt;Node33</title>
<path fill="none" stroke="midnightblue" d="M756.097,-404.05C776.638,-408.974 802.591,-414.723 826,-418.5 883.413,-427.764 949.215,-434.065 997.138,-437.878"/>
<polygon fill="midnightblue" stroke="midnightblue" points="997.146,-441.389 1007.39,-438.678 997.691,-434.411 997.146,-441.389"/>
</g>
<!-- Node34 -->
<g id="node34" class="node"><title>Node34</title>
<g id="a_node34"><a xlink:href="classplazza_1_1_connector_pipe.html#ac6e124ff9380729df4e1491b3c365d95" target="_top" xlink:title="plazza::ConnectorPipe\l::destroy">
<polygon fill="none" stroke="black" points="837,-379.5 837,-409.5 953,-409.5 953,-379.5 837,-379.5"/>
<text text-anchor="start" x="845" y="-397.5" font-family="Helvetica,sans-Serif" font-size="10.00">plazza::ConnectorPipe</text>
<text text-anchor="middle" x="895" y="-386.5" font-family="Helvetica,sans-Serif" font-size="10.00">::destroy</text>
</a>
</g>
</g>
<!-- Node30&#45;&gt;Node34 -->
<g id="edge43" class="edge"><title>Node30&#45;&gt;Node34</title>
<path fill="none" stroke="midnightblue" d="M771.156,-394.5C788.62,-394.5 808.304,-394.5 826.715,-394.5"/>
<polygon fill="midnightblue" stroke="midnightblue" points="826.791,-398 836.791,-394.5 826.791,-391 826.791,-398"/>
</g>
<!-- Node32 -->
<g id="node32" class="node"><title>Node32</title>
<g id="a_node32"><a xlink:href="classplazza_1_1_cond_var.html#a06ecb812639ea15519117b3be3524e43" target="_top" xlink:title="Notify all. ">
<polygon fill="none" stroke="black" points="1000,-302 1000,-321 1131,-321 1131,-302 1000,-302"/>
<text text-anchor="middle" x="1065.5" y="-309" font-family="Helvetica,sans-Serif" font-size="10.00">plazza::CondVar::notifyAll</text>
</a>
</g>
</g>
<!-- Node31&#45;&gt;Node32 -->
<g id="edge39" class="edge"><title>Node31&#45;&gt;Node32</title>
<path fill="none" stroke="midnightblue" d="M945.644,-335.483C964.994,-331.578 987.291,-327.079 1007.31,-323.04"/>
<polygon fill="midnightblue" stroke="midnightblue" points="1008.12,-326.446 1017.23,-321.037 1006.74,-319.584 1008.12,-326.446"/>
</g>
<!-- Node33&#45;&gt;Node4 -->
<g id="edge42" class="edge"><title>Node33&#45;&gt;Node4</title>
<path fill="none" stroke="midnightblue" d="M1123.81,-442.5C1134.58,-442.5 1145.94,-442.5 1156.98,-442.5"/>
<polygon fill="midnightblue" stroke="midnightblue" points="1157,-446 1167,-442.5 1157,-439 1157,-446"/>
</g>
<!-- Node33&#45;&gt;Node5 -->
<g id="edge41" class="edge"><title>Node33&#45;&gt;Node5</title>
<path fill="none" stroke="midnightblue" d="M1109.89,-427.488C1117.09,-424.489 1124.36,-421.131 1131,-417.5 1155.13,-404.301 1180.17,-385.664 1198.18,-371.238"/>
<polygon fill="midnightblue" stroke="midnightblue" points="1200.87,-373.561 1206.42,-364.536 1196.45,-368.129 1200.87,-373.561"/>
</g>
<!-- Node34&#45;&gt;Node5 -->
<g id="edge44" class="edge"><title>Node34&#45;&gt;Node5</title>
<path fill="none" stroke="midnightblue" d="M949.098,-379.483C965.323,-375.367 983.293,-371.278 1000,-368.5 1052.15,-359.827 1111.82,-355.013 1156.46,-352.402"/>
<polygon fill="midnightblue" stroke="midnightblue" points="1156.82,-355.888 1166.6,-351.831 1156.42,-348.899 1156.82,-355.888"/>
</g>
<!-- Node34&#45;&gt;Node33 -->
<g id="edge45" class="edge"><title>Node34&#45;&gt;Node33</title>
<path fill="none" stroke="midnightblue" d="M948.852,-409.556C965.634,-414.336 984.355,-419.669 1001.76,-424.628"/>
<polygon fill="midnightblue" stroke="midnightblue" points="1001.26,-428.124 1011.84,-427.498 1003.18,-421.392 1001.26,-428.124"/>
</g>
<!-- Node35 -->
<g id="node35" class="node"><title>Node35</title>
<g id="a_node35"><a xlink:href="classplazza_1_1_connector_pipe.html#acc3d09548d11f5e39ec5b53a2796e9df" target="_top" xlink:title="plazza::ConnectorPipe\l::getName">
<polygon fill="none" stroke="black" points="1007.5,-378.5 1007.5,-408.5 1123.5,-408.5 1123.5,-378.5 1007.5,-378.5"/>
<text text-anchor="start" x="1015.5" y="-396.5" font-family="Helvetica,sans-Serif" font-size="10.00">plazza::ConnectorPipe</text>
<text text-anchor="middle" x="1065.5" y="-385.5" font-family="Helvetica,sans-Serif" font-size="10.00">::getName</text>
</a>
</g>
</g>
<!-- Node34&#45;&gt;Node35 -->
<g id="edge46" class="edge"><title>Node34&#45;&gt;Node35</title>
<path fill="none" stroke="midnightblue" d="M953.046,-394.161C967.106,-394.078 982.297,-393.988 996.807,-393.902"/>
<polygon fill="midnightblue" stroke="midnightblue" points="997.247,-397.399 1007.23,-393.84 997.205,-390.399 997.247,-397.399"/>
</g>
</g>
</svg>
