<?xml version="1.0" encoding="UTF-8" standalone="no"?>
<!DOCTYPE svg PUBLIC "-//W3C//DTD SVG 1.1//EN"
 "http://www.w3.org/Graphics/SVG/1.1/DTD/svg11.dtd">
<!-- Generated by graphviz version 2.38.0 (20140413.2041)
 -->
<!-- Title: plazza::ConnectorPipe::setMode Pages: 1 -->
<svg width="580pt" height="529pt"
 viewBox="0.00 0.00 580.00 528.58" xmlns="http://www.w3.org/2000/svg" xmlns:xlink="http://www.w3.org/1999/xlink">
<g id="graph0" class="graph" transform="scale(1 1) rotate(0) translate(4 524.575)">
<title>plazza::ConnectorPipe::setMode</title>
<!-- Node1 -->
<g id="node1" class="node"><title>Node1</title>
<polygon fill="#bfbfbf" stroke="black" points="0,-268.5 0,-298.5 116,-298.5 116,-268.5 0,-268.5"/>
<text text-anchor="start" x="8" y="-286.5" font-family="Helvetica,sans-Serif" font-size="10.00">plazza::ConnectorPipe</text>
<text text-anchor="middle" x="58" y="-275.5" font-family="Helvetica,sans-Serif" font-size="10.00">::setMode</text>
</g>
<!-- Node2 -->
<g id="node2" class="node"><title>Node2</title>
<g id="a_node2"><a xlink:href="classplazza_1_1_connector_pipe.html#ac96ba32f2efbdaa1b0371ea98532b40b" target="_top" xlink:title="plazza::ConnectorPipe\l::getMode">
<polygon fill="none" stroke="black" points="304,-468.5 304,-498.5 420,-498.5 420,-468.5 304,-468.5"/>
<text text-anchor="start" x="312" y="-486.5" font-family="Helvetica,sans-Serif" font-size="10.00">plazza::ConnectorPipe</text>
<text text-anchor="middle" x="362" y="-475.5" font-family="Helvetica,sans-Serif" font-size="10.00">::getMode</text>
</a>
</g>
</g>
<!-- Node1&#45;&gt;Node2 -->
<g id="edge1" class="edge"><title>Node1&#45;&gt;Node2</title>
<path fill="none" stroke="midnightblue" d="M62.1751,-298.746C70.2835,-333.485 95.25,-418.52 152,-457.5 193.103,-485.732 249.726,-491.263 293.668,-490.268"/>
<polygon fill="midnightblue" stroke="midnightblue" points="293.819,-493.765 303.693,-489.924 293.579,-486.769 293.819,-493.765"/>
</g>
<!-- Node3 -->
<g id="node3" class="node"><title>Node3</title>
<g id="a_node3"><a xlink:href="classplazza_1_1_connector_pipe.html#a62120c8eaf05eb207346618977ad311e" target="_top" xlink:title="plazza::ConnectorPipe\l::create">
<polygon fill="none" stroke="black" points="152,-0.5 152,-30.5 268,-30.5 268,-0.5 152,-0.5"/>
<text text-anchor="start" x="160" y="-18.5" font-family="Helvetica,sans-Serif" font-size="10.00">plazza::ConnectorPipe</text>
<text text-anchor="middle" x="210" y="-7.5" font-family="Helvetica,sans-Serif" font-size="10.00">::create</text>
</a>
</g>
</g>
<!-- Node1&#45;&gt;Node3 -->
<g id="edge2" class="edge"><title>Node1&#45;&gt;Node3</title>
<path fill="none" stroke="midnightblue" d="M61.1436,-268.499C67.6559,-227.867 90.654,-114.13 152,-45.5 155.059,-42.0777 158.603,-38.9816 162.396,-36.1951"/>
<polygon fill="midnightblue" stroke="midnightblue" points="164.543,-38.9741 171.011,-30.583 160.722,-33.1089 164.543,-38.9741"/>
</g>
<!-- Node4 -->
<g id="node4" class="node"><title>Node4</title>
<g id="a_node4"><a xlink:href="classplazza_1_1_connector_pipe.html#a988af6e52af009b779739b0fc571fc07" target="_top" xlink:title="plazza::ConnectorPipe\l::connect">
<polygon fill="none" stroke="black" points="152,-126.5 152,-156.5 268,-156.5 268,-126.5 152,-126.5"/>
<text text-anchor="start" x="160" y="-144.5" font-family="Helvetica,sans-Serif" font-size="10.00">plazza::ConnectorPipe</text>
<text text-anchor="middle" x="210" y="-133.5" font-family="Helvetica,sans-Serif" font-size="10.00">::connect</text>
</a>
</g>
</g>
<!-- Node1&#45;&gt;Node4 -->
<g id="edge3" class="edge"><title>Node1&#45;&gt;Node4</title>
<path fill="none" stroke="midnightblue" d="M72.6412,-268.307C90.308,-248.896 122.358,-214.573 152,-187.5 161.15,-179.143 171.594,-170.482 181.021,-162.96"/>
<polygon fill="midnightblue" stroke="midnightblue" points="183.3,-165.62 188.985,-156.68 178.965,-160.124 183.3,-165.62"/>
</g>
<!-- Node5 -->
<g id="node5" class="node"><title>Node5</title>
<g id="a_node5"><a xlink:href="classplazza_1_1_connector_pipe.html#a4609ad27d1a9847c051fc3be7638e656" target="_top" xlink:title="plazza::ConnectorPipe\l::setFd">
<polygon fill="none" stroke="black" points="456,-186.5 456,-216.5 572,-216.5 572,-186.5 456,-186.5"/>
<text text-anchor="start" x="464" y="-204.5" font-family="Helvetica,sans-Serif" font-size="10.00">plazza::ConnectorPipe</text>
<text text-anchor="middle" x="514" y="-193.5" font-family="Helvetica,sans-Serif" font-size="10.00">::setFd</text>
</a>
</g>
</g>
<!-- Node1&#45;&gt;Node5 -->
<g id="edge8" class="edge"><title>Node1&#45;&gt;Node5</title>
<path fill="none" stroke="midnightblue" d="M88.8586,-268.331C106.754,-259.834 130.199,-249.726 152,-243.5 251.811,-214.995 372.421,-205.782 445.879,-202.837"/>
<polygon fill="midnightblue" stroke="midnightblue" points="446.062,-206.332 455.925,-202.461 445.801,-199.337 446.062,-206.332"/>
</g>
<!-- Node6 -->
<g id="node6" class="node"><title>Node6</title>
<g id="a_node6"><a xlink:href="classplazza_1_1_connector_pipe.html#a81c0af2d4860745accb6ddf522180740" target="_top" xlink:title="plazza::ConnectorPipe\l::getFd">
<polygon fill="none" stroke="black" points="456,-320.5 456,-350.5 572,-350.5 572,-320.5 456,-320.5"/>
<text text-anchor="start" x="464" y="-338.5" font-family="Helvetica,sans-Serif" font-size="10.00">plazza::ConnectorPipe</text>
<text text-anchor="middle" x="514" y="-327.5" font-family="Helvetica,sans-Serif" font-size="10.00">::getFd</text>
</a>
</g>
</g>
<!-- Node1&#45;&gt;Node6 -->
<g id="edge9" class="edge"><title>Node1&#45;&gt;Node6</title>
<path fill="none" stroke="midnightblue" d="M60.8789,-298.726C66.5562,-337.616 87.3252,-440.885 152,-488.5 206.825,-528.864 236.05,-503.27 304,-507.5 355.456,-510.704 375.716,-533.899 420,-507.5 473.954,-475.337 498.499,-399.81 507.961,-360.409"/>
<polygon fill="midnightblue" stroke="midnightblue" points="511.4,-361.07 510.194,-350.544 504.572,-359.524 511.4,-361.07"/>
</g>
<!-- Node7 -->
<g id="node7" class="node"><title>Node7</title>
<g id="a_node7"><a xlink:href="classplazza_1_1_connector_pipe.html#ae8ec632624616ac694227bc109f1f630" target="_top" xlink:title="plazza::ConnectorPipe\l::setName">
<polygon fill="none" stroke="black" points="304,-66.5 304,-96.5 420,-96.5 420,-66.5 304,-66.5"/>
<text text-anchor="start" x="312" y="-84.5" font-family="Helvetica,sans-Serif" font-size="10.00">plazza::ConnectorPipe</text>
<text text-anchor="middle" x="362" y="-73.5" font-family="Helvetica,sans-Serif" font-size="10.00">::setName</text>
</a>
</g>
</g>
<!-- Node1&#45;&gt;Node7 -->
<g id="edge10" class="edge"><title>Node1&#45;&gt;Node7</title>
<path fill="none" stroke="midnightblue" d="M62.6847,-268.263C71.6401,-234.764 97.8987,-154.66 152,-116.5 193,-87.5808 249.63,-79.5406 293.601,-78.3411"/>
<polygon fill="midnightblue" stroke="midnightblue" points="293.69,-81.8402 303.632,-78.1787 293.577,-74.8412 293.69,-81.8402"/>
</g>
<!-- Node8 -->
<g id="node8" class="node"><title>Node8</title>
<g id="a_node8"><a xlink:href="classplazza_1_1_connector_pipe.html#acd75d9a8aed8dbcc567353f1340c14e2" target="_top" xlink:title="plazza::ConnectorPipe\l::setMode">
<polygon fill="none" stroke="black" points="304,-17.5 304,-47.5 420,-47.5 420,-17.5 304,-17.5"/>
<text text-anchor="start" x="312" y="-35.5" font-family="Helvetica,sans-Serif" font-size="10.00">plazza::ConnectorPipe</text>
<text text-anchor="middle" x="362" y="-24.5" font-family="Helvetica,sans-Serif" font-size="10.00">::setMode</text>
</a>
</g>
</g>
<!-- Node1&#45;&gt;Node8 -->
<g id="edge11" class="edge"><title>Node1&#45;&gt;Node8</title>
<path fill="none" stroke="midnightblue" d="M61.068,-268.441C67.1953,-229.923 88.945,-127.284 152,-76.5 173.602,-59.1017 241.335,-47.0114 293.903,-39.9671"/>
<polygon fill="midnightblue" stroke="midnightblue" points="294.399,-43.4322 303.862,-38.6679 293.493,-36.491 294.399,-43.4322"/>
</g>
<!-- Node9 -->
<g id="node9" class="node"><title>Node9</title>
<g id="a_node9"><a xlink:href="classplazza_1_1_connector_pipe.html#a588544d4eebd85f8f05e43f826ea47bd" target="_top" xlink:title="plazza::ConnectorPipe\l::disconnect">
<polygon fill="none" stroke="black" points="304,-230.5 304,-260.5 420,-260.5 420,-230.5 304,-230.5"/>
<text text-anchor="start" x="312" y="-248.5" font-family="Helvetica,sans-Serif" font-size="10.00">plazza::ConnectorPipe</text>
<text text-anchor="middle" x="362" y="-237.5" font-family="Helvetica,sans-Serif" font-size="10.00">::disconnect</text>
</a>
</g>
</g>
<!-- Node1&#45;&gt;Node9 -->
<g id="edge12" class="edge"><title>Node1&#45;&gt;Node9</title>
<path fill="none" stroke="midnightblue" d="M107.829,-268.404C121.954,-264.576 137.481,-260.878 152,-258.5 198.965,-250.807 252.548,-247.582 293.701,-246.268"/>
<polygon fill="midnightblue" stroke="midnightblue" points="293.989,-249.761 303.884,-245.973 293.787,-242.764 293.989,-249.761"/>
</g>
<!-- Node10 -->
<g id="node10" class="node"><title>Node10</title>
<g id="a_node10"><a xlink:href="classplazza_1_1_connector_pipe.html#ac6e124ff9380729df4e1491b3c365d95" target="_top" xlink:title="plazza::ConnectorPipe\l::destroy">
<polygon fill="none" stroke="black" points="152,-268.5 152,-298.5 268,-298.5 268,-268.5 152,-268.5"/>
<text text-anchor="start" x="160" y="-286.5" font-family="Helvetica,sans-Serif" font-size="10.00">plazza::ConnectorPipe</text>
<text text-anchor="middle" x="210" y="-275.5" font-family="Helvetica,sans-Serif" font-size="10.00">::destroy</text>
</a>
</g>
</g>
<!-- Node1&#45;&gt;Node10 -->
<g id="edge15" class="edge"><title>Node1&#45;&gt;Node10</title>
<path fill="none" stroke="midnightblue" d="M116.136,-283.5C124.377,-283.5 132.923,-283.5 141.344,-283.5"/>
<polygon fill="midnightblue" stroke="midnightblue" points="141.526,-287 151.525,-283.5 141.525,-280 141.526,-287"/>
</g>
<!-- Node11 -->
<g id="node11" class="node"><title>Node11</title>
<g id="a_node11"><a xlink:href="classplazza_1_1_connector_pipe.html#acc3d09548d11f5e39ec5b53a2796e9df" target="_top" xlink:title="plazza::ConnectorPipe\l::getName">
<polygon fill="none" stroke="black" points="304,-318.5 304,-348.5 420,-348.5 420,-318.5 304,-318.5"/>
<text text-anchor="start" x="312" y="-336.5" font-family="Helvetica,sans-Serif" font-size="10.00">plazza::ConnectorPipe</text>
<text text-anchor="middle" x="362" y="-325.5" font-family="Helvetica,sans-Serif" font-size="10.00">::getName</text>
</a>
</g>
</g>
<!-- Node1&#45;&gt;Node11 -->
<g id="edge19" class="edge"><title>Node1&#45;&gt;Node11</title>
<path fill="none" stroke="midnightblue" d="M112.338,-298.52C125.249,-301.807 139.059,-305.036 152,-307.5 199.02,-316.453 252.602,-323.048 293.74,-327.356"/>
<polygon fill="midnightblue" stroke="midnightblue" points="293.614,-330.862 303.92,-328.402 294.33,-323.898 293.614,-330.862"/>
</g>
<!-- Node12 -->
<g id="node12" class="node"><title>Node12</title>
<g id="a_node12"><a xlink:href="classplazza_1_1_connector_pipe.html#ad8062cefc673b98824dff56b5534a056" target="_top" xlink:title="plazza::ConnectorPipe\l::sendData">
<polygon fill="none" stroke="black" points="304,-367.5 304,-397.5 420,-397.5 420,-367.5 304,-367.5"/>
<text text-anchor="start" x="312" y="-385.5" font-family="Helvetica,sans-Serif" font-size="10.00">plazza::ConnectorPipe</text>
<text text-anchor="middle" x="362" y="-374.5" font-family="Helvetica,sans-Serif" font-size="10.00">::sendData</text>
</a>
</g>
</g>
<!-- Node1&#45;&gt;Node12 -->
<g id="edge20" class="edge"><title>Node1&#45;&gt;Node12</title>
<path fill="none" stroke="midnightblue" d="M85.1466,-298.707C103.403,-308.823 128.599,-321.801 152,-330.5 198.139,-347.651 252.093,-360.914 293.624,-369.751"/>
<polygon fill="midnightblue" stroke="midnightblue" points="293.127,-373.223 303.632,-371.847 294.562,-366.372 293.127,-373.223"/>
</g>
<!-- Node13 -->
<g id="node13" class="node"><title>Node13</title>
<g id="a_node13"><a xlink:href="classplazza_1_1_connector_pipe.html#a7570f6cfb8520505247db4727d45bed1" target="_top" xlink:title="plazza::ConnectorPipe\l::receiveData">
<polygon fill="none" stroke="black" points="304,-416.5 304,-446.5 420,-446.5 420,-416.5 304,-416.5"/>
<text text-anchor="start" x="312" y="-434.5" font-family="Helvetica,sans-Serif" font-size="10.00">plazza::ConnectorPipe</text>
<text text-anchor="middle" x="362" y="-423.5" font-family="Helvetica,sans-Serif" font-size="10.00">::receiveData</text>
</a>
</g>
</g>
<!-- Node1&#45;&gt;Node13 -->
<g id="edge22" class="edge"><title>Node1&#45;&gt;Node13</title>
<path fill="none" stroke="midnightblue" d="M62.995,-298.566C72.3466,-330.399 98.9896,-403.994 152,-433.5 194.945,-457.404 250.955,-455.453 294.181,-448.315"/>
<polygon fill="midnightblue" stroke="midnightblue" points="294.805,-451.759 304.038,-446.562 293.579,-444.867 294.805,-451.759"/>
</g>
<!-- Node14 -->
<g id="node14" class="node"><title>Node14</title>
<g id="a_node14"><a xlink:href="classplazza_1_1_connector_pipe.html#a6a5aa2b09b3f85badda3ff5161e86f74" target="_top" xlink:title="plazza::ConnectorPipe\l::transfertData">
<polygon fill="none" stroke="black" points="152,-394.5 152,-424.5 268,-424.5 268,-394.5 152,-394.5"/>
<text text-anchor="start" x="160" y="-412.5" font-family="Helvetica,sans-Serif" font-size="10.00">plazza::ConnectorPipe</text>
<text text-anchor="middle" x="210" y="-401.5" font-family="Helvetica,sans-Serif" font-size="10.00">::transfertData</text>
</a>
</g>
</g>
<!-- Node1&#45;&gt;Node14 -->
<g id="edge24" class="edge"><title>Node1&#45;&gt;Node14</title>
<path fill="none" stroke="midnightblue" d="M70.9933,-298.593C87.6131,-318.823 119.312,-355.016 152,-379.5 156.702,-383.022 161.874,-386.361 167.126,-389.445"/>
<polygon fill="midnightblue" stroke="midnightblue" points="165.532,-392.564 175.97,-394.381 168.943,-386.451 165.532,-392.564"/>
</g>
<!-- Node4&#45;&gt;Node5 -->
<g id="edge4" class="edge"><title>Node4&#45;&gt;Node5</title>
<path fill="none" stroke="midnightblue" d="M268.444,-136.565C311.072,-134.604 370.187,-135.497 420,-149.5 443.05,-155.98 466.567,-169.201 484.185,-180.689"/>
<polygon fill="midnightblue" stroke="midnightblue" points="482.574,-183.824 492.827,-186.494 486.477,-178.013 482.574,-183.824"/>
</g>
<!-- Node4&#45;&gt;Node6 -->
<g id="edge5" class="edge"><title>Node4&#45;&gt;Node6</title>
<path fill="none" stroke="midnightblue" d="M268.183,-154.341C312.583,-166.285 374.108,-187.314 420,-220.5 454.282,-245.291 482.96,-285.808 499.046,-311.538"/>
<polygon fill="midnightblue" stroke="midnightblue" points="496.192,-313.581 504.39,-320.293 502.167,-309.934 496.192,-313.581"/>
</g>
<!-- Node4&#45;&gt;Node7 -->
<g id="edge6" class="edge"><title>Node4&#45;&gt;Node7</title>
<path fill="none" stroke="midnightblue" d="M248.851,-126.359C268.645,-118.442 293.058,-108.677 314.047,-100.281"/>
<polygon fill="midnightblue" stroke="midnightblue" points="315.436,-103.495 323.421,-96.5317 312.836,-96.996 315.436,-103.495"/>
</g>
<!-- Node4&#45;&gt;Node8 -->
<g id="edge7" class="edge"><title>Node4&#45;&gt;Node8</title>
<path fill="none" stroke="midnightblue" d="M224.532,-126.281C241.587,-107.819 272.5,-76.6687 304,-56.5 306.295,-55.0309 308.694,-53.6172 311.156,-52.2624"/>
<polygon fill="midnightblue" stroke="midnightblue" points="312.942,-55.2804 320.261,-47.6204 309.763,-49.044 312.942,-55.2804"/>
</g>
<!-- Node9&#45;&gt;Node5 -->
<g id="edge14" class="edge"><title>Node9&#45;&gt;Node5</title>
<path fill="none" stroke="midnightblue" d="M414.202,-230.481C426.323,-226.925 439.37,-223.098 451.882,-219.428"/>
<polygon fill="midnightblue" stroke="midnightblue" points="453.164,-222.7 461.774,-216.526 451.193,-215.983 453.164,-222.7"/>
</g>
<!-- Node9&#45;&gt;Node6 -->
<g id="edge13" class="edge"><title>Node9&#45;&gt;Node6</title>
<path fill="none" stroke="midnightblue" d="M392.857,-260.579C401.685,-265.208 411.31,-270.423 420,-275.5 441.244,-287.911 464.503,-302.917 482.447,-314.818"/>
<polygon fill="midnightblue" stroke="midnightblue" points="480.535,-317.749 490.796,-320.385 484.418,-311.925 480.535,-317.749"/>
</g>
<!-- Node10&#45;&gt;Node6 -->
<g id="edge16" class="edge"><title>Node10&#45;&gt;Node6</title>
<path fill="none" stroke="midnightblue" d="M268.173,-287.8C310.408,-291.59 369.151,-298.15 420,-308.5 431.97,-310.936 444.637,-314.165 456.64,-317.539"/>
<polygon fill="midnightblue" stroke="midnightblue" points="455.959,-320.985 466.538,-320.394 457.899,-314.26 455.959,-320.985"/>
</g>
<!-- Node10&#45;&gt;Node9 -->
<g id="edge17" class="edge"><title>Node10&#45;&gt;Node9</title>
<path fill="none" stroke="midnightblue" d="M268.136,-269.025C276.468,-266.915 285.111,-264.725 293.622,-262.569"/>
<polygon fill="midnightblue" stroke="midnightblue" points="294.691,-265.909 303.525,-260.06 292.972,-259.123 294.691,-265.909"/>
</g>
<!-- Node10&#45;&gt;Node11 -->
<g id="edge18" class="edge"><title>Node10&#45;&gt;Node11</title>
<path fill="none" stroke="midnightblue" d="M256.005,-298.502C271.803,-303.768 289.727,-309.742 306.237,-315.246"/>
<polygon fill="midnightblue" stroke="midnightblue" points="305.174,-318.581 315.768,-318.423 307.388,-311.94 305.174,-318.581"/>
</g>
<!-- Node12&#45;&gt;Node6 -->
<g id="edge21" class="edge"><title>Node12&#45;&gt;Node6</title>
<path fill="none" stroke="midnightblue" d="M410.873,-367.5C424.945,-363.09 440.49,-358.22 455.117,-353.637"/>
<polygon fill="midnightblue" stroke="midnightblue" points="456.571,-356.849 465.067,-350.519 454.478,-350.169 456.571,-356.849"/>
</g>
<!-- Node13&#45;&gt;Node6 -->
<g id="edge23" class="edge"><title>Node13&#45;&gt;Node6</title>
<path fill="none" stroke="midnightblue" d="M400.738,-416.474C407.297,-413.434 413.949,-410.067 420,-406.5 444.431,-392.097 469.876,-372.286 487.961,-357.25"/>
<polygon fill="midnightblue" stroke="midnightblue" points="490.328,-359.832 495.723,-350.714 485.819,-354.478 490.328,-359.832"/>
</g>
<!-- Node14&#45;&gt;Node2 -->
<g id="edge25" class="edge"><title>Node14&#45;&gt;Node2</title>
<path fill="none" stroke="midnightblue" d="M241.567,-424.645C259.706,-433.626 283.158,-445.226 304,-455.5 309.448,-458.186 315.192,-461.012 320.85,-463.794"/>
<polygon fill="midnightblue" stroke="midnightblue" points="319.709,-467.133 330.227,-468.403 322.796,-460.851 319.709,-467.133"/>
</g>
<!-- Node14&#45;&gt;Node12 -->
<g id="edge27" class="edge"><title>Node14&#45;&gt;Node12</title>
<path fill="none" stroke="midnightblue" d="M268.136,-399.215C276.468,-397.716 285.111,-396.16 293.622,-394.628"/>
<polygon fill="midnightblue" stroke="midnightblue" points="294.304,-398.062 303.525,-392.845 293.064,-391.172 294.304,-398.062"/>
</g>
<!-- Node14&#45;&gt;Node13 -->
<g id="edge26" class="edge"><title>Node14&#45;&gt;Node13</title>
<path fill="none" stroke="midnightblue" d="M268.136,-417.88C276.468,-419.102 285.111,-420.37 293.622,-421.618"/>
<polygon fill="midnightblue" stroke="midnightblue" points="293.123,-425.082 303.525,-423.07 294.139,-418.156 293.123,-425.082"/>
</g>
</g>
</svg>
