<?xml version="1.0" encoding="UTF-8" standalone="no"?>
<!DOCTYPE svg PUBLIC "-//W3C//DTD SVG 1.1//EN"
 "http://www.w3.org/Graphics/SVG/1.1/DTD/svg11.dtd">
<!-- Generated by graphviz version 2.38.0 (20140413.2041)
 -->
<!-- Title: plazza::File::File Pages: 1 -->
<svg width="370pt" height="66pt"
 viewBox="0.00 0.00 370.00 66.00" xmlns="http://www.w3.org/2000/svg" xmlns:xlink="http://www.w3.org/1999/xlink">
<g id="graph0" class="graph" transform="scale(1 1) rotate(0) translate(4 62)">
<title>plazza::File::File</title>
<!-- Node1 -->
<g id="node1" class="node"><title>Node1</title>
<polygon fill="#bfbfbf" stroke="black" points="0,-19.5 0,-38.5 89,-38.5 89,-19.5 0,-19.5"/>
<text text-anchor="middle" x="44.5" y="-26.5" font-family="Helvetica,sans-Serif" font-size="10.00">plazza::File::File</text>
</g>
<!-- Node2 -->
<g id="node2" class="node"><title>Node2</title>
<g id="a_node2"><a xlink:href="classplazza_1_1_file.html#a65844e0df72307648e3f5432ed964fdc" target="_top" xlink:title="Load file provided as parameter. ">
<polygon fill="none" stroke="black" points="125,-19.5 125,-38.5 216,-38.5 216,-19.5 125,-19.5"/>
<text text-anchor="middle" x="170.5" y="-26.5" font-family="Helvetica,sans-Serif" font-size="10.00">plazza::File::load</text>
</a>
</g>
</g>
<!-- Node1&#45;&gt;Node2 -->
<g id="edge1" class="edge"><title>Node1&#45;&gt;Node2</title>
<path fill="none" stroke="midnightblue" d="M89.2178,-29C97.4467,-29 106.147,-29 114.665,-29"/>
<polygon fill="midnightblue" stroke="midnightblue" points="114.921,-32.5001 124.921,-29 114.921,-25.5001 114.921,-32.5001"/>
</g>
<!-- Node3 -->
<g id="node3" class="node"><title>Node3</title>
<g id="a_node3"><a xlink:href="classplazza_1_1_file.html#aad99fa99466b458697a29effd5677b96" target="_top" xlink:title="Define file state. ">
<polygon fill="none" stroke="black" points="252,-38.5 252,-57.5 362,-57.5 362,-38.5 252,-38.5"/>
<text text-anchor="middle" x="307" y="-45.5" font-family="Helvetica,sans-Serif" font-size="10.00">plazza::File::setOpen</text>
</a>
</g>
</g>
<!-- Node2&#45;&gt;Node3 -->
<g id="edge2" class="edge"><title>Node2&#45;&gt;Node3</title>
<path fill="none" stroke="midnightblue" d="M216.287,-35.3267C224.416,-36.4751 233.039,-37.6933 241.601,-38.9028"/>
<polygon fill="midnightblue" stroke="midnightblue" points="241.199,-42.3807 251.591,-40.3139 242.178,-35.4495 241.199,-42.3807"/>
</g>
<!-- Node4 -->
<g id="node4" class="node"><title>Node4</title>
<g id="a_node4"><a xlink:href="classplazza_1_1_file.html#a928bc2918fada3f1c04ca30d73e18341" target="_top" xlink:title="Check if file is loaded. ">
<polygon fill="none" stroke="black" points="255,-0.5 255,-19.5 359,-19.5 359,-0.5 255,-0.5"/>
<text text-anchor="middle" x="307" y="-7.5" font-family="Helvetica,sans-Serif" font-size="10.00">plazza::File::isOpen</text>
</a>
</g>
</g>
<!-- Node2&#45;&gt;Node4 -->
<g id="edge3" class="edge"><title>Node2&#45;&gt;Node4</title>
<path fill="none" stroke="midnightblue" d="M216.287,-22.6733C225.475,-21.3753 235.295,-19.9881 244.943,-18.6251"/>
<polygon fill="midnightblue" stroke="midnightblue" points="245.49,-22.0827 254.903,-17.2182 244.511,-15.1515 245.49,-22.0827"/>
</g>
</g>
</svg>
