<?xml version="1.0" encoding="UTF-8" standalone="no"?>
<!DOCTYPE svg PUBLIC "-//W3C//DTD SVG 1.1//EN"
 "http://www.w3.org/Graphics/SVG/1.1/DTD/svg11.dtd">
<!-- Generated by graphviz version 2.38.0 (20140413.2041)
 -->
<!-- Title: plazza::ThreadPool::getNbFreeWorkers Pages: 1 -->
<svg width="1095pt" height="116pt"
 viewBox="0.00 0.00 1095.00 115.50" xmlns="http://www.w3.org/2000/svg" xmlns:xlink="http://www.w3.org/1999/xlink">
<g id="graph0" class="graph" transform="scale(1 1) rotate(0) translate(4 111.5)">
<title>plazza::ThreadPool::getNbFreeWorkers</title>
<!-- Node1 -->
<g id="node1" class="node"><title>Node1</title>
<polygon fill="#bfbfbf" stroke="black" points="0,-44.5 0,-74.5 105,-74.5 105,-44.5 0,-44.5"/>
<text text-anchor="start" x="8" y="-62.5" font-family="Helvetica,sans-Serif" font-size="10.00">plazza::ThreadPool</text>
<text text-anchor="middle" x="52.5" y="-51.5" font-family="Helvetica,sans-Serif" font-size="10.00">::getNbFreeWorkers</text>
</g>
<!-- Node2 -->
<g id="node2" class="node"><title>Node2</title>
<g id="a_node2"><a xlink:href="classplazza_1_1_office.html#a9effeb6357d3a84d8bc1d91dda19ed55" target="_top" xlink:title="Get the number of inactive workers. ">
<polygon fill="none" stroke="black" points="141,-88 141,-107 294,-107 294,-88 141,-88"/>
<text text-anchor="middle" x="217.5" y="-95" font-family="Helvetica,sans-Serif" font-size="10.00">plazza::Office::getFreeWorkers</text>
</a>
</g>
</g>
<!-- Node1&#45;&gt;Node2 -->
<g id="edge1" class="edge"><title>Node1&#45;&gt;Node2</title>
<path fill="none" stroke="midnightblue" d="M114.866,-73.8061C135.15,-78.5351 157.211,-83.6779 175.579,-87.96"/>
<polygon fill="midnightblue" stroke="midnightblue" points="115.608,-70.3853 105.074,-71.5234 114.018,-77.2025 115.608,-70.3853"/>
</g>
<!-- Node3 -->
<g id="node3" class="node"><title>Node3</title>
<g id="a_node3"><a xlink:href="classplazza_1_1_office.html#a7d91676d533d57dde86fbfe94e4e1a92" target="_top" xlink:title="Check if the office is active. ">
<polygon fill="none" stroke="black" points="158,-50 158,-69 277,-69 277,-50 158,-50"/>
<text text-anchor="middle" x="217.5" y="-57" font-family="Helvetica,sans-Serif" font-size="10.00">plazza::Office::isActive</text>
</a>
</g>
</g>
<!-- Node1&#45;&gt;Node3 -->
<g id="edge2" class="edge"><title>Node1&#45;&gt;Node3</title>
<path fill="none" stroke="midnightblue" d="M115.111,-59.5C129.132,-59.5 143.991,-59.5 157.884,-59.5"/>
<polygon fill="midnightblue" stroke="midnightblue" points="115.074,-56.0001 105.074,-59.5 115.074,-63.0001 115.074,-56.0001"/>
</g>
<!-- Node10 -->
<g id="node10" class="node"><title>Node10</title>
<g id="a_node10"><a xlink:href="classplazza_1_1_thread_pool.html#ae3447aa58cee4c5206d194f144d207c3" target="_top" xlink:title="Class constructor. ">
<polygon fill="none" stroke="black" points="167,-0.5 167,-30.5 268,-30.5 268,-0.5 167,-0.5"/>
<text text-anchor="start" x="175" y="-18.5" font-family="Helvetica,sans-Serif" font-size="10.00">plazza::ThreadPool</text>
<text text-anchor="middle" x="217.5" y="-7.5" font-family="Helvetica,sans-Serif" font-size="10.00">::ThreadPool</text>
</a>
</g>
</g>
<!-- Node1&#45;&gt;Node10 -->
<g id="edge9" class="edge"><title>Node1&#45;&gt;Node10</title>
<path fill="none" stroke="midnightblue" d="M115.002,-42.8983C132.152,-38.2687 150.562,-33.2992 166.931,-28.8807"/>
<polygon fill="midnightblue" stroke="midnightblue" points="113.816,-39.5929 105.074,-45.5781 115.641,-46.351 113.816,-39.5929"/>
</g>
<!-- Node4 -->
<g id="node4" class="node"><title>Node4</title>
<g id="a_node4"><a xlink:href="classplazza_1_1_office.html#a7c431da08f4460a011363f11f7066889" target="_top" xlink:title="Start the office. ">
<polygon fill="none" stroke="black" points="330,-50 330,-69 427,-69 427,-50 330,-50"/>
<text text-anchor="middle" x="378.5" y="-57" font-family="Helvetica,sans-Serif" font-size="10.00">plazza::Office::run</text>
</a>
</g>
</g>
<!-- Node3&#45;&gt;Node4 -->
<g id="edge3" class="edge"><title>Node3&#45;&gt;Node4</title>
<path fill="none" stroke="midnightblue" d="M287.548,-59.5C301.834,-59.5 316.579,-59.5 329.892,-59.5"/>
<polygon fill="midnightblue" stroke="midnightblue" points="287.254,-56.0001 277.254,-59.5 287.254,-63.0001 287.254,-56.0001"/>
</g>
<!-- Node5 -->
<g id="node5" class="node"><title>Node5</title>
<g id="a_node5"><a xlink:href="classplazza_1_1_process_manager.html#aaf7eabb8ae524f2faa9b152aa178a30b" target="_top" xlink:title="create an Office ">
<polygon fill="none" stroke="black" points="463,-44.5 463,-74.5 588,-74.5 588,-44.5 463,-44.5"/>
<text text-anchor="start" x="471" y="-62.5" font-family="Helvetica,sans-Serif" font-size="10.00">plazza::ProcessManager</text>
<text text-anchor="middle" x="525.5" y="-51.5" font-family="Helvetica,sans-Serif" font-size="10.00">::spawn</text>
</a>
</g>
</g>
<!-- Node4&#45;&gt;Node5 -->
<g id="edge4" class="edge"><title>Node4&#45;&gt;Node5</title>
<path fill="none" stroke="midnightblue" d="M437.451,-59.5C445.843,-59.5 454.506,-59.5 462.966,-59.5"/>
<polygon fill="midnightblue" stroke="midnightblue" points="437.38,-56.0001 427.38,-59.5 437.38,-63.0001 437.38,-56.0001"/>
</g>
<!-- Node6 -->
<g id="node6" class="node"><title>Node6</title>
<g id="a_node6"><a xlink:href="classplazza_1_1_reception.html#a7e1b50160865f662607dcddcbd9434f9" target="_top" xlink:title="Create an office. ">
<polygon fill="none" stroke="black" points="624,-44.5 624,-74.5 725,-74.5 725,-44.5 624,-44.5"/>
<text text-anchor="start" x="632" y="-62.5" font-family="Helvetica,sans-Serif" font-size="10.00">plazza::Reception::</text>
<text text-anchor="middle" x="674.5" y="-51.5" font-family="Helvetica,sans-Serif" font-size="10.00">createOffice</text>
</a>
</g>
</g>
<!-- Node5&#45;&gt;Node6 -->
<g id="edge5" class="edge"><title>Node5&#45;&gt;Node6</title>
<path fill="none" stroke="midnightblue" d="M598.694,-59.5C607.154,-59.5 615.638,-59.5 623.696,-59.5"/>
<polygon fill="midnightblue" stroke="midnightblue" points="598.415,-56.0001 588.415,-59.5 598.415,-63.0001 598.415,-56.0001"/>
</g>
<!-- Node7 -->
<g id="node7" class="node"><title>Node7</title>
<g id="a_node7"><a xlink:href="classplazza_1_1_reception.html#a7aa64f05388780e369663cd6800578ae" target="_top" xlink:title="Assign a task to the queue. ">
<polygon fill="none" stroke="black" points="761,-44.5 761,-74.5 862,-74.5 862,-44.5 761,-44.5"/>
<text text-anchor="start" x="769" y="-62.5" font-family="Helvetica,sans-Serif" font-size="10.00">plazza::Reception::</text>
<text text-anchor="middle" x="811.5" y="-51.5" font-family="Helvetica,sans-Serif" font-size="10.00">assignTask</text>
</a>
</g>
</g>
<!-- Node6&#45;&gt;Node7 -->
<g id="edge6" class="edge"><title>Node6&#45;&gt;Node7</title>
<path fill="none" stroke="midnightblue" d="M735.207,-59.5C743.67,-59.5 752.299,-59.5 760.552,-59.5"/>
<polygon fill="midnightblue" stroke="midnightblue" points="735.002,-56.0001 725.002,-59.5 735.002,-63.0001 735.002,-56.0001"/>
</g>
<!-- Node8 -->
<g id="node8" class="node"><title>Node8</title>
<g id="a_node8"><a xlink:href="classplazza_1_1_reception.html#add69bb3defc0d810a8f4fe2cdceacbb1" target="_top" xlink:title="run the office ">
<polygon fill="none" stroke="black" points="898,-50 898,-69 1013,-69 1013,-50 898,-50"/>
<text text-anchor="middle" x="955.5" y="-57" font-family="Helvetica,sans-Serif" font-size="10.00">plazza::Reception::run</text>
</a>
</g>
</g>
<!-- Node7&#45;&gt;Node8 -->
<g id="edge7" class="edge"><title>Node7&#45;&gt;Node8</title>
<path fill="none" stroke="midnightblue" d="M872.326,-59.5C880.771,-59.5 889.433,-59.5 897.817,-59.5"/>
<polygon fill="midnightblue" stroke="midnightblue" points="872.165,-56.0001 862.165,-59.5 872.165,-63.0001 872.165,-56.0001"/>
</g>
<!-- Node9 -->
<g id="node9" class="node"><title>Node9</title>
<g id="a_node9"><a xlink:href="gui_2sources_2main_8cpp.html#adacbe0175a79dff748855d8c9839f82b" target="_top" xlink:title="main">
<polygon fill="none" stroke="black" points="1049,-50 1049,-69 1087,-69 1087,-50 1049,-50"/>
<text text-anchor="middle" x="1068" y="-57" font-family="Helvetica,sans-Serif" font-size="10.00">main</text>
</a>
</g>
</g>
<!-- Node8&#45;&gt;Node9 -->
<g id="edge8" class="edge"><title>Node8&#45;&gt;Node9</title>
<path fill="none" stroke="midnightblue" d="M1023.3,-59.5C1032.63,-59.5 1041.5,-59.5 1048.78,-59.5"/>
<polygon fill="midnightblue" stroke="midnightblue" points="1023.04,-56.0001 1013.04,-59.5 1023.04,-63.0001 1023.04,-56.0001"/>
</g>
</g>
</svg>
