<?xml version="1.0" encoding="UTF-8" standalone="no"?>
<!DOCTYPE svg PUBLIC "-//W3C//DTD SVG 1.1//EN"
 "http://www.w3.org/Graphics/SVG/1.1/DTD/svg11.dtd">
<!-- Generated by graphviz version 2.38.0 (20140413.2041)
 -->
<!-- Title: plazza::File::setOpen Pages: 1 -->
<svg width="699pt" height="176pt"
 viewBox="0.00 0.00 699.00 175.50" xmlns="http://www.w3.org/2000/svg" xmlns:xlink="http://www.w3.org/1999/xlink">
<g id="graph0" class="graph" transform="scale(1 1) rotate(0) translate(4 171.5)">
<title>plazza::File::setOpen</title>
<!-- Node1 -->
<g id="node1" class="node"><title>Node1</title>
<polygon fill="#bfbfbf" stroke="black" points="0,-91 0,-110 110,-110 110,-91 0,-91"/>
<text text-anchor="middle" x="55" y="-98" font-family="Helvetica,sans-Serif" font-size="10.00">plazza::File::setOpen</text>
</g>
<!-- Node2 -->
<g id="node2" class="node"><title>Node2</title>
<g id="a_node2"><a xlink:href="classplazza_1_1_file.html#a65844e0df72307648e3f5432ed964fdc" target="_top" xlink:title="Load file provided as parameter. ">
<polygon fill="none" stroke="black" points="146,-91 146,-110 237,-110 237,-91 146,-91"/>
<text text-anchor="middle" x="191.5" y="-98" font-family="Helvetica,sans-Serif" font-size="10.00">plazza::File::load</text>
</a>
</g>
</g>
<!-- Node1&#45;&gt;Node2 -->
<g id="edge1" class="edge"><title>Node1&#45;&gt;Node2</title>
<path fill="none" stroke="midnightblue" d="M120.381,-100.5C129.007,-100.5 137.696,-100.5 145.878,-100.5"/>
<polygon fill="midnightblue" stroke="midnightblue" points="120.319,-97.0001 110.319,-100.5 120.319,-104 120.319,-97.0001"/>
</g>
<!-- Node3 -->
<g id="node3" class="node"><title>Node3</title>
<g id="a_node3"><a xlink:href="classplazza_1_1_file.html#a395dca510df648686a50be331d9b9cd4" target="_top" xlink:title="Class constructor using a filename. ">
<polygon fill="none" stroke="black" points="297,-148 297,-167 386,-167 386,-148 297,-148"/>
<text text-anchor="middle" x="341.5" y="-155" font-family="Helvetica,sans-Serif" font-size="10.00">plazza::File::File</text>
</a>
</g>
</g>
<!-- Node2&#45;&gt;Node3 -->
<g id="edge2" class="edge"><title>Node2&#45;&gt;Node3</title>
<path fill="none" stroke="midnightblue" d="M219.628,-114.694C235.013,-122.389 254.778,-131.689 273,-138.5 282.351,-141.995 292.637,-145.201 302.3,-147.944"/>
<polygon fill="midnightblue" stroke="midnightblue" points="221.169,-111.551 210.668,-110.147 218.001,-117.793 221.169,-111.551"/>
</g>
<!-- Node4 -->
<g id="node4" class="node"><title>Node4</title>
<g id="a_node4"><a xlink:href="gui_2sources_2main__cypher_8cpp.html#add1099fd0935d5faefd7a4b92dfd955c" target="_top" xlink:title="xorf">
<polygon fill="none" stroke="black" points="325,-110 325,-129 358,-129 358,-110 325,-110"/>
<text text-anchor="middle" x="341.5" y="-117" font-family="Helvetica,sans-Serif" font-size="10.00">xorf</text>
</a>
</g>
</g>
<!-- Node2&#45;&gt;Node4 -->
<g id="edge3" class="edge"><title>Node2&#45;&gt;Node4</title>
<path fill="none" stroke="midnightblue" d="M247.315,-107.537C275.041,-111.097 306.627,-115.151 324.988,-117.509"/>
<polygon fill="midnightblue" stroke="midnightblue" points="247.671,-104.054 237.307,-106.252 246.779,-110.997 247.671,-104.054"/>
</g>
<!-- Node6 -->
<g id="node6" class="node"><title>Node6</title>
<g id="a_node6"><a xlink:href="gui_2sources_2main__cypher_8cpp.html#a8bd3823ec173b4b29834b0f4ccb95326" target="_top" xlink:title="caesarf">
<polygon fill="none" stroke="black" points="317,-72 317,-91 366,-91 366,-72 317,-72"/>
<text text-anchor="middle" x="341.5" y="-79" font-family="Helvetica,sans-Serif" font-size="10.00">caesarf</text>
</a>
</g>
</g>
<!-- Node2&#45;&gt;Node6 -->
<g id="edge5" class="edge"><title>Node2&#45;&gt;Node6</title>
<path fill="none" stroke="midnightblue" d="M247.374,-93.4554C271.349,-90.3775 298.201,-86.9303 316.888,-84.5313"/>
<polygon fill="midnightblue" stroke="midnightblue" points="246.779,-90.0029 237.307,-94.7478 247.671,-96.9459 246.779,-90.0029"/>
</g>
<!-- Node7 -->
<g id="node7" class="node"><title>Node7</title>
<g id="a_node7"><a xlink:href="classplazza_1_1_worker.html#af17344ef0f0311dadb4f7c7ea9565031" target="_top" xlink:title="Send task to perform to the worker. ">
<polygon fill="none" stroke="black" points="273,-31 273,-50 410,-50 410,-31 273,-31"/>
<text text-anchor="middle" x="341.5" y="-38" font-family="Helvetica,sans-Serif" font-size="10.00">plazza::Worker::performJob</text>
</a>
</g>
</g>
<!-- Node2&#45;&gt;Node7 -->
<g id="edge7" class="edge"><title>Node2&#45;&gt;Node7</title>
<path fill="none" stroke="midnightblue" d="M220.043,-86.4422C235.418,-78.8645 255.039,-69.6333 273,-62.5 284.341,-57.996 297.005,-53.6854 308.273,-50.0923"/>
<polygon fill="midnightblue" stroke="midnightblue" points="218.461,-83.3201 211.072,-90.9132 221.584,-89.5852 218.461,-83.3201"/>
</g>
<!-- Node5 -->
<g id="node5" class="node"><title>Node5</title>
<g id="a_node5"><a xlink:href="gui_2sources_2main__cypher_8cpp.html#a0c99d968a34e803d378692bde2e3f18f" target="_top" xlink:title="main">
<polygon fill="none" stroke="black" points="481,-110 481,-129 519,-129 519,-110 481,-110"/>
<text text-anchor="middle" x="500" y="-117" font-family="Helvetica,sans-Serif" font-size="10.00">main</text>
</a>
</g>
</g>
<!-- Node4&#45;&gt;Node5 -->
<g id="edge4" class="edge"><title>Node4&#45;&gt;Node5</title>
<path fill="none" stroke="midnightblue" d="M368.312,-119.5C399.957,-119.5 452.8,-119.5 480.607,-119.5"/>
<polygon fill="midnightblue" stroke="midnightblue" points="368.078,-116 358.078,-119.5 368.078,-123 368.078,-116"/>
</g>
<!-- Node6&#45;&gt;Node5 -->
<g id="edge6" class="edge"><title>Node6&#45;&gt;Node5</title>
<path fill="none" stroke="midnightblue" d="M376.109,-89.6607C408.187,-97.4496 455.306,-108.89 480.875,-115.099"/>
<polygon fill="midnightblue" stroke="midnightblue" points="376.812,-86.2298 366.269,-87.2714 375.161,-93.0322 376.812,-86.2298"/>
</g>
<!-- Node8 -->
<g id="node8" class="node"><title>Node8</title>
<g id="a_node8"><a xlink:href="classplazza_1_1_worker.html#aa7561bf24cd0a90230ddd99b43b18a11" target="_top" xlink:title="Start thread execution. ">
<polygon fill="none" stroke="black" points="446,-72 446,-91 554,-91 554,-72 446,-72"/>
<text text-anchor="middle" x="500" y="-79" font-family="Helvetica,sans-Serif" font-size="10.00">plazza::Worker::start</text>
</a>
</g>
</g>
<!-- Node7&#45;&gt;Node8 -->
<g id="edge8" class="edge"><title>Node7&#45;&gt;Node8</title>
<path fill="none" stroke="midnightblue" d="M388.599,-52.577C412.219,-58.7651 440.571,-66.1927 462.628,-71.9714"/>
<polygon fill="midnightblue" stroke="midnightblue" points="389.358,-49.1579 378.798,-50.0093 387.584,-55.9294 389.358,-49.1579"/>
</g>
<!-- Node9 -->
<g id="node9" class="node"><title>Node9</title>
<g id="a_node9"><a xlink:href="classplazza_1_1_thread_pool.html#a85b5323591017ee418afb0fdc9e3d9a7" target="_top" xlink:title="Get the number of total workers. ">
<polygon fill="none" stroke="black" points="449.5,-22.5 449.5,-52.5 550.5,-52.5 550.5,-22.5 449.5,-22.5"/>
<text text-anchor="start" x="457.5" y="-40.5" font-family="Helvetica,sans-Serif" font-size="10.00">plazza::ThreadPool</text>
<text text-anchor="middle" x="500" y="-29.5" font-family="Helvetica,sans-Serif" font-size="10.00">::getNbWorkers</text>
</a>
</g>
</g>
<!-- Node7&#45;&gt;Node9 -->
<g id="edge9" class="edge"><title>Node7&#45;&gt;Node9</title>
<path fill="none" stroke="midnightblue" d="M420.382,-39.0071C430.148,-38.8199 439.921,-38.6325 449.094,-38.4567"/>
<polygon fill="midnightblue" stroke="midnightblue" points="420.164,-35.5105 410.233,-39.2016 420.298,-42.5092 420.164,-35.5105"/>
</g>
<!-- Node10 -->
<g id="node10" class="node"><title>Node10</title>
<g id="a_node10"><a xlink:href="classplazza_1_1_thread_pool.html#ae3447aa58cee4c5206d194f144d207c3" target="_top" xlink:title="Class constructor. ">
<polygon fill="none" stroke="black" points="590,-0.5 590,-30.5 691,-30.5 691,-0.5 590,-0.5"/>
<text text-anchor="start" x="598" y="-18.5" font-family="Helvetica,sans-Serif" font-size="10.00">plazza::ThreadPool</text>
<text text-anchor="middle" x="640.5" y="-7.5" font-family="Helvetica,sans-Serif" font-size="10.00">::ThreadPool</text>
</a>
</g>
</g>
<!-- Node7&#45;&gt;Node10 -->
<g id="edge11" class="edge"><title>Node7&#45;&gt;Node10</title>
<path fill="none" stroke="midnightblue" d="M379.491,-27.9418C399.018,-21.9666 423.53,-15.4858 446,-12.5 493.582,-6.17746 506.007,-11.6583 554,-12.5 565.583,-12.7032 578.046,-13.061 589.776,-13.4605"/>
<polygon fill="midnightblue" stroke="midnightblue" points="378.26,-24.6597 369.771,-30.9991 380.361,-31.3372 378.26,-24.6597"/>
</g>
<!-- Node9&#45;&gt;Node10 -->
<g id="edge10" class="edge"><title>Node9&#45;&gt;Node10</title>
<path fill="none" stroke="midnightblue" d="M560.615,-28.0304C570.338,-26.4861 580.318,-24.9007 589.77,-23.3993"/>
<polygon fill="midnightblue" stroke="midnightblue" points="559.938,-24.5941 550.61,-29.6196 561.036,-31.5074 559.938,-24.5941"/>
</g>
</g>
</svg>
