<?xml version="1.0" encoding="UTF-8" standalone="no"?>
<!DOCTYPE svg PUBLIC "-//W3C//DTD SVG 1.1//EN"
 "http://www.w3.org/Graphics/SVG/1.1/DTD/svg11.dtd">
<!-- Generated by graphviz version 2.38.0 (20140413.2041)
 -->
<!-- Title: plazza::Office::init Pages: 1 -->
<svg width="437pt" height="364pt"
 viewBox="0.00 0.00 437.00 364.00" xmlns="http://www.w3.org/2000/svg" xmlns:xlink="http://www.w3.org/1999/xlink">
<g id="graph0" class="graph" transform="scale(1 1) rotate(0) translate(4 360)">
<title>plazza::Office::init</title>
<!-- Node1 -->
<g id="node1" class="node"><title>Node1</title>
<polygon fill="#bfbfbf" stroke="black" points="0,-138 0,-157 96,-157 96,-138 0,-138"/>
<text text-anchor="middle" x="48" y="-145" font-family="Helvetica,sans-Serif" font-size="10.00">plazza::Office::init</text>
</g>
<!-- Node2 -->
<g id="node2" class="node"><title>Node2</title>
<g id="a_node2"><a xlink:href="classplazza_1_1_connector_pipe.html#a988af6e52af009b779739b0fc571fc07" target="_top" xlink:title="plazza::ConnectorPipe\l::connect">
<polygon fill="none" stroke="black" points="146.5,-252.5 146.5,-282.5 262.5,-282.5 262.5,-252.5 146.5,-252.5"/>
<text text-anchor="start" x="154.5" y="-270.5" font-family="Helvetica,sans-Serif" font-size="10.00">plazza::ConnectorPipe</text>
<text text-anchor="middle" x="204.5" y="-259.5" font-family="Helvetica,sans-Serif" font-size="10.00">::connect</text>
</a>
</g>
</g>
<!-- Node1&#45;&gt;Node2 -->
<g id="edge1" class="edge"><title>Node1&#45;&gt;Node2</title>
<path fill="none" stroke="midnightblue" d="M54.8656,-157.037C66.9818,-175.979 96.621,-218.579 132,-242.5 134.921,-244.475 138.014,-246.31 141.212,-248.014"/>
<polygon fill="midnightblue" stroke="midnightblue" points="139.916,-251.275 150.443,-252.472 142.96,-244.972 139.916,-251.275"/>
</g>
<!-- Node7 -->
<g id="node7" class="node"><title>Node7</title>
<g id="a_node7"><a xlink:href="classplazza_1_1_office.html#a16495312d113667c635e467b0b7ff35d" target="_top" xlink:title="Set process pid. ">
<polygon fill="none" stroke="black" points="149,-214 149,-233 260,-233 260,-214 149,-214"/>
<text text-anchor="middle" x="204.5" y="-221" font-family="Helvetica,sans-Serif" font-size="10.00">plazza::Office::setPid</text>
</a>
</g>
</g>
<!-- Node1&#45;&gt;Node7 -->
<g id="edge6" class="edge"><title>Node1&#45;&gt;Node7</title>
<path fill="none" stroke="midnightblue" d="M60.3215,-157.172C75.6241,-169.781 104.204,-191.727 132,-204.5 137.234,-206.905 142.828,-209.05 148.495,-210.953"/>
<polygon fill="midnightblue" stroke="midnightblue" points="147.464,-214.298 158.052,-213.93 149.545,-207.615 147.464,-214.298"/>
</g>
<!-- Node8 -->
<g id="node8" class="node"><title>Node8</title>
<g id="a_node8"><a xlink:href="classplazza_1_1_office.html#a31faf030f19d5172ed774c81f693d0aa" target="_top" xlink:title="Set Office private key. ">
<polygon fill="none" stroke="black" points="132,-176 132,-195 277,-195 277,-176 132,-176"/>
<text text-anchor="middle" x="204.5" y="-183" font-family="Helvetica,sans-Serif" font-size="10.00">plazza::Office::setPrivateKey</text>
</a>
</g>
</g>
<!-- Node1&#45;&gt;Node8 -->
<g id="edge7" class="edge"><title>Node1&#45;&gt;Node8</title>
<path fill="none" stroke="midnightblue" d="M87.9869,-157.089C108.283,-162.081 133.293,-168.232 154.846,-173.533"/>
<polygon fill="midnightblue" stroke="midnightblue" points="154.247,-176.99 164.793,-175.98 155.919,-170.193 154.247,-176.99"/>
</g>
<!-- Node9 -->
<g id="node9" class="node"><title>Node9</title>
<g id="a_node9"><a xlink:href="classplazza_1_1_office.html#a1f32b2702e30f57d8500edf91530f71c" target="_top" xlink:title="Get Office process pid. ">
<polygon fill="none" stroke="black" points="149,-138 149,-157 260,-157 260,-138 149,-138"/>
<text text-anchor="middle" x="204.5" y="-145" font-family="Helvetica,sans-Serif" font-size="10.00">plazza::Office::getPid</text>
</a>
</g>
</g>
<!-- Node1&#45;&gt;Node9 -->
<g id="edge8" class="edge"><title>Node1&#45;&gt;Node9</title>
<path fill="none" stroke="midnightblue" d="M96.1946,-147.5C109.548,-147.5 124.321,-147.5 138.526,-147.5"/>
<polygon fill="midnightblue" stroke="midnightblue" points="138.74,-151 148.74,-147.5 138.74,-144 138.74,-151"/>
</g>
<!-- Node10 -->
<g id="node10" class="node"><title>Node10</title>
<g id="a_node10"><a xlink:href="classplazza_1_1_connector_pipe.html#a62120c8eaf05eb207346618977ad311e" target="_top" xlink:title="plazza::ConnectorPipe\l::create">
<polygon fill="none" stroke="black" points="146.5,-88.5 146.5,-118.5 262.5,-118.5 262.5,-88.5 146.5,-88.5"/>
<text text-anchor="start" x="154.5" y="-106.5" font-family="Helvetica,sans-Serif" font-size="10.00">plazza::ConnectorPipe</text>
<text text-anchor="middle" x="204.5" y="-95.5" font-family="Helvetica,sans-Serif" font-size="10.00">::create</text>
</a>
</g>
</g>
<!-- Node1&#45;&gt;Node10 -->
<g id="edge9" class="edge"><title>Node1&#45;&gt;Node10</title>
<path fill="none" stroke="midnightblue" d="M82.5242,-137.953C99.6085,-133.087 120.947,-127.01 140.926,-121.32"/>
<polygon fill="midnightblue" stroke="midnightblue" points="141.941,-124.671 150.6,-118.565 140.024,-117.938 141.941,-124.671"/>
</g>
<!-- Node11 -->
<g id="node11" class="node"><title>Node11</title>
<g id="a_node11"><a xlink:href="classplazza_1_1_office.html#a68a916edaa033b082542493f27fa8b79" target="_top" xlink:title="get Office private key ">
<polygon fill="none" stroke="black" points="132,-50 132,-69 277,-69 277,-50 132,-50"/>
<text text-anchor="middle" x="204.5" y="-57" font-family="Helvetica,sans-Serif" font-size="10.00">plazza::Office::getPrivateKey</text>
</a>
</g>
</g>
<!-- Node1&#45;&gt;Node11 -->
<g id="edge10" class="edge"><title>Node1&#45;&gt;Node11</title>
<path fill="none" stroke="midnightblue" d="M58.2564,-137.66C72.6598,-122.913 101.921,-95.1429 132,-79.5 137.275,-76.7568 142.97,-74.3529 148.763,-72.255"/>
<polygon fill="midnightblue" stroke="midnightblue" points="150.158,-75.4796 158.546,-69.0075 147.953,-68.836 150.158,-75.4796"/>
</g>
<!-- Node12 -->
<g id="node12" class="node"><title>Node12</title>
<g id="a_node12"><a xlink:href="classplazza_1_1_thread_pool.html#a50d6a17e2c28ee6ff818b44ee9d19b83" target="_top" xlink:title="Add the number of workers to the pool. ">
<polygon fill="none" stroke="black" points="154,-0.5 154,-30.5 255,-30.5 255,-0.5 154,-0.5"/>
<text text-anchor="start" x="162" y="-18.5" font-family="Helvetica,sans-Serif" font-size="10.00">plazza::ThreadPool</text>
<text text-anchor="middle" x="204.5" y="-7.5" font-family="Helvetica,sans-Serif" font-size="10.00">::createWorkers</text>
</a>
</g>
</g>
<!-- Node1&#45;&gt;Node12 -->
<g id="edge11" class="edge"><title>Node1&#45;&gt;Node12</title>
<path fill="none" stroke="midnightblue" d="M54.0322,-137.698C65.2274,-116.827 94.2145,-67.6873 132,-40.5 135.929,-37.6727 140.207,-35.1416 144.652,-32.8799"/>
<polygon fill="midnightblue" stroke="midnightblue" points="146.326,-35.9626 153.952,-28.6074 143.404,-29.6017 146.326,-35.9626"/>
</g>
<!-- Node3 -->
<g id="node3" class="node"><title>Node3</title>
<g id="a_node3"><a xlink:href="classplazza_1_1_connector_pipe.html#a4609ad27d1a9847c051fc3be7638e656" target="_top" xlink:title="plazza::ConnectorPipe\l::setFd">
<polygon fill="none" stroke="black" points="313,-325.5 313,-355.5 429,-355.5 429,-325.5 313,-325.5"/>
<text text-anchor="start" x="321" y="-343.5" font-family="Helvetica,sans-Serif" font-size="10.00">plazza::ConnectorPipe</text>
<text text-anchor="middle" x="371" y="-332.5" font-family="Helvetica,sans-Serif" font-size="10.00">::setFd</text>
</a>
</g>
</g>
<!-- Node2&#45;&gt;Node3 -->
<g id="edge2" class="edge"><title>Node2&#45;&gt;Node3</title>
<path fill="none" stroke="midnightblue" d="M237.849,-282.542C259.132,-292.366 287.64,-305.384 313,-316.5 316.657,-318.103 320.454,-319.747 324.274,-321.385"/>
<polygon fill="midnightblue" stroke="midnightblue" points="323.176,-324.722 333.748,-325.423 325.921,-318.282 323.176,-324.722"/>
</g>
<!-- Node4 -->
<g id="node4" class="node"><title>Node4</title>
<g id="a_node4"><a xlink:href="classplazza_1_1_connector_pipe.html#a81c0af2d4860745accb6ddf522180740" target="_top" xlink:title="plazza::ConnectorPipe\l::getFd">
<polygon fill="none" stroke="black" points="313,-276.5 313,-306.5 429,-306.5 429,-276.5 313,-276.5"/>
<text text-anchor="start" x="321" y="-294.5" font-family="Helvetica,sans-Serif" font-size="10.00">plazza::ConnectorPipe</text>
<text text-anchor="middle" x="371" y="-283.5" font-family="Helvetica,sans-Serif" font-size="10.00">::getFd</text>
</a>
</g>
</g>
<!-- Node2&#45;&gt;Node4 -->
<g id="edge3" class="edge"><title>Node2&#45;&gt;Node4</title>
<path fill="none" stroke="midnightblue" d="M262.572,-275.827C275.513,-277.715 289.374,-279.737 302.694,-281.68"/>
<polygon fill="midnightblue" stroke="midnightblue" points="302.349,-285.167 312.75,-283.147 303.36,-278.24 302.349,-285.167"/>
</g>
<!-- Node5 -->
<g id="node5" class="node"><title>Node5</title>
<g id="a_node5"><a xlink:href="classplazza_1_1_connector_pipe.html#ae8ec632624616ac694227bc109f1f630" target="_top" xlink:title="plazza::ConnectorPipe\l::setName">
<polygon fill="none" stroke="black" points="313,-227.5 313,-257.5 429,-257.5 429,-227.5 313,-227.5"/>
<text text-anchor="start" x="321" y="-245.5" font-family="Helvetica,sans-Serif" font-size="10.00">plazza::ConnectorPipe</text>
<text text-anchor="middle" x="371" y="-234.5" font-family="Helvetica,sans-Serif" font-size="10.00">::setName</text>
</a>
</g>
</g>
<!-- Node2&#45;&gt;Node5 -->
<g id="edge4" class="edge"><title>Node2&#45;&gt;Node5</title>
<path fill="none" stroke="midnightblue" d="M262.572,-258.826C275.513,-256.86 289.374,-254.753 302.694,-252.729"/>
<polygon fill="midnightblue" stroke="midnightblue" points="303.389,-256.163 312.75,-251.201 302.338,-249.243 303.389,-256.163"/>
</g>
<!-- Node6 -->
<g id="node6" class="node"><title>Node6</title>
<g id="a_node6"><a xlink:href="classplazza_1_1_connector_pipe.html#acd75d9a8aed8dbcc567353f1340c14e2" target="_top" xlink:title="plazza::ConnectorPipe\l::setMode">
<polygon fill="none" stroke="black" points="313,-178.5 313,-208.5 429,-208.5 429,-178.5 313,-178.5"/>
<text text-anchor="start" x="321" y="-196.5" font-family="Helvetica,sans-Serif" font-size="10.00">plazza::ConnectorPipe</text>
<text text-anchor="middle" x="371" y="-185.5" font-family="Helvetica,sans-Serif" font-size="10.00">::setMode</text>
</a>
</g>
</g>
<!-- Node2&#45;&gt;Node6 -->
<g id="edge5" class="edge"><title>Node2&#45;&gt;Node6</title>
<path fill="none" stroke="midnightblue" d="M253.877,-252.452C261.746,-249.476 269.702,-246.135 277,-242.5 294.212,-233.925 296.131,-227.73 313,-218.5 316.473,-216.599 320.12,-214.731 323.82,-212.924"/>
<polygon fill="midnightblue" stroke="midnightblue" points="325.498,-216.002 333.055,-208.576 322.516,-209.669 325.498,-216.002"/>
</g>
</g>
</svg>
