<?xml version="1.0" encoding="UTF-8" standalone="no"?>
<!DOCTYPE svg PUBLIC "-//W3C//DTD SVG 1.1//EN"
 "http://www.w3.org/Graphics/SVG/1.1/DTD/svg11.dtd">
<!-- Generated by graphviz version 2.38.0 (20140413.2041)
 -->
<!-- Title: plazza::Office::getPrivateKey Pages: 1 -->
<svg width="945pt" height="88pt"
 viewBox="0.00 0.00 945.00 88.00" xmlns="http://www.w3.org/2000/svg" xmlns:xlink="http://www.w3.org/1999/xlink">
<g id="graph0" class="graph" transform="scale(1 1) rotate(0) translate(4 84)">
<title>plazza::Office::getPrivateKey</title>
<!-- Node1 -->
<g id="node1" class="node"><title>Node1</title>
<polygon fill="#bfbfbf" stroke="black" points="0,-31 0,-50 145,-50 145,-31 0,-31"/>
<text text-anchor="middle" x="72.5" y="-38" font-family="Helvetica,sans-Serif" font-size="10.00">plazza::Office::getPrivateKey</text>
</g>
<!-- Node2 -->
<g id="node2" class="node"><title>Node2</title>
<g id="a_node2"><a xlink:href="classplazza_1_1_office.html#a611c1821b8f7dfc4d6e4a4211714e2c7" target="_top" xlink:title="init the Office ">
<polygon fill="none" stroke="black" points="181,-52 181,-71 277,-71 277,-52 181,-52"/>
<text text-anchor="middle" x="229" y="-59" font-family="Helvetica,sans-Serif" font-size="10.00">plazza::Office::init</text>
</a>
</g>
</g>
<!-- Node1&#45;&gt;Node2 -->
<g id="edge1" class="edge"><title>Node1&#45;&gt;Node2</title>
<path fill="none" stroke="midnightblue" d="M153.599,-51.3873C162.894,-52.6506 172.134,-53.9065 180.779,-55.0816"/>
<polygon fill="midnightblue" stroke="midnightblue" points="153.898,-47.8957 143.517,-50.0169 152.955,-54.8319 153.898,-47.8957"/>
</g>
<!-- Node8 -->
<g id="node8" class="node"><title>Node8</title>
<g id="a_node8"><a xlink:href="classplazza_1_1_reception.html#a7389b5af68c57d0547f3ba41278c2002" target="_top" xlink:title="Send a task. ">
<polygon fill="none" stroke="black" points="325,-0.5 325,-30.5 426,-30.5 426,-0.5 325,-0.5"/>
<text text-anchor="start" x="333" y="-18.5" font-family="Helvetica,sans-Serif" font-size="10.00">plazza::Reception::</text>
<text text-anchor="middle" x="375.5" y="-7.5" font-family="Helvetica,sans-Serif" font-size="10.00">sendTask</text>
</a>
</g>
</g>
<!-- Node1&#45;&gt;Node8 -->
<g id="edge7" class="edge"><title>Node1&#45;&gt;Node8</title>
<path fill="none" stroke="midnightblue" d="M155.499,-33.6895C209.712,-29.1867 279.002,-23.4318 324.968,-19.614"/>
<polygon fill="midnightblue" stroke="midnightblue" points="154.891,-30.2278 145.215,-34.5436 155.47,-37.2038 154.891,-30.2278"/>
</g>
<!-- Node3 -->
<g id="node3" class="node"><title>Node3</title>
<g id="a_node3"><a xlink:href="classplazza_1_1_process_manager.html#aaf7eabb8ae524f2faa9b152aa178a30b" target="_top" xlink:title="create an Office ">
<polygon fill="none" stroke="black" points="313,-49.5 313,-79.5 438,-79.5 438,-49.5 313,-49.5"/>
<text text-anchor="start" x="321" y="-67.5" font-family="Helvetica,sans-Serif" font-size="10.00">plazza::ProcessManager</text>
<text text-anchor="middle" x="375.5" y="-56.5" font-family="Helvetica,sans-Serif" font-size="10.00">::spawn</text>
</a>
</g>
</g>
<!-- Node2&#45;&gt;Node3 -->
<g id="edge2" class="edge"><title>Node2&#45;&gt;Node3</title>
<path fill="none" stroke="midnightblue" d="M287.368,-62.691C295.749,-62.865 304.41,-63.0448 312.872,-63.2205"/>
<polygon fill="midnightblue" stroke="midnightblue" points="287.385,-59.1907 277.315,-62.4823 287.24,-66.1892 287.385,-59.1907"/>
</g>
<!-- Node4 -->
<g id="node4" class="node"><title>Node4</title>
<g id="a_node4"><a xlink:href="classplazza_1_1_reception.html#a7e1b50160865f662607dcddcbd9434f9" target="_top" xlink:title="Create an office. ">
<polygon fill="none" stroke="black" points="474,-47.5 474,-77.5 575,-77.5 575,-47.5 474,-47.5"/>
<text text-anchor="start" x="482" y="-65.5" font-family="Helvetica,sans-Serif" font-size="10.00">plazza::Reception::</text>
<text text-anchor="middle" x="524.5" y="-54.5" font-family="Helvetica,sans-Serif" font-size="10.00">createOffice</text>
</a>
</g>
</g>
<!-- Node3&#45;&gt;Node4 -->
<g id="edge3" class="edge"><title>Node3&#45;&gt;Node4</title>
<path fill="none" stroke="midnightblue" d="M448.415,-63.5216C456.968,-63.4052 465.549,-63.2884 473.696,-63.1776"/>
<polygon fill="midnightblue" stroke="midnightblue" points="448.367,-60.0218 438.415,-63.6576 448.462,-67.0212 448.367,-60.0218"/>
</g>
<!-- Node5 -->
<g id="node5" class="node"><title>Node5</title>
<g id="a_node5"><a xlink:href="classplazza_1_1_reception.html#a7aa64f05388780e369663cd6800578ae" target="_top" xlink:title="Assign a task to the queue. ">
<polygon fill="none" stroke="black" points="611,-24.5 611,-54.5 712,-54.5 712,-24.5 611,-24.5"/>
<text text-anchor="start" x="619" y="-42.5" font-family="Helvetica,sans-Serif" font-size="10.00">plazza::Reception::</text>
<text text-anchor="middle" x="661.5" y="-31.5" font-family="Helvetica,sans-Serif" font-size="10.00">assignTask</text>
</a>
</g>
</g>
<!-- Node4&#45;&gt;Node5 -->
<g id="edge4" class="edge"><title>Node4&#45;&gt;Node5</title>
<path fill="none" stroke="midnightblue" d="M584.928,-52.3752C593.481,-50.9181 602.208,-49.4312 610.552,-48.0097"/>
<polygon fill="midnightblue" stroke="midnightblue" points="584.273,-48.9364 575.002,-54.0662 585.448,-55.8369 584.273,-48.9364"/>
</g>
<!-- Node6 -->
<g id="node6" class="node"><title>Node6</title>
<g id="a_node6"><a xlink:href="classplazza_1_1_reception.html#add69bb3defc0d810a8f4fe2cdceacbb1" target="_top" xlink:title="run the office ">
<polygon fill="none" stroke="black" points="748,-30 748,-49 863,-49 863,-30 748,-30"/>
<text text-anchor="middle" x="805.5" y="-37" font-family="Helvetica,sans-Serif" font-size="10.00">plazza::Reception::run</text>
</a>
</g>
</g>
<!-- Node5&#45;&gt;Node6 -->
<g id="edge5" class="edge"><title>Node5&#45;&gt;Node6</title>
<path fill="none" stroke="midnightblue" d="M722.326,-39.5C730.771,-39.5 739.433,-39.5 747.817,-39.5"/>
<polygon fill="midnightblue" stroke="midnightblue" points="722.165,-36.0001 712.165,-39.5 722.165,-43.0001 722.165,-36.0001"/>
</g>
<!-- Node7 -->
<g id="node7" class="node"><title>Node7</title>
<g id="a_node7"><a xlink:href="gui_2sources_2main_8cpp.html#adacbe0175a79dff748855d8c9839f82b" target="_top" xlink:title="main">
<polygon fill="none" stroke="black" points="899,-30 899,-49 937,-49 937,-30 899,-30"/>
<text text-anchor="middle" x="918" y="-37" font-family="Helvetica,sans-Serif" font-size="10.00">main</text>
</a>
</g>
</g>
<!-- Node6&#45;&gt;Node7 -->
<g id="edge6" class="edge"><title>Node6&#45;&gt;Node7</title>
<path fill="none" stroke="midnightblue" d="M873.296,-39.5C882.626,-39.5 891.496,-39.5 898.776,-39.5"/>
<polygon fill="midnightblue" stroke="midnightblue" points="873.045,-36.0001 863.045,-39.5 873.045,-43.0001 873.045,-36.0001"/>
</g>
<!-- Node8&#45;&gt;Node5 -->
<g id="edge8" class="edge"><title>Node8&#45;&gt;Node5</title>
<path fill="none" stroke="midnightblue" d="M436.343,-20.5571C488.138,-24.9342 562.164,-31.1899 610.763,-35.2969"/>
<polygon fill="midnightblue" stroke="midnightblue" points="436.553,-17.0625 426.294,-19.7079 435.964,-24.0377 436.553,-17.0625"/>
</g>
</g>
</svg>
