<?xml version="1.0" encoding="UTF-8" standalone="no"?>
<!DOCTYPE svg PUBLIC "-//W3C//DTD SVG 1.1//EN"
 "http://www.w3.org/Graphics/SVG/1.1/DTD/svg11.dtd">
<!-- Generated by graphviz version 2.38.0 (20140413.2041)
 -->
<!-- Title: plazza::Office::run Pages: 1 -->
<!--zoomable 443 -->
<svg id="main" version="1.1" xmlns="http://www.w3.org/2000/svg" xmlns:xlink="http://www.w3.org/1999/xlink" xml:space="preserve" onload="init(evt)">
<style type="text/css"><![CDATA[
.edge:hover path { stroke: red; }
.edge:hover polygon { stroke: red; fill: red; }
]]></style>
<script type="text/javascript"><![CDATA[
var edges = document.getElementsByTagName('g');
if (edges && edges.length) {
  for (var i=0;i<edges.length;i++) {
    if (edges[i].id.substr(0,4)=='edge') {
      edges[i].setAttribute('class','edge');
    }
  }
}
]]></script>
        <defs>
                <circle id="rim" cx="0" cy="0" r="7"/>
                <circle id="rim2" cx="0" cy="0" r="3.5"/>
                <g id="zoomPlus">
                        <use xlink:href="#rim" fill="#404040">
                                <set attributeName="fill" to="#808080" begin="zoomplus.mouseover" end="zoomplus.mouseout"/>
                        </use>
                        <path d="M-4,0h8M0,-4v8" fill="none" stroke="white" stroke-width="1.5" pointer-events="none"/>
                </g>
                <g id="zoomMin">
                        <use xlink:href="#rim" fill="#404040">
                                <set attributeName="fill" to="#808080" begin="zoomminus.mouseover" end="zoomminus.mouseout"/>
                        </use>
                        <path d="M-4,0h8" fill="none" stroke="white" stroke-width="1.5" pointer-events="none"/>
                </g>
                <g id="dirArrow">
                        <path fill="none" stroke="white" stroke-width="1.5" d="M0,-3.0v7 M-2.5,-0.5L0,-3.0L2.5,-0.5"/>
                </g>
               <g id="resetDef">
                       <use xlink:href="#rim2" fill="#404040">
                               <set attributeName="fill" to="#808080" begin="reset.mouseover" end="reset.mouseout"/>
                       </use>
               </g>
        </defs>

<script type="text/javascript">
var viewWidth = 1104;
var viewHeight = 443;
var sectionId = 'dynsection-20';
</script>
<script xlink:href="svgpan.js"/>
<svg id="graph" class="graph">
<g id="viewport">
<title>plazza::Office::run</title>
<!-- Node1 -->
<g id="node1" class="node"><title>Node1</title>
<polygon fill="#bfbfbf" stroke="black" points="0,-208 0,-227 97,-227 97,-208 0,-208"/>
<text text-anchor="middle" x="48.5" y="-215" font-family="Helvetica,sans-Serif" font-size="10.00">plazza::Office::run</text>
</g>
<!-- Node2 -->
<g id="node2" class="node"><title>Node2</title>
<g id="a_node2"><a xlink:href="classplazza_1_1_office.html#a7d91676d533d57dde86fbfe94e4e1a92" target="_top" xlink:title="Check if the office is active. ">
<polygon fill="none" stroke="black" points="133,-361 133,-380 252,-380 252,-361 133,-361"/>
<text text-anchor="middle" x="192.5" y="-368" font-family="Helvetica,sans-Serif" font-size="10.00">plazza::Office::isActive</text>
</a>
</g>
</g>
<!-- Node1&#45;&gt;Node2 -->
<g id="edge1" class="edge"><title>Node1&#45;&gt;Node2</title>
<path fill="none" stroke="midnightblue" d="M58.3827,-227.071C81.8917,-252.401 145.971,-321.444 175.816,-353.601"/>
<polygon fill="midnightblue" stroke="midnightblue" points="173.253,-355.984 182.621,-360.933 178.383,-351.222 173.253,-355.984"/>
</g>
<!-- Node6 -->
<g id="node6" class="node"><title>Node6</title>
<g id="a_node6"><a xlink:href="classplazza_1_1_office.html#a9b483976ff17c8c541d34f8ce7098c38" target="_top" xlink:title="Get task for the private pipe. ">
<polygon fill="none" stroke="black" points="133,-208 133,-227 252,-227 252,-208 133,-208"/>
<text text-anchor="middle" x="192.5" y="-215" font-family="Helvetica,sans-Serif" font-size="10.00">plazza::Office::getTask</text>
</a>
</g>
</g>
<!-- Node1&#45;&gt;Node6 -->
<g id="edge5" class="edge"><title>Node1&#45;&gt;Node6</title>
<path fill="none" stroke="midnightblue" d="M97.179,-217.5C105.402,-217.5 114.095,-217.5 122.744,-217.5"/>
<polygon fill="midnightblue" stroke="midnightblue" points="122.845,-221 132.845,-217.5 122.845,-214 122.845,-221"/>
</g>
<!-- Node19 -->
<g id="node19" class="node"><title>Node19</title>
<g id="a_node19"><a xlink:href="classplazza_1_1_office.html#a04316c75e42181f331b214729c8e7909" target="_top" xlink:title="Close the office. ">
<polygon fill="none" stroke="black" points="477,-141 477,-160 584,-160 584,-141 477,-141"/>
<text text-anchor="middle" x="530.5" y="-148" font-family="Helvetica,sans-Serif" font-size="10.00">plazza::Office::close</text>
</a>
</g>
</g>
<!-- Node1&#45;&gt;Node19 -->
<g id="edge22" class="edge"><title>Node1&#45;&gt;Node19</title>
<path fill="none" stroke="midnightblue" d="M87.576,-207.965C101.769,-204.641 118.06,-201.097 133,-198.5 250.193,-178.129 388.368,-163.505 466.78,-156.074"/>
<polygon fill="midnightblue" stroke="midnightblue" points="467.344,-159.536 476.973,-155.117 466.69,-152.567 467.344,-159.536"/>
</g>
<!-- Node3 -->
<g id="node3" class="node"><title>Node3</title>
<g id="a_node3"><a xlink:href="classplazza_1_1_thread_pool.html#a14887a37ed86db5df1c89237752149ff" target="_top" xlink:title="Get the number of free workers. ">
<polygon fill="none" stroke="black" points="302.5,-355.5 302.5,-385.5 407.5,-385.5 407.5,-355.5 302.5,-355.5"/>
<text text-anchor="start" x="310.5" y="-373.5" font-family="Helvetica,sans-Serif" font-size="10.00">plazza::ThreadPool</text>
<text text-anchor="middle" x="355" y="-362.5" font-family="Helvetica,sans-Serif" font-size="10.00">::getNbFreeWorkers</text>
</a>
</g>
</g>
<!-- Node2&#45;&gt;Node3 -->
<g id="edge2" class="edge"><title>Node2&#45;&gt;Node3</title>
<path fill="none" stroke="midnightblue" d="M252.353,-370.5C265.272,-370.5 278.989,-370.5 292.026,-370.5"/>
<polygon fill="midnightblue" stroke="midnightblue" points="292.307,-374 302.307,-370.5 292.307,-367 292.307,-374"/>
</g>
<!-- Node5 -->
<g id="node5" class="node"><title>Node5</title>
<g id="a_node5"><a xlink:href="classplazza_1_1_thread_pool.html#aa0600df9d22b7c083dc2cf35633fbb3d" target="_top" xlink:title="Get the Queue task length. ">
<polygon fill="none" stroke="black" points="304.5,-404.5 304.5,-434.5 405.5,-434.5 405.5,-404.5 304.5,-404.5"/>
<text text-anchor="start" x="312.5" y="-422.5" font-family="Helvetica,sans-Serif" font-size="10.00">plazza::ThreadPool</text>
<text text-anchor="middle" x="355" y="-411.5" font-family="Helvetica,sans-Serif" font-size="10.00">::getQueueLength</text>
</a>
</g>
</g>
<!-- Node2&#45;&gt;Node5 -->
<g id="edge4" class="edge"><title>Node2&#45;&gt;Node5</title>
<path fill="none" stroke="midnightblue" d="M224.827,-380.064C244.792,-386.159 271.29,-394.249 295.088,-401.514"/>
<polygon fill="midnightblue" stroke="midnightblue" points="294.16,-404.891 304.746,-404.463 296.204,-398.196 294.16,-404.891"/>
</g>
<!-- Node4 -->
<g id="node4" class="node"><title>Node4</title>
<g id="a_node4"><a xlink:href="classplazza_1_1_worker.html#a7e0633e722049076c4c41777ccdf4a13" target="_top" xlink:title="Change worker working state. ">
<polygon fill="none" stroke="black" points="468,-402 468,-421 593,-421 593,-402 468,-402"/>
<text text-anchor="middle" x="530.5" y="-409" font-family="Helvetica,sans-Serif" font-size="10.00">plazza::Worker::setBusy</text>
</a>
</g>
</g>
<!-- Node3&#45;&gt;Node4 -->
<g id="edge3" class="edge"><title>Node3&#45;&gt;Node4</title>
<path fill="none" stroke="midnightblue" d="M407.586,-382.69C430.194,-388.033 456.638,-394.282 479.109,-399.592"/>
<polygon fill="midnightblue" stroke="midnightblue" points="478.589,-403.065 489.126,-401.959 480.198,-396.253 478.589,-403.065"/>
</g>
<!-- Node7 -->
<g id="node7" class="node"><title>Node7</title>
<g id="a_node7"><a xlink:href="classplazza_1_1_connector_pipe.html#a6a5aa2b09b3f85badda3ff5161e86f74" target="_top" xlink:title="plazza::ConnectorPipe\l::transfertData">
<polygon fill="none" stroke="black" points="650,-210.5 650,-240.5 766,-240.5 766,-210.5 650,-210.5"/>
<text text-anchor="start" x="658" y="-228.5" font-family="Helvetica,sans-Serif" font-size="10.00">plazza::ConnectorPipe</text>
<text text-anchor="middle" x="708" y="-217.5" font-family="Helvetica,sans-Serif" font-size="10.00">::transfertData</text>
</a>
</g>
</g>
<!-- Node6&#45;&gt;Node7 -->
<g id="edge6" class="edge"><title>Node6&#45;&gt;Node7</title>
<path fill="none" stroke="midnightblue" d="M252.405,-218.418C348.551,-219.916 538.614,-222.877 639.849,-224.454"/>
<polygon fill="midnightblue" stroke="midnightblue" points="639.904,-227.955 649.957,-224.611 640.013,-220.956 639.904,-227.955"/>
</g>
<!-- Node12 -->
<g id="node12" class="node"><title>Node12</title>
<g id="a_node12"><a xlink:href="classplazza_1_1_office.html#af53d889fe196fec1a3dcd1d738977048" target="_top" xlink:title="plazza::Office::assignTask">
<polygon fill="none" stroke="black" points="288,-276 288,-295 422,-295 422,-276 288,-276"/>
<text text-anchor="middle" x="355" y="-283" font-family="Helvetica,sans-Serif" font-size="10.00">plazza::Office::assignTask</text>
</a>
</g>
</g>
<!-- Node6&#45;&gt;Node12 -->
<g id="edge12" class="edge"><title>Node6&#45;&gt;Node12</title>
<path fill="none" stroke="midnightblue" d="M216.155,-227.099C243.757,-238.793 290.572,-258.627 321.883,-271.893"/>
<polygon fill="midnightblue" stroke="midnightblue" points="320.887,-275.272 331.46,-275.95 323.618,-268.826 320.887,-275.272"/>
</g>
<!-- Node8 -->
<g id="node8" class="node"><title>Node8</title>
<g id="a_node8"><a xlink:href="classplazza_1_1_connector_pipe.html#ac96ba32f2efbdaa1b0371ea98532b40b" target="_top" xlink:title="plazza::ConnectorPipe\l::getMode">
<polygon fill="none" stroke="black" points="820.5,-273.5 820.5,-303.5 936.5,-303.5 936.5,-273.5 820.5,-273.5"/>
<text text-anchor="start" x="828.5" y="-291.5" font-family="Helvetica,sans-Serif" font-size="10.00">plazza::ConnectorPipe</text>
<text text-anchor="middle" x="878.5" y="-280.5" font-family="Helvetica,sans-Serif" font-size="10.00">::getMode</text>
</a>
</g>
</g>
<!-- Node7&#45;&gt;Node8 -->
<g id="edge7" class="edge"><title>Node7&#45;&gt;Node8</title>
<path fill="none" stroke="midnightblue" d="M752.241,-240.531C760.479,-243.459 769.018,-246.54 777,-249.5 793.096,-255.469 796.997,-257.287 813,-263.5 818.178,-265.51 823.59,-267.61 828.983,-269.702"/>
<polygon fill="midnightblue" stroke="midnightblue" points="828.026,-273.084 838.615,-273.436 830.556,-266.558 828.026,-273.084"/>
</g>
<!-- Node9 -->
<g id="node9" class="node"><title>Node9</title>
<g id="a_node9"><a xlink:href="classplazza_1_1_connector_pipe.html#a7570f6cfb8520505247db4727d45bed1" target="_top" xlink:title="plazza::ConnectorPipe\l::receiveData">
<polygon fill="none" stroke="black" points="820.5,-175.5 820.5,-205.5 936.5,-205.5 936.5,-175.5 820.5,-175.5"/>
<text text-anchor="start" x="828.5" y="-193.5" font-family="Helvetica,sans-Serif" font-size="10.00">plazza::ConnectorPipe</text>
<text text-anchor="middle" x="878.5" y="-182.5" font-family="Helvetica,sans-Serif" font-size="10.00">::receiveData</text>
</a>
</g>
</g>
<!-- Node7&#45;&gt;Node9 -->
<g id="edge8" class="edge"><title>Node7&#45;&gt;Node9</title>
<path fill="none" stroke="midnightblue" d="M766.046,-213.651C780.242,-210.702 795.593,-207.513 810.229,-204.473"/>
<polygon fill="midnightblue" stroke="midnightblue" points="811.147,-207.857 820.226,-202.397 809.723,-201.004 811.147,-207.857"/>
</g>
<!-- Node11 -->
<g id="node11" class="node"><title>Node11</title>
<g id="a_node11"><a xlink:href="classplazza_1_1_connector_pipe.html#ad8062cefc673b98824dff56b5534a056" target="_top" xlink:title="plazza::ConnectorPipe\l::sendData">
<polygon fill="none" stroke="black" points="820.5,-224.5 820.5,-254.5 936.5,-254.5 936.5,-224.5 820.5,-224.5"/>
<text text-anchor="start" x="828.5" y="-242.5" font-family="Helvetica,sans-Serif" font-size="10.00">plazza::ConnectorPipe</text>
<text text-anchor="middle" x="878.5" y="-231.5" font-family="Helvetica,sans-Serif" font-size="10.00">::sendData</text>
</a>
</g>
</g>
<!-- Node7&#45;&gt;Node11 -->
<g id="edge10" class="edge"><title>Node7&#45;&gt;Node11</title>
<path fill="none" stroke="midnightblue" d="M766.046,-230.24C780.242,-231.419 795.593,-232.695 810.229,-233.911"/>
<polygon fill="midnightblue" stroke="midnightblue" points="809.97,-237.401 820.226,-234.741 810.55,-230.425 809.97,-237.401"/>
</g>
<!-- Node10 -->
<g id="node10" class="node"><title>Node10</title>
<g id="a_node10"><a xlink:href="classplazza_1_1_connector_pipe.html#a81c0af2d4860745accb6ddf522180740" target="_top" xlink:title="plazza::ConnectorPipe\l::getFd">
<polygon fill="none" stroke="black" points="980,-134.5 980,-164.5 1096,-164.5 1096,-134.5 980,-134.5"/>
<text text-anchor="start" x="988" y="-152.5" font-family="Helvetica,sans-Serif" font-size="10.00">plazza::ConnectorPipe</text>
<text text-anchor="middle" x="1038" y="-141.5" font-family="Helvetica,sans-Serif" font-size="10.00">::getFd</text>
</a>
</g>
</g>
<!-- Node9&#45;&gt;Node10 -->
<g id="edge9" class="edge"><title>Node9&#45;&gt;Node10</title>
<path fill="none" stroke="midnightblue" d="M936.807,-175.582C947.691,-172.749 959.167,-169.761 970.313,-166.86"/>
<polygon fill="midnightblue" stroke="midnightblue" points="971.204,-170.245 980,-164.338 969.44,-163.47 971.204,-170.245"/>
</g>
<!-- Node11&#45;&gt;Node10 -->
<g id="edge11" class="edge"><title>Node11&#45;&gt;Node10</title>
<path fill="none" stroke="midnightblue" d="M922.82,-224.367C930.027,-221.382 937.324,-218.06 944,-214.5 967.452,-201.995 992.016,-184.616 1010.01,-170.974"/>
<polygon fill="midnightblue" stroke="midnightblue" points="1012.48,-173.486 1018.28,-164.615 1008.21,-167.936 1012.48,-173.486"/>
</g>
<!-- Node13 -->
<g id="node13" class="node"><title>Node13</title>
<g id="a_node13"><a xlink:href="classplazza_1_1_office.html#ae5955f678a2422dee68f43b102502e57" target="_top" xlink:title="set number of available tasks ">
<polygon fill="none" stroke="black" points="639,-308.5 639,-338.5 777,-338.5 777,-308.5 639,-308.5"/>
<text text-anchor="start" x="647" y="-326.5" font-family="Helvetica,sans-Serif" font-size="10.00">plazza::Office::setFreeTask</text>
<text text-anchor="middle" x="708" y="-315.5" font-family="Helvetica,sans-Serif" font-size="10.00">Spots</text>
</a>
</g>
</g>
<!-- Node12&#45;&gt;Node13 -->
<g id="edge13" class="edge"><title>Node12&#45;&gt;Node13</title>
<path fill="none" stroke="midnightblue" d="M422.02,-292.648C480.712,-299.002 566.602,-308.3 628.734,-315.027"/>
<polygon fill="midnightblue" stroke="midnightblue" points="628.563,-318.529 638.881,-316.125 629.316,-311.569 628.563,-318.529"/>
</g>
<!-- Node14 -->
<g id="node14" class="node"><title>Node14</title>
<g id="a_node14"><a xlink:href="classplazza_1_1_office.html#a0ca9b3768cf184e6d95edee417ca0231" target="_top" xlink:title="Get number of available tasks. ">
<polygon fill="none" stroke="black" points="639,-259.5 639,-289.5 777,-289.5 777,-259.5 639,-259.5"/>
<text text-anchor="start" x="647" y="-277.5" font-family="Helvetica,sans-Serif" font-size="10.00">plazza::Office::getFreeTask</text>
<text text-anchor="middle" x="708" y="-266.5" font-family="Helvetica,sans-Serif" font-size="10.00">Spots</text>
</a>
</g>
</g>
<!-- Node12&#45;&gt;Node14 -->
<g id="edge14" class="edge"><title>Node12&#45;&gt;Node14</title>
<path fill="none" stroke="midnightblue" d="M422.02,-283.431C480.712,-281.592 566.602,-278.9 628.734,-276.953"/>
<polygon fill="midnightblue" stroke="midnightblue" points="628.996,-280.446 638.881,-276.635 628.777,-273.45 628.996,-280.446"/>
</g>
<!-- Node15 -->
<g id="node15" class="node"><title>Node15</title>
<g id="a_node15"><a xlink:href="classplazza_1_1_thread_pool.html#a353ba248e5dffc93f2912c9148da05fb" target="_top" xlink:title="Add a job to the queue. ">
<polygon fill="none" stroke="black" points="480,-352.5 480,-382.5 581,-382.5 581,-352.5 480,-352.5"/>
<text text-anchor="start" x="488" y="-370.5" font-family="Helvetica,sans-Serif" font-size="10.00">plazza::ThreadPool</text>
<text text-anchor="middle" x="530.5" y="-359.5" font-family="Helvetica,sans-Serif" font-size="10.00">::addJob</text>
</a>
</g>
</g>
<!-- Node12&#45;&gt;Node15 -->
<g id="edge15" class="edge"><title>Node12&#45;&gt;Node15</title>
<path fill="none" stroke="midnightblue" d="M373.858,-295.113C394.066,-305.872 428.069,-323.614 458,-337.5 465.985,-341.204 474.556,-344.974 482.892,-348.533"/>
<polygon fill="midnightblue" stroke="midnightblue" points="481.587,-351.781 492.161,-352.448 484.311,-345.333 481.587,-351.781"/>
</g>
<!-- Node17 -->
<g id="node17" class="node"><title>Node17</title>
<g id="a_node17"><a xlink:href="classplazza_1_1_office.html#a40e5e47be8961ded30ee24e588a04e51" target="_top" xlink:title="Finish the task and send it to the server. ">
<polygon fill="none" stroke="black" points="458,-238 458,-257 603,-257 603,-238 458,-238"/>
<text text-anchor="middle" x="530.5" y="-245" font-family="Helvetica,sans-Serif" font-size="10.00">plazza::Office::completeTask</text>
</a>
</g>
</g>
<!-- Node12&#45;&gt;Node17 -->
<g id="edge17" class="edge"><title>Node12&#45;&gt;Node17</title>
<path fill="none" stroke="midnightblue" d="M399.781,-275.911C422.986,-270.829 451.678,-264.545 476.173,-259.18"/>
<polygon fill="midnightblue" stroke="midnightblue" points="477.014,-262.579 486.033,-257.02 475.516,-255.741 477.014,-262.579"/>
</g>
<!-- Node16 -->
<g id="node16" class="node"><title>Node16</title>
<g id="a_node16"><a xlink:href="classplazza_1_1_cond_var.html#a5a2666ecbdb8b14acfe186c91097af75" target="_top" xlink:title="Notify one. ">
<polygon fill="none" stroke="black" points="639.5,-358 639.5,-377 776.5,-377 776.5,-358 639.5,-358"/>
<text text-anchor="middle" x="708" y="-365" font-family="Helvetica,sans-Serif" font-size="10.00">plazza::CondVar::notifyOne</text>
</a>
</g>
</g>
<!-- Node15&#45;&gt;Node16 -->
<g id="edge16" class="edge"><title>Node15&#45;&gt;Node16</title>
<path fill="none" stroke="midnightblue" d="M581.322,-367.5C596.26,-367.5 613.014,-367.5 629.3,-367.5"/>
<polygon fill="midnightblue" stroke="midnightblue" points="629.359,-371 639.359,-367.5 629.359,-364 629.359,-371"/>
</g>
<!-- Node17&#45;&gt;Node7 -->
<g id="edge21" class="edge"><title>Node17&#45;&gt;Node7</title>
<path fill="none" stroke="midnightblue" d="M603.136,-238.52C615.279,-236.998 627.85,-235.422 639.872,-233.915"/>
<polygon fill="midnightblue" stroke="midnightblue" points="640.334,-237.384 649.821,-232.668 639.463,-230.439 640.334,-237.384"/>
</g>
<!-- Node17&#45;&gt;Node13 -->
<g id="edge18" class="edge"><title>Node17&#45;&gt;Node13</title>
<path fill="none" stroke="midnightblue" d="M550.295,-257.054C571.57,-267.719 607.385,-285.221 639,-298.5 644.074,-300.631 649.399,-302.764 654.742,-304.835"/>
<polygon fill="midnightblue" stroke="midnightblue" points="653.737,-308.198 664.328,-308.485 656.228,-301.656 653.737,-308.198"/>
</g>
<!-- Node17&#45;&gt;Node14 -->
<g id="edge19" class="edge"><title>Node17&#45;&gt;Node14</title>
<path fill="none" stroke="midnightblue" d="M593.375,-257.019C604.862,-258.787 617,-260.654 628.898,-262.484"/>
<polygon fill="midnightblue" stroke="midnightblue" points="628.4,-265.949 638.816,-264.01 629.465,-259.03 628.4,-265.949"/>
</g>
<!-- Node18 -->
<g id="node18" class="node"><title>Node18</title>
<g id="a_node18"><a xlink:href="classplazza_1_1_office.html#a1f32b2702e30f57d8500edf91530f71c" target="_top" xlink:title="Get Office process pid. ">
<polygon fill="none" stroke="black" points="652.5,-172 652.5,-191 763.5,-191 763.5,-172 652.5,-172"/>
<text text-anchor="middle" x="708" y="-179" font-family="Helvetica,sans-Serif" font-size="10.00">plazza::Office::getPid</text>
</a>
</g>
</g>
<!-- Node17&#45;&gt;Node18 -->
<g id="edge20" class="edge"><title>Node17&#45;&gt;Node18</title>
<path fill="none" stroke="midnightblue" d="M550.98,-237.997C572.265,-227.848 607.533,-211.713 639,-200.5 645.517,-198.178 652.465,-195.956 659.338,-193.903"/>
<polygon fill="midnightblue" stroke="midnightblue" points="660.66,-197.165 669.294,-191.025 658.716,-190.44 660.66,-197.165"/>
</g>
<!-- Node19&#45;&gt;Node7 -->
<g id="edge24" class="edge"><title>Node19&#45;&gt;Node7</title>
<path fill="none" stroke="midnightblue" d="M550.705,-160.022C572.046,-170.464 607.638,-187.468 639,-200.5 644.082,-202.612 649.412,-204.732 654.759,-206.796"/>
<polygon fill="midnightblue" stroke="midnightblue" points="653.757,-210.159 664.349,-210.436 656.242,-203.615 653.757,-210.159"/>
</g>
<!-- Node19&#45;&gt;Node18 -->
<g id="edge23" class="edge"><title>Node19&#45;&gt;Node18</title>
<path fill="none" stroke="midnightblue" d="M584.156,-159.801C602.727,-163.081 623.81,-166.805 643.202,-170.231"/>
<polygon fill="midnightblue" stroke="midnightblue" points="642.71,-173.698 653.166,-171.991 643.928,-166.805 642.71,-173.698"/>
</g>
<!-- Node20 -->
<g id="node20" class="node"><title>Node20</title>
<g id="a_node20"><a xlink:href="classplazza_1_1_thread_pool.html#a927215245cf2e50525f7706056b26e50" target="_top" xlink:title="Stop the pool execution. ">
<polygon fill="none" stroke="black" points="657.5,-122.5 657.5,-152.5 758.5,-152.5 758.5,-122.5 657.5,-122.5"/>
<text text-anchor="start" x="665.5" y="-140.5" font-family="Helvetica,sans-Serif" font-size="10.00">plazza::ThreadPool</text>
<text text-anchor="middle" x="708" y="-129.5" font-family="Helvetica,sans-Serif" font-size="10.00">::stop</text>
</a>
</g>
</g>
<!-- Node19&#45;&gt;Node20 -->
<g id="edge25" class="edge"><title>Node19&#45;&gt;Node20</title>
<path fill="none" stroke="midnightblue" d="M584.156,-146.6C604.022,-145.128 626.761,-143.444 647.231,-141.927"/>
<polygon fill="midnightblue" stroke="midnightblue" points="647.673,-145.404 657.387,-141.175 647.156,-138.423 647.673,-145.404"/>
</g>
<!-- Node22 -->
<g id="node22" class="node"><title>Node22</title>
<g id="a_node22"><a xlink:href="classplazza_1_1_connector_pipe.html#a588544d4eebd85f8f05e43f826ea47bd" target="_top" xlink:title="plazza::ConnectorPipe\l::disconnect">
<polygon fill="none" stroke="black" points="820.5,-0.5 820.5,-30.5 936.5,-30.5 936.5,-0.5 820.5,-0.5"/>
<text text-anchor="start" x="828.5" y="-18.5" font-family="Helvetica,sans-Serif" font-size="10.00">plazza::ConnectorPipe</text>
<text text-anchor="middle" x="878.5" y="-7.5" font-family="Helvetica,sans-Serif" font-size="10.00">::disconnect</text>
</a>
</g>
</g>
<!-- Node19&#45;&gt;Node22 -->
<g id="edge27" class="edge"><title>Node19&#45;&gt;Node22</title>
<path fill="none" stroke="midnightblue" d="M538.222,-140.773C553.404,-119.675 592.656,-69.8126 639,-47.5 692.592,-21.6981 760.341,-14.6979 809.925,-13.5669"/>
<polygon fill="midnightblue" stroke="midnightblue" points="810.273,-17.0621 820.219,-13.41 810.166,-10.0629 810.273,-17.0621"/>
</g>
<!-- Node24 -->
<g id="node24" class="node"><title>Node24</title>
<g id="a_node24"><a xlink:href="classplazza_1_1_connector_pipe.html#ac6e124ff9380729df4e1491b3c365d95" target="_top" xlink:title="plazza::ConnectorPipe\l::destroy">
<polygon fill="none" stroke="black" points="650,-57.5 650,-87.5 766,-87.5 766,-57.5 650,-57.5"/>
<text text-anchor="start" x="658" y="-75.5" font-family="Helvetica,sans-Serif" font-size="10.00">plazza::ConnectorPipe</text>
<text text-anchor="middle" x="708" y="-64.5" font-family="Helvetica,sans-Serif" font-size="10.00">::destroy</text>
</a>
</g>
</g>
<!-- Node19&#45;&gt;Node24 -->
<g id="edge30" class="edge"><title>Node19&#45;&gt;Node24</title>
<path fill="none" stroke="midnightblue" d="M553.02,-140.936C580.378,-128.776 628.271,-107.491 663.399,-91.8782"/>
<polygon fill="midnightblue" stroke="midnightblue" points="665.224,-94.8972 672.941,-87.6375 662.381,-88.5006 665.224,-94.8972"/>
</g>
<!-- Node21 -->
<g id="node21" class="node"><title>Node21</title>
<g id="a_node21"><a xlink:href="classplazza_1_1_cond_var.html#a06ecb812639ea15519117b3be3524e43" target="_top" xlink:title="Notify all. ">
<polygon fill="none" stroke="black" points="813,-137 813,-156 944,-156 944,-137 813,-137"/>
<text text-anchor="middle" x="878.5" y="-144" font-family="Helvetica,sans-Serif" font-size="10.00">plazza::CondVar::notifyAll</text>
</a>
</g>
</g>
<!-- Node20&#45;&gt;Node21 -->
<g id="edge26" class="edge"><title>Node20&#45;&gt;Node21</title>
<path fill="none" stroke="midnightblue" d="M758.644,-140.152C772.447,-140.889 787.75,-141.706 802.656,-142.502"/>
<polygon fill="midnightblue" stroke="midnightblue" points="802.716,-146.01 812.888,-143.049 803.089,-139.02 802.716,-146.01"/>
</g>
<!-- Node22&#45;&gt;Node10 -->
<g id="edge28" class="edge"><title>Node22&#45;&gt;Node10</title>
<path fill="none" stroke="midnightblue" d="M928.42,-30.596C933.891,-33.1769 939.21,-36.1338 944,-39.5 977.347,-62.9357 1005.93,-101.117 1022.3,-125.769"/>
<polygon fill="midnightblue" stroke="midnightblue" points="1019.38,-127.704 1027.76,-134.187 1025.25,-123.893 1019.38,-127.704"/>
</g>
<!-- Node23 -->
<g id="node23" class="node"><title>Node23</title>
<g id="a_node23"><a xlink:href="classplazza_1_1_connector_pipe.html#a4609ad27d1a9847c051fc3be7638e656" target="_top" xlink:title="plazza::ConnectorPipe\l::setFd">
<polygon fill="none" stroke="black" points="980,-0.5 980,-30.5 1096,-30.5 1096,-0.5 980,-0.5"/>
<text text-anchor="start" x="988" y="-18.5" font-family="Helvetica,sans-Serif" font-size="10.00">plazza::ConnectorPipe</text>
<text text-anchor="middle" x="1038" y="-7.5" font-family="Helvetica,sans-Serif" font-size="10.00">::setFd</text>
</a>
</g>
</g>
<!-- Node22&#45;&gt;Node23 -->
<g id="edge29" class="edge"><title>Node22&#45;&gt;Node23</title>
<path fill="none" stroke="midnightblue" d="M936.807,-15.5C947.581,-15.5 958.935,-15.5 969.975,-15.5"/>
<polygon fill="midnightblue" stroke="midnightblue" points="970,-19.0001 980,-15.5 970,-12.0001 970,-19.0001"/>
</g>
<!-- Node24&#45;&gt;Node10 -->
<g id="edge31" class="edge"><title>Node24&#45;&gt;Node10</title>
<path fill="none" stroke="midnightblue" d="M766.473,-85.9107C814.056,-97.0236 883.431,-113.248 944,-127.5 952.449,-129.488 961.328,-131.582 970.109,-133.656"/>
<polygon fill="midnightblue" stroke="midnightblue" points="969.416,-137.089 979.953,-135.982 971.026,-130.276 969.416,-137.089"/>
</g>
<!-- Node24&#45;&gt;Node22 -->
<g id="edge32" class="edge"><title>Node24&#45;&gt;Node22</title>
<path fill="none" stroke="midnightblue" d="M753.713,-57.3747C775.03,-50.1635 800.715,-41.4748 823.15,-33.8856"/>
<polygon fill="midnightblue" stroke="midnightblue" points="824.52,-37.1169 832.871,-30.597 822.277,-30.486 824.52,-37.1169"/>
</g>
<!-- Node25 -->
<g id="node25" class="node"><title>Node25</title>
<g id="a_node25"><a xlink:href="classplazza_1_1_connector_pipe.html#acc3d09548d11f5e39ec5b53a2796e9df" target="_top" xlink:title="plazza::ConnectorPipe\l::getName">
<polygon fill="none" stroke="black" points="820.5,-49.5 820.5,-79.5 936.5,-79.5 936.5,-49.5 820.5,-49.5"/>
<text text-anchor="start" x="828.5" y="-67.5" font-family="Helvetica,sans-Serif" font-size="10.00">plazza::ConnectorPipe</text>
<text text-anchor="middle" x="878.5" y="-56.5" font-family="Helvetica,sans-Serif" font-size="10.00">::getName</text>
</a>
</g>
</g>
<!-- Node24&#45;&gt;Node25 -->
<g id="edge33" class="edge"><title>Node24&#45;&gt;Node25</title>
<path fill="none" stroke="midnightblue" d="M766.046,-69.7916C780.242,-69.1176 795.593,-68.3888 810.229,-67.6939"/>
<polygon fill="midnightblue" stroke="midnightblue" points="810.403,-71.1896 820.226,-67.2192 810.071,-64.1975 810.403,-71.1896"/>
</g>
</g>
</svg>
        <g id="navigator" transform="translate(0 0)" fill="#404254">
                <rect fill="#f2f5e9" fill-opacity="0.5" stroke="#606060" stroke-width=".5" x="0" y="0" width="60" height="60"/>
                <use id="zoomplus" xlink:href="#zoomPlus" x="17" y="9" onmousedown="handleZoom(evt,'in')"/>
                <use id="zoomminus" xlink:href="#zoomMin" x="42" y="9" onmousedown="handleZoom(evt,'out')"/>
                <use id="reset" xlink:href="#resetDef" x="30" y="36" onmousedown="handleReset()"/>
                <g id="arrowUp" xlink:href="#dirArrow" transform="translate(30 24)" onmousedown="handlePan(0,-1)">
                  <use xlink:href="#rim" fill="#404040">
                        <set attributeName="fill" to="#808080" begin="arrowUp.mouseover" end="arrowUp.mouseout"/>
                  </use>
                  <path fill="none" stroke="white" stroke-width="1.5" d="M0,-3.0v7 M-2.5,-0.5L0,-3.0L2.5,-0.5"/>
                </g>
                <g id="arrowRight" xlink:href="#dirArrow" transform="rotate(90) translate(36 -43)" onmousedown="handlePan(1,0)">
                  <use xlink:href="#rim" fill="#404040">
                        <set attributeName="fill" to="#808080" begin="arrowRight.mouseover" end="arrowRight.mouseout"/>
                  </use>
                  <path fill="none" stroke="white" stroke-width="1.5" d="M0,-3.0v7 M-2.5,-0.5L0,-3.0L2.5,-0.5"/>
                </g>
                <g id="arrowDown" xlink:href="#dirArrow" transform="rotate(180) translate(-30 -48)" onmousedown="handlePan(0,1)">
                  <use xlink:href="#rim" fill="#404040">
                        <set attributeName="fill" to="#808080" begin="arrowDown.mouseover" end="arrowDown.mouseout"/>
                  </use>
                  <path fill="none" stroke="white" stroke-width="1.5" d="M0,-3.0v7 M-2.5,-0.5L0,-3.0L2.5,-0.5"/>
                </g>
                <g id="arrowLeft" xlink:href="#dirArrow" transform="rotate(270) translate(-36 17)" onmousedown="handlePan(-1,0)">
                  <use xlink:href="#rim" fill="#404040">
                        <set attributeName="fill" to="#808080" begin="arrowLeft.mouseover" end="arrowLeft.mouseout"/>
                  </use>
                  <path fill="none" stroke="white" stroke-width="1.5" d="M0,-3.0v7 M-2.5,-0.5L0,-3.0L2.5,-0.5"/>
                </g>
        </g>
        <svg viewBox="0 0 15 15" width="100%" height="30px" preserveAspectRatio="xMaxYMin meet">
         <g id="arrow_out" transform="scale(0.3 0.3)">
          <a xlink:href="classplazza_1_1_office_a7c431da08f4460a011363f11f7066889_cgraph_org.svg" target="_base">
           <rect id="button" ry="5" rx="5" y="6" x="6" height="38" width="38"
                fill="#f2f5e9" fill-opacity="0.5" stroke="#606060" stroke-width="1.0"/>
           <path id="arrow"
             d="M 11.500037,31.436501 C 11.940474,20.09759 22.043105,11.32322 32.158766,21.979434 L 37.068811,17.246167 C 37.068811,17.246167 37.088388,32 37.088388,32 L 22.160133,31.978069 C 22.160133,31.978069 26.997745,27.140456 26.997745,27.140456 C 18.528582,18.264221 13.291696,25.230495 11.500037,31.436501 z"
             style="fill:#404040;"/>
          </a>
         </g>
        </svg>
</svg>
