<?xml version="1.0" encoding="UTF-8" standalone="no"?>
<!DOCTYPE svg PUBLIC "-//W3C//DTD SVG 1.1//EN"
 "http://www.w3.org/Graphics/SVG/1.1/DTD/svg11.dtd">
<!-- Generated by graphviz version 2.38.0 (20140413.2041)
 -->
<!-- Title: plazza::Worker::performJob Pages: 1 -->
<!--zoomable 339 -->
<svg id="main" version="1.1" xmlns="http://www.w3.org/2000/svg" xmlns:xlink="http://www.w3.org/1999/xlink" xml:space="preserve" onload="init(evt)">
<style type="text/css"><![CDATA[
.edge:hover path { stroke: red; }
.edge:hover polygon { stroke: red; fill: red; }
]]></style>
<script type="text/javascript"><![CDATA[
var edges = document.getElementsByTagName('g');
if (edges && edges.length) {
  for (var i=0;i<edges.length;i++) {
    if (edges[i].id.substr(0,4)=='edge') {
      edges[i].setAttribute('class','edge');
    }
  }
}
]]></script>
        <defs>
                <circle id="rim" cx="0" cy="0" r="7"/>
                <circle id="rim2" cx="0" cy="0" r="3.5"/>
                <g id="zoomPlus">
                        <use xlink:href="#rim" fill="#404040">
                                <set attributeName="fill" to="#808080" begin="zoomplus.mouseover" end="zoomplus.mouseout"/>
                        </use>
                        <path d="M-4,0h8M0,-4v8" fill="none" stroke="white" stroke-width="1.5" pointer-events="none"/>
                </g>
                <g id="zoomMin">
                        <use xlink:href="#rim" fill="#404040">
                                <set attributeName="fill" to="#808080" begin="zoomminus.mouseover" end="zoomminus.mouseout"/>
                        </use>
                        <path d="M-4,0h8" fill="none" stroke="white" stroke-width="1.5" pointer-events="none"/>
                </g>
                <g id="dirArrow">
                        <path fill="none" stroke="white" stroke-width="1.5" d="M0,-3.0v7 M-2.5,-0.5L0,-3.0L2.5,-0.5"/>
                </g>
               <g id="resetDef">
                       <use xlink:href="#rim2" fill="#404040">
                               <set attributeName="fill" to="#808080" begin="reset.mouseover" end="reset.mouseout"/>
                       </use>
               </g>
        </defs>

<script type="text/javascript">
var viewWidth = 606;
var viewHeight = 339;
var sectionId = 'dynsection-7';
</script>
<script xlink:href="svgpan.js"/>
<svg id="graph" class="graph">
<g id="viewport">
<title>plazza::Worker::performJob</title>
<!-- Node1 -->
<g id="node1" class="node"><title>Node1</title>
<polygon fill="#bfbfbf" stroke="black" points="0,-175 0,-194 137,-194 137,-175 0,-175"/>
<text text-anchor="middle" x="68.5" y="-182" font-family="Helvetica,sans-Serif" font-size="10.00">plazza::Worker::performJob</text>
</g>
<!-- Node2 -->
<g id="node2" class="node"><title>Node2</title>
<g id="a_node2"><a xlink:href="classplazza_1_1_file.html#a65844e0df72307648e3f5432ed964fdc" target="_top" xlink:title="Load file provided as parameter. ">
<polygon fill="none" stroke="black" points="187.5,-311 187.5,-330 278.5,-330 278.5,-311 187.5,-311"/>
<text text-anchor="middle" x="233" y="-318" font-family="Helvetica,sans-Serif" font-size="10.00">plazza::File::load</text>
</a>
</g>
</g>
<!-- Node1&#45;&gt;Node2 -->
<g id="edge1" class="edge"><title>Node1&#45;&gt;Node2</title>
<path fill="none" stroke="midnightblue" d="M76.1658,-194.224C91.1689,-215.467 129.682,-266.509 173,-296.5 178.742,-300.475 185.242,-303.95 191.776,-306.929"/>
<polygon fill="midnightblue" stroke="midnightblue" points="190.715,-310.28 201.29,-310.94 193.434,-303.83 190.715,-310.28"/>
</g>
<!-- Node4 -->
<g id="node4" class="node"><title>Node4</title>
<g id="a_node4"><a xlink:href="classplazza_1_1_file.html#a928bc2918fada3f1c04ca30d73e18341" target="_top" xlink:title="Check if file is loaded. ">
<polygon fill="none" stroke="black" points="337,-273 337,-292 441,-292 441,-273 337,-273"/>
<text text-anchor="middle" x="389" y="-280" font-family="Helvetica,sans-Serif" font-size="10.00">plazza::File::isOpen</text>
</a>
</g>
</g>
<!-- Node1&#45;&gt;Node4 -->
<g id="edge4" class="edge"><title>Node1&#45;&gt;Node4</title>
<path fill="none" stroke="midnightblue" d="M78.3439,-194.173C94.9452,-211.595 132.747,-247.885 173,-263.5 222.264,-282.61 282.492,-286.432 326.656,-286.01"/>
<polygon fill="midnightblue" stroke="midnightblue" points="326.733,-289.51 336.672,-285.84 326.613,-282.511 326.733,-289.51"/>
</g>
<!-- Node5 -->
<g id="node5" class="node"><title>Node5</title>
<g id="a_node5"><a xlink:href="classplazza_1_1_file.html#a9fb543de19476d4e0623788120dbe793" target="_top" xlink:title="Get loaded file buffer. ">
<polygon fill="none" stroke="black" points="176.5,-235 176.5,-254 289.5,-254 289.5,-235 176.5,-235"/>
<text text-anchor="middle" x="233" y="-242" font-family="Helvetica,sans-Serif" font-size="10.00">plazza::File::getBuffer</text>
</a>
</g>
</g>
<!-- Node1&#45;&gt;Node5 -->
<g id="edge5" class="edge"><title>Node1&#45;&gt;Node5</title>
<path fill="none" stroke="midnightblue" d="M92.3562,-194.054C113.22,-202.656 144.983,-215.452 173,-225.5 178.916,-227.622 185.204,-229.764 191.386,-231.808"/>
<polygon fill="midnightblue" stroke="midnightblue" points="190.352,-235.152 200.944,-234.92 192.519,-228.496 190.352,-235.152"/>
</g>
<!-- Node6 -->
<g id="node6" class="node"><title>Node6</title>
<g id="a_node6"><a xlink:href="classplazza_1_1_xor_cracker.html#a4d74f576654cf3a0b83ce937d56e2cef" target="_top" xlink:title="plazza::XorCracker::run">
<polygon fill="none" stroke="black" points="173,-197 173,-216 293,-216 293,-197 173,-197"/>
<text text-anchor="middle" x="233" y="-204" font-family="Helvetica,sans-Serif" font-size="10.00">plazza::XorCracker::run</text>
</a>
</g>
</g>
<!-- Node1&#45;&gt;Node6 -->
<g id="edge6" class="edge"><title>Node1&#45;&gt;Node6</title>
<path fill="none" stroke="midnightblue" d="M137.003,-193.639C145.589,-194.801 154.387,-195.992 162.997,-197.158"/>
<polygon fill="midnightblue" stroke="midnightblue" points="162.614,-200.638 172.994,-198.511 163.554,-193.701 162.614,-200.638"/>
</g>
<!-- Node11 -->
<g id="node11" class="node"><title>Node11</title>
<g id="a_node11"><a xlink:href="classplazza_1_1_xor_cracker.html#aea0b940bf73740a1747d5a7a71fa6eb8" target="_top" xlink:title="plazza::XorCracker\l::getKeyXor">
<polygon fill="none" stroke="black" points="182.5,-147.5 182.5,-177.5 283.5,-177.5 283.5,-147.5 182.5,-147.5"/>
<text text-anchor="start" x="190.5" y="-165.5" font-family="Helvetica,sans-Serif" font-size="10.00">plazza::XorCracker</text>
<text text-anchor="middle" x="233" y="-154.5" font-family="Helvetica,sans-Serif" font-size="10.00">::getKeyXor</text>
</a>
</g>
</g>
<!-- Node1&#45;&gt;Node11 -->
<g id="edge11" class="edge"><title>Node1&#45;&gt;Node11</title>
<path fill="none" stroke="midnightblue" d="M137.003,-175.361C148.738,-173.772 160.868,-172.13 172.373,-170.573"/>
<polygon fill="midnightblue" stroke="midnightblue" points="172.858,-174.039 182.298,-169.229 171.919,-167.102 172.858,-174.039"/>
</g>
<!-- Node13 -->
<g id="node13" class="node"><title>Node13</title>
<g id="a_node13"><a xlink:href="classplazza_1_1_xor_cypher.html#ad0a9d682c47c355d1e8ee848eaa8bd80" target="_top" xlink:title="Set current cypher key. ">
<polygon fill="none" stroke="black" points="181,-98.5 181,-128.5 285,-128.5 285,-98.5 181,-98.5"/>
<text text-anchor="start" x="189" y="-116.5" font-family="Helvetica,sans-Serif" font-size="10.00">plazza::XorCypher::</text>
<text text-anchor="middle" x="233" y="-105.5" font-family="Helvetica,sans-Serif" font-size="10.00">setKey</text>
</a>
</g>
</g>
<!-- Node1&#45;&gt;Node13 -->
<g id="edge13" class="edge"><title>Node1&#45;&gt;Node13</title>
<path fill="none" stroke="midnightblue" d="M90.0116,-174.894C110.817,-165.219 143.995,-149.979 173,-137.5 176.885,-135.828 180.927,-134.12 184.991,-132.424"/>
<polygon fill="midnightblue" stroke="midnightblue" points="186.549,-135.568 194.453,-128.511 183.874,-129.099 186.549,-135.568"/>
</g>
<!-- Node14 -->
<g id="node14" class="node"><title>Node14</title>
<g id="a_node14"><a xlink:href="classplazza_1_1_caesar_cypher.html#a6a66388dc0df6d0a66595b279432bf08" target="_top" xlink:title="set actual shift ">
<polygon fill="none" stroke="black" points="176,-49.5 176,-79.5 290,-79.5 290,-49.5 176,-49.5"/>
<text text-anchor="start" x="184" y="-67.5" font-family="Helvetica,sans-Serif" font-size="10.00">plazza::CaesarCypher</text>
<text text-anchor="middle" x="233" y="-56.5" font-family="Helvetica,sans-Serif" font-size="10.00">::setMoved</text>
</a>
</g>
</g>
<!-- Node1&#45;&gt;Node14 -->
<g id="edge14" class="edge"><title>Node1&#45;&gt;Node14</title>
<path fill="none" stroke="midnightblue" d="M77.7149,-174.829C94.1368,-156.002 132.896,-114.04 173,-88.5 175.405,-86.9686 177.923,-85.5022 180.509,-84.1033"/>
<polygon fill="midnightblue" stroke="midnightblue" points="182.111,-87.2156 189.487,-79.6105 178.978,-80.9556 182.111,-87.2156"/>
</g>
<!-- Node15 -->
<g id="node15" class="node"><title>Node15</title>
<g id="a_node15"><a xlink:href="classplazza_1_1_xor_cracker.html#a6cd011c228fb1cce2424815604ca2c9a" target="_top" xlink:title="plazza::XorCracker\l::getKeyCaesar">
<polygon fill="none" stroke="black" points="182.5,-0.5 182.5,-30.5 283.5,-30.5 283.5,-0.5 182.5,-0.5"/>
<text text-anchor="start" x="190.5" y="-18.5" font-family="Helvetica,sans-Serif" font-size="10.00">plazza::XorCracker</text>
<text text-anchor="middle" x="233" y="-7.5" font-family="Helvetica,sans-Serif" font-size="10.00">::getKeyCaesar</text>
</a>
</g>
</g>
<!-- Node1&#45;&gt;Node15 -->
<g id="edge15" class="edge"><title>Node1&#45;&gt;Node15</title>
<path fill="none" stroke="midnightblue" d="M73.9024,-174.959C86.0976,-149.497 122.762,-79.187 173,-39.5 174.594,-38.2404 176.264,-37.038 177.99,-35.8911"/>
<polygon fill="midnightblue" stroke="midnightblue" points="180.14,-38.6874 186.997,-30.6105 176.6,-32.6486 180.14,-38.6874"/>
</g>
<!-- Node3 -->
<g id="node3" class="node"><title>Node3</title>
<g id="a_node3"><a xlink:href="classplazza_1_1_file.html#aad99fa99466b458697a29effd5677b96" target="_top" xlink:title="Define file state. ">
<polygon fill="none" stroke="black" points="334,-311 334,-330 444,-330 444,-311 334,-311"/>
<text text-anchor="middle" x="389" y="-318" font-family="Helvetica,sans-Serif" font-size="10.00">plazza::File::setOpen</text>
</a>
</g>
</g>
<!-- Node2&#45;&gt;Node3 -->
<g id="edge2" class="edge"><title>Node2&#45;&gt;Node3</title>
<path fill="none" stroke="midnightblue" d="M278.543,-320.5C292.545,-320.5 308.3,-320.5 323.402,-320.5"/>
<polygon fill="midnightblue" stroke="midnightblue" points="323.722,-324 333.722,-320.5 323.722,-317 323.722,-324"/>
</g>
<!-- Node2&#45;&gt;Node4 -->
<g id="edge3" class="edge"><title>Node2&#45;&gt;Node4</title>
<path fill="none" stroke="midnightblue" d="M272.861,-310.911C293.091,-305.919 318.021,-299.768 339.504,-294.467"/>
<polygon fill="midnightblue" stroke="midnightblue" points="340.548,-297.814 349.419,-292.02 338.871,-291.018 340.548,-297.814"/>
</g>
<!-- Node7 -->
<g id="node7" class="node"><title>Node7</title>
<g id="a_node7"><a xlink:href="classplazza_1_1_xor_cracker.html#a0b187c82af91eba8d23f9cac170fe90a" target="_top" xlink:title="plazza::XorCracker\l::setBuffer">
<polygon fill="none" stroke="black" points="338.5,-207.5 338.5,-237.5 439.5,-237.5 439.5,-207.5 338.5,-207.5"/>
<text text-anchor="start" x="346.5" y="-225.5" font-family="Helvetica,sans-Serif" font-size="10.00">plazza::XorCracker</text>
<text text-anchor="middle" x="389" y="-214.5" font-family="Helvetica,sans-Serif" font-size="10.00">::setBuffer</text>
</a>
</g>
</g>
<!-- Node6&#45;&gt;Node7 -->
<g id="edge7" class="edge"><title>Node6&#45;&gt;Node7</title>
<path fill="none" stroke="midnightblue" d="M293.1,-212.64C304.646,-213.84 316.761,-215.099 328.326,-216.3"/>
<polygon fill="midnightblue" stroke="midnightblue" points="328.011,-219.786 338.32,-217.338 328.735,-212.824 328.011,-219.786"/>
</g>
<!-- Node8 -->
<g id="node8" class="node"><title>Node8</title>
<g id="a_node8"><a xlink:href="classplazza_1_1_xor_cracker.html#ad190633b59d1fb23b403f44d837085f8" target="_top" xlink:title="plazza::XorCracker::run">
<polygon fill="none" stroke="black" points="329,-169 329,-188 449,-188 449,-169 329,-169"/>
<text text-anchor="middle" x="389" y="-176" font-family="Helvetica,sans-Serif" font-size="10.00">plazza::XorCracker::run</text>
</a>
</g>
</g>
<!-- Node6&#45;&gt;Node8 -->
<g id="edge8" class="edge"><title>Node6&#45;&gt;Node8</title>
<path fill="none" stroke="midnightblue" d="M286.567,-196.942C299.081,-194.667 312.554,-192.217 325.465,-189.87"/>
<polygon fill="midnightblue" stroke="midnightblue" points="326.457,-193.247 335.67,-188.015 325.205,-186.36 326.457,-193.247"/>
</g>
<!-- Node9 -->
<g id="node9" class="node"><title>Node9</title>
<g id="a_node9"><a xlink:href="classplazza_1_1_xor_cracker.html#a39471c4bb769b0b20a3fdd34f5a77cec" target="_top" xlink:title="plazza::XorCracker\l::getMaxKeyLength">
<polygon fill="none" stroke="black" points="491,-188.5 491,-218.5 592,-218.5 592,-188.5 491,-188.5"/>
<text text-anchor="start" x="499" y="-206.5" font-family="Helvetica,sans-Serif" font-size="10.00">plazza::XorCracker</text>
<text text-anchor="middle" x="541.5" y="-195.5" font-family="Helvetica,sans-Serif" font-size="10.00">::getMaxKeyLength</text>
</a>
</g>
</g>
<!-- Node8&#45;&gt;Node9 -->
<g id="edge9" class="edge"><title>Node8&#45;&gt;Node9</title>
<path fill="none" stroke="midnightblue" d="M447.327,-188.023C458.266,-189.84 469.742,-191.746 480.754,-193.575"/>
<polygon fill="midnightblue" stroke="midnightblue" points="480.271,-197.043 490.709,-195.229 481.418,-190.138 480.271,-197.043"/>
</g>
<!-- Node10 -->
<g id="node10" class="node"><title>Node10</title>
<g id="a_node10"><a xlink:href="classplazza_1_1_xor_cracker.html#aa398a0cced229d03cf6a51c1b1ab8ba3" target="_top" xlink:title="plazza::XorCracker\l::setKnownKeyLength">
<polygon fill="none" stroke="black" points="485,-139.5 485,-169.5 598,-169.5 598,-139.5 485,-139.5"/>
<text text-anchor="start" x="493" y="-157.5" font-family="Helvetica,sans-Serif" font-size="10.00">plazza::XorCracker</text>
<text text-anchor="middle" x="541.5" y="-146.5" font-family="Helvetica,sans-Serif" font-size="10.00">::setKnownKeyLength</text>
</a>
</g>
</g>
<!-- Node8&#45;&gt;Node10 -->
<g id="edge10" class="edge"><title>Node8&#45;&gt;Node10</title>
<path fill="none" stroke="midnightblue" d="M449.05,-169.083C457.455,-167.743 466.142,-166.358 474.667,-164.998"/>
<polygon fill="midnightblue" stroke="midnightblue" points="475.247,-168.45 484.571,-163.419 474.145,-161.537 475.247,-168.45"/>
</g>
<!-- Node12 -->
<g id="node12" class="node"><title>Node12</title>
<g id="a_node12"><a xlink:href="classplazza_1_1_xor_cracker.html#a9bb75f11814aa5eb3264be361c1be106" target="_top" xlink:title="plazza::XorCracker\l::getKnownKeyLength">
<polygon fill="none" stroke="black" points="332.5,-68.5 332.5,-98.5 445.5,-98.5 445.5,-68.5 332.5,-68.5"/>
<text text-anchor="start" x="340.5" y="-86.5" font-family="Helvetica,sans-Serif" font-size="10.00">plazza::XorCracker</text>
<text text-anchor="middle" x="389" y="-75.5" font-family="Helvetica,sans-Serif" font-size="10.00">::getKnownKeyLength</text>
</a>
</g>
</g>
<!-- Node11&#45;&gt;Node12 -->
<g id="edge12" class="edge"><title>Node11&#45;&gt;Node12</title>
<path fill="none" stroke="midnightblue" d="M271.435,-147.412C278.66,-144.283 286.118,-140.9 293,-137.5 313.857,-127.196 336.531,-114.374 354.494,-103.809"/>
<polygon fill="midnightblue" stroke="midnightblue" points="356.607,-106.626 363.424,-98.5161 353.037,-100.604 356.607,-106.626"/>
</g>
<!-- Node15&#45;&gt;Node12 -->
<g id="edge16" class="edge"><title>Node15&#45;&gt;Node12</title>
<path fill="none" stroke="midnightblue" d="M271.881,-30.5992C278.926,-33.495 286.205,-36.5465 293,-39.5 310.836,-47.2531 330.359,-56.2118 347.042,-64.0138"/>
<polygon fill="midnightblue" stroke="midnightblue" points="345.963,-67.3738 356.503,-68.456 348.939,-61.0375 345.963,-67.3738"/>
</g>
</g>
</svg>
        <g id="navigator" transform="translate(0 0)" fill="#404254">
                <rect fill="#f2f5e9" fill-opacity="0.5" stroke="#606060" stroke-width=".5" x="0" y="0" width="60" height="60"/>
                <use id="zoomplus" xlink:href="#zoomPlus" x="17" y="9" onmousedown="handleZoom(evt,'in')"/>
                <use id="zoomminus" xlink:href="#zoomMin" x="42" y="9" onmousedown="handleZoom(evt,'out')"/>
                <use id="reset" xlink:href="#resetDef" x="30" y="36" onmousedown="handleReset()"/>
                <g id="arrowUp" xlink:href="#dirArrow" transform="translate(30 24)" onmousedown="handlePan(0,-1)">
                  <use xlink:href="#rim" fill="#404040">
                        <set attributeName="fill" to="#808080" begin="arrowUp.mouseover" end="arrowUp.mouseout"/>
                  </use>
                  <path fill="none" stroke="white" stroke-width="1.5" d="M0,-3.0v7 M-2.5,-0.5L0,-3.0L2.5,-0.5"/>
                </g>
                <g id="arrowRight" xlink:href="#dirArrow" transform="rotate(90) translate(36 -43)" onmousedown="handlePan(1,0)">
                  <use xlink:href="#rim" fill="#404040">
                        <set attributeName="fill" to="#808080" begin="arrowRight.mouseover" end="arrowRight.mouseout"/>
                  </use>
                  <path fill="none" stroke="white" stroke-width="1.5" d="M0,-3.0v7 M-2.5,-0.5L0,-3.0L2.5,-0.5"/>
                </g>
                <g id="arrowDown" xlink:href="#dirArrow" transform="rotate(180) translate(-30 -48)" onmousedown="handlePan(0,1)">
                  <use xlink:href="#rim" fill="#404040">
                        <set attributeName="fill" to="#808080" begin="arrowDown.mouseover" end="arrowDown.mouseout"/>
                  </use>
                  <path fill="none" stroke="white" stroke-width="1.5" d="M0,-3.0v7 M-2.5,-0.5L0,-3.0L2.5,-0.5"/>
                </g>
                <g id="arrowLeft" xlink:href="#dirArrow" transform="rotate(270) translate(-36 17)" onmousedown="handlePan(-1,0)">
                  <use xlink:href="#rim" fill="#404040">
                        <set attributeName="fill" to="#808080" begin="arrowLeft.mouseover" end="arrowLeft.mouseout"/>
                  </use>
                  <path fill="none" stroke="white" stroke-width="1.5" d="M0,-3.0v7 M-2.5,-0.5L0,-3.0L2.5,-0.5"/>
                </g>
        </g>
        <svg viewBox="0 0 15 15" width="100%" height="30px" preserveAspectRatio="xMaxYMin meet">
         <g id="arrow_out" transform="scale(0.3 0.3)">
          <a xlink:href="classplazza_1_1_worker_af17344ef0f0311dadb4f7c7ea9565031_cgraph_org.svg" target="_base">
           <rect id="button" ry="5" rx="5" y="6" x="6" height="38" width="38"
                fill="#f2f5e9" fill-opacity="0.5" stroke="#606060" stroke-width="1.0"/>
           <path id="arrow"
             d="M 11.500037,31.436501 C 11.940474,20.09759 22.043105,11.32322 32.158766,21.979434 L 37.068811,17.246167 C 37.068811,17.246167 37.088388,32 37.088388,32 L 22.160133,31.978069 C 22.160133,31.978069 26.997745,27.140456 26.997745,27.140456 C 18.528582,18.264221 13.291696,25.230495 11.500037,31.436501 z"
             style="fill:#404040;"/>
          </a>
         </g>
        </svg>
</svg>
