<?xml version="1.0" encoding="UTF-8" standalone="no"?>
<!DOCTYPE svg PUBLIC "-//W3C//DTD SVG 1.1//EN"
 "http://www.w3.org/Graphics/SVG/1.1/DTD/svg11.dtd">
<!-- Generated by graphviz version 2.38.0 (20140413.2041)
 -->
<!-- Title: plazza::XorCracker::setBuffer Pages: 1 -->
<svg width="719pt" height="100pt"
 viewBox="0.00 0.00 719.00 99.50" xmlns="http://www.w3.org/2000/svg" xmlns:xlink="http://www.w3.org/1999/xlink">
<g id="graph0" class="graph" transform="scale(1 1) rotate(0) translate(4 95.5)">
<title>plazza::XorCracker::setBuffer</title>
<!-- Node1 -->
<g id="node1" class="node"><title>Node1</title>
<polygon fill="#bfbfbf" stroke="black" points="0,-22.5 0,-52.5 101,-52.5 101,-22.5 0,-22.5"/>
<text text-anchor="start" x="8" y="-40.5" font-family="Helvetica,sans-Serif" font-size="10.00">plazza::XorCracker</text>
<text text-anchor="middle" x="50.5" y="-29.5" font-family="Helvetica,sans-Serif" font-size="10.00">::setBuffer</text>
</g>
<!-- Node2 -->
<g id="node2" class="node"><title>Node2</title>
<g id="a_node2"><a xlink:href="classplazza_1_1_xor_cracker.html#a4d74f576654cf3a0b83ce937d56e2cef" target="_top" xlink:title="plazza::XorCracker::run">
<polygon fill="none" stroke="black" points="137,-28 137,-47 257,-47 257,-28 137,-28"/>
<text text-anchor="middle" x="197" y="-35" font-family="Helvetica,sans-Serif" font-size="10.00">plazza::XorCracker::run</text>
</a>
</g>
</g>
<!-- Node1&#45;&gt;Node2 -->
<g id="edge1" class="edge"><title>Node1&#45;&gt;Node2</title>
<path fill="none" stroke="midnightblue" d="M111.391,-37.5C119.843,-37.5 128.528,-37.5 136.964,-37.5"/>
<polygon fill="midnightblue" stroke="midnightblue" points="111.229,-34.0001 101.229,-37.5 111.229,-41.0001 111.229,-34.0001"/>
</g>
<!-- Node3 -->
<g id="node3" class="node"><title>Node3</title>
<g id="a_node3"><a xlink:href="classplazza_1_1_worker.html#af17344ef0f0311dadb4f7c7ea9565031" target="_top" xlink:title="Send task to perform to the worker. ">
<polygon fill="none" stroke="black" points="293,-28 293,-47 430,-47 430,-28 293,-28"/>
<text text-anchor="middle" x="361.5" y="-35" font-family="Helvetica,sans-Serif" font-size="10.00">plazza::Worker::performJob</text>
</a>
</g>
</g>
<!-- Node2&#45;&gt;Node3 -->
<g id="edge2" class="edge"><title>Node2&#45;&gt;Node3</title>
<path fill="none" stroke="midnightblue" d="M267.337,-37.5C275.801,-37.5 284.441,-37.5 292.88,-37.5"/>
<polygon fill="midnightblue" stroke="midnightblue" points="267.126,-34.0001 257.126,-37.5 267.126,-41.0001 267.126,-34.0001"/>
</g>
<!-- Node4 -->
<g id="node4" class="node"><title>Node4</title>
<g id="a_node4"><a xlink:href="classplazza_1_1_worker.html#aa7561bf24cd0a90230ddd99b43b18a11" target="_top" xlink:title="Start thread execution. ">
<polygon fill="none" stroke="black" points="466,-72 466,-91 574,-91 574,-72 466,-72"/>
<text text-anchor="middle" x="520" y="-79" font-family="Helvetica,sans-Serif" font-size="10.00">plazza::Worker::start</text>
</a>
</g>
</g>
<!-- Node3&#45;&gt;Node4 -->
<g id="edge3" class="edge"><title>Node3&#45;&gt;Node4</title>
<path fill="none" stroke="midnightblue" d="M406.395,-49.8412C431.322,-56.8493 462.051,-65.4888 485.108,-71.9713"/>
<polygon fill="midnightblue" stroke="midnightblue" points="407.032,-46.3846 396.458,-47.0473 405.138,-53.1233 407.032,-46.3846"/>
</g>
<!-- Node5 -->
<g id="node5" class="node"><title>Node5</title>
<g id="a_node5"><a xlink:href="classplazza_1_1_thread_pool.html#a85b5323591017ee418afb0fdc9e3d9a7" target="_top" xlink:title="Get the number of total workers. ">
<polygon fill="none" stroke="black" points="469.5,-22.5 469.5,-52.5 570.5,-52.5 570.5,-22.5 469.5,-22.5"/>
<text text-anchor="start" x="477.5" y="-40.5" font-family="Helvetica,sans-Serif" font-size="10.00">plazza::ThreadPool</text>
<text text-anchor="middle" x="520" y="-29.5" font-family="Helvetica,sans-Serif" font-size="10.00">::getNbWorkers</text>
</a>
</g>
</g>
<!-- Node3&#45;&gt;Node5 -->
<g id="edge4" class="edge"><title>Node3&#45;&gt;Node5</title>
<path fill="none" stroke="midnightblue" d="M440.382,-37.5C450.148,-37.5 459.921,-37.5 469.094,-37.5"/>
<polygon fill="midnightblue" stroke="midnightblue" points="440.233,-34.0001 430.233,-37.5 440.233,-41.0001 440.233,-34.0001"/>
</g>
<!-- Node6 -->
<g id="node6" class="node"><title>Node6</title>
<g id="a_node6"><a xlink:href="classplazza_1_1_thread_pool.html#ae3447aa58cee4c5206d194f144d207c3" target="_top" xlink:title="Class constructor. ">
<polygon fill="none" stroke="black" points="610,-0.5 610,-30.5 711,-30.5 711,-0.5 610,-0.5"/>
<text text-anchor="start" x="618" y="-18.5" font-family="Helvetica,sans-Serif" font-size="10.00">plazza::ThreadPool</text>
<text text-anchor="middle" x="660.5" y="-7.5" font-family="Helvetica,sans-Serif" font-size="10.00">::ThreadPool</text>
</a>
</g>
</g>
<!-- Node3&#45;&gt;Node6 -->
<g id="edge6" class="edge"><title>Node3&#45;&gt;Node6</title>
<path fill="none" stroke="midnightblue" d="M405.157,-25.3039C423.685,-20.6081 445.744,-15.8178 466,-13.5 513.689,-8.04325 526.003,-12.9387 574,-13.5 585.581,-13.6354 598.041,-13.874 609.771,-14.1403"/>
<polygon fill="midnightblue" stroke="midnightblue" points="404.052,-21.9748 395.26,-27.8866 405.82,-28.748 404.052,-21.9748"/>
</g>
<!-- Node5&#45;&gt;Node6 -->
<g id="edge5" class="edge"><title>Node5&#45;&gt;Node6</title>
<path fill="none" stroke="midnightblue" d="M580.615,-28.0304C590.338,-26.4861 600.318,-24.9007 609.77,-23.3993"/>
<polygon fill="midnightblue" stroke="midnightblue" points="579.938,-24.5941 570.61,-29.6196 581.036,-31.5074 579.938,-24.5941"/>
</g>
</g>
</svg>
