<?xml version="1.0" encoding="UTF-8" standalone="no"?>
<!DOCTYPE svg PUBLIC "-//W3C//DTD SVG 1.1//EN"
 "http://www.w3.org/Graphics/SVG/1.1/DTD/svg11.dtd">
<!-- Generated by graphviz version 2.38.0 (20140413.2041)
 -->
<!-- Title: /home/gogo/rendu/tek2/cpp_plazza/gui/includes/Reception.hpp Pages: 1 -->
<!--zoomable 442 -->
<svg id="main" version="1.1" xmlns="http://www.w3.org/2000/svg" xmlns:xlink="http://www.w3.org/1999/xlink" xml:space="preserve" onload="init(evt)">
<style type="text/css"><![CDATA[
.edge:hover path { stroke: red; }
.edge:hover polygon { stroke: red; fill: red; }
]]></style>
<script type="text/javascript"><![CDATA[
var edges = document.getElementsByTagName('g');
if (edges && edges.length) {
  for (var i=0;i<edges.length;i++) {
    if (edges[i].id.substr(0,4)=='edge') {
      edges[i].setAttribute('class','edge');
    }
  }
}
]]></script>
        <defs>
                <circle id="rim" cx="0" cy="0" r="7"/>
                <circle id="rim2" cx="0" cy="0" r="3.5"/>
                <g id="zoomPlus">
                        <use xlink:href="#rim" fill="#404040">
                                <set attributeName="fill" to="#808080" begin="zoomplus.mouseover" end="zoomplus.mouseout"/>
                        </use>
                        <path d="M-4,0h8M0,-4v8" fill="none" stroke="white" stroke-width="1.5" pointer-events="none"/>
                </g>
                <g id="zoomMin">
                        <use xlink:href="#rim" fill="#404040">
                                <set attributeName="fill" to="#808080" begin="zoomminus.mouseover" end="zoomminus.mouseout"/>
                        </use>
                        <path d="M-4,0h8" fill="none" stroke="white" stroke-width="1.5" pointer-events="none"/>
                </g>
                <g id="dirArrow">
                        <path fill="none" stroke="white" stroke-width="1.5" d="M0,-3.0v7 M-2.5,-0.5L0,-3.0L2.5,-0.5"/>
                </g>
               <g id="resetDef">
                       <use xlink:href="#rim2" fill="#404040">
                               <set attributeName="fill" to="#808080" begin="reset.mouseover" end="reset.mouseout"/>
                       </use>
               </g>
        </defs>

<script type="text/javascript">
var viewWidth = 1236;
var viewHeight = 442;
var sectionId = 'dynsection-0';
</script>
<script xlink:href="svgpan.js"/>
<svg id="graph" class="graph">
<g id="viewport">
<title>/home/gogo/rendu/tek2/cpp_plazza/gui/includes/Reception.hpp</title>
<!-- Node1 -->
<g id="node1" class="node"><title>Node1</title>
<polygon fill="#bfbfbf" stroke="black" points="221,-392.5 221,-433.5 345,-433.5 345,-392.5 221,-392.5"/>
<text text-anchor="start" x="229" y="-421.5" font-family="Helvetica,sans-Serif" font-size="10.00">/home/gogo/rendu/tek2</text>
<text text-anchor="start" x="229" y="-410.5" font-family="Helvetica,sans-Serif" font-size="10.00">/cpp_plazza/gui/includes</text>
<text text-anchor="middle" x="283" y="-399.5" font-family="Helvetica,sans-Serif" font-size="10.00">/Reception.hpp</text>
</g>
<!-- Node2 -->
<g id="node2" class="node"><title>Node2</title>
<polygon fill="none" stroke="#bfbfbf" points="377,-56.5 377,-75.5 421,-75.5 421,-56.5 377,-56.5"/>
<text text-anchor="middle" x="399" y="-63.5" font-family="Helvetica,sans-Serif" font-size="10.00">vector</text>
</g>
<!-- Node1&#45;&gt;Node2 -->
<g id="edge1" class="edge"><title>Node1&#45;&gt;Node2</title>
<path fill="none" stroke="midnightblue" d="M224.284,-392.325C181.137,-373.731 130,-341.121 130,-291 130,-291 130,-291 130,-177 130,-142.844 142.838,-131.327 171,-112 202.421,-90.4361 311.62,-76.1935 366.701,-70.2092"/>
<polygon fill="midnightblue" stroke="midnightblue" points="367.381,-73.6568 376.956,-69.1227 366.643,-66.6958 367.381,-73.6568"/>
</g>
<!-- Node3 -->
<g id="node3" class="node"><title>Node3</title>
<g id="a_node3"><a xlink:href="gui_2includes_2_office_8hpp.html" target="_top" xlink:title="Office.hpp">
<polygon fill="none" stroke="black" points="231,-280.5 231,-299.5 293,-299.5 293,-280.5 231,-280.5"/>
<text text-anchor="middle" x="262" y="-287.5" font-family="Helvetica,sans-Serif" font-size="10.00">Office.hpp</text>
</a>
</g>
</g>
<!-- Node1&#45;&gt;Node3 -->
<g id="edge2" class="edge"><title>Node1&#45;&gt;Node3</title>
<path fill="none" stroke="midnightblue" d="M250.505,-392.308C238.239,-382.982 225.65,-370.655 219,-356 210.65,-337.599 226.676,-318.546 241.48,-305.864"/>
<polygon fill="midnightblue" stroke="midnightblue" points="243.791,-308.498 249.415,-299.519 239.419,-303.03 243.791,-308.498"/>
</g>
<!-- Node7 -->
<g id="node7" class="node"><title>Node7</title>
<g id="a_node7"><a xlink:href="gui_2includes_2_connector_pipe_8hpp.html" target="_top" xlink:title="ConnectorPipe.hpp">
<polygon fill="none" stroke="black" points="2,-224.5 2,-243.5 102,-243.5 102,-224.5 2,-224.5"/>
<text text-anchor="middle" x="52" y="-231.5" font-family="Helvetica,sans-Serif" font-size="10.00">ConnectorPipe.hpp</text>
</a>
</g>
</g>
<!-- Node1&#45;&gt;Node7 -->
<g id="edge48" class="edge"><title>Node1&#45;&gt;Node7</title>
<path fill="none" stroke="midnightblue" d="M220.67,-402.728C186.612,-395.003 145.489,-381.036 116,-356 83.5044,-328.411 65.1258,-280.079 57.035,-253.617"/>
<polygon fill="midnightblue" stroke="midnightblue" points="60.3204,-252.378 54.1863,-243.739 53.5945,-254.318 60.3204,-252.378"/>
</g>
<!-- Node29 -->
<g id="node29" class="node"><title>Node29</title>
<g id="a_node29"><a xlink:href="gui_2includes_2_process_manager_8hpp.html" target="_top" xlink:title="ProcessManager.hpp">
<polygon fill="none" stroke="black" points="228.5,-336.5 228.5,-355.5 337.5,-355.5 337.5,-336.5 228.5,-336.5"/>
<text text-anchor="middle" x="283" y="-343.5" font-family="Helvetica,sans-Serif" font-size="10.00">ProcessManager.hpp</text>
</a>
</g>
</g>
<!-- Node1&#45;&gt;Node29 -->
<g id="edge43" class="edge"><title>Node1&#45;&gt;Node29</title>
<path fill="none" stroke="midnightblue" d="M283,-392.498C283,-384.065 283,-374.235 283,-365.874"/>
<polygon fill="midnightblue" stroke="midnightblue" points="286.5,-365.652 283,-355.652 279.5,-365.653 286.5,-365.652"/>
</g>
<!-- Node32 -->
<g id="node32" class="node"><title>Node32</title>
<polygon fill="none" stroke="#bfbfbf" points="356,-336.5 356,-355.5 428,-355.5 428,-336.5 356,-336.5"/>
<text text-anchor="middle" x="392" y="-343.5" font-family="Helvetica,sans-Serif" font-size="10.00">QApplication</text>
</g>
<!-- Node1&#45;&gt;Node32 -->
<g id="edge49" class="edge"><title>Node1&#45;&gt;Node32</title>
<path fill="none" stroke="midnightblue" d="M315.704,-392.498C332.737,-382.34 353.171,-370.155 368.603,-360.952"/>
<polygon fill="midnightblue" stroke="midnightblue" points="370.694,-363.78 377.49,-355.652 367.109,-357.768 370.694,-363.78"/>
</g>
<!-- Node33 -->
<g id="node33" class="node"><title>Node33</title>
<g id="a_node33"><a xlink:href="mainwindow_8h.html" target="_top" xlink:title="mainwindow.h">
<polygon fill="none" stroke="black" points="446.5,-336.5 446.5,-355.5 525.5,-355.5 525.5,-336.5 446.5,-336.5"/>
<text text-anchor="middle" x="486" y="-343.5" font-family="Helvetica,sans-Serif" font-size="10.00">mainwindow.h</text>
</a>
</g>
</g>
<!-- Node1&#45;&gt;Node33 -->
<g id="edge50" class="edge"><title>Node1&#45;&gt;Node33</title>
<path fill="none" stroke="midnightblue" d="M343.907,-392.498C378.277,-381.493 420.083,-368.106 449.42,-358.713"/>
<polygon fill="midnightblue" stroke="midnightblue" points="450.788,-361.95 459.244,-355.567 448.653,-355.283 450.788,-361.95"/>
</g>
<!-- Node36 -->
<g id="node36" class="node"><title>Node36</title>
<polygon fill="none" stroke="#bfbfbf" points="544,-336.5 544,-355.5 636,-355.5 636,-336.5 544,-336.5"/>
<text text-anchor="middle" x="590" y="-343.5" font-family="Helvetica,sans-Serif" font-size="10.00">ui_mainwindow.h</text>
</g>
<!-- Node1&#45;&gt;Node36 -->
<g id="edge53" class="edge"><title>Node1&#45;&gt;Node36</title>
<path fill="none" stroke="midnightblue" d="M345.126,-398.846C402.407,-386.718 486.378,-368.94 539.599,-357.671"/>
<polygon fill="midnightblue" stroke="midnightblue" points="540.432,-361.073 549.49,-355.577 538.982,-354.224 540.432,-361.073"/>
</g>
<!-- Node3&#45;&gt;Node2 -->
<g id="edge5" class="edge"><title>Node3&#45;&gt;Node2</title>
<path fill="none" stroke="midnightblue" d="M240.958,-280.352C225.998,-273.016 206.874,-260.963 197,-244 167.402,-193.152 149.968,-157.718 187,-112 209.258,-84.5216 313.125,-73.1346 366.758,-69.0231"/>
<polygon fill="midnightblue" stroke="midnightblue" points="367.055,-72.5108 376.776,-68.2952 366.548,-65.5292 367.055,-72.5108"/>
</g>
<!-- Node4 -->
<g id="node4" class="node"><title>Node4</title>
<polygon fill="none" stroke="#bfbfbf" points="1058,-112.5 1058,-131.5 1112,-131.5 1112,-112.5 1058,-112.5"/>
<text text-anchor="middle" x="1085" y="-119.5" font-family="Helvetica,sans-Serif" font-size="10.00">iostream</text>
</g>
<!-- Node3&#45;&gt;Node4 -->
<g id="edge3" class="edge"><title>Node3&#45;&gt;Node4</title>
<path fill="none" stroke="midnightblue" d="M293.214,-282.83C336.977,-274.174 419.06,-257.926 489,-244 734.649,-195.087 799.661,-187.87 1047.86,-132.178"/>
<polygon fill="midnightblue" stroke="midnightblue" points="1048.92,-135.528 1057.91,-129.92 1047.38,-128.699 1048.92,-135.528"/>
</g>
<!-- Node5 -->
<g id="node5" class="node"><title>Node5</title>
<polygon fill="none" stroke="#bfbfbf" points="206,-224.5 206,-243.5 274,-243.5 274,-224.5 206,-224.5"/>
<text text-anchor="middle" x="240" y="-231.5" font-family="Helvetica,sans-Serif" font-size="10.00">sys/types.h</text>
</g>
<!-- Node3&#45;&gt;Node5 -->
<g id="edge4" class="edge"><title>Node3&#45;&gt;Node5</title>
<path fill="none" stroke="midnightblue" d="M258.367,-280.083C255.388,-272.77 251.074,-262.181 247.375,-253.103"/>
<polygon fill="midnightblue" stroke="midnightblue" points="250.58,-251.691 243.565,-243.751 244.097,-254.333 250.58,-251.691"/>
</g>
<!-- Node6 -->
<g id="node6" class="node"><title>Node6</title>
<polygon fill="none" stroke="#bfbfbf" points="292,-224.5 292,-243.5 338,-243.5 338,-224.5 292,-224.5"/>
<text text-anchor="middle" x="315" y="-231.5" font-family="Helvetica,sans-Serif" font-size="10.00">chrono</text>
</g>
<!-- Node3&#45;&gt;Node6 -->
<g id="edge6" class="edge"><title>Node3&#45;&gt;Node6</title>
<path fill="none" stroke="midnightblue" d="M270.752,-280.083C278.47,-272.22 289.905,-260.569 299.217,-251.081"/>
<polygon fill="midnightblue" stroke="midnightblue" points="301.904,-253.34 306.411,-243.751 296.908,-248.436 301.904,-253.34"/>
</g>
<!-- Node3&#45;&gt;Node7 -->
<g id="edge7" class="edge"><title>Node3&#45;&gt;Node7</title>
<path fill="none" stroke="midnightblue" d="M230.561,-280.916C194.592,-271.666 135.479,-256.466 95.2008,-246.109"/>
<polygon fill="midnightblue" stroke="midnightblue" points="95.9487,-242.687 85.3921,-243.587 94.2053,-249.467 95.9487,-242.687"/>
</g>
<!-- Node10 -->
<g id="node10" class="node"><title>Node10</title>
<g id="a_node10"><a xlink:href="gui_2includes_2_thread_pool_8hpp.html" target="_top" xlink:title="ThreadPool.hpp">
<polygon fill="none" stroke="black" points="395.5,-224.5 395.5,-243.5 480.5,-243.5 480.5,-224.5 395.5,-224.5"/>
<text text-anchor="middle" x="438" y="-231.5" font-family="Helvetica,sans-Serif" font-size="10.00">ThreadPool.hpp</text>
</a>
</g>
</g>
<!-- Node3&#45;&gt;Node10 -->
<g id="edge11" class="edge"><title>Node3&#45;&gt;Node10</title>
<path fill="none" stroke="midnightblue" d="M289.888,-280.444C319.754,-271.28 367.315,-256.688 400.456,-246.519"/>
<polygon fill="midnightblue" stroke="midnightblue" points="401.709,-249.796 410.243,-243.516 399.656,-243.104 401.709,-249.796"/>
</g>
<!-- Node8 -->
<g id="node8" class="node"><title>Node8</title>
<polygon fill="none" stroke="#bfbfbf" points="651.5,-0.5 651.5,-19.5 692.5,-19.5 692.5,-0.5 651.5,-0.5"/>
<text text-anchor="middle" x="672" y="-7.5" font-family="Helvetica,sans-Serif" font-size="10.00">string</text>
</g>
<!-- Node7&#45;&gt;Node8 -->
<g id="edge8" class="edge"><title>Node7&#45;&gt;Node8</title>
<path fill="none" stroke="midnightblue" d="M56.1344,-224.182C68.6665,-197.606 105.984,-119.637 116,-112 200.107,-47.8659 536.964,-20.1172 641.141,-12.959"/>
<polygon fill="midnightblue" stroke="midnightblue" points="641.563,-16.4386 651.305,-12.2757 641.093,-9.45439 641.563,-16.4386"/>
</g>
<!-- Node9 -->
<g id="node9" class="node"><title>Node9</title>
<g id="a_node9"><a xlink:href="gui_2includes_2_config_8hpp.html" target="_top" xlink:title="Config.hpp">
<polygon fill="none" stroke="black" points="0,-168.5 0,-187.5 64,-187.5 64,-168.5 0,-168.5"/>
<text text-anchor="middle" x="32" y="-175.5" font-family="Helvetica,sans-Serif" font-size="10.00">Config.hpp</text>
</a>
</g>
</g>
<!-- Node7&#45;&gt;Node9 -->
<g id="edge9" class="edge"><title>Node7&#45;&gt;Node9</title>
<path fill="none" stroke="midnightblue" d="M48.6974,-224.083C46.018,-216.849 42.1514,-206.409 38.8136,-197.397"/>
<polygon fill="midnightblue" stroke="midnightblue" points="41.9965,-195.913 35.2411,-187.751 35.4322,-198.344 41.9965,-195.913"/>
</g>
<!-- Node9&#45;&gt;Node8 -->
<g id="edge10" class="edge"><title>Node9&#45;&gt;Node8</title>
<path fill="none" stroke="midnightblue" d="M32.3143,-168.458C33.6564,-145.77 40.7293,-83.8401 78,-56 123.351,-22.1241 525.588,-13.2778 641.106,-11.4264"/>
<polygon fill="midnightblue" stroke="midnightblue" points="641.424,-14.922 651.369,-11.2684 641.316,-7.92283 641.424,-14.922"/>
</g>
<!-- Node10&#45;&gt;Node2 -->
<g id="edge12" class="edge"><title>Node10&#45;&gt;Node2</title>
<path fill="none" stroke="midnightblue" d="M435.903,-224.075C429.764,-197.945 411.736,-121.211 403.364,-85.577"/>
<polygon fill="midnightblue" stroke="midnightblue" points="406.707,-84.5025 401.013,-75.5681 399.893,-86.1036 406.707,-84.5025"/>
</g>
<!-- Node11 -->
<g id="node11" class="node"><title>Node11</title>
<polygon fill="none" stroke="#bfbfbf" points="466,-168.5 466,-187.5 510,-187.5 510,-168.5 466,-168.5"/>
<text text-anchor="middle" x="488" y="-175.5" font-family="Helvetica,sans-Serif" font-size="10.00">mutex</text>
</g>
<!-- Node10&#45;&gt;Node11 -->
<g id="edge13" class="edge"><title>Node10&#45;&gt;Node11</title>
<path fill="none" stroke="midnightblue" d="M446.256,-224.083C453.465,-216.298 464.11,-204.801 472.846,-195.367"/>
<polygon fill="midnightblue" stroke="midnightblue" points="475.671,-197.467 479.897,-187.751 470.535,-192.711 475.671,-197.467"/>
</g>
<!-- Node12 -->
<g id="node12" class="node"><title>Node12</title>
<polygon fill="none" stroke="#bfbfbf" points="528.5,-168.5 528.5,-187.5 571.5,-187.5 571.5,-168.5 528.5,-168.5"/>
<text text-anchor="middle" x="550" y="-175.5" font-family="Helvetica,sans-Serif" font-size="10.00">queue</text>
</g>
<!-- Node10&#45;&gt;Node12 -->
<g id="edge14" class="edge"><title>Node10&#45;&gt;Node12</title>
<path fill="none" stroke="midnightblue" d="M455.995,-224.324C474.038,-215.625 502.047,-202.12 522.803,-192.113"/>
<polygon fill="midnightblue" stroke="midnightblue" points="524.562,-195.15 532.05,-187.655 521.522,-188.845 524.562,-195.15"/>
</g>
<!-- Node13 -->
<g id="node13" class="node"><title>Node13</title>
<g id="a_node13"><a xlink:href="gui_2includes_2_thread_8hpp.html" target="_top" xlink:title="Thread.hpp">
<polygon fill="none" stroke="black" points="428.5,-112.5 428.5,-131.5 493.5,-131.5 493.5,-112.5 428.5,-112.5"/>
<text text-anchor="middle" x="461" y="-119.5" font-family="Helvetica,sans-Serif" font-size="10.00">Thread.hpp</text>
</a>
</g>
</g>
<!-- Node10&#45;&gt;Node13 -->
<g id="edge15" class="edge"><title>Node10&#45;&gt;Node13</title>
<path fill="none" stroke="midnightblue" d="M439.805,-224.368C443.516,-206.617 452.079,-165.666 457.111,-141.597"/>
<polygon fill="midnightblue" stroke="midnightblue" points="460.583,-142.096 459.204,-131.591 453.731,-140.663 460.583,-142.096"/>
</g>
<!-- Node15 -->
<g id="node15" class="node"><title>Node15</title>
<g id="a_node15"><a xlink:href="gui_2includes_2_mutex_8hpp.html" target="_top" xlink:title="Mutex.hpp">
<polygon fill="none" stroke="black" points="196,-112.5 196,-131.5 258,-131.5 258,-112.5 196,-112.5"/>
<text text-anchor="middle" x="227" y="-119.5" font-family="Helvetica,sans-Serif" font-size="10.00">Mutex.hpp</text>
</a>
</g>
</g>
<!-- Node10&#45;&gt;Node15 -->
<g id="edge17" class="edge"><title>Node10&#45;&gt;Node15</title>
<path fill="none" stroke="midnightblue" d="M395.201,-228.36C361.098,-223.006 313.37,-211.674 278,-188 259.813,-175.827 245.188,-155.075 236.341,-140.294"/>
<polygon fill="midnightblue" stroke="midnightblue" points="239.374,-138.548 231.381,-131.593 233.293,-142.014 239.374,-138.548"/>
</g>
<!-- Node16 -->
<g id="node16" class="node"><title>Node16</title>
<g id="a_node16"><a xlink:href="gui_2includes_2_cond_var_8hpp.html" target="_top" xlink:title="CondVar.hpp">
<polygon fill="none" stroke="black" points="287,-168.5 287,-187.5 361,-187.5 361,-168.5 287,-168.5"/>
<text text-anchor="middle" x="324" y="-175.5" font-family="Helvetica,sans-Serif" font-size="10.00">CondVar.hpp</text>
</a>
</g>
</g>
<!-- Node10&#45;&gt;Node16 -->
<g id="edge18" class="edge"><title>Node10&#45;&gt;Node16</title>
<path fill="none" stroke="midnightblue" d="M419.936,-224.444C401.425,-215.675 372.419,-201.935 351.145,-191.858"/>
<polygon fill="midnightblue" stroke="midnightblue" points="352.515,-188.634 341.979,-187.516 349.518,-194.96 352.515,-188.634"/>
</g>
<!-- Node18 -->
<g id="node18" class="node"><title>Node18</title>
<g id="a_node18"><a xlink:href="gui_2includes_2_worker_8hpp.html" target="_top" xlink:title="Worker.hpp">
<polygon fill="none" stroke="black" points="678.5,-168.5 678.5,-187.5 745.5,-187.5 745.5,-168.5 678.5,-168.5"/>
<text text-anchor="middle" x="712" y="-175.5" font-family="Helvetica,sans-Serif" font-size="10.00">Worker.hpp</text>
</a>
</g>
</g>
<!-- Node10&#45;&gt;Node18 -->
<g id="edge21" class="edge"><title>Node10&#45;&gt;Node18</title>
<path fill="none" stroke="midnightblue" d="M480.512,-224.622C531.666,-214.54 617.088,-197.705 668.624,-187.549"/>
<polygon fill="midnightblue" stroke="midnightblue" points="669.325,-190.978 678.46,-185.61 667.971,-184.11 669.325,-190.978"/>
</g>
<!-- Node23 -->
<g id="node23" class="node"><title>Node23</title>
<g id="a_node23"><a xlink:href="gui_2includes_2_command_8hpp.html" target="_top" xlink:title="Command.hpp">
<polygon fill="none" stroke="black" points="512,-112.5 512,-131.5 592,-131.5 592,-112.5 512,-112.5"/>
<text text-anchor="middle" x="552" y="-119.5" font-family="Helvetica,sans-Serif" font-size="10.00">Command.hpp</text>
</a>
</g>
</g>
<!-- Node10&#45;&gt;Node23 -->
<g id="edge42" class="edge"><title>Node10&#45;&gt;Node23</title>
<path fill="none" stroke="midnightblue" d="M480.758,-232.188C513.759,-229.028 557.467,-218.778 580,-188 590.94,-173.057 579.293,-153.179 567.863,-139.356"/>
<polygon fill="midnightblue" stroke="midnightblue" points="570.244,-136.768 560.978,-131.631 565.018,-141.425 570.244,-136.768"/>
</g>
<!-- Node14 -->
<g id="node14" class="node"><title>Node14</title>
<polygon fill="none" stroke="#bfbfbf" points="439,-56.5 439,-75.5 483,-75.5 483,-56.5 439,-56.5"/>
<text text-anchor="middle" x="461" y="-63.5" font-family="Helvetica,sans-Serif" font-size="10.00">thread</text>
</g>
<!-- Node13&#45;&gt;Node14 -->
<g id="edge16" class="edge"><title>Node13&#45;&gt;Node14</title>
<path fill="none" stroke="midnightblue" d="M461,-112.083C461,-105.006 461,-94.8611 461,-85.9865"/>
<polygon fill="midnightblue" stroke="midnightblue" points="464.5,-85.751 461,-75.7511 457.5,-85.7511 464.5,-85.751"/>
</g>
<!-- Node16&#45;&gt;Node15 -->
<g id="edge20" class="edge"><title>Node16&#45;&gt;Node15</title>
<path fill="none" stroke="midnightblue" d="M308.415,-168.324C293.001,-159.743 269.188,-146.486 251.29,-136.522"/>
<polygon fill="midnightblue" stroke="midnightblue" points="252.986,-133.461 242.546,-131.655 249.581,-139.577 252.986,-133.461"/>
</g>
<!-- Node17 -->
<g id="node17" class="node"><title>Node17</title>
<polygon fill="none" stroke="#bfbfbf" points="276.5,-112.5 276.5,-131.5 371.5,-131.5 371.5,-112.5 276.5,-112.5"/>
<text text-anchor="middle" x="324" y="-119.5" font-family="Helvetica,sans-Serif" font-size="10.00">condition_variable</text>
</g>
<!-- Node16&#45;&gt;Node17 -->
<g id="edge19" class="edge"><title>Node16&#45;&gt;Node17</title>
<path fill="none" stroke="midnightblue" d="M324,-168.083C324,-161.006 324,-150.861 324,-141.986"/>
<polygon fill="midnightblue" stroke="midnightblue" points="327.5,-141.751 324,-131.751 320.5,-141.751 327.5,-141.751"/>
</g>
<!-- Node18&#45;&gt;Node4 -->
<g id="edge23" class="edge"><title>Node18&#45;&gt;Node4</title>
<path fill="none" stroke="midnightblue" d="M745.683,-173.768C804.843,-167.818 931.409,-153.875 1047.8,-132.039"/>
<polygon fill="midnightblue" stroke="midnightblue" points="1048.78,-135.416 1057.95,-130.11 1047.47,-128.539 1048.78,-135.416"/>
</g>
<!-- Node18&#45;&gt;Node13 -->
<g id="edge24" class="edge"><title>Node18&#45;&gt;Node13</title>
<path fill="none" stroke="midnightblue" d="M678.409,-169.773C633.263,-160.061 552.991,-142.791 503.635,-132.172"/>
<polygon fill="midnightblue" stroke="midnightblue" points="504.108,-128.694 493.596,-130.013 502.636,-135.538 504.108,-128.694"/>
</g>
<!-- Node19 -->
<g id="node19" class="node"><title>Node19</title>
<polygon fill="none" stroke="#bfbfbf" points="610.5,-112.5 610.5,-131.5 651.5,-131.5 651.5,-112.5 610.5,-112.5"/>
<text text-anchor="middle" x="631" y="-119.5" font-family="Helvetica,sans-Serif" font-size="10.00">regex</text>
</g>
<!-- Node18&#45;&gt;Node19 -->
<g id="edge22" class="edge"><title>Node18&#45;&gt;Node19</title>
<path fill="none" stroke="midnightblue" d="M698.986,-168.324C686.468,-159.979 667.318,-147.212 652.529,-137.352"/>
<polygon fill="midnightblue" stroke="midnightblue" points="654.244,-134.289 643.982,-131.655 650.361,-140.114 654.244,-134.289"/>
</g>
<!-- Node20 -->
<g id="node20" class="node"><title>Node20</title>
<g id="a_node20"><a xlink:href="gui_2includes_2_file_8hpp.html" target="_top" xlink:title="File.hpp">
<polygon fill="none" stroke="black" points="772.5,-112.5 772.5,-131.5 823.5,-131.5 823.5,-112.5 772.5,-112.5"/>
<text text-anchor="middle" x="798" y="-119.5" font-family="Helvetica,sans-Serif" font-size="10.00">File.hpp</text>
</a>
</g>
</g>
<!-- Node18&#45;&gt;Node20 -->
<g id="edge25" class="edge"><title>Node18&#45;&gt;Node20</title>
<path fill="none" stroke="midnightblue" d="M725.817,-168.324C739.233,-159.9 759.824,-146.971 775.586,-137.074"/>
<polygon fill="midnightblue" stroke="midnightblue" points="777.609,-139.936 784.217,-131.655 773.887,-134.008 777.609,-139.936"/>
</g>
<!-- Node18&#45;&gt;Node23 -->
<g id="edge29" class="edge"><title>Node18&#45;&gt;Node23</title>
<path fill="none" stroke="midnightblue" d="M686.648,-168.444C659.731,-159.359 617.004,-144.939 586.913,-134.783"/>
<polygon fill="midnightblue" stroke="midnightblue" points="587.828,-131.398 577.234,-131.516 585.59,-138.031 587.828,-131.398"/>
</g>
<!-- Node25 -->
<g id="node25" class="node"><title>Node25</title>
<g id="a_node25"><a xlink:href="gui_2includes_2_xor_cypher_8hpp.html" target="_top" xlink:title="XorCypher.hpp">
<polygon fill="none" stroke="black" points="842,-112.5 842,-131.5 924,-131.5 924,-112.5 842,-112.5"/>
<text text-anchor="middle" x="883" y="-119.5" font-family="Helvetica,sans-Serif" font-size="10.00">XorCypher.hpp</text>
</a>
</g>
</g>
<!-- Node18&#45;&gt;Node25 -->
<g id="edge33" class="edge"><title>Node18&#45;&gt;Node25</title>
<path fill="none" stroke="midnightblue" d="M739.095,-168.444C767.988,-159.32 813.925,-144.813 846.105,-134.651"/>
<polygon fill="midnightblue" stroke="midnightblue" points="847.549,-137.865 856.031,-131.516 845.441,-131.19 847.549,-137.865"/>
</g>
<!-- Node27 -->
<g id="node27" class="node"><title>Node27</title>
<g id="a_node27"><a xlink:href="gui_2includes_2_caesar_cypher_8hpp.html" target="_top" xlink:title="CaesarCypher.hpp">
<polygon fill="none" stroke="black" points="942,-112.5 942,-131.5 1040,-131.5 1040,-112.5 942,-112.5"/>
<text text-anchor="middle" x="991" y="-119.5" font-family="Helvetica,sans-Serif" font-size="10.00">CaesarCypher.hpp</text>
</a>
</g>
</g>
<!-- Node18&#45;&gt;Node27 -->
<g id="edge36" class="edge"><title>Node18&#45;&gt;Node27</title>
<path fill="none" stroke="midnightblue" d="M745.654,-170.486C793.097,-161.304 880.164,-144.452 936.794,-133.491"/>
<polygon fill="midnightblue" stroke="midnightblue" points="937.498,-136.92 946.651,-131.584 936.168,-130.048 937.498,-136.92"/>
</g>
<!-- Node28 -->
<g id="node28" class="node"><title>Node28</title>
<g id="a_node28"><a xlink:href="gui_2includes_2_xor_cracker_8hpp.html" target="_top" xlink:title="XorCracker.hpp">
<polygon fill="none" stroke="black" points="669.5,-112.5 669.5,-131.5 754.5,-131.5 754.5,-112.5 669.5,-112.5"/>
<text text-anchor="middle" x="712" y="-119.5" font-family="Helvetica,sans-Serif" font-size="10.00">XorCracker.hpp</text>
</a>
</g>
</g>
<!-- Node18&#45;&gt;Node28 -->
<g id="edge38" class="edge"><title>Node18&#45;&gt;Node28</title>
<path fill="none" stroke="midnightblue" d="M712,-168.083C712,-161.006 712,-150.861 712,-141.986"/>
<polygon fill="midnightblue" stroke="midnightblue" points="715.5,-141.751 712,-131.751 708.5,-141.751 715.5,-141.751"/>
</g>
<!-- Node20&#45;&gt;Node8 -->
<g id="edge26" class="edge"><title>Node20&#45;&gt;Node8</title>
<path fill="none" stroke="midnightblue" d="M807.706,-112.401C821.249,-99.3586 842.695,-74.1717 829,-56 813.811,-35.8463 743.838,-21.9628 702.61,-15.3737"/>
<polygon fill="midnightblue" stroke="midnightblue" points="702.969,-11.8878 692.552,-13.8195 701.9,-18.8057 702.969,-11.8878"/>
</g>
<!-- Node21 -->
<g id="node21" class="node"><title>Node21</title>
<polygon fill="none" stroke="#bfbfbf" points="700,-56.5 700,-75.5 750,-75.5 750,-56.5 700,-56.5"/>
<text text-anchor="middle" x="725" y="-63.5" font-family="Helvetica,sans-Serif" font-size="10.00">fstream</text>
</g>
<!-- Node20&#45;&gt;Node21 -->
<g id="edge27" class="edge"><title>Node20&#45;&gt;Node21</title>
<path fill="none" stroke="midnightblue" d="M786.271,-112.324C775.163,-104.107 758.258,-91.6017 745.017,-81.8069"/>
<polygon fill="midnightblue" stroke="midnightblue" points="747.063,-78.9671 736.942,-75.8339 742.9,-84.5948 747.063,-78.9671"/>
</g>
<!-- Node22 -->
<g id="node22" class="node"><title>Node22</title>
<polygon fill="none" stroke="#bfbfbf" points="768,-56.5 768,-75.5 820,-75.5 820,-56.5 768,-56.5"/>
<text text-anchor="middle" x="794" y="-63.5" font-family="Helvetica,sans-Serif" font-size="10.00">sstream</text>
</g>
<!-- Node20&#45;&gt;Node22 -->
<g id="edge28" class="edge"><title>Node20&#45;&gt;Node22</title>
<path fill="none" stroke="midnightblue" d="M797.339,-112.083C796.815,-105.006 796.064,-94.8611 795.406,-85.9865"/>
<polygon fill="midnightblue" stroke="midnightblue" points="798.877,-85.4652 794.648,-75.7511 791.897,-85.9823 798.877,-85.4652"/>
</g>
<!-- Node23&#45;&gt;Node2 -->
<g id="edge31" class="edge"><title>Node23&#45;&gt;Node2</title>
<path fill="none" stroke="midnightblue" d="M527.757,-112.444C501.526,-103.186 459.595,-88.3866 430.752,-78.2066"/>
<polygon fill="midnightblue" stroke="midnightblue" points="431.738,-74.8429 421.143,-74.8151 429.408,-81.4438 431.738,-74.8429"/>
</g>
<!-- Node23&#45;&gt;Node8 -->
<g id="edge30" class="edge"><title>Node23&#45;&gt;Node8</title>
<path fill="none" stroke="midnightblue" d="M555.389,-112.462C561.062,-99.0486 573.595,-72.8347 591,-56 605.692,-41.7892 625.754,-30.5993 642.236,-22.9324"/>
<polygon fill="midnightblue" stroke="midnightblue" points="643.745,-26.0918 651.459,-18.8291 640.9,-19.6962 643.745,-26.0918"/>
</g>
<!-- Node24 -->
<g id="node24" class="node"><title>Node24</title>
<polygon fill="none" stroke="#bfbfbf" points="600.5,-56.5 600.5,-75.5 635.5,-75.5 635.5,-56.5 600.5,-56.5"/>
<text text-anchor="middle" x="618" y="-63.5" font-family="Helvetica,sans-Serif" font-size="10.00">map</text>
</g>
<!-- Node23&#45;&gt;Node24 -->
<g id="edge32" class="edge"><title>Node23&#45;&gt;Node24</title>
<path fill="none" stroke="midnightblue" d="M562.604,-112.324C572.456,-104.263 587.351,-92.0765 599.215,-82.3695"/>
<polygon fill="midnightblue" stroke="midnightblue" points="601.68,-84.8752 607.203,-75.8339 597.247,-79.4575 601.68,-84.8752"/>
</g>
<!-- Node26 -->
<g id="node26" class="node"><title>Node26</title>
<g id="a_node26"><a xlink:href="gui_2includes_2_a_cypher_8hpp.html" target="_top" xlink:title="ACypher.hpp">
<polygon fill="none" stroke="black" points="876,-56.5 876,-75.5 950,-75.5 950,-56.5 876,-56.5"/>
<text text-anchor="middle" x="913" y="-63.5" font-family="Helvetica,sans-Serif" font-size="10.00">ACypher.hpp</text>
</a>
</g>
</g>
<!-- Node25&#45;&gt;Node26 -->
<g id="edge34" class="edge"><title>Node25&#45;&gt;Node26</title>
<path fill="none" stroke="midnightblue" d="M887.954,-112.083C892.104,-104.613 898.153,-93.7244 903.267,-84.5199"/>
<polygon fill="midnightblue" stroke="midnightblue" points="906.341,-86.1924 908.138,-75.7511 900.222,-82.7929 906.341,-86.1924"/>
</g>
<!-- Node26&#45;&gt;Node8 -->
<g id="edge35" class="edge"><title>Node26&#45;&gt;Node8</title>
<path fill="none" stroke="midnightblue" d="M875.872,-56.6808C828.322,-46.0265 746.8,-27.7601 702.621,-17.8611"/>
<polygon fill="midnightblue" stroke="midnightblue" points="703.275,-14.421 692.752,-15.6498 701.745,-21.2517 703.275,-14.421"/>
</g>
<!-- Node27&#45;&gt;Node26 -->
<g id="edge37" class="edge"><title>Node27&#45;&gt;Node26</title>
<path fill="none" stroke="midnightblue" d="M978.468,-112.324C966.414,-103.979 947.973,-91.2122 933.731,-81.3524"/>
<polygon fill="midnightblue" stroke="midnightblue" points="935.715,-78.469 925.501,-75.6545 931.731,-84.2243 935.715,-78.469"/>
</g>
<!-- Node28&#45;&gt;Node2 -->
<g id="edge40" class="edge"><title>Node28&#45;&gt;Node2</title>
<path fill="none" stroke="midnightblue" d="M669.442,-113.577C666.248,-113.037 663.074,-112.506 660,-112 561.1,-95.7025 532.753,-98.2832 431.313,-76.0607"/>
<polygon fill="midnightblue" stroke="midnightblue" points="431.784,-72.5801 421.263,-73.8312 430.268,-79.414 431.784,-72.5801"/>
</g>
<!-- Node28&#45;&gt;Node8 -->
<g id="edge39" class="edge"><title>Node28&#45;&gt;Node8</title>
<path fill="none" stroke="midnightblue" d="M707.408,-112.207C702.853,-103.259 695.866,-88.9074 691,-76 685.168,-60.5296 680.01,-42.4418 676.545,-29.2804"/>
<polygon fill="midnightblue" stroke="midnightblue" points="679.925,-28.3695 674.056,-19.5491 673.143,-30.1046 679.925,-28.3695"/>
</g>
<!-- Node28&#45;&gt;Node24 -->
<g id="edge41" class="edge"><title>Node28&#45;&gt;Node24</title>
<path fill="none" stroke="midnightblue" d="M696.897,-112.324C682.097,-103.822 659.306,-90.7288 642.018,-80.7975"/>
<polygon fill="midnightblue" stroke="midnightblue" points="643.48,-77.6009 633.065,-75.6545 639.993,-83.6707 643.48,-77.6009"/>
</g>
<!-- Node29&#45;&gt;Node3 -->
<g id="edge44" class="edge"><title>Node29&#45;&gt;Node3</title>
<path fill="none" stroke="midnightblue" d="M279.532,-336.083C276.688,-328.77 272.571,-318.181 269.04,-309.103"/>
<polygon fill="midnightblue" stroke="midnightblue" points="272.29,-307.803 265.403,-299.751 265.766,-310.34 272.29,-307.803"/>
</g>
<!-- Node30 -->
<g id="node30" class="node"><title>Node30</title>
<g id="a_node30"><a xlink:href="gui_2includes_2_error_8hpp.html" target="_top" xlink:title="Error.hpp">
<polygon fill="none" stroke="black" points="372,-280.5 372,-299.5 428,-299.5 428,-280.5 372,-280.5"/>
<text text-anchor="middle" x="400" y="-287.5" font-family="Helvetica,sans-Serif" font-size="10.00">Error.hpp</text>
</a>
</g>
</g>
<!-- Node29&#45;&gt;Node30 -->
<g id="edge45" class="edge"><title>Node29&#45;&gt;Node30</title>
<path fill="none" stroke="midnightblue" d="M301.539,-336.444C320.623,-327.636 350.575,-313.812 372.436,-303.722"/>
<polygon fill="midnightblue" stroke="midnightblue" points="373.935,-306.885 381.548,-299.516 371.001,-300.529 373.935,-306.885"/>
</g>
<!-- Node30&#45;&gt;Node8 -->
<g id="edge46" class="edge"><title>Node30&#45;&gt;Node8</title>
<path fill="none" stroke="midnightblue" d="M428.221,-281.84C431.177,-281.179 434.144,-280.551 437,-280 591.967,-250.092 1140,-336.826 1140,-179 1140,-179 1140,-179 1140,-121 1140,-30.9168 807.253,-14.5414 702.908,-11.6209"/>
<polygon fill="midnightblue" stroke="midnightblue" points="702.8,-8.11704 692.713,-11.3587 702.62,-15.1147 702.8,-8.11704"/>
</g>
<!-- Node31 -->
<g id="node31" class="node"><title>Node31</title>
<polygon fill="none" stroke="#bfbfbf" points="1168.5,-224.5 1168.5,-243.5 1227.5,-243.5 1227.5,-224.5 1168.5,-224.5"/>
<text text-anchor="middle" x="1198" y="-231.5" font-family="Helvetica,sans-Serif" font-size="10.00">exception</text>
</g>
<!-- Node30&#45;&gt;Node31 -->
<g id="edge47" class="edge"><title>Node30&#45;&gt;Node31</title>
<path fill="none" stroke="midnightblue" d="M428.174,-281.567C431.139,-280.959 434.121,-280.419 437,-280 752.748,-234.09 837.46,-284.085 1154,-244 1155.45,-243.816 1156.92,-243.611 1158.41,-243.389"/>
<polygon fill="midnightblue" stroke="midnightblue" points="1159.01,-246.838 1168.28,-241.715 1157.84,-239.937 1159.01,-246.838"/>
</g>
<!-- Node34 -->
<g id="node34" class="node"><title>Node34</title>
<polygon fill="none" stroke="#bfbfbf" points="446,-280.5 446,-299.5 526,-299.5 526,-280.5 446,-280.5"/>
<text text-anchor="middle" x="486" y="-287.5" font-family="Helvetica,sans-Serif" font-size="10.00">QMainWindow</text>
</g>
<!-- Node33&#45;&gt;Node34 -->
<g id="edge51" class="edge"><title>Node33&#45;&gt;Node34</title>
<path fill="none" stroke="midnightblue" d="M486,-336.083C486,-329.006 486,-318.861 486,-309.986"/>
<polygon fill="midnightblue" stroke="midnightblue" points="489.5,-309.751 486,-299.751 482.5,-309.751 489.5,-309.751"/>
</g>
<!-- Node35 -->
<g id="node35" class="node"><title>Node35</title>
<polygon fill="none" stroke="#bfbfbf" points="544.5,-280.5 544.5,-299.5 591.5,-299.5 591.5,-280.5 544.5,-280.5"/>
<text text-anchor="middle" x="568" y="-287.5" font-family="Helvetica,sans-Serif" font-size="10.00">QLabel</text>
</g>
<!-- Node33&#45;&gt;Node35 -->
<g id="edge52" class="edge"><title>Node33&#45;&gt;Node35</title>
<path fill="none" stroke="midnightblue" d="M499.175,-336.324C511.847,-327.979 531.233,-315.212 546.206,-305.352"/>
<polygon fill="midnightblue" stroke="midnightblue" points="548.431,-308.078 554.858,-299.655 544.581,-302.231 548.431,-308.078"/>
</g>
</g>
</svg>
        <g id="navigator" transform="translate(0 0)" fill="#404254">
                <rect fill="#f2f5e9" fill-opacity="0.5" stroke="#606060" stroke-width=".5" x="0" y="0" width="60" height="60"/>
                <use id="zoomplus" xlink:href="#zoomPlus" x="17" y="9" onmousedown="handleZoom(evt,'in')"/>
                <use id="zoomminus" xlink:href="#zoomMin" x="42" y="9" onmousedown="handleZoom(evt,'out')"/>
                <use id="reset" xlink:href="#resetDef" x="30" y="36" onmousedown="handleReset()"/>
                <g id="arrowUp" xlink:href="#dirArrow" transform="translate(30 24)" onmousedown="handlePan(0,-1)">
                  <use xlink:href="#rim" fill="#404040">
                        <set attributeName="fill" to="#808080" begin="arrowUp.mouseover" end="arrowUp.mouseout"/>
                  </use>
                  <path fill="none" stroke="white" stroke-width="1.5" d="M0,-3.0v7 M-2.5,-0.5L0,-3.0L2.5,-0.5"/>
                </g>
                <g id="arrowRight" xlink:href="#dirArrow" transform="rotate(90) translate(36 -43)" onmousedown="handlePan(1,0)">
                  <use xlink:href="#rim" fill="#404040">
                        <set attributeName="fill" to="#808080" begin="arrowRight.mouseover" end="arrowRight.mouseout"/>
                  </use>
                  <path fill="none" stroke="white" stroke-width="1.5" d="M0,-3.0v7 M-2.5,-0.5L0,-3.0L2.5,-0.5"/>
                </g>
                <g id="arrowDown" xlink:href="#dirArrow" transform="rotate(180) translate(-30 -48)" onmousedown="handlePan(0,1)">
                  <use xlink:href="#rim" fill="#404040">
                        <set attributeName="fill" to="#808080" begin="arrowDown.mouseover" end="arrowDown.mouseout"/>
                  </use>
                  <path fill="none" stroke="white" stroke-width="1.5" d="M0,-3.0v7 M-2.5,-0.5L0,-3.0L2.5,-0.5"/>
                </g>
                <g id="arrowLeft" xlink:href="#dirArrow" transform="rotate(270) translate(-36 17)" onmousedown="handlePan(-1,0)">
                  <use xlink:href="#rim" fill="#404040">
                        <set attributeName="fill" to="#808080" begin="arrowLeft.mouseover" end="arrowLeft.mouseout"/>
                  </use>
                  <path fill="none" stroke="white" stroke-width="1.5" d="M0,-3.0v7 M-2.5,-0.5L0,-3.0L2.5,-0.5"/>
                </g>
        </g>
        <svg viewBox="0 0 15 15" width="100%" height="30px" preserveAspectRatio="xMaxYMin meet">
         <g id="arrow_out" transform="scale(0.3 0.3)">
          <a xlink:href="gui_2includes_2_reception_8hpp__incl_org.svg" target="_base">
           <rect id="button" ry="5" rx="5" y="6" x="6" height="38" width="38"
                fill="#f2f5e9" fill-opacity="0.5" stroke="#606060" stroke-width="1.0"/>
           <path id="arrow"
             d="M 11.500037,31.436501 C 11.940474,20.09759 22.043105,11.32322 32.158766,21.979434 L 37.068811,17.246167 C 37.068811,17.246167 37.088388,32 37.088388,32 L 22.160133,31.978069 C 22.160133,31.978069 26.997745,27.140456 26.997745,27.140456 C 18.528582,18.264221 13.291696,25.230495 11.500037,31.436501 z"
             style="fill:#404040;"/>
          </a>
         </g>
        </svg>
</svg>
