<?xml version="1.0" encoding="UTF-8" standalone="no"?>
<!DOCTYPE svg PUBLIC "-//W3C//DTD SVG 1.1//EN"
 "http://www.w3.org/Graphics/SVG/1.1/DTD/svg11.dtd">
<!-- Generated by graphviz version 2.38.0 (20140413.2041)
 -->
<!-- Title: /home/gogo/rendu/tek2/cpp_plazza/gui/includes/Office.hpp Pages: 1 -->
<!--zoomable 330 -->
<svg id="main" version="1.1" xmlns="http://www.w3.org/2000/svg" xmlns:xlink="http://www.w3.org/1999/xlink" xml:space="preserve" onload="init(evt)">
<style type="text/css"><![CDATA[
.edge:hover path { stroke: red; }
.edge:hover polygon { stroke: red; fill: red; }
]]></style>
<script type="text/javascript"><![CDATA[
var edges = document.getElementsByTagName('g');
if (edges && edges.length) {
  for (var i=0;i<edges.length;i++) {
    if (edges[i].id.substr(0,4)=='edge') {
      edges[i].setAttribute('class','edge');
    }
  }
}
]]></script>
        <defs>
                <circle id="rim" cx="0" cy="0" r="7"/>
                <circle id="rim2" cx="0" cy="0" r="3.5"/>
                <g id="zoomPlus">
                        <use xlink:href="#rim" fill="#404040">
                                <set attributeName="fill" to="#808080" begin="zoomplus.mouseover" end="zoomplus.mouseout"/>
                        </use>
                        <path d="M-4,0h8M0,-4v8" fill="none" stroke="white" stroke-width="1.5" pointer-events="none"/>
                </g>
                <g id="zoomMin">
                        <use xlink:href="#rim" fill="#404040">
                                <set attributeName="fill" to="#808080" begin="zoomminus.mouseover" end="zoomminus.mouseout"/>
                        </use>
                        <path d="M-4,0h8" fill="none" stroke="white" stroke-width="1.5" pointer-events="none"/>
                </g>
                <g id="dirArrow">
                        <path fill="none" stroke="white" stroke-width="1.5" d="M0,-3.0v7 M-2.5,-0.5L0,-3.0L2.5,-0.5"/>
                </g>
               <g id="resetDef">
                       <use xlink:href="#rim2" fill="#404040">
                               <set attributeName="fill" to="#808080" begin="reset.mouseover" end="reset.mouseout"/>
                       </use>
               </g>
        </defs>

<script type="text/javascript">
var viewWidth = 1063;
var viewHeight = 330;
var sectionId = 'dynsection-0';
</script>
<script xlink:href="svgpan.js"/>
<svg id="graph" class="graph">
<g id="viewport">
<title>/home/gogo/rendu/tek2/cpp_plazza/gui/includes/Office.hpp</title>
<!-- Node1 -->
<g id="node1" class="node"><title>Node1</title>
<polygon fill="#bfbfbf" stroke="black" points="329,-280.5 329,-321.5 453,-321.5 453,-280.5 329,-280.5"/>
<text text-anchor="start" x="337" y="-309.5" font-family="Helvetica,sans-Serif" font-size="10.00">/home/gogo/rendu/tek2</text>
<text text-anchor="start" x="337" y="-298.5" font-family="Helvetica,sans-Serif" font-size="10.00">/cpp_plazza/gui/includes</text>
<text text-anchor="middle" x="391" y="-287.5" font-family="Helvetica,sans-Serif" font-size="10.00">/Office.hpp</text>
</g>
<!-- Node2 -->
<g id="node2" class="node"><title>Node2</title>
<polygon fill="none" stroke="#bfbfbf" points="118,-112.5 118,-131.5 172,-131.5 172,-112.5 118,-112.5"/>
<text text-anchor="middle" x="145" y="-119.5" font-family="Helvetica,sans-Serif" font-size="10.00">iostream</text>
</g>
<!-- Node1&#45;&gt;Node2 -->
<g id="edge1" class="edge"><title>Node1&#45;&gt;Node2</title>
<path fill="none" stroke="midnightblue" d="M383.473,-280.424C376.227,-263.694 363.88,-239.878 347,-224 298.513,-178.391 225.495,-148.855 181.809,-134.133"/>
<polygon fill="midnightblue" stroke="midnightblue" points="182.752,-130.759 172.159,-130.962 180.567,-137.409 182.752,-130.759"/>
</g>
<!-- Node3 -->
<g id="node3" class="node"><title>Node3</title>
<polygon fill="none" stroke="#bfbfbf" points="270,-224.5 270,-243.5 338,-243.5 338,-224.5 270,-224.5"/>
<text text-anchor="middle" x="304" y="-231.5" font-family="Helvetica,sans-Serif" font-size="10.00">sys/types.h</text>
</g>
<!-- Node1&#45;&gt;Node3 -->
<g id="edge2" class="edge"><title>Node1&#45;&gt;Node3</title>
<path fill="none" stroke="midnightblue" d="M364.897,-280.498C351.687,-270.628 335.913,-258.843 323.73,-249.741"/>
<polygon fill="midnightblue" stroke="midnightblue" points="325.687,-246.834 315.581,-243.652 321.497,-252.442 325.687,-246.834"/>
</g>
<!-- Node4 -->
<g id="node4" class="node"><title>Node4</title>
<polygon fill="none" stroke="#bfbfbf" points="714,-56.5 714,-75.5 758,-75.5 758,-56.5 714,-56.5"/>
<text text-anchor="middle" x="736" y="-63.5" font-family="Helvetica,sans-Serif" font-size="10.00">vector</text>
</g>
<!-- Node1&#45;&gt;Node4 -->
<g id="edge3" class="edge"><title>Node1&#45;&gt;Node4</title>
<path fill="none" stroke="midnightblue" d="M453.094,-297.862C597.108,-291.575 947.713,-268.198 1028,-188 1052.36,-163.668 1065.65,-137.926 1043,-112 1003.75,-67.0816 835.736,-86.4033 777,-76 774.107,-75.4876 771.109,-74.9135 768.11,-74.3096"/>
<polygon fill="midnightblue" stroke="midnightblue" points="768.571,-70.8299 758.064,-72.1893 767.125,-77.679 768.571,-70.8299"/>
</g>
<!-- Node5 -->
<g id="node5" class="node"><title>Node5</title>
<polygon fill="none" stroke="#bfbfbf" points="394,-224.5 394,-243.5 440,-243.5 440,-224.5 394,-224.5"/>
<text text-anchor="middle" x="417" y="-231.5" font-family="Helvetica,sans-Serif" font-size="10.00">chrono</text>
</g>
<!-- Node1&#45;&gt;Node5 -->
<g id="edge4" class="edge"><title>Node1&#45;&gt;Node5</title>
<path fill="none" stroke="midnightblue" d="M398.801,-280.498C402.289,-271.778 406.375,-261.563 409.79,-253.024"/>
<polygon fill="midnightblue" stroke="midnightblue" points="413.075,-254.237 413.539,-243.652 406.575,-251.637 413.075,-254.237"/>
</g>
<!-- Node6 -->
<g id="node6" class="node"><title>Node6</title>
<g id="a_node6"><a xlink:href="gui_2includes_2_connector_pipe_8hpp.html" target="_top" xlink:title="ConnectorPipe.hpp">
<polygon fill="none" stroke="black" points="0,-112.5 0,-131.5 100,-131.5 100,-112.5 0,-112.5"/>
<text text-anchor="middle" x="50" y="-119.5" font-family="Helvetica,sans-Serif" font-size="10.00">ConnectorPipe.hpp</text>
</a>
</g>
</g>
<!-- Node1&#45;&gt;Node6 -->
<g id="edge5" class="edge"><title>Node1&#45;&gt;Node6</title>
<path fill="none" stroke="midnightblue" d="M341.937,-280.418C317.336,-270.209 287.265,-257.135 261,-244 190.668,-208.828 111.01,-160.8 72.8086,-137.23"/>
<polygon fill="midnightblue" stroke="midnightblue" points="74.365,-134.077 64.0206,-131.788 70.6793,-140.028 74.365,-134.077"/>
</g>
<!-- Node9 -->
<g id="node9" class="node"><title>Node9</title>
<g id="a_node9"><a xlink:href="gui_2includes_2_thread_pool_8hpp.html" target="_top" xlink:title="ThreadPool.hpp">
<polygon fill="none" stroke="black" points="724.5,-224.5 724.5,-243.5 809.5,-243.5 809.5,-224.5 724.5,-224.5"/>
<text text-anchor="middle" x="767" y="-231.5" font-family="Helvetica,sans-Serif" font-size="10.00">ThreadPool.hpp</text>
</a>
</g>
</g>
<!-- Node1&#45;&gt;Node9 -->
<g id="edge9" class="edge"><title>Node1&#45;&gt;Node9</title>
<path fill="none" stroke="midnightblue" d="M453.089,-289.267C526,-276.662 645.673,-255.974 714.272,-244.115"/>
<polygon fill="midnightblue" stroke="midnightblue" points="715.162,-247.513 724.42,-242.361 713.969,-240.616 715.162,-247.513"/>
</g>
<!-- Node7 -->
<g id="node7" class="node"><title>Node7</title>
<polygon fill="none" stroke="#bfbfbf" points="417.5,-0.5 417.5,-19.5 458.5,-19.5 458.5,-0.5 417.5,-0.5"/>
<text text-anchor="middle" x="438" y="-7.5" font-family="Helvetica,sans-Serif" font-size="10.00">string</text>
</g>
<!-- Node6&#45;&gt;Node7 -->
<g id="edge6" class="edge"><title>Node6&#45;&gt;Node7</title>
<path fill="none" stroke="midnightblue" d="M80.1229,-112.46C152.248,-92.0123 334.259,-40.4111 407.133,-19.751"/>
<polygon fill="midnightblue" stroke="midnightblue" points="408.401,-23.0296 417.067,-16.9346 406.491,-16.295 408.401,-23.0296"/>
</g>
<!-- Node8 -->
<g id="node8" class="node"><title>Node8</title>
<g id="a_node8"><a xlink:href="gui_2includes_2_config_8hpp.html" target="_top" xlink:title="Config.hpp">
<polygon fill="none" stroke="black" points="59,-56.5 59,-75.5 123,-75.5 123,-56.5 59,-56.5"/>
<text text-anchor="middle" x="91" y="-63.5" font-family="Helvetica,sans-Serif" font-size="10.00">Config.hpp</text>
</a>
</g>
</g>
<!-- Node6&#45;&gt;Node8 -->
<g id="edge7" class="edge"><title>Node6&#45;&gt;Node8</title>
<path fill="none" stroke="midnightblue" d="M56.7703,-112.083C62.5616,-104.455 71.0585,-93.2645 78.1375,-83.9408"/>
<polygon fill="midnightblue" stroke="midnightblue" points="81.0961,-85.8321 84.3557,-75.7511 75.521,-81.5991 81.0961,-85.8321"/>
</g>
<!-- Node8&#45;&gt;Node7 -->
<g id="edge8" class="edge"><title>Node8&#45;&gt;Node7</title>
<path fill="none" stroke="midnightblue" d="M123.023,-60.0166C189.456,-49.6783 341.517,-26.0147 407.032,-15.8192"/>
<polygon fill="midnightblue" stroke="midnightblue" points="407.797,-19.2424 417.14,-14.2463 406.72,-12.3257 407.797,-19.2424"/>
</g>
<!-- Node9&#45;&gt;Node4 -->
<g id="edge10" class="edge"><title>Node9&#45;&gt;Node4</title>
<path fill="none" stroke="midnightblue" d="M758.517,-224.234C750.946,-215.75 740.396,-202.131 736,-188 725.172,-153.194 729.022,-109.981 732.628,-85.7487"/>
<polygon fill="midnightblue" stroke="midnightblue" points="736.099,-86.207 734.263,-75.7725 729.192,-85.0746 736.099,-86.207"/>
</g>
<!-- Node10 -->
<g id="node10" class="node"><title>Node10</title>
<polygon fill="none" stroke="#bfbfbf" points="745,-168.5 745,-187.5 789,-187.5 789,-168.5 745,-168.5"/>
<text text-anchor="middle" x="767" y="-175.5" font-family="Helvetica,sans-Serif" font-size="10.00">mutex</text>
</g>
<!-- Node9&#45;&gt;Node10 -->
<g id="edge11" class="edge"><title>Node9&#45;&gt;Node10</title>
<path fill="none" stroke="midnightblue" d="M767,-224.083C767,-217.006 767,-206.861 767,-197.986"/>
<polygon fill="midnightblue" stroke="midnightblue" points="770.5,-197.751 767,-187.751 763.5,-197.751 770.5,-197.751"/>
</g>
<!-- Node11 -->
<g id="node11" class="node"><title>Node11</title>
<polygon fill="none" stroke="#bfbfbf" points="807.5,-168.5 807.5,-187.5 850.5,-187.5 850.5,-168.5 807.5,-168.5"/>
<text text-anchor="middle" x="829" y="-175.5" font-family="Helvetica,sans-Serif" font-size="10.00">queue</text>
</g>
<!-- Node9&#45;&gt;Node11 -->
<g id="edge12" class="edge"><title>Node9&#45;&gt;Node11</title>
<path fill="none" stroke="midnightblue" d="M776.961,-224.324C786.127,-216.341 799.937,-204.313 811.028,-194.653"/>
<polygon fill="midnightblue" stroke="midnightblue" points="813.615,-197.041 818.857,-187.834 809.018,-191.762 813.615,-197.041"/>
</g>
<!-- Node12 -->
<g id="node12" class="node"><title>Node12</title>
<g id="a_node12"><a xlink:href="gui_2includes_2_thread_8hpp.html" target="_top" xlink:title="Thread.hpp">
<polygon fill="none" stroke="black" points="775.5,-112.5 775.5,-131.5 840.5,-131.5 840.5,-112.5 775.5,-112.5"/>
<text text-anchor="middle" x="808" y="-119.5" font-family="Helvetica,sans-Serif" font-size="10.00">Thread.hpp</text>
</a>
</g>
</g>
<!-- Node9&#45;&gt;Node12 -->
<g id="edge13" class="edge"><title>Node9&#45;&gt;Node12</title>
<path fill="none" stroke="midnightblue" d="M805.845,-224.364C825.377,-217.847 847.327,-206.704 859,-188 870.551,-169.491 850.37,-150.029 832.088,-137.281"/>
<polygon fill="midnightblue" stroke="midnightblue" points="833.695,-134.15 823.413,-131.596 829.858,-140.005 833.695,-134.15"/>
</g>
<!-- Node14 -->
<g id="node14" class="node"><title>Node14</title>
<g id="a_node14"><a xlink:href="gui_2includes_2_mutex_8hpp.html" target="_top" xlink:title="Mutex.hpp">
<polygon fill="none" stroke="black" points="859,-112.5 859,-131.5 921,-131.5 921,-112.5 859,-112.5"/>
<text text-anchor="middle" x="890" y="-119.5" font-family="Helvetica,sans-Serif" font-size="10.00">Mutex.hpp</text>
</a>
</g>
</g>
<!-- Node9&#45;&gt;Node14 -->
<g id="edge15" class="edge"><title>Node9&#45;&gt;Node14</title>
<path fill="none" stroke="midnightblue" d="M809.758,-225.023C832.273,-218.67 858.55,-207.474 875,-188 885.85,-175.155 889.218,-155.973 890.101,-141.773"/>
<polygon fill="midnightblue" stroke="midnightblue" points="893.602,-141.76 890.371,-131.67 886.605,-141.572 893.602,-141.76"/>
</g>
<!-- Node15 -->
<g id="node15" class="node"><title>Node15</title>
<g id="a_node15"><a xlink:href="gui_2includes_2_cond_var_8hpp.html" target="_top" xlink:title="CondVar.hpp">
<polygon fill="none" stroke="black" points="945,-168.5 945,-187.5 1019,-187.5 1019,-168.5 945,-168.5"/>
<text text-anchor="middle" x="982" y="-175.5" font-family="Helvetica,sans-Serif" font-size="10.00">CondVar.hpp</text>
</a>
</g>
</g>
<!-- Node9&#45;&gt;Node15 -->
<g id="edge16" class="edge"><title>Node9&#45;&gt;Node15</title>
<path fill="none" stroke="midnightblue" d="M801.067,-224.444C838.18,-215.122 897.661,-200.183 938.215,-189.997"/>
<polygon fill="midnightblue" stroke="midnightblue" points="939.246,-193.347 948.092,-187.516 937.541,-186.558 939.246,-193.347"/>
</g>
<!-- Node17 -->
<g id="node17" class="node"><title>Node17</title>
<g id="a_node17"><a xlink:href="gui_2includes_2_worker_8hpp.html" target="_top" xlink:title="Worker.hpp">
<polygon fill="none" stroke="black" points="458.5,-168.5 458.5,-187.5 525.5,-187.5 525.5,-168.5 458.5,-168.5"/>
<text text-anchor="middle" x="492" y="-175.5" font-family="Helvetica,sans-Serif" font-size="10.00">Worker.hpp</text>
</a>
</g>
</g>
<!-- Node9&#45;&gt;Node17 -->
<g id="edge19" class="edge"><title>Node9&#45;&gt;Node17</title>
<path fill="none" stroke="midnightblue" d="M724.333,-224.622C672.992,-214.54 587.259,-197.705 535.534,-187.549"/>
<polygon fill="midnightblue" stroke="midnightblue" points="536.15,-184.103 525.663,-185.61 534.801,-190.971 536.15,-184.103"/>
</g>
<!-- Node22 -->
<g id="node22" class="node"><title>Node22</title>
<g id="a_node22"><a xlink:href="gui_2includes_2_command_8hpp.html" target="_top" xlink:title="Command.hpp">
<polygon fill="none" stroke="black" points="639,-112.5 639,-131.5 719,-131.5 719,-112.5 639,-112.5"/>
<text text-anchor="middle" x="679" y="-119.5" font-family="Helvetica,sans-Serif" font-size="10.00">Command.hpp</text>
</a>
</g>
</g>
<!-- Node9&#45;&gt;Node22 -->
<g id="edge40" class="edge"><title>Node9&#45;&gt;Node22</title>
<path fill="none" stroke="midnightblue" d="M749.273,-224.394C734.998,-216.652 715.342,-204.04 703,-188 692.465,-174.309 686.197,-155.523 682.724,-141.668"/>
<polygon fill="midnightblue" stroke="midnightblue" points="686.115,-140.795 680.51,-131.804 679.285,-142.328 686.115,-140.795"/>
</g>
<!-- Node13 -->
<g id="node13" class="node"><title>Node13</title>
<polygon fill="none" stroke="#bfbfbf" points="786,-56.5 786,-75.5 830,-75.5 830,-56.5 786,-56.5"/>
<text text-anchor="middle" x="808" y="-63.5" font-family="Helvetica,sans-Serif" font-size="10.00">thread</text>
</g>
<!-- Node12&#45;&gt;Node13 -->
<g id="edge14" class="edge"><title>Node12&#45;&gt;Node13</title>
<path fill="none" stroke="midnightblue" d="M808,-112.083C808,-105.006 808,-94.8611 808,-85.9865"/>
<polygon fill="midnightblue" stroke="midnightblue" points="811.5,-85.751 808,-75.7511 804.5,-85.7511 811.5,-85.751"/>
</g>
<!-- Node15&#45;&gt;Node14 -->
<g id="edge18" class="edge"><title>Node15&#45;&gt;Node14</title>
<path fill="none" stroke="midnightblue" d="M967.219,-168.324C952.733,-159.822 930.427,-146.729 913.507,-136.797"/>
<polygon fill="midnightblue" stroke="midnightblue" points="915.141,-133.698 904.745,-131.655 911.597,-139.735 915.141,-133.698"/>
</g>
<!-- Node16 -->
<g id="node16" class="node"><title>Node16</title>
<polygon fill="none" stroke="#bfbfbf" points="939.5,-112.5 939.5,-131.5 1034.5,-131.5 1034.5,-112.5 939.5,-112.5"/>
<text text-anchor="middle" x="987" y="-119.5" font-family="Helvetica,sans-Serif" font-size="10.00">condition_variable</text>
</g>
<!-- Node15&#45;&gt;Node16 -->
<g id="edge17" class="edge"><title>Node15&#45;&gt;Node16</title>
<path fill="none" stroke="midnightblue" d="M982.826,-168.083C983.481,-161.006 984.42,-150.861 985.242,-141.986"/>
<polygon fill="midnightblue" stroke="midnightblue" points="988.753,-142.031 986.19,-131.751 981.783,-141.386 988.753,-142.031"/>
</g>
<!-- Node17&#45;&gt;Node2 -->
<g id="edge21" class="edge"><title>Node17&#45;&gt;Node2</title>
<path fill="none" stroke="midnightblue" d="M458.215,-173.249C402.639,-166.832 288.295,-152.598 181.991,-132.023"/>
<polygon fill="midnightblue" stroke="midnightblue" points="182.547,-128.565 172.061,-130.077 181.201,-135.435 182.547,-128.565"/>
</g>
<!-- Node17&#45;&gt;Node12 -->
<g id="edge22" class="edge"><title>Node17&#45;&gt;Node12</title>
<path fill="none" stroke="midnightblue" d="M525.518,-171.272C583.297,-161.399 701.557,-141.19 765.198,-130.314"/>
<polygon fill="midnightblue" stroke="midnightblue" points="766.031,-133.723 775.299,-128.588 764.852,-126.823 766.031,-133.723"/>
</g>
<!-- Node18 -->
<g id="node18" class="node"><title>Node18</title>
<polygon fill="none" stroke="#bfbfbf" points="306.5,-112.5 306.5,-131.5 347.5,-131.5 347.5,-112.5 306.5,-112.5"/>
<text text-anchor="middle" x="327" y="-119.5" font-family="Helvetica,sans-Serif" font-size="10.00">regex</text>
</g>
<!-- Node17&#45;&gt;Node18 -->
<g id="edge20" class="edge"><title>Node17&#45;&gt;Node18</title>
<path fill="none" stroke="midnightblue" d="M465.855,-168.444C436.464,-158.825 388.795,-143.224 357.669,-133.037"/>
<polygon fill="midnightblue" stroke="midnightblue" points="358.391,-129.591 347.798,-129.807 356.213,-136.244 358.391,-129.591"/>
</g>
<!-- Node19 -->
<g id="node19" class="node"><title>Node19</title>
<g id="a_node19"><a xlink:href="gui_2includes_2_file_8hpp.html" target="_top" xlink:title="File.hpp">
<polygon fill="none" stroke="black" points="466.5,-112.5 466.5,-131.5 517.5,-131.5 517.5,-112.5 466.5,-112.5"/>
<text text-anchor="middle" x="492" y="-119.5" font-family="Helvetica,sans-Serif" font-size="10.00">File.hpp</text>
</a>
</g>
</g>
<!-- Node17&#45;&gt;Node19 -->
<g id="edge23" class="edge"><title>Node17&#45;&gt;Node19</title>
<path fill="none" stroke="midnightblue" d="M492,-168.083C492,-161.006 492,-150.861 492,-141.986"/>
<polygon fill="midnightblue" stroke="midnightblue" points="495.5,-141.751 492,-131.751 488.5,-141.751 495.5,-141.751"/>
</g>
<!-- Node17&#45;&gt;Node22 -->
<g id="edge27" class="edge"><title>Node17&#45;&gt;Node22</title>
<path fill="none" stroke="midnightblue" d="M521.631,-168.444C553.5,-159.241 604.333,-144.562 639.564,-134.388"/>
<polygon fill="midnightblue" stroke="midnightblue" points="640.872,-137.653 649.508,-131.516 638.929,-130.928 640.872,-137.653"/>
</g>
<!-- Node24 -->
<g id="node24" class="node"><title>Node24</title>
<g id="a_node24"><a xlink:href="gui_2includes_2_xor_cypher_8hpp.html" target="_top" xlink:title="XorCypher.hpp">
<polygon fill="none" stroke="black" points="366,-112.5 366,-131.5 448,-131.5 448,-112.5 366,-112.5"/>
<text text-anchor="middle" x="407" y="-119.5" font-family="Helvetica,sans-Serif" font-size="10.00">XorCypher.hpp</text>
</a>
</g>
</g>
<!-- Node17&#45;&gt;Node24 -->
<g id="edge31" class="edge"><title>Node17&#45;&gt;Node24</title>
<path fill="none" stroke="midnightblue" d="M478.343,-168.324C465.084,-159.9 444.732,-146.971 429.154,-137.074"/>
<polygon fill="midnightblue" stroke="midnightblue" points="430.94,-134.063 420.623,-131.655 427.187,-139.971 430.94,-134.063"/>
</g>
<!-- Node26 -->
<g id="node26" class="node"><title>Node26</title>
<g id="a_node26"><a xlink:href="gui_2includes_2_caesar_cypher_8hpp.html" target="_top" xlink:title="CaesarCypher.hpp">
<polygon fill="none" stroke="black" points="190,-112.5 190,-131.5 288,-131.5 288,-112.5 190,-112.5"/>
<text text-anchor="middle" x="239" y="-119.5" font-family="Helvetica,sans-Serif" font-size="10.00">CaesarCypher.hpp</text>
</a>
</g>
</g>
<!-- Node17&#45;&gt;Node26 -->
<g id="edge34" class="edge"><title>Node17&#45;&gt;Node26</title>
<path fill="none" stroke="midnightblue" d="M458.404,-169.829C415.019,-160.569 339.142,-144.374 288.98,-133.668"/>
<polygon fill="midnightblue" stroke="midnightblue" points="289.508,-130.202 278.998,-131.537 288.047,-137.047 289.508,-130.202"/>
</g>
<!-- Node27 -->
<g id="node27" class="node"><title>Node27</title>
<g id="a_node27"><a xlink:href="gui_2includes_2_xor_cracker_8hpp.html" target="_top" xlink:title="XorCracker.hpp">
<polygon fill="none" stroke="black" points="535.5,-112.5 535.5,-131.5 620.5,-131.5 620.5,-112.5 535.5,-112.5"/>
<text text-anchor="middle" x="578" y="-119.5" font-family="Helvetica,sans-Serif" font-size="10.00">XorCracker.hpp</text>
</a>
</g>
</g>
<!-- Node17&#45;&gt;Node27 -->
<g id="edge36" class="edge"><title>Node17&#45;&gt;Node27</title>
<path fill="none" stroke="midnightblue" d="M505.817,-168.324C519.233,-159.9 539.824,-146.971 555.586,-137.074"/>
<polygon fill="midnightblue" stroke="midnightblue" points="557.609,-139.936 564.217,-131.655 553.887,-134.008 557.609,-139.936"/>
</g>
<!-- Node19&#45;&gt;Node7 -->
<g id="edge24" class="edge"><title>Node19&#45;&gt;Node7</title>
<path fill="none" stroke="midnightblue" d="M501.159,-112.268C513.419,-99.4827 532.378,-75.1118 521,-56 509.628,-36.8982 487.009,-25.4059 468.253,-18.8216"/>
<polygon fill="midnightblue" stroke="midnightblue" points="469.193,-15.4476 458.602,-15.7314 467.058,-22.1142 469.193,-15.4476"/>
</g>
<!-- Node20 -->
<g id="node20" class="node"><title>Node20</title>
<polygon fill="none" stroke="#bfbfbf" points="462,-56.5 462,-75.5 512,-75.5 512,-56.5 462,-56.5"/>
<text text-anchor="middle" x="487" y="-63.5" font-family="Helvetica,sans-Serif" font-size="10.00">fstream</text>
</g>
<!-- Node19&#45;&gt;Node20 -->
<g id="edge25" class="edge"><title>Node19&#45;&gt;Node20</title>
<path fill="none" stroke="midnightblue" d="M491.174,-112.083C490.519,-105.006 489.58,-94.8611 488.758,-85.9865"/>
<polygon fill="midnightblue" stroke="midnightblue" points="492.217,-85.3858 487.81,-75.7511 485.247,-86.0312 492.217,-85.3858"/>
</g>
<!-- Node21 -->
<g id="node21" class="node"><title>Node21</title>
<polygon fill="none" stroke="#bfbfbf" points="392,-56.5 392,-75.5 444,-75.5 444,-56.5 392,-56.5"/>
<text text-anchor="middle" x="418" y="-63.5" font-family="Helvetica,sans-Serif" font-size="10.00">sstream</text>
</g>
<!-- Node19&#45;&gt;Node21 -->
<g id="edge26" class="edge"><title>Node19&#45;&gt;Node21</title>
<path fill="none" stroke="midnightblue" d="M480.111,-112.324C468.85,-104.107 451.713,-91.6017 438.291,-81.8069"/>
<polygon fill="midnightblue" stroke="midnightblue" points="440.247,-78.9014 430.106,-75.8339 436.12,-84.5559 440.247,-78.9014"/>
</g>
<!-- Node22&#45;&gt;Node4 -->
<g id="edge29" class="edge"><title>Node22&#45;&gt;Node4</title>
<path fill="none" stroke="midnightblue" d="M688.158,-112.324C696.501,-104.42 709.032,-92.5482 719.177,-82.9377"/>
<polygon fill="midnightblue" stroke="midnightblue" points="721.823,-85.2522 726.675,-75.8339 717.009,-80.1705 721.823,-85.2522"/>
</g>
<!-- Node22&#45;&gt;Node7 -->
<g id="edge28" class="edge"><title>Node22&#45;&gt;Node7</title>
<path fill="none" stroke="midnightblue" d="M678.115,-112.338C676.194,-98.2614 670.315,-70.5342 653,-56 625.4,-32.8329 521.386,-19.3474 468.816,-13.8742"/>
<polygon fill="midnightblue" stroke="midnightblue" points="469.026,-10.3777 458.725,-12.8566 468.324,-17.3424 469.026,-10.3777"/>
</g>
<!-- Node23 -->
<g id="node23" class="node"><title>Node23</title>
<polygon fill="none" stroke="#bfbfbf" points="609.5,-56.5 609.5,-75.5 644.5,-75.5 644.5,-56.5 609.5,-56.5"/>
<text text-anchor="middle" x="627" y="-63.5" font-family="Helvetica,sans-Serif" font-size="10.00">map</text>
</g>
<!-- Node22&#45;&gt;Node23 -->
<g id="edge30" class="edge"><title>Node22&#45;&gt;Node23</title>
<path fill="none" stroke="midnightblue" d="M670.413,-112.083C662.841,-104.22 651.622,-92.5688 642.486,-83.0813"/>
<polygon fill="midnightblue" stroke="midnightblue" points="644.885,-80.5266 635.427,-75.7511 639.842,-85.3821 644.885,-80.5266"/>
</g>
<!-- Node25 -->
<g id="node25" class="node"><title>Node25</title>
<g id="a_node25"><a xlink:href="gui_2includes_2_a_cypher_8hpp.html" target="_top" xlink:title="ACypher.hpp">
<polygon fill="none" stroke="black" points="300,-56.5 300,-75.5 374,-75.5 374,-56.5 300,-56.5"/>
<text text-anchor="middle" x="337" y="-63.5" font-family="Helvetica,sans-Serif" font-size="10.00">ACypher.hpp</text>
</a>
</g>
</g>
<!-- Node24&#45;&gt;Node25 -->
<g id="edge32" class="edge"><title>Node24&#45;&gt;Node25</title>
<path fill="none" stroke="midnightblue" d="M395.753,-112.324C385.203,-104.185 369.199,-91.8395 356.558,-82.0874"/>
<polygon fill="midnightblue" stroke="midnightblue" points="358.507,-79.1707 348.451,-75.8339 354.231,-84.7132 358.507,-79.1707"/>
</g>
<!-- Node25&#45;&gt;Node7 -->
<g id="edge33" class="edge"><title>Node25&#45;&gt;Node7</title>
<path fill="none" stroke="midnightblue" d="M353.227,-56.324C369.351,-47.7034 394.3,-34.3643 412.964,-24.3855"/>
<polygon fill="midnightblue" stroke="midnightblue" points="414.644,-27.456 421.813,-19.6545 411.344,-21.283 414.644,-27.456"/>
</g>
<!-- Node26&#45;&gt;Node25 -->
<g id="edge35" class="edge"><title>Node26&#45;&gt;Node25</title>
<path fill="none" stroke="midnightblue" d="M254.745,-112.324C270.319,-103.743 294.377,-90.486 312.459,-80.5224"/>
<polygon fill="midnightblue" stroke="midnightblue" points="314.224,-83.546 321.294,-75.6545 310.846,-77.4152 314.224,-83.546"/>
</g>
<!-- Node27&#45;&gt;Node4 -->
<g id="edge38" class="edge"><title>Node27&#45;&gt;Node4</title>
<path fill="none" stroke="midnightblue" d="M603.036,-112.444C630.476,-103.065 674.555,-88.0001 704.367,-77.8112"/>
<polygon fill="midnightblue" stroke="midnightblue" points="705.555,-81.104 713.886,-74.558 703.291,-74.4802 705.555,-81.104"/>
</g>
<!-- Node27&#45;&gt;Node7 -->
<g id="edge37" class="edge"><title>Node27&#45;&gt;Node7</title>
<path fill="none" stroke="midnightblue" d="M574.485,-112.297C568.587,-98.657 555.499,-72.1385 537,-56 517.071,-38.6145 489.31,-26.7817 468.256,-19.6303"/>
<polygon fill="midnightblue" stroke="midnightblue" points="469.114,-16.2296 458.522,-16.4919 466.965,-22.8918 469.114,-16.2296"/>
</g>
<!-- Node27&#45;&gt;Node23 -->
<g id="edge39" class="edge"><title>Node27&#45;&gt;Node23</title>
<path fill="none" stroke="midnightblue" d="M586.091,-112.083C593.155,-104.298 603.588,-92.8015 612.149,-83.3665"/>
<polygon fill="midnightblue" stroke="midnightblue" points="614.931,-85.5087 619.059,-75.7511 609.747,-80.8047 614.931,-85.5087"/>
</g>
</g>
</svg>
        <g id="navigator" transform="translate(0 0)" fill="#404254">
                <rect fill="#f2f5e9" fill-opacity="0.5" stroke="#606060" stroke-width=".5" x="0" y="0" width="60" height="60"/>
                <use id="zoomplus" xlink:href="#zoomPlus" x="17" y="9" onmousedown="handleZoom(evt,'in')"/>
                <use id="zoomminus" xlink:href="#zoomMin" x="42" y="9" onmousedown="handleZoom(evt,'out')"/>
                <use id="reset" xlink:href="#resetDef" x="30" y="36" onmousedown="handleReset()"/>
                <g id="arrowUp" xlink:href="#dirArrow" transform="translate(30 24)" onmousedown="handlePan(0,-1)">
                  <use xlink:href="#rim" fill="#404040">
                        <set attributeName="fill" to="#808080" begin="arrowUp.mouseover" end="arrowUp.mouseout"/>
                  </use>
                  <path fill="none" stroke="white" stroke-width="1.5" d="M0,-3.0v7 M-2.5,-0.5L0,-3.0L2.5,-0.5"/>
                </g>
                <g id="arrowRight" xlink:href="#dirArrow" transform="rotate(90) translate(36 -43)" onmousedown="handlePan(1,0)">
                  <use xlink:href="#rim" fill="#404040">
                        <set attributeName="fill" to="#808080" begin="arrowRight.mouseover" end="arrowRight.mouseout"/>
                  </use>
                  <path fill="none" stroke="white" stroke-width="1.5" d="M0,-3.0v7 M-2.5,-0.5L0,-3.0L2.5,-0.5"/>
                </g>
                <g id="arrowDown" xlink:href="#dirArrow" transform="rotate(180) translate(-30 -48)" onmousedown="handlePan(0,1)">
                  <use xlink:href="#rim" fill="#404040">
                        <set attributeName="fill" to="#808080" begin="arrowDown.mouseover" end="arrowDown.mouseout"/>
                  </use>
                  <path fill="none" stroke="white" stroke-width="1.5" d="M0,-3.0v7 M-2.5,-0.5L0,-3.0L2.5,-0.5"/>
                </g>
                <g id="arrowLeft" xlink:href="#dirArrow" transform="rotate(270) translate(-36 17)" onmousedown="handlePan(-1,0)">
                  <use xlink:href="#rim" fill="#404040">
                        <set attributeName="fill" to="#808080" begin="arrowLeft.mouseover" end="arrowLeft.mouseout"/>
                  </use>
                  <path fill="none" stroke="white" stroke-width="1.5" d="M0,-3.0v7 M-2.5,-0.5L0,-3.0L2.5,-0.5"/>
                </g>
        </g>
        <svg viewBox="0 0 15 15" width="100%" height="30px" preserveAspectRatio="xMaxYMin meet">
         <g id="arrow_out" transform="scale(0.3 0.3)">
          <a xlink:href="gui_2includes_2_office_8hpp__incl_org.svg" target="_base">
           <rect id="button" ry="5" rx="5" y="6" x="6" height="38" width="38"
                fill="#f2f5e9" fill-opacity="0.5" stroke="#606060" stroke-width="1.0"/>
           <path id="arrow"
             d="M 11.500037,31.436501 C 11.940474,20.09759 22.043105,11.32322 32.158766,21.979434 L 37.068811,17.246167 C 37.068811,17.246167 37.088388,32 37.088388,32 L 22.160133,31.978069 C 22.160133,31.978069 26.997745,27.140456 26.997745,27.140456 C 18.528582,18.264221 13.291696,25.230495 11.500037,31.436501 z"
             style="fill:#404040;"/>
          </a>
         </g>
        </svg>
</svg>
