<?xml version="1.0" encoding="UTF-8" standalone="no"?>
<!DOCTYPE svg PUBLIC "-//W3C//DTD SVG 1.1//EN"
 "http://www.w3.org/Graphics/SVG/1.1/DTD/svg11.dtd">
<!-- Generated by graphviz version 2.38.0 (20140413.2041)
 -->
<!-- Title: /home/gogo/rendu/tek2/cpp_plazza/gui/sources/ConnectorPipe.cpp Pages: 1 -->
<svg width="590pt" height="106pt"
 viewBox="0.00 0.00 590.00 106.00" xmlns="http://www.w3.org/2000/svg" xmlns:xlink="http://www.w3.org/1999/xlink">
<g id="graph0" class="graph" transform="scale(1 1) rotate(0) translate(4 102)">
<title>/home/gogo/rendu/tek2/cpp_plazza/gui/sources/ConnectorPipe.cpp</title>
<!-- Node1 -->
<g id="node1" class="node"><title>Node1</title>
<polygon fill="#bfbfbf" stroke="black" points="215,-56.5 215,-97.5 337,-97.5 337,-56.5 215,-56.5"/>
<text text-anchor="start" x="223" y="-85.5" font-family="Helvetica,sans-Serif" font-size="10.00">/home/gogo/rendu/tek2</text>
<text text-anchor="start" x="223" y="-74.5" font-family="Helvetica,sans-Serif" font-size="10.00">/cpp_plazza/gui/sources</text>
<text text-anchor="middle" x="276" y="-63.5" font-family="Helvetica,sans-Serif" font-size="10.00">/ConnectorPipe.cpp</text>
</g>
<!-- Node2 -->
<g id="node2" class="node"><title>Node2</title>
<polygon fill="none" stroke="#bfbfbf" points="0,-0.5 0,-19.5 60,-19.5 60,-0.5 0,-0.5"/>
<text text-anchor="middle" x="30" y="-7.5" font-family="Helvetica,sans-Serif" font-size="10.00">sys/stat.h</text>
</g>
<!-- Node1&#45;&gt;Node2 -->
<g id="edge1" class="edge"><title>Node1&#45;&gt;Node2</title>
<path fill="none" stroke="midnightblue" d="M214.875,-59.8491C169.583,-47.8816 109.155,-31.9151 69.915,-21.5466"/>
<polygon fill="midnightblue" stroke="midnightblue" points="70.7354,-18.1434 60.1731,-18.9726 68.9472,-24.9111 70.7354,-18.1434"/>
</g>
<!-- Node3 -->
<g id="node3" class="node"><title>Node3</title>
<polygon fill="none" stroke="#bfbfbf" points="78,-0.5 78,-19.5 134,-19.5 134,-0.5 78,-0.5"/>
<text text-anchor="middle" x="106" y="-7.5" font-family="Helvetica,sans-Serif" font-size="10.00">Error.hpp</text>
</g>
<!-- Node1&#45;&gt;Node3 -->
<g id="edge2" class="edge"><title>Node1&#45;&gt;Node3</title>
<path fill="none" stroke="midnightblue" d="M224.994,-56.4979C196.8,-45.7176 162.631,-32.6531 138.154,-23.2941"/>
<polygon fill="midnightblue" stroke="midnightblue" points="139.22,-19.9547 128.63,-19.6525 136.72,-26.4931 139.22,-19.9547"/>
</g>
<!-- Node4 -->
<g id="node4" class="node"><title>Node4</title>
<polygon fill="none" stroke="#bfbfbf" points="152,-0.5 152,-19.5 196,-19.5 196,-0.5 152,-0.5"/>
<text text-anchor="middle" x="174" y="-7.5" font-family="Helvetica,sans-Serif" font-size="10.00">fcntl.h</text>
</g>
<!-- Node1&#45;&gt;Node4 -->
<g id="edge3" class="edge"><title>Node1&#45;&gt;Node4</title>
<path fill="none" stroke="midnightblue" d="M245.397,-56.4979C229.608,-46.4363 210.696,-34.3849 196.304,-25.2136"/>
<polygon fill="midnightblue" stroke="midnightblue" points="197.892,-22.075 187.578,-19.6525 194.13,-27.9783 197.892,-22.075"/>
</g>
<!-- Node5 -->
<g id="node5" class="node"><title>Node5</title>
<polygon fill="none" stroke="#bfbfbf" points="214,-0.5 214,-19.5 268,-19.5 268,-0.5 214,-0.5"/>
<text text-anchor="middle" x="241" y="-7.5" font-family="Helvetica,sans-Serif" font-size="10.00">iostream</text>
</g>
<!-- Node1&#45;&gt;Node5 -->
<g id="edge4" class="edge"><title>Node1&#45;&gt;Node5</title>
<path fill="none" stroke="midnightblue" d="M265.499,-56.4979C260.7,-47.5862 255.061,-37.1135 250.403,-28.4636"/>
<polygon fill="midnightblue" stroke="midnightblue" points="253.482,-26.7978 245.659,-19.6525 247.318,-30.1166 253.482,-26.7978"/>
</g>
<!-- Node6 -->
<g id="node6" class="node"><title>Node6</title>
<polygon fill="none" stroke="#bfbfbf" points="286.5,-0.5 286.5,-19.5 337.5,-19.5 337.5,-0.5 286.5,-0.5"/>
<text text-anchor="middle" x="312" y="-7.5" font-family="Helvetica,sans-Serif" font-size="10.00">unistd.h</text>
</g>
<!-- Node1&#45;&gt;Node6 -->
<g id="edge5" class="edge"><title>Node1&#45;&gt;Node6</title>
<path fill="none" stroke="midnightblue" d="M286.801,-56.4979C291.737,-47.5862 297.537,-37.1135 302.328,-28.4636"/>
<polygon fill="midnightblue" stroke="midnightblue" points="305.425,-30.0962 307.208,-19.6525 299.301,-26.7046 305.425,-30.0962"/>
</g>
<!-- Node7 -->
<g id="node7" class="node"><title>Node7</title>
<polygon fill="none" stroke="#bfbfbf" points="356,-0.5 356,-19.5 402,-19.5 402,-0.5 356,-0.5"/>
<text text-anchor="middle" x="379" y="-7.5" font-family="Helvetica,sans-Serif" font-size="10.00">cstring</text>
</g>
<!-- Node1&#45;&gt;Node7 -->
<g id="edge6" class="edge"><title>Node1&#45;&gt;Node7</title>
<path fill="none" stroke="midnightblue" d="M306.903,-56.4979C322.847,-46.4363 341.944,-34.3849 356.477,-25.2136"/>
<polygon fill="midnightblue" stroke="midnightblue" points="358.7,-27.9493 365.289,-19.6525 354.964,-22.0295 358.7,-27.9493"/>
</g>
<!-- Node8 -->
<g id="node8" class="node"><title>Node8</title>
<polygon fill="none" stroke="#bfbfbf" points="420,-0.5 420,-19.5 464,-19.5 464,-0.5 420,-0.5"/>
<text text-anchor="middle" x="442" y="-7.5" font-family="Helvetica,sans-Serif" font-size="10.00">thread</text>
</g>
<!-- Node1&#45;&gt;Node8 -->
<g id="edge7" class="edge"><title>Node1&#45;&gt;Node8</title>
<path fill="none" stroke="midnightblue" d="M325.805,-56.4979C353.214,-45.7655 386.405,-32.7691 410.283,-23.4192"/>
<polygon fill="midnightblue" stroke="midnightblue" points="411.867,-26.5577 419.903,-19.6525 409.315,-20.0396 411.867,-26.5577"/>
</g>
<!-- Node9 -->
<g id="node9" class="node"><title>Node9</title>
<polygon fill="none" stroke="#bfbfbf" points="482,-0.5 482,-19.5 582,-19.5 582,-0.5 482,-0.5"/>
<text text-anchor="middle" x="532" y="-7.5" font-family="Helvetica,sans-Serif" font-size="10.00">ConnectorPipe.hpp</text>
</g>
<!-- Node1&#45;&gt;Node9 -->
<g id="edge8" class="edge"><title>Node1&#45;&gt;Node9</title>
<path fill="none" stroke="midnightblue" d="M337.318,-60.4309C383.917,-48.5992 446.874,-32.6139 488.419,-22.0655"/>
<polygon fill="midnightblue" stroke="midnightblue" points="489.406,-25.426 498.237,-19.5726 487.683,-18.6413 489.406,-25.426"/>
</g>
</g>
</svg>
