<?xml version="1.0" encoding="UTF-8" standalone="no"?>
<!DOCTYPE svg PUBLIC "-//W3C//DTD SVG 1.1//EN"
 "http://www.w3.org/Graphics/SVG/1.1/DTD/svg11.dtd">
<!-- Generated by graphviz version 2.38.0 (20140413.2041)
 -->
<!-- Title: /home/gogo/rendu/tek2/cpp_plazza/gui/includes/XorCypher.hpp Pages: 1 -->
<svg width="132pt" height="162pt"
 viewBox="0.00 0.00 132.00 162.00" xmlns="http://www.w3.org/2000/svg" xmlns:xlink="http://www.w3.org/1999/xlink">
<g id="graph0" class="graph" transform="scale(1 1) rotate(0) translate(4 158)">
<title>/home/gogo/rendu/tek2/cpp_plazza/gui/includes/XorCypher.hpp</title>
<!-- Node1 -->
<g id="node1" class="node"><title>Node1</title>
<polygon fill="#bfbfbf" stroke="black" points="-7.10543e-15,-112.5 -7.10543e-15,-153.5 124,-153.5 124,-112.5 -7.10543e-15,-112.5"/>
<text text-anchor="start" x="8" y="-141.5" font-family="Helvetica,sans-Serif" font-size="10.00">/home/gogo/rendu/tek2</text>
<text text-anchor="start" x="8" y="-130.5" font-family="Helvetica,sans-Serif" font-size="10.00">/cpp_plazza/gui/includes</text>
<text text-anchor="middle" x="62" y="-119.5" font-family="Helvetica,sans-Serif" font-size="10.00">/XorCypher.hpp</text>
</g>
<!-- Node2 -->
<g id="node2" class="node"><title>Node2</title>
<g id="a_node2"><a xlink:href="gui_2includes_2_a_cypher_8hpp.html" target="_top" xlink:title="ACypher.hpp">
<polygon fill="none" stroke="black" points="25,-56.5 25,-75.5 99,-75.5 99,-56.5 25,-56.5"/>
<text text-anchor="middle" x="62" y="-63.5" font-family="Helvetica,sans-Serif" font-size="10.00">ACypher.hpp</text>
</a>
</g>
</g>
<!-- Node1&#45;&gt;Node2 -->
<g id="edge1" class="edge"><title>Node1&#45;&gt;Node2</title>
<path fill="none" stroke="midnightblue" d="M62,-112.498C62,-104.065 62,-94.2351 62,-85.874"/>
<polygon fill="midnightblue" stroke="midnightblue" points="65.5001,-85.6525 62,-75.6525 58.5001,-85.6525 65.5001,-85.6525"/>
</g>
<!-- Node3 -->
<g id="node3" class="node"><title>Node3</title>
<polygon fill="none" stroke="#bfbfbf" points="41.5,-0.5 41.5,-19.5 82.5,-19.5 82.5,-0.5 41.5,-0.5"/>
<text text-anchor="middle" x="62" y="-7.5" font-family="Helvetica,sans-Serif" font-size="10.00">string</text>
</g>
<!-- Node2&#45;&gt;Node3 -->
<g id="edge2" class="edge"><title>Node2&#45;&gt;Node3</title>
<path fill="none" stroke="midnightblue" d="M62,-56.083C62,-49.0059 62,-38.8611 62,-29.9865"/>
<polygon fill="midnightblue" stroke="midnightblue" points="65.5001,-29.751 62,-19.7511 58.5001,-29.7511 65.5001,-29.751"/>
</g>
</g>
</svg>
