<?xml version="1.0" encoding="UTF-8" standalone="no"?>
<!DOCTYPE svg PUBLIC "-//W3C//DTD SVG 1.1//EN"
 "http://www.w3.org/Graphics/SVG/1.1/DTD/svg11.dtd">
<!-- Generated by graphviz version 2.38.0 (20140413.2041)
 -->
<!-- Title: /home/gogo/rendu/tek2/cpp_plazza/gui/includes/Command.hpp Pages: 1 -->
<svg width="319pt" height="440pt"
 viewBox="0.00 0.00 319.00 440.00" xmlns="http://www.w3.org/2000/svg" xmlns:xlink="http://www.w3.org/1999/xlink">
<g id="graph0" class="graph" transform="scale(1 1) rotate(0) translate(4 436)">
<title>/home/gogo/rendu/tek2/cpp_plazza/gui/includes/Command.hpp</title>
<!-- Node1 -->
<g id="node1" class="node"><title>Node1</title>
<polygon fill="#bfbfbf" stroke="black" points="142,-390.5 142,-431.5 266,-431.5 266,-390.5 142,-390.5"/>
<text text-anchor="start" x="150" y="-419.5" font-family="Helvetica,sans-Serif" font-size="10.00">/home/gogo/rendu/tek2</text>
<text text-anchor="start" x="150" y="-408.5" font-family="Helvetica,sans-Serif" font-size="10.00">/cpp_plazza/gui/includes</text>
<text text-anchor="middle" x="204" y="-397.5" font-family="Helvetica,sans-Serif" font-size="10.00">/Command.hpp</text>
</g>
<!-- Node2 -->
<g id="node2" class="node"><title>Node2</title>
<g id="a_node2"><a xlink:href="gui_2includes_2_command_manager_8hpp.html" target="_top" xlink:title="/home/gogo/rendu/tek2\l/cpp_plazza/gui/includes\l/CommandManager.hpp">
<polygon fill="none" stroke="black" points="0,-312.5 0,-353.5 124,-353.5 124,-312.5 0,-312.5"/>
<text text-anchor="start" x="8" y="-341.5" font-family="Helvetica,sans-Serif" font-size="10.00">/home/gogo/rendu/tek2</text>
<text text-anchor="start" x="8" y="-330.5" font-family="Helvetica,sans-Serif" font-size="10.00">/cpp_plazza/gui/includes</text>
<text text-anchor="middle" x="62" y="-319.5" font-family="Helvetica,sans-Serif" font-size="10.00">/CommandManager.hpp</text>
</a>
</g>
</g>
<!-- Node1&#45;&gt;Node2 -->
<g id="edge1" class="edge"><title>Node1&#45;&gt;Node2</title>
<path fill="none" stroke="midnightblue" d="M158.46,-385.627C139.057,-375.242 116.729,-363.292 98.4446,-353.506"/>
<polygon fill="midnightblue" stroke="midnightblue" points="156.963,-388.795 167.431,-390.428 160.266,-382.623 156.963,-388.795"/>
</g>
<!-- Node3 -->
<g id="node3" class="node"><title>Node3</title>
<g id="a_node3"><a xlink:href="gui_2includes_2_worker_8hpp.html" target="_top" xlink:title="/home/gogo/rendu/tek2\l/cpp_plazza/gui/includes\l/Worker.hpp">
<polygon fill="none" stroke="black" points="142,-312.5 142,-353.5 266,-353.5 266,-312.5 142,-312.5"/>
<text text-anchor="start" x="150" y="-341.5" font-family="Helvetica,sans-Serif" font-size="10.00">/home/gogo/rendu/tek2</text>
<text text-anchor="start" x="150" y="-330.5" font-family="Helvetica,sans-Serif" font-size="10.00">/cpp_plazza/gui/includes</text>
<text text-anchor="middle" x="204" y="-319.5" font-family="Helvetica,sans-Serif" font-size="10.00">/Worker.hpp</text>
</a>
</g>
</g>
<!-- Node1&#45;&gt;Node3 -->
<g id="edge2" class="edge"><title>Node1&#45;&gt;Node3</title>
<path fill="none" stroke="midnightblue" d="M204,-380.297C204,-371.301 204,-361.653 204,-353.506"/>
<polygon fill="midnightblue" stroke="midnightblue" points="200.5,-380.428 204,-390.428 207.5,-380.428 200.5,-380.428"/>
</g>
<!-- Node4 -->
<g id="node4" class="node"><title>Node4</title>
<g id="a_node4"><a xlink:href="gui_2includes_2_thread_pool_8hpp.html" target="_top" xlink:title="/home/gogo/rendu/tek2\l/cpp_plazza/gui/includes\l/ThreadPool.hpp">
<polygon fill="none" stroke="black" points="187,-234.5 187,-275.5 311,-275.5 311,-234.5 187,-234.5"/>
<text text-anchor="start" x="195" y="-263.5" font-family="Helvetica,sans-Serif" font-size="10.00">/home/gogo/rendu/tek2</text>
<text text-anchor="start" x="195" y="-252.5" font-family="Helvetica,sans-Serif" font-size="10.00">/cpp_plazza/gui/includes</text>
<text text-anchor="middle" x="249" y="-241.5" font-family="Helvetica,sans-Serif" font-size="10.00">/ThreadPool.hpp</text>
</a>
</g>
</g>
<!-- Node1&#45;&gt;Node4 -->
<g id="edge8" class="edge"><title>Node1&#45;&gt;Node4</title>
<path fill="none" stroke="midnightblue" d="M249.424,-384.095C259.707,-375.888 269.271,-365.815 275,-354 287.442,-328.341 273.725,-295.913 261.974,-275.557"/>
<polygon fill="midnightblue" stroke="midnightblue" points="247.035,-381.509 241.084,-390.275 251.203,-387.133 247.035,-381.509"/>
</g>
<!-- Node3&#45;&gt;Node4 -->
<g id="edge3" class="edge"><title>Node3&#45;&gt;Node4</title>
<path fill="none" stroke="midnightblue" d="M220.723,-303.757C226.29,-294.354 232.364,-284.096 237.451,-275.506"/>
<polygon fill="midnightblue" stroke="midnightblue" points="217.672,-302.04 215.589,-312.428 223.695,-305.607 217.672,-302.04"/>
</g>
<!-- Node5 -->
<g id="node5" class="node"><title>Node5</title>
<g id="a_node5"><a xlink:href="gui_2includes_2_office_8hpp.html" target="_top" xlink:title="/home/gogo/rendu/tek2\l/cpp_plazza/gui/includes\l/Office.hpp">
<polygon fill="none" stroke="black" points="187,-156.5 187,-197.5 311,-197.5 311,-156.5 187,-156.5"/>
<text text-anchor="start" x="195" y="-185.5" font-family="Helvetica,sans-Serif" font-size="10.00">/home/gogo/rendu/tek2</text>
<text text-anchor="start" x="195" y="-174.5" font-family="Helvetica,sans-Serif" font-size="10.00">/cpp_plazza/gui/includes</text>
<text text-anchor="middle" x="249" y="-163.5" font-family="Helvetica,sans-Serif" font-size="10.00">/Office.hpp</text>
</a>
</g>
</g>
<!-- Node4&#45;&gt;Node5 -->
<g id="edge4" class="edge"><title>Node4&#45;&gt;Node5</title>
<path fill="none" stroke="midnightblue" d="M249,-224.297C249,-215.301 249,-205.653 249,-197.506"/>
<polygon fill="midnightblue" stroke="midnightblue" points="245.5,-224.428 249,-234.428 252.5,-224.428 245.5,-224.428"/>
</g>
<!-- Node6 -->
<g id="node6" class="node"><title>Node6</title>
<g id="a_node6"><a xlink:href="gui_2includes_2_process_manager_8hpp.html" target="_top" xlink:title="/home/gogo/rendu/tek2\l/cpp_plazza/gui/includes\l/ProcessManager.hpp">
<polygon fill="none" stroke="black" points="142,-78.5 142,-119.5 266,-119.5 266,-78.5 142,-78.5"/>
<text text-anchor="start" x="150" y="-107.5" font-family="Helvetica,sans-Serif" font-size="10.00">/home/gogo/rendu/tek2</text>
<text text-anchor="start" x="150" y="-96.5" font-family="Helvetica,sans-Serif" font-size="10.00">/cpp_plazza/gui/includes</text>
<text text-anchor="middle" x="204" y="-85.5" font-family="Helvetica,sans-Serif" font-size="10.00">/ProcessManager.hpp</text>
</a>
</g>
</g>
<!-- Node5&#45;&gt;Node6 -->
<g id="edge5" class="edge"><title>Node5&#45;&gt;Node6</title>
<path fill="none" stroke="midnightblue" d="M232.277,-147.757C226.71,-138.354 220.636,-128.096 215.549,-119.506"/>
<polygon fill="midnightblue" stroke="midnightblue" points="229.305,-149.607 237.411,-156.428 235.328,-146.04 229.305,-149.607"/>
</g>
<!-- Node7 -->
<g id="node7" class="node"><title>Node7</title>
<g id="a_node7"><a xlink:href="gui_2includes_2_reception_8hpp.html" target="_top" xlink:title="/home/gogo/rendu/tek2\l/cpp_plazza/gui/includes\l/Reception.hpp">
<polygon fill="none" stroke="black" points="187,-0.5 187,-41.5 311,-41.5 311,-0.5 187,-0.5"/>
<text text-anchor="start" x="195" y="-29.5" font-family="Helvetica,sans-Serif" font-size="10.00">/home/gogo/rendu/tek2</text>
<text text-anchor="start" x="195" y="-18.5" font-family="Helvetica,sans-Serif" font-size="10.00">/cpp_plazza/gui/includes</text>
<text text-anchor="middle" x="249" y="-7.5" font-family="Helvetica,sans-Serif" font-size="10.00">/Reception.hpp</text>
</a>
</g>
</g>
<!-- Node5&#45;&gt;Node7 -->
<g id="edge7" class="edge"><title>Node5&#45;&gt;Node7</title>
<path fill="none" stroke="midnightblue" d="M265.279,-147.178C269.265,-138.688 272.968,-129.202 275,-120 279.025,-101.772 279.025,-96.2275 275,-78 272.203,-65.3351 266.242,-52.1319 260.732,-41.7286"/>
<polygon fill="midnightblue" stroke="midnightblue" points="262.074,-145.762 260.732,-156.271 268.335,-148.893 262.074,-145.762"/>
</g>
<!-- Node6&#45;&gt;Node7 -->
<g id="edge6" class="edge"><title>Node6&#45;&gt;Node7</title>
<path fill="none" stroke="midnightblue" d="M220.723,-69.7571C226.29,-60.354 232.364,-50.096 237.451,-41.5056"/>
<polygon fill="midnightblue" stroke="midnightblue" points="217.672,-68.0401 215.589,-78.4281 223.695,-71.6066 217.672,-68.0401"/>
</g>
</g>
</svg>
