<?xml version="1.0" encoding="UTF-8" standalone="no"?>
<!DOCTYPE svg PUBLIC "-//W3C//DTD SVG 1.1//EN"
 "http://www.w3.org/Graphics/SVG/1.1/DTD/svg11.dtd">
<!-- Generated by graphviz version 2.38.0 (20140413.2041)
 -->
<!-- Title: /home/gogo/rendu/tek2/cpp_plazza/gui/includes/ACypher.hpp Pages: 1 -->
<svg width="274pt" height="518pt"
 viewBox="0.00 0.00 274.00 518.00" xmlns="http://www.w3.org/2000/svg" xmlns:xlink="http://www.w3.org/1999/xlink">
<g id="graph0" class="graph" transform="scale(1 1) rotate(0) translate(4 514)">
<title>/home/gogo/rendu/tek2/cpp_plazza/gui/includes/ACypher.hpp</title>
<!-- Node1 -->
<g id="node1" class="node"><title>Node1</title>
<polygon fill="#bfbfbf" stroke="black" points="71,-468.5 71,-509.5 195,-509.5 195,-468.5 71,-468.5"/>
<text text-anchor="start" x="79" y="-497.5" font-family="Helvetica,sans-Serif" font-size="10.00">/home/gogo/rendu/tek2</text>
<text text-anchor="start" x="79" y="-486.5" font-family="Helvetica,sans-Serif" font-size="10.00">/cpp_plazza/gui/includes</text>
<text text-anchor="middle" x="133" y="-475.5" font-family="Helvetica,sans-Serif" font-size="10.00">/ACypher.hpp</text>
</g>
<!-- Node2 -->
<g id="node2" class="node"><title>Node2</title>
<g id="a_node2"><a xlink:href="gui_2includes_2_caesar_cypher_8hpp.html" target="_top" xlink:title="/home/gogo/rendu/tek2\l/cpp_plazza/gui/includes\l/CaesarCypher.hpp">
<polygon fill="none" stroke="black" points="0,-390.5 0,-431.5 124,-431.5 124,-390.5 0,-390.5"/>
<text text-anchor="start" x="8" y="-419.5" font-family="Helvetica,sans-Serif" font-size="10.00">/home/gogo/rendu/tek2</text>
<text text-anchor="start" x="8" y="-408.5" font-family="Helvetica,sans-Serif" font-size="10.00">/cpp_plazza/gui/includes</text>
<text text-anchor="middle" x="62" y="-397.5" font-family="Helvetica,sans-Serif" font-size="10.00">/CaesarCypher.hpp</text>
</a>
</g>
</g>
<!-- Node1&#45;&gt;Node2 -->
<g id="edge1" class="edge"><title>Node1&#45;&gt;Node2</title>
<path fill="none" stroke="midnightblue" d="M107.698,-460.916C98.6237,-451.203 88.5785,-440.45 80.2223,-431.506"/>
<polygon fill="midnightblue" stroke="midnightblue" points="105.332,-463.51 114.716,-468.428 110.447,-458.731 105.332,-463.51"/>
</g>
<!-- Node8 -->
<g id="node8" class="node"><title>Node8</title>
<g id="a_node8"><a xlink:href="gui_2includes_2_xor_cypher_8hpp.html" target="_top" xlink:title="/home/gogo/rendu/tek2\l/cpp_plazza/gui/includes\l/XorCypher.hpp">
<polygon fill="none" stroke="black" points="142,-390.5 142,-431.5 266,-431.5 266,-390.5 142,-390.5"/>
<text text-anchor="start" x="150" y="-419.5" font-family="Helvetica,sans-Serif" font-size="10.00">/home/gogo/rendu/tek2</text>
<text text-anchor="start" x="150" y="-408.5" font-family="Helvetica,sans-Serif" font-size="10.00">/cpp_plazza/gui/includes</text>
<text text-anchor="middle" x="204" y="-397.5" font-family="Helvetica,sans-Serif" font-size="10.00">/XorCypher.hpp</text>
</a>
</g>
</g>
<!-- Node1&#45;&gt;Node8 -->
<g id="edge8" class="edge"><title>Node1&#45;&gt;Node8</title>
<path fill="none" stroke="midnightblue" d="M158.302,-460.916C167.376,-451.203 177.422,-440.45 185.778,-431.506"/>
<polygon fill="midnightblue" stroke="midnightblue" points="155.553,-458.731 151.284,-468.428 160.668,-463.51 155.553,-458.731"/>
</g>
<!-- Node3 -->
<g id="node3" class="node"><title>Node3</title>
<g id="a_node3"><a xlink:href="gui_2includes_2_worker_8hpp.html" target="_top" xlink:title="/home/gogo/rendu/tek2\l/cpp_plazza/gui/includes\l/Worker.hpp">
<polygon fill="none" stroke="black" points="71,-312.5 71,-353.5 195,-353.5 195,-312.5 71,-312.5"/>
<text text-anchor="start" x="79" y="-341.5" font-family="Helvetica,sans-Serif" font-size="10.00">/home/gogo/rendu/tek2</text>
<text text-anchor="start" x="79" y="-330.5" font-family="Helvetica,sans-Serif" font-size="10.00">/cpp_plazza/gui/includes</text>
<text text-anchor="middle" x="133" y="-319.5" font-family="Helvetica,sans-Serif" font-size="10.00">/Worker.hpp</text>
</a>
</g>
</g>
<!-- Node2&#45;&gt;Node3 -->
<g id="edge2" class="edge"><title>Node2&#45;&gt;Node3</title>
<path fill="none" stroke="midnightblue" d="M87.3023,-382.916C96.3763,-373.203 106.422,-362.45 114.778,-353.506"/>
<polygon fill="midnightblue" stroke="midnightblue" points="84.5533,-380.731 80.2843,-390.428 89.6685,-385.51 84.5533,-380.731"/>
</g>
<!-- Node4 -->
<g id="node4" class="node"><title>Node4</title>
<g id="a_node4"><a xlink:href="gui_2includes_2_thread_pool_8hpp.html" target="_top" xlink:title="/home/gogo/rendu/tek2\l/cpp_plazza/gui/includes\l/ThreadPool.hpp">
<polygon fill="none" stroke="black" points="71,-234.5 71,-275.5 195,-275.5 195,-234.5 71,-234.5"/>
<text text-anchor="start" x="79" y="-263.5" font-family="Helvetica,sans-Serif" font-size="10.00">/home/gogo/rendu/tek2</text>
<text text-anchor="start" x="79" y="-252.5" font-family="Helvetica,sans-Serif" font-size="10.00">/cpp_plazza/gui/includes</text>
<text text-anchor="middle" x="133" y="-241.5" font-family="Helvetica,sans-Serif" font-size="10.00">/ThreadPool.hpp</text>
</a>
</g>
</g>
<!-- Node3&#45;&gt;Node4 -->
<g id="edge3" class="edge"><title>Node3&#45;&gt;Node4</title>
<path fill="none" stroke="midnightblue" d="M133,-302.297C133,-293.301 133,-283.653 133,-275.506"/>
<polygon fill="midnightblue" stroke="midnightblue" points="129.5,-302.428 133,-312.428 136.5,-302.428 129.5,-302.428"/>
</g>
<!-- Node5 -->
<g id="node5" class="node"><title>Node5</title>
<g id="a_node5"><a xlink:href="gui_2includes_2_office_8hpp.html" target="_top" xlink:title="/home/gogo/rendu/tek2\l/cpp_plazza/gui/includes\l/Office.hpp">
<polygon fill="none" stroke="black" points="71,-156.5 71,-197.5 195,-197.5 195,-156.5 71,-156.5"/>
<text text-anchor="start" x="79" y="-185.5" font-family="Helvetica,sans-Serif" font-size="10.00">/home/gogo/rendu/tek2</text>
<text text-anchor="start" x="79" y="-174.5" font-family="Helvetica,sans-Serif" font-size="10.00">/cpp_plazza/gui/includes</text>
<text text-anchor="middle" x="133" y="-163.5" font-family="Helvetica,sans-Serif" font-size="10.00">/Office.hpp</text>
</a>
</g>
</g>
<!-- Node4&#45;&gt;Node5 -->
<g id="edge4" class="edge"><title>Node4&#45;&gt;Node5</title>
<path fill="none" stroke="midnightblue" d="M133,-224.297C133,-215.301 133,-205.653 133,-197.506"/>
<polygon fill="midnightblue" stroke="midnightblue" points="129.5,-224.428 133,-234.428 136.5,-224.428 129.5,-224.428"/>
</g>
<!-- Node6 -->
<g id="node6" class="node"><title>Node6</title>
<g id="a_node6"><a xlink:href="gui_2includes_2_process_manager_8hpp.html" target="_top" xlink:title="/home/gogo/rendu/tek2\l/cpp_plazza/gui/includes\l/ProcessManager.hpp">
<polygon fill="none" stroke="black" points="26,-78.5 26,-119.5 150,-119.5 150,-78.5 26,-78.5"/>
<text text-anchor="start" x="34" y="-107.5" font-family="Helvetica,sans-Serif" font-size="10.00">/home/gogo/rendu/tek2</text>
<text text-anchor="start" x="34" y="-96.5" font-family="Helvetica,sans-Serif" font-size="10.00">/cpp_plazza/gui/includes</text>
<text text-anchor="middle" x="88" y="-85.5" font-family="Helvetica,sans-Serif" font-size="10.00">/ProcessManager.hpp</text>
</a>
</g>
</g>
<!-- Node5&#45;&gt;Node6 -->
<g id="edge5" class="edge"><title>Node5&#45;&gt;Node6</title>
<path fill="none" stroke="midnightblue" d="M116.277,-147.757C110.71,-138.354 104.636,-128.096 99.5493,-119.506"/>
<polygon fill="midnightblue" stroke="midnightblue" points="113.305,-149.607 121.411,-156.428 119.328,-146.04 113.305,-149.607"/>
</g>
<!-- Node7 -->
<g id="node7" class="node"><title>Node7</title>
<g id="a_node7"><a xlink:href="gui_2includes_2_reception_8hpp.html" target="_top" xlink:title="/home/gogo/rendu/tek2\l/cpp_plazza/gui/includes\l/Reception.hpp">
<polygon fill="none" stroke="black" points="71,-0.5 71,-41.5 195,-41.5 195,-0.5 71,-0.5"/>
<text text-anchor="start" x="79" y="-29.5" font-family="Helvetica,sans-Serif" font-size="10.00">/home/gogo/rendu/tek2</text>
<text text-anchor="start" x="79" y="-18.5" font-family="Helvetica,sans-Serif" font-size="10.00">/cpp_plazza/gui/includes</text>
<text text-anchor="middle" x="133" y="-7.5" font-family="Helvetica,sans-Serif" font-size="10.00">/Reception.hpp</text>
</a>
</g>
</g>
<!-- Node5&#45;&gt;Node7 -->
<g id="edge7" class="edge"><title>Node5&#45;&gt;Node7</title>
<path fill="none" stroke="midnightblue" d="M149.279,-147.178C153.265,-138.688 156.968,-129.202 159,-120 163.025,-101.772 163.025,-96.2275 159,-78 156.203,-65.3351 150.242,-52.1319 144.732,-41.7286"/>
<polygon fill="midnightblue" stroke="midnightblue" points="146.074,-145.762 144.732,-156.271 152.335,-148.893 146.074,-145.762"/>
</g>
<!-- Node6&#45;&gt;Node7 -->
<g id="edge6" class="edge"><title>Node6&#45;&gt;Node7</title>
<path fill="none" stroke="midnightblue" d="M104.723,-69.7571C110.29,-60.354 116.364,-50.096 121.451,-41.5056"/>
<polygon fill="midnightblue" stroke="midnightblue" points="101.672,-68.0401 99.5886,-78.4281 107.695,-71.6066 101.672,-68.0401"/>
</g>
<!-- Node8&#45;&gt;Node3 -->
<g id="edge9" class="edge"><title>Node8&#45;&gt;Node3</title>
<path fill="none" stroke="midnightblue" d="M178.698,-382.916C169.624,-373.203 159.578,-362.45 151.222,-353.506"/>
<polygon fill="midnightblue" stroke="midnightblue" points="176.332,-385.51 185.716,-390.428 181.447,-380.731 176.332,-385.51"/>
</g>
</g>
</svg>
