<?xml version="1.0" encoding="UTF-8" standalone="no"?>
<!DOCTYPE svg PUBLIC "-//W3C//DTD SVG 1.1//EN"
 "http://www.w3.org/Graphics/SVG/1.1/DTD/svg11.dtd">
<!-- Generated by graphviz version 2.38.0 (20140413.2041)
 -->
<!-- Title: /home/gogo/rendu/tek2/cpp_plazza/gui/sources/ThreadPool.cpp Pages: 1 -->
<svg width="326pt" height="106pt"
 viewBox="0.00 0.00 325.50 106.00" xmlns="http://www.w3.org/2000/svg" xmlns:xlink="http://www.w3.org/1999/xlink">
<g id="graph0" class="graph" transform="scale(1 1) rotate(0) translate(4 102)">
<title>/home/gogo/rendu/tek2/cpp_plazza/gui/sources/ThreadPool.cpp</title>
<!-- Node1 -->
<g id="node1" class="node"><title>Node1</title>
<polygon fill="#bfbfbf" stroke="black" points="85,-56.5 85,-97.5 207,-97.5 207,-56.5 85,-56.5"/>
<text text-anchor="start" x="93" y="-85.5" font-family="Helvetica,sans-Serif" font-size="10.00">/home/gogo/rendu/tek2</text>
<text text-anchor="start" x="93" y="-74.5" font-family="Helvetica,sans-Serif" font-size="10.00">/cpp_plazza/gui/sources</text>
<text text-anchor="middle" x="146" y="-63.5" font-family="Helvetica,sans-Serif" font-size="10.00">/ThreadPool.cpp</text>
</g>
<!-- Node2 -->
<g id="node2" class="node"><title>Node2</title>
<polygon fill="none" stroke="#bfbfbf" points="0,-0.5 0,-19.5 54,-19.5 54,-0.5 0,-0.5"/>
<text text-anchor="middle" x="27" y="-7.5" font-family="Helvetica,sans-Serif" font-size="10.00">iostream</text>
</g>
<!-- Node1&#45;&gt;Node2 -->
<g id="edge1" class="edge"><title>Node1&#45;&gt;Node2</title>
<path fill="none" stroke="midnightblue" d="M110.296,-56.4979C91.5248,-46.2447 68.9704,-33.925 52.0681,-24.6927"/>
<polygon fill="midnightblue" stroke="midnightblue" points="53.2947,-21.3746 42.8407,-19.6525 49.9391,-27.5179 53.2947,-21.3746"/>
</g>
<!-- Node3 -->
<g id="node3" class="node"><title>Node3</title>
<polygon fill="none" stroke="#bfbfbf" points="72.5,-0.5 72.5,-19.5 139.5,-19.5 139.5,-0.5 72.5,-0.5"/>
<text text-anchor="middle" x="106" y="-7.5" font-family="Helvetica,sans-Serif" font-size="10.00">Worker.hpp</text>
</g>
<!-- Node1&#45;&gt;Node3 -->
<g id="edge2" class="edge"><title>Node1&#45;&gt;Node3</title>
<path fill="none" stroke="midnightblue" d="M133.999,-56.4979C128.456,-47.4904 121.931,-36.8881 116.576,-28.1852"/>
<polygon fill="midnightblue" stroke="midnightblue" points="119.546,-26.3347 111.325,-19.6525 113.585,-30.0034 119.546,-26.3347"/>
</g>
<!-- Node4 -->
<g id="node4" class="node"><title>Node4</title>
<polygon fill="none" stroke="#bfbfbf" points="158,-0.5 158,-19.5 214,-19.5 214,-0.5 158,-0.5"/>
<text text-anchor="middle" x="186" y="-7.5" font-family="Helvetica,sans-Serif" font-size="10.00">Error.hpp</text>
</g>
<!-- Node1&#45;&gt;Node4 -->
<g id="edge3" class="edge"><title>Node1&#45;&gt;Node4</title>
<path fill="none" stroke="midnightblue" d="M158.001,-56.4979C163.544,-47.4904 170.069,-36.8881 175.424,-28.1852"/>
<polygon fill="midnightblue" stroke="midnightblue" points="178.415,-30.0034 180.675,-19.6525 172.454,-26.3347 178.415,-30.0034"/>
</g>
<!-- Node5 -->
<g id="node5" class="node"><title>Node5</title>
<polygon fill="none" stroke="#bfbfbf" points="232.5,-0.5 232.5,-19.5 317.5,-19.5 317.5,-0.5 232.5,-0.5"/>
<text text-anchor="middle" x="275" y="-7.5" font-family="Helvetica,sans-Serif" font-size="10.00">ThreadPool.hpp</text>
</g>
<!-- Node1&#45;&gt;Node5 -->
<g id="edge4" class="edge"><title>Node1&#45;&gt;Node5</title>
<path fill="none" stroke="midnightblue" d="M184.704,-56.4979C205.433,-46.053 230.418,-33.4638 248.846,-24.1782"/>
<polygon fill="midnightblue" stroke="midnightblue" points="250.473,-27.278 257.828,-19.6525 247.323,-21.0267 250.473,-27.278"/>
</g>
</g>
</svg>
