<?xml version="1.0" encoding="UTF-8" standalone="no"?>
<!DOCTYPE svg PUBLIC "-//W3C//DTD SVG 1.1//EN"
 "http://www.w3.org/Graphics/SVG/1.1/DTD/svg11.dtd">
<!-- Generated by graphviz version 2.38.0 (20140413.2041)
 -->
<!-- Title: main Pages: 1 -->
<svg width="427pt" height="241pt"
 viewBox="0.00 0.00 427.00 241.00" xmlns="http://www.w3.org/2000/svg" xmlns:xlink="http://www.w3.org/1999/xlink">
<g id="graph0" class="graph" transform="scale(1 1) rotate(0) translate(4 237)">
<title>main</title>
<!-- Node1 -->
<g id="node1" class="node"><title>Node1</title>
<polygon fill="#bfbfbf" stroke="black" points="0,-107 0,-126 38,-126 38,-107 0,-107"/>
<text text-anchor="middle" x="19" y="-114" font-family="Helvetica,sans-Serif" font-size="10.00">main</text>
</g>
<!-- Node2 -->
<g id="node2" class="node"><title>Node2</title>
<g id="a_node2"><a xlink:href="gui_2sources_2main__cypher_8cpp.html#add1099fd0935d5faefd7a4b92dfd955c" target="_top" xlink:title="xorf">
<polygon fill="none" stroke="black" points="82,-126 82,-145 115,-145 115,-126 82,-126"/>
<text text-anchor="middle" x="98.5" y="-133" font-family="Helvetica,sans-Serif" font-size="10.00">xorf</text>
</a>
</g>
</g>
<!-- Node1&#45;&gt;Node2 -->
<g id="edge1" class="edge"><title>Node1&#45;&gt;Node2</title>
<path fill="none" stroke="midnightblue" d="M38.3664,-121.003C48.4069,-123.464 60.9999,-126.552 71.9816,-129.244"/>
<polygon fill="midnightblue" stroke="midnightblue" points="71.335,-132.689 81.8808,-131.671 73.0019,-125.89 71.335,-132.689"/>
</g>
<!-- Node8 -->
<g id="node8" class="node"><title>Node8</title>
<g id="a_node8"><a xlink:href="gui_2sources_2main__cypher_8cpp.html#a8bd3823ec173b4b29834b0f4ccb95326" target="_top" xlink:title="caesarf">
<polygon fill="none" stroke="black" points="74,-88 74,-107 123,-107 123,-88 74,-88"/>
<text text-anchor="middle" x="98.5" y="-95" font-family="Helvetica,sans-Serif" font-size="10.00">caesarf</text>
</a>
</g>
</g>
<!-- Node1&#45;&gt;Node8 -->
<g id="edge8" class="edge"><title>Node1&#45;&gt;Node8</title>
<path fill="none" stroke="midnightblue" d="M38.3664,-111.997C46.1066,-110.1 55.3637,-107.83 64.2301,-105.656"/>
<polygon fill="midnightblue" stroke="midnightblue" points="65.094,-109.048 73.973,-103.268 63.4272,-102.25 65.094,-109.048"/>
</g>
<!-- Node3 -->
<g id="node3" class="node"><title>Node3</title>
<g id="a_node3"><a xlink:href="classplazza_1_1_xor_cypher.html#ad0a9d682c47c355d1e8ee848eaa8bd80" target="_top" xlink:title="Set current cypher key. ">
<polygon fill="none" stroke="black" points="164,-202.5 164,-232.5 268,-232.5 268,-202.5 164,-202.5"/>
<text text-anchor="start" x="172" y="-220.5" font-family="Helvetica,sans-Serif" font-size="10.00">plazza::XorCypher::</text>
<text text-anchor="middle" x="216" y="-209.5" font-family="Helvetica,sans-Serif" font-size="10.00">setKey</text>
</a>
</g>
</g>
<!-- Node2&#45;&gt;Node3 -->
<g id="edge2" class="edge"><title>Node2&#45;&gt;Node3</title>
<path fill="none" stroke="midnightblue" d="M109.039,-145.062C120.343,-156.093 140.044,-174.391 159,-187.5 163.94,-190.916 169.312,-194.236 174.709,-197.347"/>
<polygon fill="midnightblue" stroke="midnightblue" points="173.301,-200.568 183.743,-202.363 176.699,-194.449 173.301,-200.568"/>
</g>
<!-- Node4 -->
<g id="node4" class="node"><title>Node4</title>
<g id="a_node4"><a xlink:href="classplazza_1_1_file.html#a65844e0df72307648e3f5432ed964fdc" target="_top" xlink:title="Load file provided as parameter. ">
<polygon fill="none" stroke="black" points="170.5,-126 170.5,-145 261.5,-145 261.5,-126 170.5,-126"/>
<text text-anchor="middle" x="216" y="-133" font-family="Helvetica,sans-Serif" font-size="10.00">plazza::File::load</text>
</a>
</g>
</g>
<!-- Node2&#45;&gt;Node4 -->
<g id="edge3" class="edge"><title>Node2&#45;&gt;Node4</title>
<path fill="none" stroke="midnightblue" d="M115.077,-135.5C126.805,-135.5 143.636,-135.5 160.149,-135.5"/>
<polygon fill="midnightblue" stroke="midnightblue" points="160.342,-139 170.342,-135.5 160.342,-132 160.342,-139"/>
</g>
<!-- Node6 -->
<g id="node6" class="node"><title>Node6</title>
<g id="a_node6"><a xlink:href="classplazza_1_1_file.html#a928bc2918fada3f1c04ca30d73e18341" target="_top" xlink:title="Check if file is loaded. ">
<polygon fill="none" stroke="black" points="312,-107 312,-126 416,-126 416,-107 312,-107"/>
<text text-anchor="middle" x="364" y="-114" font-family="Helvetica,sans-Serif" font-size="10.00">plazza::File::isOpen</text>
</a>
</g>
</g>
<!-- Node2&#45;&gt;Node6 -->
<g id="edge6" class="edge"><title>Node2&#45;&gt;Node6</title>
<path fill="none" stroke="midnightblue" d="M115.089,-141.943C126.908,-146.464 143.678,-152.113 159,-154.5 209.063,-162.299 223.82,-166.682 273,-154.5 290.561,-150.15 292.422,-142.744 309,-135.5 313.717,-133.439 318.736,-131.434 323.741,-129.547"/>
<polygon fill="midnightblue" stroke="midnightblue" points="325.068,-132.789 333.268,-126.079 322.674,-126.211 325.068,-132.789"/>
</g>
<!-- Node7 -->
<g id="node7" class="node"><title>Node7</title>
<g id="a_node7"><a xlink:href="classplazza_1_1_file.html#a9fb543de19476d4e0623788120dbe793" target="_top" xlink:title="Get loaded file buffer. ">
<polygon fill="none" stroke="black" points="159.5,-88 159.5,-107 272.5,-107 272.5,-88 159.5,-88"/>
<text text-anchor="middle" x="216" y="-95" font-family="Helvetica,sans-Serif" font-size="10.00">plazza::File::getBuffer</text>
</a>
</g>
</g>
<!-- Node2&#45;&gt;Node7 -->
<g id="edge7" class="edge"><title>Node2&#45;&gt;Node7</title>
<path fill="none" stroke="midnightblue" d="M115.077,-130.375C130.705,-125.233 155.393,-117.111 176.319,-110.226"/>
<polygon fill="midnightblue" stroke="midnightblue" points="177.521,-113.515 185.927,-107.065 175.334,-106.866 177.521,-113.515"/>
</g>
<!-- Node5 -->
<g id="node5" class="node"><title>Node5</title>
<g id="a_node5"><a xlink:href="classplazza_1_1_file.html#aad99fa99466b458697a29effd5677b96" target="_top" xlink:title="Define file state. ">
<polygon fill="none" stroke="black" points="309,-145 309,-164 419,-164 419,-145 309,-145"/>
<text text-anchor="middle" x="364" y="-152" font-family="Helvetica,sans-Serif" font-size="10.00">plazza::File::setOpen</text>
</a>
</g>
</g>
<!-- Node4&#45;&gt;Node5 -->
<g id="edge4" class="edge"><title>Node4&#45;&gt;Node5</title>
<path fill="none" stroke="midnightblue" d="M261.598,-141.304C273.376,-142.837 286.323,-144.522 298.911,-146.16"/>
<polygon fill="midnightblue" stroke="midnightblue" points="298.533,-149.64 308.901,-147.46 299.436,-142.698 298.533,-149.64"/>
</g>
<!-- Node4&#45;&gt;Node6 -->
<g id="edge5" class="edge"><title>Node4&#45;&gt;Node6</title>
<path fill="none" stroke="midnightblue" d="M261.598,-129.696C274.228,-128.053 288.202,-126.234 301.636,-124.486"/>
<polygon fill="midnightblue" stroke="midnightblue" points="302.308,-127.928 311.773,-123.167 301.405,-120.986 302.308,-127.928"/>
</g>
<!-- Node8&#45;&gt;Node4 -->
<g id="edge9" class="edge"><title>Node8&#45;&gt;Node4</title>
<path fill="none" stroke="midnightblue" d="M123.152,-105.282C138.379,-110.291 158.533,-116.922 176.082,-122.696"/>
<polygon fill="midnightblue" stroke="midnightblue" points="175.464,-126.177 186.057,-125.978 177.652,-119.528 175.464,-126.177"/>
</g>
<!-- Node8&#45;&gt;Node6 -->
<g id="edge10" class="edge"><title>Node8&#45;&gt;Node6</title>
<path fill="none" stroke="midnightblue" d="M123.122,-88.1034C133.881,-84.3092 146.893,-80.3862 159,-78.5 209.063,-70.7008 223.341,-68.4461 273,-78.5 295.582,-83.0719 319.54,-93.4917 337.055,-102.266"/>
<polygon fill="midnightblue" stroke="midnightblue" points="335.583,-105.444 346.074,-106.923 338.795,-99.2248 335.583,-105.444"/>
</g>
<!-- Node8&#45;&gt;Node7 -->
<g id="edge11" class="edge"><title>Node8&#45;&gt;Node7</title>
<path fill="none" stroke="midnightblue" d="M123.152,-97.5C130.907,-97.5 139.939,-97.5 149.255,-97.5"/>
<polygon fill="midnightblue" stroke="midnightblue" points="149.428,-101 159.428,-97.5 149.428,-94.0001 149.428,-101"/>
</g>
<!-- Node9 -->
<g id="node9" class="node"><title>Node9</title>
<g id="a_node9"><a xlink:href="classplazza_1_1_caesar_cypher.html#a6a66388dc0df6d0a66595b279432bf08" target="_top" xlink:title="set actual shift ">
<polygon fill="none" stroke="black" points="159,-0.5 159,-30.5 273,-30.5 273,-0.5 159,-0.5"/>
<text text-anchor="start" x="167" y="-18.5" font-family="Helvetica,sans-Serif" font-size="10.00">plazza::CaesarCypher</text>
<text text-anchor="middle" x="216" y="-7.5" font-family="Helvetica,sans-Serif" font-size="10.00">::setMoved</text>
</a>
</g>
</g>
<!-- Node8&#45;&gt;Node9 -->
<g id="edge12" class="edge"><title>Node8&#45;&gt;Node9</title>
<path fill="none" stroke="midnightblue" d="M109.039,-87.9378C120.343,-76.907 140.044,-58.6091 159,-45.5 163.94,-42.084 169.312,-38.7639 174.709,-35.6534"/>
<polygon fill="midnightblue" stroke="midnightblue" points="176.699,-38.5514 183.743,-30.6367 173.301,-32.4316 176.699,-38.5514"/>
</g>
</g>
</svg>
