<?xml version="1.0" encoding="UTF-8" standalone="no"?>
<!DOCTYPE svg PUBLIC "-//W3C//DTD SVG 1.1//EN"
 "http://www.w3.org/Graphics/SVG/1.1/DTD/svg11.dtd">
<!-- Generated by graphviz version 2.38.0 (20140413.2041)
 -->
<!-- Title: /home/gogo/rendu/tek2/cpp_plazza/gui/sources/Utils.cpp Pages: 1 -->
<svg width="358pt" height="106pt"
 viewBox="0.00 0.00 358.00 106.00" xmlns="http://www.w3.org/2000/svg" xmlns:xlink="http://www.w3.org/1999/xlink">
<g id="graph0" class="graph" transform="scale(1 1) rotate(0) translate(4 102)">
<title>/home/gogo/rendu/tek2/cpp_plazza/gui/sources/Utils.cpp</title>
<!-- Node1 -->
<g id="node1" class="node"><title>Node1</title>
<polygon fill="#bfbfbf" stroke="black" points="110,-56.5 110,-97.5 232,-97.5 232,-56.5 110,-56.5"/>
<text text-anchor="start" x="118" y="-85.5" font-family="Helvetica,sans-Serif" font-size="10.00">/home/gogo/rendu/tek2</text>
<text text-anchor="start" x="118" y="-74.5" font-family="Helvetica,sans-Serif" font-size="10.00">/cpp_plazza/gui/sources</text>
<text text-anchor="middle" x="171" y="-63.5" font-family="Helvetica,sans-Serif" font-size="10.00">/Utils.cpp</text>
</g>
<!-- Node2 -->
<g id="node2" class="node"><title>Node2</title>
<polygon fill="none" stroke="#bfbfbf" points="0,-0.5 0,-19.5 56,-19.5 56,-0.5 0,-0.5"/>
<text text-anchor="middle" x="28" y="-7.5" font-family="Helvetica,sans-Serif" font-size="10.00">algorithm</text>
</g>
<!-- Node1&#45;&gt;Node2 -->
<g id="edge1" class="edge"><title>Node1&#45;&gt;Node2</title>
<path fill="none" stroke="midnightblue" d="M128.095,-56.4979C104.8,-45.9093 76.6571,-33.1169 56.1529,-23.7968"/>
<polygon fill="midnightblue" stroke="midnightblue" points="57.5875,-20.6043 47.0355,-19.6525 54.6908,-26.9769 57.5875,-20.6043"/>
</g>
<!-- Node3 -->
<g id="node3" class="node"><title>Node3</title>
<polygon fill="none" stroke="#bfbfbf" points="74,-0.5 74,-19.5 126,-19.5 126,-0.5 74,-0.5"/>
<text text-anchor="middle" x="100" y="-7.5" font-family="Helvetica,sans-Serif" font-size="10.00">sstream</text>
</g>
<!-- Node1&#45;&gt;Node3 -->
<g id="edge2" class="edge"><title>Node1&#45;&gt;Node3</title>
<path fill="none" stroke="midnightblue" d="M149.698,-56.4979C139.231,-46.9154 126.792,-35.5281 116.978,-26.5428"/>
<polygon fill="midnightblue" stroke="midnightblue" points="119.19,-23.8235 109.451,-19.6525 114.464,-28.9866 119.19,-23.8235"/>
</g>
<!-- Node4 -->
<g id="node4" class="node"><title>Node4</title>
<polygon fill="none" stroke="#bfbfbf" points="144,-0.5 144,-19.5 198,-19.5 198,-0.5 144,-0.5"/>
<text text-anchor="middle" x="171" y="-7.5" font-family="Helvetica,sans-Serif" font-size="10.00">iostream</text>
</g>
<!-- Node1&#45;&gt;Node4 -->
<g id="edge3" class="edge"><title>Node1&#45;&gt;Node4</title>
<path fill="none" stroke="midnightblue" d="M171,-56.4979C171,-48.0653 171,-38.2351 171,-29.874"/>
<polygon fill="midnightblue" stroke="midnightblue" points="174.5,-29.6525 171,-19.6525 167.5,-29.6525 174.5,-29.6525"/>
</g>
<!-- Node5 -->
<g id="node5" class="node"><title>Node5</title>
<polygon fill="none" stroke="#bfbfbf" points="216.5,-0.5 216.5,-19.5 275.5,-19.5 275.5,-0.5 216.5,-0.5"/>
<text text-anchor="middle" x="246" y="-7.5" font-family="Helvetica,sans-Serif" font-size="10.00">functional</text>
</g>
<!-- Node1&#45;&gt;Node5 -->
<g id="edge4" class="edge"><title>Node1&#45;&gt;Node5</title>
<path fill="none" stroke="midnightblue" d="M193.502,-56.4979C204.67,-46.8196 217.961,-35.3002 228.376,-26.274"/>
<polygon fill="midnightblue" stroke="midnightblue" points="230.752,-28.8468 236.016,-19.6525 226.167,-23.5569 230.752,-28.8468"/>
</g>
<!-- Node6 -->
<g id="node6" class="node"><title>Node6</title>
<polygon fill="none" stroke="#bfbfbf" points="294,-0.5 294,-19.5 350,-19.5 350,-0.5 294,-0.5"/>
<text text-anchor="middle" x="322" y="-7.5" font-family="Helvetica,sans-Serif" font-size="10.00">Utils.hpp</text>
</g>
<!-- Node1&#45;&gt;Node6 -->
<g id="edge5" class="edge"><title>Node1&#45;&gt;Node6</title>
<path fill="none" stroke="midnightblue" d="M216.305,-56.4979C241.014,-45.8614 270.89,-33.001 292.566,-23.6705"/>
<polygon fill="midnightblue" stroke="midnightblue" points="294.098,-26.8212 301.9,-19.6525 291.331,-20.3916 294.098,-26.8212"/>
</g>
</g>
</svg>
