<?xml version="1.0" encoding="UTF-8" standalone="no"?>
<!DOCTYPE svg PUBLIC "-//W3C//DTD SVG 1.1//EN"
 "http://www.w3.org/Graphics/SVG/1.1/DTD/svg11.dtd">
<!-- Generated by graphviz version 2.38.0 (20140413.2041)
 -->
<!-- Title: caesarf Pages: 1 -->
<svg width="353pt" height="154pt"
 viewBox="0.00 0.00 353.00 153.50" xmlns="http://www.w3.org/2000/svg" xmlns:xlink="http://www.w3.org/1999/xlink">
<g id="graph0" class="graph" transform="scale(1 1) rotate(0) translate(4 149.5)">
<title>caesarf</title>
<!-- Node1 -->
<g id="node1" class="node"><title>Node1</title>
<polygon fill="#bfbfbf" stroke="black" points="0,-69 0,-88 49,-88 49,-69 0,-69"/>
<text text-anchor="middle" x="24.5" y="-76" font-family="Helvetica,sans-Serif" font-size="10.00">caesarf</text>
</g>
<!-- Node2 -->
<g id="node2" class="node"><title>Node2</title>
<g id="a_node2"><a xlink:href="classplazza_1_1_file.html#a65844e0df72307648e3f5432ed964fdc" target="_top" xlink:title="Load file provided as parameter. ">
<polygon fill="none" stroke="black" points="96.5,-126 96.5,-145 187.5,-145 187.5,-126 96.5,-126"/>
<text text-anchor="middle" x="142" y="-133" font-family="Helvetica,sans-Serif" font-size="10.00">plazza::File::load</text>
</a>
</g>
</g>
<!-- Node1&#45;&gt;Node2 -->
<g id="edge1" class="edge"><title>Node1&#45;&gt;Node2</title>
<path fill="none" stroke="midnightblue" d="M41.679,-88.0581C53.5129,-94.9045 70.0439,-104.171 85,-111.5 92.3464,-115.1 100.365,-118.715 107.98,-122.008"/>
<polygon fill="midnightblue" stroke="midnightblue" points="106.755,-125.291 117.328,-125.981 109.494,-118.848 106.755,-125.291"/>
</g>
<!-- Node4 -->
<g id="node4" class="node"><title>Node4</title>
<g id="a_node4"><a xlink:href="classplazza_1_1_file.html#a928bc2918fada3f1c04ca30d73e18341" target="_top" xlink:title="Check if file is loaded. ">
<polygon fill="none" stroke="black" points="238,-88 238,-107 342,-107 342,-88 238,-88"/>
<text text-anchor="middle" x="290" y="-95" font-family="Helvetica,sans-Serif" font-size="10.00">plazza::File::isOpen</text>
</a>
</g>
</g>
<!-- Node1&#45;&gt;Node4 -->
<g id="edge4" class="edge"><title>Node1&#45;&gt;Node4</title>
<path fill="none" stroke="midnightblue" d="M49.3486,-80.2196C89.2419,-83.0962 170.717,-88.9711 227.535,-93.068"/>
<polygon fill="midnightblue" stroke="midnightblue" points="227.615,-96.5828 237.841,-93.8111 228.119,-89.6009 227.615,-96.5828"/>
</g>
<!-- Node5 -->
<g id="node5" class="node"><title>Node5</title>
<g id="a_node5"><a xlink:href="classplazza_1_1_file.html#a9fb543de19476d4e0623788120dbe793" target="_top" xlink:title="Get loaded file buffer. ">
<polygon fill="none" stroke="black" points="85.5,-50 85.5,-69 198.5,-69 198.5,-50 85.5,-50"/>
<text text-anchor="middle" x="142" y="-57" font-family="Helvetica,sans-Serif" font-size="10.00">plazza::File::getBuffer</text>
</a>
</g>
</g>
<!-- Node1&#45;&gt;Node5 -->
<g id="edge5" class="edge"><title>Node1&#45;&gt;Node5</title>
<path fill="none" stroke="midnightblue" d="M49.1519,-74.6092C56.9891,-73.32 66.1318,-71.816 75.5526,-70.2662"/>
<polygon fill="midnightblue" stroke="midnightblue" points="76.1286,-73.7186 85.4279,-68.6417 74.9923,-66.8114 76.1286,-73.7186"/>
</g>
<!-- Node6 -->
<g id="node6" class="node"><title>Node6</title>
<g id="a_node6"><a xlink:href="classplazza_1_1_caesar_cypher.html#a6a66388dc0df6d0a66595b279432bf08" target="_top" xlink:title="set actual shift ">
<polygon fill="none" stroke="black" points="85,-0.5 85,-30.5 199,-30.5 199,-0.5 85,-0.5"/>
<text text-anchor="start" x="93" y="-18.5" font-family="Helvetica,sans-Serif" font-size="10.00">plazza::CaesarCypher</text>
<text text-anchor="middle" x="142" y="-7.5" font-family="Helvetica,sans-Serif" font-size="10.00">::setMoved</text>
</a>
</g>
</g>
<!-- Node1&#45;&gt;Node6 -->
<g id="edge6" class="edge"><title>Node1&#45;&gt;Node6</title>
<path fill="none" stroke="midnightblue" d="M39.3304,-68.8349C51.1682,-60.7669 68.8139,-49.2193 85,-40.5 88.4858,-38.6222 92.1405,-36.7625 95.8416,-34.9551"/>
<polygon fill="midnightblue" stroke="midnightblue" points="97.5248,-38.0308 105.067,-30.59 94.5309,-31.7033 97.5248,-38.0308"/>
</g>
<!-- Node3 -->
<g id="node3" class="node"><title>Node3</title>
<g id="a_node3"><a xlink:href="classplazza_1_1_file.html#aad99fa99466b458697a29effd5677b96" target="_top" xlink:title="Define file state. ">
<polygon fill="none" stroke="black" points="235,-126 235,-145 345,-145 345,-126 235,-126"/>
<text text-anchor="middle" x="290" y="-133" font-family="Helvetica,sans-Serif" font-size="10.00">plazza::File::setOpen</text>
</a>
</g>
</g>
<!-- Node2&#45;&gt;Node3 -->
<g id="edge2" class="edge"><title>Node2&#45;&gt;Node3</title>
<path fill="none" stroke="midnightblue" d="M187.598,-135.5C199.26,-135.5 212.067,-135.5 224.537,-135.5"/>
<polygon fill="midnightblue" stroke="midnightblue" points="224.901,-139 234.901,-135.5 224.901,-132 224.901,-139"/>
</g>
<!-- Node2&#45;&gt;Node4 -->
<g id="edge3" class="edge"><title>Node2&#45;&gt;Node4</title>
<path fill="none" stroke="midnightblue" d="M179.842,-125.911C198.848,-120.964 222.229,-114.879 242.469,-109.611"/>
<polygon fill="midnightblue" stroke="midnightblue" points="243.627,-112.926 252.423,-107.02 241.864,-106.152 243.627,-112.926"/>
</g>
</g>
</svg>
