<?xml version="1.0" encoding="UTF-8" standalone="no"?>
<!DOCTYPE svg PUBLIC "-//W3C//DTD SVG 1.1//EN"
 "http://www.w3.org/Graphics/SVG/1.1/DTD/svg11.dtd">
<!-- Generated by graphviz version 2.38.0 (20140413.2041)
 -->
<!-- Title: /home/gogo/rendu/tek2/cpp_plazza/gui/includes/CondVar.hpp Pages: 1 -->
<svg width="184pt" height="106pt"
 viewBox="0.00 0.00 183.50 106.00" xmlns="http://www.w3.org/2000/svg" xmlns:xlink="http://www.w3.org/1999/xlink">
<g id="graph0" class="graph" transform="scale(1 1) rotate(0) translate(4 102)">
<title>/home/gogo/rendu/tek2/cpp_plazza/gui/includes/CondVar.hpp</title>
<!-- Node1 -->
<g id="node1" class="node"><title>Node1</title>
<polygon fill="#bfbfbf" stroke="black" points="33.5,-56.5 33.5,-97.5 157.5,-97.5 157.5,-56.5 33.5,-56.5"/>
<text text-anchor="start" x="41.5" y="-85.5" font-family="Helvetica,sans-Serif" font-size="10.00">/home/gogo/rendu/tek2</text>
<text text-anchor="start" x="41.5" y="-74.5" font-family="Helvetica,sans-Serif" font-size="10.00">/cpp_plazza/gui/includes</text>
<text text-anchor="middle" x="95.5" y="-63.5" font-family="Helvetica,sans-Serif" font-size="10.00">/CondVar.hpp</text>
</g>
<!-- Node2 -->
<g id="node2" class="node"><title>Node2</title>
<polygon fill="none" stroke="#bfbfbf" points="0,-0.5 0,-19.5 95,-19.5 95,-0.5 0,-0.5"/>
<text text-anchor="middle" x="47.5" y="-7.5" font-family="Helvetica,sans-Serif" font-size="10.00">condition_variable</text>
</g>
<!-- Node1&#45;&gt;Node2 -->
<g id="edge1" class="edge"><title>Node1&#45;&gt;Node2</title>
<path fill="none" stroke="midnightblue" d="M81.0984,-56.4979C74.376,-47.3946 66.4506,-36.6623 59.986,-27.9081"/>
<polygon fill="midnightblue" stroke="midnightblue" points="62.6455,-25.6177 53.8895,-19.6525 57.0145,-29.776 62.6455,-25.6177"/>
</g>
<!-- Node3 -->
<g id="node3" class="node"><title>Node3</title>
<g id="a_node3"><a xlink:href="gui_2includes_2_mutex_8hpp.html" target="_top" xlink:title="Mutex.hpp">
<polygon fill="none" stroke="black" points="113.5,-0.5 113.5,-19.5 175.5,-19.5 175.5,-0.5 113.5,-0.5"/>
<text text-anchor="middle" x="144.5" y="-7.5" font-family="Helvetica,sans-Serif" font-size="10.00">Mutex.hpp</text>
</a>
</g>
</g>
<!-- Node1&#45;&gt;Node3 -->
<g id="edge2" class="edge"><title>Node1&#45;&gt;Node3</title>
<path fill="none" stroke="midnightblue" d="M110.202,-56.4979C117.064,-47.3946 125.155,-36.6623 131.754,-27.9081"/>
<polygon fill="midnightblue" stroke="midnightblue" points="134.753,-29.7446 137.977,-19.6525 129.163,-25.5309 134.753,-29.7446"/>
</g>
</g>
</svg>
