<?xml version="1.0" encoding="UTF-8" standalone="no"?>
<!DOCTYPE svg PUBLIC "-//W3C//DTD SVG 1.1//EN"
 "http://www.w3.org/Graphics/SVG/1.1/DTD/svg11.dtd">
<!-- Generated by graphviz version 2.38.0 (20140413.2041)
 -->
<!-- Title: /home/gogo/rendu/tek2/cpp_plazza/gui/includes/File.hpp Pages: 1 -->
<svg width="188pt" height="106pt"
 viewBox="0.00 0.00 187.50 106.00" xmlns="http://www.w3.org/2000/svg" xmlns:xlink="http://www.w3.org/1999/xlink">
<g id="graph0" class="graph" transform="scale(1 1) rotate(0) translate(4 102)">
<title>/home/gogo/rendu/tek2/cpp_plazza/gui/includes/File.hpp</title>
<!-- Node1 -->
<g id="node1" class="node"><title>Node1</title>
<polygon fill="#bfbfbf" stroke="black" points="22.5,-56.5 22.5,-97.5 146.5,-97.5 146.5,-56.5 22.5,-56.5"/>
<text text-anchor="start" x="30.5" y="-85.5" font-family="Helvetica,sans-Serif" font-size="10.00">/home/gogo/rendu/tek2</text>
<text text-anchor="start" x="30.5" y="-74.5" font-family="Helvetica,sans-Serif" font-size="10.00">/cpp_plazza/gui/includes</text>
<text text-anchor="middle" x="84.5" y="-63.5" font-family="Helvetica,sans-Serif" font-size="10.00">/File.hpp</text>
</g>
<!-- Node2 -->
<g id="node2" class="node"><title>Node2</title>
<polygon fill="none" stroke="#bfbfbf" points="0,-0.5 0,-19.5 41,-19.5 41,-0.5 0,-0.5"/>
<text text-anchor="middle" x="20.5" y="-7.5" font-family="Helvetica,sans-Serif" font-size="10.00">string</text>
</g>
<!-- Node1&#45;&gt;Node2 -->
<g id="edge1" class="edge"><title>Node1&#45;&gt;Node2</title>
<path fill="none" stroke="midnightblue" d="M65.2979,-56.4979C55.9572,-47.0113 44.8748,-35.7557 36.0698,-26.8131"/>
<polygon fill="midnightblue" stroke="midnightblue" points="38.5294,-24.3226 29.0194,-19.6525 33.5415,-29.2338 38.5294,-24.3226"/>
</g>
<!-- Node3 -->
<g id="node3" class="node"><title>Node3</title>
<polygon fill="none" stroke="#bfbfbf" points="59.5,-0.5 59.5,-19.5 109.5,-19.5 109.5,-0.5 59.5,-0.5"/>
<text text-anchor="middle" x="84.5" y="-7.5" font-family="Helvetica,sans-Serif" font-size="10.00">fstream</text>
</g>
<!-- Node1&#45;&gt;Node3 -->
<g id="edge2" class="edge"><title>Node1&#45;&gt;Node3</title>
<path fill="none" stroke="midnightblue" d="M84.5,-56.4979C84.5,-48.0653 84.5,-38.2351 84.5,-29.874"/>
<polygon fill="midnightblue" stroke="midnightblue" points="88.0001,-29.6525 84.5,-19.6525 81.0001,-29.6525 88.0001,-29.6525"/>
</g>
<!-- Node4 -->
<g id="node4" class="node"><title>Node4</title>
<polygon fill="none" stroke="#bfbfbf" points="127.5,-0.5 127.5,-19.5 179.5,-19.5 179.5,-0.5 127.5,-0.5"/>
<text text-anchor="middle" x="153.5" y="-7.5" font-family="Helvetica,sans-Serif" font-size="10.00">sstream</text>
</g>
<!-- Node1&#45;&gt;Node4 -->
<g id="edge3" class="edge"><title>Node1&#45;&gt;Node4</title>
<path fill="none" stroke="midnightblue" d="M105.202,-56.4979C115.374,-46.9154 127.462,-35.5281 137.001,-26.5428"/>
<polygon fill="midnightblue" stroke="midnightblue" points="139.436,-29.0571 144.315,-19.6525 134.636,-23.9618 139.436,-29.0571"/>
</g>
</g>
</svg>
