<?xml version="1.0" encoding="UTF-8" standalone="no"?>
<!DOCTYPE svg PUBLIC "-//W3C//DTD SVG 1.1//EN"
 "http://www.w3.org/Graphics/SVG/1.1/DTD/svg11.dtd">
<!-- Generated by graphviz version 2.38.0 (20140413.2041)
 -->
<!-- Title: /home/gogo/rendu/tek2/cpp_plazza/gui/sources/Reception.cpp Pages: 1 -->
<svg width="744pt" height="106pt"
 viewBox="0.00 0.00 743.50 106.00" xmlns="http://www.w3.org/2000/svg" xmlns:xlink="http://www.w3.org/1999/xlink">
<g id="graph0" class="graph" transform="scale(1 1) rotate(0) translate(4 102)">
<title>/home/gogo/rendu/tek2/cpp_plazza/gui/sources/Reception.cpp</title>
<!-- Node1 -->
<g id="node1" class="node"><title>Node1</title>
<polygon fill="#bfbfbf" stroke="black" points="232.5,-56.5 232.5,-97.5 354.5,-97.5 354.5,-56.5 232.5,-56.5"/>
<text text-anchor="start" x="240.5" y="-85.5" font-family="Helvetica,sans-Serif" font-size="10.00">/home/gogo/rendu/tek2</text>
<text text-anchor="start" x="240.5" y="-74.5" font-family="Helvetica,sans-Serif" font-size="10.00">/cpp_plazza/gui/sources</text>
<text text-anchor="middle" x="293.5" y="-63.5" font-family="Helvetica,sans-Serif" font-size="10.00">/Reception.cpp</text>
</g>
<!-- Node2 -->
<g id="node2" class="node"><title>Node2</title>
<polygon fill="none" stroke="#bfbfbf" points="0,-0.5 0,-19.5 51,-19.5 51,-0.5 0,-0.5"/>
<text text-anchor="middle" x="25.5" y="-7.5" font-family="Helvetica,sans-Serif" font-size="10.00">unistd.h</text>
</g>
<!-- Node1&#45;&gt;Node2 -->
<g id="edge1" class="edge"><title>Node1&#45;&gt;Node2</title>
<path fill="none" stroke="midnightblue" d="M232.114,-61.526C187.389,-50.9162 125.081,-36.0028 60.9854,-20.0912"/>
<polygon fill="midnightblue" stroke="midnightblue" points="61.6515,-16.6503 51.1024,-17.6332 59.962,-23.4433 61.6515,-16.6503"/>
</g>
<!-- Node3 -->
<g id="node3" class="node"><title>Node3</title>
<polygon fill="none" stroke="#bfbfbf" points="69.5,-0.5 69.5,-19.5 125.5,-19.5 125.5,-0.5 69.5,-0.5"/>
<text text-anchor="middle" x="97.5" y="-7.5" font-family="Helvetica,sans-Serif" font-size="10.00">algorithm</text>
</g>
<!-- Node1&#45;&gt;Node3 -->
<g id="edge2" class="edge"><title>Node1&#45;&gt;Node3</title>
<path fill="none" stroke="midnightblue" d="M234.694,-56.4979C201.653,-45.5406 161.497,-32.2233 133.19,-22.8361"/>
<polygon fill="midnightblue" stroke="midnightblue" points="133.926,-19.3928 123.333,-19.5671 131.723,-26.037 133.926,-19.3928"/>
</g>
<!-- Node4 -->
<g id="node4" class="node"><title>Node4</title>
<polygon fill="none" stroke="#bfbfbf" points="143.5,-0.5 143.5,-19.5 187.5,-19.5 187.5,-0.5 143.5,-0.5"/>
<text text-anchor="middle" x="165.5" y="-7.5" font-family="Helvetica,sans-Serif" font-size="10.00">thread</text>
</g>
<!-- Node1&#45;&gt;Node4 -->
<g id="edge3" class="edge"><title>Node1&#45;&gt;Node4</title>
<path fill="none" stroke="midnightblue" d="M255.096,-56.4979C234.622,-46.1009 209.964,-33.5792 191.703,-24.3062"/>
<polygon fill="midnightblue" stroke="midnightblue" points="193.04,-21.0596 182.539,-19.6525 189.87,-27.301 193.04,-21.0596"/>
</g>
<!-- Node5 -->
<g id="node5" class="node"><title>Node5</title>
<polygon fill="none" stroke="#bfbfbf" points="206,-0.5 206,-19.5 247,-19.5 247,-0.5 206,-0.5"/>
<text text-anchor="middle" x="226.5" y="-7.5" font-family="Helvetica,sans-Serif" font-size="10.00">future</text>
</g>
<!-- Node1&#45;&gt;Node5 -->
<g id="edge4" class="edge"><title>Node1&#45;&gt;Node5</title>
<path fill="none" stroke="midnightblue" d="M273.398,-56.4979C263.619,-47.0113 252.017,-35.7557 242.8,-26.8131"/>
<polygon fill="midnightblue" stroke="midnightblue" points="245.033,-24.1036 235.419,-19.6525 240.159,-29.1277 245.033,-24.1036"/>
</g>
<!-- Node6 -->
<g id="node6" class="node"><title>Node6</title>
<polygon fill="none" stroke="#bfbfbf" points="265.5,-0.5 265.5,-19.5 321.5,-19.5 321.5,-0.5 265.5,-0.5"/>
<text text-anchor="middle" x="293.5" y="-7.5" font-family="Helvetica,sans-Serif" font-size="10.00">Utils.hpp</text>
</g>
<!-- Node1&#45;&gt;Node6 -->
<g id="edge5" class="edge"><title>Node1&#45;&gt;Node6</title>
<path fill="none" stroke="midnightblue" d="M293.5,-56.4979C293.5,-48.0653 293.5,-38.2351 293.5,-29.874"/>
<polygon fill="midnightblue" stroke="midnightblue" points="297,-29.6525 293.5,-19.6525 290,-29.6525 297,-29.6525"/>
</g>
<!-- Node7 -->
<g id="node7" class="node"><title>Node7</title>
<polygon fill="none" stroke="#bfbfbf" points="339.5,-0.5 339.5,-19.5 419.5,-19.5 419.5,-0.5 339.5,-0.5"/>
<text text-anchor="middle" x="379.5" y="-7.5" font-family="Helvetica,sans-Serif" font-size="10.00">Command.hpp</text>
</g>
<!-- Node1&#45;&gt;Node7 -->
<g id="edge6" class="edge"><title>Node1&#45;&gt;Node7</title>
<path fill="none" stroke="midnightblue" d="M319.303,-56.4979C332.361,-46.628 347.954,-34.8432 359.997,-25.7407"/>
<polygon fill="midnightblue" stroke="midnightblue" points="362.185,-28.4744 368.052,-19.6525 357.964,-22.89 362.185,-28.4744"/>
</g>
<!-- Node8 -->
<g id="node8" class="node"><title>Node8</title>
<polygon fill="none" stroke="#bfbfbf" points="437.5,-0.5 437.5,-19.5 555.5,-19.5 555.5,-0.5 437.5,-0.5"/>
<text text-anchor="middle" x="496.5" y="-7.5" font-family="Helvetica,sans-Serif" font-size="10.00">CommandManager.hpp</text>
</g>
<!-- Node1&#45;&gt;Node8 -->
<g id="edge7" class="edge"><title>Node1&#45;&gt;Node8</title>
<path fill="none" stroke="midnightblue" d="M354.407,-56.4979C388.777,-45.4925 430.583,-32.1065 459.92,-22.7128"/>
<polygon fill="midnightblue" stroke="midnightblue" points="461.288,-25.9499 469.744,-19.5671 459.153,-19.2833 461.288,-25.9499"/>
</g>
<!-- Node9 -->
<g id="node9" class="node"><title>Node9</title>
<polygon fill="none" stroke="#bfbfbf" points="573.5,-0.5 573.5,-19.5 637.5,-19.5 637.5,-0.5 573.5,-0.5"/>
<text text-anchor="middle" x="605.5" y="-7.5" font-family="Helvetica,sans-Serif" font-size="10.00">Config.hpp</text>
</g>
<!-- Node1&#45;&gt;Node9 -->
<g id="edge8" class="edge"><title>Node1&#45;&gt;Node9</title>
<path fill="none" stroke="midnightblue" d="M354.625,-63.5927C407.326,-52.8442 485.737,-36.731 563.33,-20.2309"/>
<polygon fill="midnightblue" stroke="midnightblue" points="564.228,-23.6183 573.279,-18.1121 562.769,-16.7719 564.228,-23.6183"/>
</g>
<!-- Node10 -->
<g id="node10" class="node"><title>Node10</title>
<polygon fill="none" stroke="#bfbfbf" points="655.5,-0.5 655.5,-19.5 735.5,-19.5 735.5,-0.5 655.5,-0.5"/>
<text text-anchor="middle" x="695.5" y="-7.5" font-family="Helvetica,sans-Serif" font-size="10.00">Reception.hpp</text>
</g>
<!-- Node1&#45;&gt;Node10 -->
<g id="edge9" class="edge"><title>Node1&#45;&gt;Node10</title>
<path fill="none" stroke="midnightblue" d="M354.795,-66.7388C423.127,-56.3101 537.193,-38.5927 645.297,-20.1737"/>
<polygon fill="midnightblue" stroke="midnightblue" points="646.135,-23.5813 655.403,-18.4468 644.956,-16.6814 646.135,-23.5813"/>
</g>
</g>
</svg>
