<?xml version="1.0" encoding="UTF-8" standalone="no"?>
<!DOCTYPE svg PUBLIC "-//W3C//DTD SVG 1.1//EN"
 "http://www.w3.org/Graphics/SVG/1.1/DTD/svg11.dtd">
<!-- Generated by graphviz version 2.38.0 (20140413.2041)
 -->
<!-- Title: /home/gogo/rendu/tek2/cpp_plazza/gui/sources/Mutex.cpp Pages: 1 -->
<svg width="136pt" height="106pt"
 viewBox="0.00 0.00 136.00 106.00" xmlns="http://www.w3.org/2000/svg" xmlns:xlink="http://www.w3.org/1999/xlink">
<g id="graph0" class="graph" transform="scale(1 1) rotate(0) translate(4 102)">
<title>/home/gogo/rendu/tek2/cpp_plazza/gui/sources/Mutex.cpp</title>
<!-- Node1 -->
<g id="node1" class="node"><title>Node1</title>
<polygon fill="#bfbfbf" stroke="black" points="0,-56.5 0,-97.5 122,-97.5 122,-56.5 0,-56.5"/>
<text text-anchor="start" x="8" y="-85.5" font-family="Helvetica,sans-Serif" font-size="10.00">/home/gogo/rendu/tek2</text>
<text text-anchor="start" x="8" y="-74.5" font-family="Helvetica,sans-Serif" font-size="10.00">/cpp_plazza/gui/sources</text>
<text text-anchor="middle" x="61" y="-63.5" font-family="Helvetica,sans-Serif" font-size="10.00">/Mutex.cpp</text>
</g>
<!-- Node2 -->
<g id="node2" class="node"><title>Node2</title>
<polygon fill="none" stroke="#bfbfbf" points="4,-0.5 4,-19.5 48,-19.5 48,-0.5 4,-0.5"/>
<text text-anchor="middle" x="26" y="-7.5" font-family="Helvetica,sans-Serif" font-size="10.00">mutex</text>
</g>
<!-- Node1&#45;&gt;Node2 -->
<g id="edge1" class="edge"><title>Node1&#45;&gt;Node2</title>
<path fill="none" stroke="midnightblue" d="M50.4988,-56.4979C45.7003,-47.5862 40.0611,-37.1135 35.4035,-28.4636"/>
<polygon fill="midnightblue" stroke="midnightblue" points="38.4817,-26.7978 30.659,-19.6525 32.3184,-30.1166 38.4817,-26.7978"/>
</g>
<!-- Node3 -->
<g id="node3" class="node"><title>Node3</title>
<polygon fill="none" stroke="#bfbfbf" points="66,-0.5 66,-19.5 128,-19.5 128,-0.5 66,-0.5"/>
<text text-anchor="middle" x="97" y="-7.5" font-family="Helvetica,sans-Serif" font-size="10.00">Mutex.hpp</text>
</g>
<!-- Node1&#45;&gt;Node3 -->
<g id="edge2" class="edge"><title>Node1&#45;&gt;Node3</title>
<path fill="none" stroke="midnightblue" d="M71.8012,-56.4979C76.7369,-47.5862 82.5371,-37.1135 87.3279,-28.4636"/>
<polygon fill="midnightblue" stroke="midnightblue" points="90.4246,-30.0962 92.2079,-19.6525 84.301,-26.7046 90.4246,-30.0962"/>
</g>
</g>
</svg>
