<?xml version="1.0" encoding="UTF-8" standalone="no"?>
<!DOCTYPE svg PUBLIC "-//W3C//DTD SVG 1.1//EN"
 "http://www.w3.org/Graphics/SVG/1.1/DTD/svg11.dtd">
<!-- Generated by graphviz version 2.38.0 (20140413.2041)
 -->
<!-- Title: /home/gogo/rendu/tek2/cpp_plazza/gui/includes/ProcessManager.hpp Pages: 1 -->
<!--zoomable 386 -->
<svg id="main" version="1.1" xmlns="http://www.w3.org/2000/svg" xmlns:xlink="http://www.w3.org/1999/xlink" xml:space="preserve" onload="init(evt)">
<style type="text/css"><![CDATA[
.edge:hover path { stroke: red; }
.edge:hover polygon { stroke: red; fill: red; }
]]></style>
<script type="text/javascript"><![CDATA[
var edges = document.getElementsByTagName('g');
if (edges && edges.length) {
  for (var i=0;i<edges.length;i++) {
    if (edges[i].id.substr(0,4)=='edge') {
      edges[i].setAttribute('class','edge');
    }
  }
}
]]></script>
        <defs>
                <circle id="rim" cx="0" cy="0" r="7"/>
                <circle id="rim2" cx="0" cy="0" r="3.5"/>
                <g id="zoomPlus">
                        <use xlink:href="#rim" fill="#404040">
                                <set attributeName="fill" to="#808080" begin="zoomplus.mouseover" end="zoomplus.mouseout"/>
                        </use>
                        <path d="M-4,0h8M0,-4v8" fill="none" stroke="white" stroke-width="1.5" pointer-events="none"/>
                </g>
                <g id="zoomMin">
                        <use xlink:href="#rim" fill="#404040">
                                <set attributeName="fill" to="#808080" begin="zoomminus.mouseover" end="zoomminus.mouseout"/>
                        </use>
                        <path d="M-4,0h8" fill="none" stroke="white" stroke-width="1.5" pointer-events="none"/>
                </g>
                <g id="dirArrow">
                        <path fill="none" stroke="white" stroke-width="1.5" d="M0,-3.0v7 M-2.5,-0.5L0,-3.0L2.5,-0.5"/>
                </g>
               <g id="resetDef">
                       <use xlink:href="#rim2" fill="#404040">
                               <set attributeName="fill" to="#808080" begin="reset.mouseover" end="reset.mouseout"/>
                       </use>
               </g>
        </defs>

<script type="text/javascript">
var viewWidth = 1196;
var viewHeight = 386;
var sectionId = 'dynsection-0';
</script>
<script xlink:href="svgpan.js"/>
<svg id="graph" class="graph">
<g id="viewport">
<title>/home/gogo/rendu/tek2/cpp_plazza/gui/includes/ProcessManager.hpp</title>
<!-- Node1 -->
<g id="node1" class="node"><title>Node1</title>
<polygon fill="#bfbfbf" stroke="black" points="740,-336.5 740,-377.5 864,-377.5 864,-336.5 740,-336.5"/>
<text text-anchor="start" x="748" y="-365.5" font-family="Helvetica,sans-Serif" font-size="10.00">/home/gogo/rendu/tek2</text>
<text text-anchor="start" x="748" y="-354.5" font-family="Helvetica,sans-Serif" font-size="10.00">/cpp_plazza/gui/includes</text>
<text text-anchor="middle" x="802" y="-343.5" font-family="Helvetica,sans-Serif" font-size="10.00">/ProcessManager.hpp</text>
</g>
<!-- Node2 -->
<g id="node2" class="node"><title>Node2</title>
<g id="a_node2"><a xlink:href="gui_2includes_2_office_8hpp.html" target="_top" xlink:title="Office.hpp">
<polygon fill="none" stroke="black" points="464,-280.5 464,-299.5 526,-299.5 526,-280.5 464,-280.5"/>
<text text-anchor="middle" x="495" y="-287.5" font-family="Helvetica,sans-Serif" font-size="10.00">Office.hpp</text>
</a>
</g>
</g>
<!-- Node1&#45;&gt;Node2 -->
<g id="edge1" class="edge"><title>Node1&#45;&gt;Node2</title>
<path fill="none" stroke="midnightblue" d="M739.874,-342.846C679.099,-329.979 588.277,-310.749 536.017,-299.684"/>
<polygon fill="midnightblue" stroke="midnightblue" points="536.608,-296.232 526.1,-297.585 535.158,-303.08 536.608,-296.232"/>
</g>
<!-- Node29 -->
<g id="node29" class="node"><title>Node29</title>
<g id="a_node29"><a xlink:href="gui_2includes_2_error_8hpp.html" target="_top" xlink:title="Error.hpp">
<polygon fill="none" stroke="black" points="1072,-280.5 1072,-299.5 1128,-299.5 1128,-280.5 1072,-280.5"/>
<text text-anchor="middle" x="1100" y="-287.5" font-family="Helvetica,sans-Serif" font-size="10.00">Error.hpp</text>
</a>
</g>
</g>
<!-- Node1&#45;&gt;Node29 -->
<g id="edge42" class="edge"><title>Node1&#45;&gt;Node29</title>
<path fill="none" stroke="midnightblue" d="M864.108,-342.453C923.667,-329.462 1011.7,-310.26 1061.67,-299.361"/>
<polygon fill="midnightblue" stroke="midnightblue" points="1062.71,-302.717 1071.73,-297.166 1061.21,-295.878 1062.71,-302.717"/>
</g>
<!-- Node3 -->
<g id="node3" class="node"><title>Node3</title>
<polygon fill="none" stroke="#bfbfbf" points="824,-112.5 824,-131.5 878,-131.5 878,-112.5 824,-112.5"/>
<text text-anchor="middle" x="851" y="-119.5" font-family="Helvetica,sans-Serif" font-size="10.00">iostream</text>
</g>
<!-- Node2&#45;&gt;Node3 -->
<g id="edge2" class="edge"><title>Node2&#45;&gt;Node3</title>
<path fill="none" stroke="midnightblue" d="M526.046,-280.723C554.433,-272.724 597.308,-259.554 633,-244 707.627,-211.479 790.256,-161.44 828.857,-137.171"/>
<polygon fill="midnightblue" stroke="midnightblue" points="831.111,-139.887 837.69,-131.583 827.368,-133.971 831.111,-139.887"/>
</g>
<!-- Node4 -->
<g id="node4" class="node"><title>Node4</title>
<polygon fill="none" stroke="#bfbfbf" points="556,-224.5 556,-243.5 624,-243.5 624,-224.5 556,-224.5"/>
<text text-anchor="middle" x="590" y="-231.5" font-family="Helvetica,sans-Serif" font-size="10.00">sys/types.h</text>
</g>
<!-- Node2&#45;&gt;Node4 -->
<g id="edge3" class="edge"><title>Node2&#45;&gt;Node4</title>
<path fill="none" stroke="midnightblue" d="M510.263,-280.324C525.221,-271.822 548.255,-258.729 565.727,-248.797"/>
<polygon fill="midnightblue" stroke="midnightblue" points="567.81,-251.639 574.774,-243.655 564.351,-245.553 567.81,-251.639"/>
</g>
<!-- Node5 -->
<g id="node5" class="node"><title>Node5</title>
<polygon fill="none" stroke="#bfbfbf" points="158,-56.5 158,-75.5 202,-75.5 202,-56.5 158,-56.5"/>
<text text-anchor="middle" x="180" y="-63.5" font-family="Helvetica,sans-Serif" font-size="10.00">vector</text>
</g>
<!-- Node2&#45;&gt;Node5 -->
<g id="edge4" class="edge"><title>Node2&#45;&gt;Node5</title>
<path fill="none" stroke="midnightblue" d="M463.836,-282.926C410.34,-271.38 299.25,-242.419 221,-188 194.088,-169.284 184.373,-162.744 173,-132 167.462,-117.031 170.121,-98.8933 173.642,-85.5856"/>
<polygon fill="midnightblue" stroke="midnightblue" points="177.081,-86.3043 176.641,-75.7186 170.384,-84.2683 177.081,-86.3043"/>
</g>
<!-- Node6 -->
<g id="node6" class="node"><title>Node6</title>
<polygon fill="none" stroke="#bfbfbf" points="66,-224.5 66,-243.5 112,-243.5 112,-224.5 66,-224.5"/>
<text text-anchor="middle" x="89" y="-231.5" font-family="Helvetica,sans-Serif" font-size="10.00">chrono</text>
</g>
<!-- Node2&#45;&gt;Node6 -->
<g id="edge5" class="edge"><title>Node2&#45;&gt;Node6</title>
<path fill="none" stroke="midnightblue" d="M463.713,-286.432C399.871,-280.919 250.132,-266.586 126,-244 124.719,-243.767 123.417,-243.517 122.104,-243.253"/>
<polygon fill="midnightblue" stroke="midnightblue" points="122.521,-239.761 112.003,-241.037 121.021,-246.599 122.521,-239.761"/>
</g>
<!-- Node7 -->
<g id="node7" class="node"><title>Node7</title>
<g id="a_node7"><a xlink:href="gui_2includes_2_connector_pipe_8hpp.html" target="_top" xlink:title="ConnectorPipe.hpp">
<polygon fill="none" stroke="black" points="0,-112.5 0,-131.5 100,-131.5 100,-112.5 0,-112.5"/>
<text text-anchor="middle" x="50" y="-119.5" font-family="Helvetica,sans-Serif" font-size="10.00">ConnectorPipe.hpp</text>
</a>
</g>
</g>
<!-- Node2&#45;&gt;Node7 -->
<g id="edge6" class="edge"><title>Node2&#45;&gt;Node7</title>
<path fill="none" stroke="midnightblue" d="M463.789,-288.086C368.334,-284.98 85.0681,-273.349 57,-244 30.9125,-216.722 37.9465,-168.265 44.4944,-141.7"/>
<polygon fill="midnightblue" stroke="midnightblue" points="47.9448,-142.348 47.1729,-131.782 41.1868,-140.523 47.9448,-142.348"/>
</g>
<!-- Node10 -->
<g id="node10" class="node"><title>Node10</title>
<g id="a_node10"><a xlink:href="gui_2includes_2_thread_pool_8hpp.html" target="_top" xlink:title="ThreadPool.hpp">
<polygon fill="none" stroke="black" points="452.5,-224.5 452.5,-243.5 537.5,-243.5 537.5,-224.5 452.5,-224.5"/>
<text text-anchor="middle" x="495" y="-231.5" font-family="Helvetica,sans-Serif" font-size="10.00">ThreadPool.hpp</text>
</a>
</g>
</g>
<!-- Node2&#45;&gt;Node10 -->
<g id="edge10" class="edge"><title>Node2&#45;&gt;Node10</title>
<path fill="none" stroke="midnightblue" d="M495,-280.083C495,-273.006 495,-262.861 495,-253.986"/>
<polygon fill="midnightblue" stroke="midnightblue" points="498.5,-253.751 495,-243.751 491.5,-253.751 498.5,-253.751"/>
</g>
<!-- Node8 -->
<g id="node8" class="node"><title>Node8</title>
<polygon fill="none" stroke="#bfbfbf" points="304.5,-0.5 304.5,-19.5 345.5,-19.5 345.5,-0.5 304.5,-0.5"/>
<text text-anchor="middle" x="325" y="-7.5" font-family="Helvetica,sans-Serif" font-size="10.00">string</text>
</g>
<!-- Node7&#45;&gt;Node8 -->
<g id="edge7" class="edge"><title>Node7&#45;&gt;Node8</title>
<path fill="none" stroke="midnightblue" d="M60.5909,-112.318C77.9964,-98.4646 114.201,-71.359 149,-56 197.505,-34.5918 258.201,-21.895 294.161,-15.7002"/>
<polygon fill="midnightblue" stroke="midnightblue" points="295.195,-19.0764 304.486,-13.984 294.047,-12.1712 295.195,-19.0764"/>
</g>
<!-- Node9 -->
<g id="node9" class="node"><title>Node9</title>
<g id="a_node9"><a xlink:href="gui_2includes_2_config_8hpp.html" target="_top" xlink:title="Config.hpp">
<polygon fill="none" stroke="black" points="22,-56.5 22,-75.5 86,-75.5 86,-56.5 22,-56.5"/>
<text text-anchor="middle" x="54" y="-63.5" font-family="Helvetica,sans-Serif" font-size="10.00">Config.hpp</text>
</a>
</g>
</g>
<!-- Node7&#45;&gt;Node9 -->
<g id="edge8" class="edge"><title>Node7&#45;&gt;Node9</title>
<path fill="none" stroke="midnightblue" d="M50.6605,-112.083C51.1848,-105.006 51.9362,-94.8611 52.5936,-85.9865"/>
<polygon fill="midnightblue" stroke="midnightblue" points="56.1034,-85.9823 53.3518,-75.7511 49.1225,-85.4652 56.1034,-85.9823"/>
</g>
<!-- Node9&#45;&gt;Node8 -->
<g id="edge9" class="edge"><title>Node9&#45;&gt;Node8</title>
<path fill="none" stroke="midnightblue" d="M86.1515,-58.5934C138.881,-48.0864 243.02,-27.3355 294.591,-17.0593"/>
<polygon fill="midnightblue" stroke="midnightblue" points="295.345,-20.4781 304.468,-15.0913 293.977,-13.6131 295.345,-20.4781"/>
</g>
<!-- Node10&#45;&gt;Node5 -->
<g id="edge11" class="edge"><title>Node10&#45;&gt;Node5</title>
<path fill="none" stroke="midnightblue" d="M452.402,-233.298C383.416,-231.211 248.578,-215.919 185,-132 175.077,-118.902 174.801,-99.7538 176.422,-85.6309"/>
<polygon fill="midnightblue" stroke="midnightblue" points="179.904,-86.0121 177.98,-75.5935 172.987,-84.9383 179.904,-86.0121"/>
</g>
<!-- Node11 -->
<g id="node11" class="node"><title>Node11</title>
<polygon fill="none" stroke="#bfbfbf" points="399,-168.5 399,-187.5 443,-187.5 443,-168.5 399,-168.5"/>
<text text-anchor="middle" x="421" y="-175.5" font-family="Helvetica,sans-Serif" font-size="10.00">mutex</text>
</g>
<!-- Node10&#45;&gt;Node11 -->
<g id="edge12" class="edge"><title>Node10&#45;&gt;Node11</title>
<path fill="none" stroke="midnightblue" d="M483.111,-224.324C471.85,-216.107 454.713,-203.602 441.291,-193.807"/>
<polygon fill="midnightblue" stroke="midnightblue" points="443.247,-190.901 433.106,-187.834 439.12,-196.556 443.247,-190.901"/>
</g>
<!-- Node12 -->
<g id="node12" class="node"><title>Node12</title>
<polygon fill="none" stroke="#bfbfbf" points="546.5,-168.5 546.5,-187.5 589.5,-187.5 589.5,-168.5 546.5,-168.5"/>
<text text-anchor="middle" x="568" y="-175.5" font-family="Helvetica,sans-Serif" font-size="10.00">queue</text>
</g>
<!-- Node10&#45;&gt;Node12 -->
<g id="edge13" class="edge"><title>Node10&#45;&gt;Node12</title>
<path fill="none" stroke="midnightblue" d="M506.729,-224.324C517.837,-216.107 534.742,-203.602 547.983,-193.807"/>
<polygon fill="midnightblue" stroke="midnightblue" points="550.1,-196.595 556.058,-187.834 545.937,-190.967 550.1,-196.595"/>
</g>
<!-- Node13 -->
<g id="node13" class="node"><title>Node13</title>
<g id="a_node13"><a xlink:href="gui_2includes_2_thread_8hpp.html" target="_top" xlink:title="Thread.hpp">
<polygon fill="none" stroke="black" points="740.5,-112.5 740.5,-131.5 805.5,-131.5 805.5,-112.5 740.5,-112.5"/>
<text text-anchor="middle" x="773" y="-119.5" font-family="Helvetica,sans-Serif" font-size="10.00">Thread.hpp</text>
</a>
</g>
</g>
<!-- Node10&#45;&gt;Node13 -->
<g id="edge14" class="edge"><title>Node10&#45;&gt;Node13</title>
<path fill="none" stroke="midnightblue" d="M516.814,-224.368C565.839,-204.97 684.875,-157.87 741.745,-135.367"/>
<polygon fill="midnightblue" stroke="midnightblue" points="743.276,-138.525 751.287,-131.591 740.701,-132.016 743.276,-138.525"/>
</g>
<!-- Node15 -->
<g id="node15" class="node"><title>Node15</title>
<g id="a_node15"><a xlink:href="gui_2includes_2_mutex_8hpp.html" target="_top" xlink:title="Mutex.hpp">
<polygon fill="none" stroke="black" points="896,-112.5 896,-131.5 958,-131.5 958,-112.5 896,-112.5"/>
<text text-anchor="middle" x="927" y="-119.5" font-family="Helvetica,sans-Serif" font-size="10.00">Mutex.hpp</text>
</a>
</g>
</g>
<!-- Node10&#45;&gt;Node15 -->
<g id="edge16" class="edge"><title>Node10&#45;&gt;Node15</title>
<path fill="none" stroke="midnightblue" d="M528.539,-224.46C606.739,-204.548 800.959,-155.094 886.009,-133.437"/>
<polygon fill="midnightblue" stroke="midnightblue" points="886.998,-136.798 895.825,-130.938 885.27,-130.014 886.998,-136.798"/>
</g>
<!-- Node16 -->
<g id="node16" class="node"><title>Node16</title>
<g id="a_node16"><a xlink:href="gui_2includes_2_cond_var_8hpp.html" target="_top" xlink:title="CondVar.hpp">
<polygon fill="none" stroke="black" points="890,-168.5 890,-187.5 964,-187.5 964,-168.5 890,-168.5"/>
<text text-anchor="middle" x="927" y="-175.5" font-family="Helvetica,sans-Serif" font-size="10.00">CondVar.hpp</text>
</a>
</g>
</g>
<!-- Node10&#45;&gt;Node16 -->
<g id="edge17" class="edge"><title>Node10&#45;&gt;Node16</title>
<path fill="none" stroke="midnightblue" d="M537.538,-225.447C540.736,-224.937 543.917,-224.449 547,-224 666.52,-206.593 807.937,-191.214 879.866,-183.762"/>
<polygon fill="midnightblue" stroke="midnightblue" points="880.375,-187.228 889.964,-182.721 879.657,-180.265 880.375,-187.228"/>
</g>
<!-- Node18 -->
<g id="node18" class="node"><title>Node18</title>
<g id="a_node18"><a xlink:href="gui_2includes_2_worker_8hpp.html" target="_top" xlink:title="Worker.hpp">
<polygon fill="none" stroke="black" points="461.5,-168.5 461.5,-187.5 528.5,-187.5 528.5,-168.5 461.5,-168.5"/>
<text text-anchor="middle" x="495" y="-175.5" font-family="Helvetica,sans-Serif" font-size="10.00">Worker.hpp</text>
</a>
</g>
</g>
<!-- Node10&#45;&gt;Node18 -->
<g id="edge20" class="edge"><title>Node10&#45;&gt;Node18</title>
<path fill="none" stroke="midnightblue" d="M495,-224.083C495,-217.006 495,-206.861 495,-197.986"/>
<polygon fill="midnightblue" stroke="midnightblue" points="498.5,-197.751 495,-187.751 491.5,-197.751 498.5,-197.751"/>
</g>
<!-- Node23 -->
<g id="node23" class="node"><title>Node23</title>
<g id="a_node23"><a xlink:href="gui_2includes_2_command_8hpp.html" target="_top" xlink:title="Command.hpp">
<polygon fill="none" stroke="black" points="194,-112.5 194,-131.5 274,-131.5 274,-112.5 194,-112.5"/>
<text text-anchor="middle" x="234" y="-119.5" font-family="Helvetica,sans-Serif" font-size="10.00">Command.hpp</text>
</a>
</g>
</g>
<!-- Node10&#45;&gt;Node23 -->
<g id="edge41" class="edge"><title>Node10&#45;&gt;Node23</title>
<path fill="none" stroke="midnightblue" d="M474.52,-224.368C428.589,-205.01 317.199,-158.065 263.677,-135.507"/>
<polygon fill="midnightblue" stroke="midnightblue" points="264.959,-132.25 254.385,-131.591 262.241,-138.7 264.959,-132.25"/>
</g>
<!-- Node14 -->
<g id="node14" class="node"><title>Node14</title>
<polygon fill="none" stroke="#bfbfbf" points="751,-56.5 751,-75.5 795,-75.5 795,-56.5 751,-56.5"/>
<text text-anchor="middle" x="773" y="-63.5" font-family="Helvetica,sans-Serif" font-size="10.00">thread</text>
</g>
<!-- Node13&#45;&gt;Node14 -->
<g id="edge15" class="edge"><title>Node13&#45;&gt;Node14</title>
<path fill="none" stroke="midnightblue" d="M773,-112.083C773,-105.006 773,-94.8611 773,-85.9865"/>
<polygon fill="midnightblue" stroke="midnightblue" points="776.5,-85.751 773,-75.7511 769.5,-85.7511 776.5,-85.751"/>
</g>
<!-- Node16&#45;&gt;Node15 -->
<g id="edge19" class="edge"><title>Node16&#45;&gt;Node15</title>
<path fill="none" stroke="midnightblue" d="M927,-168.083C927,-161.006 927,-150.861 927,-141.986"/>
<polygon fill="midnightblue" stroke="midnightblue" points="930.5,-141.751 927,-131.751 923.5,-141.751 930.5,-141.751"/>
</g>
<!-- Node17 -->
<g id="node17" class="node"><title>Node17</title>
<polygon fill="none" stroke="#bfbfbf" points="976.5,-112.5 976.5,-131.5 1071.5,-131.5 1071.5,-112.5 976.5,-112.5"/>
<text text-anchor="middle" x="1024" y="-119.5" font-family="Helvetica,sans-Serif" font-size="10.00">condition_variable</text>
</g>
<!-- Node16&#45;&gt;Node17 -->
<g id="edge18" class="edge"><title>Node16&#45;&gt;Node17</title>
<path fill="none" stroke="midnightblue" d="M942.585,-168.324C957.999,-159.743 981.812,-146.486 999.71,-136.522"/>
<polygon fill="midnightblue" stroke="midnightblue" points="1001.42,-139.577 1008.45,-131.655 998.014,-133.461 1001.42,-139.577"/>
</g>
<!-- Node18&#45;&gt;Node3 -->
<g id="edge22" class="edge"><title>Node18&#45;&gt;Node3</title>
<path fill="none" stroke="midnightblue" d="M528.88,-169.491C531.622,-168.959 534.354,-168.455 537,-168 659.353,-146.976 691.947,-154.705 814,-132 814.102,-131.981 814.203,-131.962 814.305,-131.943"/>
<polygon fill="midnightblue" stroke="midnightblue" points="814.917,-135.391 823.996,-129.93 813.493,-128.537 814.917,-135.391"/>
</g>
<!-- Node18&#45;&gt;Node13 -->
<g id="edge23" class="edge"><title>Node18&#45;&gt;Node13</title>
<path fill="none" stroke="midnightblue" d="M528.909,-169.65C531.645,-169.082 534.367,-168.526 537,-168 619.886,-151.432 643.333,-149.326 730.393,-132.072"/>
<polygon fill="midnightblue" stroke="midnightblue" points="731.336,-135.453 740.459,-130.066 729.968,-128.588 731.336,-135.453"/>
</g>
<!-- Node19 -->
<g id="node19" class="node"><title>Node19</title>
<polygon fill="none" stroke="#bfbfbf" points="464.5,-112.5 464.5,-131.5 505.5,-131.5 505.5,-112.5 464.5,-112.5"/>
<text text-anchor="middle" x="485" y="-119.5" font-family="Helvetica,sans-Serif" font-size="10.00">regex</text>
</g>
<!-- Node18&#45;&gt;Node19 -->
<g id="edge21" class="edge"><title>Node18&#45;&gt;Node19</title>
<path fill="none" stroke="midnightblue" d="M493.349,-168.083C492.024,-160.927 490.118,-150.635 488.461,-141.691"/>
<polygon fill="midnightblue" stroke="midnightblue" points="491.883,-140.947 486.621,-131.751 485,-142.221 491.883,-140.947"/>
</g>
<!-- Node20 -->
<g id="node20" class="node"><title>Node20</title>
<g id="a_node20"><a xlink:href="gui_2includes_2_file_8hpp.html" target="_top" xlink:title="File.hpp">
<polygon fill="none" stroke="black" points="395.5,-112.5 395.5,-131.5 446.5,-131.5 446.5,-112.5 395.5,-112.5"/>
<text text-anchor="middle" x="421" y="-119.5" font-family="Helvetica,sans-Serif" font-size="10.00">File.hpp</text>
</a>
</g>
</g>
<!-- Node18&#45;&gt;Node20 -->
<g id="edge24" class="edge"><title>Node18&#45;&gt;Node20</title>
<path fill="none" stroke="midnightblue" d="M483.111,-168.324C471.85,-160.107 454.713,-147.602 441.291,-137.807"/>
<polygon fill="midnightblue" stroke="midnightblue" points="443.247,-134.901 433.106,-131.834 439.12,-140.556 443.247,-134.901"/>
</g>
<!-- Node18&#45;&gt;Node23 -->
<g id="edge28" class="edge"><title>Node18&#45;&gt;Node23</title>
<path fill="none" stroke="midnightblue" d="M461.201,-169.917C458.09,-169.267 454.987,-168.621 452,-168 394.433,-156.034 328.289,-142.396 284.099,-133.301"/>
<polygon fill="midnightblue" stroke="midnightblue" points="284.686,-129.848 274.186,-131.261 283.275,-136.705 284.686,-129.848"/>
</g>
<!-- Node25 -->
<g id="node25" class="node"><title>Node25</title>
<g id="a_node25"><a xlink:href="gui_2includes_2_xor_cypher_8hpp.html" target="_top" xlink:title="XorCypher.hpp">
<polygon fill="none" stroke="black" points="524,-112.5 524,-131.5 606,-131.5 606,-112.5 524,-112.5"/>
<text text-anchor="middle" x="565" y="-119.5" font-family="Helvetica,sans-Serif" font-size="10.00">XorCypher.hpp</text>
</a>
</g>
</g>
<!-- Node18&#45;&gt;Node25 -->
<g id="edge32" class="edge"><title>Node18&#45;&gt;Node25</title>
<path fill="none" stroke="midnightblue" d="M506.247,-168.324C516.797,-160.185 532.801,-147.839 545.442,-138.087"/>
<polygon fill="midnightblue" stroke="midnightblue" points="547.769,-140.713 553.549,-131.834 543.493,-135.171 547.769,-140.713"/>
</g>
<!-- Node27 -->
<g id="node27" class="node"><title>Node27</title>
<g id="a_node27"><a xlink:href="gui_2includes_2_caesar_cypher_8hpp.html" target="_top" xlink:title="CaesarCypher.hpp">
<polygon fill="none" stroke="black" points="624,-112.5 624,-131.5 722,-131.5 722,-112.5 624,-112.5"/>
<text text-anchor="middle" x="673" y="-119.5" font-family="Helvetica,sans-Serif" font-size="10.00">CaesarCypher.hpp</text>
</a>
</g>
</g>
<!-- Node18&#45;&gt;Node27 -->
<g id="edge35" class="edge"><title>Node18&#45;&gt;Node27</title>
<path fill="none" stroke="midnightblue" d="M523.205,-168.444C553.41,-159.28 601.511,-144.688 635.029,-134.519"/>
<polygon fill="midnightblue" stroke="midnightblue" points="636.374,-137.769 644.927,-131.516 634.342,-131.07 636.374,-137.769"/>
</g>
<!-- Node28 -->
<g id="node28" class="node"><title>Node28</title>
<g id="a_node28"><a xlink:href="gui_2includes_2_xor_cracker_8hpp.html" target="_top" xlink:title="XorCracker.hpp">
<polygon fill="none" stroke="black" points="292.5,-112.5 292.5,-131.5 377.5,-131.5 377.5,-112.5 292.5,-112.5"/>
<text text-anchor="middle" x="335" y="-119.5" font-family="Helvetica,sans-Serif" font-size="10.00">XorCracker.hpp</text>
</a>
</g>
</g>
<!-- Node18&#45;&gt;Node28 -->
<g id="edge37" class="edge"><title>Node18&#45;&gt;Node28</title>
<path fill="none" stroke="midnightblue" d="M469.648,-168.444C442.731,-159.359 400.004,-144.939 369.913,-134.783"/>
<polygon fill="midnightblue" stroke="midnightblue" points="370.828,-131.398 360.234,-131.516 368.59,-138.031 370.828,-131.398"/>
</g>
<!-- Node20&#45;&gt;Node8 -->
<g id="edge25" class="edge"><title>Node20&#45;&gt;Node8</title>
<path fill="none" stroke="midnightblue" d="M439.951,-112.297C463.414,-100.318 498.393,-77.7518 482,-56 466.811,-35.8463 396.838,-21.9628 355.61,-15.3737"/>
<polygon fill="midnightblue" stroke="midnightblue" points="355.969,-11.8878 345.552,-13.8195 354.9,-18.8057 355.969,-11.8878"/>
</g>
<!-- Node21 -->
<g id="node21" class="node"><title>Node21</title>
<polygon fill="none" stroke="#bfbfbf" points="423,-56.5 423,-75.5 473,-75.5 473,-56.5 423,-56.5"/>
<text text-anchor="middle" x="448" y="-63.5" font-family="Helvetica,sans-Serif" font-size="10.00">fstream</text>
</g>
<!-- Node20&#45;&gt;Node21 -->
<g id="edge26" class="edge"><title>Node20&#45;&gt;Node21</title>
<path fill="none" stroke="midnightblue" d="M425.459,-112.083C429.154,-104.691 434.523,-93.9533 439.094,-84.8111"/>
<polygon fill="midnightblue" stroke="midnightblue" points="442.283,-86.2606 443.624,-75.7511 436.022,-83.1301 442.283,-86.2606"/>
</g>
<!-- Node22 -->
<g id="node22" class="node"><title>Node22</title>
<polygon fill="none" stroke="#bfbfbf" points="353,-56.5 353,-75.5 405,-75.5 405,-56.5 353,-56.5"/>
<text text-anchor="middle" x="379" y="-63.5" font-family="Helvetica,sans-Serif" font-size="10.00">sstream</text>
</g>
<!-- Node20&#45;&gt;Node22 -->
<g id="edge27" class="edge"><title>Node20&#45;&gt;Node22</title>
<path fill="none" stroke="midnightblue" d="M414.065,-112.083C408.071,-104.377 399.248,-93.0333 391.952,-83.6531"/>
<polygon fill="midnightblue" stroke="midnightblue" points="394.709,-81.4958 385.806,-75.7511 389.183,-85.7934 394.709,-81.4958"/>
</g>
<!-- Node23&#45;&gt;Node5 -->
<g id="edge30" class="edge"><title>Node23&#45;&gt;Node5</title>
<path fill="none" stroke="midnightblue" d="M225.083,-112.083C217.22,-104.22 205.569,-92.5688 196.081,-83.0813"/>
<polygon fill="midnightblue" stroke="midnightblue" points="198.297,-80.3473 188.751,-75.7511 193.347,-85.2971 198.297,-80.3473"/>
</g>
<!-- Node23&#45;&gt;Node8 -->
<g id="edge29" class="edge"><title>Node23&#45;&gt;Node8</title>
<path fill="none" stroke="midnightblue" d="M234.434,-112.118C235.502,-98.7038 239.2,-73.0391 252,-56 262.929,-41.4506 280.063,-30.5363 294.985,-23.1026"/>
<polygon fill="midnightblue" stroke="midnightblue" points="296.802,-26.1171 304.385,-18.717 293.843,-19.7736 296.802,-26.1171"/>
</g>
<!-- Node24 -->
<g id="node24" class="node"><title>Node24</title>
<polygon fill="none" stroke="#bfbfbf" points="261.5,-56.5 261.5,-75.5 296.5,-75.5 296.5,-56.5 261.5,-56.5"/>
<text text-anchor="middle" x="279" y="-63.5" font-family="Helvetica,sans-Serif" font-size="10.00">map</text>
</g>
<!-- Node23&#45;&gt;Node24 -->
<g id="edge31" class="edge"><title>Node23&#45;&gt;Node24</title>
<path fill="none" stroke="midnightblue" d="M241.431,-112.083C247.853,-104.377 257.306,-93.0333 265.122,-83.6531"/>
<polygon fill="midnightblue" stroke="midnightblue" points="267.994,-85.674 271.707,-75.7511 262.617,-81.1927 267.994,-85.674"/>
</g>
<!-- Node26 -->
<g id="node26" class="node"><title>Node26</title>
<g id="a_node26"><a xlink:href="gui_2includes_2_a_cypher_8hpp.html" target="_top" xlink:title="ACypher.hpp">
<polygon fill="none" stroke="black" points="529,-56.5 529,-75.5 603,-75.5 603,-56.5 529,-56.5"/>
<text text-anchor="middle" x="566" y="-63.5" font-family="Helvetica,sans-Serif" font-size="10.00">ACypher.hpp</text>
</a>
</g>
</g>
<!-- Node25&#45;&gt;Node26 -->
<g id="edge33" class="edge"><title>Node25&#45;&gt;Node26</title>
<path fill="none" stroke="midnightblue" d="M565.165,-112.083C565.296,-105.006 565.484,-94.8611 565.648,-85.9865"/>
<polygon fill="midnightblue" stroke="midnightblue" points="569.152,-85.8142 565.838,-75.7511 562.153,-85.6845 569.152,-85.8142"/>
</g>
<!-- Node26&#45;&gt;Node8 -->
<g id="edge34" class="edge"><title>Node26&#45;&gt;Node8</title>
<path fill="none" stroke="midnightblue" d="M528.872,-56.6808C481.322,-46.0265 399.8,-27.7601 355.621,-17.8611"/>
<polygon fill="midnightblue" stroke="midnightblue" points="356.275,-14.421 345.752,-15.6498 354.745,-21.2517 356.275,-14.421"/>
</g>
<!-- Node27&#45;&gt;Node26 -->
<g id="edge36" class="edge"><title>Node27&#45;&gt;Node26</title>
<path fill="none" stroke="midnightblue" d="M655.809,-112.324C638.649,-103.664 612.054,-90.2424 592.253,-80.249"/>
<polygon fill="midnightblue" stroke="midnightblue" points="593.653,-77.0354 583.149,-75.6545 590.499,-83.2847 593.653,-77.0354"/>
</g>
<!-- Node28&#45;&gt;Node5 -->
<g id="edge39" class="edge"><title>Node28&#45;&gt;Node5</title>
<path fill="none" stroke="midnightblue" d="M310.44,-112.444C283.867,-103.186 241.387,-88.3866 212.167,-78.2066"/>
<polygon fill="midnightblue" stroke="midnightblue" points="213.027,-74.7999 202.432,-74.8151 210.724,-81.4103 213.027,-74.7999"/>
</g>
<!-- Node28&#45;&gt;Node8 -->
<g id="edge38" class="edge"><title>Node28&#45;&gt;Node8</title>
<path fill="none" stroke="midnightblue" d="M334.215,-112.368C332.602,-94.617 328.879,-53.6664 326.691,-29.5974"/>
<polygon fill="midnightblue" stroke="midnightblue" points="330.172,-29.2334 325.781,-19.5914 323.201,-29.8673 330.172,-29.2334"/>
</g>
<!-- Node28&#45;&gt;Node24 -->
<g id="edge40" class="edge"><title>Node28&#45;&gt;Node24</title>
<path fill="none" stroke="midnightblue" d="M326.003,-112.324C317.806,-104.42 305.494,-92.5482 295.528,-82.9377"/>
<polygon fill="midnightblue" stroke="midnightblue" points="297.789,-80.2558 288.161,-75.8339 292.93,-85.2947 297.789,-80.2558"/>
</g>
<!-- Node29&#45;&gt;Node8 -->
<g id="edge43" class="edge"><title>Node29&#45;&gt;Node8</title>
<path fill="none" stroke="midnightblue" d="M1100,-280.442C1100,-261.936 1100,-216.812 1100,-179 1100,-179 1100,-179 1100,-121 1100,-44.5121 500.614,-17.4819 356.081,-12.0759"/>
<polygon fill="midnightblue" stroke="midnightblue" points="355.851,-8.56519 345.729,-11.6969 355.595,-15.5605 355.851,-8.56519"/>
</g>
<!-- Node30 -->
<g id="node30" class="node"><title>Node30</title>
<polygon fill="none" stroke="#bfbfbf" points="1128.5,-224.5 1128.5,-243.5 1187.5,-243.5 1187.5,-224.5 1128.5,-224.5"/>
<text text-anchor="middle" x="1158" y="-231.5" font-family="Helvetica,sans-Serif" font-size="10.00">exception</text>
</g>
<!-- Node29&#45;&gt;Node30 -->
<g id="edge44" class="edge"><title>Node29&#45;&gt;Node30</title>
<path fill="none" stroke="midnightblue" d="M1109.32,-280.324C1117.89,-272.341 1130.81,-260.313 1141.19,-250.653"/>
<polygon fill="midnightblue" stroke="midnightblue" points="1143.58,-253.21 1148.51,-243.834 1138.81,-248.086 1143.58,-253.21"/>
</g>
</g>
</svg>
        <g id="navigator" transform="translate(0 0)" fill="#404254">
                <rect fill="#f2f5e9" fill-opacity="0.5" stroke="#606060" stroke-width=".5" x="0" y="0" width="60" height="60"/>
                <use id="zoomplus" xlink:href="#zoomPlus" x="17" y="9" onmousedown="handleZoom(evt,'in')"/>
                <use id="zoomminus" xlink:href="#zoomMin" x="42" y="9" onmousedown="handleZoom(evt,'out')"/>
                <use id="reset" xlink:href="#resetDef" x="30" y="36" onmousedown="handleReset()"/>
                <g id="arrowUp" xlink:href="#dirArrow" transform="translate(30 24)" onmousedown="handlePan(0,-1)">
                  <use xlink:href="#rim" fill="#404040">
                        <set attributeName="fill" to="#808080" begin="arrowUp.mouseover" end="arrowUp.mouseout"/>
                  </use>
                  <path fill="none" stroke="white" stroke-width="1.5" d="M0,-3.0v7 M-2.5,-0.5L0,-3.0L2.5,-0.5"/>
                </g>
                <g id="arrowRight" xlink:href="#dirArrow" transform="rotate(90) translate(36 -43)" onmousedown="handlePan(1,0)">
                  <use xlink:href="#rim" fill="#404040">
                        <set attributeName="fill" to="#808080" begin="arrowRight.mouseover" end="arrowRight.mouseout"/>
                  </use>
                  <path fill="none" stroke="white" stroke-width="1.5" d="M0,-3.0v7 M-2.5,-0.5L0,-3.0L2.5,-0.5"/>
                </g>
                <g id="arrowDown" xlink:href="#dirArrow" transform="rotate(180) translate(-30 -48)" onmousedown="handlePan(0,1)">
                  <use xlink:href="#rim" fill="#404040">
                        <set attributeName="fill" to="#808080" begin="arrowDown.mouseover" end="arrowDown.mouseout"/>
                  </use>
                  <path fill="none" stroke="white" stroke-width="1.5" d="M0,-3.0v7 M-2.5,-0.5L0,-3.0L2.5,-0.5"/>
                </g>
                <g id="arrowLeft" xlink:href="#dirArrow" transform="rotate(270) translate(-36 17)" onmousedown="handlePan(-1,0)">
                  <use xlink:href="#rim" fill="#404040">
                        <set attributeName="fill" to="#808080" begin="arrowLeft.mouseover" end="arrowLeft.mouseout"/>
                  </use>
                  <path fill="none" stroke="white" stroke-width="1.5" d="M0,-3.0v7 M-2.5,-0.5L0,-3.0L2.5,-0.5"/>
                </g>
        </g>
        <svg viewBox="0 0 15 15" width="100%" height="30px" preserveAspectRatio="xMaxYMin meet">
         <g id="arrow_out" transform="scale(0.3 0.3)">
          <a xlink:href="gui_2includes_2_process_manager_8hpp__incl_org.svg" target="_base">
           <rect id="button" ry="5" rx="5" y="6" x="6" height="38" width="38"
                fill="#f2f5e9" fill-opacity="0.5" stroke="#606060" stroke-width="1.0"/>
           <path id="arrow"
             d="M 11.500037,31.436501 C 11.940474,20.09759 22.043105,11.32322 32.158766,21.979434 L 37.068811,17.246167 C 37.068811,17.246167 37.088388,32 37.088388,32 L 22.160133,31.978069 C 22.160133,31.978069 26.997745,27.140456 26.997745,27.140456 C 18.528582,18.264221 13.291696,25.230495 11.500037,31.436501 z"
             style="fill:#404040;"/>
          </a>
         </g>
        </svg>
</svg>
