<?xml version="1.0" encoding="UTF-8" standalone="no"?>
<!DOCTYPE svg PUBLIC "-//W3C//DTD SVG 1.1//EN"
 "http://www.w3.org/Graphics/SVG/1.1/DTD/svg11.dtd">
<!-- Generated by graphviz version 2.38.0 (20140413.2041)
 -->
<!-- Title: /home/gogo/rendu/tek2/cpp_plazza/gui/includes/Config.hpp Pages: 1 -->
<svg width="222pt" height="362pt"
 viewBox="0.00 0.00 222.00 362.00" xmlns="http://www.w3.org/2000/svg" xmlns:xlink="http://www.w3.org/1999/xlink">
<g id="graph0" class="graph" transform="scale(1 1) rotate(0) translate(4 358)">
<title>/home/gogo/rendu/tek2/cpp_plazza/gui/includes/Config.hpp</title>
<!-- Node1 -->
<g id="node1" class="node"><title>Node1</title>
<polygon fill="#bfbfbf" stroke="black" points="83,-312.5 83,-353.5 207,-353.5 207,-312.5 83,-312.5"/>
<text text-anchor="start" x="91" y="-341.5" font-family="Helvetica,sans-Serif" font-size="10.00">/home/gogo/rendu/tek2</text>
<text text-anchor="start" x="91" y="-330.5" font-family="Helvetica,sans-Serif" font-size="10.00">/cpp_plazza/gui/includes</text>
<text text-anchor="middle" x="145" y="-319.5" font-family="Helvetica,sans-Serif" font-size="10.00">/Config.hpp</text>
</g>
<!-- Node2 -->
<g id="node2" class="node"><title>Node2</title>
<g id="a_node2"><a xlink:href="gui_2includes_2_connector_pipe_8hpp.html" target="_top" xlink:title="/home/gogo/rendu/tek2\l/cpp_plazza/gui/includes\l/ConnectorPipe.hpp">
<polygon fill="none" stroke="black" points="83,-234.5 83,-275.5 207,-275.5 207,-234.5 83,-234.5"/>
<text text-anchor="start" x="91" y="-263.5" font-family="Helvetica,sans-Serif" font-size="10.00">/home/gogo/rendu/tek2</text>
<text text-anchor="start" x="91" y="-252.5" font-family="Helvetica,sans-Serif" font-size="10.00">/cpp_plazza/gui/includes</text>
<text text-anchor="middle" x="145" y="-241.5" font-family="Helvetica,sans-Serif" font-size="10.00">/ConnectorPipe.hpp</text>
</a>
</g>
</g>
<!-- Node1&#45;&gt;Node2 -->
<g id="edge1" class="edge"><title>Node1&#45;&gt;Node2</title>
<path fill="none" stroke="midnightblue" d="M145,-302.297C145,-293.301 145,-283.653 145,-275.506"/>
<polygon fill="midnightblue" stroke="midnightblue" points="141.5,-302.428 145,-312.428 148.5,-302.428 141.5,-302.428"/>
</g>
<!-- Node3 -->
<g id="node3" class="node"><title>Node3</title>
<g id="a_node3"><a xlink:href="gui_2includes_2_office_8hpp.html" target="_top" xlink:title="/home/gogo/rendu/tek2\l/cpp_plazza/gui/includes\l/Office.hpp">
<polygon fill="none" stroke="black" points="38,-156.5 38,-197.5 162,-197.5 162,-156.5 38,-156.5"/>
<text text-anchor="start" x="46" y="-185.5" font-family="Helvetica,sans-Serif" font-size="10.00">/home/gogo/rendu/tek2</text>
<text text-anchor="start" x="46" y="-174.5" font-family="Helvetica,sans-Serif" font-size="10.00">/cpp_plazza/gui/includes</text>
<text text-anchor="middle" x="100" y="-163.5" font-family="Helvetica,sans-Serif" font-size="10.00">/Office.hpp</text>
</a>
</g>
</g>
<!-- Node2&#45;&gt;Node3 -->
<g id="edge2" class="edge"><title>Node2&#45;&gt;Node3</title>
<path fill="none" stroke="midnightblue" d="M128.277,-225.757C122.71,-216.354 116.636,-206.096 111.549,-197.506"/>
<polygon fill="midnightblue" stroke="midnightblue" points="125.305,-227.607 133.411,-234.428 131.328,-224.04 125.305,-227.607"/>
</g>
<!-- Node5 -->
<g id="node5" class="node"><title>Node5</title>
<g id="a_node5"><a xlink:href="gui_2includes_2_reception_8hpp.html" target="_top" xlink:title="/home/gogo/rendu/tek2\l/cpp_plazza/gui/includes\l/Reception.hpp">
<polygon fill="none" stroke="black" points="90,-0.5 90,-41.5 214,-41.5 214,-0.5 90,-0.5"/>
<text text-anchor="start" x="98" y="-29.5" font-family="Helvetica,sans-Serif" font-size="10.00">/home/gogo/rendu/tek2</text>
<text text-anchor="start" x="98" y="-18.5" font-family="Helvetica,sans-Serif" font-size="10.00">/cpp_plazza/gui/includes</text>
<text text-anchor="middle" x="152" y="-7.5" font-family="Helvetica,sans-Serif" font-size="10.00">/Reception.hpp</text>
</a>
</g>
</g>
<!-- Node2&#45;&gt;Node5 -->
<g id="edge6" class="edge"><title>Node2&#45;&gt;Node5</title>
<path fill="none" stroke="midnightblue" d="M161.279,-225.178C165.265,-216.688 168.968,-207.202 171,-198 183.326,-142.181 167.711,-74.5649 158.25,-41.7607"/>
<polygon fill="midnightblue" stroke="midnightblue" points="158.074,-223.762 156.732,-234.271 164.335,-226.893 158.074,-223.762"/>
</g>
<!-- Node4 -->
<g id="node4" class="node"><title>Node4</title>
<g id="a_node4"><a xlink:href="gui_2includes_2_process_manager_8hpp.html" target="_top" xlink:title="/home/gogo/rendu/tek2\l/cpp_plazza/gui/includes\l/ProcessManager.hpp">
<polygon fill="none" stroke="black" points="0,-78.5 0,-119.5 124,-119.5 124,-78.5 0,-78.5"/>
<text text-anchor="start" x="8" y="-107.5" font-family="Helvetica,sans-Serif" font-size="10.00">/home/gogo/rendu/tek2</text>
<text text-anchor="start" x="8" y="-96.5" font-family="Helvetica,sans-Serif" font-size="10.00">/cpp_plazza/gui/includes</text>
<text text-anchor="middle" x="62" y="-85.5" font-family="Helvetica,sans-Serif" font-size="10.00">/ProcessManager.hpp</text>
</a>
</g>
</g>
<!-- Node3&#45;&gt;Node4 -->
<g id="edge3" class="edge"><title>Node3&#45;&gt;Node4</title>
<path fill="none" stroke="midnightblue" d="M85.733,-147.466C81.0713,-138.143 76.0037,-128.007 71.7528,-119.506"/>
<polygon fill="midnightblue" stroke="midnightblue" points="82.6114,-149.049 90.2141,-156.428 88.8724,-145.919 82.6114,-149.049"/>
</g>
<!-- Node3&#45;&gt;Node5 -->
<g id="edge5" class="edge"><title>Node3&#45;&gt;Node5</title>
<path fill="none" stroke="midnightblue" d="M119.128,-147.822C124.279,-139.197 129.411,-129.477 133,-120 142.882,-93.9059 147.849,-61.8721 150.175,-41.6903"/>
<polygon fill="midnightblue" stroke="midnightblue" points="116.128,-146.019 113.818,-156.359 122.072,-149.716 116.128,-146.019"/>
</g>
<!-- Node4&#45;&gt;Node5 -->
<g id="edge4" class="edge"><title>Node4&#45;&gt;Node5</title>
<path fill="none" stroke="midnightblue" d="M93.0518,-71.7785C104.817,-61.8432 117.994,-50.7159 128.901,-41.5056"/>
<polygon fill="midnightblue" stroke="midnightblue" points="90.5594,-69.3022 85.1772,-78.4281 95.0757,-74.6504 90.5594,-69.3022"/>
</g>
</g>
</svg>
