<?xml version="1.0" encoding="UTF-8" standalone="no"?>
<!DOCTYPE svg PUBLIC "-//W3C//DTD SVG 1.1//EN"
 "http://www.w3.org/Graphics/SVG/1.1/DTD/svg11.dtd">
<!-- Generated by graphviz version 2.38.0 (20140413.2041)
 -->
<!-- Title: /home/gogo/rendu/tek2/cpp_plazza/gui/includes/ACypher.hpp Pages: 1 -->
<!--zoomable 518 -->
<svg id="main" version="1.1" xmlns="http://www.w3.org/2000/svg" xmlns:xlink="http://www.w3.org/1999/xlink" xml:space="preserve" onload="init(evt)">
<style type="text/css"><![CDATA[
.edge:hover path { stroke: red; }
.edge:hover polygon { stroke: red; fill: red; }
]]></style>
<script type="text/javascript"><![CDATA[
var edges = document.getElementsByTagName('g');
if (edges && edges.length) {
  for (var i=0;i<edges.length;i++) {
    if (edges[i].id.substr(0,4)=='edge') {
      edges[i].setAttribute('class','edge');
    }
  }
}
]]></script>
        <defs>
                <circle id="rim" cx="0" cy="0" r="7"/>
                <circle id="rim2" cx="0" cy="0" r="3.5"/>
                <g id="zoomPlus">
                        <use xlink:href="#rim" fill="#404040">
                                <set attributeName="fill" to="#808080" begin="zoomplus.mouseover" end="zoomplus.mouseout"/>
                        </use>
                        <path d="M-4,0h8M0,-4v8" fill="none" stroke="white" stroke-width="1.5" pointer-events="none"/>
                </g>
                <g id="zoomMin">
                        <use xlink:href="#rim" fill="#404040">
                                <set attributeName="fill" to="#808080" begin="zoomminus.mouseover" end="zoomminus.mouseout"/>
                        </use>
                        <path d="M-4,0h8" fill="none" stroke="white" stroke-width="1.5" pointer-events="none"/>
                </g>
                <g id="dirArrow">
                        <path fill="none" stroke="white" stroke-width="1.5" d="M0,-3.0v7 M-2.5,-0.5L0,-3.0L2.5,-0.5"/>
                </g>
               <g id="resetDef">
                       <use xlink:href="#rim2" fill="#404040">
                               <set attributeName="fill" to="#808080" begin="reset.mouseover" end="reset.mouseout"/>
                       </use>
               </g>
        </defs>

<script type="text/javascript">
var viewWidth = 274;
var viewHeight = 518;
var sectionId = 'dynsection-1';
</script>
<script xlink:href="svgpan.js"/>
<svg id="graph" class="graph">
<g id="viewport">
<title>/home/gogo/rendu/tek2/cpp_plazza/gui/includes/ACypher.hpp</title>
<!-- Node1 -->
<g id="node1" class="node"><title>Node1</title>
<polygon fill="#bfbfbf" stroke="black" points="71,-468.5 71,-509.5 195,-509.5 195,-468.5 71,-468.5"/>
<text text-anchor="start" x="79" y="-497.5" font-family="Helvetica,sans-Serif" font-size="10.00">/home/gogo/rendu/tek2</text>
<text text-anchor="start" x="79" y="-486.5" font-family="Helvetica,sans-Serif" font-size="10.00">/cpp_plazza/gui/includes</text>
<text text-anchor="middle" x="133" y="-475.5" font-family="Helvetica,sans-Serif" font-size="10.00">/ACypher.hpp</text>
</g>
<!-- Node2 -->
<g id="node2" class="node"><title>Node2</title>
<g id="a_node2"><a xlink:href="gui_2includes_2_caesar_cypher_8hpp.html" target="_top" xlink:title="/home/gogo/rendu/tek2\l/cpp_plazza/gui/includes\l/CaesarCypher.hpp">
<polygon fill="none" stroke="black" points="0,-390.5 0,-431.5 124,-431.5 124,-390.5 0,-390.5"/>
<text text-anchor="start" x="8" y="-419.5" font-family="Helvetica,sans-Serif" font-size="10.00">/home/gogo/rendu/tek2</text>
<text text-anchor="start" x="8" y="-408.5" font-family="Helvetica,sans-Serif" font-size="10.00">/cpp_plazza/gui/includes</text>
<text text-anchor="middle" x="62" y="-397.5" font-family="Helvetica,sans-Serif" font-size="10.00">/CaesarCypher.hpp</text>
</a>
</g>
</g>
<!-- Node1&#45;&gt;Node2 -->
<g id="edge1" class="edge"><title>Node1&#45;&gt;Node2</title>
<path fill="none" stroke="midnightblue" d="M107.698,-460.916C98.6237,-451.203 88.5785,-440.45 80.2223,-431.506"/>
<polygon fill="midnightblue" stroke="midnightblue" points="105.332,-463.51 114.716,-468.428 110.447,-458.731 105.332,-463.51"/>
</g>
<!-- Node8 -->
<g id="node8" class="node"><title>Node8</title>
<g id="a_node8"><a xlink:href="gui_2includes_2_xor_cypher_8hpp.html" target="_top" xlink:title="/home/gogo/rendu/tek2\l/cpp_plazza/gui/includes\l/XorCypher.hpp">
<polygon fill="none" stroke="black" points="142,-390.5 142,-431.5 266,-431.5 266,-390.5 142,-390.5"/>
<text text-anchor="start" x="150" y="-419.5" font-family="Helvetica,sans-Serif" font-size="10.00">/home/gogo/rendu/tek2</text>
<text text-anchor="start" x="150" y="-408.5" font-family="Helvetica,sans-Serif" font-size="10.00">/cpp_plazza/gui/includes</text>
<text text-anchor="middle" x="204" y="-397.5" font-family="Helvetica,sans-Serif" font-size="10.00">/XorCypher.hpp</text>
</a>
</g>
</g>
<!-- Node1&#45;&gt;Node8 -->
<g id="edge8" class="edge"><title>Node1&#45;&gt;Node8</title>
<path fill="none" stroke="midnightblue" d="M158.302,-460.916C167.376,-451.203 177.422,-440.45 185.778,-431.506"/>
<polygon fill="midnightblue" stroke="midnightblue" points="155.553,-458.731 151.284,-468.428 160.668,-463.51 155.553,-458.731"/>
</g>
<!-- Node3 -->
<g id="node3" class="node"><title>Node3</title>
<g id="a_node3"><a xlink:href="gui_2includes_2_worker_8hpp.html" target="_top" xlink:title="/home/gogo/rendu/tek2\l/cpp_plazza/gui/includes\l/Worker.hpp">
<polygon fill="none" stroke="black" points="71,-312.5 71,-353.5 195,-353.5 195,-312.5 71,-312.5"/>
<text text-anchor="start" x="79" y="-341.5" font-family="Helvetica,sans-Serif" font-size="10.00">/home/gogo/rendu/tek2</text>
<text text-anchor="start" x="79" y="-330.5" font-family="Helvetica,sans-Serif" font-size="10.00">/cpp_plazza/gui/includes</text>
<text text-anchor="middle" x="133" y="-319.5" font-family="Helvetica,sans-Serif" font-size="10.00">/Worker.hpp</text>
</a>
</g>
</g>
<!-- Node2&#45;&gt;Node3 -->
<g id="edge2" class="edge"><title>Node2&#45;&gt;Node3</title>
<path fill="none" stroke="midnightblue" d="M87.3023,-382.916C96.3763,-373.203 106.422,-362.45 114.778,-353.506"/>
<polygon fill="midnightblue" stroke="midnightblue" points="84.5533,-380.731 80.2843,-390.428 89.6685,-385.51 84.5533,-380.731"/>
</g>
<!-- Node4 -->
<g id="node4" class="node"><title>Node4</title>
<g id="a_node4"><a xlink:href="gui_2includes_2_thread_pool_8hpp.html" target="_top" xlink:title="/home/gogo/rendu/tek2\l/cpp_plazza/gui/includes\l/ThreadPool.hpp">
<polygon fill="none" stroke="black" points="71,-234.5 71,-275.5 195,-275.5 195,-234.5 71,-234.5"/>
<text text-anchor="start" x="79" y="-263.5" font-family="Helvetica,sans-Serif" font-size="10.00">/home/gogo/rendu/tek2</text>
<text text-anchor="start" x="79" y="-252.5" font-family="Helvetica,sans-Serif" font-size="10.00">/cpp_plazza/gui/includes</text>
<text text-anchor="middle" x="133" y="-241.5" font-family="Helvetica,sans-Serif" font-size="10.00">/ThreadPool.hpp</text>
</a>
</g>
</g>
<!-- Node3&#45;&gt;Node4 -->
<g id="edge3" class="edge"><title>Node3&#45;&gt;Node4</title>
<path fill="none" stroke="midnightblue" d="M133,-302.297C133,-293.301 133,-283.653 133,-275.506"/>
<polygon fill="midnightblue" stroke="midnightblue" points="129.5,-302.428 133,-312.428 136.5,-302.428 129.5,-302.428"/>
</g>
<!-- Node5 -->
<g id="node5" class="node"><title>Node5</title>
<g id="a_node5"><a xlink:href="gui_2includes_2_office_8hpp.html" target="_top" xlink:title="/home/gogo/rendu/tek2\l/cpp_plazza/gui/includes\l/Office.hpp">
<polygon fill="none" stroke="black" points="71,-156.5 71,-197.5 195,-197.5 195,-156.5 71,-156.5"/>
<text text-anchor="start" x="79" y="-185.5" font-family="Helvetica,sans-Serif" font-size="10.00">/home/gogo/rendu/tek2</text>
<text text-anchor="start" x="79" y="-174.5" font-family="Helvetica,sans-Serif" font-size="10.00">/cpp_plazza/gui/includes</text>
<text text-anchor="middle" x="133" y="-163.5" font-family="Helvetica,sans-Serif" font-size="10.00">/Office.hpp</text>
</a>
</g>
</g>
<!-- Node4&#45;&gt;Node5 -->
<g id="edge4" class="edge"><title>Node4&#45;&gt;Node5</title>
<path fill="none" stroke="midnightblue" d="M133,-224.297C133,-215.301 133,-205.653 133,-197.506"/>
<polygon fill="midnightblue" stroke="midnightblue" points="129.5,-224.428 133,-234.428 136.5,-224.428 129.5,-224.428"/>
</g>
<!-- Node6 -->
<g id="node6" class="node"><title>Node6</title>
<g id="a_node6"><a xlink:href="gui_2includes_2_process_manager_8hpp.html" target="_top" xlink:title="/home/gogo/rendu/tek2\l/cpp_plazza/gui/includes\l/ProcessManager.hpp">
<polygon fill="none" stroke="black" points="26,-78.5 26,-119.5 150,-119.5 150,-78.5 26,-78.5"/>
<text text-anchor="start" x="34" y="-107.5" font-family="Helvetica,sans-Serif" font-size="10.00">/home/gogo/rendu/tek2</text>
<text text-anchor="start" x="34" y="-96.5" font-family="Helvetica,sans-Serif" font-size="10.00">/cpp_plazza/gui/includes</text>
<text text-anchor="middle" x="88" y="-85.5" font-family="Helvetica,sans-Serif" font-size="10.00">/ProcessManager.hpp</text>
</a>
</g>
</g>
<!-- Node5&#45;&gt;Node6 -->
<g id="edge5" class="edge"><title>Node5&#45;&gt;Node6</title>
<path fill="none" stroke="midnightblue" d="M116.277,-147.757C110.71,-138.354 104.636,-128.096 99.5493,-119.506"/>
<polygon fill="midnightblue" stroke="midnightblue" points="113.305,-149.607 121.411,-156.428 119.328,-146.04 113.305,-149.607"/>
</g>
<!-- Node7 -->
<g id="node7" class="node"><title>Node7</title>
<g id="a_node7"><a xlink:href="gui_2includes_2_reception_8hpp.html" target="_top" xlink:title="/home/gogo/rendu/tek2\l/cpp_plazza/gui/includes\l/Reception.hpp">
<polygon fill="none" stroke="black" points="71,-0.5 71,-41.5 195,-41.5 195,-0.5 71,-0.5"/>
<text text-anchor="start" x="79" y="-29.5" font-family="Helvetica,sans-Serif" font-size="10.00">/home/gogo/rendu/tek2</text>
<text text-anchor="start" x="79" y="-18.5" font-family="Helvetica,sans-Serif" font-size="10.00">/cpp_plazza/gui/includes</text>
<text text-anchor="middle" x="133" y="-7.5" font-family="Helvetica,sans-Serif" font-size="10.00">/Reception.hpp</text>
</a>
</g>
</g>
<!-- Node5&#45;&gt;Node7 -->
<g id="edge7" class="edge"><title>Node5&#45;&gt;Node7</title>
<path fill="none" stroke="midnightblue" d="M149.279,-147.178C153.265,-138.688 156.968,-129.202 159,-120 163.025,-101.772 163.025,-96.2275 159,-78 156.203,-65.3351 150.242,-52.1319 144.732,-41.7286"/>
<polygon fill="midnightblue" stroke="midnightblue" points="146.074,-145.762 144.732,-156.271 152.335,-148.893 146.074,-145.762"/>
</g>
<!-- Node6&#45;&gt;Node7 -->
<g id="edge6" class="edge"><title>Node6&#45;&gt;Node7</title>
<path fill="none" stroke="midnightblue" d="M104.723,-69.7571C110.29,-60.354 116.364,-50.096 121.451,-41.5056"/>
<polygon fill="midnightblue" stroke="midnightblue" points="101.672,-68.0401 99.5886,-78.4281 107.695,-71.6066 101.672,-68.0401"/>
</g>
<!-- Node8&#45;&gt;Node3 -->
<g id="edge9" class="edge"><title>Node8&#45;&gt;Node3</title>
<path fill="none" stroke="midnightblue" d="M178.698,-382.916C169.624,-373.203 159.578,-362.45 151.222,-353.506"/>
<polygon fill="midnightblue" stroke="midnightblue" points="176.332,-385.51 185.716,-390.428 181.447,-380.731 176.332,-385.51"/>
</g>
</g>
</svg>
        <g id="navigator" transform="translate(0 0)" fill="#404254">
                <rect fill="#f2f5e9" fill-opacity="0.5" stroke="#606060" stroke-width=".5" x="0" y="0" width="60" height="60"/>
                <use id="zoomplus" xlink:href="#zoomPlus" x="17" y="9" onmousedown="handleZoom(evt,'in')"/>
                <use id="zoomminus" xlink:href="#zoomMin" x="42" y="9" onmousedown="handleZoom(evt,'out')"/>
                <use id="reset" xlink:href="#resetDef" x="30" y="36" onmousedown="handleReset()"/>
                <g id="arrowUp" xlink:href="#dirArrow" transform="translate(30 24)" onmousedown="handlePan(0,-1)">
                  <use xlink:href="#rim" fill="#404040">
                        <set attributeName="fill" to="#808080" begin="arrowUp.mouseover" end="arrowUp.mouseout"/>
                  </use>
                  <path fill="none" stroke="white" stroke-width="1.5" d="M0,-3.0v7 M-2.5,-0.5L0,-3.0L2.5,-0.5"/>
                </g>
                <g id="arrowRight" xlink:href="#dirArrow" transform="rotate(90) translate(36 -43)" onmousedown="handlePan(1,0)">
                  <use xlink:href="#rim" fill="#404040">
                        <set attributeName="fill" to="#808080" begin="arrowRight.mouseover" end="arrowRight.mouseout"/>
                  </use>
                  <path fill="none" stroke="white" stroke-width="1.5" d="M0,-3.0v7 M-2.5,-0.5L0,-3.0L2.5,-0.5"/>
                </g>
                <g id="arrowDown" xlink:href="#dirArrow" transform="rotate(180) translate(-30 -48)" onmousedown="handlePan(0,1)">
                  <use xlink:href="#rim" fill="#404040">
                        <set attributeName="fill" to="#808080" begin="arrowDown.mouseover" end="arrowDown.mouseout"/>
                  </use>
                  <path fill="none" stroke="white" stroke-width="1.5" d="M0,-3.0v7 M-2.5,-0.5L0,-3.0L2.5,-0.5"/>
                </g>
                <g id="arrowLeft" xlink:href="#dirArrow" transform="rotate(270) translate(-36 17)" onmousedown="handlePan(-1,0)">
                  <use xlink:href="#rim" fill="#404040">
                        <set attributeName="fill" to="#808080" begin="arrowLeft.mouseover" end="arrowLeft.mouseout"/>
                  </use>
                  <path fill="none" stroke="white" stroke-width="1.5" d="M0,-3.0v7 M-2.5,-0.5L0,-3.0L2.5,-0.5"/>
                </g>
        </g>
        <svg viewBox="0 0 15 15" width="100%" height="30px" preserveAspectRatio="xMaxYMin meet">
         <g id="arrow_out" transform="scale(0.3 0.3)">
          <a xlink:href="gui_2includes_2_a_cypher_8hpp__dep__incl_org.svg" target="_base">
           <rect id="button" ry="5" rx="5" y="6" x="6" height="38" width="38"
                fill="#f2f5e9" fill-opacity="0.5" stroke="#606060" stroke-width="1.0"/>
           <path id="arrow"
             d="M 11.500037,31.436501 C 11.940474,20.09759 22.043105,11.32322 32.158766,21.979434 L 37.068811,17.246167 C 37.068811,17.246167 37.088388,32 37.088388,32 L 22.160133,31.978069 C 22.160133,31.978069 26.997745,27.140456 26.997745,27.140456 C 18.528582,18.264221 13.291696,25.230495 11.500037,31.436501 z"
             style="fill:#404040;"/>
          </a>
         </g>
        </svg>
</svg>
