<?xml version="1.0" encoding="UTF-8" standalone="no"?>
<!DOCTYPE svg PUBLIC "-//W3C//DTD SVG 1.1//EN"
 "http://www.w3.org/Graphics/SVG/1.1/DTD/svg11.dtd">
<!-- Generated by graphviz version 2.38.0 (20140413.2041)
 -->
<!-- Title: /home/gogo/rendu/tek2/cpp_plazza/gui/sources/main.cpp Pages: 1 -->
<svg width="1076pt" height="106pt"
 viewBox="0.00 0.00 1075.50 106.00" xmlns="http://www.w3.org/2000/svg" xmlns:xlink="http://www.w3.org/1999/xlink">
<g id="graph0" class="graph" transform="scale(1 1) rotate(0) translate(4 102)">
<title>/home/gogo/rendu/tek2/cpp_plazza/gui/sources/main.cpp</title>
<!-- Node1 -->
<g id="node1" class="node"><title>Node1</title>
<polygon fill="#bfbfbf" stroke="black" points="422,-56.5 422,-97.5 544,-97.5 544,-56.5 422,-56.5"/>
<text text-anchor="start" x="430" y="-85.5" font-family="Helvetica,sans-Serif" font-size="10.00">/home/gogo/rendu/tek2</text>
<text text-anchor="start" x="430" y="-74.5" font-family="Helvetica,sans-Serif" font-size="10.00">/cpp_plazza/gui/sources</text>
<text text-anchor="middle" x="483" y="-63.5" font-family="Helvetica,sans-Serif" font-size="10.00">/main.cpp</text>
</g>
<!-- Node2 -->
<g id="node2" class="node"><title>Node2</title>
<polygon fill="none" stroke="#bfbfbf" points="0,-0.5 0,-19.5 54,-19.5 54,-0.5 0,-0.5"/>
<text text-anchor="middle" x="27" y="-7.5" font-family="Helvetica,sans-Serif" font-size="10.00">iostream</text>
</g>
<!-- Node1&#45;&gt;Node2 -->
<g id="edge1" class="edge"><title>Node1&#45;&gt;Node2</title>
<path fill="none" stroke="midnightblue" d="M421.794,-70.0204C341.715,-61.7126 196.915,-45.031 64.0088,-20.0046"/>
<polygon fill="midnightblue" stroke="midnightblue" points="64.5325,-16.5415 54.0544,-18.1101 63.2237,-23.4181 64.5325,-16.5415"/>
</g>
<!-- Node3 -->
<g id="node3" class="node"><title>Node3</title>
<polygon fill="none" stroke="#bfbfbf" points="72,-0.5 72,-19.5 152,-19.5 152,-0.5 72,-0.5"/>
<text text-anchor="middle" x="112" y="-7.5" font-family="Helvetica,sans-Serif" font-size="10.00">Reception.hpp</text>
</g>
<!-- Node1&#45;&gt;Node3 -->
<g id="edge2" class="edge"><title>Node1&#45;&gt;Node3</title>
<path fill="none" stroke="midnightblue" d="M421.839,-65.5405C359.196,-54.7873 258.713,-37.4282 162.05,-20.1752"/>
<polygon fill="midnightblue" stroke="midnightblue" points="162.566,-16.712 152.106,-18.3983 161.334,-23.6028 162.566,-16.712"/>
</g>
<!-- Node4 -->
<g id="node4" class="node"><title>Node4</title>
<polygon fill="none" stroke="#bfbfbf" points="170,-0.5 170,-19.5 214,-19.5 214,-0.5 170,-0.5"/>
<text text-anchor="middle" x="192" y="-7.5" font-family="Helvetica,sans-Serif" font-size="10.00">mutex</text>
</g>
<!-- Node1&#45;&gt;Node4 -->
<g id="edge3" class="edge"><title>Node1&#45;&gt;Node4</title>
<path fill="none" stroke="midnightblue" d="M421.779,-64.0809C371.183,-53.9417 297.284,-38.4706 224.144,-20.1608"/>
<polygon fill="midnightblue" stroke="midnightblue" points="224.852,-16.7297 214.3,-17.6776 223.14,-23.5172 224.852,-16.7297"/>
</g>
<!-- Node5 -->
<g id="node5" class="node"><title>Node5</title>
<polygon fill="none" stroke="#bfbfbf" points="232,-0.5 232,-19.5 294,-19.5 294,-0.5 232,-0.5"/>
<text text-anchor="middle" x="263" y="-7.5" font-family="Helvetica,sans-Serif" font-size="10.00">Mutex.hpp</text>
</g>
<!-- Node1&#45;&gt;Node5 -->
<g id="edge4" class="edge"><title>Node1&#45;&gt;Node5</title>
<path fill="none" stroke="midnightblue" d="M421.718,-57.8939C383.234,-46.5236 334.78,-32.2078 301.595,-22.403"/>
<polygon fill="midnightblue" stroke="midnightblue" points="302.396,-18.9902 291.814,-19.5133 300.413,-25.7034 302.396,-18.9902"/>
</g>
<!-- Node6 -->
<g id="node6" class="node"><title>Node6</title>
<polygon fill="none" stroke="#bfbfbf" points="312,-0.5 312,-19.5 386,-19.5 386,-0.5 312,-0.5"/>
<text text-anchor="middle" x="349" y="-7.5" font-family="Helvetica,sans-Serif" font-size="10.00">CondVar.hpp</text>
</g>
<!-- Node1&#45;&gt;Node6 -->
<g id="edge5" class="edge"><title>Node1&#45;&gt;Node6</title>
<path fill="none" stroke="midnightblue" d="M442.796,-56.4979C421.164,-46.0051 395.072,-33.3482 375.904,-24.0507"/>
<polygon fill="midnightblue" stroke="midnightblue" points="377.362,-20.8679 366.837,-19.6525 374.307,-27.166 377.362,-20.8679"/>
</g>
<!-- Node7 -->
<g id="node7" class="node"><title>Node7</title>
<polygon fill="none" stroke="#bfbfbf" points="404.5,-0.5 404.5,-19.5 469.5,-19.5 469.5,-0.5 404.5,-0.5"/>
<text text-anchor="middle" x="437" y="-7.5" font-family="Helvetica,sans-Serif" font-size="10.00">Thread.hpp</text>
</g>
<!-- Node1&#45;&gt;Node7 -->
<g id="edge6" class="edge"><title>Node1&#45;&gt;Node7</title>
<path fill="none" stroke="midnightblue" d="M469.198,-56.4979C462.756,-47.3946 455.161,-36.6623 448.966,-27.9081"/>
<polygon fill="midnightblue" stroke="midnightblue" points="451.757,-25.7934 443.123,-19.6525 446.043,-29.8371 451.757,-25.7934"/>
</g>
<!-- Node8 -->
<g id="node8" class="node"><title>Node8</title>
<polygon fill="none" stroke="#bfbfbf" points="487.5,-0.5 487.5,-19.5 572.5,-19.5 572.5,-0.5 487.5,-0.5"/>
<text text-anchor="middle" x="530" y="-7.5" font-family="Helvetica,sans-Serif" font-size="10.00">ThreadPool.hpp</text>
</g>
<!-- Node1&#45;&gt;Node8 -->
<g id="edge7" class="edge"><title>Node1&#45;&gt;Node8</title>
<path fill="none" stroke="midnightblue" d="M497.102,-56.4979C503.684,-47.3946 511.444,-36.6623 517.774,-27.9081"/>
<polygon fill="midnightblue" stroke="midnightblue" points="520.72,-29.8068 523.744,-19.6525 515.048,-25.7052 520.72,-29.8068"/>
</g>
<!-- Node9 -->
<g id="node9" class="node"><title>Node9</title>
<polygon fill="none" stroke="#bfbfbf" points="591,-0.5 591,-19.5 709,-19.5 709,-0.5 591,-0.5"/>
<text text-anchor="middle" x="650" y="-7.5" font-family="Helvetica,sans-Serif" font-size="10.00">CommandManager.hpp</text>
</g>
<!-- Node1&#45;&gt;Node9 -->
<g id="edge8" class="edge"><title>Node1&#45;&gt;Node9</title>
<path fill="none" stroke="midnightblue" d="M533.106,-56.4979C560.802,-45.7176 594.368,-32.6531 618.414,-23.2941"/>
<polygon fill="midnightblue" stroke="midnightblue" points="619.72,-26.5414 627.77,-19.6525 617.181,-20.0181 619.72,-26.5414"/>
</g>
<!-- Node10 -->
<g id="node10" class="node"><title>Node10</title>
<polygon fill="none" stroke="#bfbfbf" points="727,-0.5 727,-19.5 783,-19.5 783,-0.5 727,-0.5"/>
<text text-anchor="middle" x="755" y="-7.5" font-family="Helvetica,sans-Serif" font-size="10.00">Utils.hpp</text>
</g>
<!-- Node1&#45;&gt;Node10 -->
<g id="edge9" class="edge"><title>Node1&#45;&gt;Node10</title>
<path fill="none" stroke="midnightblue" d="M544.374,-61.4576C589.486,-50.7494 652.556,-35.7388 716.818,-20.2771"/>
<polygon fill="midnightblue" stroke="midnightblue" points="717.819,-23.6363 726.722,-17.8929 716.18,-16.8307 717.819,-23.6363"/>
</g>
<!-- Node11 -->
<g id="node11" class="node"><title>Node11</title>
<polygon fill="none" stroke="#bfbfbf" points="801,-0.5 801,-19.5 883,-19.5 883,-0.5 801,-0.5"/>
<text text-anchor="middle" x="842" y="-7.5" font-family="Helvetica,sans-Serif" font-size="10.00">XorCypher.hpp</text>
</g>
<!-- Node1&#45;&gt;Node11 -->
<g id="edge10" class="edge"><title>Node1&#45;&gt;Node11</title>
<path fill="none" stroke="midnightblue" d="M544.306,-64.9C613.786,-52.3202 725.794,-32.04 790.793,-20.2715"/>
<polygon fill="midnightblue" stroke="midnightblue" points="791.591,-23.6839 800.808,-18.4582 790.344,-16.7959 791.591,-23.6839"/>
</g>
<!-- Node12 -->
<g id="node12" class="node"><title>Node12</title>
<polygon fill="none" stroke="#bfbfbf" points="901,-0.5 901,-19.5 999,-19.5 999,-0.5 901,-0.5"/>
<text text-anchor="middle" x="950" y="-7.5" font-family="Helvetica,sans-Serif" font-size="10.00">CaesarCypher.hpp</text>
</g>
<!-- Node1&#45;&gt;Node12 -->
<g id="edge11" class="edge"><title>Node1&#45;&gt;Node12</title>
<path fill="none" stroke="midnightblue" d="M544.026,-67.9905C621.971,-57.6832 761.303,-38.9992 890.857,-20.1461"/>
<polygon fill="midnightblue" stroke="midnightblue" points="891.571,-23.5791 900.962,-18.6724 890.561,-16.6524 891.571,-23.5791"/>
</g>
<!-- Node13 -->
<g id="node13" class="node"><title>Node13</title>
<polygon fill="none" stroke="#bfbfbf" points="1016.5,-0.5 1016.5,-19.5 1067.5,-19.5 1067.5,-0.5 1016.5,-0.5"/>
<text text-anchor="middle" x="1042" y="-7.5" font-family="Helvetica,sans-Serif" font-size="10.00">File.hpp</text>
</g>
<!-- Node1&#45;&gt;Node13 -->
<g id="edge12" class="edge"><title>Node1&#45;&gt;Node13</title>
<path fill="none" stroke="midnightblue" d="M544.065,-72.5185C640.536,-66.3534 834.138,-51.2844 1006.46,-20.0414"/>
<polygon fill="midnightblue" stroke="midnightblue" points="1007.27,-23.4517 1016.47,-18.2035 1006.01,-16.5668 1007.27,-23.4517"/>
</g>
</g>
</svg>
