<?xml version="1.0" encoding="UTF-8" standalone="no"?>
<!DOCTYPE svg PUBLIC "-//W3C//DTD SVG 1.1//EN"
 "http://www.w3.org/Graphics/SVG/1.1/DTD/svg11.dtd">
<!-- Generated by graphviz version 2.38.0 (20140413.2041)
 -->
<!-- Title: /home/gogo/rendu/tek2/cpp_plazza/gui/sources/File.cpp Pages: 1 -->
<svg width="132pt" height="106pt"
 viewBox="0.00 0.00 131.50 106.00" xmlns="http://www.w3.org/2000/svg" xmlns:xlink="http://www.w3.org/1999/xlink">
<g id="graph0" class="graph" transform="scale(1 1) rotate(0) translate(4 102)">
<title>/home/gogo/rendu/tek2/cpp_plazza/gui/sources/File.cpp</title>
<!-- Node1 -->
<g id="node1" class="node"><title>Node1</title>
<polygon fill="#bfbfbf" stroke="black" points="1,-56.5 1,-97.5 123,-97.5 123,-56.5 1,-56.5"/>
<text text-anchor="start" x="9" y="-85.5" font-family="Helvetica,sans-Serif" font-size="10.00">/home/gogo/rendu/tek2</text>
<text text-anchor="start" x="9" y="-74.5" font-family="Helvetica,sans-Serif" font-size="10.00">/cpp_plazza/gui/sources</text>
<text text-anchor="middle" x="62" y="-63.5" font-family="Helvetica,sans-Serif" font-size="10.00">/File.cpp</text>
</g>
<!-- Node2 -->
<g id="node2" class="node"><title>Node2</title>
<polygon fill="none" stroke="#bfbfbf" points="0,-0.5 0,-19.5 54,-19.5 54,-0.5 0,-0.5"/>
<text text-anchor="middle" x="27" y="-7.5" font-family="Helvetica,sans-Serif" font-size="10.00">iostream</text>
</g>
<!-- Node1&#45;&gt;Node2 -->
<g id="edge1" class="edge"><title>Node1&#45;&gt;Node2</title>
<path fill="none" stroke="midnightblue" d="M51.4988,-56.4979C46.7003,-47.5862 41.0611,-37.1135 36.4035,-28.4636"/>
<polygon fill="midnightblue" stroke="midnightblue" points="39.4817,-26.7978 31.659,-19.6525 33.3184,-30.1166 39.4817,-26.7978"/>
</g>
<!-- Node3 -->
<g id="node3" class="node"><title>Node3</title>
<polygon fill="none" stroke="#bfbfbf" points="72.5,-0.5 72.5,-19.5 123.5,-19.5 123.5,-0.5 72.5,-0.5"/>
<text text-anchor="middle" x="98" y="-7.5" font-family="Helvetica,sans-Serif" font-size="10.00">File.hpp</text>
</g>
<!-- Node1&#45;&gt;Node3 -->
<g id="edge2" class="edge"><title>Node1&#45;&gt;Node3</title>
<path fill="none" stroke="midnightblue" d="M72.8012,-56.4979C77.7369,-47.5862 83.5371,-37.1135 88.3279,-28.4636"/>
<polygon fill="midnightblue" stroke="midnightblue" points="91.4246,-30.0962 93.2079,-19.6525 85.301,-26.7046 91.4246,-30.0962"/>
</g>
</g>
</svg>
