<?xml version="1.0" encoding="UTF-8" standalone="no"?>
<!DOCTYPE svg PUBLIC "-//W3C//DTD SVG 1.1//EN"
 "http://www.w3.org/Graphics/SVG/1.1/DTD/svg11.dtd">
<!-- Generated by graphviz version 2.38.0 (20140413.2041)
 -->
<!-- Title: /home/gogo/rendu/tek2/cpp_plazza/gui/includes/Thread.hpp Pages: 1 -->
<svg width="222pt" height="440pt"
 viewBox="0.00 0.00 222.00 440.00" xmlns="http://www.w3.org/2000/svg" xmlns:xlink="http://www.w3.org/1999/xlink">
<g id="graph0" class="graph" transform="scale(1 1) rotate(0) translate(4 436)">
<title>/home/gogo/rendu/tek2/cpp_plazza/gui/includes/Thread.hpp</title>
<!-- Node1 -->
<g id="node1" class="node"><title>Node1</title>
<polygon fill="#bfbfbf" stroke="black" points="45,-390.5 45,-431.5 169,-431.5 169,-390.5 45,-390.5"/>
<text text-anchor="start" x="53" y="-419.5" font-family="Helvetica,sans-Serif" font-size="10.00">/home/gogo/rendu/tek2</text>
<text text-anchor="start" x="53" y="-408.5" font-family="Helvetica,sans-Serif" font-size="10.00">/cpp_plazza/gui/includes</text>
<text text-anchor="middle" x="107" y="-397.5" font-family="Helvetica,sans-Serif" font-size="10.00">/Thread.hpp</text>
</g>
<!-- Node2 -->
<g id="node2" class="node"><title>Node2</title>
<g id="a_node2"><a xlink:href="gui_2includes_2_thread_pool_8hpp.html" target="_top" xlink:title="/home/gogo/rendu/tek2\l/cpp_plazza/gui/includes\l/ThreadPool.hpp">
<polygon fill="none" stroke="black" points="45,-234.5 45,-275.5 169,-275.5 169,-234.5 45,-234.5"/>
<text text-anchor="start" x="53" y="-263.5" font-family="Helvetica,sans-Serif" font-size="10.00">/home/gogo/rendu/tek2</text>
<text text-anchor="start" x="53" y="-252.5" font-family="Helvetica,sans-Serif" font-size="10.00">/cpp_plazza/gui/includes</text>
<text text-anchor="middle" x="107" y="-241.5" font-family="Helvetica,sans-Serif" font-size="10.00">/ThreadPool.hpp</text>
</a>
</g>
</g>
<!-- Node1&#45;&gt;Node2 -->
<g id="edge1" class="edge"><title>Node1&#45;&gt;Node2</title>
<path fill="none" stroke="midnightblue" d="M90.7208,-381.178C86.7346,-372.688 83.032,-363.202 81,-354 76.9749,-335.772 76.9749,-330.228 81,-312 83.7967,-299.335 89.7581,-286.132 95.2679,-275.729"/>
<polygon fill="midnightblue" stroke="midnightblue" points="87.665,-382.893 95.2679,-390.271 93.926,-379.762 87.665,-382.893"/>
</g>
<!-- Node6 -->
<g id="node6" class="node"><title>Node6</title>
<g id="a_node6"><a xlink:href="gui_2includes_2_worker_8hpp.html" target="_top" xlink:title="/home/gogo/rendu/tek2\l/cpp_plazza/gui/includes\l/Worker.hpp">
<polygon fill="none" stroke="black" points="90,-312.5 90,-353.5 214,-353.5 214,-312.5 90,-312.5"/>
<text text-anchor="start" x="98" y="-341.5" font-family="Helvetica,sans-Serif" font-size="10.00">/home/gogo/rendu/tek2</text>
<text text-anchor="start" x="98" y="-330.5" font-family="Helvetica,sans-Serif" font-size="10.00">/cpp_plazza/gui/includes</text>
<text text-anchor="middle" x="152" y="-319.5" font-family="Helvetica,sans-Serif" font-size="10.00">/Worker.hpp</text>
</a>
</g>
</g>
<!-- Node1&#45;&gt;Node6 -->
<g id="edge6" class="edge"><title>Node1&#45;&gt;Node6</title>
<path fill="none" stroke="midnightblue" d="M123.723,-381.757C129.29,-372.354 135.364,-362.096 140.451,-353.506"/>
<polygon fill="midnightblue" stroke="midnightblue" points="120.672,-380.04 118.589,-390.428 126.695,-383.607 120.672,-380.04"/>
</g>
<!-- Node3 -->
<g id="node3" class="node"><title>Node3</title>
<g id="a_node3"><a xlink:href="gui_2includes_2_office_8hpp.html" target="_top" xlink:title="/home/gogo/rendu/tek2\l/cpp_plazza/gui/includes\l/Office.hpp">
<polygon fill="none" stroke="black" points="45,-156.5 45,-197.5 169,-197.5 169,-156.5 45,-156.5"/>
<text text-anchor="start" x="53" y="-185.5" font-family="Helvetica,sans-Serif" font-size="10.00">/home/gogo/rendu/tek2</text>
<text text-anchor="start" x="53" y="-174.5" font-family="Helvetica,sans-Serif" font-size="10.00">/cpp_plazza/gui/includes</text>
<text text-anchor="middle" x="107" y="-163.5" font-family="Helvetica,sans-Serif" font-size="10.00">/Office.hpp</text>
</a>
</g>
</g>
<!-- Node2&#45;&gt;Node3 -->
<g id="edge2" class="edge"><title>Node2&#45;&gt;Node3</title>
<path fill="none" stroke="midnightblue" d="M107,-224.297C107,-215.301 107,-205.653 107,-197.506"/>
<polygon fill="midnightblue" stroke="midnightblue" points="103.5,-224.428 107,-234.428 110.5,-224.428 103.5,-224.428"/>
</g>
<!-- Node4 -->
<g id="node4" class="node"><title>Node4</title>
<g id="a_node4"><a xlink:href="gui_2includes_2_process_manager_8hpp.html" target="_top" xlink:title="/home/gogo/rendu/tek2\l/cpp_plazza/gui/includes\l/ProcessManager.hpp">
<polygon fill="none" stroke="black" points="0,-78.5 0,-119.5 124,-119.5 124,-78.5 0,-78.5"/>
<text text-anchor="start" x="8" y="-107.5" font-family="Helvetica,sans-Serif" font-size="10.00">/home/gogo/rendu/tek2</text>
<text text-anchor="start" x="8" y="-96.5" font-family="Helvetica,sans-Serif" font-size="10.00">/cpp_plazza/gui/includes</text>
<text text-anchor="middle" x="62" y="-85.5" font-family="Helvetica,sans-Serif" font-size="10.00">/ProcessManager.hpp</text>
</a>
</g>
</g>
<!-- Node3&#45;&gt;Node4 -->
<g id="edge3" class="edge"><title>Node3&#45;&gt;Node4</title>
<path fill="none" stroke="midnightblue" d="M90.2772,-147.757C84.7096,-138.354 78.6358,-128.096 73.5493,-119.506"/>
<polygon fill="midnightblue" stroke="midnightblue" points="87.3047,-149.607 95.4114,-156.428 93.3281,-146.04 87.3047,-149.607"/>
</g>
<!-- Node5 -->
<g id="node5" class="node"><title>Node5</title>
<g id="a_node5"><a xlink:href="gui_2includes_2_reception_8hpp.html" target="_top" xlink:title="/home/gogo/rendu/tek2\l/cpp_plazza/gui/includes\l/Reception.hpp">
<polygon fill="none" stroke="black" points="45,-0.5 45,-41.5 169,-41.5 169,-0.5 45,-0.5"/>
<text text-anchor="start" x="53" y="-29.5" font-family="Helvetica,sans-Serif" font-size="10.00">/home/gogo/rendu/tek2</text>
<text text-anchor="start" x="53" y="-18.5" font-family="Helvetica,sans-Serif" font-size="10.00">/cpp_plazza/gui/includes</text>
<text text-anchor="middle" x="107" y="-7.5" font-family="Helvetica,sans-Serif" font-size="10.00">/Reception.hpp</text>
</a>
</g>
</g>
<!-- Node3&#45;&gt;Node5 -->
<g id="edge5" class="edge"><title>Node3&#45;&gt;Node5</title>
<path fill="none" stroke="midnightblue" d="M123.279,-147.178C127.265,-138.688 130.968,-129.202 133,-120 137.025,-101.772 137.025,-96.2275 133,-78 130.203,-65.3351 124.242,-52.1319 118.732,-41.7286"/>
<polygon fill="midnightblue" stroke="midnightblue" points="120.074,-145.762 118.732,-156.271 126.335,-148.893 120.074,-145.762"/>
</g>
<!-- Node4&#45;&gt;Node5 -->
<g id="edge4" class="edge"><title>Node4&#45;&gt;Node5</title>
<path fill="none" stroke="midnightblue" d="M78.7228,-69.7571C84.2904,-60.354 90.3642,-50.096 95.4507,-41.5056"/>
<polygon fill="midnightblue" stroke="midnightblue" points="75.6719,-68.0401 73.5886,-78.4281 81.6953,-71.6066 75.6719,-68.0401"/>
</g>
<!-- Node6&#45;&gt;Node2 -->
<g id="edge7" class="edge"><title>Node6&#45;&gt;Node2</title>
<path fill="none" stroke="midnightblue" d="M135.277,-303.757C129.71,-294.354 123.636,-284.096 118.549,-275.506"/>
<polygon fill="midnightblue" stroke="midnightblue" points="132.305,-305.607 140.411,-312.428 138.328,-302.04 132.305,-305.607"/>
</g>
</g>
</svg>
