<?xml version="1.0" encoding="UTF-8" standalone="no"?>
<!DOCTYPE svg PUBLIC "-//W3C//DTD SVG 1.1//EN"
 "http://www.w3.org/Graphics/SVG/1.1/DTD/svg11.dtd">
<!-- Generated by graphviz version 2.38.0 (20140413.2041)
 -->
<!-- Title: /home/gogo/rendu/tek2/cpp_plazza/gui/includes/Worker.hpp Pages: 1 -->
<!--zoomable 218 -->
<svg id="main" version="1.1" xmlns="http://www.w3.org/2000/svg" xmlns:xlink="http://www.w3.org/1999/xlink" xml:space="preserve" onload="init(evt)">
<style type="text/css"><![CDATA[
.edge:hover path { stroke: red; }
.edge:hover polygon { stroke: red; fill: red; }
]]></style>
<script type="text/javascript"><![CDATA[
var edges = document.getElementsByTagName('g');
if (edges && edges.length) {
  for (var i=0;i<edges.length;i++) {
    if (edges[i].id.substr(0,4)=='edge') {
      edges[i].setAttribute('class','edge');
    }
  }
}
]]></script>
        <defs>
                <circle id="rim" cx="0" cy="0" r="7"/>
                <circle id="rim2" cx="0" cy="0" r="3.5"/>
                <g id="zoomPlus">
                        <use xlink:href="#rim" fill="#404040">
                                <set attributeName="fill" to="#808080" begin="zoomplus.mouseover" end="zoomplus.mouseout"/>
                        </use>
                        <path d="M-4,0h8M0,-4v8" fill="none" stroke="white" stroke-width="1.5" pointer-events="none"/>
                </g>
                <g id="zoomMin">
                        <use xlink:href="#rim" fill="#404040">
                                <set attributeName="fill" to="#808080" begin="zoomminus.mouseover" end="zoomminus.mouseout"/>
                        </use>
                        <path d="M-4,0h8" fill="none" stroke="white" stroke-width="1.5" pointer-events="none"/>
                </g>
                <g id="dirArrow">
                        <path fill="none" stroke="white" stroke-width="1.5" d="M0,-3.0v7 M-2.5,-0.5L0,-3.0L2.5,-0.5"/>
                </g>
               <g id="resetDef">
                       <use xlink:href="#rim2" fill="#404040">
                               <set attributeName="fill" to="#808080" begin="reset.mouseover" end="reset.mouseout"/>
                       </use>
               </g>
        </defs>

<script type="text/javascript">
var viewWidth = 727;
var viewHeight = 218;
var sectionId = 'dynsection-0';
</script>
<script xlink:href="svgpan.js"/>
<svg id="graph" class="graph">
<g id="viewport">
<title>/home/gogo/rendu/tek2/cpp_plazza/gui/includes/Worker.hpp</title>
<!-- Node1 -->
<g id="node1" class="node"><title>Node1</title>
<polygon fill="#bfbfbf" stroke="black" points="243.5,-168.5 243.5,-209.5 367.5,-209.5 367.5,-168.5 243.5,-168.5"/>
<text text-anchor="start" x="251.5" y="-197.5" font-family="Helvetica,sans-Serif" font-size="10.00">/home/gogo/rendu/tek2</text>
<text text-anchor="start" x="251.5" y="-186.5" font-family="Helvetica,sans-Serif" font-size="10.00">/cpp_plazza/gui/includes</text>
<text text-anchor="middle" x="305.5" y="-175.5" font-family="Helvetica,sans-Serif" font-size="10.00">/Worker.hpp</text>
</g>
<!-- Node2 -->
<g id="node2" class="node"><title>Node2</title>
<polygon fill="none" stroke="#bfbfbf" points="0,-112.5 0,-131.5 41,-131.5 41,-112.5 0,-112.5"/>
<text text-anchor="middle" x="20.5" y="-119.5" font-family="Helvetica,sans-Serif" font-size="10.00">regex</text>
</g>
<!-- Node1&#45;&gt;Node2 -->
<g id="edge1" class="edge"><title>Node1&#45;&gt;Node2</title>
<path fill="none" stroke="midnightblue" d="M243.356,-175.716C193.859,-165.621 122.621,-150.401 51.1793,-132.017"/>
<polygon fill="midnightblue" stroke="midnightblue" points="51.6579,-128.525 41.0994,-129.402 49.9001,-135.301 51.6579,-128.525"/>
</g>
<!-- Node3 -->
<g id="node3" class="node"><title>Node3</title>
<polygon fill="none" stroke="#bfbfbf" points="59.5,-112.5 59.5,-131.5 113.5,-131.5 113.5,-112.5 59.5,-112.5"/>
<text text-anchor="middle" x="86.5" y="-119.5" font-family="Helvetica,sans-Serif" font-size="10.00">iostream</text>
</g>
<!-- Node1&#45;&gt;Node3 -->
<g id="edge2" class="edge"><title>Node1&#45;&gt;Node3</title>
<path fill="none" stroke="midnightblue" d="M243.329,-169.547C204.594,-158.051 156.074,-143.65 123.341,-133.935"/>
<polygon fill="midnightblue" stroke="midnightblue" points="124.3,-130.568 113.718,-131.078 122.309,-137.279 124.3,-130.568"/>
</g>
<!-- Node4 -->
<g id="node4" class="node"><title>Node4</title>
<g id="a_node4"><a xlink:href="gui_2includes_2_thread_8hpp.html" target="_top" xlink:title="Thread.hpp">
<polygon fill="none" stroke="black" points="132,-112.5 132,-131.5 197,-131.5 197,-112.5 132,-112.5"/>
<text text-anchor="middle" x="164.5" y="-119.5" font-family="Helvetica,sans-Serif" font-size="10.00">Thread.hpp</text>
</a>
</g>
</g>
<!-- Node1&#45;&gt;Node4 -->
<g id="edge3" class="edge"><title>Node1&#45;&gt;Node4</title>
<path fill="none" stroke="midnightblue" d="M263.195,-168.498C240.33,-157.957 212.728,-145.233 192.534,-135.923"/>
<polygon fill="midnightblue" stroke="midnightblue" points="193.816,-132.661 183.269,-131.652 190.885,-139.018 193.816,-132.661"/>
</g>
<!-- Node6 -->
<g id="node6" class="node"><title>Node6</title>
<g id="a_node6"><a xlink:href="gui_2includes_2_file_8hpp.html" target="_top" xlink:title="File.hpp">
<polygon fill="none" stroke="black" points="633,-112.5 633,-131.5 684,-131.5 684,-112.5 633,-112.5"/>
<text text-anchor="middle" x="658.5" y="-119.5" font-family="Helvetica,sans-Serif" font-size="10.00">File.hpp</text>
</a>
</g>
</g>
<!-- Node1&#45;&gt;Node6 -->
<g id="edge5" class="edge"><title>Node1&#45;&gt;Node6</title>
<path fill="none" stroke="midnightblue" d="M367.556,-178.707C429.857,-169.017 528.76,-152.654 622.956,-132.202"/>
<polygon fill="midnightblue" stroke="midnightblue" points="623.918,-135.575 632.937,-130.016 622.42,-128.737 623.918,-135.575"/>
</g>
<!-- Node10 -->
<g id="node10" class="node"><title>Node10</title>
<g id="a_node10"><a xlink:href="gui_2includes_2_command_8hpp.html" target="_top" xlink:title="Command.hpp">
<polygon fill="none" stroke="black" points="215.5,-112.5 215.5,-131.5 295.5,-131.5 295.5,-112.5 215.5,-112.5"/>
<text text-anchor="middle" x="255.5" y="-119.5" font-family="Helvetica,sans-Serif" font-size="10.00">Command.hpp</text>
</a>
</g>
</g>
<!-- Node1&#45;&gt;Node10 -->
<g id="edge9" class="edge"><title>Node1&#45;&gt;Node10</title>
<path fill="none" stroke="midnightblue" d="M290.498,-168.498C283.422,-159.299 275.066,-148.436 268.294,-139.632"/>
<polygon fill="midnightblue" stroke="midnightblue" points="271.027,-137.445 262.156,-131.652 265.479,-141.713 271.027,-137.445"/>
</g>
<!-- Node13 -->
<g id="node13" class="node"><title>Node13</title>
<g id="a_node13"><a xlink:href="gui_2includes_2_xor_cypher_8hpp.html" target="_top" xlink:title="XorCypher.hpp">
<polygon fill="none" stroke="black" points="417.5,-112.5 417.5,-131.5 499.5,-131.5 499.5,-112.5 417.5,-112.5"/>
<text text-anchor="middle" x="458.5" y="-119.5" font-family="Helvetica,sans-Serif" font-size="10.00">XorCypher.hpp</text>
</a>
</g>
</g>
<!-- Node1&#45;&gt;Node13 -->
<g id="edge13" class="edge"><title>Node1&#45;&gt;Node13</title>
<path fill="none" stroke="midnightblue" d="M351.405,-168.498C376.442,-157.861 406.713,-145.001 428.676,-135.67"/>
<polygon fill="midnightblue" stroke="midnightblue" points="430.298,-138.784 438.133,-131.652 427.561,-132.341 430.298,-138.784"/>
</g>
<!-- Node15 -->
<g id="node15" class="node"><title>Node15</title>
<g id="a_node15"><a xlink:href="gui_2includes_2_caesar_cypher_8hpp.html" target="_top" xlink:title="CaesarCypher.hpp">
<polygon fill="none" stroke="black" points="517.5,-112.5 517.5,-131.5 615.5,-131.5 615.5,-112.5 517.5,-112.5"/>
<text text-anchor="middle" x="566.5" y="-119.5" font-family="Helvetica,sans-Serif" font-size="10.00">CaesarCypher.hpp</text>
</a>
</g>
</g>
<!-- Node1&#45;&gt;Node15 -->
<g id="edge16" class="edge"><title>Node1&#45;&gt;Node15</title>
<path fill="none" stroke="midnightblue" d="M367.684,-172.513C415.423,-160.624 480.148,-144.505 522.596,-133.934"/>
<polygon fill="midnightblue" stroke="midnightblue" points="523.497,-137.317 532.355,-131.504 521.805,-130.524 523.497,-137.317"/>
</g>
<!-- Node16 -->
<g id="node16" class="node"><title>Node16</title>
<g id="a_node16"><a xlink:href="gui_2includes_2_xor_cracker_8hpp.html" target="_top" xlink:title="XorCracker.hpp">
<polygon fill="none" stroke="black" points="314,-112.5 314,-131.5 399,-131.5 399,-112.5 314,-112.5"/>
<text text-anchor="middle" x="356.5" y="-119.5" font-family="Helvetica,sans-Serif" font-size="10.00">XorCracker.hpp</text>
</a>
</g>
</g>
<!-- Node1&#45;&gt;Node16 -->
<g id="edge18" class="edge"><title>Node1&#45;&gt;Node16</title>
<path fill="none" stroke="midnightblue" d="M320.802,-168.498C328.019,-159.299 336.542,-148.436 343.45,-139.632"/>
<polygon fill="midnightblue" stroke="midnightblue" points="346.292,-141.68 349.711,-131.652 340.785,-137.359 346.292,-141.68"/>
</g>
<!-- Node5 -->
<g id="node5" class="node"><title>Node5</title>
<polygon fill="none" stroke="#bfbfbf" points="142.5,-56.5 142.5,-75.5 186.5,-75.5 186.5,-56.5 142.5,-56.5"/>
<text text-anchor="middle" x="164.5" y="-63.5" font-family="Helvetica,sans-Serif" font-size="10.00">thread</text>
</g>
<!-- Node4&#45;&gt;Node5 -->
<g id="edge4" class="edge"><title>Node4&#45;&gt;Node5</title>
<path fill="none" stroke="midnightblue" d="M164.5,-112.083C164.5,-105.006 164.5,-94.8611 164.5,-85.9865"/>
<polygon fill="midnightblue" stroke="midnightblue" points="168,-85.751 164.5,-75.7511 161,-85.7511 168,-85.751"/>
</g>
<!-- Node7 -->
<g id="node7" class="node"><title>Node7</title>
<polygon fill="none" stroke="#bfbfbf" points="418,-0.5 418,-19.5 459,-19.5 459,-0.5 418,-0.5"/>
<text text-anchor="middle" x="438.5" y="-7.5" font-family="Helvetica,sans-Serif" font-size="10.00">string</text>
</g>
<!-- Node6&#45;&gt;Node7 -->
<g id="edge6" class="edge"><title>Node6&#45;&gt;Node7</title>
<path fill="none" stroke="midnightblue" d="M641.237,-112.368C602.842,-93.1711 510.184,-46.8418 464.648,-24.074"/>
<polygon fill="midnightblue" stroke="midnightblue" points="466.192,-20.9331 455.683,-19.5914 463.062,-27.1941 466.192,-20.9331"/>
</g>
<!-- Node8 -->
<g id="node8" class="node"><title>Node8</title>
<polygon fill="none" stroke="#bfbfbf" points="598.5,-56.5 598.5,-75.5 648.5,-75.5 648.5,-56.5 598.5,-56.5"/>
<text text-anchor="middle" x="623.5" y="-63.5" font-family="Helvetica,sans-Serif" font-size="10.00">fstream</text>
</g>
<!-- Node6&#45;&gt;Node8 -->
<g id="edge7" class="edge"><title>Node6&#45;&gt;Node8</title>
<path fill="none" stroke="midnightblue" d="M652.72,-112.083C647.828,-104.534 640.673,-93.4948 634.667,-84.2298"/>
<polygon fill="midnightblue" stroke="midnightblue" points="637.548,-82.239 629.172,-75.7511 631.674,-86.0463 637.548,-82.239"/>
</g>
<!-- Node9 -->
<g id="node9" class="node"><title>Node9</title>
<polygon fill="none" stroke="#bfbfbf" points="666.5,-56.5 666.5,-75.5 718.5,-75.5 718.5,-56.5 666.5,-56.5"/>
<text text-anchor="middle" x="692.5" y="-63.5" font-family="Helvetica,sans-Serif" font-size="10.00">sstream</text>
</g>
<!-- Node6&#45;&gt;Node9 -->
<g id="edge8" class="edge"><title>Node6&#45;&gt;Node9</title>
<path fill="none" stroke="midnightblue" d="M664.114,-112.083C668.867,-104.534 675.818,-93.4948 681.652,-84.2298"/>
<polygon fill="midnightblue" stroke="midnightblue" points="684.624,-86.0783 686.99,-75.7511 678.7,-82.3486 684.624,-86.0783"/>
</g>
<!-- Node10&#45;&gt;Node7 -->
<g id="edge10" class="edge"><title>Node10&#45;&gt;Node7</title>
<path fill="none" stroke="midnightblue" d="M255.192,-112.085C255.219,-98.1536 257.392,-71.2436 272.5,-56 308.467,-19.7114 370.514,-11.8292 407.71,-10.592"/>
<polygon fill="midnightblue" stroke="midnightblue" points="408.017,-14.087 417.95,-10.399 407.885,-7.08821 408.017,-14.087"/>
</g>
<!-- Node11 -->
<g id="node11" class="node"><title>Node11</title>
<polygon fill="none" stroke="#bfbfbf" points="334.5,-56.5 334.5,-75.5 378.5,-75.5 378.5,-56.5 334.5,-56.5"/>
<text text-anchor="middle" x="356.5" y="-63.5" font-family="Helvetica,sans-Serif" font-size="10.00">vector</text>
</g>
<!-- Node10&#45;&gt;Node11 -->
<g id="edge11" class="edge"><title>Node10&#45;&gt;Node11</title>
<path fill="none" stroke="midnightblue" d="M271.727,-112.324C287.851,-103.703 312.8,-90.3643 331.464,-80.3855"/>
<polygon fill="midnightblue" stroke="midnightblue" points="333.144,-83.456 340.313,-75.6545 329.844,-77.283 333.144,-83.456"/>
</g>
<!-- Node12 -->
<g id="node12" class="node"><title>Node12</title>
<polygon fill="none" stroke="#bfbfbf" points="281,-56.5 281,-75.5 316,-75.5 316,-56.5 281,-56.5"/>
<text text-anchor="middle" x="298.5" y="-63.5" font-family="Helvetica,sans-Serif" font-size="10.00">map</text>
</g>
<!-- Node10&#45;&gt;Node12 -->
<g id="edge12" class="edge"><title>Node10&#45;&gt;Node12</title>
<path fill="none" stroke="midnightblue" d="M262.601,-112.083C268.737,-104.377 277.77,-93.0333 285.239,-83.6531"/>
<polygon fill="midnightblue" stroke="midnightblue" points="288.04,-85.7542 291.532,-75.7511 282.564,-81.3936 288.04,-85.7542"/>
</g>
<!-- Node14 -->
<g id="node14" class="node"><title>Node14</title>
<g id="a_node14"><a xlink:href="gui_2includes_2_a_cypher_8hpp.html" target="_top" xlink:title="ACypher.hpp">
<polygon fill="none" stroke="black" points="434.5,-56.5 434.5,-75.5 508.5,-75.5 508.5,-56.5 434.5,-56.5"/>
<text text-anchor="middle" x="471.5" y="-63.5" font-family="Helvetica,sans-Serif" font-size="10.00">ACypher.hpp</text>
</a>
</g>
</g>
<!-- Node13&#45;&gt;Node14 -->
<g id="edge14" class="edge"><title>Node13&#45;&gt;Node14</title>
<path fill="none" stroke="midnightblue" d="M460.647,-112.083C462.369,-104.927 464.847,-94.6353 467,-85.6911"/>
<polygon fill="midnightblue" stroke="midnightblue" points="470.455,-86.2925 469.393,-75.7511 463.65,-84.6541 470.455,-86.2925"/>
</g>
<!-- Node14&#45;&gt;Node7 -->
<g id="edge15" class="edge"><title>Node14&#45;&gt;Node7</title>
<path fill="none" stroke="midnightblue" d="M466.051,-56.083C461.486,-48.6127 454.832,-37.7244 449.207,-28.5199"/>
<polygon fill="midnightblue" stroke="midnightblue" points="452.049,-26.4588 443.848,-19.7511 446.076,-30.109 452.049,-26.4588"/>
</g>
<!-- Node15&#45;&gt;Node14 -->
<g id="edge17" class="edge"><title>Node15&#45;&gt;Node14</title>
<path fill="none" stroke="midnightblue" d="M551.237,-112.324C536.279,-103.822 513.245,-90.7288 495.773,-80.7975"/>
<polygon fill="midnightblue" stroke="midnightblue" points="497.149,-77.5534 486.726,-75.6545 493.69,-83.639 497.149,-77.5534"/>
</g>
<!-- Node16&#45;&gt;Node7 -->
<g id="edge19" class="edge"><title>Node16&#45;&gt;Node7</title>
<path fill="none" stroke="midnightblue" d="M362.934,-112.368C376.527,-94.135 408.364,-51.4257 426.069,-27.6752"/>
<polygon fill="midnightblue" stroke="midnightblue" points="428.925,-29.7007 432.095,-19.5914 423.313,-25.5171 428.925,-29.7007"/>
</g>
<!-- Node16&#45;&gt;Node11 -->
<g id="edge20" class="edge"><title>Node16&#45;&gt;Node11</title>
<path fill="none" stroke="midnightblue" d="M356.5,-112.083C356.5,-105.006 356.5,-94.8611 356.5,-85.9865"/>
<polygon fill="midnightblue" stroke="midnightblue" points="360,-85.751 356.5,-75.7511 353,-85.7511 360,-85.751"/>
</g>
<!-- Node16&#45;&gt;Node12 -->
<g id="edge21" class="edge"><title>Node16&#45;&gt;Node12</title>
<path fill="none" stroke="midnightblue" d="M347.181,-112.324C338.607,-104.341 325.688,-92.3128 315.312,-82.6529"/>
<polygon fill="midnightblue" stroke="midnightblue" points="317.692,-80.0865 307.988,-75.8339 312.922,-85.2098 317.692,-80.0865"/>
</g>
</g>
</svg>
        <g id="navigator" transform="translate(0 0)" fill="#404254">
                <rect fill="#f2f5e9" fill-opacity="0.5" stroke="#606060" stroke-width=".5" x="0" y="0" width="60" height="60"/>
                <use id="zoomplus" xlink:href="#zoomPlus" x="17" y="9" onmousedown="handleZoom(evt,'in')"/>
                <use id="zoomminus" xlink:href="#zoomMin" x="42" y="9" onmousedown="handleZoom(evt,'out')"/>
                <use id="reset" xlink:href="#resetDef" x="30" y="36" onmousedown="handleReset()"/>
                <g id="arrowUp" xlink:href="#dirArrow" transform="translate(30 24)" onmousedown="handlePan(0,-1)">
                  <use xlink:href="#rim" fill="#404040">
                        <set attributeName="fill" to="#808080" begin="arrowUp.mouseover" end="arrowUp.mouseout"/>
                  </use>
                  <path fill="none" stroke="white" stroke-width="1.5" d="M0,-3.0v7 M-2.5,-0.5L0,-3.0L2.5,-0.5"/>
                </g>
                <g id="arrowRight" xlink:href="#dirArrow" transform="rotate(90) translate(36 -43)" onmousedown="handlePan(1,0)">
                  <use xlink:href="#rim" fill="#404040">
                        <set attributeName="fill" to="#808080" begin="arrowRight.mouseover" end="arrowRight.mouseout"/>
                  </use>
                  <path fill="none" stroke="white" stroke-width="1.5" d="M0,-3.0v7 M-2.5,-0.5L0,-3.0L2.5,-0.5"/>
                </g>
                <g id="arrowDown" xlink:href="#dirArrow" transform="rotate(180) translate(-30 -48)" onmousedown="handlePan(0,1)">
                  <use xlink:href="#rim" fill="#404040">
                        <set attributeName="fill" to="#808080" begin="arrowDown.mouseover" end="arrowDown.mouseout"/>
                  </use>
                  <path fill="none" stroke="white" stroke-width="1.5" d="M0,-3.0v7 M-2.5,-0.5L0,-3.0L2.5,-0.5"/>
                </g>
                <g id="arrowLeft" xlink:href="#dirArrow" transform="rotate(270) translate(-36 17)" onmousedown="handlePan(-1,0)">
                  <use xlink:href="#rim" fill="#404040">
                        <set attributeName="fill" to="#808080" begin="arrowLeft.mouseover" end="arrowLeft.mouseout"/>
                  </use>
                  <path fill="none" stroke="white" stroke-width="1.5" d="M0,-3.0v7 M-2.5,-0.5L0,-3.0L2.5,-0.5"/>
                </g>
        </g>
        <svg viewBox="0 0 15 15" width="100%" height="30px" preserveAspectRatio="xMaxYMin meet">
         <g id="arrow_out" transform="scale(0.3 0.3)">
          <a xlink:href="gui_2includes_2_worker_8hpp__incl_org.svg" target="_base">
           <rect id="button" ry="5" rx="5" y="6" x="6" height="38" width="38"
                fill="#f2f5e9" fill-opacity="0.5" stroke="#606060" stroke-width="1.0"/>
           <path id="arrow"
             d="M 11.500037,31.436501 C 11.940474,20.09759 22.043105,11.32322 32.158766,21.979434 L 37.068811,17.246167 C 37.068811,17.246167 37.088388,32 37.088388,32 L 22.160133,31.978069 C 22.160133,31.978069 26.997745,27.140456 26.997745,27.140456 C 18.528582,18.264221 13.291696,25.230495 11.500037,31.436501 z"
             style="fill:#404040;"/>
          </a>
         </g>
        </svg>
</svg>
