<?xml version="1.0" encoding="UTF-8" standalone="no"?>
<!DOCTYPE svg PUBLIC "-//W3C//DTD SVG 1.1//EN"
 "http://www.w3.org/Graphics/SVG/1.1/DTD/svg11.dtd">
<!-- Generated by graphviz version 2.38.0 (20140413.2041)
 -->
<!-- Title: /home/gogo/rendu/tek2/cpp_plazza/includes/ThreadPool.hpp Pages: 1 -->
<!--zoomable 274 -->
<svg id="main" version="1.1" xmlns="http://www.w3.org/2000/svg" xmlns:xlink="http://www.w3.org/1999/xlink" xml:space="preserve" onload="init(evt)">
<style type="text/css"><![CDATA[
.edge:hover path { stroke: red; }
.edge:hover polygon { stroke: red; fill: red; }
]]></style>
<script type="text/javascript"><![CDATA[
var edges = document.getElementsByTagName('g');
if (edges && edges.length) {
  for (var i=0;i<edges.length;i++) {
    if (edges[i].id.substr(0,4)=='edge') {
      edges[i].setAttribute('class','edge');
    }
  }
}
]]></script>
        <defs>
                <circle id="rim" cx="0" cy="0" r="7"/>
                <circle id="rim2" cx="0" cy="0" r="3.5"/>
                <g id="zoomPlus">
                        <use xlink:href="#rim" fill="#404040">
                                <set attributeName="fill" to="#808080" begin="zoomplus.mouseover" end="zoomplus.mouseout"/>
                        </use>
                        <path d="M-4,0h8M0,-4v8" fill="none" stroke="white" stroke-width="1.5" pointer-events="none"/>
                </g>
                <g id="zoomMin">
                        <use xlink:href="#rim" fill="#404040">
                                <set attributeName="fill" to="#808080" begin="zoomminus.mouseover" end="zoomminus.mouseout"/>
                        </use>
                        <path d="M-4,0h8" fill="none" stroke="white" stroke-width="1.5" pointer-events="none"/>
                </g>
                <g id="dirArrow">
                        <path fill="none" stroke="white" stroke-width="1.5" d="M0,-3.0v7 M-2.5,-0.5L0,-3.0L2.5,-0.5"/>
                </g>
               <g id="resetDef">
                       <use xlink:href="#rim2" fill="#404040">
                               <set attributeName="fill" to="#808080" begin="reset.mouseover" end="reset.mouseout"/>
                       </use>
               </g>
        </defs>

<script type="text/javascript">
var viewWidth = 909;
var viewHeight = 274;
var sectionId = 'dynsection-0';
</script>
<script xlink:href="svgpan.js"/>
<svg id="graph" class="graph">
<g id="viewport">
<title>/home/gogo/rendu/tek2/cpp_plazza/includes/ThreadPool.hpp</title>
<!-- Node1 -->
<g id="node1" class="node"><title>Node1</title>
<polygon fill="#bfbfbf" stroke="black" points="431,-224.5 431,-265.5 547,-265.5 547,-224.5 431,-224.5"/>
<text text-anchor="start" x="439" y="-253.5" font-family="Helvetica,sans-Serif" font-size="10.00">/home/gogo/rendu/tek2</text>
<text text-anchor="start" x="439" y="-242.5" font-family="Helvetica,sans-Serif" font-size="10.00">/cpp_plazza/includes</text>
<text text-anchor="middle" x="489" y="-231.5" font-family="Helvetica,sans-Serif" font-size="10.00">/ThreadPool.hpp</text>
</g>
<!-- Node2 -->
<g id="node2" class="node"><title>Node2</title>
<polygon fill="none" stroke="#bfbfbf" points="0,-56.5 0,-75.5 44,-75.5 44,-56.5 0,-56.5"/>
<text text-anchor="middle" x="22" y="-63.5" font-family="Helvetica,sans-Serif" font-size="10.00">vector</text>
</g>
<!-- Node1&#45;&gt;Node2 -->
<g id="edge1" class="edge"><title>Node1&#45;&gt;Node2</title>
<path fill="none" stroke="midnightblue" d="M430.835,-239.246C315.47,-228.467 64.443,-197.82 14,-132 3.75978,-118.638 8.0409,-98.9893 13.4714,-84.7955"/>
<polygon fill="midnightblue" stroke="midnightblue" points="16.6941,-86.1609 17.4376,-75.5922 10.2657,-83.3905 16.6941,-86.1609"/>
</g>
<!-- Node3 -->
<g id="node3" class="node"><title>Node3</title>
<polygon fill="none" stroke="#bfbfbf" points="492,-168.5 492,-187.5 536,-187.5 536,-168.5 492,-168.5"/>
<text text-anchor="middle" x="514" y="-175.5" font-family="Helvetica,sans-Serif" font-size="10.00">mutex</text>
</g>
<!-- Node1&#45;&gt;Node3 -->
<g id="edge2" class="edge"><title>Node1&#45;&gt;Node3</title>
<path fill="none" stroke="midnightblue" d="M496.501,-224.498C499.855,-215.778 503.783,-205.563 507.068,-197.024"/>
<polygon fill="midnightblue" stroke="midnightblue" points="510.349,-198.242 510.672,-187.652 503.816,-195.73 510.349,-198.242"/>
</g>
<!-- Node4 -->
<g id="node4" class="node"><title>Node4</title>
<polygon fill="none" stroke="#bfbfbf" points="554.5,-168.5 554.5,-187.5 597.5,-187.5 597.5,-168.5 554.5,-168.5"/>
<text text-anchor="middle" x="576" y="-175.5" font-family="Helvetica,sans-Serif" font-size="10.00">queue</text>
</g>
<!-- Node1&#45;&gt;Node4 -->
<g id="edge3" class="edge"><title>Node1&#45;&gt;Node4</title>
<path fill="none" stroke="midnightblue" d="M515.103,-224.498C528.313,-214.628 544.087,-202.843 556.27,-193.741"/>
<polygon fill="midnightblue" stroke="midnightblue" points="558.503,-196.442 564.419,-187.652 554.313,-190.834 558.503,-196.442"/>
</g>
<!-- Node5 -->
<g id="node5" class="node"><title>Node5</title>
<g id="a_node5"><a xlink:href="includes_2_thread_8hpp.html" target="_top" xlink:title="Thread.hpp">
<polygon fill="none" stroke="black" points="641.5,-112.5 641.5,-131.5 706.5,-131.5 706.5,-112.5 641.5,-112.5"/>
<text text-anchor="middle" x="674" y="-119.5" font-family="Helvetica,sans-Serif" font-size="10.00">Thread.hpp</text>
</a>
</g>
</g>
<!-- Node1&#45;&gt;Node5 -->
<g id="edge4" class="edge"><title>Node1&#45;&gt;Node5</title>
<path fill="none" stroke="midnightblue" d="M480.651,-224.372C474.968,-207.608 470.512,-183.773 483,-168 485.339,-165.046 575.734,-144.668 631.313,-132.37"/>
<polygon fill="midnightblue" stroke="midnightblue" points="632.247,-135.749 641.256,-130.174 630.737,-128.913 632.247,-135.749"/>
</g>
<!-- Node7 -->
<g id="node7" class="node"><title>Node7</title>
<g id="a_node7"><a xlink:href="includes_2_mutex_8hpp.html" target="_top" xlink:title="Mutex.hpp">
<polygon fill="none" stroke="black" points="725,-112.5 725,-131.5 787,-131.5 787,-112.5 725,-112.5"/>
<text text-anchor="middle" x="756" y="-119.5" font-family="Helvetica,sans-Serif" font-size="10.00">Mutex.hpp</text>
</a>
</g>
</g>
<!-- Node1&#45;&gt;Node7 -->
<g id="edge6" class="edge"><title>Node1&#45;&gt;Node7</title>
<path fill="none" stroke="midnightblue" d="M532.195,-224.425C587.311,-199.447 681.087,-156.949 727.808,-135.776"/>
<polygon fill="midnightblue" stroke="midnightblue" points="729.368,-138.912 737.032,-131.596 726.479,-132.536 729.368,-138.912"/>
</g>
<!-- Node8 -->
<g id="node8" class="node"><title>Node8</title>
<g id="a_node8"><a xlink:href="includes_2_cond_var_8hpp.html" target="_top" xlink:title="CondVar.hpp">
<polygon fill="none" stroke="black" points="719,-168.5 719,-187.5 793,-187.5 793,-168.5 719,-168.5"/>
<text text-anchor="middle" x="756" y="-175.5" font-family="Helvetica,sans-Serif" font-size="10.00">CondVar.hpp</text>
</a>
</g>
</g>
<!-- Node1&#45;&gt;Node8 -->
<g id="edge7" class="edge"><title>Node1&#45;&gt;Node8</title>
<path fill="none" stroke="midnightblue" d="M547.264,-229.816C596.479,-217.835 665.949,-200.923 710.982,-189.959"/>
<polygon fill="midnightblue" stroke="midnightblue" points="711.873,-193.345 720.761,-187.579 710.217,-186.543 711.873,-193.345"/>
</g>
<!-- Node10 -->
<g id="node10" class="node"><title>Node10</title>
<g id="a_node10"><a xlink:href="includes_2_worker_8hpp.html" target="_top" xlink:title="Worker.hpp">
<polygon fill="none" stroke="black" points="346.5,-168.5 346.5,-187.5 413.5,-187.5 413.5,-168.5 346.5,-168.5"/>
<text text-anchor="middle" x="380" y="-175.5" font-family="Helvetica,sans-Serif" font-size="10.00">Worker.hpp</text>
</a>
</g>
</g>
<!-- Node1&#45;&gt;Node10 -->
<g id="edge10" class="edge"><title>Node1&#45;&gt;Node10</title>
<path fill="none" stroke="midnightblue" d="M456.296,-224.498C439.263,-214.34 418.829,-202.155 403.397,-192.952"/>
<polygon fill="midnightblue" stroke="midnightblue" points="404.891,-189.768 394.51,-187.652 401.306,-195.78 404.891,-189.768"/>
</g>
<!-- Node17 -->
<g id="node17" class="node"><title>Node17</title>
<g id="a_node17"><a xlink:href="includes_2_command_8hpp.html" target="_top" xlink:title="Command.hpp">
<polygon fill="none" stroke="black" points="23,-112.5 23,-131.5 103,-131.5 103,-112.5 23,-112.5"/>
<text text-anchor="middle" x="63" y="-119.5" font-family="Helvetica,sans-Serif" font-size="10.00">Command.hpp</text>
</a>
</g>
</g>
<!-- Node1&#45;&gt;Node17 -->
<g id="edge31" class="edge"><title>Node1&#45;&gt;Node17</title>
<path fill="none" stroke="midnightblue" d="M430.66,-227.429C342.844,-202.486 178.932,-155.929 103.227,-134.426"/>
<polygon fill="midnightblue" stroke="midnightblue" points="103.723,-130.928 93.1471,-131.563 101.81,-137.662 103.723,-130.928"/>
</g>
<!-- Node6 -->
<g id="node6" class="node"><title>Node6</title>
<polygon fill="none" stroke="#bfbfbf" points="652,-56.5 652,-75.5 696,-75.5 696,-56.5 652,-56.5"/>
<text text-anchor="middle" x="674" y="-63.5" font-family="Helvetica,sans-Serif" font-size="10.00">thread</text>
</g>
<!-- Node5&#45;&gt;Node6 -->
<g id="edge5" class="edge"><title>Node5&#45;&gt;Node6</title>
<path fill="none" stroke="midnightblue" d="M674,-112.083C674,-105.006 674,-94.8611 674,-85.9865"/>
<polygon fill="midnightblue" stroke="midnightblue" points="677.5,-85.751 674,-75.7511 670.5,-85.7511 677.5,-85.751"/>
</g>
<!-- Node8&#45;&gt;Node7 -->
<g id="edge9" class="edge"><title>Node8&#45;&gt;Node7</title>
<path fill="none" stroke="midnightblue" d="M756,-168.083C756,-161.006 756,-150.861 756,-141.986"/>
<polygon fill="midnightblue" stroke="midnightblue" points="759.5,-141.751 756,-131.751 752.5,-141.751 759.5,-141.751"/>
</g>
<!-- Node9 -->
<g id="node9" class="node"><title>Node9</title>
<polygon fill="none" stroke="#bfbfbf" points="805.5,-112.5 805.5,-131.5 900.5,-131.5 900.5,-112.5 805.5,-112.5"/>
<text text-anchor="middle" x="853" y="-119.5" font-family="Helvetica,sans-Serif" font-size="10.00">condition_variable</text>
</g>
<!-- Node8&#45;&gt;Node9 -->
<g id="edge8" class="edge"><title>Node8&#45;&gt;Node9</title>
<path fill="none" stroke="midnightblue" d="M771.585,-168.324C786.999,-159.743 810.812,-146.486 828.71,-136.522"/>
<polygon fill="midnightblue" stroke="midnightblue" points="830.419,-139.577 837.454,-131.655 827.014,-133.461 830.419,-139.577"/>
</g>
<!-- Node10&#45;&gt;Node5 -->
<g id="edge13" class="edge"><title>Node10&#45;&gt;Node5</title>
<path fill="none" stroke="midnightblue" d="M413.9,-171.327C460.506,-163.445 547.227,-148.482 631.471,-132.046"/>
<polygon fill="midnightblue" stroke="midnightblue" points="632.323,-135.446 641.463,-130.088 630.977,-128.577 632.323,-135.446"/>
</g>
<!-- Node11 -->
<g id="node11" class="node"><title>Node11</title>
<polygon fill="none" stroke="#bfbfbf" points="293.5,-112.5 293.5,-131.5 334.5,-131.5 334.5,-112.5 293.5,-112.5"/>
<text text-anchor="middle" x="314" y="-119.5" font-family="Helvetica,sans-Serif" font-size="10.00">regex</text>
</g>
<!-- Node10&#45;&gt;Node11 -->
<g id="edge11" class="edge"><title>Node10&#45;&gt;Node11</title>
<path fill="none" stroke="midnightblue" d="M369.396,-168.324C359.544,-160.263 344.649,-148.077 332.785,-138.369"/>
<polygon fill="midnightblue" stroke="midnightblue" points="334.753,-135.457 324.797,-131.834 330.32,-140.875 334.753,-135.457"/>
</g>
<!-- Node12 -->
<g id="node12" class="node"><title>Node12</title>
<polygon fill="none" stroke="#bfbfbf" points="353,-112.5 353,-131.5 407,-131.5 407,-112.5 353,-112.5"/>
<text text-anchor="middle" x="380" y="-119.5" font-family="Helvetica,sans-Serif" font-size="10.00">iostream</text>
</g>
<!-- Node10&#45;&gt;Node12 -->
<g id="edge12" class="edge"><title>Node10&#45;&gt;Node12</title>
<path fill="none" stroke="midnightblue" d="M380,-168.083C380,-161.006 380,-150.861 380,-141.986"/>
<polygon fill="midnightblue" stroke="midnightblue" points="383.5,-141.751 380,-131.751 376.5,-141.751 383.5,-141.751"/>
</g>
<!-- Node13 -->
<g id="node13" class="node"><title>Node13</title>
<g id="a_node13"><a xlink:href="includes_2_file_8hpp.html" target="_top" xlink:title="File.hpp">
<polygon fill="none" stroke="black" points="224.5,-112.5 224.5,-131.5 275.5,-131.5 275.5,-112.5 224.5,-112.5"/>
<text text-anchor="middle" x="250" y="-119.5" font-family="Helvetica,sans-Serif" font-size="10.00">File.hpp</text>
</a>
</g>
</g>
<!-- Node10&#45;&gt;Node13 -->
<g id="edge14" class="edge"><title>Node10&#45;&gt;Node13</title>
<path fill="none" stroke="midnightblue" d="M359.401,-168.444C338.007,-159.557 304.319,-145.563 279.976,-135.451"/>
<polygon fill="midnightblue" stroke="midnightblue" points="281.08,-132.12 270.503,-131.516 278.395,-138.585 281.08,-132.12"/>
</g>
<!-- Node10&#45;&gt;Node17 -->
<g id="edge18" class="edge"><title>Node10&#45;&gt;Node17</title>
<path fill="none" stroke="midnightblue" d="M346.127,-171.483C297.09,-163.459 203.207,-147.957 113.205,-132.191"/>
<polygon fill="midnightblue" stroke="midnightblue" points="113.557,-128.699 103.102,-130.417 112.346,-135.594 113.557,-128.699"/>
</g>
<!-- Node19 -->
<g id="node19" class="node"><title>Node19</title>
<g id="a_node19"><a xlink:href="includes_2_xor_cypher_8hpp.html" target="_top" xlink:title="XorCypher.hpp">
<polygon fill="none" stroke="black" points="541,-112.5 541,-131.5 623,-131.5 623,-112.5 541,-112.5"/>
<text text-anchor="middle" x="582" y="-119.5" font-family="Helvetica,sans-Serif" font-size="10.00">XorCypher.hpp</text>
</a>
</g>
</g>
<!-- Node10&#45;&gt;Node19 -->
<g id="edge22" class="edge"><title>Node10&#45;&gt;Node19</title>
<path fill="none" stroke="midnightblue" d="M412.008,-168.444C446.729,-159.162 502.288,-144.309 540.377,-134.127"/>
<polygon fill="midnightblue" stroke="midnightblue" points="541.385,-137.48 550.142,-131.516 539.578,-130.718 541.385,-137.48"/>
</g>
<!-- Node21 -->
<g id="node21" class="node"><title>Node21</title>
<g id="a_node21"><a xlink:href="includes_2_caesar_cypher_8hpp.html" target="_top" xlink:title="CaesarCypher.hpp">
<polygon fill="none" stroke="black" points="425,-112.5 425,-131.5 523,-131.5 523,-112.5 425,-112.5"/>
<text text-anchor="middle" x="474" y="-119.5" font-family="Helvetica,sans-Serif" font-size="10.00">CaesarCypher.hpp</text>
</a>
</g>
</g>
<!-- Node10&#45;&gt;Node21 -->
<g id="edge25" class="edge"><title>Node10&#45;&gt;Node21</title>
<path fill="none" stroke="midnightblue" d="M395.103,-168.324C409.903,-159.822 432.694,-146.729 449.982,-136.797"/>
<polygon fill="midnightblue" stroke="midnightblue" points="452.007,-139.671 458.935,-131.655 448.52,-133.601 452.007,-139.671"/>
</g>
<!-- Node22 -->
<g id="node22" class="node"><title>Node22</title>
<g id="a_node22"><a xlink:href="includes_2_xor_cracker_8hpp.html" target="_top" xlink:title="XorCracker.hpp">
<polygon fill="none" stroke="black" points="121.5,-112.5 121.5,-131.5 206.5,-131.5 206.5,-112.5 121.5,-112.5"/>
<text text-anchor="middle" x="164" y="-119.5" font-family="Helvetica,sans-Serif" font-size="10.00">XorCracker.hpp</text>
</a>
</g>
</g>
<!-- Node10&#45;&gt;Node22 -->
<g id="edge27" class="edge"><title>Node10&#45;&gt;Node22</title>
<path fill="none" stroke="midnightblue" d="M346.25,-168.562C308.981,-159.245 248.849,-144.212 207.931,-133.983"/>
<polygon fill="midnightblue" stroke="midnightblue" points="208.776,-130.586 198.226,-131.556 207.078,-137.377 208.776,-130.586"/>
</g>
<!-- Node14 -->
<g id="node14" class="node"><title>Node14</title>
<polygon fill="none" stroke="#bfbfbf" points="162.5,-0.5 162.5,-19.5 203.5,-19.5 203.5,-0.5 162.5,-0.5"/>
<text text-anchor="middle" x="183" y="-7.5" font-family="Helvetica,sans-Serif" font-size="10.00">string</text>
</g>
<!-- Node13&#45;&gt;Node14 -->
<g id="edge15" class="edge"><title>Node13&#45;&gt;Node14</title>
<path fill="none" stroke="midnightblue" d="M244.329,-112.444C238.4,-103.443 228.88,-88.8304 221,-76 211.297,-60.2003 200.68,-41.954 193.141,-28.8228"/>
<polygon fill="midnightblue" stroke="midnightblue" points="196.044,-26.848 188.042,-19.9037 189.967,-30.3222 196.044,-26.848"/>
</g>
<!-- Node15 -->
<g id="node15" class="node"><title>Node15</title>
<polygon fill="none" stroke="#bfbfbf" points="300,-56.5 300,-75.5 350,-75.5 350,-56.5 300,-56.5"/>
<text text-anchor="middle" x="325" y="-63.5" font-family="Helvetica,sans-Serif" font-size="10.00">fstream</text>
</g>
<!-- Node13&#45;&gt;Node15 -->
<g id="edge16" class="edge"><title>Node13&#45;&gt;Node15</title>
<path fill="none" stroke="midnightblue" d="M262.05,-112.324C273.463,-104.107 290.831,-91.6017 304.435,-81.8069"/>
<polygon fill="midnightblue" stroke="midnightblue" points="306.66,-84.5174 312.731,-75.8339 302.57,-78.8366 306.66,-84.5174"/>
</g>
<!-- Node16 -->
<g id="node16" class="node"><title>Node16</title>
<polygon fill="none" stroke="#bfbfbf" points="230,-56.5 230,-75.5 282,-75.5 282,-56.5 230,-56.5"/>
<text text-anchor="middle" x="256" y="-63.5" font-family="Helvetica,sans-Serif" font-size="10.00">sstream</text>
</g>
<!-- Node13&#45;&gt;Node16 -->
<g id="edge17" class="edge"><title>Node13&#45;&gt;Node16</title>
<path fill="none" stroke="midnightblue" d="M250.991,-112.083C251.786,-104.927 252.929,-94.6353 253.923,-85.6911"/>
<polygon fill="midnightblue" stroke="midnightblue" points="257.402,-86.0765 255.028,-75.7511 250.445,-85.3034 257.402,-86.0765"/>
</g>
<!-- Node17&#45;&gt;Node2 -->
<g id="edge20" class="edge"><title>Node17&#45;&gt;Node2</title>
<path fill="none" stroke="midnightblue" d="M56.2297,-112.083C50.4384,-104.455 41.9415,-93.2645 34.8625,-83.9408"/>
<polygon fill="midnightblue" stroke="midnightblue" points="37.479,-81.5991 28.6443,-75.7511 31.9039,-85.8321 37.479,-81.5991"/>
</g>
<!-- Node17&#45;&gt;Node14 -->
<g id="edge19" class="edge"><title>Node17&#45;&gt;Node14</title>
<path fill="none" stroke="midnightblue" d="M64.6974,-112.351C67.7619,-98.7855 75.403,-72.3669 91,-56 107.79,-38.3817 132.925,-26.7391 152.683,-19.7188"/>
<polygon fill="midnightblue" stroke="midnightblue" points="153.794,-23.0377 162.17,-16.5498 151.577,-16.3983 153.794,-23.0377"/>
</g>
<!-- Node18 -->
<g id="node18" class="node"><title>Node18</title>
<polygon fill="none" stroke="#bfbfbf" points="100.5,-56.5 100.5,-75.5 135.5,-75.5 135.5,-56.5 100.5,-56.5"/>
<text text-anchor="middle" x="118" y="-63.5" font-family="Helvetica,sans-Serif" font-size="10.00">map</text>
</g>
<!-- Node17&#45;&gt;Node18 -->
<g id="edge21" class="edge"><title>Node17&#45;&gt;Node18</title>
<path fill="none" stroke="midnightblue" d="M72.0821,-112.083C80.1713,-104.141 92.1954,-92.3354 101.91,-82.7973"/>
<polygon fill="midnightblue" stroke="midnightblue" points="104.403,-85.2545 109.087,-75.7511 99.4991,-80.2595 104.403,-85.2545"/>
</g>
<!-- Node20 -->
<g id="node20" class="node"><title>Node20</title>
<g id="a_node20"><a xlink:href="includes_2_a_cypher_8hpp.html" target="_top" xlink:title="ACypher.hpp">
<polygon fill="none" stroke="black" points="437,-56.5 437,-75.5 511,-75.5 511,-56.5 437,-56.5"/>
<text text-anchor="middle" x="474" y="-63.5" font-family="Helvetica,sans-Serif" font-size="10.00">ACypher.hpp</text>
</a>
</g>
</g>
<!-- Node19&#45;&gt;Node20 -->
<g id="edge23" class="edge"><title>Node19&#45;&gt;Node20</title>
<path fill="none" stroke="midnightblue" d="M564.648,-112.324C547.328,-103.664 520.485,-90.2424 500.498,-80.249"/>
<polygon fill="midnightblue" stroke="midnightblue" points="501.819,-76.9962 491.309,-75.6545 498.688,-83.2572 501.819,-76.9962"/>
</g>
<!-- Node20&#45;&gt;Node14 -->
<g id="edge24" class="edge"><title>Node20&#45;&gt;Node14</title>
<path fill="none" stroke="midnightblue" d="M436.849,-58.106C378.816,-47.337 267.73,-26.7231 213.84,-16.7228"/>
<polygon fill="midnightblue" stroke="midnightblue" points="214.328,-13.2537 203.857,-14.8703 213.05,-20.1362 214.328,-13.2537"/>
</g>
<!-- Node21&#45;&gt;Node20 -->
<g id="edge26" class="edge"><title>Node21&#45;&gt;Node20</title>
<path fill="none" stroke="midnightblue" d="M474,-112.083C474,-105.006 474,-94.8611 474,-85.9865"/>
<polygon fill="midnightblue" stroke="midnightblue" points="477.5,-85.751 474,-75.7511 470.5,-85.7511 477.5,-85.751"/>
</g>
<!-- Node22&#45;&gt;Node2 -->
<g id="edge29" class="edge"><title>Node22&#45;&gt;Node2</title>
<path fill="none" stroke="midnightblue" d="M141.5,-112.444C117.923,-103.478 80.6776,-89.314 54.036,-79.1827"/>
<polygon fill="midnightblue" stroke="midnightblue" points="54.9861,-75.7995 44.3951,-75.5164 52.4979,-82.3424 54.9861,-75.7995"/>
</g>
<!-- Node22&#45;&gt;Node14 -->
<g id="edge28" class="edge"><title>Node22&#45;&gt;Node14</title>
<path fill="none" stroke="midnightblue" d="M165.491,-112.368C168.557,-94.617 175.63,-53.6664 179.788,-29.5974"/>
<polygon fill="midnightblue" stroke="midnightblue" points="183.263,-30.0413 181.516,-19.5914 176.365,-28.8498 183.263,-30.0413"/>
</g>
<!-- Node22&#45;&gt;Node18 -->
<g id="edge30" class="edge"><title>Node22&#45;&gt;Node18</title>
<path fill="none" stroke="midnightblue" d="M156.404,-112.083C149.773,-104.298 139.979,-92.8015 131.942,-83.3665"/>
<polygon fill="midnightblue" stroke="midnightblue" points="134.604,-81.0939 125.455,-75.7511 129.275,-85.6332 134.604,-81.0939"/>
</g>
</g>
</svg>
        <g id="navigator" transform="translate(0 0)" fill="#404254">
                <rect fill="#f2f5e9" fill-opacity="0.5" stroke="#606060" stroke-width=".5" x="0" y="0" width="60" height="60"/>
                <use id="zoomplus" xlink:href="#zoomPlus" x="17" y="9" onmousedown="handleZoom(evt,'in')"/>
                <use id="zoomminus" xlink:href="#zoomMin" x="42" y="9" onmousedown="handleZoom(evt,'out')"/>
                <use id="reset" xlink:href="#resetDef" x="30" y="36" onmousedown="handleReset()"/>
                <g id="arrowUp" xlink:href="#dirArrow" transform="translate(30 24)" onmousedown="handlePan(0,-1)">
                  <use xlink:href="#rim" fill="#404040">
                        <set attributeName="fill" to="#808080" begin="arrowUp.mouseover" end="arrowUp.mouseout"/>
                  </use>
                  <path fill="none" stroke="white" stroke-width="1.5" d="M0,-3.0v7 M-2.5,-0.5L0,-3.0L2.5,-0.5"/>
                </g>
                <g id="arrowRight" xlink:href="#dirArrow" transform="rotate(90) translate(36 -43)" onmousedown="handlePan(1,0)">
                  <use xlink:href="#rim" fill="#404040">
                        <set attributeName="fill" to="#808080" begin="arrowRight.mouseover" end="arrowRight.mouseout"/>
                  </use>
                  <path fill="none" stroke="white" stroke-width="1.5" d="M0,-3.0v7 M-2.5,-0.5L0,-3.0L2.5,-0.5"/>
                </g>
                <g id="arrowDown" xlink:href="#dirArrow" transform="rotate(180) translate(-30 -48)" onmousedown="handlePan(0,1)">
                  <use xlink:href="#rim" fill="#404040">
                        <set attributeName="fill" to="#808080" begin="arrowDown.mouseover" end="arrowDown.mouseout"/>
                  </use>
                  <path fill="none" stroke="white" stroke-width="1.5" d="M0,-3.0v7 M-2.5,-0.5L0,-3.0L2.5,-0.5"/>
                </g>
                <g id="arrowLeft" xlink:href="#dirArrow" transform="rotate(270) translate(-36 17)" onmousedown="handlePan(-1,0)">
                  <use xlink:href="#rim" fill="#404040">
                        <set attributeName="fill" to="#808080" begin="arrowLeft.mouseover" end="arrowLeft.mouseout"/>
                  </use>
                  <path fill="none" stroke="white" stroke-width="1.5" d="M0,-3.0v7 M-2.5,-0.5L0,-3.0L2.5,-0.5"/>
                </g>
        </g>
        <svg viewBox="0 0 15 15" width="100%" height="30px" preserveAspectRatio="xMaxYMin meet">
         <g id="arrow_out" transform="scale(0.3 0.3)">
          <a xlink:href="includes_2_thread_pool_8hpp__incl_org.svg" target="_base">
           <rect id="button" ry="5" rx="5" y="6" x="6" height="38" width="38"
                fill="#f2f5e9" fill-opacity="0.5" stroke="#606060" stroke-width="1.0"/>
           <path id="arrow"
             d="M 11.500037,31.436501 C 11.940474,20.09759 22.043105,11.32322 32.158766,21.979434 L 37.068811,17.246167 C 37.068811,17.246167 37.088388,32 37.088388,32 L 22.160133,31.978069 C 22.160133,31.978069 26.997745,27.140456 26.997745,27.140456 C 18.528582,18.264221 13.291696,25.230495 11.500037,31.436501 z"
             style="fill:#404040;"/>
          </a>
         </g>
        </svg>
</svg>
