<?xml version="1.0" encoding="UTF-8" standalone="no"?>
<!DOCTYPE svg PUBLIC "-//W3C//DTD SVG 1.1//EN"
 "http://www.w3.org/Graphics/SVG/1.1/DTD/svg11.dtd">
<!-- Generated by graphviz version 2.38.0 (20140413.2041)
 -->
<!-- Title: /home/gogo/rendu/tek2/cpp_plazza/includes/Command.hpp Pages: 1 -->
<svg width="1265pt" height="518pt"
 viewBox="0.00 0.00 1264.50 518.00" xmlns="http://www.w3.org/2000/svg" xmlns:xlink="http://www.w3.org/1999/xlink">
<g id="graph0" class="graph" transform="scale(1 1) rotate(0) translate(4 514)">
<title>/home/gogo/rendu/tek2/cpp_plazza/includes/Command.hpp</title>
<!-- Node1 -->
<g id="node1" class="node"><title>Node1</title>
<polygon fill="#bfbfbf" stroke="black" points="517,-468.5 517,-509.5 633,-509.5 633,-468.5 517,-468.5"/>
<text text-anchor="start" x="525" y="-497.5" font-family="Helvetica,sans-Serif" font-size="10.00">/home/gogo/rendu/tek2</text>
<text text-anchor="start" x="525" y="-486.5" font-family="Helvetica,sans-Serif" font-size="10.00">/cpp_plazza/includes</text>
<text text-anchor="middle" x="575" y="-475.5" font-family="Helvetica,sans-Serif" font-size="10.00">/Command.hpp</text>
</g>
<!-- Node2 -->
<g id="node2" class="node"><title>Node2</title>
<g id="a_node2"><a xlink:href="gui_2sources_2_command_8cpp.html" target="_top" xlink:title="/home/gogo/rendu/tek2\l/cpp_plazza/gui/sources\l/Command.cpp">
<polygon fill="none" stroke="black" points="168,-390.5 168,-431.5 290,-431.5 290,-390.5 168,-390.5"/>
<text text-anchor="start" x="176" y="-419.5" font-family="Helvetica,sans-Serif" font-size="10.00">/home/gogo/rendu/tek2</text>
<text text-anchor="start" x="176" y="-408.5" font-family="Helvetica,sans-Serif" font-size="10.00">/cpp_plazza/gui/sources</text>
<text text-anchor="middle" x="229" y="-397.5" font-family="Helvetica,sans-Serif" font-size="10.00">/Command.cpp</text>
</a>
</g>
</g>
<!-- Node1&#45;&gt;Node2 -->
<g id="edge1" class="edge"><title>Node1&#45;&gt;Node2</title>
<path fill="none" stroke="midnightblue" d="M506.933,-475.048C451.984,-464.324 372.772,-448.261 304,-432 299.541,-430.946 294.944,-429.819 290.323,-428.657"/>
<polygon fill="midnightblue" stroke="midnightblue" points="506.419,-478.513 516.903,-476.987 507.755,-471.642 506.419,-478.513"/>
</g>
<!-- Node3 -->
<g id="node3" class="node"><title>Node3</title>
<g id="a_node3"><a xlink:href="gui_2sources_2_reception_8cpp.html" target="_top" xlink:title="/home/gogo/rendu/tek2\l/cpp_plazza/gui/sources\l/Reception.cpp">
<polygon fill="none" stroke="black" points="314,-0.5 314,-41.5 436,-41.5 436,-0.5 314,-0.5"/>
<text text-anchor="start" x="322" y="-29.5" font-family="Helvetica,sans-Serif" font-size="10.00">/home/gogo/rendu/tek2</text>
<text text-anchor="start" x="322" y="-18.5" font-family="Helvetica,sans-Serif" font-size="10.00">/cpp_plazza/gui/sources</text>
<text text-anchor="middle" x="375" y="-7.5" font-family="Helvetica,sans-Serif" font-size="10.00">/Reception.cpp</text>
</a>
</g>
</g>
<!-- Node1&#45;&gt;Node3 -->
<g id="edge2" class="edge"><title>Node1&#45;&gt;Node3</title>
<path fill="none" stroke="midnightblue" d="M506.661,-477.303C430.526,-461.044 318,-422.111 318,-334 318,-334 318,-334 318,-176 318,-131.633 319.974,-118.97 337,-78 342.41,-64.9803 351.098,-51.8619 358.802,-41.5981"/>
<polygon fill="midnightblue" stroke="midnightblue" points="506.183,-480.777 516.683,-479.358 507.59,-473.92 506.183,-480.777"/>
</g>
<!-- Node4 -->
<g id="node4" class="node"><title>Node4</title>
<g id="a_node4"><a xlink:href="includes_2_command_manager_8hpp.html" target="_top" xlink:title="/home/gogo/rendu/tek2\l/cpp_plazza/includes\l/CommandManager.hpp">
<polygon fill="none" stroke="black" points="346.5,-78.5 346.5,-119.5 467.5,-119.5 467.5,-78.5 346.5,-78.5"/>
<text text-anchor="start" x="354.5" y="-107.5" font-family="Helvetica,sans-Serif" font-size="10.00">/home/gogo/rendu/tek2</text>
<text text-anchor="start" x="354.5" y="-96.5" font-family="Helvetica,sans-Serif" font-size="10.00">/cpp_plazza/includes</text>
<text text-anchor="middle" x="407" y="-85.5" font-family="Helvetica,sans-Serif" font-size="10.00">/CommandManager.hpp</text>
</a>
</g>
</g>
<!-- Node1&#45;&gt;Node4 -->
<g id="edge3" class="edge"><title>Node1&#45;&gt;Node4</title>
<path fill="none" stroke="midnightblue" d="M518.753,-463.911C470.602,-439.068 409,-395.306 409,-334 409,-334 409,-334 409,-254 409,-205.871 408.011,-149.288 407.424,-119.934"/>
<polygon fill="midnightblue" stroke="midnightblue" points="517.366,-467.131 527.875,-468.478 520.5,-460.872 517.366,-467.131"/>
</g>
<!-- Node9 -->
<g id="node9" class="node"><title>Node9</title>
<g id="a_node9"><a xlink:href="sources_2_reception_8cpp.html" target="_top" xlink:title="/home/gogo/rendu/tek2\l/cpp_plazza/sources/Reception.cpp">
<polygon fill="none" stroke="black" points="762.5,-6 762.5,-36 935.5,-36 935.5,-6 762.5,-6"/>
<text text-anchor="start" x="770.5" y="-24" font-family="Helvetica,sans-Serif" font-size="10.00">/home/gogo/rendu/tek2</text>
<text text-anchor="middle" x="849" y="-13" font-family="Helvetica,sans-Serif" font-size="10.00">/cpp_plazza/sources/Reception.cpp</text>
</a>
</g>
</g>
<!-- Node1&#45;&gt;Node9 -->
<g id="edge34" class="edge"><title>Node1&#45;&gt;Node9</title>
<path fill="none" stroke="midnightblue" d="M643.435,-480.512C776.024,-464.094 1055,-419.402 1055,-334 1055,-334 1055,-334 1055,-176 1055,-99.1971 962.008,-56.08 900.982,-36.0535"/>
<polygon fill="midnightblue" stroke="midnightblue" points="642.881,-477.053 633.378,-481.738 643.728,-484.002 642.881,-477.053"/>
</g>
<!-- Node10 -->
<g id="node10" class="node"><title>Node10</title>
<g id="a_node10"><a xlink:href="includes_2_worker_8hpp.html" target="_top" xlink:title="/home/gogo/rendu/tek2\l/cpp_plazza/includes\l/Worker.hpp">
<polygon fill="none" stroke="black" points="622,-390.5 622,-431.5 738,-431.5 738,-390.5 622,-390.5"/>
<text text-anchor="start" x="630" y="-419.5" font-family="Helvetica,sans-Serif" font-size="10.00">/home/gogo/rendu/tek2</text>
<text text-anchor="start" x="630" y="-408.5" font-family="Helvetica,sans-Serif" font-size="10.00">/cpp_plazza/includes</text>
<text text-anchor="middle" x="680" y="-397.5" font-family="Helvetica,sans-Serif" font-size="10.00">/Worker.hpp</text>
</a>
</g>
</g>
<!-- Node1&#45;&gt;Node10 -->
<g id="edge10" class="edge"><title>Node1&#45;&gt;Node10</title>
<path fill="none" stroke="midnightblue" d="M610.437,-462.35C624.361,-452.272 640.082,-440.893 653.052,-431.506"/>
<polygon fill="midnightblue" stroke="midnightblue" points="608.089,-459.729 602.04,-468.428 612.193,-465.4 608.089,-459.729"/>
</g>
<!-- Node13 -->
<g id="node13" class="node"><title>Node13</title>
<g id="a_node13"><a xlink:href="includes_2_thread_pool_8hpp.html" target="_top" xlink:title="/home/gogo/rendu/tek2\l/cpp_plazza/includes\l/ThreadPool.hpp">
<polygon fill="none" stroke="black" points="517,-312.5 517,-353.5 633,-353.5 633,-312.5 517,-312.5"/>
<text text-anchor="start" x="525" y="-341.5" font-family="Helvetica,sans-Serif" font-size="10.00">/home/gogo/rendu/tek2</text>
<text text-anchor="start" x="525" y="-330.5" font-family="Helvetica,sans-Serif" font-size="10.00">/cpp_plazza/includes</text>
<text text-anchor="middle" x="575" y="-319.5" font-family="Helvetica,sans-Serif" font-size="10.00">/ThreadPool.hpp</text>
</a>
</g>
</g>
<!-- Node1&#45;&gt;Node13 -->
<g id="edge32" class="edge"><title>Node1&#45;&gt;Node13</title>
<path fill="none" stroke="midnightblue" d="M575,-458.365C575,-427.606 575,-380.358 575,-353.832"/>
<polygon fill="midnightblue" stroke="midnightblue" points="571.5,-458.496 575,-468.496 578.5,-458.496 571.5,-458.496"/>
</g>
<!-- Node23 -->
<g id="node23" class="node"><title>Node23</title>
<g id="a_node23"><a xlink:href="sources_2_command_8cpp.html" target="_top" xlink:title="/home/gogo/rendu/tek2\l/cpp_plazza/sources/Command.cpp">
<polygon fill="none" stroke="black" points="1083.5,-396 1083.5,-426 1256.5,-426 1256.5,-396 1083.5,-396"/>
<text text-anchor="start" x="1091.5" y="-414" font-family="Helvetica,sans-Serif" font-size="10.00">/home/gogo/rendu/tek2</text>
<text text-anchor="middle" x="1170" y="-403" font-family="Helvetica,sans-Serif" font-size="10.00">/cpp_plazza/sources/Command.cpp</text>
</a>
</g>
</g>
<!-- Node1&#45;&gt;Node23 -->
<g id="edge33" class="edge"><title>Node1&#45;&gt;Node23</title>
<path fill="none" stroke="midnightblue" d="M643.108,-482.074C738.604,-473.358 917.585,-455.533 1069,-432 1080.13,-430.271 1091.9,-428.181 1103.31,-426.013"/>
<polygon fill="midnightblue" stroke="midnightblue" points="642.65,-478.601 633.007,-482.991 643.283,-485.573 642.65,-478.601"/>
</g>
<!-- Node4&#45;&gt;Node3 -->
<g id="edge6" class="edge"><title>Node4&#45;&gt;Node3</title>
<path fill="none" stroke="midnightblue" d="M394.863,-69.1744C390.971,-59.9317 386.755,-49.9188 383.213,-41.5056"/>
<polygon fill="midnightblue" stroke="midnightblue" points="391.653,-70.57 398.759,-78.4281 398.104,-67.8535 391.653,-70.57"/>
</g>
<!-- Node5 -->
<g id="node5" class="node"><title>Node5</title>
<g id="a_node5"><a xlink:href="gui_2sources_2_command_manager_8cpp.html" target="_top" xlink:title="/home/gogo/rendu/tek2\l/cpp_plazza/gui/sources\l/CommandManager.cpp">
<polygon fill="none" stroke="black" points="0,-0.5 0,-41.5 122,-41.5 122,-0.5 0,-0.5"/>
<text text-anchor="start" x="8" y="-29.5" font-family="Helvetica,sans-Serif" font-size="10.00">/home/gogo/rendu/tek2</text>
<text text-anchor="start" x="8" y="-18.5" font-family="Helvetica,sans-Serif" font-size="10.00">/cpp_plazza/gui/sources</text>
<text text-anchor="middle" x="61" y="-7.5" font-family="Helvetica,sans-Serif" font-size="10.00">/CommandManager.cpp</text>
</a>
</g>
</g>
<!-- Node4&#45;&gt;Node5 -->
<g id="edge4" class="edge"><title>Node4&#45;&gt;Node5</title>
<path fill="none" stroke="midnightblue" d="M336.236,-85.219C280.279,-74.7333 200.312,-58.9059 131,-42 128.053,-41.2812 125.043,-40.5214 122.009,-39.7346"/>
<polygon fill="midnightblue" stroke="midnightblue" points="335.925,-88.7212 346.397,-87.1138 337.208,-81.8399 335.925,-88.7212"/>
</g>
<!-- Node6 -->
<g id="node6" class="node"><title>Node6</title>
<g id="a_node6"><a xlink:href="gui_2sources_2main_8cpp.html" target="_top" xlink:title="/home/gogo/rendu/tek2\l/cpp_plazza/gui/sources\l/main.cpp">
<polygon fill="none" stroke="black" points="622,-0.5 622,-41.5 744,-41.5 744,-0.5 622,-0.5"/>
<text text-anchor="start" x="630" y="-29.5" font-family="Helvetica,sans-Serif" font-size="10.00">/home/gogo/rendu/tek2</text>
<text text-anchor="start" x="630" y="-18.5" font-family="Helvetica,sans-Serif" font-size="10.00">/cpp_plazza/gui/sources</text>
<text text-anchor="middle" x="683" y="-7.5" font-family="Helvetica,sans-Serif" font-size="10.00">/main.cpp</text>
</a>
</g>
</g>
<!-- Node4&#45;&gt;Node6 -->
<g id="edge5" class="edge"><title>Node4&#45;&gt;Node6</title>
<path fill="none" stroke="midnightblue" d="M477.403,-78.9157C516.975,-68.1515 567.263,-54.4111 612,-42 615.208,-41.1099 618.497,-40.1943 621.818,-39.2676"/>
<polygon fill="midnightblue" stroke="midnightblue" points="476.314,-75.5846 467.582,-81.5856 478.15,-82.3394 476.314,-75.5846"/>
</g>
<!-- Node7 -->
<g id="node7" class="node"><title>Node7</title>
<g id="a_node7"><a xlink:href="sources_2_command_manager_8cpp.html" target="_top" xlink:title="/home/gogo/rendu/tek2\l/cpp_plazza/sources/Command\lManager.cpp">
<polygon fill="none" stroke="black" points="140.5,-0.5 140.5,-41.5 295.5,-41.5 295.5,-0.5 140.5,-0.5"/>
<text text-anchor="start" x="148.5" y="-29.5" font-family="Helvetica,sans-Serif" font-size="10.00">/home/gogo/rendu/tek2</text>
<text text-anchor="start" x="148.5" y="-18.5" font-family="Helvetica,sans-Serif" font-size="10.00">/cpp_plazza/sources/Command</text>
<text text-anchor="middle" x="218" y="-7.5" font-family="Helvetica,sans-Serif" font-size="10.00">Manager.cpp</text>
</a>
</g>
</g>
<!-- Node4&#45;&gt;Node7 -->
<g id="edge7" class="edge"><title>Node4&#45;&gt;Node7</title>
<path fill="none" stroke="midnightblue" d="M348.829,-74.6086C322.449,-64.0008 291.614,-51.6015 266.507,-41.5056"/>
<polygon fill="midnightblue" stroke="midnightblue" points="347.744,-77.9445 358.328,-78.4281 350.356,-71.4499 347.744,-77.9445"/>
</g>
<!-- Node8 -->
<g id="node8" class="node"><title>Node8</title>
<g id="a_node8"><a xlink:href="sources_2main_8cpp.html" target="_top" xlink:title="/home/gogo/rendu/tek2\l/cpp_plazza/sources/main.cpp">
<polygon fill="none" stroke="black" points="454.5,-6 454.5,-36 603.5,-36 603.5,-6 454.5,-6"/>
<text text-anchor="start" x="462.5" y="-24" font-family="Helvetica,sans-Serif" font-size="10.00">/home/gogo/rendu/tek2</text>
<text text-anchor="middle" x="529" y="-13" font-family="Helvetica,sans-Serif" font-size="10.00">/cpp_plazza/sources/main.cpp</text>
</a>
</g>
</g>
<!-- Node4&#45;&gt;Node8 -->
<g id="edge8" class="edge"><title>Node4&#45;&gt;Node8</title>
<path fill="none" stroke="midnightblue" d="M447.155,-72.9854C466.745,-60.782 489.595,-46.5476 506.165,-36.2254"/>
<polygon fill="midnightblue" stroke="midnightblue" points="445.055,-70.1699 438.418,-78.4281 448.756,-76.1113 445.055,-70.1699"/>
</g>
<!-- Node4&#45;&gt;Node9 -->
<g id="edge9" class="edge"><title>Node4&#45;&gt;Node9</title>
<path fill="none" stroke="midnightblue" d="M477.637,-84.5731C490.074,-82.3078 502.907,-80.0338 515,-78 620.499,-60.2575 647.705,-60.9168 753,-42 763.054,-40.1938 773.668,-38.1356 784.028,-36.0428"/>
<polygon fill="midnightblue" stroke="midnightblue" points="476.973,-81.1364 467.769,-86.3832 478.236,-88.0215 476.973,-81.1364"/>
</g>
<!-- Node11 -->
<g id="node11" class="node"><title>Node11</title>
<g id="a_node11"><a xlink:href="gui_2sources_2_thread_pool_8cpp.html" target="_top" xlink:title="/home/gogo/rendu/tek2\l/cpp_plazza/gui/sources\l/ThreadPool.cpp">
<polygon fill="none" stroke="black" points="689,-234.5 689,-275.5 811,-275.5 811,-234.5 689,-234.5"/>
<text text-anchor="start" x="697" y="-263.5" font-family="Helvetica,sans-Serif" font-size="10.00">/home/gogo/rendu/tek2</text>
<text text-anchor="start" x="697" y="-252.5" font-family="Helvetica,sans-Serif" font-size="10.00">/cpp_plazza/gui/sources</text>
<text text-anchor="middle" x="750" y="-241.5" font-family="Helvetica,sans-Serif" font-size="10.00">/ThreadPool.cpp</text>
</a>
</g>
</g>
<!-- Node10&#45;&gt;Node11 -->
<g id="edge11" class="edge"><title>Node10&#45;&gt;Node11</title>
<path fill="none" stroke="midnightblue" d="M675.624,-380.263C674.015,-360.008 674.649,-333.14 685,-312 692.205,-297.284 705.219,-284.876 717.72,-275.508"/>
<polygon fill="midnightblue" stroke="midnightblue" points="672.169,-380.878 676.666,-390.471 679.132,-380.167 672.169,-380.878"/>
</g>
<!-- Node12 -->
<g id="node12" class="node"><title>Node12</title>
<g id="a_node12"><a xlink:href="gui_2sources_2_worker_8cpp.html" target="_top" xlink:title="/home/gogo/rendu/tek2\l/cpp_plazza/gui/sources\l/Worker.cpp">
<polygon fill="none" stroke="black" points="727,-312.5 727,-353.5 849,-353.5 849,-312.5 727,-312.5"/>
<text text-anchor="start" x="735" y="-341.5" font-family="Helvetica,sans-Serif" font-size="10.00">/home/gogo/rendu/tek2</text>
<text text-anchor="start" x="735" y="-330.5" font-family="Helvetica,sans-Serif" font-size="10.00">/cpp_plazza/gui/sources</text>
<text text-anchor="middle" x="788" y="-319.5" font-family="Helvetica,sans-Serif" font-size="10.00">/Worker.cpp</text>
</a>
</g>
</g>
<!-- Node10&#45;&gt;Node12 -->
<g id="edge12" class="edge"><title>Node10&#45;&gt;Node12</title>
<path fill="none" stroke="midnightblue" d="M716.045,-384.635C730.466,-374.487 746.816,-362.982 760.282,-353.506"/>
<polygon fill="midnightblue" stroke="midnightblue" points="713.977,-381.811 707.813,-390.428 718.005,-387.535 713.977,-381.811"/>
</g>
<!-- Node10&#45;&gt;Node13 -->
<g id="edge13" class="edge"><title>Node10&#45;&gt;Node13</title>
<path fill="none" stroke="midnightblue" d="M644.563,-384.35C630.639,-374.272 614.918,-362.893 601.948,-353.506"/>
<polygon fill="midnightblue" stroke="midnightblue" points="642.807,-387.4 652.96,-390.428 646.911,-381.729 642.807,-387.4"/>
</g>
<!-- Node21 -->
<g id="node21" class="node"><title>Node21</title>
<g id="a_node21"><a xlink:href="sources_2_thread_pool_8cpp.html" target="_top" xlink:title="/home/gogo/rendu/tek2\l/cpp_plazza/sources/ThreadPool.cpp">
<polygon fill="none" stroke="black" points="829,-240 829,-270 1007,-270 1007,-240 829,-240"/>
<text text-anchor="start" x="837" y="-258" font-family="Helvetica,sans-Serif" font-size="10.00">/home/gogo/rendu/tek2</text>
<text text-anchor="middle" x="918" y="-247" font-family="Helvetica,sans-Serif" font-size="10.00">/cpp_plazza/sources/ThreadPool.cpp</text>
</a>
</g>
</g>
<!-- Node10&#45;&gt;Node21 -->
<g id="edge30" class="edge"><title>Node10&#45;&gt;Node21</title>
<path fill="none" stroke="midnightblue" d="M684.33,-380.059C689.015,-358.266 698.606,-329.6 718,-312 728.58,-302.398 802.726,-283.219 857.67,-270.003"/>
<polygon fill="midnightblue" stroke="midnightblue" points="680.845,-379.648 682.402,-390.127 687.72,-380.964 680.845,-379.648"/>
</g>
<!-- Node22 -->
<g id="node22" class="node"><title>Node22</title>
<g id="a_node22"><a xlink:href="sources_2_worker_8cpp.html" target="_top" xlink:title="/home/gogo/rendu/tek2\l/cpp_plazza/sources/Worker.cpp">
<polygon fill="none" stroke="black" points="867,-318 867,-348 1027,-348 1027,-318 867,-318"/>
<text text-anchor="start" x="875" y="-336" font-family="Helvetica,sans-Serif" font-size="10.00">/home/gogo/rendu/tek2</text>
<text text-anchor="middle" x="947" y="-325" font-family="Helvetica,sans-Serif" font-size="10.00">/cpp_plazza/sources/Worker.cpp</text>
</a>
</g>
</g>
<!-- Node10&#45;&gt;Node22 -->
<g id="edge31" class="edge"><title>Node10&#45;&gt;Node22</title>
<path fill="none" stroke="midnightblue" d="M748.011,-390.641C794.756,-377.335 855.74,-359.977 897.812,-348.001"/>
<polygon fill="midnightblue" stroke="midnightblue" points="746.924,-387.311 738.264,-393.415 748.841,-394.044 746.924,-387.311"/>
</g>
<!-- Node13&#45;&gt;Node6 -->
<g id="edge14" class="edge"><title>Node13&#45;&gt;Node6</title>
<path fill="none" stroke="midnightblue" d="M608.039,-305.926C619.121,-296.78 631.36,-286.231 642,-276 660.146,-258.553 657.709,-245.697 680,-234 734.185,-205.567 912.658,-244.011 953,-198 988.161,-157.898 987.191,-118.932 953,-78 924.19,-43.51 797.789,-52.104 754,-42 750.756,-41.2514 747.438,-40.4486 744.095,-39.6102"/>
<polygon fill="midnightblue" stroke="midnightblue" points="605.748,-303.278 600.214,-312.312 610.174,-308.701 605.748,-303.278"/>
</g>
<!-- Node13&#45;&gt;Node8 -->
<g id="edge28" class="edge"><title>Node13&#45;&gt;Node8</title>
<path fill="none" stroke="midnightblue" d="M534.45,-305.914C524.343,-297.533 514.537,-287.42 508,-276 461.95,-195.548 505.335,-76.6665 522.615,-36.1334"/>
<polygon fill="midnightblue" stroke="midnightblue" points="532.529,-308.855 542.564,-312.255 536.84,-303.339 532.529,-308.855"/>
</g>
<!-- Node13&#45;&gt;Node11 -->
<g id="edge15" class="edge"><title>Node13&#45;&gt;Node11</title>
<path fill="none" stroke="midnightblue" d="M629.505,-308.329C653.788,-297.783 682.043,-285.513 705.086,-275.506"/>
<polygon fill="midnightblue" stroke="midnightblue" points="627.845,-305.234 620.067,-312.428 630.633,-311.655 627.845,-305.234"/>
</g>
<!-- Node14 -->
<g id="node14" class="node"><title>Node14</title>
<g id="a_node14"><a xlink:href="includes_2_office_8hpp.html" target="_top" xlink:title="/home/gogo/rendu/tek2\l/cpp_plazza/includes\l/Office.hpp">
<polygon fill="none" stroke="black" points="517,-234.5 517,-275.5 633,-275.5 633,-234.5 517,-234.5"/>
<text text-anchor="start" x="525" y="-263.5" font-family="Helvetica,sans-Serif" font-size="10.00">/home/gogo/rendu/tek2</text>
<text text-anchor="start" x="525" y="-252.5" font-family="Helvetica,sans-Serif" font-size="10.00">/cpp_plazza/includes</text>
<text text-anchor="middle" x="575" y="-241.5" font-family="Helvetica,sans-Serif" font-size="10.00">/Office.hpp</text>
</a>
</g>
</g>
<!-- Node13&#45;&gt;Node14 -->
<g id="edge16" class="edge"><title>Node13&#45;&gt;Node14</title>
<path fill="none" stroke="midnightblue" d="M575,-302.297C575,-293.301 575,-283.653 575,-275.506"/>
<polygon fill="midnightblue" stroke="midnightblue" points="571.5,-302.428 575,-312.428 578.5,-302.428 571.5,-302.428"/>
</g>
<!-- Node13&#45;&gt;Node21 -->
<g id="edge29" class="edge"><title>Node13&#45;&gt;Node21</title>
<path fill="none" stroke="midnightblue" d="M643.19,-316.891C704.728,-303.256 794.554,-283.352 854.575,-270.053"/>
<polygon fill="midnightblue" stroke="midnightblue" points="642.191,-313.527 633.185,-319.108 643.706,-320.361 642.191,-313.527"/>
</g>
<!-- Node15 -->
<g id="node15" class="node"><title>Node15</title>
<g id="a_node15"><a xlink:href="gui_2sources_2_office_8cpp.html" target="_top" xlink:title="/home/gogo/rendu/tek2\l/cpp_plazza/gui/sources\l/Office.cpp">
<polygon fill="none" stroke="black" points="514,-156.5 514,-197.5 636,-197.5 636,-156.5 514,-156.5"/>
<text text-anchor="start" x="522" y="-185.5" font-family="Helvetica,sans-Serif" font-size="10.00">/home/gogo/rendu/tek2</text>
<text text-anchor="start" x="522" y="-174.5" font-family="Helvetica,sans-Serif" font-size="10.00">/cpp_plazza/gui/sources</text>
<text text-anchor="middle" x="575" y="-163.5" font-family="Helvetica,sans-Serif" font-size="10.00">/Office.cpp</text>
</a>
</g>
</g>
<!-- Node14&#45;&gt;Node15 -->
<g id="edge17" class="edge"><title>Node14&#45;&gt;Node15</title>
<path fill="none" stroke="midnightblue" d="M575,-224.297C575,-215.301 575,-205.653 575,-197.506"/>
<polygon fill="midnightblue" stroke="midnightblue" points="571.5,-224.428 575,-234.428 578.5,-224.428 571.5,-224.428"/>
</g>
<!-- Node16 -->
<g id="node16" class="node"><title>Node16</title>
<g id="a_node16"><a xlink:href="includes_2_process_manager_8hpp.html" target="_top" xlink:title="/home/gogo/rendu/tek2\l/cpp_plazza/includes\l/ProcessManager.hpp">
<polygon fill="none" stroke="black" points="828,-156.5 828,-197.5 944,-197.5 944,-156.5 828,-156.5"/>
<text text-anchor="start" x="836" y="-185.5" font-family="Helvetica,sans-Serif" font-size="10.00">/home/gogo/rendu/tek2</text>
<text text-anchor="start" x="836" y="-174.5" font-family="Helvetica,sans-Serif" font-size="10.00">/cpp_plazza/includes</text>
<text text-anchor="middle" x="886" y="-163.5" font-family="Helvetica,sans-Serif" font-size="10.00">/ProcessManager.hpp</text>
</a>
</g>
</g>
<!-- Node14&#45;&gt;Node16 -->
<g id="edge18" class="edge"><title>Node14&#45;&gt;Node16</title>
<path fill="none" stroke="midnightblue" d="M643.139,-234.951C644.436,-234.628 645.724,-234.31 647,-234 722.888,-215.539 743.292,-217.187 819,-198 821.942,-197.254 824.948,-196.464 827.978,-195.644"/>
<polygon fill="midnightblue" stroke="midnightblue" points="641.897,-231.655 633.075,-237.521 643.63,-238.438 641.897,-231.655"/>
</g>
<!-- Node18 -->
<g id="node18" class="node"><title>Node18</title>
<g id="a_node18"><a xlink:href="includes_2_reception_8hpp.html" target="_top" xlink:title="/home/gogo/rendu/tek2\l/cpp_plazza/includes\l/Reception.hpp">
<polygon fill="none" stroke="black" points="524,-78.5 524,-119.5 640,-119.5 640,-78.5 524,-78.5"/>
<text text-anchor="start" x="532" y="-107.5" font-family="Helvetica,sans-Serif" font-size="10.00">/home/gogo/rendu/tek2</text>
<text text-anchor="start" x="532" y="-96.5" font-family="Helvetica,sans-Serif" font-size="10.00">/cpp_plazza/includes</text>
<text text-anchor="middle" x="582" y="-85.5" font-family="Helvetica,sans-Serif" font-size="10.00">/Reception.hpp</text>
</a>
</g>
</g>
<!-- Node14&#45;&gt;Node18 -->
<g id="edge26" class="edge"><title>Node14&#45;&gt;Node18</title>
<path fill="none" stroke="midnightblue" d="M530.49,-228.214C520.244,-219.965 510.692,-209.843 505,-198 496.914,-181.176 496.529,-172.634 505,-156 512.801,-140.681 526.971,-128.567 541.049,-119.581"/>
<polygon fill="midnightblue" stroke="midnightblue" points="528.691,-231.239 538.795,-234.425 532.882,-225.633 528.691,-231.239"/>
</g>
<!-- Node20 -->
<g id="node20" class="node"><title>Node20</title>
<g id="a_node20"><a xlink:href="sources_2_office_8cpp.html" target="_top" xlink:title="/home/gogo/rendu/tek2\l/cpp_plazza/sources/Office.cpp">
<polygon fill="none" stroke="black" points="654.5,-162 654.5,-192 809.5,-192 809.5,-162 654.5,-162"/>
<text text-anchor="start" x="662.5" y="-180" font-family="Helvetica,sans-Serif" font-size="10.00">/home/gogo/rendu/tek2</text>
<text text-anchor="middle" x="732" y="-169" font-family="Helvetica,sans-Serif" font-size="10.00">/cpp_plazza/sources/Office.cpp</text>
</a>
</g>
</g>
<!-- Node14&#45;&gt;Node20 -->
<g id="edge27" class="edge"><title>Node14&#45;&gt;Node20</title>
<path fill="none" stroke="midnightblue" d="M624.64,-229.97C650.289,-217.554 680.713,-202.827 702.613,-192.225"/>
<polygon fill="midnightblue" stroke="midnightblue" points="622.907,-226.921 615.431,-234.428 625.957,-233.221 622.907,-226.921"/>
</g>
<!-- Node17 -->
<g id="node17" class="node"><title>Node17</title>
<g id="a_node17"><a xlink:href="gui_2sources_2_process_manager_8cpp.html" target="_top" xlink:title="/home/gogo/rendu/tek2\l/cpp_plazza/gui/sources\l/ProcessManager.cpp">
<polygon fill="none" stroke="black" points="658,-78.5 658,-119.5 780,-119.5 780,-78.5 658,-78.5"/>
<text text-anchor="start" x="666" y="-107.5" font-family="Helvetica,sans-Serif" font-size="10.00">/home/gogo/rendu/tek2</text>
<text text-anchor="start" x="666" y="-96.5" font-family="Helvetica,sans-Serif" font-size="10.00">/cpp_plazza/gui/sources</text>
<text text-anchor="middle" x="719" y="-85.5" font-family="Helvetica,sans-Serif" font-size="10.00">/ProcessManager.cpp</text>
</a>
</g>
</g>
<!-- Node16&#45;&gt;Node17 -->
<g id="edge19" class="edge"><title>Node16&#45;&gt;Node17</title>
<path fill="none" stroke="midnightblue" d="M833.678,-152.189C810.575,-141.675 783.754,-129.469 761.861,-119.506"/>
<polygon fill="midnightblue" stroke="midnightblue" points="832.442,-155.472 842.993,-156.428 835.341,-149.1 832.442,-155.472"/>
</g>
<!-- Node16&#45;&gt;Node18 -->
<g id="edge20" class="edge"><title>Node16&#45;&gt;Node18</title>
<path fill="none" stroke="midnightblue" d="M817.975,-155.844C742.4,-137.077 720.772,-138.279 649,-120 646.059,-119.251 643.054,-118.458 640.024,-117.635"/>
<polygon fill="midnightblue" stroke="midnightblue" points="817.424,-159.314 827.976,-158.365 819.134,-152.527 817.424,-159.314"/>
</g>
<!-- Node19 -->
<g id="node19" class="node"><title>Node19</title>
<g id="a_node19"><a xlink:href="sources_2_process_manager_8cpp.html" target="_top" xlink:title="/home/gogo/rendu/tek2\l/cpp_plazza/sources/Process\lManager.cpp">
<polygon fill="none" stroke="black" points="798,-78.5 798,-119.5 944,-119.5 944,-78.5 798,-78.5"/>
<text text-anchor="start" x="806" y="-107.5" font-family="Helvetica,sans-Serif" font-size="10.00">/home/gogo/rendu/tek2</text>
<text text-anchor="start" x="806" y="-96.5" font-family="Helvetica,sans-Serif" font-size="10.00">/cpp_plazza/sources/Process</text>
<text text-anchor="middle" x="871" y="-85.5" font-family="Helvetica,sans-Serif" font-size="10.00">Manager.cpp</text>
</a>
</g>
</g>
<!-- Node16&#45;&gt;Node19 -->
<g id="edge25" class="edge"><title>Node16&#45;&gt;Node19</title>
<path fill="none" stroke="midnightblue" d="M880.195,-146.59C878.403,-137.511 876.475,-127.742 874.85,-119.506"/>
<polygon fill="midnightblue" stroke="midnightblue" points="876.767,-147.295 882.137,-156.428 883.634,-145.94 876.767,-147.295"/>
</g>
<!-- Node18&#45;&gt;Node3 -->
<g id="edge22" class="edge"><title>Node18&#45;&gt;Node3</title>
<path fill="none" stroke="midnightblue" d="M519.048,-74.8874C489.99,-64.2185 455.866,-51.6901 428.127,-41.5056"/>
<polygon fill="midnightblue" stroke="midnightblue" points="518.099,-78.2671 528.692,-78.4281 520.511,-71.6959 518.099,-78.2671"/>
</g>
<!-- Node18&#45;&gt;Node6 -->
<g id="edge21" class="edge"><title>Node18&#45;&gt;Node6</title>
<path fill="none" stroke="midnightblue" d="M616.087,-72.3503C629.481,-62.2719 644.603,-50.893 657.078,-41.5056"/>
<polygon fill="midnightblue" stroke="midnightblue" points="613.896,-69.6187 608.01,-78.4281 618.105,-75.2121 613.896,-69.6187"/>
</g>
<!-- Node18&#45;&gt;Node8 -->
<g id="edge23" class="edge"><title>Node18&#45;&gt;Node8</title>
<path fill="none" stroke="midnightblue" d="M562.46,-69.9801C554.454,-58.4994 545.535,-45.7107 538.92,-36.2254"/>
<polygon fill="midnightblue" stroke="midnightblue" points="559.76,-72.2277 568.351,-78.4281 565.502,-68.2236 559.76,-72.2277"/>
</g>
<!-- Node18&#45;&gt;Node9 -->
<g id="edge24" class="edge"><title>Node18&#45;&gt;Node9</title>
<path fill="none" stroke="midnightblue" d="M649.83,-77.7794C705.856,-61.6208 759.723,-46.6041 797.966,-36.031"/>
<polygon fill="midnightblue" stroke="midnightblue" points="648.722,-74.4561 640.087,-80.5946 650.665,-81.181 648.722,-74.4561"/>
</g>
</g>
</svg>
