<?xml version="1.0" encoding="UTF-8" standalone="no"?>
<!DOCTYPE svg PUBLIC "-//W3C//DTD SVG 1.1//EN"
 "http://www.w3.org/Graphics/SVG/1.1/DTD/svg11.dtd">
<!-- Generated by graphviz version 2.38.0 (20140413.2041)
 -->
<!-- Title: /home/gogo/rendu/tek2/cpp_plazza/includes/CommandManager.hpp Pages: 1 -->
<svg width="942pt" height="128pt"
 viewBox="0.00 0.00 941.50 128.00" xmlns="http://www.w3.org/2000/svg" xmlns:xlink="http://www.w3.org/1999/xlink">
<g id="graph0" class="graph" transform="scale(1 1) rotate(0) translate(4 124)">
<title>/home/gogo/rendu/tek2/cpp_plazza/includes/CommandManager.hpp</title>
<!-- Node1 -->
<g id="node1" class="node"><title>Node1</title>
<polygon fill="#bfbfbf" stroke="black" points="358.5,-78.5 358.5,-119.5 479.5,-119.5 479.5,-78.5 358.5,-78.5"/>
<text text-anchor="start" x="366.5" y="-107.5" font-family="Helvetica,sans-Serif" font-size="10.00">/home/gogo/rendu/tek2</text>
<text text-anchor="start" x="366.5" y="-96.5" font-family="Helvetica,sans-Serif" font-size="10.00">/cpp_plazza/includes</text>
<text text-anchor="middle" x="419" y="-85.5" font-family="Helvetica,sans-Serif" font-size="10.00">/CommandManager.hpp</text>
</g>
<!-- Node2 -->
<g id="node2" class="node"><title>Node2</title>
<g id="a_node2"><a xlink:href="gui_2sources_2_command_manager_8cpp.html" target="_top" xlink:title="/home/gogo/rendu/tek2\l/cpp_plazza/gui/sources\l/CommandManager.cpp">
<polygon fill="none" stroke="black" points="0,-0.5 0,-41.5 122,-41.5 122,-0.5 0,-0.5"/>
<text text-anchor="start" x="8" y="-29.5" font-family="Helvetica,sans-Serif" font-size="10.00">/home/gogo/rendu/tek2</text>
<text text-anchor="start" x="8" y="-18.5" font-family="Helvetica,sans-Serif" font-size="10.00">/cpp_plazza/gui/sources</text>
<text text-anchor="middle" x="61" y="-7.5" font-family="Helvetica,sans-Serif" font-size="10.00">/CommandManager.cpp</text>
</a>
</g>
</g>
<!-- Node1&#45;&gt;Node2 -->
<g id="edge1" class="edge"><title>Node1&#45;&gt;Node2</title>
<path fill="none" stroke="midnightblue" d="M348.388,-86.0242C289.859,-75.6783 204.633,-59.643 131,-42 128.05,-41.2932 125.038,-40.5431 122.002,-39.7641"/>
<polygon fill="midnightblue" stroke="midnightblue" points="347.816,-89.4772 358.271,-87.7619 349.028,-82.5829 347.816,-89.4772"/>
</g>
<!-- Node3 -->
<g id="node3" class="node"><title>Node3</title>
<g id="a_node3"><a xlink:href="gui_2sources_2main_8cpp.html" target="_top" xlink:title="/home/gogo/rendu/tek2\l/cpp_plazza/gui/sources\l/main.cpp">
<polygon fill="none" stroke="black" points="140,-0.5 140,-41.5 262,-41.5 262,-0.5 140,-0.5"/>
<text text-anchor="start" x="148" y="-29.5" font-family="Helvetica,sans-Serif" font-size="10.00">/home/gogo/rendu/tek2</text>
<text text-anchor="start" x="148" y="-18.5" font-family="Helvetica,sans-Serif" font-size="10.00">/cpp_plazza/gui/sources</text>
<text text-anchor="middle" x="201" y="-7.5" font-family="Helvetica,sans-Serif" font-size="10.00">/main.cpp</text>
</a>
</g>
</g>
<!-- Node1&#45;&gt;Node3 -->
<g id="edge2" class="edge"><title>Node1&#45;&gt;Node3</title>
<path fill="none" stroke="midnightblue" d="M353.102,-75.0264C322.413,-64.3275 286.291,-51.7343 256.95,-41.5056"/>
<polygon fill="midnightblue" stroke="midnightblue" points="352.265,-78.441 362.86,-78.4281 354.569,-71.8312 352.265,-78.441"/>
</g>
<!-- Node4 -->
<g id="node4" class="node"><title>Node4</title>
<g id="a_node4"><a xlink:href="gui_2sources_2_reception_8cpp.html" target="_top" xlink:title="/home/gogo/rendu/tek2\l/cpp_plazza/gui/sources\l/Reception.cpp">
<polygon fill="none" stroke="black" points="280,-0.5 280,-41.5 402,-41.5 402,-0.5 280,-0.5"/>
<text text-anchor="start" x="288" y="-29.5" font-family="Helvetica,sans-Serif" font-size="10.00">/home/gogo/rendu/tek2</text>
<text text-anchor="start" x="288" y="-18.5" font-family="Helvetica,sans-Serif" font-size="10.00">/cpp_plazza/gui/sources</text>
<text text-anchor="middle" x="341" y="-7.5" font-family="Helvetica,sans-Serif" font-size="10.00">/Reception.cpp</text>
</a>
</g>
</g>
<!-- Node1&#45;&gt;Node4 -->
<g id="edge3" class="edge"><title>Node1&#45;&gt;Node4</title>
<path fill="none" stroke="midnightblue" d="M391.499,-71.204C381.453,-61.416 370.29,-50.5388 361.019,-41.5056"/>
<polygon fill="midnightblue" stroke="midnightblue" points="389.308,-73.9562 398.913,-78.4281 394.193,-68.9426 389.308,-73.9562"/>
</g>
<!-- Node5 -->
<g id="node5" class="node"><title>Node5</title>
<g id="a_node5"><a xlink:href="sources_2_command_manager_8cpp.html" target="_top" xlink:title="/home/gogo/rendu/tek2\l/cpp_plazza/sources/Command\lManager.cpp">
<polygon fill="none" stroke="black" points="420.5,-0.5 420.5,-41.5 575.5,-41.5 575.5,-0.5 420.5,-0.5"/>
<text text-anchor="start" x="428.5" y="-29.5" font-family="Helvetica,sans-Serif" font-size="10.00">/home/gogo/rendu/tek2</text>
<text text-anchor="start" x="428.5" y="-18.5" font-family="Helvetica,sans-Serif" font-size="10.00">/cpp_plazza/sources/Command</text>
<text text-anchor="middle" x="498" y="-7.5" font-family="Helvetica,sans-Serif" font-size="10.00">Manager.cpp</text>
</a>
</g>
</g>
<!-- Node1&#45;&gt;Node5 -->
<g id="edge4" class="edge"><title>Node1&#45;&gt;Node5</title>
<path fill="none" stroke="midnightblue" d="M446.555,-71.4916C456.806,-61.6294 468.243,-50.6273 477.724,-41.5056"/>
<polygon fill="midnightblue" stroke="midnightblue" points="444.125,-68.9729 439.344,-78.4281 448.978,-74.0175 444.125,-68.9729"/>
</g>
<!-- Node6 -->
<g id="node6" class="node"><title>Node6</title>
<g id="a_node6"><a xlink:href="sources_2main_8cpp.html" target="_top" xlink:title="/home/gogo/rendu/tek2\l/cpp_plazza/sources/main.cpp">
<polygon fill="none" stroke="black" points="593.5,-6 593.5,-36 742.5,-36 742.5,-6 593.5,-6"/>
<text text-anchor="start" x="601.5" y="-24" font-family="Helvetica,sans-Serif" font-size="10.00">/home/gogo/rendu/tek2</text>
<text text-anchor="middle" x="668" y="-13" font-family="Helvetica,sans-Serif" font-size="10.00">/cpp_plazza/sources/main.cpp</text>
</a>
</g>
</g>
<!-- Node1&#45;&gt;Node6 -->
<g id="edge5" class="edge"><title>Node1&#45;&gt;Node6</title>
<path fill="none" stroke="midnightblue" d="M489.328,-76.5344C531.853,-63.5551 584.851,-47.3787 622.043,-36.0269"/>
<polygon fill="midnightblue" stroke="midnightblue" points="488.136,-73.2386 479.594,-79.5055 490.18,-79.9337 488.136,-73.2386"/>
</g>
<!-- Node7 -->
<g id="node7" class="node"><title>Node7</title>
<g id="a_node7"><a xlink:href="sources_2_reception_8cpp.html" target="_top" xlink:title="/home/gogo/rendu/tek2\l/cpp_plazza/sources/Reception.cpp">
<polygon fill="none" stroke="black" points="760.5,-6 760.5,-36 933.5,-36 933.5,-6 760.5,-6"/>
<text text-anchor="start" x="768.5" y="-24" font-family="Helvetica,sans-Serif" font-size="10.00">/home/gogo/rendu/tek2</text>
<text text-anchor="middle" x="847" y="-13" font-family="Helvetica,sans-Serif" font-size="10.00">/cpp_plazza/sources/Reception.cpp</text>
</a>
</g>
</g>
<!-- Node1&#45;&gt;Node7 -->
<g id="edge6" class="edge"><title>Node1&#45;&gt;Node7</title>
<path fill="none" stroke="midnightblue" d="M489.69,-86.9716C557.201,-76.2362 661.735,-59.084 752,-42 761.771,-40.1507 772.084,-38.0916 782.17,-36.0174"/>
<polygon fill="midnightblue" stroke="midnightblue" points="488.921,-83.5498 479.593,-88.5733 490.018,-90.4633 488.921,-83.5498"/>
</g>
</g>
</svg>
