<?xml version="1.0" encoding="UTF-8" standalone="no"?>
<!DOCTYPE svg PUBLIC "-//W3C//DTD SVG 1.1//EN"
 "http://www.w3.org/Graphics/SVG/1.1/DTD/svg11.dtd">
<!-- Generated by graphviz version 2.38.0 (20140413.2041)
 -->
<!-- Title: /home/gogo/rendu/tek2/cpp_plazza/includes/Thread.hpp Pages: 1 -->
<svg width="1053pt" height="518pt"
 viewBox="0.00 0.00 1053.00 518.00" xmlns="http://www.w3.org/2000/svg" xmlns:xlink="http://www.w3.org/1999/xlink">
<g id="graph0" class="graph" transform="scale(1 1) rotate(0) translate(4 514)">
<title>/home/gogo/rendu/tek2/cpp_plazza/includes/Thread.hpp</title>
<!-- Node1 -->
<g id="node1" class="node"><title>Node1</title>
<polygon fill="#bfbfbf" stroke="black" points="367,-468.5 367,-509.5 483,-509.5 483,-468.5 367,-468.5"/>
<text text-anchor="start" x="375" y="-497.5" font-family="Helvetica,sans-Serif" font-size="10.00">/home/gogo/rendu/tek2</text>
<text text-anchor="start" x="375" y="-486.5" font-family="Helvetica,sans-Serif" font-size="10.00">/cpp_plazza/includes</text>
<text text-anchor="middle" x="425" y="-475.5" font-family="Helvetica,sans-Serif" font-size="10.00">/Thread.hpp</text>
</g>
<!-- Node2 -->
<g id="node2" class="node"><title>Node2</title>
<g id="a_node2"><a xlink:href="gui_2sources_2main_8cpp.html" target="_top" xlink:title="/home/gogo/rendu/tek2\l/cpp_plazza/gui/sources\l/main.cpp">
<polygon fill="none" stroke="black" points="230,-0.5 230,-41.5 352,-41.5 352,-0.5 230,-0.5"/>
<text text-anchor="start" x="238" y="-29.5" font-family="Helvetica,sans-Serif" font-size="10.00">/home/gogo/rendu/tek2</text>
<text text-anchor="start" x="238" y="-18.5" font-family="Helvetica,sans-Serif" font-size="10.00">/cpp_plazza/gui/sources</text>
<text text-anchor="middle" x="291" y="-7.5" font-family="Helvetica,sans-Serif" font-size="10.00">/main.cpp</text>
</a>
</g>
</g>
<!-- Node1&#45;&gt;Node2 -->
<g id="edge1" class="edge"><title>Node1&#45;&gt;Node2</title>
<path fill="none" stroke="midnightblue" d="M356.594,-477.732C236.418,-457.751 0,-408.922 0,-334 0,-334 0,-334 0,-176 0,-72.8276 144.666,-38.5856 229.997,-27.362"/>
<polygon fill="midnightblue" stroke="midnightblue" points="356.362,-481.241 366.797,-479.406 357.495,-474.333 356.362,-481.241"/>
</g>
<!-- Node3 -->
<g id="node3" class="node"><title>Node3</title>
<g id="a_node3"><a xlink:href="gui_2sources_2_thread_8cpp.html" target="_top" xlink:title="/home/gogo/rendu/tek2\l/cpp_plazza/gui/sources\l/Thread.cpp">
<polygon fill="none" stroke="black" points="167,-390.5 167,-431.5 289,-431.5 289,-390.5 167,-390.5"/>
<text text-anchor="start" x="175" y="-419.5" font-family="Helvetica,sans-Serif" font-size="10.00">/home/gogo/rendu/tek2</text>
<text text-anchor="start" x="175" y="-408.5" font-family="Helvetica,sans-Serif" font-size="10.00">/cpp_plazza/gui/sources</text>
<text text-anchor="middle" x="228" y="-397.5" font-family="Helvetica,sans-Serif" font-size="10.00">/Thread.cpp</text>
</a>
</g>
</g>
<!-- Node1&#45;&gt;Node3 -->
<g id="edge2" class="edge"><title>Node1&#45;&gt;Node3</title>
<path fill="none" stroke="midnightblue" d="M364.729,-464.748C337.153,-454.11 304.845,-441.646 278.56,-431.506"/>
<polygon fill="midnightblue" stroke="midnightblue" points="363.678,-468.094 374.268,-468.428 366.198,-461.563 363.678,-468.094"/>
</g>
<!-- Node4 -->
<g id="node4" class="node"><title>Node4</title>
<g id="a_node4"><a xlink:href="includes_2_thread_pool_8hpp.html" target="_top" xlink:title="/home/gogo/rendu/tek2\l/cpp_plazza/includes\l/ThreadPool.hpp">
<polygon fill="none" stroke="black" points="463,-312.5 463,-353.5 579,-353.5 579,-312.5 463,-312.5"/>
<text text-anchor="start" x="471" y="-341.5" font-family="Helvetica,sans-Serif" font-size="10.00">/home/gogo/rendu/tek2</text>
<text text-anchor="start" x="471" y="-330.5" font-family="Helvetica,sans-Serif" font-size="10.00">/cpp_plazza/includes</text>
<text text-anchor="middle" x="521" y="-319.5" font-family="Helvetica,sans-Serif" font-size="10.00">/ThreadPool.hpp</text>
</a>
</g>
</g>
<!-- Node1&#45;&gt;Node4 -->
<g id="edge3" class="edge"><title>Node1&#45;&gt;Node4</title>
<path fill="none" stroke="midnightblue" d="M442.479,-459.961C461.616,-429.263 491.813,-380.821 508.637,-353.832"/>
<polygon fill="midnightblue" stroke="midnightblue" points="439.478,-458.158 437.158,-468.496 445.419,-461.861 439.478,-458.158"/>
</g>
<!-- Node12 -->
<g id="node12" class="node"><title>Node12</title>
<g id="a_node12"><a xlink:href="sources_2main_8cpp.html" target="_top" xlink:title="/home/gogo/rendu/tek2\l/cpp_plazza/sources/main.cpp">
<polygon fill="none" stroke="black" points="746.5,-6 746.5,-36 895.5,-36 895.5,-6 746.5,-6"/>
<text text-anchor="start" x="754.5" y="-24" font-family="Helvetica,sans-Serif" font-size="10.00">/home/gogo/rendu/tek2</text>
<text text-anchor="middle" x="821" y="-13" font-family="Helvetica,sans-Serif" font-size="10.00">/cpp_plazza/sources/main.cpp</text>
</a>
</g>
</g>
<!-- Node1&#45;&gt;Node12 -->
<g id="edge26" class="edge"><title>Node1&#45;&gt;Node12</title>
<path fill="none" stroke="midnightblue" d="M493.086,-478.285C615.24,-458.929 859,-410.695 859,-334 859,-334 859,-334 859,-176 859,-131.794 853.589,-120.66 842,-78 838.026,-63.3706 831.754,-47.2135 827.098,-36.0295"/>
<polygon fill="midnightblue" stroke="midnightblue" points="492.42,-474.847 483.081,-479.849 493.501,-481.763 492.42,-474.847"/>
</g>
<!-- Node17 -->
<g id="node17" class="node"><title>Node17</title>
<g id="a_node17"><a xlink:href="includes_2_worker_8hpp.html" target="_top" xlink:title="/home/gogo/rendu/tek2\l/cpp_plazza/includes\l/Worker.hpp">
<polygon fill="none" stroke="black" points="307,-390.5 307,-431.5 423,-431.5 423,-390.5 307,-390.5"/>
<text text-anchor="start" x="315" y="-419.5" font-family="Helvetica,sans-Serif" font-size="10.00">/home/gogo/rendu/tek2</text>
<text text-anchor="start" x="315" y="-408.5" font-family="Helvetica,sans-Serif" font-size="10.00">/cpp_plazza/includes</text>
<text text-anchor="middle" x="365" y="-397.5" font-family="Helvetica,sans-Serif" font-size="10.00">/Worker.hpp</text>
</a>
</g>
</g>
<!-- Node1&#45;&gt;Node17 -->
<g id="edge20" class="edge"><title>Node1&#45;&gt;Node17</title>
<path fill="none" stroke="midnightblue" d="M403.161,-460.338C395.614,-450.778 387.321,-440.273 380.399,-431.506"/>
<polygon fill="midnightblue" stroke="midnightblue" points="400.605,-462.748 409.549,-468.428 406.099,-458.41 400.605,-462.748"/>
</g>
<!-- Node20 -->
<g id="node20" class="node"><title>Node20</title>
<g id="a_node20"><a xlink:href="sources_2_thread_8cpp.html" target="_top" xlink:title="/home/gogo/rendu/tek2\l/cpp_plazza/sources/Thread.cpp">
<polygon fill="none" stroke="black" points="887,-396 887,-426 1045,-426 1045,-396 887,-396"/>
<text text-anchor="start" x="895" y="-414" font-family="Helvetica,sans-Serif" font-size="10.00">/home/gogo/rendu/tek2</text>
<text text-anchor="middle" x="966" y="-403" font-family="Helvetica,sans-Serif" font-size="10.00">/cpp_plazza/sources/Thread.cpp</text>
</a>
</g>
</g>
<!-- Node1&#45;&gt;Node20 -->
<g id="edge27" class="edge"><title>Node1&#45;&gt;Node20</title>
<path fill="none" stroke="midnightblue" d="M493.361,-481.334C581.453,-472.314 739.197,-454.705 873,-432 883.176,-430.273 893.927,-428.197 904.365,-426.046"/>
<polygon fill="midnightblue" stroke="midnightblue" points="492.825,-477.871 483.23,-482.365 493.533,-484.835 492.825,-477.871"/>
</g>
<!-- Node4&#45;&gt;Node2 -->
<g id="edge4" class="edge"><title>Node4&#45;&gt;Node2</title>
<path fill="none" stroke="midnightblue" d="M472.96,-307.333C432.634,-284.262 376.406,-246.166 343,-198 308.682,-148.518 296.693,-76.169 292.769,-41.688"/>
<polygon fill="midnightblue" stroke="midnightblue" points="471.387,-310.464 481.82,-312.308 474.814,-304.36 471.387,-310.464"/>
</g>
<!-- Node5 -->
<g id="node5" class="node"><title>Node5</title>
<g id="a_node5"><a xlink:href="gui_2sources_2_thread_pool_8cpp.html" target="_top" xlink:title="/home/gogo/rendu/tek2\l/cpp_plazza/gui/sources\l/ThreadPool.cpp">
<polygon fill="none" stroke="black" points="28,-234.5 28,-275.5 150,-275.5 150,-234.5 28,-234.5"/>
<text text-anchor="start" x="36" y="-263.5" font-family="Helvetica,sans-Serif" font-size="10.00">/home/gogo/rendu/tek2</text>
<text text-anchor="start" x="36" y="-252.5" font-family="Helvetica,sans-Serif" font-size="10.00">/cpp_plazza/gui/sources</text>
<text text-anchor="middle" x="89" y="-241.5" font-family="Helvetica,sans-Serif" font-size="10.00">/ThreadPool.cpp</text>
</a>
</g>
</g>
<!-- Node4&#45;&gt;Node5 -->
<g id="edge5" class="edge"><title>Node4&#45;&gt;Node5</title>
<path fill="none" stroke="midnightblue" d="M452.756,-311.922C322.877,-285.828 285.294,-301.583 159,-276 156.151,-275.423 153.249,-274.788 150.326,-274.11"/>
<polygon fill="midnightblue" stroke="midnightblue" points="452.183,-315.377 462.683,-313.961 453.592,-308.521 452.183,-315.377"/>
</g>
<!-- Node6 -->
<g id="node6" class="node"><title>Node6</title>
<g id="a_node6"><a xlink:href="includes_2_office_8hpp.html" target="_top" xlink:title="/home/gogo/rendu/tek2\l/cpp_plazza/includes\l/Office.hpp">
<polygon fill="none" stroke="black" points="463,-234.5 463,-275.5 579,-275.5 579,-234.5 463,-234.5"/>
<text text-anchor="start" x="471" y="-263.5" font-family="Helvetica,sans-Serif" font-size="10.00">/home/gogo/rendu/tek2</text>
<text text-anchor="start" x="471" y="-252.5" font-family="Helvetica,sans-Serif" font-size="10.00">/cpp_plazza/includes</text>
<text text-anchor="middle" x="521" y="-241.5" font-family="Helvetica,sans-Serif" font-size="10.00">/Office.hpp</text>
</a>
</g>
</g>
<!-- Node4&#45;&gt;Node6 -->
<g id="edge6" class="edge"><title>Node4&#45;&gt;Node6</title>
<path fill="none" stroke="midnightblue" d="M521,-302.297C521,-293.301 521,-283.653 521,-275.506"/>
<polygon fill="midnightblue" stroke="midnightblue" points="517.5,-302.428 521,-312.428 524.5,-302.428 517.5,-302.428"/>
</g>
<!-- Node4&#45;&gt;Node12 -->
<g id="edge18" class="edge"><title>Node4&#45;&gt;Node12</title>
<path fill="none" stroke="midnightblue" d="M589.063,-319.302C654.972,-303.166 752.052,-268.458 802,-198 837.548,-147.856 829.149,-68.64 823.773,-36.3826"/>
<polygon fill="midnightblue" stroke="midnightblue" points="588.095,-315.935 579.169,-321.643 589.706,-322.747 588.095,-315.935"/>
</g>
<!-- Node16 -->
<g id="node16" class="node"><title>Node16</title>
<g id="a_node16"><a xlink:href="sources_2_thread_pool_8cpp.html" target="_top" xlink:title="/home/gogo/rendu/tek2\l/cpp_plazza/sources/ThreadPool.cpp">
<polygon fill="none" stroke="black" points="168,-240 168,-270 346,-270 346,-240 168,-240"/>
<text text-anchor="start" x="176" y="-258" font-family="Helvetica,sans-Serif" font-size="10.00">/home/gogo/rendu/tek2</text>
<text text-anchor="middle" x="257" y="-247" font-family="Helvetica,sans-Serif" font-size="10.00">/cpp_plazza/sources/ThreadPool.cpp</text>
</a>
</g>
</g>
<!-- Node4&#45;&gt;Node16 -->
<g id="edge19" class="edge"><title>Node4&#45;&gt;Node16</title>
<path fill="none" stroke="midnightblue" d="M453.288,-311.807C397.97,-295.724 344.915,-280.692 307.254,-270.089"/>
<polygon fill="midnightblue" stroke="midnightblue" points="452.329,-315.173 462.909,-314.609 454.286,-308.453 452.329,-315.173"/>
</g>
<!-- Node7 -->
<g id="node7" class="node"><title>Node7</title>
<g id="a_node7"><a xlink:href="gui_2sources_2_office_8cpp.html" target="_top" xlink:title="/home/gogo/rendu/tek2\l/cpp_plazza/gui/sources\l/Office.cpp">
<polygon fill="none" stroke="black" points="537,-156.5 537,-197.5 659,-197.5 659,-156.5 537,-156.5"/>
<text text-anchor="start" x="545" y="-185.5" font-family="Helvetica,sans-Serif" font-size="10.00">/home/gogo/rendu/tek2</text>
<text text-anchor="start" x="545" y="-174.5" font-family="Helvetica,sans-Serif" font-size="10.00">/cpp_plazza/gui/sources</text>
<text text-anchor="middle" x="598" y="-163.5" font-family="Helvetica,sans-Serif" font-size="10.00">/Office.cpp</text>
</a>
</g>
</g>
<!-- Node6&#45;&gt;Node7 -->
<g id="edge7" class="edge"><title>Node6&#45;&gt;Node7</title>
<path fill="none" stroke="midnightblue" d="M548.149,-227.204C558.065,-217.416 569.086,-206.539 578.238,-197.506"/>
<polygon fill="midnightblue" stroke="midnightblue" points="545.488,-224.912 540.829,-234.428 550.405,-229.894 545.488,-224.912"/>
</g>
<!-- Node8 -->
<g id="node8" class="node"><title>Node8</title>
<g id="a_node8"><a xlink:href="includes_2_process_manager_8hpp.html" target="_top" xlink:title="/home/gogo/rendu/tek2\l/cpp_plazza/includes\l/ProcessManager.hpp">
<polygon fill="none" stroke="black" points="677,-156.5 677,-197.5 793,-197.5 793,-156.5 677,-156.5"/>
<text text-anchor="start" x="685" y="-185.5" font-family="Helvetica,sans-Serif" font-size="10.00">/home/gogo/rendu/tek2</text>
<text text-anchor="start" x="685" y="-174.5" font-family="Helvetica,sans-Serif" font-size="10.00">/cpp_plazza/includes</text>
<text text-anchor="middle" x="735" y="-163.5" font-family="Helvetica,sans-Serif" font-size="10.00">/ProcessManager.hpp</text>
</a>
</g>
</g>
<!-- Node6&#45;&gt;Node8 -->
<g id="edge8" class="edge"><title>Node6&#45;&gt;Node8</title>
<path fill="none" stroke="midnightblue" d="M585.689,-231.026C615.815,-220.328 651.274,-207.734 680.076,-197.506"/>
<polygon fill="midnightblue" stroke="midnightblue" points="584.362,-227.783 576.11,-234.428 586.705,-234.38 584.362,-227.783"/>
</g>
<!-- Node10 -->
<g id="node10" class="node"><title>Node10</title>
<g id="a_node10"><a xlink:href="includes_2_reception_8hpp.html" target="_top" xlink:title="/home/gogo/rendu/tek2\l/cpp_plazza/includes\l/Reception.hpp">
<polygon fill="none" stroke="black" points="373,-78.5 373,-119.5 489,-119.5 489,-78.5 373,-78.5"/>
<text text-anchor="start" x="381" y="-107.5" font-family="Helvetica,sans-Serif" font-size="10.00">/home/gogo/rendu/tek2</text>
<text text-anchor="start" x="381" y="-96.5" font-family="Helvetica,sans-Serif" font-size="10.00">/cpp_plazza/includes</text>
<text text-anchor="middle" x="431" y="-85.5" font-family="Helvetica,sans-Serif" font-size="10.00">/Reception.hpp</text>
</a>
</g>
</g>
<!-- Node6&#45;&gt;Node10 -->
<g id="edge16" class="edge"><title>Node6&#45;&gt;Node10</title>
<path fill="none" stroke="midnightblue" d="M453.07,-249.562C417.399,-243.364 376.526,-229.313 354,-198 343.099,-182.847 345.529,-172.634 354,-156 361.801,-140.681 375.971,-128.567 390.049,-119.581"/>
<polygon fill="midnightblue" stroke="midnightblue" points="452.553,-253.023 462.973,-251.109 453.633,-246.107 452.553,-253.023"/>
</g>
<!-- Node15 -->
<g id="node15" class="node"><title>Node15</title>
<g id="a_node15"><a xlink:href="sources_2_office_8cpp.html" target="_top" xlink:title="/home/gogo/rendu/tek2\l/cpp_plazza/sources/Office.cpp">
<polygon fill="none" stroke="black" points="363.5,-162 363.5,-192 518.5,-192 518.5,-162 363.5,-162"/>
<text text-anchor="start" x="371.5" y="-180" font-family="Helvetica,sans-Serif" font-size="10.00">/home/gogo/rendu/tek2</text>
<text text-anchor="middle" x="441" y="-169" font-family="Helvetica,sans-Serif" font-size="10.00">/cpp_plazza/sources/Office.cpp</text>
</a>
</g>
</g>
<!-- Node6&#45;&gt;Node15 -->
<g id="edge17" class="edge"><title>Node6&#45;&gt;Node15</title>
<path fill="none" stroke="midnightblue" d="M492.92,-227.324C480.482,-215.508 466.35,-202.083 455.974,-192.225"/>
<polygon fill="midnightblue" stroke="midnightblue" points="490.737,-230.078 500.398,-234.428 495.559,-225.003 490.737,-230.078"/>
</g>
<!-- Node9 -->
<g id="node9" class="node"><title>Node9</title>
<g id="a_node9"><a xlink:href="gui_2sources_2_process_manager_8cpp.html" target="_top" xlink:title="/home/gogo/rendu/tek2\l/cpp_plazza/gui/sources\l/ProcessManager.cpp">
<polygon fill="none" stroke="black" points="507,-78.5 507,-119.5 629,-119.5 629,-78.5 507,-78.5"/>
<text text-anchor="start" x="515" y="-107.5" font-family="Helvetica,sans-Serif" font-size="10.00">/home/gogo/rendu/tek2</text>
<text text-anchor="start" x="515" y="-96.5" font-family="Helvetica,sans-Serif" font-size="10.00">/cpp_plazza/gui/sources</text>
<text text-anchor="middle" x="568" y="-85.5" font-family="Helvetica,sans-Serif" font-size="10.00">/ProcessManager.cpp</text>
</a>
</g>
</g>
<!-- Node8&#45;&gt;Node9 -->
<g id="edge9" class="edge"><title>Node8&#45;&gt;Node9</title>
<path fill="none" stroke="midnightblue" d="M682.678,-152.189C659.575,-141.675 632.754,-129.469 610.861,-119.506"/>
<polygon fill="midnightblue" stroke="midnightblue" points="681.442,-155.472 691.993,-156.428 684.341,-149.1 681.442,-155.472"/>
</g>
<!-- Node8&#45;&gt;Node10 -->
<g id="edge10" class="edge"><title>Node8&#45;&gt;Node10</title>
<path fill="none" stroke="midnightblue" d="M666.975,-155.844C591.4,-137.077 569.772,-138.279 498,-120 495.059,-119.251 492.054,-118.458 489.024,-117.635"/>
<polygon fill="midnightblue" stroke="midnightblue" points="666.424,-159.314 676.976,-158.365 668.134,-152.527 666.424,-159.314"/>
</g>
<!-- Node14 -->
<g id="node14" class="node"><title>Node14</title>
<g id="a_node14"><a xlink:href="sources_2_process_manager_8cpp.html" target="_top" xlink:title="/home/gogo/rendu/tek2\l/cpp_plazza/sources/Process\lManager.cpp">
<polygon fill="none" stroke="black" points="647,-78.5 647,-119.5 793,-119.5 793,-78.5 647,-78.5"/>
<text text-anchor="start" x="655" y="-107.5" font-family="Helvetica,sans-Serif" font-size="10.00">/home/gogo/rendu/tek2</text>
<text text-anchor="start" x="655" y="-96.5" font-family="Helvetica,sans-Serif" font-size="10.00">/cpp_plazza/sources/Process</text>
<text text-anchor="middle" x="720" y="-85.5" font-family="Helvetica,sans-Serif" font-size="10.00">Manager.cpp</text>
</a>
</g>
</g>
<!-- Node8&#45;&gt;Node14 -->
<g id="edge15" class="edge"><title>Node8&#45;&gt;Node14</title>
<path fill="none" stroke="midnightblue" d="M729.195,-146.59C727.403,-137.511 725.475,-127.742 723.85,-119.506"/>
<polygon fill="midnightblue" stroke="midnightblue" points="725.767,-147.295 731.137,-156.428 732.634,-145.94 725.767,-147.295"/>
</g>
<!-- Node10&#45;&gt;Node2 -->
<g id="edge11" class="edge"><title>Node10&#45;&gt;Node2</title>
<path fill="none" stroke="midnightblue" d="M386.102,-73.6266C366.971,-63.2416 344.958,-51.2915 326.931,-41.5056"/>
<polygon fill="midnightblue" stroke="midnightblue" points="384.488,-76.7331 394.947,-78.4281 387.828,-70.5811 384.488,-76.7331"/>
</g>
<!-- Node11 -->
<g id="node11" class="node"><title>Node11</title>
<g id="a_node11"><a xlink:href="gui_2sources_2_reception_8cpp.html" target="_top" xlink:title="/home/gogo/rendu/tek2\l/cpp_plazza/gui/sources\l/Reception.cpp">
<polygon fill="none" stroke="black" points="370,-0.5 370,-41.5 492,-41.5 492,-0.5 370,-0.5"/>
<text text-anchor="start" x="378" y="-29.5" font-family="Helvetica,sans-Serif" font-size="10.00">/home/gogo/rendu/tek2</text>
<text text-anchor="start" x="378" y="-18.5" font-family="Helvetica,sans-Serif" font-size="10.00">/cpp_plazza/gui/sources</text>
<text text-anchor="middle" x="431" y="-7.5" font-family="Helvetica,sans-Serif" font-size="10.00">/Reception.cpp</text>
</a>
</g>
</g>
<!-- Node10&#45;&gt;Node11 -->
<g id="edge12" class="edge"><title>Node10&#45;&gt;Node11</title>
<path fill="none" stroke="midnightblue" d="M431,-68.2965C431,-59.3009 431,-49.6532 431,-41.5056"/>
<polygon fill="midnightblue" stroke="midnightblue" points="427.5,-68.4281 431,-78.4281 434.5,-68.4281 427.5,-68.4281"/>
</g>
<!-- Node10&#45;&gt;Node12 -->
<g id="edge13" class="edge"><title>Node10&#45;&gt;Node12</title>
<path fill="none" stroke="midnightblue" d="M499.269,-77.8686C557.688,-64.9103 670.688,-46.1189 746.356,-33.8895"/>
<polygon fill="midnightblue" stroke="midnightblue" points="498.323,-74.4944 489.356,-80.137 499.885,-81.318 498.323,-74.4944"/>
</g>
<!-- Node13 -->
<g id="node13" class="node"><title>Node13</title>
<g id="a_node13"><a xlink:href="sources_2_reception_8cpp.html" target="_top" xlink:title="/home/gogo/rendu/tek2\l/cpp_plazza/sources/Reception.cpp">
<polygon fill="none" stroke="black" points="510.5,-6 510.5,-36 683.5,-36 683.5,-6 510.5,-6"/>
<text text-anchor="start" x="518.5" y="-24" font-family="Helvetica,sans-Serif" font-size="10.00">/home/gogo/rendu/tek2</text>
<text text-anchor="middle" x="597" y="-13" font-family="Helvetica,sans-Serif" font-size="10.00">/cpp_plazza/sources/Reception.cpp</text>
</a>
</g>
</g>
<!-- Node10&#45;&gt;Node13 -->
<g id="edge14" class="edge"><title>Node10&#45;&gt;Node13</title>
<path fill="none" stroke="midnightblue" d="M483.161,-74.1189C510.45,-61.6255 542.922,-46.7585 566.188,-36.1065"/>
<polygon fill="midnightblue" stroke="midnightblue" points="481.385,-71.0829 473.749,-78.4281 484.299,-77.4476 481.385,-71.0829"/>
</g>
<!-- Node17&#45;&gt;Node4 -->
<g id="edge23" class="edge"><title>Node17&#45;&gt;Node4</title>
<path fill="none" stroke="midnightblue" d="M414.452,-385.908C435.902,-375.458 460.693,-363.38 480.962,-353.506"/>
<polygon fill="midnightblue" stroke="midnightblue" points="412.631,-382.902 405.174,-390.428 415.697,-389.195 412.631,-382.902"/>
</g>
<!-- Node17&#45;&gt;Node5 -->
<g id="edge21" class="edge"><title>Node17&#45;&gt;Node5</title>
<path fill="none" stroke="midnightblue" d="M296.628,-389.99C206.54,-372.526 156.897,-418.226 98,-354 78.7156,-332.971 80.7614,-297.674 84.5146,-275.673"/>
<polygon fill="midnightblue" stroke="midnightblue" points="296.124,-393.463 306.639,-392.159 297.607,-386.621 296.124,-393.463"/>
</g>
<!-- Node17&#45;&gt;Node16 -->
<g id="edge24" class="edge"><title>Node17&#45;&gt;Node16</title>
<path fill="none" stroke="midnightblue" d="M309.669,-384.935C296.887,-376.754 284.547,-366.484 276,-354 258.475,-328.402 256.168,-290.689 256.366,-270.317"/>
<polygon fill="midnightblue" stroke="midnightblue" points="308.173,-388.119 318.548,-390.267 311.777,-382.118 308.173,-388.119"/>
</g>
<!-- Node18 -->
<g id="node18" class="node"><title>Node18</title>
<g id="a_node18"><a xlink:href="gui_2sources_2_worker_8cpp.html" target="_top" xlink:title="/home/gogo/rendu/tek2\l/cpp_plazza/gui/sources\l/Worker.cpp">
<polygon fill="none" stroke="black" points="107,-312.5 107,-353.5 229,-353.5 229,-312.5 107,-312.5"/>
<text text-anchor="start" x="115" y="-341.5" font-family="Helvetica,sans-Serif" font-size="10.00">/home/gogo/rendu/tek2</text>
<text text-anchor="start" x="115" y="-330.5" font-family="Helvetica,sans-Serif" font-size="10.00">/cpp_plazza/gui/sources</text>
<text text-anchor="middle" x="168" y="-319.5" font-family="Helvetica,sans-Serif" font-size="10.00">/Worker.cpp</text>
</a>
</g>
</g>
<!-- Node17&#45;&gt;Node18 -->
<g id="edge22" class="edge"><title>Node17&#45;&gt;Node18</title>
<path fill="none" stroke="midnightblue" d="M304.729,-386.748C277.153,-376.11 244.845,-363.646 218.56,-353.506"/>
<polygon fill="midnightblue" stroke="midnightblue" points="303.678,-390.094 314.268,-390.428 306.198,-383.563 303.678,-390.094"/>
</g>
<!-- Node19 -->
<g id="node19" class="node"><title>Node19</title>
<g id="a_node19"><a xlink:href="sources_2_worker_8cpp.html" target="_top" xlink:title="/home/gogo/rendu/tek2\l/cpp_plazza/sources/Worker.cpp">
<polygon fill="none" stroke="black" points="285,-318 285,-348 445,-348 445,-318 285,-318"/>
<text text-anchor="start" x="293" y="-336" font-family="Helvetica,sans-Serif" font-size="10.00">/home/gogo/rendu/tek2</text>
<text text-anchor="middle" x="365" y="-325" font-family="Helvetica,sans-Serif" font-size="10.00">/cpp_plazza/sources/Worker.cpp</text>
</a>
</g>
</g>
<!-- Node17&#45;&gt;Node19 -->
<g id="edge25" class="edge"><title>Node17&#45;&gt;Node19</title>
<path fill="none" stroke="midnightblue" d="M365,-380.283C365,-369.254 365,-357.246 365,-348.225"/>
<polygon fill="midnightblue" stroke="midnightblue" points="361.5,-380.428 365,-390.428 368.5,-380.428 361.5,-380.428"/>
</g>
</g>
</svg>
