<?xml version="1.0" encoding="UTF-8" standalone="no"?>
<!DOCTYPE svg PUBLIC "-//W3C//DTD SVG 1.1//EN"
 "http://www.w3.org/Graphics/SVG/1.1/DTD/svg11.dtd">
<!-- Generated by graphviz version 2.38.0 (20140413.2041)
 -->
<!-- Title: /home/gogo/rendu/tek2/cpp_plazza/includes/CommandManager.hpp Pages: 1 -->
<svg width="184pt" height="162pt"
 viewBox="0.00 0.00 184.00 162.00" xmlns="http://www.w3.org/2000/svg" xmlns:xlink="http://www.w3.org/1999/xlink">
<g id="graph0" class="graph" transform="scale(1 1) rotate(0) translate(4 158)">
<title>/home/gogo/rendu/tek2/cpp_plazza/includes/CommandManager.hpp</title>
<!-- Node1 -->
<g id="node1" class="node"><title>Node1</title>
<polygon fill="#bfbfbf" stroke="black" points="-7.10543e-15,-112.5 -7.10543e-15,-153.5 121,-153.5 121,-112.5 -7.10543e-15,-112.5"/>
<text text-anchor="start" x="8" y="-141.5" font-family="Helvetica,sans-Serif" font-size="10.00">/home/gogo/rendu/tek2</text>
<text text-anchor="start" x="8" y="-130.5" font-family="Helvetica,sans-Serif" font-size="10.00">/cpp_plazza/includes</text>
<text text-anchor="middle" x="60.5" y="-119.5" font-family="Helvetica,sans-Serif" font-size="10.00">/CommandManager.hpp</text>
</g>
<!-- Node2 -->
<g id="node2" class="node"><title>Node2</title>
<polygon fill="none" stroke="#bfbfbf" points="1,-56.5 1,-75.5 42,-75.5 42,-56.5 1,-56.5"/>
<text text-anchor="middle" x="21.5" y="-63.5" font-family="Helvetica,sans-Serif" font-size="10.00">regex</text>
</g>
<!-- Node1&#45;&gt;Node2 -->
<g id="edge1" class="edge"><title>Node1&#45;&gt;Node2</title>
<path fill="none" stroke="midnightblue" d="M48.7987,-112.498C43.4517,-103.586 37.1681,-93.1135 31.9782,-84.4636"/>
<polygon fill="midnightblue" stroke="midnightblue" points="34.8377,-82.4267 26.6915,-75.6525 28.8353,-86.0282 34.8377,-82.4267"/>
</g>
<!-- Node3 -->
<g id="node3" class="node"><title>Node3</title>
<g id="a_node3"><a xlink:href="includes_2_command_8hpp.html" target="_top" xlink:title="Command.hpp">
<polygon fill="none" stroke="black" points="60.5,-56.5 60.5,-75.5 140.5,-75.5 140.5,-56.5 60.5,-56.5"/>
<text text-anchor="middle" x="100.5" y="-63.5" font-family="Helvetica,sans-Serif" font-size="10.00">Command.hpp</text>
</a>
</g>
</g>
<!-- Node1&#45;&gt;Node3 -->
<g id="edge2" class="edge"><title>Node1&#45;&gt;Node3</title>
<path fill="none" stroke="midnightblue" d="M72.5013,-112.498C78.0444,-103.49 84.5689,-92.8881 89.9245,-84.1852"/>
<polygon fill="midnightblue" stroke="midnightblue" points="92.9152,-86.0034 95.1754,-75.6525 86.9536,-82.3347 92.9152,-86.0034"/>
</g>
<!-- Node4 -->
<g id="node4" class="node"><title>Node4</title>
<polygon fill="none" stroke="#bfbfbf" points="19,-0.5 19,-19.5 60,-19.5 60,-0.5 19,-0.5"/>
<text text-anchor="middle" x="39.5" y="-7.5" font-family="Helvetica,sans-Serif" font-size="10.00">string</text>
</g>
<!-- Node3&#45;&gt;Node4 -->
<g id="edge3" class="edge"><title>Node3&#45;&gt;Node4</title>
<path fill="none" stroke="midnightblue" d="M90.6993,-56.324C81.6819,-48.3414 68.094,-36.3128 57.182,-26.6529"/>
<polygon fill="midnightblue" stroke="midnightblue" points="59.2866,-23.8416 49.479,-19.8339 54.6467,-29.083 59.2866,-23.8416"/>
</g>
<!-- Node5 -->
<g id="node5" class="node"><title>Node5</title>
<polygon fill="none" stroke="#bfbfbf" points="78.5,-0.5 78.5,-19.5 122.5,-19.5 122.5,-0.5 78.5,-0.5"/>
<text text-anchor="middle" x="100.5" y="-7.5" font-family="Helvetica,sans-Serif" font-size="10.00">vector</text>
</g>
<!-- Node3&#45;&gt;Node5 -->
<g id="edge4" class="edge"><title>Node3&#45;&gt;Node5</title>
<path fill="none" stroke="midnightblue" d="M100.5,-56.083C100.5,-49.0059 100.5,-38.8611 100.5,-29.9865"/>
<polygon fill="midnightblue" stroke="midnightblue" points="104,-29.751 100.5,-19.7511 97.0001,-29.7511 104,-29.751"/>
</g>
<!-- Node6 -->
<g id="node6" class="node"><title>Node6</title>
<polygon fill="none" stroke="#bfbfbf" points="141,-0.5 141,-19.5 176,-19.5 176,-0.5 141,-0.5"/>
<text text-anchor="middle" x="158.5" y="-7.5" font-family="Helvetica,sans-Serif" font-size="10.00">map</text>
</g>
<!-- Node3&#45;&gt;Node6 -->
<g id="edge5" class="edge"><title>Node3&#45;&gt;Node6</title>
<path fill="none" stroke="midnightblue" d="M109.819,-56.324C118.393,-48.3414 131.312,-36.3128 141.688,-26.6529"/>
<polygon fill="midnightblue" stroke="midnightblue" points="144.078,-29.2098 149.012,-19.8339 139.308,-24.0865 144.078,-29.2098"/>
</g>
</g>
</svg>
