<?xml version="1.0" encoding="UTF-8" standalone="no"?>
<!DOCTYPE svg PUBLIC "-//W3C//DTD SVG 1.1//EN"
 "http://www.w3.org/Graphics/SVG/1.1/DTD/svg11.dtd">
<!-- Generated by graphviz version 2.38.0 (20140413.2041)
 -->
<!-- Title: /home/gogo/rendu/tek2/cpp_plazza/includes/Mutex.hpp Pages: 1 -->
<svg width="879pt" height="518pt"
 viewBox="0.00 0.00 878.50 518.00" xmlns="http://www.w3.org/2000/svg" xmlns:xlink="http://www.w3.org/1999/xlink">
<g id="graph0" class="graph" transform="scale(1 1) rotate(0) translate(4 514)">
<title>/home/gogo/rendu/tek2/cpp_plazza/includes/Mutex.hpp</title>
<!-- Node1 -->
<g id="node1" class="node"><title>Node1</title>
<polygon fill="#bfbfbf" stroke="black" points="357,-468.5 357,-509.5 473,-509.5 473,-468.5 357,-468.5"/>
<text text-anchor="start" x="365" y="-497.5" font-family="Helvetica,sans-Serif" font-size="10.00">/home/gogo/rendu/tek2</text>
<text text-anchor="start" x="365" y="-486.5" font-family="Helvetica,sans-Serif" font-size="10.00">/cpp_plazza/includes</text>
<text text-anchor="middle" x="415" y="-475.5" font-family="Helvetica,sans-Serif" font-size="10.00">/Mutex.hpp</text>
</g>
<!-- Node2 -->
<g id="node2" class="node"><title>Node2</title>
<g id="a_node2"><a xlink:href="gui_2sources_2main_8cpp.html" target="_top" xlink:title="/home/gogo/rendu/tek2\l/cpp_plazza/gui/sources\l/main.cpp">
<polygon fill="none" stroke="black" points="0,-0.5 0,-41.5 122,-41.5 122,-0.5 0,-0.5"/>
<text text-anchor="start" x="8" y="-29.5" font-family="Helvetica,sans-Serif" font-size="10.00">/home/gogo/rendu/tek2</text>
<text text-anchor="start" x="8" y="-18.5" font-family="Helvetica,sans-Serif" font-size="10.00">/cpp_plazza/gui/sources</text>
<text text-anchor="middle" x="61" y="-7.5" font-family="Helvetica,sans-Serif" font-size="10.00">/main.cpp</text>
</a>
</g>
</g>
<!-- Node1&#45;&gt;Node2 -->
<g id="edge1" class="edge"><title>Node1&#45;&gt;Node2</title>
<path fill="none" stroke="midnightblue" d="M347.064,-476.992C230.309,-456.136 4,-406.375 4,-334 4,-334 4,-334 4,-176 4,-124.969 31.8677,-70.0102 48.6318,-41.5656"/>
<polygon fill="midnightblue" stroke="midnightblue" points="346.529,-480.452 356.985,-478.742 347.745,-473.558 346.529,-480.452"/>
</g>
<!-- Node3 -->
<g id="node3" class="node"><title>Node3</title>
<g id="a_node3"><a xlink:href="gui_2sources_2_mutex_8cpp.html" target="_top" xlink:title="/home/gogo/rendu/tek2\l/cpp_plazza/gui/sources\l/Mutex.cpp">
<polygon fill="none" stroke="black" points="174,-390.5 174,-431.5 296,-431.5 296,-390.5 174,-390.5"/>
<text text-anchor="start" x="182" y="-419.5" font-family="Helvetica,sans-Serif" font-size="10.00">/home/gogo/rendu/tek2</text>
<text text-anchor="start" x="182" y="-408.5" font-family="Helvetica,sans-Serif" font-size="10.00">/cpp_plazza/gui/sources</text>
<text text-anchor="middle" x="235" y="-397.5" font-family="Helvetica,sans-Serif" font-size="10.00">/Mutex.cpp</text>
</a>
</g>
</g>
<!-- Node1&#45;&gt;Node3 -->
<g id="edge2" class="edge"><title>Node1&#45;&gt;Node3</title>
<path fill="none" stroke="midnightblue" d="M359.269,-464.469C334.218,-453.892 305.004,-441.557 281.197,-431.506"/>
<polygon fill="midnightblue" stroke="midnightblue" points="358.072,-467.763 368.646,-468.428 360.794,-461.314 358.072,-467.763"/>
</g>
<!-- Node4 -->
<g id="node4" class="node"><title>Node4</title>
<g id="a_node4"><a xlink:href="includes_2_cond_var_8hpp.html" target="_top" xlink:title="/home/gogo/rendu/tek2\l/cpp_plazza/includes\l/CondVar.hpp">
<polygon fill="none" stroke="black" points="314,-390.5 314,-431.5 430,-431.5 430,-390.5 314,-390.5"/>
<text text-anchor="start" x="322" y="-419.5" font-family="Helvetica,sans-Serif" font-size="10.00">/home/gogo/rendu/tek2</text>
<text text-anchor="start" x="322" y="-408.5" font-family="Helvetica,sans-Serif" font-size="10.00">/cpp_plazza/includes</text>
<text text-anchor="middle" x="372" y="-397.5" font-family="Helvetica,sans-Serif" font-size="10.00">/CondVar.hpp</text>
</a>
</g>
</g>
<!-- Node1&#45;&gt;Node4 -->
<g id="edge3" class="edge"><title>Node1&#45;&gt;Node4</title>
<path fill="none" stroke="midnightblue" d="M398.856,-459.466C393.581,-450.143 387.846,-440.007 383.036,-431.506"/>
<polygon fill="midnightblue" stroke="midnightblue" points="395.956,-461.448 403.926,-468.428 402.048,-458.001 395.956,-461.448"/>
</g>
<!-- Node5 -->
<g id="node5" class="node"><title>Node5</title>
<g id="a_node5"><a xlink:href="includes_2_thread_pool_8hpp.html" target="_top" xlink:title="/home/gogo/rendu/tek2\l/cpp_plazza/includes\l/ThreadPool.hpp">
<polygon fill="none" stroke="black" points="314,-312.5 314,-353.5 430,-353.5 430,-312.5 314,-312.5"/>
<text text-anchor="start" x="322" y="-341.5" font-family="Helvetica,sans-Serif" font-size="10.00">/home/gogo/rendu/tek2</text>
<text text-anchor="start" x="322" y="-330.5" font-family="Helvetica,sans-Serif" font-size="10.00">/cpp_plazza/includes</text>
<text text-anchor="middle" x="372" y="-319.5" font-family="Helvetica,sans-Serif" font-size="10.00">/ThreadPool.hpp</text>
</a>
</g>
</g>
<!-- Node1&#45;&gt;Node5 -->
<g id="edge23" class="edge"><title>Node1&#45;&gt;Node5</title>
<path fill="none" stroke="midnightblue" d="M431.745,-459.491C441.251,-439.384 449.374,-412.192 439,-390 432.066,-375.168 419.058,-362.884 406.335,-353.637"/>
<polygon fill="midnightblue" stroke="midnightblue" points="428.596,-457.961 427.192,-468.462 434.839,-461.129 428.596,-457.961"/>
</g>
<!-- Node13 -->
<g id="node13" class="node"><title>Node13</title>
<g id="a_node13"><a xlink:href="sources_2main_8cpp.html" target="_top" xlink:title="/home/gogo/rendu/tek2\l/cpp_plazza/sources/main.cpp">
<polygon fill="none" stroke="black" points="574.5,-6 574.5,-36 723.5,-36 723.5,-6 574.5,-6"/>
<text text-anchor="start" x="582.5" y="-24" font-family="Helvetica,sans-Serif" font-size="10.00">/home/gogo/rendu/tek2</text>
<text text-anchor="middle" x="649" y="-13" font-family="Helvetica,sans-Serif" font-size="10.00">/cpp_plazza/sources/main.cpp</text>
</a>
</g>
</g>
<!-- Node1&#45;&gt;Node13 -->
<g id="edge24" class="edge"><title>Node1&#45;&gt;Node13</title>
<path fill="none" stroke="midnightblue" d="M483.107,-479.382C563.675,-464.934 687,-427.542 687,-334 687,-334 687,-334 687,-176 687,-123.127 665.625,-62.9385 654.938,-36.1488"/>
<polygon fill="midnightblue" stroke="midnightblue" points="482.282,-475.973 473.017,-481.113 483.465,-482.872 482.282,-475.973"/>
</g>
<!-- Node18 -->
<g id="node18" class="node"><title>Node18</title>
<g id="a_node18"><a xlink:href="sources_2_mutex_8cpp.html" target="_top" xlink:title="/home/gogo/rendu/tek2\l/cpp_plazza/sources/Mutex.cpp">
<polygon fill="none" stroke="black" points="715.5,-396 715.5,-426 870.5,-426 870.5,-396 715.5,-396"/>
<text text-anchor="start" x="723.5" y="-414" font-family="Helvetica,sans-Serif" font-size="10.00">/home/gogo/rendu/tek2</text>
<text text-anchor="middle" x="793" y="-403" font-family="Helvetica,sans-Serif" font-size="10.00">/cpp_plazza/sources/Mutex.cpp</text>
</a>
</g>
</g>
<!-- Node1&#45;&gt;Node18 -->
<g id="edge25" class="edge"><title>Node1&#45;&gt;Node18</title>
<path fill="none" stroke="midnightblue" d="M483.274,-475.043C541.267,-463.939 626.679,-447.353 701,-432 710.124,-430.115 719.746,-428.078 729.192,-426.05"/>
<polygon fill="midnightblue" stroke="midnightblue" points="482.298,-471.667 473.134,-476.983 483.613,-478.542 482.298,-471.667"/>
</g>
<!-- Node4&#45;&gt;Node2 -->
<g id="edge4" class="edge"><title>Node4&#45;&gt;Node2</title>
<path fill="none" stroke="midnightblue" d="M307.51,-386.891C211.46,-351.516 42,-284.996 42,-256 42,-256 42,-256 42,-176 42,-127.51 51.3933,-71.0739 56.9706,-41.8385"/>
<polygon fill="midnightblue" stroke="midnightblue" points="306.543,-390.264 317.137,-390.423 308.954,-383.693 306.543,-390.264"/>
</g>
<!-- Node4&#45;&gt;Node5 -->
<g id="edge5" class="edge"><title>Node4&#45;&gt;Node5</title>
<path fill="none" stroke="midnightblue" d="M372,-380.297C372,-371.301 372,-361.653 372,-353.506"/>
<polygon fill="midnightblue" stroke="midnightblue" points="368.5,-380.428 372,-390.428 375.5,-380.428 368.5,-380.428"/>
</g>
<!-- Node4&#45;&gt;Node13 -->
<g id="edge22" class="edge"><title>Node4&#45;&gt;Node13</title>
<path fill="none" stroke="midnightblue" d="M440.084,-402.016C522.1,-388.169 649,-351.339 649,-256 649,-256 649,-256 649,-176 649,-124.399 649,-63.0731 649,-36.0141"/>
<polygon fill="midnightblue" stroke="midnightblue" points="439.383,-398.584 430.068,-403.632 440.498,-405.495 439.383,-398.584"/>
</g>
<!-- Node5&#45;&gt;Node2 -->
<g id="edge6" class="edge"><title>Node5&#45;&gt;Node2</title>
<path fill="none" stroke="midnightblue" d="M303.791,-324.529C239.078,-316.098 147.973,-300.303 122,-276 54.6118,-212.943 55.8144,-89.634 59.1418,-41.71"/>
<polygon fill="midnightblue" stroke="midnightblue" points="303.574,-328.029 313.936,-325.819 304.458,-321.085 303.574,-328.029"/>
</g>
<!-- Node6 -->
<g id="node6" class="node"><title>Node6</title>
<g id="a_node6"><a xlink:href="gui_2sources_2_thread_pool_8cpp.html" target="_top" xlink:title="/home/gogo/rendu/tek2\l/cpp_plazza/gui/sources\l/ThreadPool.cpp">
<polygon fill="none" stroke="black" points="131,-234.5 131,-275.5 253,-275.5 253,-234.5 131,-234.5"/>
<text text-anchor="start" x="139" y="-263.5" font-family="Helvetica,sans-Serif" font-size="10.00">/home/gogo/rendu/tek2</text>
<text text-anchor="start" x="139" y="-252.5" font-family="Helvetica,sans-Serif" font-size="10.00">/cpp_plazza/gui/sources</text>
<text text-anchor="middle" x="192" y="-241.5" font-family="Helvetica,sans-Serif" font-size="10.00">/ThreadPool.cpp</text>
</a>
</g>
</g>
<!-- Node5&#45;&gt;Node6 -->
<g id="edge7" class="edge"><title>Node5&#45;&gt;Node6</title>
<path fill="none" stroke="midnightblue" d="M316.269,-308.469C291.218,-297.892 262.004,-285.557 238.197,-275.506"/>
<polygon fill="midnightblue" stroke="midnightblue" points="315.072,-311.763 325.646,-312.428 317.794,-305.314 315.072,-311.763"/>
</g>
<!-- Node7 -->
<g id="node7" class="node"><title>Node7</title>
<g id="a_node7"><a xlink:href="includes_2_office_8hpp.html" target="_top" xlink:title="/home/gogo/rendu/tek2\l/cpp_plazza/includes\l/Office.hpp">
<polygon fill="none" stroke="black" points="271,-234.5 271,-275.5 387,-275.5 387,-234.5 271,-234.5"/>
<text text-anchor="start" x="279" y="-263.5" font-family="Helvetica,sans-Serif" font-size="10.00">/home/gogo/rendu/tek2</text>
<text text-anchor="start" x="279" y="-252.5" font-family="Helvetica,sans-Serif" font-size="10.00">/cpp_plazza/includes</text>
<text text-anchor="middle" x="329" y="-241.5" font-family="Helvetica,sans-Serif" font-size="10.00">/Office.hpp</text>
</a>
</g>
</g>
<!-- Node5&#45;&gt;Node7 -->
<g id="edge8" class="edge"><title>Node5&#45;&gt;Node7</title>
<path fill="none" stroke="midnightblue" d="M355.856,-303.466C350.581,-294.143 344.846,-284.007 340.036,-275.506"/>
<polygon fill="midnightblue" stroke="midnightblue" points="352.956,-305.448 360.926,-312.428 359.048,-302.001 352.956,-305.448"/>
</g>
<!-- Node5&#45;&gt;Node13 -->
<g id="edge20" class="edge"><title>Node5&#45;&gt;Node13</title>
<path fill="none" stroke="midnightblue" d="M383.193,-302.899C393.213,-280.714 410.04,-251.146 434,-234 489.754,-194.101 532.741,-243.53 584,-198 609.266,-175.557 636.278,-73.8668 645.606,-36.1411"/>
<polygon fill="midnightblue" stroke="midnightblue" points="379.929,-301.63 379.191,-312.199 386.359,-304.397 379.929,-301.63"/>
</g>
<!-- Node17 -->
<g id="node17" class="node"><title>Node17</title>
<g id="a_node17"><a xlink:href="sources_2_thread_pool_8cpp.html" target="_top" xlink:title="/home/gogo/rendu/tek2\l/cpp_plazza/sources/ThreadPool.cpp">
<polygon fill="none" stroke="black" points="443,-240 443,-270 621,-270 621,-240 443,-240"/>
<text text-anchor="start" x="451" y="-258" font-family="Helvetica,sans-Serif" font-size="10.00">/home/gogo/rendu/tek2</text>
<text text-anchor="middle" x="532" y="-247" font-family="Helvetica,sans-Serif" font-size="10.00">/cpp_plazza/sources/ThreadPool.cpp</text>
</a>
</g>
</g>
<!-- Node5&#45;&gt;Node17 -->
<g id="edge21" class="edge"><title>Node5&#45;&gt;Node17</title>
<path fill="none" stroke="midnightblue" d="M422.245,-308.134C448.456,-295.684 479.636,-280.873 502.052,-270.225"/>
<polygon fill="midnightblue" stroke="midnightblue" points="420.735,-304.976 413.204,-312.428 423.738,-311.299 420.735,-304.976"/>
</g>
<!-- Node8 -->
<g id="node8" class="node"><title>Node8</title>
<g id="a_node8"><a xlink:href="gui_2sources_2_office_8cpp.html" target="_top" xlink:title="/home/gogo/rendu/tek2\l/cpp_plazza/gui/sources\l/Office.cpp">
<polygon fill="none" stroke="black" points="108,-156.5 108,-197.5 230,-197.5 230,-156.5 108,-156.5"/>
<text text-anchor="start" x="116" y="-185.5" font-family="Helvetica,sans-Serif" font-size="10.00">/home/gogo/rendu/tek2</text>
<text text-anchor="start" x="116" y="-174.5" font-family="Helvetica,sans-Serif" font-size="10.00">/cpp_plazza/gui/sources</text>
<text text-anchor="middle" x="169" y="-163.5" font-family="Helvetica,sans-Serif" font-size="10.00">/Office.cpp</text>
</a>
</g>
</g>
<!-- Node7&#45;&gt;Node8 -->
<g id="edge9" class="edge"><title>Node7&#45;&gt;Node8</title>
<path fill="none" stroke="midnightblue" d="M278.576,-230.049C256.508,-219.566 230.946,-207.424 210.064,-197.506"/>
<polygon fill="midnightblue" stroke="midnightblue" points="277.262,-233.299 287.796,-234.428 280.265,-226.976 277.262,-233.299"/>
</g>
<!-- Node9 -->
<g id="node9" class="node"><title>Node9</title>
<g id="a_node9"><a xlink:href="includes_2_process_manager_8hpp.html" target="_top" xlink:title="/home/gogo/rendu/tek2\l/cpp_plazza/includes\l/ProcessManager.hpp">
<polygon fill="none" stroke="black" points="248,-156.5 248,-197.5 364,-197.5 364,-156.5 248,-156.5"/>
<text text-anchor="start" x="256" y="-185.5" font-family="Helvetica,sans-Serif" font-size="10.00">/home/gogo/rendu/tek2</text>
<text text-anchor="start" x="256" y="-174.5" font-family="Helvetica,sans-Serif" font-size="10.00">/cpp_plazza/includes</text>
<text text-anchor="middle" x="306" y="-163.5" font-family="Helvetica,sans-Serif" font-size="10.00">/ProcessManager.hpp</text>
</a>
</g>
</g>
<!-- Node7&#45;&gt;Node9 -->
<g id="edge10" class="edge"><title>Node7&#45;&gt;Node9</title>
<path fill="none" stroke="midnightblue" d="M320.099,-224.59C317.352,-215.511 314.396,-205.742 311.903,-197.506"/>
<polygon fill="midnightblue" stroke="midnightblue" points="316.83,-225.871 323.077,-234.428 323.53,-223.843 316.83,-225.871"/>
</g>
<!-- Node11 -->
<g id="node11" class="node"><title>Node11</title>
<g id="a_node11"><a xlink:href="includes_2_reception_8hpp.html" target="_top" xlink:title="/home/gogo/rendu/tek2\l/cpp_plazza/includes\l/Reception.hpp">
<polygon fill="none" stroke="black" points="412,-78.5 412,-119.5 528,-119.5 528,-78.5 412,-78.5"/>
<text text-anchor="start" x="420" y="-107.5" font-family="Helvetica,sans-Serif" font-size="10.00">/home/gogo/rendu/tek2</text>
<text text-anchor="start" x="420" y="-96.5" font-family="Helvetica,sans-Serif" font-size="10.00">/cpp_plazza/includes</text>
<text text-anchor="middle" x="470" y="-85.5" font-family="Helvetica,sans-Serif" font-size="10.00">/Reception.hpp</text>
</a>
</g>
</g>
<!-- Node7&#45;&gt;Node11 -->
<g id="edge18" class="edge"><title>Node7&#45;&gt;Node11</title>
<path fill="none" stroke="midnightblue" d="M350.639,-226.456C366.722,-206.409 389.508,-178.881 411,-156 422.796,-143.442 436.748,-130.135 448.123,-119.645"/>
<polygon fill="midnightblue" stroke="midnightblue" points="347.894,-224.285 344.393,-234.284 353.366,-228.65 347.894,-224.285"/>
</g>
<!-- Node16 -->
<g id="node16" class="node"><title>Node16</title>
<g id="a_node16"><a xlink:href="sources_2_office_8cpp.html" target="_top" xlink:title="/home/gogo/rendu/tek2\l/cpp_plazza/sources/Office.cpp">
<polygon fill="none" stroke="black" points="420.5,-162 420.5,-192 575.5,-192 575.5,-162 420.5,-162"/>
<text text-anchor="start" x="428.5" y="-180" font-family="Helvetica,sans-Serif" font-size="10.00">/home/gogo/rendu/tek2</text>
<text text-anchor="middle" x="498" y="-169" font-family="Helvetica,sans-Serif" font-size="10.00">/cpp_plazza/sources/Office.cpp</text>
</a>
</g>
</g>
<!-- Node7&#45;&gt;Node16 -->
<g id="edge19" class="edge"><title>Node7&#45;&gt;Node16</title>
<path fill="none" stroke="midnightblue" d="M381.74,-230.282C409.596,-217.755 442.841,-202.805 466.632,-192.106"/>
<polygon fill="midnightblue" stroke="midnightblue" points="380.206,-227.135 372.522,-234.428 383.077,-233.519 380.206,-227.135"/>
</g>
<!-- Node10 -->
<g id="node10" class="node"><title>Node10</title>
<g id="a_node10"><a xlink:href="gui_2sources_2_process_manager_8cpp.html" target="_top" xlink:title="/home/gogo/rendu/tek2\l/cpp_plazza/gui/sources\l/ProcessManager.cpp">
<polygon fill="none" stroke="black" points="108,-78.5 108,-119.5 230,-119.5 230,-78.5 108,-78.5"/>
<text text-anchor="start" x="116" y="-107.5" font-family="Helvetica,sans-Serif" font-size="10.00">/home/gogo/rendu/tek2</text>
<text text-anchor="start" x="116" y="-96.5" font-family="Helvetica,sans-Serif" font-size="10.00">/cpp_plazza/gui/sources</text>
<text text-anchor="middle" x="169" y="-85.5" font-family="Helvetica,sans-Serif" font-size="10.00">/ProcessManager.cpp</text>
</a>
</g>
</g>
<!-- Node9&#45;&gt;Node10 -->
<g id="edge11" class="edge"><title>Node9&#45;&gt;Node10</title>
<path fill="none" stroke="midnightblue" d="M261.81,-151.486C243.149,-141.134 221.722,-129.247 204.161,-119.506"/>
<polygon fill="midnightblue" stroke="midnightblue" points="260.277,-154.638 270.719,-156.428 263.672,-148.516 260.277,-154.638"/>
</g>
<!-- Node9&#45;&gt;Node11 -->
<g id="edge12" class="edge"><title>Node9&#45;&gt;Node11</title>
<path fill="none" stroke="midnightblue" d="M357.382,-152.189C380.07,-141.675 406.41,-129.469 427.909,-119.506"/>
<polygon fill="midnightblue" stroke="midnightblue" points="355.836,-149.048 348.234,-156.428 358.779,-155.399 355.836,-149.048"/>
</g>
<!-- Node15 -->
<g id="node15" class="node"><title>Node15</title>
<g id="a_node15"><a xlink:href="sources_2_process_manager_8cpp.html" target="_top" xlink:title="/home/gogo/rendu/tek2\l/cpp_plazza/sources/Process\lManager.cpp">
<polygon fill="none" stroke="black" points="248,-78.5 248,-119.5 394,-119.5 394,-78.5 248,-78.5"/>
<text text-anchor="start" x="256" y="-107.5" font-family="Helvetica,sans-Serif" font-size="10.00">/home/gogo/rendu/tek2</text>
<text text-anchor="start" x="256" y="-96.5" font-family="Helvetica,sans-Serif" font-size="10.00">/cpp_plazza/sources/Process</text>
<text text-anchor="middle" x="321" y="-85.5" font-family="Helvetica,sans-Serif" font-size="10.00">Manager.cpp</text>
</a>
</g>
</g>
<!-- Node9&#45;&gt;Node15 -->
<g id="edge17" class="edge"><title>Node9&#45;&gt;Node15</title>
<path fill="none" stroke="midnightblue" d="M311.805,-146.59C313.597,-137.511 315.525,-127.742 317.15,-119.506"/>
<polygon fill="midnightblue" stroke="midnightblue" points="308.366,-145.94 309.863,-156.428 315.233,-147.295 308.366,-145.94"/>
</g>
<!-- Node11&#45;&gt;Node2 -->
<g id="edge13" class="edge"><title>Node11&#45;&gt;Node2</title>
<path fill="none" stroke="midnightblue" d="M401.705,-77.8325C298.691,-54.5873 188.959,-38.4701 122.31,-29.6335"/>
<polygon fill="midnightblue" stroke="midnightblue" points="401.123,-81.2896 411.652,-80.1042 402.682,-74.4654 401.123,-81.2896"/>
</g>
<!-- Node12 -->
<g id="node12" class="node"><title>Node12</title>
<g id="a_node12"><a xlink:href="gui_2sources_2_reception_8cpp.html" target="_top" xlink:title="/home/gogo/rendu/tek2\l/cpp_plazza/gui/sources\l/Reception.cpp">
<polygon fill="none" stroke="black" points="243,-0.5 243,-41.5 365,-41.5 365,-0.5 243,-0.5"/>
<text text-anchor="start" x="251" y="-29.5" font-family="Helvetica,sans-Serif" font-size="10.00">/home/gogo/rendu/tek2</text>
<text text-anchor="start" x="251" y="-18.5" font-family="Helvetica,sans-Serif" font-size="10.00">/cpp_plazza/gui/sources</text>
<text text-anchor="middle" x="304" y="-7.5" font-family="Helvetica,sans-Serif" font-size="10.00">/Reception.cpp</text>
</a>
</g>
</g>
<!-- Node11&#45;&gt;Node12 -->
<g id="edge14" class="edge"><title>Node11&#45;&gt;Node12</title>
<path fill="none" stroke="midnightblue" d="M417.992,-74.189C395.027,-63.6749 368.366,-51.4687 346.604,-41.5056"/>
<polygon fill="midnightblue" stroke="midnightblue" points="416.701,-77.4476 427.251,-78.4281 419.615,-71.0829 416.701,-77.4476"/>
</g>
<!-- Node11&#45;&gt;Node13 -->
<g id="edge15" class="edge"><title>Node11&#45;&gt;Node13</title>
<path fill="none" stroke="midnightblue" d="M525.477,-74.4456C555.059,-61.8855 590.468,-46.8516 615.775,-36.1065"/>
<polygon fill="midnightblue" stroke="midnightblue" points="523.934,-71.2983 516.097,-78.4281 526.67,-77.7416 523.934,-71.2983"/>
</g>
<!-- Node14 -->
<g id="node14" class="node"><title>Node14</title>
<g id="a_node14"><a xlink:href="sources_2_reception_8cpp.html" target="_top" xlink:title="/home/gogo/rendu/tek2\l/cpp_plazza/sources/Reception.cpp">
<polygon fill="none" stroke="black" points="383.5,-6 383.5,-36 556.5,-36 556.5,-6 383.5,-6"/>
<text text-anchor="start" x="391.5" y="-24" font-family="Helvetica,sans-Serif" font-size="10.00">/home/gogo/rendu/tek2</text>
<text text-anchor="middle" x="470" y="-13" font-family="Helvetica,sans-Serif" font-size="10.00">/cpp_plazza/sources/Reception.cpp</text>
</a>
</g>
</g>
<!-- Node11&#45;&gt;Node14 -->
<g id="edge16" class="edge"><title>Node11&#45;&gt;Node14</title>
<path fill="none" stroke="midnightblue" d="M470,-68.2829C470,-57.2536 470,-45.2457 470,-36.2254"/>
<polygon fill="midnightblue" stroke="midnightblue" points="466.5,-68.4281 470,-78.4281 473.5,-68.4281 466.5,-68.4281"/>
</g>
</g>
</svg>
