<?xml version="1.0" encoding="UTF-8" standalone="no"?>
<!DOCTYPE svg PUBLIC "-//W3C//DTD SVG 1.1//EN"
 "http://www.w3.org/Graphics/SVG/1.1/DTD/svg11.dtd">
<!-- Generated by graphviz version 2.38.0 (20140413.2041)
 -->
<!-- Title: /home/gogo/rendu/tek2/cpp_plazza/includes/Error.hpp Pages: 1 -->
<svg width="774pt" height="284pt"
 viewBox="0.00 0.00 774.00 284.00" xmlns="http://www.w3.org/2000/svg" xmlns:xlink="http://www.w3.org/1999/xlink">
<g id="graph0" class="graph" transform="scale(1 1) rotate(0) translate(4 280)">
<title>/home/gogo/rendu/tek2/cpp_plazza/includes/Error.hpp</title>
<!-- Node1 -->
<g id="node1" class="node"><title>Node1</title>
<polygon fill="#bfbfbf" stroke="black" points="280,-234.5 280,-275.5 396,-275.5 396,-234.5 280,-234.5"/>
<text text-anchor="start" x="288" y="-263.5" font-family="Helvetica,sans-Serif" font-size="10.00">/home/gogo/rendu/tek2</text>
<text text-anchor="start" x="288" y="-252.5" font-family="Helvetica,sans-Serif" font-size="10.00">/cpp_plazza/includes</text>
<text text-anchor="middle" x="338" y="-241.5" font-family="Helvetica,sans-Serif" font-size="10.00">/Error.hpp</text>
</g>
<!-- Node2 -->
<g id="node2" class="node"><title>Node2</title>
<g id="a_node2"><a xlink:href="gui_2sources_2_connector_pipe_8cpp.html" target="_top" xlink:title="/home/gogo/rendu/tek2\l/cpp_plazza/gui/sources\l/ConnectorPipe.cpp">
<polygon fill="none" stroke="black" points="0,-156.5 0,-197.5 122,-197.5 122,-156.5 0,-156.5"/>
<text text-anchor="start" x="8" y="-185.5" font-family="Helvetica,sans-Serif" font-size="10.00">/home/gogo/rendu/tek2</text>
<text text-anchor="start" x="8" y="-174.5" font-family="Helvetica,sans-Serif" font-size="10.00">/cpp_plazza/gui/sources</text>
<text text-anchor="middle" x="61" y="-163.5" font-family="Helvetica,sans-Serif" font-size="10.00">/ConnectorPipe.cpp</text>
</a>
</g>
</g>
<!-- Node1&#45;&gt;Node2 -->
<g id="edge1" class="edge"><title>Node1&#45;&gt;Node2</title>
<path fill="none" stroke="midnightblue" d="M270.191,-235.914C229.742,-225.061 177.39,-210.902 131,-198 128.078,-197.187 125.088,-196.351 122.069,-195.503"/>
<polygon fill="midnightblue" stroke="midnightblue" points="269.378,-239.319 279.943,-238.528 271.19,-232.558 269.378,-239.319"/>
</g>
<!-- Node3 -->
<g id="node3" class="node"><title>Node3</title>
<g id="a_node3"><a xlink:href="gui_2sources_2_thread_pool_8cpp.html" target="_top" xlink:title="/home/gogo/rendu/tek2\l/cpp_plazza/gui/sources\l/ThreadPool.cpp">
<polygon fill="none" stroke="black" points="140,-156.5 140,-197.5 262,-197.5 262,-156.5 140,-156.5"/>
<text text-anchor="start" x="148" y="-185.5" font-family="Helvetica,sans-Serif" font-size="10.00">/home/gogo/rendu/tek2</text>
<text text-anchor="start" x="148" y="-174.5" font-family="Helvetica,sans-Serif" font-size="10.00">/cpp_plazza/gui/sources</text>
<text text-anchor="middle" x="201" y="-163.5" font-family="Helvetica,sans-Serif" font-size="10.00">/ThreadPool.cpp</text>
</a>
</g>
</g>
<!-- Node1&#45;&gt;Node3 -->
<g id="edge2" class="edge"><title>Node1&#45;&gt;Node3</title>
<path fill="none" stroke="midnightblue" d="M293.81,-229.486C275.149,-219.134 253.722,-207.247 236.161,-197.506"/>
<polygon fill="midnightblue" stroke="midnightblue" points="292.277,-232.638 302.719,-234.428 295.672,-226.516 292.277,-232.638"/>
</g>
<!-- Node4 -->
<g id="node4" class="node"><title>Node4</title>
<g id="a_node4"><a xlink:href="includes_2_process_manager_8hpp.html" target="_top" xlink:title="/home/gogo/rendu/tek2\l/cpp_plazza/includes\l/ProcessManager.hpp">
<polygon fill="none" stroke="black" points="280,-156.5 280,-197.5 396,-197.5 396,-156.5 280,-156.5"/>
<text text-anchor="start" x="288" y="-185.5" font-family="Helvetica,sans-Serif" font-size="10.00">/home/gogo/rendu/tek2</text>
<text text-anchor="start" x="288" y="-174.5" font-family="Helvetica,sans-Serif" font-size="10.00">/cpp_plazza/includes</text>
<text text-anchor="middle" x="338" y="-163.5" font-family="Helvetica,sans-Serif" font-size="10.00">/ProcessManager.hpp</text>
</a>
</g>
</g>
<!-- Node1&#45;&gt;Node4 -->
<g id="edge3" class="edge"><title>Node1&#45;&gt;Node4</title>
<path fill="none" stroke="midnightblue" d="M338,-224.297C338,-215.301 338,-205.653 338,-197.506"/>
<polygon fill="midnightblue" stroke="midnightblue" points="334.5,-224.428 338,-234.428 341.5,-224.428 334.5,-224.428"/>
</g>
<!-- Node12 -->
<g id="node12" class="node"><title>Node12</title>
<g id="a_node12"><a xlink:href="sources_2_connector_pipe_8cpp.html" target="_top" xlink:title="/home/gogo/rendu/tek2\l/cpp_plazza/sources/Connector\lPipe.cpp">
<polygon fill="none" stroke="black" points="414.5,-156.5 414.5,-197.5 569.5,-197.5 569.5,-156.5 414.5,-156.5"/>
<text text-anchor="start" x="422.5" y="-185.5" font-family="Helvetica,sans-Serif" font-size="10.00">/home/gogo/rendu/tek2</text>
<text text-anchor="start" x="422.5" y="-174.5" font-family="Helvetica,sans-Serif" font-size="10.00">/cpp_plazza/sources/Connector</text>
<text text-anchor="middle" x="492" y="-163.5" font-family="Helvetica,sans-Serif" font-size="10.00">Pipe.cpp</text>
</a>
</g>
</g>
<!-- Node1&#45;&gt;Node12 -->
<g id="edge11" class="edge"><title>Node1&#45;&gt;Node12</title>
<path fill="none" stroke="midnightblue" d="M386.818,-229.908C407.993,-219.458 432.467,-207.38 452.476,-197.506"/>
<polygon fill="midnightblue" stroke="midnightblue" points="385.077,-226.864 377.659,-234.428 388.175,-233.141 385.077,-226.864"/>
</g>
<!-- Node13 -->
<g id="node13" class="node"><title>Node13</title>
<g id="a_node13"><a xlink:href="sources_2_thread_pool_8cpp.html" target="_top" xlink:title="/home/gogo/rendu/tek2\l/cpp_plazza/sources/ThreadPool.cpp">
<polygon fill="none" stroke="black" points="588,-162 588,-192 766,-192 766,-162 588,-162"/>
<text text-anchor="start" x="596" y="-180" font-family="Helvetica,sans-Serif" font-size="10.00">/home/gogo/rendu/tek2</text>
<text text-anchor="middle" x="677" y="-169" font-family="Helvetica,sans-Serif" font-size="10.00">/cpp_plazza/sources/ThreadPool.cpp</text>
</a>
</g>
</g>
<!-- Node1&#45;&gt;Node13 -->
<g id="edge12" class="edge"><title>Node1&#45;&gt;Node13</title>
<path fill="none" stroke="midnightblue" d="M406.165,-238.718C466.964,-225.088 555.247,-205.296 614.317,-192.053"/>
<polygon fill="midnightblue" stroke="midnightblue" points="405.268,-235.332 396.276,-240.935 406.8,-242.163 405.268,-235.332"/>
</g>
<!-- Node5 -->
<g id="node5" class="node"><title>Node5</title>
<g id="a_node5"><a xlink:href="gui_2sources_2_process_manager_8cpp.html" target="_top" xlink:title="/home/gogo/rendu/tek2\l/cpp_plazza/gui/sources\l/ProcessManager.cpp">
<polygon fill="none" stroke="black" points="140,-78.5 140,-119.5 262,-119.5 262,-78.5 140,-78.5"/>
<text text-anchor="start" x="148" y="-107.5" font-family="Helvetica,sans-Serif" font-size="10.00">/home/gogo/rendu/tek2</text>
<text text-anchor="start" x="148" y="-96.5" font-family="Helvetica,sans-Serif" font-size="10.00">/cpp_plazza/gui/sources</text>
<text text-anchor="middle" x="201" y="-85.5" font-family="Helvetica,sans-Serif" font-size="10.00">/ProcessManager.cpp</text>
</a>
</g>
</g>
<!-- Node4&#45;&gt;Node5 -->
<g id="edge4" class="edge"><title>Node4&#45;&gt;Node5</title>
<path fill="none" stroke="midnightblue" d="M293.81,-151.486C275.149,-141.134 253.722,-129.247 236.161,-119.506"/>
<polygon fill="midnightblue" stroke="midnightblue" points="292.277,-154.638 302.719,-156.428 295.672,-148.516 292.277,-154.638"/>
</g>
<!-- Node6 -->
<g id="node6" class="node"><title>Node6</title>
<g id="a_node6"><a xlink:href="includes_2_reception_8hpp.html" target="_top" xlink:title="/home/gogo/rendu/tek2\l/cpp_plazza/includes\l/Reception.hpp">
<polygon fill="none" stroke="black" points="280,-78.5 280,-119.5 396,-119.5 396,-78.5 280,-78.5"/>
<text text-anchor="start" x="288" y="-107.5" font-family="Helvetica,sans-Serif" font-size="10.00">/home/gogo/rendu/tek2</text>
<text text-anchor="start" x="288" y="-96.5" font-family="Helvetica,sans-Serif" font-size="10.00">/cpp_plazza/includes</text>
<text text-anchor="middle" x="338" y="-85.5" font-family="Helvetica,sans-Serif" font-size="10.00">/Reception.hpp</text>
</a>
</g>
</g>
<!-- Node4&#45;&gt;Node6 -->
<g id="edge5" class="edge"><title>Node4&#45;&gt;Node6</title>
<path fill="none" stroke="midnightblue" d="M338,-146.297C338,-137.301 338,-127.653 338,-119.506"/>
<polygon fill="midnightblue" stroke="midnightblue" points="334.5,-146.428 338,-156.428 341.5,-146.428 334.5,-146.428"/>
</g>
<!-- Node11 -->
<g id="node11" class="node"><title>Node11</title>
<g id="a_node11"><a xlink:href="sources_2_process_manager_8cpp.html" target="_top" xlink:title="/home/gogo/rendu/tek2\l/cpp_plazza/sources/Process\lManager.cpp">
<polygon fill="none" stroke="black" points="414,-78.5 414,-119.5 560,-119.5 560,-78.5 414,-78.5"/>
<text text-anchor="start" x="422" y="-107.5" font-family="Helvetica,sans-Serif" font-size="10.00">/home/gogo/rendu/tek2</text>
<text text-anchor="start" x="422" y="-96.5" font-family="Helvetica,sans-Serif" font-size="10.00">/cpp_plazza/sources/Process</text>
<text text-anchor="middle" x="487" y="-85.5" font-family="Helvetica,sans-Serif" font-size="10.00">Manager.cpp</text>
</a>
</g>
</g>
<!-- Node4&#45;&gt;Node11 -->
<g id="edge10" class="edge"><title>Node4&#45;&gt;Node11</title>
<path fill="none" stroke="midnightblue" d="M385.508,-151.768C405.933,-141.35 429.486,-129.336 448.759,-119.506"/>
<polygon fill="midnightblue" stroke="midnightblue" points="383.689,-148.766 376.371,-156.428 386.87,-155.002 383.689,-148.766"/>
</g>
<!-- Node7 -->
<g id="node7" class="node"><title>Node7</title>
<g id="a_node7"><a xlink:href="gui_2sources_2main_8cpp.html" target="_top" xlink:title="/home/gogo/rendu/tek2\l/cpp_plazza/gui/sources\l/main.cpp">
<polygon fill="none" stroke="black" points="60,-0.5 60,-41.5 182,-41.5 182,-0.5 60,-0.5"/>
<text text-anchor="start" x="68" y="-29.5" font-family="Helvetica,sans-Serif" font-size="10.00">/home/gogo/rendu/tek2</text>
<text text-anchor="start" x="68" y="-18.5" font-family="Helvetica,sans-Serif" font-size="10.00">/cpp_plazza/gui/sources</text>
<text text-anchor="middle" x="121" y="-7.5" font-family="Helvetica,sans-Serif" font-size="10.00">/main.cpp</text>
</a>
</g>
</g>
<!-- Node6&#45;&gt;Node7 -->
<g id="edge6" class="edge"><title>Node6&#45;&gt;Node7</title>
<path fill="none" stroke="midnightblue" d="M272.404,-75.0264C241.856,-64.3275 205.899,-51.7343 176.694,-41.5056"/>
<polygon fill="midnightblue" stroke="midnightblue" points="271.522,-78.4259 282.117,-78.4281 273.836,-71.8193 271.522,-78.4259"/>
</g>
<!-- Node8 -->
<g id="node8" class="node"><title>Node8</title>
<g id="a_node8"><a xlink:href="gui_2sources_2_reception_8cpp.html" target="_top" xlink:title="/home/gogo/rendu/tek2\l/cpp_plazza/gui/sources\l/Reception.cpp">
<polygon fill="none" stroke="black" points="200,-0.5 200,-41.5 322,-41.5 322,-0.5 200,-0.5"/>
<text text-anchor="start" x="208" y="-29.5" font-family="Helvetica,sans-Serif" font-size="10.00">/home/gogo/rendu/tek2</text>
<text text-anchor="start" x="208" y="-18.5" font-family="Helvetica,sans-Serif" font-size="10.00">/cpp_plazza/gui/sources</text>
<text text-anchor="middle" x="261" y="-7.5" font-family="Helvetica,sans-Serif" font-size="10.00">/Reception.cpp</text>
</a>
</g>
</g>
<!-- Node6&#45;&gt;Node8 -->
<g id="edge7" class="edge"><title>Node6&#45;&gt;Node8</title>
<path fill="none" stroke="midnightblue" d="M310.851,-71.204C300.935,-61.416 289.914,-50.5388 280.762,-41.5056"/>
<polygon fill="midnightblue" stroke="midnightblue" points="308.595,-73.8944 318.171,-78.4281 313.512,-68.9124 308.595,-73.8944"/>
</g>
<!-- Node9 -->
<g id="node9" class="node"><title>Node9</title>
<g id="a_node9"><a xlink:href="sources_2main_8cpp.html" target="_top" xlink:title="/home/gogo/rendu/tek2\l/cpp_plazza/sources/main.cpp">
<polygon fill="none" stroke="black" points="340.5,-6 340.5,-36 489.5,-36 489.5,-6 340.5,-6"/>
<text text-anchor="start" x="348.5" y="-24" font-family="Helvetica,sans-Serif" font-size="10.00">/home/gogo/rendu/tek2</text>
<text text-anchor="middle" x="415" y="-13" font-family="Helvetica,sans-Serif" font-size="10.00">/cpp_plazza/sources/main.cpp</text>
</a>
</g>
</g>
<!-- Node6&#45;&gt;Node9 -->
<g id="edge8" class="edge"><title>Node6&#45;&gt;Node9</title>
<path fill="none" stroke="midnightblue" d="M365.027,-71.3245C376.999,-59.5076 390.6,-46.0827 400.587,-36.2254"/>
<polygon fill="midnightblue" stroke="midnightblue" points="362.488,-68.9124 357.829,-78.4281 367.405,-73.8944 362.488,-68.9124"/>
</g>
<!-- Node10 -->
<g id="node10" class="node"><title>Node10</title>
<g id="a_node10"><a xlink:href="sources_2_reception_8cpp.html" target="_top" xlink:title="/home/gogo/rendu/tek2\l/cpp_plazza/sources/Reception.cpp">
<polygon fill="none" stroke="black" points="507.5,-6 507.5,-36 680.5,-36 680.5,-6 507.5,-6"/>
<text text-anchor="start" x="515.5" y="-24" font-family="Helvetica,sans-Serif" font-size="10.00">/home/gogo/rendu/tek2</text>
<text text-anchor="middle" x="594" y="-13" font-family="Helvetica,sans-Serif" font-size="10.00">/cpp_plazza/sources/Reception.cpp</text>
</a>
</g>
</g>
<!-- Node6&#45;&gt;Node10 -->
<g id="edge9" class="edge"><title>Node6&#45;&gt;Node10</title>
<path fill="none" stroke="midnightblue" d="M405.786,-77.7684C459.414,-61.8249 510.546,-46.6826 546.612,-36.012"/>
<polygon fill="midnightblue" stroke="midnightblue" points="404.69,-74.4429 396.103,-80.6481 406.685,-81.1525 404.69,-74.4429"/>
</g>
</g>
</svg>
