<?xml version="1.0" encoding="UTF-8" standalone="no"?>
<!DOCTYPE svg PUBLIC "-//W3C//DTD SVG 1.1//EN"
 "http://www.w3.org/Graphics/SVG/1.1/DTD/svg11.dtd">
<!-- Generated by graphviz version 2.38.0 (20140413.2041)
 -->
<!-- Title: /home/gogo/rendu/tek2/cpp_plazza/includes/XorCracker.hpp Pages: 1 -->
<svg width="895pt" height="518pt"
 viewBox="0.00 0.00 895.00 518.00" xmlns="http://www.w3.org/2000/svg" xmlns:xlink="http://www.w3.org/1999/xlink">
<g id="graph0" class="graph" transform="scale(1 1) rotate(0) translate(4 514)">
<title>/home/gogo/rendu/tek2/cpp_plazza/includes/XorCracker.hpp</title>
<!-- Node1 -->
<g id="node1" class="node"><title>Node1</title>
<polygon fill="#bfbfbf" stroke="black" points="368,-468.5 368,-509.5 484,-509.5 484,-468.5 368,-468.5"/>
<text text-anchor="start" x="376" y="-497.5" font-family="Helvetica,sans-Serif" font-size="10.00">/home/gogo/rendu/tek2</text>
<text text-anchor="start" x="376" y="-486.5" font-family="Helvetica,sans-Serif" font-size="10.00">/cpp_plazza/includes</text>
<text text-anchor="middle" x="426" y="-475.5" font-family="Helvetica,sans-Serif" font-size="10.00">/XorCracker.hpp</text>
</g>
<!-- Node2 -->
<g id="node2" class="node"><title>Node2</title>
<g id="a_node2"><a xlink:href="gui_2sources_2_xor_cracker_8cpp.html" target="_top" xlink:title="/home/gogo/rendu/tek2\l/cpp_plazza/gui/sources\l/XorCracker.cpp">
<polygon fill="none" stroke="black" points="228,-390.5 228,-431.5 350,-431.5 350,-390.5 228,-390.5"/>
<text text-anchor="start" x="236" y="-419.5" font-family="Helvetica,sans-Serif" font-size="10.00">/home/gogo/rendu/tek2</text>
<text text-anchor="start" x="236" y="-408.5" font-family="Helvetica,sans-Serif" font-size="10.00">/cpp_plazza/gui/sources</text>
<text text-anchor="middle" x="289" y="-397.5" font-family="Helvetica,sans-Serif" font-size="10.00">/XorCracker.cpp</text>
</a>
</g>
</g>
<!-- Node1&#45;&gt;Node2 -->
<g id="edge1" class="edge"><title>Node1&#45;&gt;Node2</title>
<path fill="none" stroke="midnightblue" d="M381.81,-463.486C363.149,-453.134 341.722,-441.247 324.161,-431.506"/>
<polygon fill="midnightblue" stroke="midnightblue" points="380.277,-466.638 390.719,-468.428 383.672,-460.516 380.277,-466.638"/>
</g>
<!-- Node3 -->
<g id="node3" class="node"><title>Node3</title>
<g id="a_node3"><a xlink:href="includes_2_worker_8hpp.html" target="_top" xlink:title="/home/gogo/rendu/tek2\l/cpp_plazza/includes\l/Worker.hpp">
<polygon fill="none" stroke="black" points="368,-390.5 368,-431.5 484,-431.5 484,-390.5 368,-390.5"/>
<text text-anchor="start" x="376" y="-419.5" font-family="Helvetica,sans-Serif" font-size="10.00">/home/gogo/rendu/tek2</text>
<text text-anchor="start" x="376" y="-408.5" font-family="Helvetica,sans-Serif" font-size="10.00">/cpp_plazza/includes</text>
<text text-anchor="middle" x="426" y="-397.5" font-family="Helvetica,sans-Serif" font-size="10.00">/Worker.hpp</text>
</a>
</g>
</g>
<!-- Node1&#45;&gt;Node3 -->
<g id="edge2" class="edge"><title>Node1&#45;&gt;Node3</title>
<path fill="none" stroke="midnightblue" d="M426,-458.297C426,-449.301 426,-439.653 426,-431.506"/>
<polygon fill="midnightblue" stroke="midnightblue" points="422.5,-458.428 426,-468.428 429.5,-458.428 422.5,-458.428"/>
</g>
<!-- Node20 -->
<g id="node20" class="node"><title>Node20</title>
<g id="a_node20"><a xlink:href="sources_2_xor_cracker_8cpp.html" target="_top" xlink:title="/home/gogo/rendu/tek2\l/cpp_plazza/sources/XorCracker.cpp">
<polygon fill="none" stroke="black" points="502,-396 502,-426 680,-426 680,-396 502,-396"/>
<text text-anchor="start" x="510" y="-414" font-family="Helvetica,sans-Serif" font-size="10.00">/home/gogo/rendu/tek2</text>
<text text-anchor="middle" x="591" y="-403" font-family="Helvetica,sans-Serif" font-size="10.00">/cpp_plazza/sources/XorCracker.cpp</text>
</a>
</g>
</g>
<!-- Node1&#45;&gt;Node20 -->
<g id="edge24" class="edge"><title>Node1&#45;&gt;Node20</title>
<path fill="none" stroke="midnightblue" d="M477.847,-464.119C504.971,-451.625 537.248,-436.759 560.374,-426.106"/>
<polygon fill="midnightblue" stroke="midnightblue" points="476.11,-461.065 468.492,-468.428 479.039,-467.423 476.11,-461.065"/>
</g>
<!-- Node4 -->
<g id="node4" class="node"><title>Node4</title>
<g id="a_node4"><a xlink:href="gui_2sources_2_thread_pool_8cpp.html" target="_top" xlink:title="/home/gogo/rendu/tek2\l/cpp_plazza/gui/sources\l/ThreadPool.cpp">
<polygon fill="none" stroke="black" points="0,-234.5 0,-275.5 122,-275.5 122,-234.5 0,-234.5"/>
<text text-anchor="start" x="8" y="-263.5" font-family="Helvetica,sans-Serif" font-size="10.00">/home/gogo/rendu/tek2</text>
<text text-anchor="start" x="8" y="-252.5" font-family="Helvetica,sans-Serif" font-size="10.00">/cpp_plazza/gui/sources</text>
<text text-anchor="middle" x="61" y="-241.5" font-family="Helvetica,sans-Serif" font-size="10.00">/ThreadPool.cpp</text>
</a>
</g>
</g>
<!-- Node3&#45;&gt;Node4 -->
<g id="edge3" class="edge"><title>Node3&#45;&gt;Node4</title>
<path fill="none" stroke="midnightblue" d="M357.918,-389.811C295.145,-373.359 275.203,-377.99 219,-354 169.422,-332.838 117.291,-297.582 87.0352,-275.625"/>
<polygon fill="midnightblue" stroke="midnightblue" points="357.368,-393.288 367.935,-392.519 359.194,-386.531 357.368,-393.288"/>
</g>
<!-- Node5 -->
<g id="node5" class="node"><title>Node5</title>
<g id="a_node5"><a xlink:href="gui_2sources_2_worker_8cpp.html" target="_top" xlink:title="/home/gogo/rendu/tek2\l/cpp_plazza/gui/sources\l/Worker.cpp">
<polygon fill="none" stroke="black" points="228,-312.5 228,-353.5 350,-353.5 350,-312.5 228,-312.5"/>
<text text-anchor="start" x="236" y="-341.5" font-family="Helvetica,sans-Serif" font-size="10.00">/home/gogo/rendu/tek2</text>
<text text-anchor="start" x="236" y="-330.5" font-family="Helvetica,sans-Serif" font-size="10.00">/cpp_plazza/gui/sources</text>
<text text-anchor="middle" x="289" y="-319.5" font-family="Helvetica,sans-Serif" font-size="10.00">/Worker.cpp</text>
</a>
</g>
</g>
<!-- Node3&#45;&gt;Node5 -->
<g id="edge4" class="edge"><title>Node3&#45;&gt;Node5</title>
<path fill="none" stroke="midnightblue" d="M381.81,-385.486C363.149,-375.134 341.722,-363.247 324.161,-353.506"/>
<polygon fill="midnightblue" stroke="midnightblue" points="380.277,-388.638 390.719,-390.428 383.672,-382.516 380.277,-388.638"/>
</g>
<!-- Node6 -->
<g id="node6" class="node"><title>Node6</title>
<g id="a_node6"><a xlink:href="includes_2_thread_pool_8hpp.html" target="_top" xlink:title="/home/gogo/rendu/tek2\l/cpp_plazza/includes\l/ThreadPool.hpp">
<polygon fill="none" stroke="black" points="368,-312.5 368,-353.5 484,-353.5 484,-312.5 368,-312.5"/>
<text text-anchor="start" x="376" y="-341.5" font-family="Helvetica,sans-Serif" font-size="10.00">/home/gogo/rendu/tek2</text>
<text text-anchor="start" x="376" y="-330.5" font-family="Helvetica,sans-Serif" font-size="10.00">/cpp_plazza/includes</text>
<text text-anchor="middle" x="426" y="-319.5" font-family="Helvetica,sans-Serif" font-size="10.00">/ThreadPool.hpp</text>
</a>
</g>
</g>
<!-- Node3&#45;&gt;Node6 -->
<g id="edge5" class="edge"><title>Node3&#45;&gt;Node6</title>
<path fill="none" stroke="midnightblue" d="M426,-380.297C426,-371.301 426,-361.653 426,-353.506"/>
<polygon fill="midnightblue" stroke="midnightblue" points="422.5,-380.428 426,-390.428 429.5,-380.428 422.5,-380.428"/>
</g>
<!-- Node18 -->
<g id="node18" class="node"><title>Node18</title>
<g id="a_node18"><a xlink:href="sources_2_thread_pool_8cpp.html" target="_top" xlink:title="/home/gogo/rendu/tek2\l/cpp_plazza/sources/ThreadPool.cpp">
<polygon fill="none" stroke="black" points="709,-240 709,-270 887,-270 887,-240 709,-240"/>
<text text-anchor="start" x="717" y="-258" font-family="Helvetica,sans-Serif" font-size="10.00">/home/gogo/rendu/tek2</text>
<text text-anchor="middle" x="798" y="-247" font-family="Helvetica,sans-Serif" font-size="10.00">/cpp_plazza/sources/ThreadPool.cpp</text>
</a>
</g>
</g>
<!-- Node3&#45;&gt;Node18 -->
<g id="edge22" class="edge"><title>Node3&#45;&gt;Node18</title>
<path fill="none" stroke="midnightblue" d="M459.039,-383.926C470.121,-374.78 482.36,-364.231 493,-354 511.146,-336.553 509.168,-324.531 531,-312 539.536,-307.1 649.59,-284.947 725.707,-270.016"/>
<polygon fill="midnightblue" stroke="midnightblue" points="456.748,-381.278 451.214,-390.312 461.174,-386.701 456.748,-381.278"/>
</g>
<!-- Node19 -->
<g id="node19" class="node"><title>Node19</title>
<g id="a_node19"><a xlink:href="sources_2_worker_8cpp.html" target="_top" xlink:title="/home/gogo/rendu/tek2\l/cpp_plazza/sources/Worker.cpp">
<polygon fill="none" stroke="black" points="540,-318 540,-348 700,-348 700,-318 540,-318"/>
<text text-anchor="start" x="548" y="-336" font-family="Helvetica,sans-Serif" font-size="10.00">/home/gogo/rendu/tek2</text>
<text text-anchor="middle" x="620" y="-325" font-family="Helvetica,sans-Serif" font-size="10.00">/cpp_plazza/sources/Worker.cpp</text>
</a>
</g>
</g>
<!-- Node3&#45;&gt;Node19 -->
<g id="edge23" class="edge"><title>Node3&#45;&gt;Node19</title>
<path fill="none" stroke="midnightblue" d="M485.294,-386.771C517.522,-374.146 556.326,-358.945 583.991,-348.106"/>
<polygon fill="midnightblue" stroke="midnightblue" points="483.994,-383.522 475.96,-390.428 486.548,-390.039 483.994,-383.522"/>
</g>
<!-- Node6&#45;&gt;Node4 -->
<g id="edge7" class="edge"><title>Node6&#45;&gt;Node4</title>
<path fill="none" stroke="midnightblue" d="M357.896,-311.891C259.384,-290.027 231.114,-296.305 136,-276 131.519,-275.043 126.906,-273.988 122.274,-272.877"/>
<polygon fill="midnightblue" stroke="midnightblue" points="357.128,-315.305 367.653,-314.096 358.671,-308.478 357.128,-315.305"/>
</g>
<!-- Node7 -->
<g id="node7" class="node"><title>Node7</title>
<g id="a_node7"><a xlink:href="gui_2sources_2main_8cpp.html" target="_top" xlink:title="/home/gogo/rendu/tek2\l/cpp_plazza/gui/sources\l/main.cpp">
<polygon fill="none" stroke="black" points="122,-0.5 122,-41.5 244,-41.5 244,-0.5 122,-0.5"/>
<text text-anchor="start" x="130" y="-29.5" font-family="Helvetica,sans-Serif" font-size="10.00">/home/gogo/rendu/tek2</text>
<text text-anchor="start" x="130" y="-18.5" font-family="Helvetica,sans-Serif" font-size="10.00">/cpp_plazza/gui/sources</text>
<text text-anchor="middle" x="183" y="-7.5" font-family="Helvetica,sans-Serif" font-size="10.00">/main.cpp</text>
</a>
</g>
</g>
<!-- Node6&#45;&gt;Node7 -->
<g id="edge6" class="edge"><title>Node6&#45;&gt;Node7</title>
<path fill="none" stroke="midnightblue" d="M367.728,-308.444C301.339,-280.359 199.037,-232.847 176,-198 144.043,-149.66 163.233,-76.4472 175.359,-41.6727"/>
<polygon fill="midnightblue" stroke="midnightblue" points="366.673,-311.798 377.248,-312.443 369.384,-305.344 366.673,-311.798"/>
</g>
<!-- Node8 -->
<g id="node8" class="node"><title>Node8</title>
<g id="a_node8"><a xlink:href="includes_2_office_8hpp.html" target="_top" xlink:title="/home/gogo/rendu/tek2\l/cpp_plazza/includes\l/Office.hpp">
<polygon fill="none" stroke="black" points="368,-234.5 368,-275.5 484,-275.5 484,-234.5 368,-234.5"/>
<text text-anchor="start" x="376" y="-263.5" font-family="Helvetica,sans-Serif" font-size="10.00">/home/gogo/rendu/tek2</text>
<text text-anchor="start" x="376" y="-252.5" font-family="Helvetica,sans-Serif" font-size="10.00">/cpp_plazza/includes</text>
<text text-anchor="middle" x="426" y="-241.5" font-family="Helvetica,sans-Serif" font-size="10.00">/Office.hpp</text>
</a>
</g>
</g>
<!-- Node6&#45;&gt;Node8 -->
<g id="edge8" class="edge"><title>Node6&#45;&gt;Node8</title>
<path fill="none" stroke="midnightblue" d="M426,-302.297C426,-293.301 426,-283.653 426,-275.506"/>
<polygon fill="midnightblue" stroke="midnightblue" points="422.5,-302.428 426,-312.428 429.5,-302.428 422.5,-302.428"/>
</g>
<!-- Node14 -->
<g id="node14" class="node"><title>Node14</title>
<g id="a_node14"><a xlink:href="sources_2main_8cpp.html" target="_top" xlink:title="/home/gogo/rendu/tek2\l/cpp_plazza/sources/main.cpp">
<polygon fill="none" stroke="black" points="625.5,-6 625.5,-36 774.5,-36 774.5,-6 625.5,-6"/>
<text text-anchor="start" x="633.5" y="-24" font-family="Helvetica,sans-Serif" font-size="10.00">/home/gogo/rendu/tek2</text>
<text text-anchor="middle" x="700" y="-13" font-family="Helvetica,sans-Serif" font-size="10.00">/cpp_plazza/sources/main.cpp</text>
</a>
</g>
</g>
<!-- Node6&#45;&gt;Node14 -->
<g id="edge20" class="edge"><title>Node6&#45;&gt;Node14</title>
<path fill="none" stroke="midnightblue" d="M479.177,-308.095C541.166,-279.197 638.189,-230.417 662,-198 699.01,-147.613 701.385,-68.5336 700.653,-36.3477"/>
<polygon fill="midnightblue" stroke="midnightblue" points="477.524,-305.004 469.922,-312.384 480.466,-311.355 477.524,-305.004"/>
</g>
<!-- Node6&#45;&gt;Node18 -->
<g id="edge21" class="edge"><title>Node6&#45;&gt;Node18</title>
<path fill="none" stroke="midnightblue" d="M494.128,-312.905C495.428,-312.596 496.72,-312.294 498,-312 584.745,-292.069 607.534,-292.483 695,-276 705.114,-274.094 715.781,-272.055 726.264,-270.035"/>
<polygon fill="midnightblue" stroke="midnightblue" points="492.915,-309.6 484.044,-315.392 494.591,-316.396 492.915,-309.6"/>
</g>
<!-- Node9 -->
<g id="node9" class="node"><title>Node9</title>
<g id="a_node9"><a xlink:href="gui_2sources_2_office_8cpp.html" target="_top" xlink:title="/home/gogo/rendu/tek2\l/cpp_plazza/gui/sources\l/Office.cpp">
<polygon fill="none" stroke="black" points="185,-156.5 185,-197.5 307,-197.5 307,-156.5 185,-156.5"/>
<text text-anchor="start" x="193" y="-185.5" font-family="Helvetica,sans-Serif" font-size="10.00">/home/gogo/rendu/tek2</text>
<text text-anchor="start" x="193" y="-174.5" font-family="Helvetica,sans-Serif" font-size="10.00">/cpp_plazza/gui/sources</text>
<text text-anchor="middle" x="246" y="-163.5" font-family="Helvetica,sans-Serif" font-size="10.00">/Office.cpp</text>
</a>
</g>
</g>
<!-- Node8&#45;&gt;Node9 -->
<g id="edge9" class="edge"><title>Node8&#45;&gt;Node9</title>
<path fill="none" stroke="midnightblue" d="M370.269,-230.469C345.218,-219.892 316.004,-207.557 292.197,-197.506"/>
<polygon fill="midnightblue" stroke="midnightblue" points="369.072,-233.763 379.646,-234.428 371.794,-227.314 369.072,-233.763"/>
</g>
<!-- Node10 -->
<g id="node10" class="node"><title>Node10</title>
<g id="a_node10"><a xlink:href="includes_2_process_manager_8hpp.html" target="_top" xlink:title="/home/gogo/rendu/tek2\l/cpp_plazza/includes\l/ProcessManager.hpp">
<polygon fill="none" stroke="black" points="325,-156.5 325,-197.5 441,-197.5 441,-156.5 325,-156.5"/>
<text text-anchor="start" x="333" y="-185.5" font-family="Helvetica,sans-Serif" font-size="10.00">/home/gogo/rendu/tek2</text>
<text text-anchor="start" x="333" y="-174.5" font-family="Helvetica,sans-Serif" font-size="10.00">/cpp_plazza/includes</text>
<text text-anchor="middle" x="383" y="-163.5" font-family="Helvetica,sans-Serif" font-size="10.00">/ProcessManager.hpp</text>
</a>
</g>
</g>
<!-- Node8&#45;&gt;Node10 -->
<g id="edge10" class="edge"><title>Node8&#45;&gt;Node10</title>
<path fill="none" stroke="midnightblue" d="M409.856,-225.466C404.581,-216.143 398.846,-206.007 394.036,-197.506"/>
<polygon fill="midnightblue" stroke="midnightblue" points="406.956,-227.448 414.926,-234.428 413.048,-224.001 406.956,-227.448"/>
</g>
<!-- Node12 -->
<g id="node12" class="node"><title>Node12</title>
<g id="a_node12"><a xlink:href="includes_2_reception_8hpp.html" target="_top" xlink:title="/home/gogo/rendu/tek2\l/cpp_plazza/includes\l/Reception.hpp">
<polygon fill="none" stroke="black" points="482,-78.5 482,-119.5 598,-119.5 598,-78.5 482,-78.5"/>
<text text-anchor="start" x="490" y="-107.5" font-family="Helvetica,sans-Serif" font-size="10.00">/home/gogo/rendu/tek2</text>
<text text-anchor="start" x="490" y="-96.5" font-family="Helvetica,sans-Serif" font-size="10.00">/cpp_plazza/includes</text>
<text text-anchor="middle" x="540" y="-85.5" font-family="Helvetica,sans-Serif" font-size="10.00">/Reception.hpp</text>
</a>
</g>
</g>
<!-- Node8&#45;&gt;Node12 -->
<g id="edge18" class="edge"><title>Node8&#45;&gt;Node12</title>
<path fill="none" stroke="midnightblue" d="M442.557,-225.538C454.62,-205.511 471.797,-178.395 489,-156 498.773,-143.278 510.814,-129.963 520.741,-119.51"/>
<polygon fill="midnightblue" stroke="midnightblue" points="439.508,-223.817 437.393,-234.198 445.521,-227.402 439.508,-223.817"/>
</g>
<!-- Node17 -->
<g id="node17" class="node"><title>Node17</title>
<g id="a_node17"><a xlink:href="sources_2_office_8cpp.html" target="_top" xlink:title="/home/gogo/rendu/tek2\l/cpp_plazza/sources/Office.cpp">
<polygon fill="none" stroke="black" points="497.5,-162 497.5,-192 652.5,-192 652.5,-162 497.5,-162"/>
<text text-anchor="start" x="505.5" y="-180" font-family="Helvetica,sans-Serif" font-size="10.00">/home/gogo/rendu/tek2</text>
<text text-anchor="middle" x="575" y="-169" font-family="Helvetica,sans-Serif" font-size="10.00">/cpp_plazza/sources/Office.cpp</text>
</a>
</g>
</g>
<!-- Node8&#45;&gt;Node17 -->
<g id="edge19" class="edge"><title>Node8&#45;&gt;Node17</title>
<path fill="none" stroke="midnightblue" d="M473.431,-229.807C497.706,-217.425 526.418,-202.78 547.111,-192.225"/>
<polygon fill="midnightblue" stroke="midnightblue" points="471.689,-226.766 464.371,-234.428 474.87,-233.002 471.689,-226.766"/>
</g>
<!-- Node11 -->
<g id="node11" class="node"><title>Node11</title>
<g id="a_node11"><a xlink:href="gui_2sources_2_process_manager_8cpp.html" target="_top" xlink:title="/home/gogo/rendu/tek2\l/cpp_plazza/gui/sources\l/ProcessManager.cpp">
<polygon fill="none" stroke="black" points="178,-78.5 178,-119.5 300,-119.5 300,-78.5 178,-78.5"/>
<text text-anchor="start" x="186" y="-107.5" font-family="Helvetica,sans-Serif" font-size="10.00">/home/gogo/rendu/tek2</text>
<text text-anchor="start" x="186" y="-96.5" font-family="Helvetica,sans-Serif" font-size="10.00">/cpp_plazza/gui/sources</text>
<text text-anchor="middle" x="239" y="-85.5" font-family="Helvetica,sans-Serif" font-size="10.00">/ProcessManager.cpp</text>
</a>
</g>
</g>
<!-- Node10&#45;&gt;Node11 -->
<g id="edge11" class="edge"><title>Node10&#45;&gt;Node11</title>
<path fill="none" stroke="midnightblue" d="M336.819,-151.627C317.142,-141.242 294.5,-129.292 275.958,-119.506"/>
<polygon fill="midnightblue" stroke="midnightblue" points="335.439,-154.856 345.916,-156.428 338.706,-148.665 335.439,-154.856"/>
</g>
<!-- Node10&#45;&gt;Node12 -->
<g id="edge12" class="edge"><title>Node10&#45;&gt;Node12</title>
<path fill="none" stroke="midnightblue" d="M432.478,-152.049C454.132,-141.566 479.215,-129.424 499.706,-119.506"/>
<polygon fill="midnightblue" stroke="midnightblue" points="430.907,-148.921 423.431,-156.428 433.957,-155.221 430.907,-148.921"/>
</g>
<!-- Node16 -->
<g id="node16" class="node"><title>Node16</title>
<g id="a_node16"><a xlink:href="sources_2_process_manager_8cpp.html" target="_top" xlink:title="/home/gogo/rendu/tek2\l/cpp_plazza/sources/Process\lManager.cpp">
<polygon fill="none" stroke="black" points="318,-78.5 318,-119.5 464,-119.5 464,-78.5 318,-78.5"/>
<text text-anchor="start" x="326" y="-107.5" font-family="Helvetica,sans-Serif" font-size="10.00">/home/gogo/rendu/tek2</text>
<text text-anchor="start" x="326" y="-96.5" font-family="Helvetica,sans-Serif" font-size="10.00">/cpp_plazza/sources/Process</text>
<text text-anchor="middle" x="391" y="-85.5" font-family="Helvetica,sans-Serif" font-size="10.00">Manager.cpp</text>
</a>
</g>
</g>
<!-- Node10&#45;&gt;Node16 -->
<g id="edge17" class="edge"><title>Node10&#45;&gt;Node16</title>
<path fill="none" stroke="midnightblue" d="M386.127,-146.297C387.074,-137.301 388.089,-127.653 388.947,-119.506"/>
<polygon fill="midnightblue" stroke="midnightblue" points="382.626,-146.117 385.06,-156.428 389.588,-146.849 382.626,-146.117"/>
</g>
<!-- Node12&#45;&gt;Node7 -->
<g id="edge13" class="edge"><title>Node12&#45;&gt;Node7</title>
<path fill="none" stroke="midnightblue" d="M472.073,-77.8835C388.652,-57.8125 365.421,-57.5841 285,-42 271.802,-39.4424 257.647,-36.6796 244.21,-34.0476"/>
<polygon fill="midnightblue" stroke="midnightblue" points="471.449,-81.3337 481.993,-80.2945 473.103,-74.5317 471.449,-81.3337"/>
</g>
<!-- Node13 -->
<g id="node13" class="node"><title>Node13</title>
<g id="a_node13"><a xlink:href="gui_2sources_2_reception_8cpp.html" target="_top" xlink:title="/home/gogo/rendu/tek2\l/cpp_plazza/gui/sources\l/Reception.cpp">
<polygon fill="none" stroke="black" points="294,-0.5 294,-41.5 416,-41.5 416,-0.5 294,-0.5"/>
<text text-anchor="start" x="302" y="-29.5" font-family="Helvetica,sans-Serif" font-size="10.00">/home/gogo/rendu/tek2</text>
<text text-anchor="start" x="302" y="-18.5" font-family="Helvetica,sans-Serif" font-size="10.00">/cpp_plazza/gui/sources</text>
<text text-anchor="middle" x="355" y="-7.5" font-family="Helvetica,sans-Serif" font-size="10.00">/Reception.cpp</text>
</a>
</g>
</g>
<!-- Node12&#45;&gt;Node13 -->
<g id="edge14" class="edge"><title>Node12&#45;&gt;Node13</title>
<path fill="none" stroke="midnightblue" d="M483.06,-74.6086C457.239,-64.0008 427.056,-51.6015 402.481,-41.5056"/>
<polygon fill="midnightblue" stroke="midnightblue" points="481.778,-77.8656 492.358,-78.4281 484.438,-71.3906 481.778,-77.8656"/>
</g>
<!-- Node12&#45;&gt;Node14 -->
<g id="edge15" class="edge"><title>Node12&#45;&gt;Node14</title>
<path fill="none" stroke="midnightblue" d="M590.245,-74.1335C616.456,-61.6835 647.636,-46.8731 670.052,-36.2254"/>
<polygon fill="midnightblue" stroke="midnightblue" points="588.735,-70.976 581.204,-78.4281 591.738,-77.299 588.735,-70.976"/>
</g>
<!-- Node15 -->
<g id="node15" class="node"><title>Node15</title>
<g id="a_node15"><a xlink:href="sources_2_reception_8cpp.html" target="_top" xlink:title="/home/gogo/rendu/tek2\l/cpp_plazza/sources/Reception.cpp">
<polygon fill="none" stroke="black" points="434.5,-6 434.5,-36 607.5,-36 607.5,-6 434.5,-6"/>
<text text-anchor="start" x="442.5" y="-24" font-family="Helvetica,sans-Serif" font-size="10.00">/home/gogo/rendu/tek2</text>
<text text-anchor="middle" x="521" y="-13" font-family="Helvetica,sans-Serif" font-size="10.00">/cpp_plazza/sources/Reception.cpp</text>
</a>
</g>
</g>
<!-- Node12&#45;&gt;Node15 -->
<g id="edge16" class="edge"><title>Node12&#45;&gt;Node15</title>
<path fill="none" stroke="midnightblue" d="M532.656,-68.6237C529.875,-57.5015 526.835,-45.3387 524.556,-36.2254"/>
<polygon fill="midnightblue" stroke="midnightblue" points="529.286,-69.5756 535.107,-78.4281 536.077,-67.8778 529.286,-69.5756"/>
</g>
</g>
</svg>
