<?xml version="1.0" encoding="UTF-8" standalone="no"?>
<!DOCTYPE svg PUBLIC "-//W3C//DTD SVG 1.1//EN"
 "http://www.w3.org/Graphics/SVG/1.1/DTD/svg11.dtd">
<!-- Generated by graphviz version 2.38.0 (20140413.2041)
 -->
<!-- Title: /home/gogo/rendu/tek2/cpp_plazza/includes/ProcessManager.hpp Pages: 1 -->
<!--zoomable 386 -->
<svg id="main" version="1.1" xmlns="http://www.w3.org/2000/svg" xmlns:xlink="http://www.w3.org/1999/xlink" xml:space="preserve" onload="init(evt)">
<style type="text/css"><![CDATA[
.edge:hover path { stroke: red; }
.edge:hover polygon { stroke: red; fill: red; }
]]></style>
<script type="text/javascript"><![CDATA[
var edges = document.getElementsByTagName('g');
if (edges && edges.length) {
  for (var i=0;i<edges.length;i++) {
    if (edges[i].id.substr(0,4)=='edge') {
      edges[i].setAttribute('class','edge');
    }
  }
}
]]></script>
        <defs>
                <circle id="rim" cx="0" cy="0" r="7"/>
                <circle id="rim2" cx="0" cy="0" r="3.5"/>
                <g id="zoomPlus">
                        <use xlink:href="#rim" fill="#404040">
                                <set attributeName="fill" to="#808080" begin="zoomplus.mouseover" end="zoomplus.mouseout"/>
                        </use>
                        <path d="M-4,0h8M0,-4v8" fill="none" stroke="white" stroke-width="1.5" pointer-events="none"/>
                </g>
                <g id="zoomMin">
                        <use xlink:href="#rim" fill="#404040">
                                <set attributeName="fill" to="#808080" begin="zoomminus.mouseover" end="zoomminus.mouseout"/>
                        </use>
                        <path d="M-4,0h8" fill="none" stroke="white" stroke-width="1.5" pointer-events="none"/>
                </g>
                <g id="dirArrow">
                        <path fill="none" stroke="white" stroke-width="1.5" d="M0,-3.0v7 M-2.5,-0.5L0,-3.0L2.5,-0.5"/>
                </g>
               <g id="resetDef">
                       <use xlink:href="#rim2" fill="#404040">
                               <set attributeName="fill" to="#808080" begin="reset.mouseover" end="reset.mouseout"/>
                       </use>
               </g>
        </defs>

<script type="text/javascript">
var viewWidth = 1196;
var viewHeight = 386;
var sectionId = 'dynsection-0';
</script>
<script xlink:href="svgpan.js"/>
<svg id="graph" class="graph">
<g id="viewport">
<title>/home/gogo/rendu/tek2/cpp_plazza/includes/ProcessManager.hpp</title>
<!-- Node1 -->
<g id="node1" class="node"><title>Node1</title>
<polygon fill="#bfbfbf" stroke="black" points="964,-336.5 964,-377.5 1080,-377.5 1080,-336.5 964,-336.5"/>
<text text-anchor="start" x="972" y="-365.5" font-family="Helvetica,sans-Serif" font-size="10.00">/home/gogo/rendu/tek2</text>
<text text-anchor="start" x="972" y="-354.5" font-family="Helvetica,sans-Serif" font-size="10.00">/cpp_plazza/includes</text>
<text text-anchor="middle" x="1022" y="-343.5" font-family="Helvetica,sans-Serif" font-size="10.00">/ProcessManager.hpp</text>
</g>
<!-- Node2 -->
<g id="node2" class="node"><title>Node2</title>
<g id="a_node2"><a xlink:href="includes_2_office_8hpp.html" target="_top" xlink:title="Office.hpp">
<polygon fill="none" stroke="black" points="882,-280.5 882,-299.5 944,-299.5 944,-280.5 882,-280.5"/>
<text text-anchor="middle" x="913" y="-287.5" font-family="Helvetica,sans-Serif" font-size="10.00">Office.hpp</text>
</a>
</g>
</g>
<!-- Node1&#45;&gt;Node2 -->
<g id="edge1" class="edge"><title>Node1&#45;&gt;Node2</title>
<path fill="none" stroke="midnightblue" d="M989.296,-336.498C972.263,-326.34 951.829,-314.155 936.397,-304.952"/>
<polygon fill="midnightblue" stroke="midnightblue" points="937.891,-301.768 927.51,-299.652 934.306,-307.78 937.891,-301.768"/>
</g>
<!-- Node29 -->
<g id="node29" class="node"><title>Node29</title>
<g id="a_node29"><a xlink:href="includes_2_error_8hpp.html" target="_top" xlink:title="Error.hpp">
<polygon fill="none" stroke="black" points="1072,-280.5 1072,-299.5 1128,-299.5 1128,-280.5 1072,-280.5"/>
<text text-anchor="middle" x="1100" y="-287.5" font-family="Helvetica,sans-Serif" font-size="10.00">Error.hpp</text>
</a>
</g>
</g>
<!-- Node1&#45;&gt;Node29 -->
<g id="edge41" class="edge"><title>Node1&#45;&gt;Node29</title>
<path fill="none" stroke="midnightblue" d="M1045.4,-336.498C1057.02,-326.82 1070.84,-315.3 1081.67,-306.274"/>
<polygon fill="midnightblue" stroke="midnightblue" points="1084.18,-308.743 1089.62,-299.652 1079.69,-303.366 1084.18,-308.743"/>
</g>
<!-- Node3 -->
<g id="node3" class="node"><title>Node3</title>
<polygon fill="none" stroke="#bfbfbf" points="848,-224.5 848,-243.5 916,-243.5 916,-224.5 848,-224.5"/>
<text text-anchor="middle" x="882" y="-231.5" font-family="Helvetica,sans-Serif" font-size="10.00">sys/types.h</text>
</g>
<!-- Node2&#45;&gt;Node3 -->
<g id="edge2" class="edge"><title>Node2&#45;&gt;Node3</title>
<path fill="none" stroke="midnightblue" d="M907.881,-280.083C903.592,-272.613 897.342,-261.724 892.058,-252.52"/>
<polygon fill="midnightblue" stroke="midnightblue" points="895.038,-250.681 887.024,-243.751 888.967,-254.166 895.038,-250.681"/>
</g>
<!-- Node4 -->
<g id="node4" class="node"><title>Node4</title>
<polygon fill="none" stroke="#bfbfbf" points="867,-56.5 867,-75.5 911,-75.5 911,-56.5 867,-56.5"/>
<text text-anchor="middle" x="889" y="-63.5" font-family="Helvetica,sans-Serif" font-size="10.00">vector</text>
</g>
<!-- Node2&#45;&gt;Node4 -->
<g id="edge3" class="edge"><title>Node2&#45;&gt;Node4</title>
<path fill="none" stroke="midnightblue" d="M916.088,-280.173C919.052,-271.198 923.319,-256.827 925,-244 926.155,-235.186 925.823,-232.851 925,-224 920.313,-173.572 916.704,-161.026 904,-112 901.673,-103.021 898.49,-93.2309 895.654,-85.0826"/>
<polygon fill="midnightblue" stroke="midnightblue" points="898.897,-83.7554 892.228,-75.5224 892.307,-86.117 898.897,-83.7554"/>
</g>
<!-- Node5 -->
<g id="node5" class="node"><title>Node5</title>
<polygon fill="none" stroke="#bfbfbf" points="407,-224.5 407,-243.5 453,-243.5 453,-224.5 407,-224.5"/>
<text text-anchor="middle" x="430" y="-231.5" font-family="Helvetica,sans-Serif" font-size="10.00">chrono</text>
</g>
<!-- Node2&#45;&gt;Node5 -->
<g id="edge4" class="edge"><title>Node2&#45;&gt;Node5</title>
<path fill="none" stroke="midnightblue" d="M881.924,-287.677C810.007,-284.235 626.493,-273.282 463.532,-243.757"/>
<polygon fill="midnightblue" stroke="midnightblue" points="463.793,-240.246 453.325,-241.878 462.526,-247.13 463.793,-240.246"/>
</g>
<!-- Node6 -->
<g id="node6" class="node"><title>Node6</title>
<g id="a_node6"><a xlink:href="includes_2_connector_pipe_8hpp.html" target="_top" xlink:title="ConnectorPipe.hpp">
<polygon fill="none" stroke="black" points="972,-112.5 972,-131.5 1072,-131.5 1072,-112.5 972,-112.5"/>
<text text-anchor="middle" x="1022" y="-119.5" font-family="Helvetica,sans-Serif" font-size="10.00">ConnectorPipe.hpp</text>
</a>
</g>
</g>
<!-- Node2&#45;&gt;Node6 -->
<g id="edge5" class="edge"><title>Node2&#45;&gt;Node6</title>
<path fill="none" stroke="midnightblue" d="M923.176,-280.44C932.92,-271.894 947.632,-258.044 958,-244 982.837,-210.359 1003.77,-165.798 1014.43,-141.222"/>
<polygon fill="midnightblue" stroke="midnightblue" points="1017.77,-142.297 1018.46,-131.725 1011.33,-139.559 1017.77,-142.297"/>
</g>
<!-- Node9 -->
<g id="node9" class="node"><title>Node9</title>
<g id="a_node9"><a xlink:href="includes_2_thread_pool_8hpp.html" target="_top" xlink:title="ThreadPool.hpp">
<polygon fill="none" stroke="black" points="471.5,-224.5 471.5,-243.5 556.5,-243.5 556.5,-224.5 471.5,-224.5"/>
<text text-anchor="middle" x="514" y="-231.5" font-family="Helvetica,sans-Serif" font-size="10.00">ThreadPool.hpp</text>
</a>
</g>
</g>
<!-- Node2&#45;&gt;Node9 -->
<g id="edge9" class="edge"><title>Node2&#45;&gt;Node9</title>
<path fill="none" stroke="midnightblue" d="M881.691,-284.763C813.529,-275.538 651.07,-253.551 566.774,-242.142"/>
<polygon fill="midnightblue" stroke="midnightblue" points="567.026,-238.645 556.647,-240.772 566.087,-245.581 567.026,-238.645"/>
</g>
<!-- Node7 -->
<g id="node7" class="node"><title>Node7</title>
<polygon fill="none" stroke="#bfbfbf" points="817.5,-0.5 817.5,-19.5 858.5,-19.5 858.5,-0.5 817.5,-0.5"/>
<text text-anchor="middle" x="838" y="-7.5" font-family="Helvetica,sans-Serif" font-size="10.00">string</text>
</g>
<!-- Node6&#45;&gt;Node7 -->
<g id="edge6" class="edge"><title>Node6&#45;&gt;Node7</title>
<path fill="none" stroke="midnightblue" d="M1021.84,-112.056C1021.1,-98.0863 1017.6,-71.124 1002,-56 965.926,-21.017 905.329,-12.6597 868.762,-10.9873"/>
<polygon fill="midnightblue" stroke="midnightblue" points="868.788,-7.48643 858.682,-10.6683 868.566,-14.4829 868.788,-7.48643"/>
</g>
<!-- Node8 -->
<g id="node8" class="node"><title>Node8</title>
<g id="a_node8"><a xlink:href="includes_2_config_8hpp.html" target="_top" xlink:title="Config.hpp">
<polygon fill="none" stroke="black" points="929,-56.5 929,-75.5 993,-75.5 993,-56.5 929,-56.5"/>
<text text-anchor="middle" x="961" y="-63.5" font-family="Helvetica,sans-Serif" font-size="10.00">Config.hpp</text>
</a>
</g>
</g>
<!-- Node6&#45;&gt;Node8 -->
<g id="edge7" class="edge"><title>Node6&#45;&gt;Node8</title>
<path fill="none" stroke="midnightblue" d="M1012.2,-112.324C1003.18,-104.341 989.594,-92.3128 978.682,-82.6529"/>
<polygon fill="midnightblue" stroke="midnightblue" points="980.787,-79.8416 970.979,-75.8339 976.147,-85.083 980.787,-79.8416"/>
</g>
<!-- Node8&#45;&gt;Node7 -->
<g id="edge8" class="edge"><title>Node8&#45;&gt;Node7</title>
<path fill="none" stroke="midnightblue" d="M941.51,-56.4435C921.358,-47.5961 889.677,-33.6875 866.669,-23.5865"/>
<polygon fill="midnightblue" stroke="midnightblue" points="867.962,-20.3316 857.399,-19.5164 865.148,-26.7411 867.962,-20.3316"/>
</g>
<!-- Node9&#45;&gt;Node4 -->
<g id="edge10" class="edge"><title>Node9&#45;&gt;Node4</title>
<path fill="none" stroke="midnightblue" d="M556.76,-227.777C645.721,-215.955 845.882,-184.053 887,-132 897.161,-119.137 896.44,-99.9573 893.912,-85.763"/>
<polygon fill="midnightblue" stroke="midnightblue" points="897.254,-84.6683 891.67,-75.6642 890.42,-86.1851 897.254,-84.6683"/>
</g>
<!-- Node10 -->
<g id="node10" class="node"><title>Node10</title>
<polygon fill="none" stroke="#bfbfbf" points="573,-168.5 573,-187.5 617,-187.5 617,-168.5 573,-168.5"/>
<text text-anchor="middle" x="595" y="-175.5" font-family="Helvetica,sans-Serif" font-size="10.00">mutex</text>
</g>
<!-- Node9&#45;&gt;Node10 -->
<g id="edge11" class="edge"><title>Node9&#45;&gt;Node10</title>
<path fill="none" stroke="midnightblue" d="M527.014,-224.324C539.532,-215.979 558.682,-203.212 573.471,-193.352"/>
<polygon fill="midnightblue" stroke="midnightblue" points="575.639,-196.114 582.018,-187.655 571.756,-190.289 575.639,-196.114"/>
</g>
<!-- Node11 -->
<g id="node11" class="node"><title>Node11</title>
<polygon fill="none" stroke="#bfbfbf" points="105.5,-168.5 105.5,-187.5 148.5,-187.5 148.5,-168.5 105.5,-168.5"/>
<text text-anchor="middle" x="127" y="-175.5" font-family="Helvetica,sans-Serif" font-size="10.00">queue</text>
</g>
<!-- Node9&#45;&gt;Node11 -->
<g id="edge12" class="edge"><title>Node9&#45;&gt;Node11</title>
<path fill="none" stroke="midnightblue" d="M471.461,-225.454C468.263,-224.943 465.082,-224.452 462,-224 329.568,-204.58 294.628,-212.279 163,-188 161.535,-187.73 160.041,-187.435 158.535,-187.122"/>
<polygon fill="midnightblue" stroke="midnightblue" points="159.133,-183.669 148.606,-184.867 157.583,-190.495 159.133,-183.669"/>
</g>
<!-- Node12 -->
<g id="node12" class="node"><title>Node12</title>
<g id="a_node12"><a xlink:href="includes_2_thread_8hpp.html" target="_top" xlink:title="Thread.hpp">
<polygon fill="none" stroke="black" points="193.5,-112.5 193.5,-131.5 258.5,-131.5 258.5,-112.5 193.5,-112.5"/>
<text text-anchor="middle" x="226" y="-119.5" font-family="Helvetica,sans-Serif" font-size="10.00">Thread.hpp</text>
</a>
</g>
</g>
<!-- Node9&#45;&gt;Node12 -->
<g id="edge13" class="edge"><title>Node9&#45;&gt;Node12</title>
<path fill="none" stroke="midnightblue" d="M491.401,-224.368C440.508,-204.93 316.784,-157.674 258.015,-135.228"/>
<polygon fill="midnightblue" stroke="midnightblue" points="259.085,-131.89 248.494,-131.591 256.587,-138.429 259.085,-131.89"/>
</g>
<!-- Node14 -->
<g id="node14" class="node"><title>Node14</title>
<g id="a_node14"><a xlink:href="includes_2_mutex_8hpp.html" target="_top" xlink:title="Mutex.hpp">
<polygon fill="none" stroke="black" points="0,-112.5 0,-131.5 62,-131.5 62,-112.5 0,-112.5"/>
<text text-anchor="middle" x="31" y="-119.5" font-family="Helvetica,sans-Serif" font-size="10.00">Mutex.hpp</text>
</a>
</g>
</g>
<!-- Node9&#45;&gt;Node14 -->
<g id="edge15" class="edge"><title>Node9&#45;&gt;Node14</title>
<path fill="none" stroke="midnightblue" d="M471.454,-225.505C468.257,-224.982 465.079,-224.475 462,-224 344.093,-205.824 309.823,-223.732 196,-188 177.415,-182.166 174.877,-175.737 157,-168 127.642,-155.294 93.4058,-143.236 68.0367,-134.805"/>
<polygon fill="midnightblue" stroke="midnightblue" points="69.0277,-131.447 58.4348,-131.647 66.8403,-138.096 69.0277,-131.447"/>
</g>
<!-- Node15 -->
<g id="node15" class="node"><title>Node15</title>
<g id="a_node15"><a xlink:href="includes_2_cond_var_8hpp.html" target="_top" xlink:title="CondVar.hpp">
<polygon fill="none" stroke="black" points="205,-168.5 205,-187.5 279,-187.5 279,-168.5 205,-168.5"/>
<text text-anchor="middle" x="242" y="-175.5" font-family="Helvetica,sans-Serif" font-size="10.00">CondVar.hpp</text>
</a>
</g>
</g>
<!-- Node9&#45;&gt;Node15 -->
<g id="edge16" class="edge"><title>Node9&#45;&gt;Node15</title>
<path fill="none" stroke="midnightblue" d="M471.201,-224.503C421.69,-214.674 340.427,-198.541 289.143,-188.359"/>
<polygon fill="midnightblue" stroke="midnightblue" points="289.794,-184.92 279.304,-186.406 288.431,-191.786 289.794,-184.92"/>
</g>
<!-- Node17 -->
<g id="node17" class="node"><title>Node17</title>
<g id="a_node17"><a xlink:href="includes_2_worker_8hpp.html" target="_top" xlink:title="Worker.hpp">
<polygon fill="none" stroke="black" points="449.5,-168.5 449.5,-187.5 516.5,-187.5 516.5,-168.5 449.5,-168.5"/>
<text text-anchor="middle" x="483" y="-175.5" font-family="Helvetica,sans-Serif" font-size="10.00">Worker.hpp</text>
</a>
</g>
</g>
<!-- Node9&#45;&gt;Node17 -->
<g id="edge19" class="edge"><title>Node9&#45;&gt;Node17</title>
<path fill="none" stroke="midnightblue" d="M508.881,-224.083C504.592,-216.613 498.342,-205.724 493.058,-196.52"/>
<polygon fill="midnightblue" stroke="midnightblue" points="496.038,-194.681 488.024,-187.751 489.967,-198.166 496.038,-194.681"/>
</g>
<!-- Node23 -->
<g id="node23" class="node"><title>Node23</title>
<g id="a_node23"><a xlink:href="includes_2_command_8hpp.html" target="_top" xlink:title="Command.hpp">
<polygon fill="none" stroke="black" points="798,-112.5 798,-131.5 878,-131.5 878,-112.5 798,-112.5"/>
<text text-anchor="middle" x="838" y="-119.5" font-family="Helvetica,sans-Serif" font-size="10.00">Command.hpp</text>
</a>
</g>
</g>
<!-- Node9&#45;&gt;Node23 -->
<g id="edge40" class="edge"><title>Node9&#45;&gt;Node23</title>
<path fill="none" stroke="midnightblue" d="M518.067,-224.116C525.161,-209.72 541.245,-181.544 564,-168 648.304,-117.823 686.757,-147.172 787.913,-132.049"/>
<polygon fill="midnightblue" stroke="midnightblue" points="788.585,-135.486 797.902,-130.442 787.473,-128.575 788.585,-135.486"/>
</g>
<!-- Node13 -->
<g id="node13" class="node"><title>Node13</title>
<polygon fill="none" stroke="#bfbfbf" points="204,-56.5 204,-75.5 248,-75.5 248,-56.5 204,-56.5"/>
<text text-anchor="middle" x="226" y="-63.5" font-family="Helvetica,sans-Serif" font-size="10.00">thread</text>
</g>
<!-- Node12&#45;&gt;Node13 -->
<g id="edge14" class="edge"><title>Node12&#45;&gt;Node13</title>
<path fill="none" stroke="midnightblue" d="M226,-112.083C226,-105.006 226,-94.8611 226,-85.9865"/>
<polygon fill="midnightblue" stroke="midnightblue" points="229.5,-85.751 226,-75.7511 222.5,-85.7511 229.5,-85.751"/>
</g>
<!-- Node15&#45;&gt;Node14 -->
<g id="edge18" class="edge"><title>Node15&#45;&gt;Node14</title>
<path fill="none" stroke="midnightblue" d="M208.566,-168.444C171.58,-158.978 111.956,-143.719 72.1346,-133.527"/>
<polygon fill="midnightblue" stroke="midnightblue" points="72.7692,-130.077 62.2136,-130.988 71.0336,-136.858 72.7692,-130.077"/>
</g>
<!-- Node16 -->
<g id="node16" class="node"><title>Node16</title>
<polygon fill="none" stroke="#bfbfbf" points="80.5,-112.5 80.5,-131.5 175.5,-131.5 175.5,-112.5 80.5,-112.5"/>
<text text-anchor="middle" x="128" y="-119.5" font-family="Helvetica,sans-Serif" font-size="10.00">condition_variable</text>
</g>
<!-- Node15&#45;&gt;Node16 -->
<g id="edge17" class="edge"><title>Node15&#45;&gt;Node16</title>
<path fill="none" stroke="midnightblue" d="M223.936,-168.444C205.425,-159.675 176.419,-145.935 155.145,-135.858"/>
<polygon fill="midnightblue" stroke="midnightblue" points="156.515,-132.634 145.979,-131.516 153.518,-138.96 156.515,-132.634"/>
</g>
<!-- Node17&#45;&gt;Node12 -->
<g id="edge22" class="edge"><title>Node17&#45;&gt;Node12</title>
<path fill="none" stroke="midnightblue" d="M449.304,-170.096C408.696,-161.751 338.132,-147.168 268.485,-132.303"/>
<polygon fill="midnightblue" stroke="midnightblue" points="269.178,-128.872 258.667,-130.204 267.714,-135.717 269.178,-128.872"/>
</g>
<!-- Node18 -->
<g id="node18" class="node"><title>Node18</title>
<polygon fill="none" stroke="#bfbfbf" points="418.5,-112.5 418.5,-131.5 459.5,-131.5 459.5,-112.5 418.5,-112.5"/>
<text text-anchor="middle" x="439" y="-119.5" font-family="Helvetica,sans-Serif" font-size="10.00">regex</text>
</g>
<!-- Node17&#45;&gt;Node18 -->
<g id="edge20" class="edge"><title>Node17&#45;&gt;Node18</title>
<path fill="none" stroke="midnightblue" d="M475.734,-168.083C469.455,-160.377 460.212,-149.033 452.569,-139.653"/>
<polygon fill="midnightblue" stroke="midnightblue" points="455.161,-137.293 446.131,-131.751 449.734,-141.714 455.161,-137.293"/>
</g>
<!-- Node19 -->
<g id="node19" class="node"><title>Node19</title>
<polygon fill="none" stroke="#bfbfbf" points="346,-112.5 346,-131.5 400,-131.5 400,-112.5 346,-112.5"/>
<text text-anchor="middle" x="373" y="-119.5" font-family="Helvetica,sans-Serif" font-size="10.00">iostream</text>
</g>
<!-- Node17&#45;&gt;Node19 -->
<g id="edge21" class="edge"><title>Node17&#45;&gt;Node19</title>
<path fill="none" stroke="midnightblue" d="M465.327,-168.324C447.606,-159.625 420.097,-146.12 399.712,-136.113"/>
<polygon fill="midnightblue" stroke="midnightblue" points="401.149,-132.919 390.63,-131.655 398.064,-139.203 401.149,-132.919"/>
</g>
<!-- Node20 -->
<g id="node20" class="node"><title>Node20</title>
<g id="a_node20"><a xlink:href="includes_2_file_8hpp.html" target="_top" xlink:title="File.hpp">
<polygon fill="none" stroke="black" points="276.5,-112.5 276.5,-131.5 327.5,-131.5 327.5,-112.5 276.5,-112.5"/>
<text text-anchor="middle" x="302" y="-119.5" font-family="Helvetica,sans-Serif" font-size="10.00">File.hpp</text>
</a>
</g>
</g>
<!-- Node17&#45;&gt;Node20 -->
<g id="edge23" class="edge"><title>Node17&#45;&gt;Node20</title>
<path fill="none" stroke="midnightblue" d="M454.32,-168.444C422.702,-159.011 371.801,-143.824 337.643,-133.634"/>
<polygon fill="midnightblue" stroke="midnightblue" points="338.203,-130.148 327.619,-130.643 336.201,-136.856 338.203,-130.148"/>
</g>
<!-- Node17&#45;&gt;Node23 -->
<g id="edge27" class="edge"><title>Node17&#45;&gt;Node23</title>
<path fill="none" stroke="midnightblue" d="M516.534,-170.506C521.382,-169.627 526.314,-168.766 531,-168 642.137,-149.837 673.03,-150.415 788.013,-132.098"/>
<polygon fill="midnightblue" stroke="midnightblue" points="788.595,-135.55 797.913,-130.508 787.484,-128.638 788.595,-135.55"/>
</g>
<!-- Node25 -->
<g id="node25" class="node"><title>Node25</title>
<g id="a_node25"><a xlink:href="includes_2_xor_cypher_8hpp.html" target="_top" xlink:title="XorCypher.hpp">
<polygon fill="none" stroke="black" points="594,-112.5 594,-131.5 676,-131.5 676,-112.5 594,-112.5"/>
<text text-anchor="middle" x="635" y="-119.5" font-family="Helvetica,sans-Serif" font-size="10.00">XorCypher.hpp</text>
</a>
</g>
</g>
<!-- Node17&#45;&gt;Node25 -->
<g id="edge31" class="edge"><title>Node17&#45;&gt;Node25</title>
<path fill="none" stroke="midnightblue" d="M507.085,-168.444C532.545,-159.399 572.894,-145.064 601.459,-134.916"/>
<polygon fill="midnightblue" stroke="midnightblue" points="602.777,-138.162 611.028,-131.516 600.433,-131.566 602.777,-138.162"/>
</g>
<!-- Node27 -->
<g id="node27" class="node"><title>Node27</title>
<g id="a_node27"><a xlink:href="includes_2_caesar_cypher_8hpp.html" target="_top" xlink:title="CaesarCypher.hpp">
<polygon fill="none" stroke="black" points="478,-112.5 478,-131.5 576,-131.5 576,-112.5 478,-112.5"/>
<text text-anchor="middle" x="527" y="-119.5" font-family="Helvetica,sans-Serif" font-size="10.00">CaesarCypher.hpp</text>
</a>
</g>
</g>
<!-- Node17&#45;&gt;Node27 -->
<g id="edge34" class="edge"><title>Node17&#45;&gt;Node27</title>
<path fill="none" stroke="midnightblue" d="M490.266,-168.083C496.545,-160.377 505.788,-149.033 513.431,-139.653"/>
<polygon fill="midnightblue" stroke="midnightblue" points="516.266,-141.714 519.869,-131.751 510.839,-137.293 516.266,-141.714"/>
</g>
<!-- Node28 -->
<g id="node28" class="node"><title>Node28</title>
<g id="a_node28"><a xlink:href="includes_2_xor_cracker_8hpp.html" target="_top" xlink:title="XorCracker.hpp">
<polygon fill="none" stroke="black" points="694.5,-112.5 694.5,-131.5 779.5,-131.5 779.5,-112.5 694.5,-112.5"/>
<text text-anchor="middle" x="737" y="-119.5" font-family="Helvetica,sans-Serif" font-size="10.00">XorCracker.hpp</text>
</a>
</g>
</g>
<!-- Node17&#45;&gt;Node28 -->
<g id="edge36" class="edge"><title>Node17&#45;&gt;Node28</title>
<path fill="none" stroke="midnightblue" d="M516.729,-169.829C560.285,-160.569 636.462,-144.374 686.822,-133.668"/>
<polygon fill="midnightblue" stroke="midnightblue" points="687.79,-137.04 696.844,-131.537 686.335,-130.193 687.79,-137.04"/>
</g>
<!-- Node20&#45;&gt;Node7 -->
<g id="edge24" class="edge"><title>Node20&#45;&gt;Node7</title>
<path fill="none" stroke="midnightblue" d="M327.59,-114.316C330.755,-113.52 333.949,-112.731 337,-112 448.574,-85.2654 476.526,-78.651 589,-56 667.307,-40.2297 759.998,-24.1592 807.131,-16.1713"/>
<polygon fill="midnightblue" stroke="midnightblue" points="808.01,-19.5724 817.287,-14.4558 806.844,-12.6702 808.01,-19.5724"/>
</g>
<!-- Node21 -->
<g id="node21" class="node"><title>Node21</title>
<polygon fill="none" stroke="#bfbfbf" points="341,-56.5 341,-75.5 391,-75.5 391,-56.5 341,-56.5"/>
<text text-anchor="middle" x="366" y="-63.5" font-family="Helvetica,sans-Serif" font-size="10.00">fstream</text>
</g>
<!-- Node20&#45;&gt;Node21 -->
<g id="edge25" class="edge"><title>Node20&#45;&gt;Node21</title>
<path fill="none" stroke="midnightblue" d="M312.283,-112.324C321.836,-104.263 336.28,-92.0765 347.784,-82.3695"/>
<polygon fill="midnightblue" stroke="midnightblue" points="350.144,-84.9577 355.53,-75.8339 345.63,-79.6076 350.144,-84.9577"/>
</g>
<!-- Node22 -->
<g id="node22" class="node"><title>Node22</title>
<polygon fill="none" stroke="#bfbfbf" points="271,-56.5 271,-75.5 323,-75.5 323,-56.5 271,-56.5"/>
<text text-anchor="middle" x="297" y="-63.5" font-family="Helvetica,sans-Serif" font-size="10.00">sstream</text>
</g>
<!-- Node20&#45;&gt;Node22 -->
<g id="edge26" class="edge"><title>Node20&#45;&gt;Node22</title>
<path fill="none" stroke="midnightblue" d="M301.174,-112.083C300.519,-105.006 299.58,-94.8611 298.758,-85.9865"/>
<polygon fill="midnightblue" stroke="midnightblue" points="302.217,-85.3858 297.81,-75.7511 295.247,-86.0312 302.217,-85.3858"/>
</g>
<!-- Node23&#45;&gt;Node4 -->
<g id="edge29" class="edge"><title>Node23&#45;&gt;Node4</title>
<path fill="none" stroke="midnightblue" d="M846.422,-112.083C853.848,-104.22 864.852,-92.5688 873.812,-83.0813"/>
<polygon fill="midnightblue" stroke="midnightblue" points="876.413,-85.4244 880.735,-75.7511 871.324,-80.618 876.413,-85.4244"/>
</g>
<!-- Node23&#45;&gt;Node7 -->
<g id="edge28" class="edge"><title>Node23&#45;&gt;Node7</title>
<path fill="none" stroke="midnightblue" d="M838,-112.368C838,-94.617 838,-53.6664 838,-29.5974"/>
<polygon fill="midnightblue" stroke="midnightblue" points="841.5,-29.5914 838,-19.5914 834.5,-29.5915 841.5,-29.5914"/>
</g>
<!-- Node24 -->
<g id="node24" class="node"><title>Node24</title>
<polygon fill="none" stroke="#bfbfbf" points="770.5,-56.5 770.5,-75.5 805.5,-75.5 805.5,-56.5 770.5,-56.5"/>
<text text-anchor="middle" x="788" y="-63.5" font-family="Helvetica,sans-Serif" font-size="10.00">map</text>
</g>
<!-- Node23&#45;&gt;Node24 -->
<g id="edge30" class="edge"><title>Node23&#45;&gt;Node24</title>
<path fill="none" stroke="midnightblue" d="M829.744,-112.083C822.535,-104.298 811.89,-92.8015 803.154,-83.3665"/>
<polygon fill="midnightblue" stroke="midnightblue" points="805.465,-80.7108 796.103,-75.7511 800.329,-85.4666 805.465,-80.7108"/>
</g>
<!-- Node26 -->
<g id="node26" class="node"><title>Node26</title>
<g id="a_node26"><a xlink:href="includes_2_a_cypher_8hpp.html" target="_top" xlink:title="ACypher.hpp">
<polygon fill="none" stroke="black" points="598,-56.5 598,-75.5 672,-75.5 672,-56.5 598,-56.5"/>
<text text-anchor="middle" x="635" y="-63.5" font-family="Helvetica,sans-Serif" font-size="10.00">ACypher.hpp</text>
</a>
</g>
</g>
<!-- Node25&#45;&gt;Node26 -->
<g id="edge32" class="edge"><title>Node25&#45;&gt;Node26</title>
<path fill="none" stroke="midnightblue" d="M635,-112.083C635,-105.006 635,-94.8611 635,-85.9865"/>
<polygon fill="midnightblue" stroke="midnightblue" points="638.5,-85.751 635,-75.7511 631.5,-85.7511 638.5,-85.751"/>
</g>
<!-- Node26&#45;&gt;Node7 -->
<g id="edge33" class="edge"><title>Node26&#45;&gt;Node7</title>
<path fill="none" stroke="midnightblue" d="M667.166,-56.4435C705.692,-46.1953 769.745,-29.1565 807.511,-19.1103"/>
<polygon fill="midnightblue" stroke="midnightblue" points="808.659,-22.4268 817.423,-16.4736 806.86,-15.662 808.659,-22.4268"/>
</g>
<!-- Node27&#45;&gt;Node26 -->
<g id="edge35" class="edge"><title>Node27&#45;&gt;Node26</title>
<path fill="none" stroke="midnightblue" d="M544.352,-112.324C561.672,-103.664 588.515,-90.2424 608.502,-80.249"/>
<polygon fill="midnightblue" stroke="midnightblue" points="610.312,-83.2572 617.691,-75.6545 607.181,-76.9962 610.312,-83.2572"/>
</g>
<!-- Node28&#45;&gt;Node4 -->
<g id="edge38" class="edge"><title>Node28&#45;&gt;Node4</title>
<path fill="none" stroke="midnightblue" d="M761.085,-112.444C786.994,-103.239 828.323,-88.5565 856.96,-78.3826"/>
<polygon fill="midnightblue" stroke="midnightblue" points="858.263,-81.6341 866.514,-74.9883 855.92,-75.038 858.263,-81.6341"/>
</g>
<!-- Node28&#45;&gt;Node7 -->
<g id="edge37" class="edge"><title>Node28&#45;&gt;Node7</title>
<path fill="none" stroke="midnightblue" d="M738.412,-112.499C741.007,-99.1366 747.64,-72.991 762,-56 774.295,-41.4523 792.553,-30.4274 808.091,-22.9318"/>
<polygon fill="midnightblue" stroke="midnightblue" points="809.687,-26.0509 817.337,-18.7209 806.786,-19.6805 809.687,-26.0509"/>
</g>
<!-- Node28&#45;&gt;Node24 -->
<g id="edge39" class="edge"><title>Node28&#45;&gt;Node24</title>
<path fill="none" stroke="midnightblue" d="M745.422,-112.083C752.848,-104.22 763.852,-92.5688 772.812,-83.0813"/>
<polygon fill="midnightblue" stroke="midnightblue" points="775.413,-85.4244 779.735,-75.7511 770.324,-80.618 775.413,-85.4244"/>
</g>
<!-- Node29&#45;&gt;Node7 -->
<g id="edge42" class="edge"><title>Node29&#45;&gt;Node7</title>
<path fill="none" stroke="midnightblue" d="M1100,-280.442C1100,-261.936 1100,-216.812 1100,-179 1100,-179 1100,-179 1100,-121 1100,-21.7262 938.108,-10.5551 868.841,-10.3188"/>
<polygon fill="midnightblue" stroke="midnightblue" points="868.544,-6.8199 858.559,-10.3629 868.574,-13.8198 868.544,-6.8199"/>
</g>
<!-- Node30 -->
<g id="node30" class="node"><title>Node30</title>
<polygon fill="none" stroke="#bfbfbf" points="1128.5,-224.5 1128.5,-243.5 1187.5,-243.5 1187.5,-224.5 1128.5,-224.5"/>
<text text-anchor="middle" x="1158" y="-231.5" font-family="Helvetica,sans-Serif" font-size="10.00">exception</text>
</g>
<!-- Node29&#45;&gt;Node30 -->
<g id="edge43" class="edge"><title>Node29&#45;&gt;Node30</title>
<path fill="none" stroke="midnightblue" d="M1109.32,-280.324C1117.89,-272.341 1130.81,-260.313 1141.19,-250.653"/>
<polygon fill="midnightblue" stroke="midnightblue" points="1143.58,-253.21 1148.51,-243.834 1138.81,-248.086 1143.58,-253.21"/>
</g>
</g>
</svg>
        <g id="navigator" transform="translate(0 0)" fill="#404254">
                <rect fill="#f2f5e9" fill-opacity="0.5" stroke="#606060" stroke-width=".5" x="0" y="0" width="60" height="60"/>
                <use id="zoomplus" xlink:href="#zoomPlus" x="17" y="9" onmousedown="handleZoom(evt,'in')"/>
                <use id="zoomminus" xlink:href="#zoomMin" x="42" y="9" onmousedown="handleZoom(evt,'out')"/>
                <use id="reset" xlink:href="#resetDef" x="30" y="36" onmousedown="handleReset()"/>
                <g id="arrowUp" xlink:href="#dirArrow" transform="translate(30 24)" onmousedown="handlePan(0,-1)">
                  <use xlink:href="#rim" fill="#404040">
                        <set attributeName="fill" to="#808080" begin="arrowUp.mouseover" end="arrowUp.mouseout"/>
                  </use>
                  <path fill="none" stroke="white" stroke-width="1.5" d="M0,-3.0v7 M-2.5,-0.5L0,-3.0L2.5,-0.5"/>
                </g>
                <g id="arrowRight" xlink:href="#dirArrow" transform="rotate(90) translate(36 -43)" onmousedown="handlePan(1,0)">
                  <use xlink:href="#rim" fill="#404040">
                        <set attributeName="fill" to="#808080" begin="arrowRight.mouseover" end="arrowRight.mouseout"/>
                  </use>
                  <path fill="none" stroke="white" stroke-width="1.5" d="M0,-3.0v7 M-2.5,-0.5L0,-3.0L2.5,-0.5"/>
                </g>
                <g id="arrowDown" xlink:href="#dirArrow" transform="rotate(180) translate(-30 -48)" onmousedown="handlePan(0,1)">
                  <use xlink:href="#rim" fill="#404040">
                        <set attributeName="fill" to="#808080" begin="arrowDown.mouseover" end="arrowDown.mouseout"/>
                  </use>
                  <path fill="none" stroke="white" stroke-width="1.5" d="M0,-3.0v7 M-2.5,-0.5L0,-3.0L2.5,-0.5"/>
                </g>
                <g id="arrowLeft" xlink:href="#dirArrow" transform="rotate(270) translate(-36 17)" onmousedown="handlePan(-1,0)">
                  <use xlink:href="#rim" fill="#404040">
                        <set attributeName="fill" to="#808080" begin="arrowLeft.mouseover" end="arrowLeft.mouseout"/>
                  </use>
                  <path fill="none" stroke="white" stroke-width="1.5" d="M0,-3.0v7 M-2.5,-0.5L0,-3.0L2.5,-0.5"/>
                </g>
        </g>
        <svg viewBox="0 0 15 15" width="100%" height="30px" preserveAspectRatio="xMaxYMin meet">
         <g id="arrow_out" transform="scale(0.3 0.3)">
          <a xlink:href="includes_2_process_manager_8hpp__incl_org.svg" target="_base">
           <rect id="button" ry="5" rx="5" y="6" x="6" height="38" width="38"
                fill="#f2f5e9" fill-opacity="0.5" stroke="#606060" stroke-width="1.0"/>
           <path id="arrow"
             d="M 11.500037,31.436501 C 11.940474,20.09759 22.043105,11.32322 32.158766,21.979434 L 37.068811,17.246167 C 37.068811,17.246167 37.088388,32 37.088388,32 L 22.160133,31.978069 C 22.160133,31.978069 26.997745,27.140456 26.997745,27.140456 C 18.528582,18.264221 13.291696,25.230495 11.500037,31.436501 z"
             style="fill:#404040;"/>
          </a>
         </g>
        </svg>
</svg>
