<?xml version="1.0" encoding="UTF-8" standalone="no"?>
<!DOCTYPE svg PUBLIC "-//W3C//DTD SVG 1.1//EN"
 "http://www.w3.org/Graphics/SVG/1.1/DTD/svg11.dtd">
<!-- Generated by graphviz version 2.38.0 (20140413.2041)
 -->
<!-- Title: /home/gogo/rendu/tek2/cpp_plazza/includes/ACypher.hpp Pages: 1 -->
<svg width="1353pt" height="596pt"
 viewBox="0.00 0.00 1352.54 596.00" xmlns="http://www.w3.org/2000/svg" xmlns:xlink="http://www.w3.org/1999/xlink">
<g id="graph0" class="graph" transform="scale(1 1) rotate(0) translate(4 592)">
<title>/home/gogo/rendu/tek2/cpp_plazza/includes/ACypher.hpp</title>
<!-- Node1 -->
<g id="node1" class="node"><title>Node1</title>
<polygon fill="#bfbfbf" stroke="black" points="579.537,-546.5 579.537,-587.5 695.537,-587.5 695.537,-546.5 579.537,-546.5"/>
<text text-anchor="start" x="587.537" y="-575.5" font-family="Helvetica,sans-Serif" font-size="10.00">/home/gogo/rendu/tek2</text>
<text text-anchor="start" x="587.537" y="-564.5" font-family="Helvetica,sans-Serif" font-size="10.00">/cpp_plazza/includes</text>
<text text-anchor="middle" x="637.537" y="-553.5" font-family="Helvetica,sans-Serif" font-size="10.00">/ACypher.hpp</text>
</g>
<!-- Node2 -->
<g id="node2" class="node"><title>Node2</title>
<g id="a_node2"><a xlink:href="gui_2sources_2_a_cypher_8cpp.html" target="_top" xlink:title="/home/gogo/rendu/tek2\l/cpp_plazza/gui/sources\l/ACypher.cpp">
<polygon fill="none" stroke="black" points="372.537,-468.5 372.537,-509.5 494.537,-509.5 494.537,-468.5 372.537,-468.5"/>
<text text-anchor="start" x="380.537" y="-497.5" font-family="Helvetica,sans-Serif" font-size="10.00">/home/gogo/rendu/tek2</text>
<text text-anchor="start" x="380.537" y="-486.5" font-family="Helvetica,sans-Serif" font-size="10.00">/cpp_plazza/gui/sources</text>
<text text-anchor="middle" x="433.537" y="-475.5" font-family="Helvetica,sans-Serif" font-size="10.00">/ACypher.cpp</text>
</a>
</g>
</g>
<!-- Node1&#45;&gt;Node2 -->
<g id="edge1" class="edge"><title>Node1&#45;&gt;Node2</title>
<path fill="none" stroke="midnightblue" d="M575.498,-542.887C546.861,-532.219 513.232,-519.69 485.894,-509.506"/>
<polygon fill="midnightblue" stroke="midnightblue" points="574.41,-546.217 585.002,-546.428 576.853,-539.657 574.41,-546.217"/>
</g>
<!-- Node3 -->
<g id="node3" class="node"><title>Node3</title>
<g id="a_node3"><a xlink:href="includes_2_caesar_cypher_8hpp.html" target="_top" xlink:title="/home/gogo/rendu/tek2\l/cpp_plazza/includes\l/CaesarCypher.hpp">
<polygon fill="none" stroke="black" points="512.537,-468.5 512.537,-509.5 628.537,-509.5 628.537,-468.5 512.537,-468.5"/>
<text text-anchor="start" x="520.537" y="-497.5" font-family="Helvetica,sans-Serif" font-size="10.00">/home/gogo/rendu/tek2</text>
<text text-anchor="start" x="520.537" y="-486.5" font-family="Helvetica,sans-Serif" font-size="10.00">/cpp_plazza/includes</text>
<text text-anchor="middle" x="570.537" y="-475.5" font-family="Helvetica,sans-Serif" font-size="10.00">/CaesarCypher.hpp</text>
</a>
</g>
</g>
<!-- Node1&#45;&gt;Node3 -->
<g id="edge2" class="edge"><title>Node1&#45;&gt;Node3</title>
<path fill="none" stroke="midnightblue" d="M613.661,-538.916C605.098,-529.203 595.618,-518.45 587.733,-509.506"/>
<polygon fill="midnightblue" stroke="midnightblue" points="611.045,-541.241 620.283,-546.428 616.296,-536.612 611.045,-541.241"/>
</g>
<!-- Node25 -->
<g id="node25" class="node"><title>Node25</title>
<g id="a_node25"><a xlink:href="includes_2_xor_cypher_8hpp.html" target="_top" xlink:title="/home/gogo/rendu/tek2\l/cpp_plazza/includes\l/XorCypher.hpp">
<polygon fill="none" stroke="black" points="646.537,-468.5 646.537,-509.5 762.537,-509.5 762.537,-468.5 646.537,-468.5"/>
<text text-anchor="start" x="654.537" y="-497.5" font-family="Helvetica,sans-Serif" font-size="10.00">/home/gogo/rendu/tek2</text>
<text text-anchor="start" x="654.537" y="-486.5" font-family="Helvetica,sans-Serif" font-size="10.00">/cpp_plazza/includes</text>
<text text-anchor="middle" x="704.537" y="-475.5" font-family="Helvetica,sans-Serif" font-size="10.00">/XorCypher.hpp</text>
</a>
</g>
</g>
<!-- Node1&#45;&gt;Node25 -->
<g id="edge31" class="edge"><title>Node1&#45;&gt;Node25</title>
<path fill="none" stroke="midnightblue" d="M661.414,-538.916C669.977,-529.203 679.456,-518.45 687.342,-509.506"/>
<polygon fill="midnightblue" stroke="midnightblue" points="658.779,-536.612 654.792,-546.428 664.03,-541.241 658.779,-536.612"/>
</g>
<!-- Node28 -->
<g id="node28" class="node"><title>Node28</title>
<g id="a_node28"><a xlink:href="sources_2_a_cypher_8cpp.html" target="_top" xlink:title="/home/gogo/rendu/tek2\l/cpp_plazza/sources/ACypher.cpp">
<polygon fill="none" stroke="black" points="780.037,-474 780.037,-504 947.037,-504 947.037,-474 780.037,-474"/>
<text text-anchor="start" x="788.037" y="-492" font-family="Helvetica,sans-Serif" font-size="10.00">/home/gogo/rendu/tek2</text>
<text text-anchor="middle" x="863.537" y="-481" font-family="Helvetica,sans-Serif" font-size="10.00">/cpp_plazza/sources/ACypher.cpp</text>
</a>
</g>
</g>
<!-- Node1&#45;&gt;Node28 -->
<g id="edge39" class="edge"><title>Node1&#45;&gt;Node28</title>
<path fill="none" stroke="midnightblue" d="M705.647,-543.096C743.378,-530.407 789.083,-515.038 821.589,-504.106"/>
<polygon fill="midnightblue" stroke="midnightblue" points="704.101,-539.923 695.738,-546.428 706.332,-546.558 704.101,-539.923"/>
</g>
<!-- Node4 -->
<g id="node4" class="node"><title>Node4</title>
<g id="a_node4"><a xlink:href="gui_2sources_2_caesar_cypher_8cpp.html" target="_top" xlink:title="/home/gogo/rendu/tek2\l/cpp_plazza/gui/sources\l/CaesarCypher.cpp">
<polygon fill="none" stroke="black" points="241.537,-390.5 241.537,-431.5 363.537,-431.5 363.537,-390.5 241.537,-390.5"/>
<text text-anchor="start" x="249.537" y="-419.5" font-family="Helvetica,sans-Serif" font-size="10.00">/home/gogo/rendu/tek2</text>
<text text-anchor="start" x="249.537" y="-408.5" font-family="Helvetica,sans-Serif" font-size="10.00">/cpp_plazza/gui/sources</text>
<text text-anchor="middle" x="302.537" y="-397.5" font-family="Helvetica,sans-Serif" font-size="10.00">/CaesarCypher.cpp</text>
</a>
</g>
</g>
<!-- Node3&#45;&gt;Node4 -->
<g id="edge3" class="edge"><title>Node3&#45;&gt;Node4</title>
<path fill="none" stroke="midnightblue" d="M502.645,-467.771C443.877,-451.018 427.726,-447.467 372.537,-432 369.617,-431.181 366.628,-430.341 363.61,-429.489"/>
<polygon fill="midnightblue" stroke="midnightblue" points="501.879,-471.192 512.456,-470.577 503.804,-464.462 501.879,-471.192"/>
</g>
<!-- Node5 -->
<g id="node5" class="node"><title>Node5</title>
<g id="a_node5"><a xlink:href="gui_2sources_2main_8cpp.html" target="_top" xlink:title="/home/gogo/rendu/tek2\l/cpp_plazza/gui/sources\l/main.cpp">
<polygon fill="none" stroke="black" points="317.537,-0.5 317.537,-41.5 439.537,-41.5 439.537,-0.5 317.537,-0.5"/>
<text text-anchor="start" x="325.537" y="-29.5" font-family="Helvetica,sans-Serif" font-size="10.00">/home/gogo/rendu/tek2</text>
<text text-anchor="start" x="325.537" y="-18.5" font-family="Helvetica,sans-Serif" font-size="10.00">/cpp_plazza/gui/sources</text>
<text text-anchor="middle" x="378.537" y="-7.5" font-family="Helvetica,sans-Serif" font-size="10.00">/main.cpp</text>
</a>
</g>
</g>
<!-- Node3&#45;&gt;Node5 -->
<g id="edge4" class="edge"><title>Node3&#45;&gt;Node5</title>
<path fill="none" stroke="midnightblue" d="M502.319,-468.393C417.381,-459.013 60.8215,-466.055 22.5374,-432 -10.6121,-402.513 3.53737,-378.367 3.53737,-334 3.53737,-334 3.53737,-334 3.53737,-176 3.53737,-108.963 211.192,-56.4191 317.453,-33.9199"/>
<polygon fill="midnightblue" stroke="midnightblue" points="501.861,-471.863 512.253,-469.796 502.841,-464.932 501.861,-471.863"/>
</g>
<!-- Node6 -->
<g id="node6" class="node"><title>Node6</title>
<g id="a_node6"><a xlink:href="gui_2sources_2main__cypher_8cpp.html" target="_top" xlink:title="/home/gogo/rendu/tek2\l/cpp_plazza/gui/sources\l/main_cypher.cpp">
<polygon fill="none" stroke="black" points="531.537,-390.5 531.537,-431.5 653.537,-431.5 653.537,-390.5 531.537,-390.5"/>
<text text-anchor="start" x="539.537" y="-419.5" font-family="Helvetica,sans-Serif" font-size="10.00">/home/gogo/rendu/tek2</text>
<text text-anchor="start" x="539.537" y="-408.5" font-family="Helvetica,sans-Serif" font-size="10.00">/cpp_plazza/gui/sources</text>
<text text-anchor="middle" x="592.537" y="-397.5" font-family="Helvetica,sans-Serif" font-size="10.00">/main_cypher.cpp</text>
</a>
</g>
</g>
<!-- Node3&#45;&gt;Node6 -->
<g id="edge5" class="edge"><title>Node3&#45;&gt;Node6</title>
<path fill="none" stroke="midnightblue" d="M579.051,-458.59C581.679,-449.511 584.507,-439.742 586.891,-431.506"/>
<polygon fill="midnightblue" stroke="midnightblue" points="575.622,-457.849 576.203,-468.428 582.346,-459.796 575.622,-457.849"/>
</g>
<!-- Node7 -->
<g id="node7" class="node"><title>Node7</title>
<g id="a_node7"><a xlink:href="includes_2_worker_8hpp.html" target="_top" xlink:title="/home/gogo/rendu/tek2\l/cpp_plazza/includes\l/Worker.hpp">
<polygon fill="none" stroke="black" points="709.537,-390.5 709.537,-431.5 825.537,-431.5 825.537,-390.5 709.537,-390.5"/>
<text text-anchor="start" x="717.537" y="-419.5" font-family="Helvetica,sans-Serif" font-size="10.00">/home/gogo/rendu/tek2</text>
<text text-anchor="start" x="717.537" y="-408.5" font-family="Helvetica,sans-Serif" font-size="10.00">/cpp_plazza/includes</text>
<text text-anchor="middle" x="767.537" y="-397.5" font-family="Helvetica,sans-Serif" font-size="10.00">/Worker.hpp</text>
</a>
</g>
</g>
<!-- Node3&#45;&gt;Node7 -->
<g id="edge6" class="edge"><title>Node3&#45;&gt;Node7</title>
<path fill="none" stroke="midnightblue" d="M630.809,-464.748C658.385,-454.11 690.692,-441.646 716.977,-431.506"/>
<polygon fill="midnightblue" stroke="midnightblue" points="629.34,-461.563 621.27,-468.428 631.859,-468.094 629.34,-461.563"/>
</g>
<!-- Node17 -->
<g id="node17" class="node"><title>Node17</title>
<g id="a_node17"><a xlink:href="sources_2main_8cpp.html" target="_top" xlink:title="/home/gogo/rendu/tek2\l/cpp_plazza/sources/main.cpp">
<polygon fill="none" stroke="black" points="890.037,-6 890.037,-36 1039.04,-36 1039.04,-6 890.037,-6"/>
<text text-anchor="start" x="898.037" y="-24" font-family="Helvetica,sans-Serif" font-size="10.00">/home/gogo/rendu/tek2</text>
<text text-anchor="middle" x="964.537" y="-13" font-family="Helvetica,sans-Serif" font-size="10.00">/cpp_plazza/sources/main.cpp</text>
</a>
</g>
</g>
<!-- Node3&#45;&gt;Node17 -->
<g id="edge29" class="edge"><title>Node3&#45;&gt;Node17</title>
<path fill="none" stroke="midnightblue" d="M638.794,-467.913C796.494,-433.874 962.537,-487.036 962.537,-334 962.537,-334 962.537,-334 962.537,-176 962.537,-124.395 963.674,-63.0709 964.234,-36.0134"/>
<polygon fill="midnightblue" stroke="midnightblue" points="637.873,-464.533 628.901,-470.169 639.429,-471.358 637.873,-464.533"/>
</g>
<!-- Node23 -->
<g id="node23" class="node"><title>Node23</title>
<g id="a_node23"><a xlink:href="sources_2_caesar_cypher_8cpp.html" target="_top" xlink:title="/home/gogo/rendu/tek2\l/cpp_plazza/sources/CaesarCypher.cpp">
<polygon fill="none" stroke="black" points="32.0374,-396 32.0374,-426 223.037,-426 223.037,-396 32.0374,-396"/>
<text text-anchor="start" x="40.0374" y="-414" font-family="Helvetica,sans-Serif" font-size="10.00">/home/gogo/rendu/tek2</text>
<text text-anchor="middle" x="127.537" y="-403" font-family="Helvetica,sans-Serif" font-size="10.00">/cpp_plazza/sources/CaesarCypher.cpp</text>
</a>
</g>
</g>
<!-- Node3&#45;&gt;Node23 -->
<g id="edge28" class="edge"><title>Node3&#45;&gt;Node23</title>
<path fill="none" stroke="midnightblue" d="M502.324,-467.901C382.97,-442.99 349.322,-450.864 232.537,-432 221.454,-430.21 209.745,-428.149 198.325,-426.045"/>
<polygon fill="midnightblue" stroke="midnightblue" points="501.704,-471.347 512.212,-469.998 503.156,-464.5 501.704,-471.347"/>
</g>
<!-- Node24 -->
<g id="node24" class="node"><title>Node24</title>
<g id="a_node24"><a xlink:href="sources_2main__cypher_8cpp.html" target="_top" xlink:title="/home/gogo/rendu/tek2\l/cpp_plazza/sources/main\l_cypher.cpp">
<polygon fill="none" stroke="black" points="382.037,-390.5 382.037,-431.5 513.037,-431.5 513.037,-390.5 382.037,-390.5"/>
<text text-anchor="start" x="390.037" y="-419.5" font-family="Helvetica,sans-Serif" font-size="10.00">/home/gogo/rendu/tek2</text>
<text text-anchor="start" x="390.037" y="-408.5" font-family="Helvetica,sans-Serif" font-size="10.00">/cpp_plazza/sources/main</text>
<text text-anchor="middle" x="447.537" y="-397.5" font-family="Helvetica,sans-Serif" font-size="10.00">_cypher.cpp</text>
</a>
</g>
</g>
<!-- Node3&#45;&gt;Node24 -->
<g id="edge30" class="edge"><title>Node3&#45;&gt;Node24</title>
<path fill="none" stroke="midnightblue" d="M529.946,-462.919C513.41,-452.702 494.585,-441.07 479.106,-431.506"/>
<polygon fill="midnightblue" stroke="midnightblue" points="528.515,-466.149 538.862,-468.428 532.194,-460.194 528.515,-466.149"/>
</g>
<!-- Node8 -->
<g id="node8" class="node"><title>Node8</title>
<g id="a_node8"><a xlink:href="gui_2sources_2_thread_pool_8cpp.html" target="_top" xlink:title="/home/gogo/rendu/tek2\l/cpp_plazza/gui/sources\l/ThreadPool.cpp">
<polygon fill="none" stroke="black" points="812.537,-234.5 812.537,-275.5 934.537,-275.5 934.537,-234.5 812.537,-234.5"/>
<text text-anchor="start" x="820.537" y="-263.5" font-family="Helvetica,sans-Serif" font-size="10.00">/home/gogo/rendu/tek2</text>
<text text-anchor="start" x="820.537" y="-252.5" font-family="Helvetica,sans-Serif" font-size="10.00">/cpp_plazza/gui/sources</text>
<text text-anchor="middle" x="873.537" y="-241.5" font-family="Helvetica,sans-Serif" font-size="10.00">/ThreadPool.cpp</text>
</a>
</g>
</g>
<!-- Node7&#45;&gt;Node8 -->
<g id="edge7" class="edge"><title>Node7&#45;&gt;Node8</title>
<path fill="none" stroke="midnightblue" d="M835.5,-399.15C861.942,-391.246 889.652,-377.589 905.537,-354 921.833,-329.802 904.404,-296.688 889.59,-275.823"/>
<polygon fill="midnightblue" stroke="midnightblue" points="834.553,-395.781 825.84,-401.81 836.411,-402.53 834.553,-395.781"/>
</g>
<!-- Node9 -->
<g id="node9" class="node"><title>Node9</title>
<g id="a_node9"><a xlink:href="gui_2sources_2_worker_8cpp.html" target="_top" xlink:title="/home/gogo/rendu/tek2\l/cpp_plazza/gui/sources\l/Worker.cpp">
<polygon fill="none" stroke="black" points="774.537,-312.5 774.537,-353.5 896.537,-353.5 896.537,-312.5 774.537,-312.5"/>
<text text-anchor="start" x="782.537" y="-341.5" font-family="Helvetica,sans-Serif" font-size="10.00">/home/gogo/rendu/tek2</text>
<text text-anchor="start" x="782.537" y="-330.5" font-family="Helvetica,sans-Serif" font-size="10.00">/cpp_plazza/gui/sources</text>
<text text-anchor="middle" x="835.537" y="-319.5" font-family="Helvetica,sans-Serif" font-size="10.00">/Worker.cpp</text>
</a>
</g>
</g>
<!-- Node7&#45;&gt;Node9 -->
<g id="edge8" class="edge"><title>Node7&#45;&gt;Node9</title>
<path fill="none" stroke="midnightblue" d="M791.771,-382.916C800.461,-373.203 810.082,-362.45 818.085,-353.506"/>
<polygon fill="midnightblue" stroke="midnightblue" points="789.109,-380.642 785.049,-390.428 794.325,-385.309 789.109,-380.642"/>
</g>
<!-- Node10 -->
<g id="node10" class="node"><title>Node10</title>
<g id="a_node10"><a xlink:href="includes_2_thread_pool_8hpp.html" target="_top" xlink:title="/home/gogo/rendu/tek2\l/cpp_plazza/includes\l/ThreadPool.hpp">
<polygon fill="none" stroke="black" points="640.537,-312.5 640.537,-353.5 756.537,-353.5 756.537,-312.5 640.537,-312.5"/>
<text text-anchor="start" x="648.537" y="-341.5" font-family="Helvetica,sans-Serif" font-size="10.00">/home/gogo/rendu/tek2</text>
<text text-anchor="start" x="648.537" y="-330.5" font-family="Helvetica,sans-Serif" font-size="10.00">/cpp_plazza/includes</text>
<text text-anchor="middle" x="698.537" y="-319.5" font-family="Helvetica,sans-Serif" font-size="10.00">/ThreadPool.hpp</text>
</a>
</g>
</g>
<!-- Node7&#45;&gt;Node10 -->
<g id="edge9" class="edge"><title>Node7&#45;&gt;Node10</title>
<path fill="none" stroke="midnightblue" d="M742.948,-382.916C734.129,-373.203 724.367,-362.45 716.246,-353.506"/>
<polygon fill="midnightblue" stroke="midnightblue" points="740.455,-385.377 749.768,-390.428 745.638,-380.672 740.455,-385.377"/>
</g>
<!-- Node21 -->
<g id="node21" class="node"><title>Node21</title>
<g id="a_node21"><a xlink:href="sources_2_thread_pool_8cpp.html" target="_top" xlink:title="/home/gogo/rendu/tek2\l/cpp_plazza/sources/ThreadPool.cpp">
<polygon fill="none" stroke="black" points="387.537,-240 387.537,-270 565.537,-270 565.537,-240 387.537,-240"/>
<text text-anchor="start" x="395.537" y="-258" font-family="Helvetica,sans-Serif" font-size="10.00">/home/gogo/rendu/tek2</text>
<text text-anchor="middle" x="476.537" y="-247" font-family="Helvetica,sans-Serif" font-size="10.00">/cpp_plazza/sources/ThreadPool.cpp</text>
</a>
</g>
</g>
<!-- Node7&#45;&gt;Node21 -->
<g id="edge26" class="edge"><title>Node7&#45;&gt;Node21</title>
<path fill="none" stroke="midnightblue" d="M699.422,-390.847C698.118,-390.556 696.822,-390.273 695.537,-390 642.354,-378.703 489.042,-395.176 453.537,-354 432.881,-330.044 452.932,-290.974 466.453,-270.137"/>
<polygon fill="midnightblue" stroke="midnightblue" points="698.994,-394.342 709.53,-393.225 700.598,-387.528 698.994,-394.342"/>
</g>
<!-- Node22 -->
<g id="node22" class="node"><title>Node22</title>
<g id="a_node22"><a xlink:href="sources_2_worker_8cpp.html" target="_top" xlink:title="/home/gogo/rendu/tek2\l/cpp_plazza/sources/Worker.cpp">
<polygon fill="none" stroke="black" points="462.537,-318 462.537,-348 622.537,-348 622.537,-318 462.537,-318"/>
<text text-anchor="start" x="470.537" y="-336" font-family="Helvetica,sans-Serif" font-size="10.00">/home/gogo/rendu/tek2</text>
<text text-anchor="middle" x="542.537" y="-325" font-family="Helvetica,sans-Serif" font-size="10.00">/cpp_plazza/sources/Worker.cpp</text>
</a>
</g>
</g>
<!-- Node7&#45;&gt;Node22 -->
<g id="edge27" class="edge"><title>Node7&#45;&gt;Node22</title>
<path fill="none" stroke="midnightblue" d="M699.729,-387.096C662.165,-374.407 616.662,-359.038 584.3,-348.106"/>
<polygon fill="midnightblue" stroke="midnightblue" points="699,-390.544 709.594,-390.428 701.24,-383.912 699,-390.544"/>
</g>
<!-- Node10&#45;&gt;Node5 -->
<g id="edge10" class="edge"><title>Node10&#45;&gt;Node5</title>
<path fill="none" stroke="midnightblue" d="M666.829,-305.743C633.589,-278.413 584.776,-238.901 574.537,-234 509.574,-202.905 467.174,-249.216 416.537,-198 374.45,-155.431 374.065,-78.0641 376.543,-41.7808"/>
<polygon fill="midnightblue" stroke="midnightblue" points="664.968,-308.744 674.912,-312.401 669.418,-303.341 664.968,-308.744"/>
</g>
<!-- Node10&#45;&gt;Node8 -->
<g id="edge11" class="edge"><title>Node10&#45;&gt;Node8</title>
<path fill="none" stroke="midnightblue" d="M753.043,-308.329C777.325,-297.783 805.58,-285.513 828.623,-275.506"/>
<polygon fill="midnightblue" stroke="midnightblue" points="751.382,-305.234 743.604,-312.428 754.171,-311.655 751.382,-305.234"/>
</g>
<!-- Node11 -->
<g id="node11" class="node"><title>Node11</title>
<g id="a_node11"><a xlink:href="includes_2_office_8hpp.html" target="_top" xlink:title="/home/gogo/rendu/tek2\l/cpp_plazza/includes\l/Office.hpp">
<polygon fill="none" stroke="black" points="640.537,-234.5 640.537,-275.5 756.537,-275.5 756.537,-234.5 640.537,-234.5"/>
<text text-anchor="start" x="648.537" y="-263.5" font-family="Helvetica,sans-Serif" font-size="10.00">/home/gogo/rendu/tek2</text>
<text text-anchor="start" x="648.537" y="-252.5" font-family="Helvetica,sans-Serif" font-size="10.00">/cpp_plazza/includes</text>
<text text-anchor="middle" x="698.537" y="-241.5" font-family="Helvetica,sans-Serif" font-size="10.00">/Office.hpp</text>
</a>
</g>
</g>
<!-- Node10&#45;&gt;Node11 -->
<g id="edge12" class="edge"><title>Node10&#45;&gt;Node11</title>
<path fill="none" stroke="midnightblue" d="M698.537,-302.297C698.537,-293.301 698.537,-283.653 698.537,-275.506"/>
<polygon fill="midnightblue" stroke="midnightblue" points="695.037,-302.428 698.537,-312.428 702.037,-302.428 695.037,-302.428"/>
</g>
<!-- Node10&#45;&gt;Node17 -->
<g id="edge24" class="edge"><title>Node10&#45;&gt;Node17</title>
<path fill="none" stroke="midnightblue" d="M731.577,-305.926C742.659,-296.78 754.897,-286.231 765.537,-276 783.683,-258.553 783.255,-248.909 803.537,-234 834.301,-211.386 854.428,-224.886 881.537,-198 906.363,-173.378 945.308,-73.5014 959.308,-36.1694"/>
<polygon fill="midnightblue" stroke="midnightblue" points="729.286,-303.278 723.751,-312.312 733.712,-308.701 729.286,-303.278"/>
</g>
<!-- Node10&#45;&gt;Node21 -->
<g id="edge25" class="edge"><title>Node10&#45;&gt;Node21</title>
<path fill="none" stroke="midnightblue" d="M631.633,-309.096C594.57,-296.407 549.674,-281.038 517.743,-270.106"/>
<polygon fill="midnightblue" stroke="midnightblue" points="630.772,-312.5 641.367,-312.428 633.04,-305.878 630.772,-312.5"/>
</g>
<!-- Node12 -->
<g id="node12" class="node"><title>Node12</title>
<g id="a_node12"><a xlink:href="gui_2sources_2_office_8cpp.html" target="_top" xlink:title="/home/gogo/rendu/tek2\l/cpp_plazza/gui/sources\l/Office.cpp">
<polygon fill="none" stroke="black" points="559.537,-156.5 559.537,-197.5 681.537,-197.5 681.537,-156.5 559.537,-156.5"/>
<text text-anchor="start" x="567.537" y="-185.5" font-family="Helvetica,sans-Serif" font-size="10.00">/home/gogo/rendu/tek2</text>
<text text-anchor="start" x="567.537" y="-174.5" font-family="Helvetica,sans-Serif" font-size="10.00">/cpp_plazza/gui/sources</text>
<text text-anchor="middle" x="620.537" y="-163.5" font-family="Helvetica,sans-Serif" font-size="10.00">/Office.cpp</text>
</a>
</g>
</g>
<!-- Node11&#45;&gt;Node12 -->
<g id="edge13" class="edge"><title>Node11&#45;&gt;Node12</title>
<path fill="none" stroke="midnightblue" d="M671.036,-227.204C660.991,-217.416 649.827,-206.539 640.556,-197.506"/>
<polygon fill="midnightblue" stroke="midnightblue" points="668.846,-229.956 678.45,-234.428 673.731,-224.943 668.846,-229.956"/>
</g>
<!-- Node13 -->
<g id="node13" class="node"><title>Node13</title>
<g id="a_node13"><a xlink:href="includes_2_process_manager_8hpp.html" target="_top" xlink:title="/home/gogo/rendu/tek2\l/cpp_plazza/includes\l/ProcessManager.hpp">
<polygon fill="none" stroke="black" points="425.537,-156.5 425.537,-197.5 541.537,-197.5 541.537,-156.5 425.537,-156.5"/>
<text text-anchor="start" x="433.537" y="-185.5" font-family="Helvetica,sans-Serif" font-size="10.00">/home/gogo/rendu/tek2</text>
<text text-anchor="start" x="433.537" y="-174.5" font-family="Helvetica,sans-Serif" font-size="10.00">/cpp_plazza/includes</text>
<text text-anchor="middle" x="483.537" y="-163.5" font-family="Helvetica,sans-Serif" font-size="10.00">/ProcessManager.hpp</text>
</a>
</g>
</g>
<!-- Node11&#45;&gt;Node13 -->
<g id="edge14" class="edge"><title>Node11&#45;&gt;Node13</title>
<path fill="none" stroke="midnightblue" d="M633.546,-231.026C603.28,-220.328 567.654,-207.734 538.718,-197.506"/>
<polygon fill="midnightblue" stroke="midnightblue" points="632.575,-234.395 643.17,-234.428 634.908,-227.795 632.575,-234.395"/>
</g>
<!-- Node15 -->
<g id="node15" class="node"><title>Node15</title>
<g id="a_node15"><a xlink:href="includes_2_reception_8hpp.html" target="_top" xlink:title="/home/gogo/rendu/tek2\l/cpp_plazza/includes\l/Reception.hpp">
<polygon fill="none" stroke="black" points="729.537,-78.5 729.537,-119.5 845.537,-119.5 845.537,-78.5 729.537,-78.5"/>
<text text-anchor="start" x="737.537" y="-107.5" font-family="Helvetica,sans-Serif" font-size="10.00">/home/gogo/rendu/tek2</text>
<text text-anchor="start" x="737.537" y="-96.5" font-family="Helvetica,sans-Serif" font-size="10.00">/cpp_plazza/includes</text>
<text text-anchor="middle" x="787.537" y="-85.5" font-family="Helvetica,sans-Serif" font-size="10.00">/Reception.hpp</text>
</a>
</g>
</g>
<!-- Node11&#45;&gt;Node15 -->
<g id="edge22" class="edge"><title>Node11&#45;&gt;Node15</title>
<path fill="none" stroke="midnightblue" d="M766.444,-234.998C809.185,-222.356 857.407,-206.554 863.537,-198 874.411,-182.827 871.956,-172.66 863.537,-156 855.85,-140.787 841.866,-128.692 827.969,-119.693"/>
<polygon fill="midnightblue" stroke="midnightblue" points="765.19,-231.719 756.579,-237.89 767.159,-238.436 765.19,-231.719"/>
</g>
<!-- Node20 -->
<g id="node20" class="node"><title>Node20</title>
<g id="a_node20"><a xlink:href="sources_2_office_8cpp.html" target="_top" xlink:title="/home/gogo/rendu/tek2\l/cpp_plazza/sources/Office.cpp">
<polygon fill="none" stroke="black" points="700.037,-162 700.037,-192 855.037,-192 855.037,-162 700.037,-162"/>
<text text-anchor="start" x="708.037" y="-180" font-family="Helvetica,sans-Serif" font-size="10.00">/home/gogo/rendu/tek2</text>
<text text-anchor="middle" x="777.537" y="-169" font-family="Helvetica,sans-Serif" font-size="10.00">/cpp_plazza/sources/Office.cpp</text>
</a>
</g>
</g>
<!-- Node11&#45;&gt;Node20 -->
<g id="edge23" class="edge"><title>Node11&#45;&gt;Node20</title>
<path fill="none" stroke="midnightblue" d="M726.266,-227.324C738.549,-215.508 752.504,-202.083 762.75,-192.225"/>
<polygon fill="midnightblue" stroke="midnightblue" points="723.662,-224.973 718.882,-234.428 728.515,-230.017 723.662,-224.973"/>
</g>
<!-- Node14 -->
<g id="node14" class="node"><title>Node14</title>
<g id="a_node14"><a xlink:href="gui_2sources_2_process_manager_8cpp.html" target="_top" xlink:title="/home/gogo/rendu/tek2\l/cpp_plazza/gui/sources\l/ProcessManager.cpp">
<polygon fill="none" stroke="black" points="589.537,-78.5 589.537,-119.5 711.537,-119.5 711.537,-78.5 589.537,-78.5"/>
<text text-anchor="start" x="597.537" y="-107.5" font-family="Helvetica,sans-Serif" font-size="10.00">/home/gogo/rendu/tek2</text>
<text text-anchor="start" x="597.537" y="-96.5" font-family="Helvetica,sans-Serif" font-size="10.00">/cpp_plazza/gui/sources</text>
<text text-anchor="middle" x="650.537" y="-85.5" font-family="Helvetica,sans-Serif" font-size="10.00">/ProcessManager.cpp</text>
</a>
</g>
</g>
<!-- Node13&#45;&gt;Node14 -->
<g id="edge15" class="edge"><title>Node13&#45;&gt;Node14</title>
<path fill="none" stroke="midnightblue" d="M535.859,-152.189C558.962,-141.675 585.784,-129.469 607.676,-119.506"/>
<polygon fill="midnightblue" stroke="midnightblue" points="534.196,-149.1 526.544,-156.428 537.096,-155.472 534.196,-149.1"/>
</g>
<!-- Node13&#45;&gt;Node15 -->
<g id="edge16" class="edge"><title>Node13&#45;&gt;Node15</title>
<path fill="none" stroke="midnightblue" d="M551.563,-155.844C627.138,-137.077 648.765,-138.279 720.537,-120 723.478,-119.251 726.484,-118.458 729.513,-117.635"/>
<polygon fill="midnightblue" stroke="midnightblue" points="550.403,-152.527 541.562,-158.365 552.114,-159.314 550.403,-152.527"/>
</g>
<!-- Node19 -->
<g id="node19" class="node"><title>Node19</title>
<g id="a_node19"><a xlink:href="sources_2_process_manager_8cpp.html" target="_top" xlink:title="/home/gogo/rendu/tek2\l/cpp_plazza/sources/Process\lManager.cpp">
<polygon fill="none" stroke="black" points="425.537,-78.5 425.537,-119.5 571.537,-119.5 571.537,-78.5 425.537,-78.5"/>
<text text-anchor="start" x="433.537" y="-107.5" font-family="Helvetica,sans-Serif" font-size="10.00">/home/gogo/rendu/tek2</text>
<text text-anchor="start" x="433.537" y="-96.5" font-family="Helvetica,sans-Serif" font-size="10.00">/cpp_plazza/sources/Process</text>
<text text-anchor="middle" x="498.537" y="-85.5" font-family="Helvetica,sans-Serif" font-size="10.00">Manager.cpp</text>
</a>
</g>
</g>
<!-- Node13&#45;&gt;Node19 -->
<g id="edge21" class="edge"><title>Node13&#45;&gt;Node19</title>
<path fill="none" stroke="midnightblue" d="M489.342,-146.59C491.134,-137.511 493.062,-127.742 494.688,-119.506"/>
<polygon fill="midnightblue" stroke="midnightblue" points="485.903,-145.94 487.4,-156.428 492.77,-147.295 485.903,-145.94"/>
</g>
<!-- Node15&#45;&gt;Node5 -->
<g id="edge17" class="edge"><title>Node15&#45;&gt;Node5</title>
<path fill="none" stroke="midnightblue" d="M719.242,-77.8325C616.229,-54.5873 506.497,-38.4701 439.848,-29.6335"/>
<polygon fill="midnightblue" stroke="midnightblue" points="718.661,-81.2896 729.189,-80.1042 720.219,-74.4654 718.661,-81.2896"/>
</g>
<!-- Node16 -->
<g id="node16" class="node"><title>Node16</title>
<g id="a_node16"><a xlink:href="gui_2sources_2_reception_8cpp.html" target="_top" xlink:title="/home/gogo/rendu/tek2\l/cpp_plazza/gui/sources\l/Reception.cpp">
<polygon fill="none" stroke="black" points="558.537,-0.5 558.537,-41.5 680.537,-41.5 680.537,-0.5 558.537,-0.5"/>
<text text-anchor="start" x="566.537" y="-29.5" font-family="Helvetica,sans-Serif" font-size="10.00">/home/gogo/rendu/tek2</text>
<text text-anchor="start" x="566.537" y="-18.5" font-family="Helvetica,sans-Serif" font-size="10.00">/cpp_plazza/gui/sources</text>
<text text-anchor="middle" x="619.537" y="-7.5" font-family="Helvetica,sans-Serif" font-size="10.00">/Reception.cpp</text>
</a>
</g>
</g>
<!-- Node15&#45;&gt;Node16 -->
<g id="edge18" class="edge"><title>Node15&#45;&gt;Node16</title>
<path fill="none" stroke="midnightblue" d="M734.902,-74.189C711.661,-63.6749 684.679,-51.4687 662.655,-41.5056"/>
<polygon fill="midnightblue" stroke="midnightblue" points="733.719,-77.4953 744.273,-78.4281 736.605,-71.1175 733.719,-77.4953"/>
</g>
<!-- Node15&#45;&gt;Node17 -->
<g id="edge19" class="edge"><title>Node15&#45;&gt;Node17</title>
<path fill="none" stroke="midnightblue" d="M842.394,-74.4456C871.646,-61.8855 906.659,-46.8516 931.684,-36.1065"/>
<polygon fill="midnightblue" stroke="midnightblue" points="840.927,-71.2665 833.119,-78.4281 843.689,-77.6987 840.927,-71.2665"/>
</g>
<!-- Node18 -->
<g id="node18" class="node"><title>Node18</title>
<g id="a_node18"><a xlink:href="sources_2_reception_8cpp.html" target="_top" xlink:title="/home/gogo/rendu/tek2\l/cpp_plazza/sources/Reception.cpp">
<polygon fill="none" stroke="black" points="699.037,-6 699.037,-36 872.037,-36 872.037,-6 699.037,-6"/>
<text text-anchor="start" x="707.037" y="-24" font-family="Helvetica,sans-Serif" font-size="10.00">/home/gogo/rendu/tek2</text>
<text text-anchor="middle" x="785.537" y="-13" font-family="Helvetica,sans-Serif" font-size="10.00">/cpp_plazza/sources/Reception.cpp</text>
</a>
</g>
</g>
<!-- Node15&#45;&gt;Node18 -->
<g id="edge20" class="edge"><title>Node15&#45;&gt;Node18</title>
<path fill="none" stroke="midnightblue" d="M786.755,-68.2829C786.465,-57.2536 786.149,-45.2457 785.912,-36.2254"/>
<polygon fill="midnightblue" stroke="midnightblue" points="783.26,-68.5237 787.022,-78.4281 790.258,-68.3395 783.26,-68.5237"/>
</g>
<!-- Node25&#45;&gt;Node5 -->
<g id="edge32" class="edge"><title>Node25&#45;&gt;Node5</title>
<path fill="none" stroke="midnightblue" d="M699.718,-458.441C694.478,-436.14 683.811,-406.636 662.537,-390 584.146,-328.695 527.58,-404.002 441.537,-354 403.009,-331.61 394.057,-317.772 378.537,-276 347.899,-193.534 365.013,-85.3438 374.06,-41.605"/>
<polygon fill="midnightblue" stroke="midnightblue" points="696.333,-459.352 701.82,-468.415 703.183,-457.908 696.333,-459.352"/>
</g>
<!-- Node25&#45;&gt;Node6 -->
<g id="edge33" class="edge"><title>Node25&#45;&gt;Node6</title>
<path fill="none" stroke="midnightblue" d="M667.158,-462.635C652.202,-452.487 635.247,-440.982 621.282,-431.506"/>
<polygon fill="midnightblue" stroke="midnightblue" points="665.455,-465.709 675.695,-468.428 669.385,-459.917 665.455,-465.709"/>
</g>
<!-- Node25&#45;&gt;Node7 -->
<g id="edge35" class="edge"><title>Node25&#45;&gt;Node7</title>
<path fill="none" stroke="midnightblue" d="M727.228,-460.627C735.217,-450.99 744.027,-440.362 751.368,-431.506"/>
<polygon fill="midnightblue" stroke="midnightblue" points="724.449,-458.496 720.761,-468.428 729.838,-462.963 724.449,-458.496"/>
</g>
<!-- Node25&#45;&gt;Node17 -->
<g id="edge36" class="edge"><title>Node25&#45;&gt;Node17</title>
<path fill="none" stroke="midnightblue" d="M772.633,-467.787C864.239,-449.701 910.968,-493.308 976.537,-432 1009.29,-401.374 1000.54,-378.843 1000.54,-334 1000.54,-334 1000.54,-334 1000.54,-176 1000.54,-123.283 980.287,-63.0164 970.162,-36.178"/>
<polygon fill="midnightblue" stroke="midnightblue" points="771.76,-464.395 762.736,-469.946 773.252,-471.234 771.76,-464.395"/>
</g>
<!-- Node25&#45;&gt;Node24 -->
<g id="edge37" class="edge"><title>Node25&#45;&gt;Node24</title>
<path fill="none" stroke="midnightblue" d="M636.764,-467.774C590.212,-453.973 547.33,-441.334 513.064,-431.252"/>
<polygon fill="midnightblue" stroke="midnightblue" points="635.854,-471.155 646.436,-470.643 637.844,-464.444 635.854,-471.155"/>
</g>
<!-- Node26 -->
<g id="node26" class="node"><title>Node26</title>
<g id="a_node26"><a xlink:href="gui_2sources_2_xor_cypher_8cpp.html" target="_top" xlink:title="/home/gogo/rendu/tek2\l/cpp_plazza/gui/sources\l/XorCypher.cpp">
<polygon fill="none" stroke="black" points="1222.54,-390.5 1222.54,-431.5 1344.54,-431.5 1344.54,-390.5 1222.54,-390.5"/>
<text text-anchor="start" x="1230.54" y="-419.5" font-family="Helvetica,sans-Serif" font-size="10.00">/home/gogo/rendu/tek2</text>
<text text-anchor="start" x="1230.54" y="-408.5" font-family="Helvetica,sans-Serif" font-size="10.00">/cpp_plazza/gui/sources</text>
<text text-anchor="middle" x="1283.54" y="-397.5" font-family="Helvetica,sans-Serif" font-size="10.00">/XorCypher.cpp</text>
</a>
</g>
</g>
<!-- Node25&#45;&gt;Node26 -->
<g id="edge34" class="edge"><title>Node25&#45;&gt;Node26</title>
<path fill="none" stroke="midnightblue" d="M772.588,-467.796C966.013,-432.377 1021.77,-466.304 1212.54,-432 1215.81,-431.411 1219.16,-430.735 1222.52,-429.996"/>
<polygon fill="midnightblue" stroke="midnightblue" points="771.859,-464.372 762.673,-469.65 773.146,-471.253 771.859,-464.372"/>
</g>
<!-- Node27 -->
<g id="node27" class="node"><title>Node27</title>
<g id="a_node27"><a xlink:href="sources_2_xor_cypher_8cpp.html" target="_top" xlink:title="/home/gogo/rendu/tek2\l/cpp_plazza/sources/XorCypher.cpp">
<polygon fill="none" stroke="black" points="1029.04,-396 1029.04,-426 1204.04,-426 1204.04,-396 1029.04,-396"/>
<text text-anchor="start" x="1037.04" y="-414" font-family="Helvetica,sans-Serif" font-size="10.00">/home/gogo/rendu/tek2</text>
<text text-anchor="middle" x="1116.54" y="-403" font-family="Helvetica,sans-Serif" font-size="10.00">/cpp_plazza/sources/XorCypher.cpp</text>
</a>
</g>
</g>
<!-- Node25&#45;&gt;Node27 -->
<g id="edge38" class="edge"><title>Node25&#45;&gt;Node27</title>
<path fill="none" stroke="midnightblue" d="M772.588,-467.673C879.272,-444.4 909.665,-450.008 1014.54,-432 1025.12,-430.183 1036.29,-428.13 1047.21,-426.049"/>
<polygon fill="midnightblue" stroke="midnightblue" points="771.722,-464.28 762.716,-469.861 773.237,-471.114 771.722,-464.28"/>
</g>
</g>
</svg>
