<?xml version="1.0" encoding="UTF-8" standalone="no"?>
<!DOCTYPE svg PUBLIC "-//W3C//DTD SVG 1.1//EN"
 "http://www.w3.org/Graphics/SVG/1.1/DTD/svg11.dtd">
<!-- Generated by graphviz version 2.38.0 (20140413.2041)
 -->
<!-- Title: /home/gogo/rendu/tek2/cpp_plazza/includes/Office.hpp Pages: 1 -->
<svg width="1049pt" height="330pt"
 viewBox="0.00 0.00 1048.66 330.00" xmlns="http://www.w3.org/2000/svg" xmlns:xlink="http://www.w3.org/1999/xlink">
<g id="graph0" class="graph" transform="scale(1 1) rotate(0) translate(4 326)">
<title>/home/gogo/rendu/tek2/cpp_plazza/includes/Office.hpp</title>
<!-- Node1 -->
<g id="node1" class="node"><title>Node1</title>
<polygon fill="#bfbfbf" stroke="black" points="520,-280.5 520,-321.5 636,-321.5 636,-280.5 520,-280.5"/>
<text text-anchor="start" x="528" y="-309.5" font-family="Helvetica,sans-Serif" font-size="10.00">/home/gogo/rendu/tek2</text>
<text text-anchor="start" x="528" y="-298.5" font-family="Helvetica,sans-Serif" font-size="10.00">/cpp_plazza/includes</text>
<text text-anchor="middle" x="578" y="-287.5" font-family="Helvetica,sans-Serif" font-size="10.00">/Office.hpp</text>
</g>
<!-- Node2 -->
<g id="node2" class="node"><title>Node2</title>
<polygon fill="none" stroke="#bfbfbf" points="340,-224.5 340,-243.5 408,-243.5 408,-224.5 340,-224.5"/>
<text text-anchor="middle" x="374" y="-231.5" font-family="Helvetica,sans-Serif" font-size="10.00">sys/types.h</text>
</g>
<!-- Node1&#45;&gt;Node2 -->
<g id="edge1" class="edge"><title>Node1&#45;&gt;Node2</title>
<path fill="none" stroke="midnightblue" d="M519.815,-281.461C484.687,-270.268 440.999,-256.348 410.648,-246.677"/>
<polygon fill="midnightblue" stroke="midnightblue" points="411.488,-243.271 400.897,-243.57 409.363,-249.941 411.488,-243.271"/>
</g>
<!-- Node3 -->
<g id="node3" class="node"><title>Node3</title>
<polygon fill="none" stroke="#bfbfbf" points="766,-56.5 766,-75.5 810,-75.5 810,-56.5 766,-56.5"/>
<text text-anchor="middle" x="788" y="-63.5" font-family="Helvetica,sans-Serif" font-size="10.00">vector</text>
</g>
<!-- Node1&#45;&gt;Node3 -->
<g id="edge2" class="edge"><title>Node1&#45;&gt;Node3</title>
<path fill="none" stroke="midnightblue" d="M636.323,-294.451C746.71,-282.579 979.254,-250.562 1025,-188 1044.94,-160.734 1046.54,-138.017 1025,-112 999.415,-81.1003 879.398,-71.247 820.613,-68.2446"/>
<polygon fill="midnightblue" stroke="midnightblue" points="820.54,-64.7373 810.385,-67.7601 820.209,-71.7294 820.54,-64.7373"/>
</g>
<!-- Node4 -->
<g id="node4" class="node"><title>Node4</title>
<polygon fill="none" stroke="#bfbfbf" points="555,-224.5 555,-243.5 601,-243.5 601,-224.5 555,-224.5"/>
<text text-anchor="middle" x="578" y="-231.5" font-family="Helvetica,sans-Serif" font-size="10.00">chrono</text>
</g>
<!-- Node1&#45;&gt;Node4 -->
<g id="edge3" class="edge"><title>Node1&#45;&gt;Node4</title>
<path fill="none" stroke="midnightblue" d="M578,-280.498C578,-272.065 578,-262.235 578,-253.874"/>
<polygon fill="midnightblue" stroke="midnightblue" points="581.5,-253.652 578,-243.652 574.5,-253.653 581.5,-253.652"/>
</g>
<!-- Node5 -->
<g id="node5" class="node"><title>Node5</title>
<g id="a_node5"><a xlink:href="includes_2_connector_pipe_8hpp.html" target="_top" xlink:title="ConnectorPipe.hpp">
<polygon fill="none" stroke="black" points="0,-112.5 0,-131.5 100,-131.5 100,-112.5 0,-112.5"/>
<text text-anchor="middle" x="50" y="-119.5" font-family="Helvetica,sans-Serif" font-size="10.00">ConnectorPipe.hpp</text>
</a>
</g>
</g>
<!-- Node1&#45;&gt;Node5 -->
<g id="edge4" class="edge"><title>Node1&#45;&gt;Node5</title>
<path fill="none" stroke="midnightblue" d="M541.37,-280.479C509.235,-263.898 460.911,-240.268 417,-224 306.108,-182.918 170.921,-149.918 99.5889,-133.776"/>
<polygon fill="midnightblue" stroke="midnightblue" points="100.062,-130.295 89.5383,-131.518 98.5277,-137.125 100.062,-130.295"/>
</g>
<!-- Node8 -->
<g id="node8" class="node"><title>Node8</title>
<g id="a_node8"><a xlink:href="includes_2_thread_pool_8hpp.html" target="_top" xlink:title="ThreadPool.hpp">
<polygon fill="none" stroke="black" points="754.5,-224.5 754.5,-243.5 839.5,-243.5 839.5,-224.5 754.5,-224.5"/>
<text text-anchor="middle" x="797" y="-231.5" font-family="Helvetica,sans-Serif" font-size="10.00">ThreadPool.hpp</text>
</a>
</g>
</g>
<!-- Node1&#45;&gt;Node8 -->
<g id="edge8" class="edge"><title>Node1&#45;&gt;Node8</title>
<path fill="none" stroke="midnightblue" d="M636.113,-282.752C674.699,-271.299 724.294,-256.579 758.156,-246.529"/>
<polygon fill="midnightblue" stroke="midnightblue" points="759.54,-249.769 768.13,-243.569 757.548,-243.059 759.54,-249.769"/>
</g>
<!-- Node6 -->
<g id="node6" class="node"><title>Node6</title>
<polygon fill="none" stroke="#bfbfbf" points="355.5,-0.5 355.5,-19.5 396.5,-19.5 396.5,-0.5 355.5,-0.5"/>
<text text-anchor="middle" x="376" y="-7.5" font-family="Helvetica,sans-Serif" font-size="10.00">string</text>
</g>
<!-- Node5&#45;&gt;Node6 -->
<g id="edge5" class="edge"><title>Node5&#45;&gt;Node6</title>
<path fill="none" stroke="midnightblue" d="M57.2699,-112.177C69.594,-97.8693 96.0829,-69.8171 125,-56 198.531,-20.8657 296.093,-12.9916 345.109,-11.3404"/>
<polygon fill="midnightblue" stroke="midnightblue" points="345.464,-14.8321 355.366,-11.0634 345.275,-7.83469 345.464,-14.8321"/>
</g>
<!-- Node7 -->
<g id="node7" class="node"><title>Node7</title>
<g id="a_node7"><a xlink:href="includes_2_config_8hpp.html" target="_top" xlink:title="Config.hpp">
<polygon fill="none" stroke="black" points="14,-56.5 14,-75.5 78,-75.5 78,-56.5 14,-56.5"/>
<text text-anchor="middle" x="46" y="-63.5" font-family="Helvetica,sans-Serif" font-size="10.00">Config.hpp</text>
</a>
</g>
</g>
<!-- Node5&#45;&gt;Node7 -->
<g id="edge6" class="edge"><title>Node5&#45;&gt;Node7</title>
<path fill="none" stroke="midnightblue" d="M49.3395,-112.083C48.8152,-105.006 48.0638,-94.8611 47.4064,-85.9865"/>
<polygon fill="midnightblue" stroke="midnightblue" points="50.8775,-85.4652 46.6482,-75.7511 43.8966,-85.9823 50.8775,-85.4652"/>
</g>
<!-- Node7&#45;&gt;Node6 -->
<g id="edge7" class="edge"><title>Node7&#45;&gt;Node6</title>
<path fill="none" stroke="midnightblue" d="M78.1431,-58.5578C82.7875,-57.6716 87.5127,-56.7942 92,-56 183.977,-39.7209 293.218,-23.199 345.352,-15.4857"/>
<polygon fill="midnightblue" stroke="midnightblue" points="345.907,-18.9418 355.289,-14.0199 344.886,-12.0167 345.907,-18.9418"/>
</g>
<!-- Node8&#45;&gt;Node3 -->
<g id="edge9" class="edge"><title>Node8&#45;&gt;Node3</title>
<path fill="none" stroke="midnightblue" d="M839.728,-229.935C894.442,-225.018 984.643,-213.232 1005,-188 1026.21,-161.711 1026.32,-138.197 1005,-112 982.117,-83.8846 875.347,-72.7779 820.584,-68.8737"/>
<polygon fill="midnightblue" stroke="midnightblue" points="820.577,-65.3655 810.365,-68.186 820.107,-72.3497 820.577,-65.3655"/>
</g>
<!-- Node9 -->
<g id="node9" class="node"><title>Node9</title>
<polygon fill="none" stroke="#bfbfbf" points="890,-168.5 890,-187.5 934,-187.5 934,-168.5 890,-168.5"/>
<text text-anchor="middle" x="912" y="-175.5" font-family="Helvetica,sans-Serif" font-size="10.00">mutex</text>
</g>
<!-- Node8&#45;&gt;Node9 -->
<g id="edge10" class="edge"><title>Node8&#45;&gt;Node9</title>
<path fill="none" stroke="midnightblue" d="M815.222,-224.444C833.896,-215.675 863.156,-201.935 884.617,-191.858"/>
<polygon fill="midnightblue" stroke="midnightblue" points="886.299,-194.935 893.863,-187.516 883.324,-188.599 886.299,-194.935"/>
</g>
<!-- Node10 -->
<g id="node10" class="node"><title>Node10</title>
<polygon fill="none" stroke="#bfbfbf" points="952.5,-168.5 952.5,-187.5 995.5,-187.5 995.5,-168.5 952.5,-168.5"/>
<text text-anchor="middle" x="974" y="-175.5" font-family="Helvetica,sans-Serif" font-size="10.00">queue</text>
</g>
<!-- Node8&#45;&gt;Node10 -->
<g id="edge11" class="edge"><title>Node8&#45;&gt;Node10</title>
<path fill="none" stroke="midnightblue" d="M825.046,-224.444C857.114,-214.66 909.466,-198.688 942.798,-188.519"/>
<polygon fill="midnightblue" stroke="midnightblue" points="943.944,-191.829 952.488,-185.563 941.902,-185.134 943.944,-191.829"/>
</g>
<!-- Node11 -->
<g id="node11" class="node"><title>Node11</title>
<g id="a_node11"><a xlink:href="includes_2_thread_8hpp.html" target="_top" xlink:title="Thread.hpp">
<polygon fill="none" stroke="black" points="118.5,-112.5 118.5,-131.5 183.5,-131.5 183.5,-112.5 118.5,-112.5"/>
<text text-anchor="middle" x="151" y="-119.5" font-family="Helvetica,sans-Serif" font-size="10.00">Thread.hpp</text>
</a>
</g>
</g>
<!-- Node8&#45;&gt;Node11 -->
<g id="edge12" class="edge"><title>Node8&#45;&gt;Node11</title>
<path fill="none" stroke="midnightblue" d="M754.366,-230.57C694.781,-226.306 583.716,-215.185 493,-188 472.81,-181.95 470.215,-173.966 450,-168 342.103,-136.155 307.893,-151.493 193.81,-132.18"/>
<polygon fill="midnightblue" stroke="midnightblue" points="194.081,-128.674 183.628,-130.401 192.876,-135.57 194.081,-128.674"/>
</g>
<!-- Node13 -->
<g id="node13" class="node"><title>Node13</title>
<g id="a_node13"><a xlink:href="includes_2_mutex_8hpp.html" target="_top" xlink:title="Mutex.hpp">
<polygon fill="none" stroke="black" points="934,-112.5 934,-131.5 996,-131.5 996,-112.5 934,-112.5"/>
<text text-anchor="middle" x="965" y="-119.5" font-family="Helvetica,sans-Serif" font-size="10.00">Mutex.hpp</text>
</a>
</g>
</g>
<!-- Node8&#45;&gt;Node13 -->
<g id="edge14" class="edge"><title>Node8&#45;&gt;Node13</title>
<path fill="none" stroke="midnightblue" d="M806.94,-224.423C822.264,-211.408 852.84,-186.256 881,-168 899.219,-156.188 920.835,-144.66 937.576,-136.23"/>
<polygon fill="midnightblue" stroke="midnightblue" points="939.408,-139.228 946.808,-131.645 936.294,-132.958 939.408,-139.228"/>
</g>
<!-- Node14 -->
<g id="node14" class="node"><title>Node14</title>
<g id="a_node14"><a xlink:href="includes_2_cond_var_8hpp.html" target="_top" xlink:title="CondVar.hpp">
<polygon fill="none" stroke="black" points="760,-168.5 760,-187.5 834,-187.5 834,-168.5 760,-168.5"/>
<text text-anchor="middle" x="797" y="-175.5" font-family="Helvetica,sans-Serif" font-size="10.00">CondVar.hpp</text>
</a>
</g>
</g>
<!-- Node8&#45;&gt;Node14 -->
<g id="edge15" class="edge"><title>Node8&#45;&gt;Node14</title>
<path fill="none" stroke="midnightblue" d="M797,-224.083C797,-217.006 797,-206.861 797,-197.986"/>
<polygon fill="midnightblue" stroke="midnightblue" points="800.5,-197.751 797,-187.751 793.5,-197.751 800.5,-197.751"/>
</g>
<!-- Node16 -->
<g id="node16" class="node"><title>Node16</title>
<g id="a_node16"><a xlink:href="includes_2_worker_8hpp.html" target="_top" xlink:title="Worker.hpp">
<polygon fill="none" stroke="black" points="502.5,-168.5 502.5,-187.5 569.5,-187.5 569.5,-168.5 502.5,-168.5"/>
<text text-anchor="middle" x="536" y="-175.5" font-family="Helvetica,sans-Serif" font-size="10.00">Worker.hpp</text>
</a>
</g>
</g>
<!-- Node8&#45;&gt;Node16 -->
<g id="edge18" class="edge"><title>Node8&#45;&gt;Node16</title>
<path fill="none" stroke="midnightblue" d="M755.644,-224.444C707.602,-214.504 628.685,-198.176 579.675,-188.036"/>
<polygon fill="midnightblue" stroke="midnightblue" points="580.195,-184.57 569.693,-185.971 578.777,-191.425 580.195,-184.57"/>
</g>
<!-- Node22 -->
<g id="node22" class="node"><title>Node22</title>
<g id="a_node22"><a xlink:href="includes_2_command_8hpp.html" target="_top" xlink:title="Command.hpp">
<polygon fill="none" stroke="black" points="722,-112.5 722,-131.5 802,-131.5 802,-112.5 722,-112.5"/>
<text text-anchor="middle" x="762" y="-119.5" font-family="Helvetica,sans-Serif" font-size="10.00">Command.hpp</text>
</a>
</g>
</g>
<!-- Node8&#45;&gt;Node22 -->
<g id="edge39" class="edge"><title>Node8&#45;&gt;Node22</title>
<path fill="none" stroke="midnightblue" d="M783.213,-224.189C772.174,-216.241 757.498,-203.447 751,-188 744.697,-173.016 748.774,-154.651 753.653,-141.268"/>
<polygon fill="midnightblue" stroke="midnightblue" points="756.995,-142.344 757.555,-131.764 750.519,-139.685 756.995,-142.344"/>
</g>
<!-- Node12 -->
<g id="node12" class="node"><title>Node12</title>
<polygon fill="none" stroke="#bfbfbf" points="134,-56.5 134,-75.5 178,-75.5 178,-56.5 134,-56.5"/>
<text text-anchor="middle" x="156" y="-63.5" font-family="Helvetica,sans-Serif" font-size="10.00">thread</text>
</g>
<!-- Node11&#45;&gt;Node12 -->
<g id="edge13" class="edge"><title>Node11&#45;&gt;Node12</title>
<path fill="none" stroke="midnightblue" d="M151.826,-112.083C152.481,-105.006 153.42,-94.8611 154.242,-85.9865"/>
<polygon fill="midnightblue" stroke="midnightblue" points="157.753,-86.0312 155.19,-75.7511 150.783,-85.3858 157.753,-86.0312"/>
</g>
<!-- Node14&#45;&gt;Node13 -->
<g id="edge17" class="edge"><title>Node14&#45;&gt;Node13</title>
<path fill="none" stroke="midnightblue" d="M823.62,-168.444C852.006,-159.32 897.137,-144.813 928.753,-134.651"/>
<polygon fill="midnightblue" stroke="midnightblue" points="930.055,-137.909 938.504,-131.516 927.913,-131.244 930.055,-137.909"/>
</g>
<!-- Node15 -->
<g id="node15" class="node"><title>Node15</title>
<polygon fill="none" stroke="#bfbfbf" points="820.5,-112.5 820.5,-131.5 915.5,-131.5 915.5,-112.5 820.5,-112.5"/>
<text text-anchor="middle" x="868" y="-119.5" font-family="Helvetica,sans-Serif" font-size="10.00">condition_variable</text>
</g>
<!-- Node14&#45;&gt;Node15 -->
<g id="edge16" class="edge"><title>Node14&#45;&gt;Node15</title>
<path fill="none" stroke="midnightblue" d="M808.407,-168.324C819.109,-160.185 835.341,-147.839 848.163,-138.087"/>
<polygon fill="midnightblue" stroke="midnightblue" points="850.544,-140.673 856.385,-131.834 846.307,-135.102 850.544,-140.673"/>
</g>
<!-- Node16&#45;&gt;Node11 -->
<g id="edge21" class="edge"><title>Node16&#45;&gt;Node11</title>
<path fill="none" stroke="midnightblue" d="M502.478,-170.43C497.629,-169.563 492.692,-168.724 488,-168 360.225,-148.272 324.383,-153.933 193.617,-132.142"/>
<polygon fill="midnightblue" stroke="midnightblue" points="194.062,-128.667 183.619,-130.453 192.897,-135.57 194.062,-128.667"/>
</g>
<!-- Node17 -->
<g id="node17" class="node"><title>Node17</title>
<polygon fill="none" stroke="#bfbfbf" points="559.5,-112.5 559.5,-131.5 600.5,-131.5 600.5,-112.5 559.5,-112.5"/>
<text text-anchor="middle" x="580" y="-119.5" font-family="Helvetica,sans-Serif" font-size="10.00">regex</text>
</g>
<!-- Node16&#45;&gt;Node17 -->
<g id="edge19" class="edge"><title>Node16&#45;&gt;Node17</title>
<path fill="none" stroke="midnightblue" d="M543.266,-168.083C549.545,-160.377 558.788,-149.033 566.431,-139.653"/>
<polygon fill="midnightblue" stroke="midnightblue" points="569.266,-141.714 572.869,-131.751 563.839,-137.293 569.266,-141.714"/>
</g>
<!-- Node18 -->
<g id="node18" class="node"><title>Node18</title>
<polygon fill="none" stroke="#bfbfbf" points="371,-112.5 371,-131.5 425,-131.5 425,-112.5 371,-112.5"/>
<text text-anchor="middle" x="398" y="-119.5" font-family="Helvetica,sans-Serif" font-size="10.00">iostream</text>
</g>
<!-- Node16&#45;&gt;Node18 -->
<g id="edge20" class="edge"><title>Node16&#45;&gt;Node18</title>
<path fill="none" stroke="midnightblue" d="M514.133,-168.444C491.221,-159.478 455.025,-145.314 429.134,-135.183"/>
<polygon fill="midnightblue" stroke="midnightblue" points="430.352,-131.901 419.764,-131.516 427.801,-138.42 430.352,-131.901"/>
</g>
<!-- Node19 -->
<g id="node19" class="node"><title>Node19</title>
<g id="a_node19"><a xlink:href="includes_2_file_8hpp.html" target="_top" xlink:title="File.hpp">
<polygon fill="none" stroke="black" points="201.5,-112.5 201.5,-131.5 252.5,-131.5 252.5,-112.5 201.5,-112.5"/>
<text text-anchor="middle" x="227" y="-119.5" font-family="Helvetica,sans-Serif" font-size="10.00">File.hpp</text>
</a>
</g>
</g>
<!-- Node16&#45;&gt;Node19 -->
<g id="edge22" class="edge"><title>Node16&#45;&gt;Node19</title>
<path fill="none" stroke="midnightblue" d="M502.452,-170.589C497.607,-169.698 492.678,-168.811 488,-168 390.916,-151.169 363.294,-152.578 262.534,-131.933"/>
<polygon fill="midnightblue" stroke="midnightblue" points="263.052,-128.466 252.55,-129.865 261.632,-135.32 263.052,-128.466"/>
</g>
<!-- Node16&#45;&gt;Node22 -->
<g id="edge26" class="edge"><title>Node16&#45;&gt;Node22</title>
<path fill="none" stroke="midnightblue" d="M569.834,-168.916C608.79,-159.608 672.971,-144.272 716.332,-133.912"/>
<polygon fill="midnightblue" stroke="midnightblue" points="717.151,-137.315 726.064,-131.587 715.524,-130.506 717.151,-137.315"/>
</g>
<!-- Node24 -->
<g id="node24" class="node"><title>Node24</title>
<g id="a_node24"><a xlink:href="includes_2_xor_cypher_8hpp.html" target="_top" xlink:title="XorCypher.hpp">
<polygon fill="none" stroke="black" points="271,-112.5 271,-131.5 353,-131.5 353,-112.5 271,-112.5"/>
<text text-anchor="middle" x="312" y="-119.5" font-family="Helvetica,sans-Serif" font-size="10.00">XorCypher.hpp</text>
</a>
</g>
</g>
<!-- Node16&#45;&gt;Node24 -->
<g id="edge30" class="edge"><title>Node16&#45;&gt;Node24</title>
<path fill="none" stroke="midnightblue" d="M502.465,-168.916C463.935,-159.627 400.509,-144.337 357.536,-133.977"/>
<polygon fill="midnightblue" stroke="midnightblue" points="358.16,-130.528 347.618,-131.587 356.519,-137.333 358.16,-130.528"/>
</g>
<!-- Node26 -->
<g id="node26" class="node"><title>Node26</title>
<g id="a_node26"><a xlink:href="includes_2_caesar_cypher_8hpp.html" target="_top" xlink:title="CaesarCypher.hpp">
<polygon fill="none" stroke="black" points="443,-112.5 443,-131.5 541,-131.5 541,-112.5 443,-112.5"/>
<text text-anchor="middle" x="492" y="-119.5" font-family="Helvetica,sans-Serif" font-size="10.00">CaesarCypher.hpp</text>
</a>
</g>
</g>
<!-- Node16&#45;&gt;Node26 -->
<g id="edge33" class="edge"><title>Node16&#45;&gt;Node26</title>
<path fill="none" stroke="midnightblue" d="M528.734,-168.083C522.455,-160.377 513.212,-149.033 505.569,-139.653"/>
<polygon fill="midnightblue" stroke="midnightblue" points="508.161,-137.293 499.131,-131.751 502.734,-141.714 508.161,-137.293"/>
</g>
<!-- Node27 -->
<g id="node27" class="node"><title>Node27</title>
<g id="a_node27"><a xlink:href="includes_2_xor_cracker_8hpp.html" target="_top" xlink:title="XorCracker.hpp">
<polygon fill="none" stroke="black" points="618.5,-112.5 618.5,-131.5 703.5,-131.5 703.5,-112.5 618.5,-112.5"/>
<text text-anchor="middle" x="661" y="-119.5" font-family="Helvetica,sans-Serif" font-size="10.00">XorCracker.hpp</text>
</a>
</g>
</g>
<!-- Node16&#45;&gt;Node27 -->
<g id="edge35" class="edge"><title>Node16&#45;&gt;Node27</title>
<path fill="none" stroke="midnightblue" d="M555.807,-168.444C576.287,-159.596 608.483,-145.687 631.865,-135.586"/>
<polygon fill="midnightblue" stroke="midnightblue" points="633.494,-138.695 641.286,-131.516 630.718,-132.269 633.494,-138.695"/>
</g>
<!-- Node19&#45;&gt;Node6 -->
<g id="edge23" class="edge"><title>Node19&#45;&gt;Node6</title>
<path fill="none" stroke="midnightblue" d="M252.572,-113.043C273.494,-105.688 303.1,-93.2787 325,-76 341.835,-62.7176 356.4,-42.7812 365.605,-28.4922"/>
<polygon fill="midnightblue" stroke="midnightblue" points="368.79,-29.997 371.084,-19.6533 362.84,-26.3092 368.79,-29.997"/>
</g>
<!-- Node20 -->
<g id="node20" class="node"><title>Node20</title>
<polygon fill="none" stroke="#bfbfbf" points="196,-56.5 196,-75.5 246,-75.5 246,-56.5 196,-56.5"/>
<text text-anchor="middle" x="221" y="-63.5" font-family="Helvetica,sans-Serif" font-size="10.00">fstream</text>
</g>
<!-- Node19&#45;&gt;Node20 -->
<g id="edge24" class="edge"><title>Node19&#45;&gt;Node20</title>
<path fill="none" stroke="midnightblue" d="M226.009,-112.083C225.214,-104.927 224.071,-94.6353 223.077,-85.6911"/>
<polygon fill="midnightblue" stroke="midnightblue" points="226.555,-85.3034 221.972,-75.7511 219.598,-86.0765 226.555,-85.3034"/>
</g>
<!-- Node21 -->
<g id="node21" class="node"><title>Node21</title>
<polygon fill="none" stroke="#bfbfbf" points="264,-56.5 264,-75.5 316,-75.5 316,-56.5 264,-56.5"/>
<text text-anchor="middle" x="290" y="-63.5" font-family="Helvetica,sans-Serif" font-size="10.00">sstream</text>
</g>
<!-- Node19&#45;&gt;Node21 -->
<g id="edge25" class="edge"><title>Node19&#45;&gt;Node21</title>
<path fill="none" stroke="midnightblue" d="M237.122,-112.324C246.526,-104.263 260.744,-92.0765 272.069,-82.3695"/>
<polygon fill="midnightblue" stroke="midnightblue" points="274.379,-84.9993 279.694,-75.8339 269.823,-79.6844 274.379,-84.9993"/>
</g>
<!-- Node22&#45;&gt;Node3 -->
<g id="edge28" class="edge"><title>Node22&#45;&gt;Node3</title>
<path fill="none" stroke="midnightblue" d="M766.293,-112.083C769.852,-104.691 775.022,-93.9533 779.424,-84.8111"/>
<polygon fill="midnightblue" stroke="midnightblue" points="782.602,-86.2795 783.787,-75.7511 776.295,-83.2427 782.602,-86.2795"/>
</g>
<!-- Node22&#45;&gt;Node6 -->
<g id="edge27" class="edge"><title>Node22&#45;&gt;Node6</title>
<path fill="none" stroke="midnightblue" d="M756.546,-112.044C747.183,-97.5454 726.567,-69.2248 701,-56 649.989,-29.6139 477.692,-16.8755 406.83,-12.6558"/>
<polygon fill="midnightblue" stroke="midnightblue" points="406.935,-9.1561 396.749,-12.0726 406.531,-16.1444 406.935,-9.1561"/>
</g>
<!-- Node23 -->
<g id="node23" class="node"><title>Node23</title>
<polygon fill="none" stroke="#bfbfbf" points="657.5,-56.5 657.5,-75.5 692.5,-75.5 692.5,-56.5 657.5,-56.5"/>
<text text-anchor="middle" x="675" y="-63.5" font-family="Helvetica,sans-Serif" font-size="10.00">map</text>
</g>
<!-- Node22&#45;&gt;Node23 -->
<g id="edge29" class="edge"><title>Node22&#45;&gt;Node23</title>
<path fill="none" stroke="midnightblue" d="M748.022,-112.324C734.45,-103.9 713.62,-90.9709 697.675,-81.0741"/>
<polygon fill="midnightblue" stroke="midnightblue" points="699.286,-77.9544 688.943,-75.6545 695.594,-83.9019 699.286,-77.9544"/>
</g>
<!-- Node25 -->
<g id="node25" class="node"><title>Node25</title>
<g id="a_node25"><a xlink:href="includes_2_a_cypher_8hpp.html" target="_top" xlink:title="ACypher.hpp">
<polygon fill="none" stroke="black" points="372,-56.5 372,-75.5 446,-75.5 446,-56.5 372,-56.5"/>
<text text-anchor="middle" x="409" y="-63.5" font-family="Helvetica,sans-Serif" font-size="10.00">ACypher.hpp</text>
</a>
</g>
</g>
<!-- Node24&#45;&gt;Node25 -->
<g id="edge31" class="edge"><title>Node24&#45;&gt;Node25</title>
<path fill="none" stroke="midnightblue" d="M327.585,-112.324C342.999,-103.743 366.812,-90.486 384.71,-80.5224"/>
<polygon fill="midnightblue" stroke="midnightblue" points="386.419,-83.5767 393.454,-75.6545 383.014,-77.4606 386.419,-83.5767"/>
</g>
<!-- Node25&#45;&gt;Node6 -->
<g id="edge32" class="edge"><title>Node25&#45;&gt;Node6</title>
<path fill="none" stroke="midnightblue" d="M403.551,-56.083C398.986,-48.6127 392.332,-37.7244 386.707,-28.5199"/>
<polygon fill="midnightblue" stroke="midnightblue" points="389.549,-26.4588 381.348,-19.7511 383.576,-30.109 389.549,-26.4588"/>
</g>
<!-- Node26&#45;&gt;Node25 -->
<g id="edge34" class="edge"><title>Node26&#45;&gt;Node25</title>
<path fill="none" stroke="midnightblue" d="M478.665,-112.324C465.838,-103.979 446.215,-91.2122 431.06,-81.3524"/>
<polygon fill="midnightblue" stroke="midnightblue" points="432.593,-78.1742 422.302,-75.6545 428.776,-84.0417 432.593,-78.1742"/>
</g>
<!-- Node27&#45;&gt;Node3 -->
<g id="edge37" class="edge"><title>Node27&#45;&gt;Node3</title>
<path fill="none" stroke="midnightblue" d="M681.124,-112.444C702.024,-103.557 734.935,-89.5632 758.716,-79.4514"/>
<polygon fill="midnightblue" stroke="midnightblue" points="760.138,-82.6504 767.971,-75.5164 757.398,-76.2085 760.138,-82.6504"/>
</g>
<!-- Node27&#45;&gt;Node6 -->
<g id="edge36" class="edge"><title>Node27&#45;&gt;Node6</title>
<path fill="none" stroke="midnightblue" d="M638.637,-112.368C587.883,-92.7792 463.932,-44.9388 406.338,-22.7094"/>
<polygon fill="midnightblue" stroke="midnightblue" points="407.301,-19.3296 396.712,-18.994 404.781,-25.86 407.301,-19.3296"/>
</g>
<!-- Node27&#45;&gt;Node23 -->
<g id="edge38" class="edge"><title>Node27&#45;&gt;Node23</title>
<path fill="none" stroke="midnightblue" d="M663.312,-112.083C665.167,-104.927 667.835,-94.6353 670.154,-85.6911"/>
<polygon fill="midnightblue" stroke="midnightblue" points="673.609,-86.3094 672.731,-75.7511 666.834,-84.5527 673.609,-86.3094"/>
</g>
</g>
</svg>
