<?xml version="1.0" encoding="UTF-8" standalone="no"?>
<!DOCTYPE svg PUBLIC "-//W3C//DTD SVG 1.1//EN"
 "http://www.w3.org/Graphics/SVG/1.1/DTD/svg11.dtd">
<!-- Generated by graphviz version 2.38.0 (20140413.2041)
 -->
<!-- Title: /home/gogo/rendu/tek2/cpp_plazza/includes/ConnectorPipe.hpp Pages: 1 -->
<svg width="128pt" height="162pt"
 viewBox="0.00 0.00 128.00 162.00" xmlns="http://www.w3.org/2000/svg" xmlns:xlink="http://www.w3.org/1999/xlink">
<g id="graph0" class="graph" transform="scale(1 1) rotate(0) translate(4 158)">
<title>/home/gogo/rendu/tek2/cpp_plazza/includes/ConnectorPipe.hpp</title>
<!-- Node1 -->
<g id="node1" class="node"><title>Node1</title>
<polygon fill="#bfbfbf" stroke="black" points="-7.10543e-15,-112.5 -7.10543e-15,-153.5 116,-153.5 116,-112.5 -7.10543e-15,-112.5"/>
<text text-anchor="start" x="8" y="-141.5" font-family="Helvetica,sans-Serif" font-size="10.00">/home/gogo/rendu/tek2</text>
<text text-anchor="start" x="8" y="-130.5" font-family="Helvetica,sans-Serif" font-size="10.00">/cpp_plazza/includes</text>
<text text-anchor="middle" x="58" y="-119.5" font-family="Helvetica,sans-Serif" font-size="10.00">/ConnectorPipe.hpp</text>
</g>
<!-- Node2 -->
<g id="node2" class="node"><title>Node2</title>
<polygon fill="none" stroke="#bfbfbf" points="37.5,-0.5 37.5,-19.5 78.5,-19.5 78.5,-0.5 37.5,-0.5"/>
<text text-anchor="middle" x="58" y="-7.5" font-family="Helvetica,sans-Serif" font-size="10.00">string</text>
</g>
<!-- Node1&#45;&gt;Node2 -->
<g id="edge1" class="edge"><title>Node1&#45;&gt;Node2</title>
<path fill="none" stroke="midnightblue" d="M52.2854,-112.351C48.5243,-97.0256 44.6883,-75.1926 47,-56 48.0712,-47.1069 50.2923,-37.4344 52.4601,-29.344"/>
<polygon fill="midnightblue" stroke="midnightblue" points="55.8868,-30.0908 55.2701,-19.5139 49.1563,-28.1668 55.8868,-30.0908"/>
</g>
<!-- Node3 -->
<g id="node3" class="node"><title>Node3</title>
<g id="a_node3"><a xlink:href="includes_2_config_8hpp.html" target="_top" xlink:title="Config.hpp">
<polygon fill="none" stroke="black" points="56,-56.5 56,-75.5 120,-75.5 120,-56.5 56,-56.5"/>
<text text-anchor="middle" x="88" y="-63.5" font-family="Helvetica,sans-Serif" font-size="10.00">Config.hpp</text>
</a>
</g>
</g>
<!-- Node1&#45;&gt;Node3 -->
<g id="edge2" class="edge"><title>Node1&#45;&gt;Node3</title>
<path fill="none" stroke="midnightblue" d="M67.001,-112.498C71.0698,-103.682 75.8438,-93.3385 79.8108,-84.7432"/>
<polygon fill="midnightblue" stroke="midnightblue" points="82.9938,-86.1988 84.0065,-75.6525 76.638,-83.2654 82.9938,-86.1988"/>
</g>
<!-- Node3&#45;&gt;Node2 -->
<g id="edge3" class="edge"><title>Node3&#45;&gt;Node2</title>
<path fill="none" stroke="midnightblue" d="M83.0461,-56.083C78.8959,-48.6127 72.8469,-37.7244 67.7333,-28.5199"/>
<polygon fill="midnightblue" stroke="midnightblue" points="70.7777,-26.7929 62.8617,-19.7511 64.6586,-30.1924 70.7777,-26.7929"/>
</g>
</g>
</svg>
