<?xml version="1.0" encoding="UTF-8" standalone="no"?>
<!DOCTYPE svg PUBLIC "-//W3C//DTD SVG 1.1//EN"
 "http://www.w3.org/Graphics/SVG/1.1/DTD/svg11.dtd">
<!-- Generated by graphviz version 2.38.0 (20140413.2041)
 -->
<!-- Title: /home/gogo/rendu/tek2/cpp_plazza/includes/Office.hpp Pages: 1 -->
<svg width="713pt" height="284pt"
 viewBox="0.00 0.00 712.50 284.00" xmlns="http://www.w3.org/2000/svg" xmlns:xlink="http://www.w3.org/1999/xlink">
<g id="graph0" class="graph" transform="scale(1 1) rotate(0) translate(4 280)">
<title>/home/gogo/rendu/tek2/cpp_plazza/includes/Office.hpp</title>
<!-- Node1 -->
<g id="node1" class="node"><title>Node1</title>
<polygon fill="#bfbfbf" stroke="black" points="229,-234.5 229,-275.5 345,-275.5 345,-234.5 229,-234.5"/>
<text text-anchor="start" x="237" y="-263.5" font-family="Helvetica,sans-Serif" font-size="10.00">/home/gogo/rendu/tek2</text>
<text text-anchor="start" x="237" y="-252.5" font-family="Helvetica,sans-Serif" font-size="10.00">/cpp_plazza/includes</text>
<text text-anchor="middle" x="287" y="-241.5" font-family="Helvetica,sans-Serif" font-size="10.00">/Office.hpp</text>
</g>
<!-- Node2 -->
<g id="node2" class="node"><title>Node2</title>
<g id="a_node2"><a xlink:href="gui_2sources_2_office_8cpp.html" target="_top" xlink:title="/home/gogo/rendu/tek2\l/cpp_plazza/gui/sources\l/Office.cpp">
<polygon fill="none" stroke="black" points="46,-156.5 46,-197.5 168,-197.5 168,-156.5 46,-156.5"/>
<text text-anchor="start" x="54" y="-185.5" font-family="Helvetica,sans-Serif" font-size="10.00">/home/gogo/rendu/tek2</text>
<text text-anchor="start" x="54" y="-174.5" font-family="Helvetica,sans-Serif" font-size="10.00">/cpp_plazza/gui/sources</text>
<text text-anchor="middle" x="107" y="-163.5" font-family="Helvetica,sans-Serif" font-size="10.00">/Office.cpp</text>
</a>
</g>
</g>
<!-- Node1&#45;&gt;Node2 -->
<g id="edge1" class="edge"><title>Node1&#45;&gt;Node2</title>
<path fill="none" stroke="midnightblue" d="M231.269,-230.469C206.218,-219.892 177.004,-207.557 153.197,-197.506"/>
<polygon fill="midnightblue" stroke="midnightblue" points="230.072,-233.763 240.646,-234.428 232.794,-227.314 230.072,-233.763"/>
</g>
<!-- Node3 -->
<g id="node3" class="node"><title>Node3</title>
<g id="a_node3"><a xlink:href="includes_2_process_manager_8hpp.html" target="_top" xlink:title="/home/gogo/rendu/tek2\l/cpp_plazza/includes\l/ProcessManager.hpp">
<polygon fill="none" stroke="black" points="186,-156.5 186,-197.5 302,-197.5 302,-156.5 186,-156.5"/>
<text text-anchor="start" x="194" y="-185.5" font-family="Helvetica,sans-Serif" font-size="10.00">/home/gogo/rendu/tek2</text>
<text text-anchor="start" x="194" y="-174.5" font-family="Helvetica,sans-Serif" font-size="10.00">/cpp_plazza/includes</text>
<text text-anchor="middle" x="244" y="-163.5" font-family="Helvetica,sans-Serif" font-size="10.00">/ProcessManager.hpp</text>
</a>
</g>
</g>
<!-- Node1&#45;&gt;Node3 -->
<g id="edge2" class="edge"><title>Node1&#45;&gt;Node3</title>
<path fill="none" stroke="midnightblue" d="M270.856,-225.466C265.581,-216.143 259.846,-206.007 255.036,-197.506"/>
<polygon fill="midnightblue" stroke="midnightblue" points="267.956,-227.448 275.926,-234.428 274.048,-224.001 267.956,-227.448"/>
</g>
<!-- Node5 -->
<g id="node5" class="node"><title>Node5</title>
<g id="a_node5"><a xlink:href="includes_2_reception_8hpp.html" target="_top" xlink:title="/home/gogo/rendu/tek2\l/cpp_plazza/includes\l/Reception.hpp">
<polygon fill="none" stroke="black" points="304,-78.5 304,-119.5 420,-119.5 420,-78.5 304,-78.5"/>
<text text-anchor="start" x="312" y="-107.5" font-family="Helvetica,sans-Serif" font-size="10.00">/home/gogo/rendu/tek2</text>
<text text-anchor="start" x="312" y="-96.5" font-family="Helvetica,sans-Serif" font-size="10.00">/cpp_plazza/includes</text>
<text text-anchor="middle" x="362" y="-85.5" font-family="Helvetica,sans-Serif" font-size="10.00">/Reception.hpp</text>
</a>
</g>
</g>
<!-- Node1&#45;&gt;Node5 -->
<g id="edge10" class="edge"><title>Node1&#45;&gt;Node5</title>
<path fill="none" stroke="midnightblue" d="M301.042,-225.167C316.01,-194.432 339.31,-146.59 352.341,-119.832"/>
<polygon fill="midnightblue" stroke="midnightblue" points="297.731,-223.973 296.499,-234.496 304.024,-227.038 297.731,-223.973"/>
</g>
<!-- Node11 -->
<g id="node11" class="node"><title>Node11</title>
<g id="a_node11"><a xlink:href="sources_2_office_8cpp.html" target="_top" xlink:title="/home/gogo/rendu/tek2\l/cpp_plazza/sources/Office.cpp">
<polygon fill="none" stroke="black" points="358.5,-162 358.5,-192 513.5,-192 513.5,-162 358.5,-162"/>
<text text-anchor="start" x="366.5" y="-180" font-family="Helvetica,sans-Serif" font-size="10.00">/home/gogo/rendu/tek2</text>
<text text-anchor="middle" x="436" y="-169" font-family="Helvetica,sans-Serif" font-size="10.00">/cpp_plazza/sources/Office.cpp</text>
</a>
</g>
</g>
<!-- Node1&#45;&gt;Node11 -->
<g id="edge11" class="edge"><title>Node1&#45;&gt;Node11</title>
<path fill="none" stroke="midnightblue" d="M334.431,-229.807C358.706,-217.425 387.418,-202.78 408.111,-192.225"/>
<polygon fill="midnightblue" stroke="midnightblue" points="332.689,-226.766 325.371,-234.428 335.87,-233.002 332.689,-226.766"/>
</g>
<!-- Node4 -->
<g id="node4" class="node"><title>Node4</title>
<g id="a_node4"><a xlink:href="gui_2sources_2_process_manager_8cpp.html" target="_top" xlink:title="/home/gogo/rendu/tek2\l/cpp_plazza/gui/sources\l/ProcessManager.cpp">
<polygon fill="none" stroke="black" points="0,-78.5 0,-119.5 122,-119.5 122,-78.5 0,-78.5"/>
<text text-anchor="start" x="8" y="-107.5" font-family="Helvetica,sans-Serif" font-size="10.00">/home/gogo/rendu/tek2</text>
<text text-anchor="start" x="8" y="-96.5" font-family="Helvetica,sans-Serif" font-size="10.00">/cpp_plazza/gui/sources</text>
<text text-anchor="middle" x="61" y="-85.5" font-family="Helvetica,sans-Serif" font-size="10.00">/ProcessManager.cpp</text>
</a>
</g>
</g>
<!-- Node3&#45;&gt;Node4 -->
<g id="edge3" class="edge"><title>Node3&#45;&gt;Node4</title>
<path fill="none" stroke="midnightblue" d="M187.34,-152.469C161.872,-141.892 132.171,-129.557 107.967,-119.506"/>
<polygon fill="midnightblue" stroke="midnightblue" points="186.295,-155.825 196.873,-156.428 188.98,-149.36 186.295,-155.825"/>
</g>
<!-- Node3&#45;&gt;Node5 -->
<g id="edge4" class="edge"><title>Node3&#45;&gt;Node5</title>
<path fill="none" stroke="midnightblue" d="M282.941,-150.919C298.805,-140.702 316.865,-129.07 331.715,-119.506"/>
<polygon fill="midnightblue" stroke="midnightblue" points="280.9,-148.071 274.388,-156.428 284.69,-153.956 280.9,-148.071"/>
</g>
<!-- Node10 -->
<g id="node10" class="node"><title>Node10</title>
<g id="a_node10"><a xlink:href="sources_2_process_manager_8cpp.html" target="_top" xlink:title="/home/gogo/rendu/tek2\l/cpp_plazza/sources/Process\lManager.cpp">
<polygon fill="none" stroke="black" points="140,-78.5 140,-119.5 286,-119.5 286,-78.5 140,-78.5"/>
<text text-anchor="start" x="148" y="-107.5" font-family="Helvetica,sans-Serif" font-size="10.00">/home/gogo/rendu/tek2</text>
<text text-anchor="start" x="148" y="-96.5" font-family="Helvetica,sans-Serif" font-size="10.00">/cpp_plazza/sources/Process</text>
<text text-anchor="middle" x="213" y="-85.5" font-family="Helvetica,sans-Serif" font-size="10.00">Manager.cpp</text>
</a>
</g>
</g>
<!-- Node3&#45;&gt;Node10 -->
<g id="edge9" class="edge"><title>Node3&#45;&gt;Node10</title>
<path fill="none" stroke="midnightblue" d="M232.123,-146.882C228.386,-137.721 224.352,-127.83 220.956,-119.506"/>
<polygon fill="midnightblue" stroke="midnightblue" points="228.999,-148.491 236.017,-156.428 235.481,-145.847 228.999,-148.491"/>
</g>
<!-- Node6 -->
<g id="node6" class="node"><title>Node6</title>
<g id="a_node6"><a xlink:href="gui_2sources_2main_8cpp.html" target="_top" xlink:title="/home/gogo/rendu/tek2\l/cpp_plazza/gui/sources\l/main.cpp">
<polygon fill="none" stroke="black" points="84,-0.5 84,-41.5 206,-41.5 206,-0.5 84,-0.5"/>
<text text-anchor="start" x="92" y="-29.5" font-family="Helvetica,sans-Serif" font-size="10.00">/home/gogo/rendu/tek2</text>
<text text-anchor="start" x="92" y="-18.5" font-family="Helvetica,sans-Serif" font-size="10.00">/cpp_plazza/gui/sources</text>
<text text-anchor="middle" x="145" y="-7.5" font-family="Helvetica,sans-Serif" font-size="10.00">/main.cpp</text>
</a>
</g>
</g>
<!-- Node5&#45;&gt;Node6 -->
<g id="edge5" class="edge"><title>Node5&#45;&gt;Node6</title>
<path fill="none" stroke="midnightblue" d="M296.404,-75.0264C265.856,-64.3275 229.899,-51.7343 200.694,-41.5056"/>
<polygon fill="midnightblue" stroke="midnightblue" points="295.522,-78.4259 306.117,-78.4281 297.836,-71.8193 295.522,-78.4259"/>
</g>
<!-- Node7 -->
<g id="node7" class="node"><title>Node7</title>
<g id="a_node7"><a xlink:href="gui_2sources_2_reception_8cpp.html" target="_top" xlink:title="/home/gogo/rendu/tek2\l/cpp_plazza/gui/sources\l/Reception.cpp">
<polygon fill="none" stroke="black" points="224,-0.5 224,-41.5 346,-41.5 346,-0.5 224,-0.5"/>
<text text-anchor="start" x="232" y="-29.5" font-family="Helvetica,sans-Serif" font-size="10.00">/home/gogo/rendu/tek2</text>
<text text-anchor="start" x="232" y="-18.5" font-family="Helvetica,sans-Serif" font-size="10.00">/cpp_plazza/gui/sources</text>
<text text-anchor="middle" x="285" y="-7.5" font-family="Helvetica,sans-Serif" font-size="10.00">/Reception.cpp</text>
</a>
</g>
</g>
<!-- Node5&#45;&gt;Node7 -->
<g id="edge6" class="edge"><title>Node5&#45;&gt;Node7</title>
<path fill="none" stroke="midnightblue" d="M334.851,-71.204C324.935,-61.416 313.914,-50.5388 304.762,-41.5056"/>
<polygon fill="midnightblue" stroke="midnightblue" points="332.595,-73.8944 342.171,-78.4281 337.512,-68.9124 332.595,-73.8944"/>
</g>
<!-- Node8 -->
<g id="node8" class="node"><title>Node8</title>
<g id="a_node8"><a xlink:href="sources_2main_8cpp.html" target="_top" xlink:title="/home/gogo/rendu/tek2\l/cpp_plazza/sources/main.cpp">
<polygon fill="none" stroke="black" points="364.5,-6 364.5,-36 513.5,-36 513.5,-6 364.5,-6"/>
<text text-anchor="start" x="372.5" y="-24" font-family="Helvetica,sans-Serif" font-size="10.00">/home/gogo/rendu/tek2</text>
<text text-anchor="middle" x="439" y="-13" font-family="Helvetica,sans-Serif" font-size="10.00">/cpp_plazza/sources/main.cpp</text>
</a>
</g>
</g>
<!-- Node5&#45;&gt;Node8 -->
<g id="edge7" class="edge"><title>Node5&#45;&gt;Node8</title>
<path fill="none" stroke="midnightblue" d="M389.027,-71.3245C400.999,-59.5076 414.6,-46.0827 424.587,-36.2254"/>
<polygon fill="midnightblue" stroke="midnightblue" points="386.488,-68.9124 381.829,-78.4281 391.405,-73.8944 386.488,-68.9124"/>
</g>
<!-- Node9 -->
<g id="node9" class="node"><title>Node9</title>
<g id="a_node9"><a xlink:href="sources_2_reception_8cpp.html" target="_top" xlink:title="/home/gogo/rendu/tek2\l/cpp_plazza/sources/Reception.cpp">
<polygon fill="none" stroke="black" points="531.5,-6 531.5,-36 704.5,-36 704.5,-6 531.5,-6"/>
<text text-anchor="start" x="539.5" y="-24" font-family="Helvetica,sans-Serif" font-size="10.00">/home/gogo/rendu/tek2</text>
<text text-anchor="middle" x="618" y="-13" font-family="Helvetica,sans-Serif" font-size="10.00">/cpp_plazza/sources/Reception.cpp</text>
</a>
</g>
</g>
<!-- Node5&#45;&gt;Node9 -->
<g id="edge8" class="edge"><title>Node5&#45;&gt;Node9</title>
<path fill="none" stroke="midnightblue" d="M429.946,-77.8286C474.385,-64.6358 531.311,-47.7358 570.834,-36.0025"/>
<polygon fill="midnightblue" stroke="midnightblue" points="428.681,-74.5531 420.09,-80.7544 430.673,-81.2636 428.681,-74.5531"/>
</g>
</g>
</svg>
