<?xml version="1.0" encoding="UTF-8" standalone="no"?>
<!DOCTYPE svg PUBLIC "-//W3C//DTD SVG 1.1//EN"
 "http://www.w3.org/Graphics/SVG/1.1/DTD/svg11.dtd">
<!-- Generated by graphviz version 2.38.0 (20140413.2041)
 -->
<!-- Title: /home/gogo/rendu/tek2/cpp_plazza/includes/Reception.hpp Pages: 1 -->
<!--zoomable 442 -->
<svg id="main" version="1.1" xmlns="http://www.w3.org/2000/svg" xmlns:xlink="http://www.w3.org/1999/xlink" xml:space="preserve" onload="init(evt)">
<style type="text/css"><![CDATA[
.edge:hover path { stroke: red; }
.edge:hover polygon { stroke: red; fill: red; }
]]></style>
<script type="text/javascript"><![CDATA[
var edges = document.getElementsByTagName('g');
if (edges && edges.length) {
  for (var i=0;i<edges.length;i++) {
    if (edges[i].id.substr(0,4)=='edge') {
      edges[i].setAttribute('class','edge');
    }
  }
}
]]></script>
        <defs>
                <circle id="rim" cx="0" cy="0" r="7"/>
                <circle id="rim2" cx="0" cy="0" r="3.5"/>
                <g id="zoomPlus">
                        <use xlink:href="#rim" fill="#404040">
                                <set attributeName="fill" to="#808080" begin="zoomplus.mouseover" end="zoomplus.mouseout"/>
                        </use>
                        <path d="M-4,0h8M0,-4v8" fill="none" stroke="white" stroke-width="1.5" pointer-events="none"/>
                </g>
                <g id="zoomMin">
                        <use xlink:href="#rim" fill="#404040">
                                <set attributeName="fill" to="#808080" begin="zoomminus.mouseover" end="zoomminus.mouseout"/>
                        </use>
                        <path d="M-4,0h8" fill="none" stroke="white" stroke-width="1.5" pointer-events="none"/>
                </g>
                <g id="dirArrow">
                        <path fill="none" stroke="white" stroke-width="1.5" d="M0,-3.0v7 M-2.5,-0.5L0,-3.0L2.5,-0.5"/>
                </g>
               <g id="resetDef">
                       <use xlink:href="#rim2" fill="#404040">
                               <set attributeName="fill" to="#808080" begin="reset.mouseover" end="reset.mouseout"/>
                       </use>
               </g>
        </defs>

<script type="text/javascript">
var viewWidth = 1182;
var viewHeight = 442;
var sectionId = 'dynsection-0';
</script>
<script xlink:href="svgpan.js"/>
<svg id="graph" class="graph">
<g id="viewport">
<title>/home/gogo/rendu/tek2/cpp_plazza/includes/Reception.hpp</title>
<!-- Node1 -->
<g id="node1" class="node"><title>Node1</title>
<polygon fill="#bfbfbf" stroke="black" points="453,-392.5 453,-433.5 569,-433.5 569,-392.5 453,-392.5"/>
<text text-anchor="start" x="461" y="-421.5" font-family="Helvetica,sans-Serif" font-size="10.00">/home/gogo/rendu/tek2</text>
<text text-anchor="start" x="461" y="-410.5" font-family="Helvetica,sans-Serif" font-size="10.00">/cpp_plazza/includes</text>
<text text-anchor="middle" x="511" y="-399.5" font-family="Helvetica,sans-Serif" font-size="10.00">/Reception.hpp</text>
</g>
<!-- Node2 -->
<g id="node2" class="node"><title>Node2</title>
<polygon fill="none" stroke="#bfbfbf" points="54,-56.5 54,-75.5 98,-75.5 98,-56.5 54,-56.5"/>
<text text-anchor="middle" x="76" y="-63.5" font-family="Helvetica,sans-Serif" font-size="10.00">vector</text>
</g>
<!-- Node1&#45;&gt;Node2 -->
<g id="edge1" class="edge"><title>Node1&#45;&gt;Node2</title>
<path fill="none" stroke="midnightblue" d="M452.879,-410.43C318.947,-405.238 0,-383.194 0,-291 0,-291 0,-291 0,-177 0,-137.276 33.9641,-101.504 56.4821,-82.1536"/>
<polygon fill="midnightblue" stroke="midnightblue" points="58.9755,-84.6337 64.4572,-75.5672 54.518,-79.2364 58.9755,-84.6337"/>
</g>
<!-- Node3 -->
<g id="node3" class="node"><title>Node3</title>
<g id="a_node3"><a xlink:href="includes_2_office_8hpp.html" target="_top" xlink:title="Office.hpp">
<polygon fill="none" stroke="black" points="439,-280.5 439,-299.5 501,-299.5 501,-280.5 439,-280.5"/>
<text text-anchor="middle" x="470" y="-287.5" font-family="Helvetica,sans-Serif" font-size="10.00">Office.hpp</text>
</a>
</g>
</g>
<!-- Node1&#45;&gt;Node3 -->
<g id="edge2" class="edge"><title>Node1&#45;&gt;Node3</title>
<path fill="none" stroke="midnightblue" d="M502.826,-392.464C498.482,-381.778 493.189,-368.256 489,-356 483.712,-340.529 478.562,-322.686 474.961,-309.613"/>
<polygon fill="midnightblue" stroke="midnightblue" points="478.326,-308.647 472.332,-299.911 471.57,-310.478 478.326,-308.647"/>
</g>
<!-- Node6 -->
<g id="node6" class="node"><title>Node6</title>
<g id="a_node6"><a xlink:href="includes_2_connector_pipe_8hpp.html" target="_top" xlink:title="ConnectorPipe.hpp">
<polygon fill="none" stroke="black" points="872,-224.5 872,-243.5 972,-243.5 972,-224.5 872,-224.5"/>
<text text-anchor="middle" x="922" y="-231.5" font-family="Helvetica,sans-Serif" font-size="10.00">ConnectorPipe.hpp</text>
</a>
</g>
</g>
<!-- Node1&#45;&gt;Node6 -->
<g id="edge47" class="edge"><title>Node1&#45;&gt;Node6</title>
<path fill="none" stroke="midnightblue" d="M556.555,-392.382C641.59,-355.761 822.248,-277.959 892.857,-247.551"/>
<polygon fill="midnightblue" stroke="midnightblue" points="894.268,-250.754 902.068,-243.584 891.499,-244.325 894.268,-250.754"/>
</g>
<!-- Node29 -->
<g id="node29" class="node"><title>Node29</title>
<g id="a_node29"><a xlink:href="includes_2_process_manager_8hpp.html" target="_top" xlink:title="ProcessManager.hpp">
<polygon fill="none" stroke="black" points="498.5,-336.5 498.5,-355.5 607.5,-355.5 607.5,-336.5 498.5,-336.5"/>
<text text-anchor="middle" x="553" y="-343.5" font-family="Helvetica,sans-Serif" font-size="10.00">ProcessManager.hpp</text>
</a>
</g>
</g>
<!-- Node1&#45;&gt;Node29 -->
<g id="edge42" class="edge"><title>Node1&#45;&gt;Node29</title>
<path fill="none" stroke="midnightblue" d="M523.601,-392.498C529.422,-383.49 536.272,-372.888 541.896,-364.185"/>
<polygon fill="midnightblue" stroke="midnightblue" points="544.922,-365.951 547.409,-355.652 539.042,-362.152 544.922,-365.951"/>
</g>
<!-- Node3&#45;&gt;Node2 -->
<g id="edge4" class="edge"><title>Node3&#45;&gt;Node2</title>
<path fill="none" stroke="midnightblue" d="M438.832,-285.35C355.138,-274.895 128.534,-242.063 80,-188 54.8138,-159.945 62.9589,-111.8 70.0912,-85.4915"/>
<polygon fill="midnightblue" stroke="midnightblue" points="73.5143,-86.2575 72.9858,-75.6758 66.8002,-84.2775 73.5143,-86.2575"/>
</g>
<!-- Node4 -->
<g id="node4" class="node"><title>Node4</title>
<polygon fill="none" stroke="#bfbfbf" points="399,-224.5 399,-243.5 467,-243.5 467,-224.5 399,-224.5"/>
<text text-anchor="middle" x="433" y="-231.5" font-family="Helvetica,sans-Serif" font-size="10.00">sys/types.h</text>
</g>
<!-- Node3&#45;&gt;Node4 -->
<g id="edge3" class="edge"><title>Node3&#45;&gt;Node4</title>
<path fill="none" stroke="midnightblue" d="M463.89,-280.083C458.718,-272.534 451.154,-261.495 444.806,-252.23"/>
<polygon fill="midnightblue" stroke="midnightblue" points="447.536,-250.022 438.996,-243.751 441.761,-253.979 447.536,-250.022"/>
</g>
<!-- Node5 -->
<g id="node5" class="node"><title>Node5</title>
<polygon fill="none" stroke="#bfbfbf" points="485,-224.5 485,-243.5 531,-243.5 531,-224.5 485,-224.5"/>
<text text-anchor="middle" x="508" y="-231.5" font-family="Helvetica,sans-Serif" font-size="10.00">chrono</text>
</g>
<!-- Node3&#45;&gt;Node5 -->
<g id="edge5" class="edge"><title>Node3&#45;&gt;Node5</title>
<path fill="none" stroke="midnightblue" d="M476.275,-280.083C481.642,-272.455 489.518,-261.264 496.079,-251.941"/>
<polygon fill="midnightblue" stroke="midnightblue" points="498.949,-253.943 501.842,-243.751 493.225,-249.915 498.949,-253.943"/>
</g>
<!-- Node3&#45;&gt;Node6 -->
<g id="edge6" class="edge"><title>Node3&#45;&gt;Node6</title>
<path fill="none" stroke="midnightblue" d="M501.068,-285.288C575.329,-276.416 764.179,-253.855 861.692,-242.205"/>
<polygon fill="midnightblue" stroke="midnightblue" points="862.178,-245.672 871.692,-241.01 861.347,-238.721 862.178,-245.672"/>
</g>
<!-- Node9 -->
<g id="node9" class="node"><title>Node9</title>
<g id="a_node9"><a xlink:href="includes_2_thread_pool_8hpp.html" target="_top" xlink:title="ThreadPool.hpp">
<polygon fill="none" stroke="black" points="269.5,-224.5 269.5,-243.5 354.5,-243.5 354.5,-224.5 269.5,-224.5"/>
<text text-anchor="middle" x="312" y="-231.5" font-family="Helvetica,sans-Serif" font-size="10.00">ThreadPool.hpp</text>
</a>
</g>
</g>
<!-- Node3&#45;&gt;Node9 -->
<g id="edge10" class="edge"><title>Node3&#45;&gt;Node9</title>
<path fill="none" stroke="midnightblue" d="M444.964,-280.444C418.384,-271.359 376.191,-256.939 346.477,-246.783"/>
<polygon fill="midnightblue" stroke="midnightblue" points="347.513,-243.439 336.918,-243.516 345.249,-250.062 347.513,-243.439"/>
</g>
<!-- Node7 -->
<g id="node7" class="node"><title>Node7</title>
<polygon fill="none" stroke="#bfbfbf" points="902.5,-0.5 902.5,-19.5 943.5,-19.5 943.5,-0.5 902.5,-0.5"/>
<text text-anchor="middle" x="923" y="-7.5" font-family="Helvetica,sans-Serif" font-size="10.00">string</text>
</g>
<!-- Node6&#45;&gt;Node7 -->
<g id="edge7" class="edge"><title>Node6&#45;&gt;Node7</title>
<path fill="none" stroke="midnightblue" d="M953.163,-224.399C971.304,-217.642 992.754,-206.248 1004,-188 1021.73,-159.234 1010.96,-145.423 1006,-112 1002.18,-86.2715 1004.4,-76.9626 989,-56 979.194,-42.6507 964.172,-31.9625 950.935,-24.358"/>
<polygon fill="midnightblue" stroke="midnightblue" points="952.602,-21.2804 942.142,-19.5913 949.265,-27.4343 952.602,-21.2804"/>
</g>
<!-- Node8 -->
<g id="node8" class="node"><title>Node8</title>
<g id="a_node8"><a xlink:href="includes_2_config_8hpp.html" target="_top" xlink:title="Config.hpp">
<polygon fill="none" stroke="black" points="931,-168.5 931,-187.5 995,-187.5 995,-168.5 931,-168.5"/>
<text text-anchor="middle" x="963" y="-175.5" font-family="Helvetica,sans-Serif" font-size="10.00">Config.hpp</text>
</a>
</g>
</g>
<!-- Node6&#45;&gt;Node8 -->
<g id="edge8" class="edge"><title>Node6&#45;&gt;Node8</title>
<path fill="none" stroke="midnightblue" d="M928.77,-224.083C934.562,-216.455 943.058,-205.264 950.138,-195.941"/>
<polygon fill="midnightblue" stroke="midnightblue" points="953.096,-197.832 956.356,-187.751 947.521,-193.599 953.096,-197.832"/>
</g>
<!-- Node8&#45;&gt;Node7 -->
<g id="edge9" class="edge"><title>Node8&#45;&gt;Node7</title>
<path fill="none" stroke="midnightblue" d="M970.412,-168.411C977.276,-159.844 987.006,-145.979 991,-132 993.442,-123.453 992.654,-120.734 991,-112 986.024,-85.7264 983.774,-78.2887 969,-56 961.628,-44.878 951.122,-34.3388 942.011,-26.2595"/>
<polygon fill="midnightblue" stroke="midnightblue" points="944.05,-23.3993 934.166,-19.5851 939.514,-28.7308 944.05,-23.3993"/>
</g>
<!-- Node9&#45;&gt;Node2 -->
<g id="edge11" class="edge"><title>Node9&#45;&gt;Node2</title>
<path fill="none" stroke="midnightblue" d="M269.44,-229.679C213.723,-224.423 120.383,-212.204 97,-188 70.5459,-160.618 70.78,-112.56 73.3414,-85.9953"/>
<polygon fill="midnightblue" stroke="midnightblue" points="76.8542,-86.0924 74.5524,-75.7507 69.9026,-85.2706 76.8542,-86.0924"/>
</g>
<!-- Node10 -->
<g id="node10" class="node"><title>Node10</title>
<polygon fill="none" stroke="#bfbfbf" points="340,-168.5 340,-187.5 384,-187.5 384,-168.5 340,-168.5"/>
<text text-anchor="middle" x="362" y="-175.5" font-family="Helvetica,sans-Serif" font-size="10.00">mutex</text>
</g>
<!-- Node9&#45;&gt;Node10 -->
<g id="edge12" class="edge"><title>Node9&#45;&gt;Node10</title>
<path fill="none" stroke="midnightblue" d="M320.256,-224.083C327.465,-216.298 338.11,-204.801 346.846,-195.367"/>
<polygon fill="midnightblue" stroke="midnightblue" points="349.671,-197.467 353.897,-187.751 344.535,-192.711 349.671,-197.467"/>
</g>
<!-- Node11 -->
<g id="node11" class="node"><title>Node11</title>
<polygon fill="none" stroke="#bfbfbf" points="106.5,-168.5 106.5,-187.5 149.5,-187.5 149.5,-168.5 106.5,-168.5"/>
<text text-anchor="middle" x="128" y="-175.5" font-family="Helvetica,sans-Serif" font-size="10.00">queue</text>
</g>
<!-- Node9&#45;&gt;Node11 -->
<g id="edge13" class="edge"><title>Node9&#45;&gt;Node11</title>
<path fill="none" stroke="midnightblue" d="M282.845,-224.444C249.233,-214.579 194.186,-198.424 159.581,-188.268"/>
<polygon fill="midnightblue" stroke="midnightblue" points="160.126,-184.781 149.545,-185.323 158.155,-191.497 160.126,-184.781"/>
</g>
<!-- Node12 -->
<g id="node12" class="node"><title>Node12</title>
<g id="a_node12"><a xlink:href="includes_2_thread_8hpp.html" target="_top" xlink:title="Thread.hpp">
<polygon fill="none" stroke="black" points="297.5,-112.5 297.5,-131.5 362.5,-131.5 362.5,-112.5 297.5,-112.5"/>
<text text-anchor="middle" x="330" y="-119.5" font-family="Helvetica,sans-Serif" font-size="10.00">Thread.hpp</text>
</a>
</g>
</g>
<!-- Node9&#45;&gt;Node12 -->
<g id="edge14" class="edge"><title>Node9&#45;&gt;Node12</title>
<path fill="none" stroke="midnightblue" d="M313.412,-224.368C316.317,-206.617 323.018,-165.666 326.957,-141.597"/>
<polygon fill="midnightblue" stroke="midnightblue" points="330.433,-142.025 328.594,-131.591 323.525,-140.895 330.433,-142.025"/>
</g>
<!-- Node14 -->
<g id="node14" class="node"><title>Node14</title>
<g id="a_node14"><a xlink:href="includes_2_mutex_8hpp.html" target="_top" xlink:title="Mutex.hpp">
<polygon fill="none" stroke="black" points="104,-112.5 104,-131.5 166,-131.5 166,-112.5 104,-112.5"/>
<text text-anchor="middle" x="135" y="-119.5" font-family="Helvetica,sans-Serif" font-size="10.00">Mutex.hpp</text>
</a>
</g>
</g>
<!-- Node9&#45;&gt;Node14 -->
<g id="edge16" class="edge"><title>Node9&#45;&gt;Node14</title>
<path fill="none" stroke="midnightblue" d="M279.694,-224.498C255.588,-217.206 222.547,-205.142 197,-188 177.268,-174.759 159.06,-154.253 147.553,-139.82"/>
<polygon fill="midnightblue" stroke="midnightblue" points="150.187,-137.506 141.3,-131.738 144.651,-141.789 150.187,-137.506"/>
</g>
<!-- Node15 -->
<g id="node15" class="node"><title>Node15</title>
<g id="a_node15"><a xlink:href="includes_2_cond_var_8hpp.html" target="_top" xlink:title="CondVar.hpp">
<polygon fill="none" stroke="black" points="206,-168.5 206,-187.5 280,-187.5 280,-168.5 206,-168.5"/>
<text text-anchor="middle" x="243" y="-175.5" font-family="Helvetica,sans-Serif" font-size="10.00">CondVar.hpp</text>
</a>
</g>
</g>
<!-- Node9&#45;&gt;Node15 -->
<g id="edge17" class="edge"><title>Node9&#45;&gt;Node15</title>
<path fill="none" stroke="midnightblue" d="M300.914,-224.324C290.514,-216.185 274.739,-203.839 262.278,-194.087"/>
<polygon fill="midnightblue" stroke="midnightblue" points="264.32,-191.241 254.288,-187.834 260.006,-196.753 264.32,-191.241"/>
</g>
<!-- Node17 -->
<g id="node17" class="node"><title>Node17</title>
<g id="a_node17"><a xlink:href="includes_2_worker_8hpp.html" target="_top" xlink:title="Worker.hpp">
<polygon fill="none" stroke="black" points="532.5,-168.5 532.5,-187.5 599.5,-187.5 599.5,-168.5 532.5,-168.5"/>
<text text-anchor="middle" x="566" y="-175.5" font-family="Helvetica,sans-Serif" font-size="10.00">Worker.hpp</text>
</a>
</g>
</g>
<!-- Node9&#45;&gt;Node17 -->
<g id="edge20" class="edge"><title>Node9&#45;&gt;Node17</title>
<path fill="none" stroke="midnightblue" d="M352.247,-224.444C398.642,-214.58 474.624,-198.426 522.394,-188.271"/>
<polygon fill="midnightblue" stroke="midnightblue" points="523.377,-191.64 532.431,-186.137 521.921,-184.793 523.377,-191.64"/>
</g>
<!-- Node23 -->
<g id="node23" class="node"><title>Node23</title>
<g id="a_node23"><a xlink:href="includes_2_command_8hpp.html" target="_top" xlink:title="Command.hpp">
<polygon fill="none" stroke="black" points="381,-112.5 381,-131.5 461,-131.5 461,-112.5 381,-112.5"/>
<text text-anchor="middle" x="421" y="-119.5" font-family="Helvetica,sans-Serif" font-size="10.00">Command.hpp</text>
</a>
</g>
</g>
<!-- Node9&#45;&gt;Node23 -->
<g id="edge41" class="edge"><title>Node9&#45;&gt;Node23</title>
<path fill="none" stroke="midnightblue" d="M336.394,-224.41C354.104,-217.104 377.57,-205.062 393,-188 404.966,-174.769 412.365,-155.638 416.529,-141.556"/>
<polygon fill="midnightblue" stroke="midnightblue" points="420.001,-142.118 419.2,-131.553 413.238,-140.312 420.001,-142.118"/>
</g>
<!-- Node13 -->
<g id="node13" class="node"><title>Node13</title>
<polygon fill="none" stroke="#bfbfbf" points="308,-56.5 308,-75.5 352,-75.5 352,-56.5 308,-56.5"/>
<text text-anchor="middle" x="330" y="-63.5" font-family="Helvetica,sans-Serif" font-size="10.00">thread</text>
</g>
<!-- Node12&#45;&gt;Node13 -->
<g id="edge15" class="edge"><title>Node12&#45;&gt;Node13</title>
<path fill="none" stroke="midnightblue" d="M330,-112.083C330,-105.006 330,-94.8611 330,-85.9865"/>
<polygon fill="midnightblue" stroke="midnightblue" points="333.5,-85.751 330,-75.7511 326.5,-85.7511 333.5,-85.751"/>
</g>
<!-- Node15&#45;&gt;Node14 -->
<g id="edge19" class="edge"><title>Node15&#45;&gt;Node14</title>
<path fill="none" stroke="midnightblue" d="M225.648,-168.324C208.328,-159.664 181.485,-146.242 161.498,-136.249"/>
<polygon fill="midnightblue" stroke="midnightblue" points="162.819,-132.996 152.309,-131.655 159.688,-139.257 162.819,-132.996"/>
</g>
<!-- Node16 -->
<g id="node16" class="node"><title>Node16</title>
<polygon fill="none" stroke="#bfbfbf" points="184.5,-112.5 184.5,-131.5 279.5,-131.5 279.5,-112.5 184.5,-112.5"/>
<text text-anchor="middle" x="232" y="-119.5" font-family="Helvetica,sans-Serif" font-size="10.00">condition_variable</text>
</g>
<!-- Node15&#45;&gt;Node16 -->
<g id="edge18" class="edge"><title>Node15&#45;&gt;Node16</title>
<path fill="none" stroke="midnightblue" d="M241.184,-168.083C239.726,-160.927 237.629,-150.635 235.807,-141.691"/>
<polygon fill="midnightblue" stroke="midnightblue" points="239.208,-140.851 233.783,-131.751 232.349,-142.248 239.208,-140.851"/>
</g>
<!-- Node17&#45;&gt;Node12 -->
<g id="edge23" class="edge"><title>Node17&#45;&gt;Node12</title>
<path fill="none" stroke="midnightblue" d="M532.438,-169.32C490.438,-159.71 418.468,-143.243 372.618,-132.752"/>
<polygon fill="midnightblue" stroke="midnightblue" points="373.216,-129.298 362.687,-130.479 371.655,-136.122 373.216,-129.298"/>
</g>
<!-- Node18 -->
<g id="node18" class="node"><title>Node18</title>
<polygon fill="none" stroke="#bfbfbf" points="479.5,-112.5 479.5,-131.5 520.5,-131.5 520.5,-112.5 479.5,-112.5"/>
<text text-anchor="middle" x="500" y="-119.5" font-family="Helvetica,sans-Serif" font-size="10.00">regex</text>
</g>
<!-- Node17&#45;&gt;Node18 -->
<g id="edge21" class="edge"><title>Node17&#45;&gt;Node18</title>
<path fill="none" stroke="midnightblue" d="M555.396,-168.324C545.544,-160.263 530.649,-148.077 518.785,-138.369"/>
<polygon fill="midnightblue" stroke="midnightblue" points="520.753,-135.457 510.797,-131.834 516.32,-140.875 520.753,-135.457"/>
</g>
<!-- Node19 -->
<g id="node19" class="node"><title>Node19</title>
<polygon fill="none" stroke="#bfbfbf" points="539,-112.5 539,-131.5 593,-131.5 593,-112.5 539,-112.5"/>
<text text-anchor="middle" x="566" y="-119.5" font-family="Helvetica,sans-Serif" font-size="10.00">iostream</text>
</g>
<!-- Node17&#45;&gt;Node19 -->
<g id="edge22" class="edge"><title>Node17&#45;&gt;Node19</title>
<path fill="none" stroke="midnightblue" d="M566,-168.083C566,-161.006 566,-150.861 566,-141.986"/>
<polygon fill="midnightblue" stroke="midnightblue" points="569.5,-141.751 566,-131.751 562.5,-141.751 569.5,-141.751"/>
</g>
<!-- Node20 -->
<g id="node20" class="node"><title>Node20</title>
<g id="a_node20"><a xlink:href="includes_2_file_8hpp.html" target="_top" xlink:title="File.hpp">
<polygon fill="none" stroke="black" points="714.5,-112.5 714.5,-131.5 765.5,-131.5 765.5,-112.5 714.5,-112.5"/>
<text text-anchor="middle" x="740" y="-119.5" font-family="Helvetica,sans-Serif" font-size="10.00">File.hpp</text>
</a>
</g>
</g>
<!-- Node17&#45;&gt;Node20 -->
<g id="edge24" class="edge"><title>Node17&#45;&gt;Node20</title>
<path fill="none" stroke="midnightblue" d="M593.571,-168.444C623.618,-159.118 671.783,-144.171 704.604,-133.985"/>
<polygon fill="midnightblue" stroke="midnightblue" points="705.747,-137.295 714.26,-130.988 703.672,-130.61 705.747,-137.295"/>
</g>
<!-- Node17&#45;&gt;Node23 -->
<g id="edge28" class="edge"><title>Node17&#45;&gt;Node23</title>
<path fill="none" stroke="midnightblue" d="M543.024,-168.444C518.843,-159.438 480.582,-145.189 453.354,-135.049"/>
<polygon fill="midnightblue" stroke="midnightblue" points="454.461,-131.727 443.868,-131.516 452.018,-138.286 454.461,-131.727"/>
</g>
<!-- Node25 -->
<g id="node25" class="node"><title>Node25</title>
<g id="a_node25"><a xlink:href="includes_2_xor_cypher_8hpp.html" target="_top" xlink:title="XorCypher.hpp">
<polygon fill="none" stroke="black" points="784,-112.5 784,-131.5 866,-131.5 866,-112.5 784,-112.5"/>
<text text-anchor="middle" x="825" y="-119.5" font-family="Helvetica,sans-Serif" font-size="10.00">XorCypher.hpp</text>
</a>
</g>
</g>
<!-- Node17&#45;&gt;Node25 -->
<g id="edge32" class="edge"><title>Node17&#45;&gt;Node25</title>
<path fill="none" stroke="midnightblue" d="M599.594,-169.996C643.992,-160.739 722.607,-144.348 774.263,-133.578"/>
<polygon fill="midnightblue" stroke="midnightblue" points="775.141,-136.971 784.216,-131.503 773.712,-130.118 775.141,-136.971"/>
</g>
<!-- Node27 -->
<g id="node27" class="node"><title>Node27</title>
<g id="a_node27"><a xlink:href="includes_2_caesar_cypher_8hpp.html" target="_top" xlink:title="CaesarCypher.hpp">
<polygon fill="none" stroke="black" points="884,-112.5 884,-131.5 982,-131.5 982,-112.5 884,-112.5"/>
<text text-anchor="middle" x="933" y="-119.5" font-family="Helvetica,sans-Serif" font-size="10.00">CaesarCypher.hpp</text>
</a>
</g>
</g>
<!-- Node17&#45;&gt;Node27 -->
<g id="edge35" class="edge"><title>Node17&#45;&gt;Node27</title>
<path fill="none" stroke="midnightblue" d="M599.851,-172.176C654.995,-164.294 767.913,-148.059 874.04,-132.133"/>
<polygon fill="midnightblue" stroke="midnightblue" points="874.588,-135.59 883.957,-130.643 873.548,-128.668 874.588,-135.59"/>
</g>
<!-- Node28 -->
<g id="node28" class="node"><title>Node28</title>
<g id="a_node28"><a xlink:href="includes_2_xor_cracker_8hpp.html" target="_top" xlink:title="XorCracker.hpp">
<polygon fill="none" stroke="black" points="611.5,-112.5 611.5,-131.5 696.5,-131.5 696.5,-112.5 611.5,-112.5"/>
<text text-anchor="middle" x="654" y="-119.5" font-family="Helvetica,sans-Serif" font-size="10.00">XorCracker.hpp</text>
</a>
</g>
</g>
<!-- Node17&#45;&gt;Node28 -->
<g id="edge37" class="edge"><title>Node17&#45;&gt;Node28</title>
<path fill="none" stroke="midnightblue" d="M580.139,-168.324C593.866,-159.9 614.936,-146.971 631.064,-137.074"/>
<polygon fill="midnightblue" stroke="midnightblue" points="633.204,-139.868 639.896,-131.655 629.543,-133.902 633.204,-139.868"/>
</g>
<!-- Node20&#45;&gt;Node7 -->
<g id="edge25" class="edge"><title>Node20&#45;&gt;Node7</title>
<path fill="none" stroke="midnightblue" d="M761.611,-112.363C781.498,-104.071 811.529,-90.6686 836,-76 861.201,-60.8939 887.959,-40.0928 905.04,-26.1278"/>
<polygon fill="midnightblue" stroke="midnightblue" points="907.558,-28.5868 913.031,-19.5146 903.095,-23.1941 907.558,-28.5868"/>
</g>
<!-- Node21 -->
<g id="node21" class="node"><title>Node21</title>
<polygon fill="none" stroke="#bfbfbf" points="707,-56.5 707,-75.5 757,-75.5 757,-56.5 707,-56.5"/>
<text text-anchor="middle" x="732" y="-63.5" font-family="Helvetica,sans-Serif" font-size="10.00">fstream</text>
</g>
<!-- Node20&#45;&gt;Node21 -->
<g id="edge26" class="edge"><title>Node20&#45;&gt;Node21</title>
<path fill="none" stroke="midnightblue" d="M738.679,-112.083C737.619,-104.927 736.094,-94.6353 734.769,-85.6911"/>
<polygon fill="midnightblue" stroke="midnightblue" points="738.224,-85.1302 733.296,-75.7511 731.3,-86.1561 738.224,-85.1302"/>
</g>
<!-- Node22 -->
<g id="node22" class="node"><title>Node22</title>
<polygon fill="none" stroke="#bfbfbf" points="775,-56.5 775,-75.5 827,-75.5 827,-56.5 775,-56.5"/>
<text text-anchor="middle" x="801" y="-63.5" font-family="Helvetica,sans-Serif" font-size="10.00">sstream</text>
</g>
<!-- Node20&#45;&gt;Node22 -->
<g id="edge27" class="edge"><title>Node20&#45;&gt;Node22</title>
<path fill="none" stroke="midnightblue" d="M749.801,-112.324C758.818,-104.341 772.406,-92.3128 783.318,-82.6529"/>
<polygon fill="midnightblue" stroke="midnightblue" points="785.853,-85.083 791.021,-75.8339 781.213,-79.8416 785.853,-85.083"/>
</g>
<!-- Node23&#45;&gt;Node2 -->
<g id="edge30" class="edge"><title>Node23&#45;&gt;Node2</title>
<path fill="none" stroke="midnightblue" d="M380.899,-113.685C377.552,-113.104 374.219,-112.535 371,-112 275.655,-96.1497 162.605,-79.5025 108.293,-71.6378"/>
<polygon fill="midnightblue" stroke="midnightblue" points="108.634,-68.1508 98.2361,-70.1848 107.633,-75.0788 108.634,-68.1508"/>
</g>
<!-- Node23&#45;&gt;Node7 -->
<g id="edge29" class="edge"><title>Node23&#45;&gt;Node7</title>
<path fill="none" stroke="midnightblue" d="M433.936,-112.322C456.047,-97.9608 502.996,-69.5008 547,-56 670.838,-18.0056 826.781,-11.8398 892.052,-11.0152"/>
<polygon fill="midnightblue" stroke="midnightblue" points="892.122,-14.5148 902.089,-10.9225 892.057,-7.51507 892.122,-14.5148"/>
</g>
<!-- Node24 -->
<g id="node24" class="node"><title>Node24</title>
<polygon fill="none" stroke="#bfbfbf" points="556.5,-56.5 556.5,-75.5 591.5,-75.5 591.5,-56.5 556.5,-56.5"/>
<text text-anchor="middle" x="574" y="-63.5" font-family="Helvetica,sans-Serif" font-size="10.00">map</text>
</g>
<!-- Node23&#45;&gt;Node24 -->
<g id="edge31" class="edge"><title>Node23&#45;&gt;Node24</title>
<path fill="none" stroke="midnightblue" d="M445.243,-112.444C472.83,-102.707 517.784,-86.8408 546.615,-76.6654"/>
<polygon fill="midnightblue" stroke="midnightblue" points="547.82,-79.9517 556.085,-73.323 545.49,-73.3508 547.82,-79.9517"/>
</g>
<!-- Node26 -->
<g id="node26" class="node"><title>Node26</title>
<g id="a_node26"><a xlink:href="includes_2_a_cypher_8hpp.html" target="_top" xlink:title="ACypher.hpp">
<polygon fill="none" stroke="black" points="886,-56.5 886,-75.5 960,-75.5 960,-56.5 886,-56.5"/>
<text text-anchor="middle" x="923" y="-63.5" font-family="Helvetica,sans-Serif" font-size="10.00">ACypher.hpp</text>
</a>
</g>
</g>
<!-- Node25&#45;&gt;Node26 -->
<g id="edge33" class="edge"><title>Node25&#45;&gt;Node26</title>
<path fill="none" stroke="midnightblue" d="M840.745,-112.324C856.319,-103.743 880.377,-90.486 898.459,-80.5224"/>
<polygon fill="midnightblue" stroke="midnightblue" points="900.224,-83.546 907.294,-75.6545 896.846,-77.4152 900.224,-83.546"/>
</g>
<!-- Node26&#45;&gt;Node7 -->
<g id="edge34" class="edge"><title>Node26&#45;&gt;Node7</title>
<path fill="none" stroke="midnightblue" d="M923,-56.083C923,-49.0059 923,-38.8611 923,-29.9865"/>
<polygon fill="midnightblue" stroke="midnightblue" points="926.5,-29.751 923,-19.7511 919.5,-29.7511 926.5,-29.751"/>
</g>
<!-- Node27&#45;&gt;Node26 -->
<g id="edge36" class="edge"><title>Node27&#45;&gt;Node26</title>
<path fill="none" stroke="midnightblue" d="M931.349,-112.083C930.024,-104.927 928.118,-94.6353 926.461,-85.6911"/>
<polygon fill="midnightblue" stroke="midnightblue" points="929.883,-84.9466 924.621,-75.7511 923,-86.2212 929.883,-84.9466"/>
</g>
<!-- Node28&#45;&gt;Node2 -->
<g id="edge39" class="edge"><title>Node28&#45;&gt;Node2</title>
<path fill="none" stroke="midnightblue" d="M611.478,-113.334C608.276,-112.85 605.089,-112.399 602,-112 415.645,-87.9469 190.426,-73.5588 108.107,-68.7817"/>
<polygon fill="midnightblue" stroke="midnightblue" points="108.305,-65.2874 98.1209,-68.2089 107.904,-72.2759 108.305,-65.2874"/>
</g>
<!-- Node28&#45;&gt;Node7 -->
<g id="edge38" class="edge"><title>Node28&#45;&gt;Node7</title>
<path fill="none" stroke="midnightblue" d="M657.335,-112.225C663.228,-97.9853 676.89,-70.0292 698,-56 758.202,-15.9909 846.101,-10.0908 892.189,-10.0473"/>
<polygon fill="midnightblue" stroke="midnightblue" points="892.401,-13.5491 902.431,-10.1352 892.461,-6.5494 892.401,-13.5491"/>
</g>
<!-- Node28&#45;&gt;Node24 -->
<g id="edge40" class="edge"><title>Node28&#45;&gt;Node24</title>
<path fill="none" stroke="midnightblue" d="M641.147,-112.324C628.784,-103.979 609.87,-91.2122 595.263,-81.3524"/>
<polygon fill="midnightblue" stroke="midnightblue" points="597.068,-78.3483 586.821,-75.6545 593.152,-84.1503 597.068,-78.3483"/>
</g>
<!-- Node29&#45;&gt;Node3 -->
<g id="edge43" class="edge"><title>Node29&#45;&gt;Node3</title>
<path fill="none" stroke="midnightblue" d="M539.665,-336.324C526.838,-327.979 507.215,-315.212 492.06,-305.352"/>
<polygon fill="midnightblue" stroke="midnightblue" points="493.593,-302.174 483.302,-299.655 489.776,-308.042 493.593,-302.174"/>
</g>
<!-- Node30 -->
<g id="node30" class="node"><title>Node30</title>
<g id="a_node30"><a xlink:href="includes_2_error_8hpp.html" target="_top" xlink:title="Error.hpp">
<polygon fill="none" stroke="black" points="1058,-280.5 1058,-299.5 1114,-299.5 1114,-280.5 1058,-280.5"/>
<text text-anchor="middle" x="1086" y="-287.5" font-family="Helvetica,sans-Serif" font-size="10.00">Error.hpp</text>
</a>
</g>
</g>
<!-- Node29&#45;&gt;Node30 -->
<g id="edge44" class="edge"><title>Node29&#45;&gt;Node30</title>
<path fill="none" stroke="midnightblue" d="M607.536,-339.475C715.601,-328.526 954.523,-304.32 1047.72,-294.879"/>
<polygon fill="midnightblue" stroke="midnightblue" points="1048.23,-298.344 1057.83,-293.854 1047.53,-291.38 1048.23,-298.344"/>
</g>
<!-- Node30&#45;&gt;Node7 -->
<g id="edge45" class="edge"><title>Node30&#45;&gt;Node7</title>
<path fill="none" stroke="midnightblue" d="M1086,-280.442C1086,-261.936 1086,-216.812 1086,-179 1086,-179 1086,-179 1086,-121 1086,-57.839 1000.87,-28.5189 953.653,-17.1144"/>
<polygon fill="midnightblue" stroke="midnightblue" points="954.172,-13.6429 943.644,-14.8273 952.613,-20.467 954.172,-13.6429"/>
</g>
<!-- Node31 -->
<g id="node31" class="node"><title>Node31</title>
<polygon fill="none" stroke="#bfbfbf" points="1114.5,-224.5 1114.5,-243.5 1173.5,-243.5 1173.5,-224.5 1114.5,-224.5"/>
<text text-anchor="middle" x="1144" y="-231.5" font-family="Helvetica,sans-Serif" font-size="10.00">exception</text>
</g>
<!-- Node30&#45;&gt;Node31 -->
<g id="edge46" class="edge"><title>Node30&#45;&gt;Node31</title>
<path fill="none" stroke="midnightblue" d="M1095.32,-280.324C1103.89,-272.341 1116.81,-260.313 1127.19,-250.653"/>
<polygon fill="midnightblue" stroke="midnightblue" points="1129.58,-253.21 1134.51,-243.834 1124.81,-248.086 1129.58,-253.21"/>
</g>
</g>
</svg>
        <g id="navigator" transform="translate(0 0)" fill="#404254">
                <rect fill="#f2f5e9" fill-opacity="0.5" stroke="#606060" stroke-width=".5" x="0" y="0" width="60" height="60"/>
                <use id="zoomplus" xlink:href="#zoomPlus" x="17" y="9" onmousedown="handleZoom(evt,'in')"/>
                <use id="zoomminus" xlink:href="#zoomMin" x="42" y="9" onmousedown="handleZoom(evt,'out')"/>
                <use id="reset" xlink:href="#resetDef" x="30" y="36" onmousedown="handleReset()"/>
                <g id="arrowUp" xlink:href="#dirArrow" transform="translate(30 24)" onmousedown="handlePan(0,-1)">
                  <use xlink:href="#rim" fill="#404040">
                        <set attributeName="fill" to="#808080" begin="arrowUp.mouseover" end="arrowUp.mouseout"/>
                  </use>
                  <path fill="none" stroke="white" stroke-width="1.5" d="M0,-3.0v7 M-2.5,-0.5L0,-3.0L2.5,-0.5"/>
                </g>
                <g id="arrowRight" xlink:href="#dirArrow" transform="rotate(90) translate(36 -43)" onmousedown="handlePan(1,0)">
                  <use xlink:href="#rim" fill="#404040">
                        <set attributeName="fill" to="#808080" begin="arrowRight.mouseover" end="arrowRight.mouseout"/>
                  </use>
                  <path fill="none" stroke="white" stroke-width="1.5" d="M0,-3.0v7 M-2.5,-0.5L0,-3.0L2.5,-0.5"/>
                </g>
                <g id="arrowDown" xlink:href="#dirArrow" transform="rotate(180) translate(-30 -48)" onmousedown="handlePan(0,1)">
                  <use xlink:href="#rim" fill="#404040">
                        <set attributeName="fill" to="#808080" begin="arrowDown.mouseover" end="arrowDown.mouseout"/>
                  </use>
                  <path fill="none" stroke="white" stroke-width="1.5" d="M0,-3.0v7 M-2.5,-0.5L0,-3.0L2.5,-0.5"/>
                </g>
                <g id="arrowLeft" xlink:href="#dirArrow" transform="rotate(270) translate(-36 17)" onmousedown="handlePan(-1,0)">
                  <use xlink:href="#rim" fill="#404040">
                        <set attributeName="fill" to="#808080" begin="arrowLeft.mouseover" end="arrowLeft.mouseout"/>
                  </use>
                  <path fill="none" stroke="white" stroke-width="1.5" d="M0,-3.0v7 M-2.5,-0.5L0,-3.0L2.5,-0.5"/>
                </g>
        </g>
        <svg viewBox="0 0 15 15" width="100%" height="30px" preserveAspectRatio="xMaxYMin meet">
         <g id="arrow_out" transform="scale(0.3 0.3)">
          <a xlink:href="includes_2_reception_8hpp__incl_org.svg" target="_base">
           <rect id="button" ry="5" rx="5" y="6" x="6" height="38" width="38"
                fill="#f2f5e9" fill-opacity="0.5" stroke="#606060" stroke-width="1.0"/>
           <path id="arrow"
             d="M 11.500037,31.436501 C 11.940474,20.09759 22.043105,11.32322 32.158766,21.979434 L 37.068811,17.246167 C 37.068811,17.246167 37.088388,32 37.088388,32 L 22.160133,31.978069 C 22.160133,31.978069 26.997745,27.140456 26.997745,27.140456 C 18.528582,18.264221 13.291696,25.230495 11.500037,31.436501 z"
             style="fill:#404040;"/>
          </a>
         </g>
        </svg>
</svg>
