<?xml version="1.0" encoding="UTF-8" standalone="no"?>
<!DOCTYPE svg PUBLIC "-//W3C//DTD SVG 1.1//EN"
 "http://www.w3.org/Graphics/SVG/1.1/DTD/svg11.dtd">
<!-- Generated by graphviz version 2.38.0 (20140413.2041)
 -->
<!-- Title: /home/gogo/rendu/tek2/cpp_plazza/includes/XorCypher.hpp Pages: 1 -->
<!--zoomable 518 -->
<svg id="main" version="1.1" xmlns="http://www.w3.org/2000/svg" xmlns:xlink="http://www.w3.org/1999/xlink" xml:space="preserve" onload="init(evt)">
<style type="text/css"><![CDATA[
.edge:hover path { stroke: red; }
.edge:hover polygon { stroke: red; fill: red; }
]]></style>
<script type="text/javascript"><![CDATA[
var edges = document.getElementsByTagName('g');
if (edges && edges.length) {
  for (var i=0;i<edges.length;i++) {
    if (edges[i].id.substr(0,4)=='edge') {
      edges[i].setAttribute('class','edge');
    }
  }
}
]]></script>
        <defs>
                <circle id="rim" cx="0" cy="0" r="7"/>
                <circle id="rim2" cx="0" cy="0" r="3.5"/>
                <g id="zoomPlus">
                        <use xlink:href="#rim" fill="#404040">
                                <set attributeName="fill" to="#808080" begin="zoomplus.mouseover" end="zoomplus.mouseout"/>
                        </use>
                        <path d="M-4,0h8M0,-4v8" fill="none" stroke="white" stroke-width="1.5" pointer-events="none"/>
                </g>
                <g id="zoomMin">
                        <use xlink:href="#rim" fill="#404040">
                                <set attributeName="fill" to="#808080" begin="zoomminus.mouseover" end="zoomminus.mouseout"/>
                        </use>
                        <path d="M-4,0h8" fill="none" stroke="white" stroke-width="1.5" pointer-events="none"/>
                </g>
                <g id="dirArrow">
                        <path fill="none" stroke="white" stroke-width="1.5" d="M0,-3.0v7 M-2.5,-0.5L0,-3.0L2.5,-0.5"/>
                </g>
               <g id="resetDef">
                       <use xlink:href="#rim2" fill="#404040">
                               <set attributeName="fill" to="#808080" begin="reset.mouseover" end="reset.mouseout"/>
                       </use>
               </g>
        </defs>

<script type="text/javascript">
var viewWidth = 996;
var viewHeight = 518;
var sectionId = 'dynsection-1';
</script>
<script xlink:href="svgpan.js"/>
<svg id="graph" class="graph">
<g id="viewport">
<title>/home/gogo/rendu/tek2/cpp_plazza/includes/XorCypher.hpp</title>
<!-- Node1 -->
<g id="node1" class="node"><title>Node1</title>
<polygon fill="#bfbfbf" stroke="black" points="361,-468.5 361,-509.5 477,-509.5 477,-468.5 361,-468.5"/>
<text text-anchor="start" x="369" y="-497.5" font-family="Helvetica,sans-Serif" font-size="10.00">/home/gogo/rendu/tek2</text>
<text text-anchor="start" x="369" y="-486.5" font-family="Helvetica,sans-Serif" font-size="10.00">/cpp_plazza/includes</text>
<text text-anchor="middle" x="419" y="-475.5" font-family="Helvetica,sans-Serif" font-size="10.00">/XorCypher.hpp</text>
</g>
<!-- Node2 -->
<g id="node2" class="node"><title>Node2</title>
<g id="a_node2"><a xlink:href="gui_2sources_2main_8cpp.html" target="_top" xlink:title="/home/gogo/rendu/tek2\l/cpp_plazza/gui/sources\l/main.cpp">
<polygon fill="none" stroke="black" points="0,-0.5 0,-41.5 122,-41.5 122,-0.5 0,-0.5"/>
<text text-anchor="start" x="8" y="-29.5" font-family="Helvetica,sans-Serif" font-size="10.00">/home/gogo/rendu/tek2</text>
<text text-anchor="start" x="8" y="-18.5" font-family="Helvetica,sans-Serif" font-size="10.00">/cpp_plazza/gui/sources</text>
<text text-anchor="middle" x="61" y="-7.5" font-family="Helvetica,sans-Serif" font-size="10.00">/main.cpp</text>
</a>
</g>
</g>
<!-- Node1&#45;&gt;Node2 -->
<g id="edge1" class="edge"><title>Node1&#45;&gt;Node2</title>
<path fill="none" stroke="midnightblue" d="M350.705,-484.022C262.697,-477.718 115.792,-462.841 72,-432 31.3412,-403.365 18,-383.73 18,-334 18,-334 18,-334 18,-176 18,-126.312 39.023,-70.8178 51.6696,-41.9299"/>
<polygon fill="midnightblue" stroke="midnightblue" points="350.652,-487.527 360.872,-484.731 351.139,-480.544 350.652,-487.527"/>
</g>
<!-- Node3 -->
<g id="node3" class="node"><title>Node3</title>
<g id="a_node3"><a xlink:href="gui_2sources_2main__cypher_8cpp.html" target="_top" xlink:title="/home/gogo/rendu/tek2\l/cpp_plazza/gui/sources\l/main_cypher.cpp">
<polygon fill="none" stroke="black" points="81,-390.5 81,-431.5 203,-431.5 203,-390.5 81,-390.5"/>
<text text-anchor="start" x="89" y="-419.5" font-family="Helvetica,sans-Serif" font-size="10.00">/home/gogo/rendu/tek2</text>
<text text-anchor="start" x="89" y="-408.5" font-family="Helvetica,sans-Serif" font-size="10.00">/cpp_plazza/gui/sources</text>
<text text-anchor="middle" x="142" y="-397.5" font-family="Helvetica,sans-Serif" font-size="10.00">/main_cypher.cpp</text>
</a>
</g>
</g>
<!-- Node1&#45;&gt;Node3 -->
<g id="edge2" class="edge"><title>Node1&#45;&gt;Node3</title>
<path fill="none" stroke="midnightblue" d="M351.191,-469.914C310.742,-459.061 258.39,-444.902 212,-432 209.078,-431.187 206.088,-430.351 203.069,-429.503"/>
<polygon fill="midnightblue" stroke="midnightblue" points="350.378,-473.319 360.943,-472.528 352.19,-466.558 350.378,-473.319"/>
</g>
<!-- Node4 -->
<g id="node4" class="node"><title>Node4</title>
<g id="a_node4"><a xlink:href="gui_2sources_2_xor_cypher_8cpp.html" target="_top" xlink:title="/home/gogo/rendu/tek2\l/cpp_plazza/gui/sources\l/XorCypher.cpp">
<polygon fill="none" stroke="black" points="221,-390.5 221,-431.5 343,-431.5 343,-390.5 221,-390.5"/>
<text text-anchor="start" x="229" y="-419.5" font-family="Helvetica,sans-Serif" font-size="10.00">/home/gogo/rendu/tek2</text>
<text text-anchor="start" x="229" y="-408.5" font-family="Helvetica,sans-Serif" font-size="10.00">/cpp_plazza/gui/sources</text>
<text text-anchor="middle" x="282" y="-397.5" font-family="Helvetica,sans-Serif" font-size="10.00">/XorCypher.cpp</text>
</a>
</g>
</g>
<!-- Node1&#45;&gt;Node4 -->
<g id="edge3" class="edge"><title>Node1&#45;&gt;Node4</title>
<path fill="none" stroke="midnightblue" d="M374.81,-463.486C356.149,-453.134 334.722,-441.247 317.161,-431.506"/>
<polygon fill="midnightblue" stroke="midnightblue" points="373.277,-466.638 383.719,-468.428 376.672,-460.516 373.277,-466.638"/>
</g>
<!-- Node5 -->
<g id="node5" class="node"><title>Node5</title>
<g id="a_node5"><a xlink:href="includes_2_worker_8hpp.html" target="_top" xlink:title="/home/gogo/rendu/tek2\l/cpp_plazza/includes\l/Worker.hpp">
<polygon fill="none" stroke="black" points="361,-390.5 361,-431.5 477,-431.5 477,-390.5 361,-390.5"/>
<text text-anchor="start" x="369" y="-419.5" font-family="Helvetica,sans-Serif" font-size="10.00">/home/gogo/rendu/tek2</text>
<text text-anchor="start" x="369" y="-408.5" font-family="Helvetica,sans-Serif" font-size="10.00">/cpp_plazza/includes</text>
<text text-anchor="middle" x="419" y="-397.5" font-family="Helvetica,sans-Serif" font-size="10.00">/Worker.hpp</text>
</a>
</g>
</g>
<!-- Node1&#45;&gt;Node5 -->
<g id="edge4" class="edge"><title>Node1&#45;&gt;Node5</title>
<path fill="none" stroke="midnightblue" d="M419,-458.297C419,-449.301 419,-439.653 419,-431.506"/>
<polygon fill="midnightblue" stroke="midnightblue" points="415.5,-458.428 419,-468.428 422.5,-458.428 415.5,-458.428"/>
</g>
<!-- Node15 -->
<g id="node15" class="node"><title>Node15</title>
<g id="a_node15"><a xlink:href="sources_2main_8cpp.html" target="_top" xlink:title="/home/gogo/rendu/tek2\l/cpp_plazza/sources/main.cpp">
<polygon fill="none" stroke="black" points="555.5,-6 555.5,-36 704.5,-36 704.5,-6 555.5,-6"/>
<text text-anchor="start" x="563.5" y="-24" font-family="Helvetica,sans-Serif" font-size="10.00">/home/gogo/rendu/tek2</text>
<text text-anchor="middle" x="630" y="-13" font-family="Helvetica,sans-Serif" font-size="10.00">/cpp_plazza/sources/main.cpp</text>
</a>
</g>
</g>
<!-- Node1&#45;&gt;Node15 -->
<g id="edge26" class="edge"><title>Node1&#45;&gt;Node15</title>
<path fill="none" stroke="midnightblue" d="M486.739,-470.56C550.086,-449.688 635,-407.923 635,-334 635,-334 635,-334 635,-176 635,-124.372 632.158,-63.0597 630.759,-36.0092"/>
<polygon fill="midnightblue" stroke="midnightblue" points="485.633,-467.239 477.168,-473.611 487.759,-473.909 485.633,-467.239"/>
</g>
<!-- Node21 -->
<g id="node21" class="node"><title>Node21</title>
<g id="a_node21"><a xlink:href="sources_2main__cypher_8cpp.html" target="_top" xlink:title="/home/gogo/rendu/tek2\l/cpp_plazza/sources/main\l_cypher.cpp">
<polygon fill="none" stroke="black" points="663.5,-390.5 663.5,-431.5 794.5,-431.5 794.5,-390.5 663.5,-390.5"/>
<text text-anchor="start" x="671.5" y="-419.5" font-family="Helvetica,sans-Serif" font-size="10.00">/home/gogo/rendu/tek2</text>
<text text-anchor="start" x="671.5" y="-408.5" font-family="Helvetica,sans-Serif" font-size="10.00">/cpp_plazza/sources/main</text>
<text text-anchor="middle" x="729" y="-397.5" font-family="Helvetica,sans-Serif" font-size="10.00">_cypher.cpp</text>
</a>
</g>
</g>
<!-- Node1&#45;&gt;Node21 -->
<g id="edge27" class="edge"><title>Node1&#45;&gt;Node21</title>
<path fill="none" stroke="midnightblue" d="M486.973,-471.566C532.776,-460.464 594.542,-445.437 649,-432 653.587,-430.868 658.32,-429.696 663.087,-428.512"/>
<polygon fill="midnightblue" stroke="midnightblue" points="486.053,-468.188 477.158,-473.944 487.701,-474.991 486.053,-468.188"/>
</g>
<!-- Node22 -->
<g id="node22" class="node"><title>Node22</title>
<g id="a_node22"><a xlink:href="sources_2_xor_cypher_8cpp.html" target="_top" xlink:title="/home/gogo/rendu/tek2\l/cpp_plazza/sources/XorCypher.cpp">
<polygon fill="none" stroke="black" points="812.5,-396 812.5,-426 987.5,-426 987.5,-396 812.5,-396"/>
<text text-anchor="start" x="820.5" y="-414" font-family="Helvetica,sans-Serif" font-size="10.00">/home/gogo/rendu/tek2</text>
<text text-anchor="middle" x="900" y="-403" font-family="Helvetica,sans-Serif" font-size="10.00">/cpp_plazza/sources/XorCypher.cpp</text>
</a>
</g>
</g>
<!-- Node1&#45;&gt;Node22 -->
<g id="edge28" class="edge"><title>Node1&#45;&gt;Node22</title>
<path fill="none" stroke="midnightblue" d="M487.294,-479.346C564.416,-469.276 693.559,-451.518 804,-432 814.143,-430.208 824.853,-428.145 835.296,-426.041"/>
<polygon fill="midnightblue" stroke="midnightblue" points="486.692,-475.894 477.227,-480.655 487.595,-482.836 486.692,-475.894"/>
</g>
<!-- Node6 -->
<g id="node6" class="node"><title>Node6</title>
<g id="a_node6"><a xlink:href="gui_2sources_2_thread_pool_8cpp.html" target="_top" xlink:title="/home/gogo/rendu/tek2\l/cpp_plazza/gui/sources\l/ThreadPool.cpp">
<polygon fill="none" stroke="black" points="46,-234.5 46,-275.5 168,-275.5 168,-234.5 46,-234.5"/>
<text text-anchor="start" x="54" y="-263.5" font-family="Helvetica,sans-Serif" font-size="10.00">/home/gogo/rendu/tek2</text>
<text text-anchor="start" x="54" y="-252.5" font-family="Helvetica,sans-Serif" font-size="10.00">/cpp_plazza/gui/sources</text>
<text text-anchor="middle" x="107" y="-241.5" font-family="Helvetica,sans-Serif" font-size="10.00">/ThreadPool.cpp</text>
</a>
</g>
</g>
<!-- Node5&#45;&gt;Node6 -->
<g id="edge5" class="edge"><title>Node5&#45;&gt;Node6</title>
<path fill="none" stroke="midnightblue" d="M350.788,-390.161C287.952,-379.697 160.63,-387.488 126,-354 105.07,-333.76 103.428,-297.88 104.772,-275.604"/>
<polygon fill="midnightblue" stroke="midnightblue" points="350.169,-393.607 360.655,-392.089 351.512,-386.737 350.169,-393.607"/>
</g>
<!-- Node7 -->
<g id="node7" class="node"><title>Node7</title>
<g id="a_node7"><a xlink:href="gui_2sources_2_worker_8cpp.html" target="_top" xlink:title="/home/gogo/rendu/tek2\l/cpp_plazza/gui/sources\l/Worker.cpp">
<polygon fill="none" stroke="black" points="135,-312.5 135,-353.5 257,-353.5 257,-312.5 135,-312.5"/>
<text text-anchor="start" x="143" y="-341.5" font-family="Helvetica,sans-Serif" font-size="10.00">/home/gogo/rendu/tek2</text>
<text text-anchor="start" x="143" y="-330.5" font-family="Helvetica,sans-Serif" font-size="10.00">/cpp_plazza/gui/sources</text>
<text text-anchor="middle" x="196" y="-319.5" font-family="Helvetica,sans-Serif" font-size="10.00">/Worker.cpp</text>
</a>
</g>
</g>
<!-- Node5&#45;&gt;Node7 -->
<g id="edge6" class="edge"><title>Node5&#45;&gt;Node7</title>
<path fill="none" stroke="midnightblue" d="M351.998,-387.165C320.518,-376.437 283.377,-363.779 253.233,-353.506"/>
<polygon fill="midnightblue" stroke="midnightblue" points="350.977,-390.515 361.572,-390.428 353.236,-383.889 350.977,-390.515"/>
</g>
<!-- Node8 -->
<g id="node8" class="node"><title>Node8</title>
<g id="a_node8"><a xlink:href="includes_2_thread_pool_8hpp.html" target="_top" xlink:title="/home/gogo/rendu/tek2\l/cpp_plazza/includes\l/ThreadPool.hpp">
<polygon fill="none" stroke="black" points="275,-312.5 275,-353.5 391,-353.5 391,-312.5 275,-312.5"/>
<text text-anchor="start" x="283" y="-341.5" font-family="Helvetica,sans-Serif" font-size="10.00">/home/gogo/rendu/tek2</text>
<text text-anchor="start" x="283" y="-330.5" font-family="Helvetica,sans-Serif" font-size="10.00">/cpp_plazza/includes</text>
<text text-anchor="middle" x="333" y="-319.5" font-family="Helvetica,sans-Serif" font-size="10.00">/ThreadPool.hpp</text>
</a>
</g>
</g>
<!-- Node5&#45;&gt;Node8 -->
<g id="edge7" class="edge"><title>Node5&#45;&gt;Node8</title>
<path fill="none" stroke="midnightblue" d="M389.328,-383.779C378.086,-373.843 365.494,-362.716 355.072,-353.506"/>
<polygon fill="midnightblue" stroke="midnightblue" points="387.042,-386.429 396.853,-390.428 391.677,-381.183 387.042,-386.429"/>
</g>
<!-- Node19 -->
<g id="node19" class="node"><title>Node19</title>
<g id="a_node19"><a xlink:href="sources_2_thread_pool_8cpp.html" target="_top" xlink:title="/home/gogo/rendu/tek2\l/cpp_plazza/sources/ThreadPool.cpp">
<polygon fill="none" stroke="black" points="429,-240 429,-270 607,-270 607,-240 429,-240"/>
<text text-anchor="start" x="437" y="-258" font-family="Helvetica,sans-Serif" font-size="10.00">/home/gogo/rendu/tek2</text>
<text text-anchor="middle" x="518" y="-247" font-family="Helvetica,sans-Serif" font-size="10.00">/cpp_plazza/sources/ThreadPool.cpp</text>
</a>
</g>
</g>
<!-- Node5&#45;&gt;Node19 -->
<g id="edge24" class="edge"><title>Node5&#45;&gt;Node19</title>
<path fill="none" stroke="midnightblue" d="M419.04,-380.254C420.367,-359.618 424.821,-332.301 438,-312 449.908,-293.656 470.129,-279.58 487.261,-270.128"/>
<polygon fill="midnightblue" stroke="midnightblue" points="415.538,-380.221 418.602,-390.364 422.532,-380.525 415.538,-380.221"/>
</g>
<!-- Node20 -->
<g id="node20" class="node"><title>Node20</title>
<g id="a_node20"><a xlink:href="sources_2_worker_8cpp.html" target="_top" xlink:title="/home/gogo/rendu/tek2\l/cpp_plazza/sources/Worker.cpp">
<polygon fill="none" stroke="black" points="447,-318 447,-348 607,-348 607,-318 447,-318"/>
<text text-anchor="start" x="455" y="-336" font-family="Helvetica,sans-Serif" font-size="10.00">/home/gogo/rendu/tek2</text>
<text text-anchor="middle" x="527" y="-325" font-family="Helvetica,sans-Serif" font-size="10.00">/cpp_plazza/sources/Worker.cpp</text>
</a>
</g>
</g>
<!-- Node5&#45;&gt;Node20 -->
<g id="edge25" class="edge"><title>Node5&#45;&gt;Node20</title>
<path fill="none" stroke="midnightblue" d="M455.016,-384.655C472.253,-372.526 492.249,-358.455 506.785,-348.225"/>
<polygon fill="midnightblue" stroke="midnightblue" points="452.977,-381.811 446.813,-390.428 457.005,-387.535 452.977,-381.811"/>
</g>
<!-- Node8&#45;&gt;Node2 -->
<g id="edge8" class="edge"><title>Node8&#45;&gt;Node2</title>
<path fill="none" stroke="midnightblue" d="M294.754,-306.704C256.542,-281.664 200.237,-245.459 177,-234 135.758,-213.662 108.248,-234.286 80,-198 44.0358,-151.802 51.0753,-76.9004 57.0319,-41.5962"/>
<polygon fill="midnightblue" stroke="midnightblue" points="293.289,-309.929 303.569,-312.493 297.131,-304.078 293.289,-309.929"/>
</g>
<!-- Node8&#45;&gt;Node6 -->
<g id="edge9" class="edge"><title>Node8&#45;&gt;Node6</title>
<path fill="none" stroke="midnightblue" d="M265.097,-309.165C233.193,-298.437 195.552,-285.779 165.003,-275.506"/>
<polygon fill="midnightblue" stroke="midnightblue" points="264.205,-312.558 274.799,-312.428 266.437,-305.923 264.205,-312.558"/>
</g>
<!-- Node9 -->
<g id="node9" class="node"><title>Node9</title>
<g id="a_node9"><a xlink:href="includes_2_office_8hpp.html" target="_top" xlink:title="/home/gogo/rendu/tek2\l/cpp_plazza/includes\l/Office.hpp">
<polygon fill="none" stroke="black" points="257,-234.5 257,-275.5 373,-275.5 373,-234.5 257,-234.5"/>
<text text-anchor="start" x="265" y="-263.5" font-family="Helvetica,sans-Serif" font-size="10.00">/home/gogo/rendu/tek2</text>
<text text-anchor="start" x="265" y="-252.5" font-family="Helvetica,sans-Serif" font-size="10.00">/cpp_plazza/includes</text>
<text text-anchor="middle" x="315" y="-241.5" font-family="Helvetica,sans-Serif" font-size="10.00">/Office.hpp</text>
</a>
</g>
</g>
<!-- Node8&#45;&gt;Node9 -->
<g id="edge10" class="edge"><title>Node8&#45;&gt;Node9</title>
<path fill="none" stroke="midnightblue" d="M326.034,-302.59C323.884,-293.511 321.57,-283.742 319.62,-275.506"/>
<polygon fill="midnightblue" stroke="midnightblue" points="322.654,-303.504 328.365,-312.428 329.466,-301.891 322.654,-303.504"/>
</g>
<!-- Node8&#45;&gt;Node15 -->
<g id="edge22" class="edge"><title>Node8&#45;&gt;Node15</title>
<path fill="none" stroke="midnightblue" d="M357.201,-304.346C382.239,-275.793 417.987,-235.218 420,-234 476.813,-199.629 515.528,-242.29 565,-198 590.178,-175.459 617.244,-73.8295 626.596,-36.1305"/>
<polygon fill="midnightblue" stroke="midnightblue" points="354.418,-302.21 350.459,-312.037 359.683,-306.824 354.418,-302.21"/>
</g>
<!-- Node8&#45;&gt;Node19 -->
<g id="edge23" class="edge"><title>Node8&#45;&gt;Node19</title>
<path fill="none" stroke="midnightblue" d="M389.94,-308.609C420.593,-296.016 457.393,-280.898 483.662,-270.106"/>
<polygon fill="midnightblue" stroke="midnightblue" points="388.562,-305.391 380.642,-312.428 391.222,-311.866 388.562,-305.391"/>
</g>
<!-- Node10 -->
<g id="node10" class="node"><title>Node10</title>
<g id="a_node10"><a xlink:href="gui_2sources_2_office_8cpp.html" target="_top" xlink:title="/home/gogo/rendu/tek2\l/cpp_plazza/gui/sources\l/Office.cpp">
<polygon fill="none" stroke="black" points="89,-156.5 89,-197.5 211,-197.5 211,-156.5 89,-156.5"/>
<text text-anchor="start" x="97" y="-185.5" font-family="Helvetica,sans-Serif" font-size="10.00">/home/gogo/rendu/tek2</text>
<text text-anchor="start" x="97" y="-174.5" font-family="Helvetica,sans-Serif" font-size="10.00">/cpp_plazza/gui/sources</text>
<text text-anchor="middle" x="150" y="-163.5" font-family="Helvetica,sans-Serif" font-size="10.00">/Office.cpp</text>
</a>
</g>
</g>
<!-- Node9&#45;&gt;Node10 -->
<g id="edge11" class="edge"><title>Node9&#45;&gt;Node10</title>
<path fill="none" stroke="midnightblue" d="M263.305,-230.189C240.478,-219.675 213.978,-207.469 192.348,-197.506"/>
<polygon fill="midnightblue" stroke="midnightblue" points="261.961,-233.423 272.508,-234.428 264.89,-227.065 261.961,-233.423"/>
</g>
<!-- Node11 -->
<g id="node11" class="node"><title>Node11</title>
<g id="a_node11"><a xlink:href="includes_2_process_manager_8hpp.html" target="_top" xlink:title="/home/gogo/rendu/tek2\l/cpp_plazza/includes\l/ProcessManager.hpp">
<polygon fill="none" stroke="black" points="229,-156.5 229,-197.5 345,-197.5 345,-156.5 229,-156.5"/>
<text text-anchor="start" x="237" y="-185.5" font-family="Helvetica,sans-Serif" font-size="10.00">/home/gogo/rendu/tek2</text>
<text text-anchor="start" x="237" y="-174.5" font-family="Helvetica,sans-Serif" font-size="10.00">/cpp_plazza/includes</text>
<text text-anchor="middle" x="287" y="-163.5" font-family="Helvetica,sans-Serif" font-size="10.00">/ProcessManager.hpp</text>
</a>
</g>
</g>
<!-- Node9&#45;&gt;Node11 -->
<g id="edge12" class="edge"><title>Node9&#45;&gt;Node11</title>
<path fill="none" stroke="midnightblue" d="M304.272,-224.882C300.897,-215.721 297.253,-205.83 294.186,-197.506"/>
<polygon fill="midnightblue" stroke="midnightblue" points="301.048,-226.255 307.789,-234.428 307.616,-223.835 301.048,-226.255"/>
</g>
<!-- Node13 -->
<g id="node13" class="node"><title>Node13</title>
<g id="a_node13"><a xlink:href="includes_2_reception_8hpp.html" target="_top" xlink:title="/home/gogo/rendu/tek2\l/cpp_plazza/includes\l/Reception.hpp">
<polygon fill="none" stroke="black" points="393,-78.5 393,-119.5 509,-119.5 509,-78.5 393,-78.5"/>
<text text-anchor="start" x="401" y="-107.5" font-family="Helvetica,sans-Serif" font-size="10.00">/home/gogo/rendu/tek2</text>
<text text-anchor="start" x="401" y="-96.5" font-family="Helvetica,sans-Serif" font-size="10.00">/cpp_plazza/includes</text>
<text text-anchor="middle" x="451" y="-85.5" font-family="Helvetica,sans-Serif" font-size="10.00">/Reception.hpp</text>
</a>
</g>
</g>
<!-- Node9&#45;&gt;Node13 -->
<g id="edge20" class="edge"><title>Node9&#45;&gt;Node13</title>
<path fill="none" stroke="midnightblue" d="M335.258,-226.041C350.222,-205.946 371.475,-178.536 392,-156 403.506,-143.366 417.316,-130.165 428.682,-119.755"/>
<polygon fill="midnightblue" stroke="midnightblue" points="332.379,-224.047 329.25,-234.17 338.009,-228.208 332.379,-224.047"/>
</g>
<!-- Node18 -->
<g id="node18" class="node"><title>Node18</title>
<g id="a_node18"><a xlink:href="sources_2_office_8cpp.html" target="_top" xlink:title="/home/gogo/rendu/tek2\l/cpp_plazza/sources/Office.cpp">
<polygon fill="none" stroke="black" points="401.5,-162 401.5,-192 556.5,-192 556.5,-162 401.5,-162"/>
<text text-anchor="start" x="409.5" y="-180" font-family="Helvetica,sans-Serif" font-size="10.00">/home/gogo/rendu/tek2</text>
<text text-anchor="middle" x="479" y="-169" font-family="Helvetica,sans-Serif" font-size="10.00">/cpp_plazza/sources/Office.cpp</text>
</a>
</g>
</g>
<!-- Node9&#45;&gt;Node18 -->
<g id="edge21" class="edge"><title>Node9&#45;&gt;Node18</title>
<path fill="none" stroke="midnightblue" d="M366.533,-230.119C393.492,-217.625 425.574,-202.759 448.56,-192.106"/>
<polygon fill="midnightblue" stroke="midnightblue" points="364.836,-227.048 357.234,-234.428 367.779,-233.399 364.836,-227.048"/>
</g>
<!-- Node12 -->
<g id="node12" class="node"><title>Node12</title>
<g id="a_node12"><a xlink:href="gui_2sources_2_process_manager_8cpp.html" target="_top" xlink:title="/home/gogo/rendu/tek2\l/cpp_plazza/gui/sources\l/ProcessManager.cpp">
<polygon fill="none" stroke="black" points="89,-78.5 89,-119.5 211,-119.5 211,-78.5 89,-78.5"/>
<text text-anchor="start" x="97" y="-107.5" font-family="Helvetica,sans-Serif" font-size="10.00">/home/gogo/rendu/tek2</text>
<text text-anchor="start" x="97" y="-96.5" font-family="Helvetica,sans-Serif" font-size="10.00">/cpp_plazza/gui/sources</text>
<text text-anchor="middle" x="150" y="-85.5" font-family="Helvetica,sans-Serif" font-size="10.00">/ProcessManager.cpp</text>
</a>
</g>
</g>
<!-- Node11&#45;&gt;Node12 -->
<g id="edge13" class="edge"><title>Node11&#45;&gt;Node12</title>
<path fill="none" stroke="midnightblue" d="M242.81,-151.486C224.149,-141.134 202.722,-129.247 185.161,-119.506"/>
<polygon fill="midnightblue" stroke="midnightblue" points="241.277,-154.638 251.719,-156.428 244.672,-148.516 241.277,-154.638"/>
</g>
<!-- Node11&#45;&gt;Node13 -->
<g id="edge14" class="edge"><title>Node11&#45;&gt;Node13</title>
<path fill="none" stroke="midnightblue" d="M338.382,-152.189C361.07,-141.675 387.41,-129.469 408.909,-119.506"/>
<polygon fill="midnightblue" stroke="midnightblue" points="336.836,-149.048 329.234,-156.428 339.779,-155.399 336.836,-149.048"/>
</g>
<!-- Node17 -->
<g id="node17" class="node"><title>Node17</title>
<g id="a_node17"><a xlink:href="sources_2_process_manager_8cpp.html" target="_top" xlink:title="/home/gogo/rendu/tek2\l/cpp_plazza/sources/Process\lManager.cpp">
<polygon fill="none" stroke="black" points="229,-78.5 229,-119.5 375,-119.5 375,-78.5 229,-78.5"/>
<text text-anchor="start" x="237" y="-107.5" font-family="Helvetica,sans-Serif" font-size="10.00">/home/gogo/rendu/tek2</text>
<text text-anchor="start" x="237" y="-96.5" font-family="Helvetica,sans-Serif" font-size="10.00">/cpp_plazza/sources/Process</text>
<text text-anchor="middle" x="302" y="-85.5" font-family="Helvetica,sans-Serif" font-size="10.00">Manager.cpp</text>
</a>
</g>
</g>
<!-- Node11&#45;&gt;Node17 -->
<g id="edge19" class="edge"><title>Node11&#45;&gt;Node17</title>
<path fill="none" stroke="midnightblue" d="M292.805,-146.59C294.597,-137.511 296.525,-127.742 298.15,-119.506"/>
<polygon fill="midnightblue" stroke="midnightblue" points="289.366,-145.94 290.863,-156.428 296.233,-147.295 289.366,-145.94"/>
</g>
<!-- Node13&#45;&gt;Node2 -->
<g id="edge15" class="edge"><title>Node13&#45;&gt;Node2</title>
<path fill="none" stroke="midnightblue" d="M382.765,-77.831C286.683,-55.6577 185.271,-39.5587 122.156,-30.3971"/>
<polygon fill="midnightblue" stroke="midnightblue" points="382.11,-81.2721 392.644,-80.137 383.701,-74.4554 382.11,-81.2721"/>
</g>
<!-- Node14 -->
<g id="node14" class="node"><title>Node14</title>
<g id="a_node14"><a xlink:href="gui_2sources_2_reception_8cpp.html" target="_top" xlink:title="/home/gogo/rendu/tek2\l/cpp_plazza/gui/sources\l/Reception.cpp">
<polygon fill="none" stroke="black" points="224,-0.5 224,-41.5 346,-41.5 346,-0.5 224,-0.5"/>
<text text-anchor="start" x="232" y="-29.5" font-family="Helvetica,sans-Serif" font-size="10.00">/home/gogo/rendu/tek2</text>
<text text-anchor="start" x="232" y="-18.5" font-family="Helvetica,sans-Serif" font-size="10.00">/cpp_plazza/gui/sources</text>
<text text-anchor="middle" x="285" y="-7.5" font-family="Helvetica,sans-Serif" font-size="10.00">/Reception.cpp</text>
</a>
</g>
</g>
<!-- Node13&#45;&gt;Node14 -->
<g id="edge16" class="edge"><title>Node13&#45;&gt;Node14</title>
<path fill="none" stroke="midnightblue" d="M398.992,-74.189C376.027,-63.6749 349.366,-51.4687 327.604,-41.5056"/>
<polygon fill="midnightblue" stroke="midnightblue" points="397.701,-77.4476 408.251,-78.4281 400.615,-71.0829 397.701,-77.4476"/>
</g>
<!-- Node13&#45;&gt;Node15 -->
<g id="edge17" class="edge"><title>Node13&#45;&gt;Node15</title>
<path fill="none" stroke="midnightblue" d="M506.477,-74.4456C536.059,-61.8855 571.468,-46.8516 596.775,-36.1065"/>
<polygon fill="midnightblue" stroke="midnightblue" points="504.934,-71.2983 497.097,-78.4281 507.67,-77.7416 504.934,-71.2983"/>
</g>
<!-- Node16 -->
<g id="node16" class="node"><title>Node16</title>
<g id="a_node16"><a xlink:href="sources_2_reception_8cpp.html" target="_top" xlink:title="/home/gogo/rendu/tek2\l/cpp_plazza/sources/Reception.cpp">
<polygon fill="none" stroke="black" points="364.5,-6 364.5,-36 537.5,-36 537.5,-6 364.5,-6"/>
<text text-anchor="start" x="372.5" y="-24" font-family="Helvetica,sans-Serif" font-size="10.00">/home/gogo/rendu/tek2</text>
<text text-anchor="middle" x="451" y="-13" font-family="Helvetica,sans-Serif" font-size="10.00">/cpp_plazza/sources/Reception.cpp</text>
</a>
</g>
</g>
<!-- Node13&#45;&gt;Node16 -->
<g id="edge18" class="edge"><title>Node13&#45;&gt;Node16</title>
<path fill="none" stroke="midnightblue" d="M451,-68.2829C451,-57.2536 451,-45.2457 451,-36.2254"/>
<polygon fill="midnightblue" stroke="midnightblue" points="447.5,-68.4281 451,-78.4281 454.5,-68.4281 447.5,-68.4281"/>
</g>
</g>
</svg>
        <g id="navigator" transform="translate(0 0)" fill="#404254">
                <rect fill="#f2f5e9" fill-opacity="0.5" stroke="#606060" stroke-width=".5" x="0" y="0" width="60" height="60"/>
                <use id="zoomplus" xlink:href="#zoomPlus" x="17" y="9" onmousedown="handleZoom(evt,'in')"/>
                <use id="zoomminus" xlink:href="#zoomMin" x="42" y="9" onmousedown="handleZoom(evt,'out')"/>
                <use id="reset" xlink:href="#resetDef" x="30" y="36" onmousedown="handleReset()"/>
                <g id="arrowUp" xlink:href="#dirArrow" transform="translate(30 24)" onmousedown="handlePan(0,-1)">
                  <use xlink:href="#rim" fill="#404040">
                        <set attributeName="fill" to="#808080" begin="arrowUp.mouseover" end="arrowUp.mouseout"/>
                  </use>
                  <path fill="none" stroke="white" stroke-width="1.5" d="M0,-3.0v7 M-2.5,-0.5L0,-3.0L2.5,-0.5"/>
                </g>
                <g id="arrowRight" xlink:href="#dirArrow" transform="rotate(90) translate(36 -43)" onmousedown="handlePan(1,0)">
                  <use xlink:href="#rim" fill="#404040">
                        <set attributeName="fill" to="#808080" begin="arrowRight.mouseover" end="arrowRight.mouseout"/>
                  </use>
                  <path fill="none" stroke="white" stroke-width="1.5" d="M0,-3.0v7 M-2.5,-0.5L0,-3.0L2.5,-0.5"/>
                </g>
                <g id="arrowDown" xlink:href="#dirArrow" transform="rotate(180) translate(-30 -48)" onmousedown="handlePan(0,1)">
                  <use xlink:href="#rim" fill="#404040">
                        <set attributeName="fill" to="#808080" begin="arrowDown.mouseover" end="arrowDown.mouseout"/>
                  </use>
                  <path fill="none" stroke="white" stroke-width="1.5" d="M0,-3.0v7 M-2.5,-0.5L0,-3.0L2.5,-0.5"/>
                </g>
                <g id="arrowLeft" xlink:href="#dirArrow" transform="rotate(270) translate(-36 17)" onmousedown="handlePan(-1,0)">
                  <use xlink:href="#rim" fill="#404040">
                        <set attributeName="fill" to="#808080" begin="arrowLeft.mouseover" end="arrowLeft.mouseout"/>
                  </use>
                  <path fill="none" stroke="white" stroke-width="1.5" d="M0,-3.0v7 M-2.5,-0.5L0,-3.0L2.5,-0.5"/>
                </g>
        </g>
        <svg viewBox="0 0 15 15" width="100%" height="30px" preserveAspectRatio="xMaxYMin meet">
         <g id="arrow_out" transform="scale(0.3 0.3)">
          <a xlink:href="includes_2_xor_cypher_8hpp__dep__incl_org.svg" target="_base">
           <rect id="button" ry="5" rx="5" y="6" x="6" height="38" width="38"
                fill="#f2f5e9" fill-opacity="0.5" stroke="#606060" stroke-width="1.0"/>
           <path id="arrow"
             d="M 11.500037,31.436501 C 11.940474,20.09759 22.043105,11.32322 32.158766,21.979434 L 37.068811,17.246167 C 37.068811,17.246167 37.088388,32 37.088388,32 L 22.160133,31.978069 C 22.160133,31.978069 26.997745,27.140456 26.997745,27.140456 C 18.528582,18.264221 13.291696,25.230495 11.500037,31.436501 z"
             style="fill:#404040;"/>
          </a>
         </g>
        </svg>
</svg>
