<?xml version="1.0" encoding="UTF-8" standalone="no"?>
<!DOCTYPE svg PUBLIC "-//W3C//DTD SVG 1.1//EN"
 "http://www.w3.org/Graphics/SVG/1.1/DTD/svg11.dtd">
<!-- Generated by graphviz version 2.38.0 (20140413.2041)
 -->
<!-- Title: Graphical Class Hierarchy Pages: 1 -->
<svg width="247pt" height="66pt"
 viewBox="0.00 0.00 247.00 66.00" xmlns="http://www.w3.org/2000/svg" xmlns:xlink="http://www.w3.org/1999/xlink">
<g id="graph0" class="graph" transform="scale(1 1) rotate(0) translate(4 62)">
<title>Graphical Class Hierarchy</title>
<!-- Node1 -->
<g id="node1" class="node"><title>Node1</title>
<g id="a_node1"><a xlink:href="classplazza_1_1_a_cypher.html" target="_top" xlink:title="Abstract class for cyphering. ">
<polygon fill="none" stroke="black" points="0,-19.5 0,-38.5 89,-38.5 89,-19.5 0,-19.5"/>
<text text-anchor="middle" x="44.5" y="-26.5" font-family="Helvetica,sans-Serif" font-size="10.00">plazza::ACypher</text>
</a>
</g>
</g>
<!-- Node2 -->
<g id="node2" class="node"><title>Node2</title>
<g id="a_node2"><a xlink:href="classplazza_1_1_caesar_cypher.html" target="_top" xlink:title="Caesar cypher class. ">
<polygon fill="none" stroke="black" points="125,-38.5 125,-57.5 239,-57.5 239,-38.5 125,-38.5"/>
<text text-anchor="middle" x="182" y="-45.5" font-family="Helvetica,sans-Serif" font-size="10.00">plazza::CaesarCypher</text>
</a>
</g>
</g>
<!-- Node1&#45;&gt;Node2 -->
<g id="edge1" class="edge"><title>Node1&#45;&gt;Node2</title>
<path fill="none" stroke="midnightblue" d="M99.1357,-36.5209C107.5,-37.6937 116.164,-38.9086 124.587,-40.0897"/>
<polygon fill="midnightblue" stroke="midnightblue" points="99.5081,-33.0389 89.1189,-35.1163 98.536,-39.9711 99.5081,-33.0389"/>
</g>
<!-- Node3 -->
<g id="node3" class="node"><title>Node3</title>
<g id="a_node3"><a xlink:href="classplazza_1_1_xor_cypher.html" target="_top" xlink:title="Class used for encrypt &amp; decrypt using XOR. ">
<polygon fill="none" stroke="black" points="133,-0.5 133,-19.5 231,-19.5 231,-0.5 133,-0.5"/>
<text text-anchor="middle" x="182" y="-7.5" font-family="Helvetica,sans-Serif" font-size="10.00">plazza::XorCypher</text>
</a>
</g>
</g>
<!-- Node1&#45;&gt;Node3 -->
<g id="edge2" class="edge"><title>Node1&#45;&gt;Node3</title>
<path fill="none" stroke="midnightblue" d="M99.132,-21.4797C110.237,-19.9225 121.871,-18.2912 132.769,-16.7631"/>
<polygon fill="midnightblue" stroke="midnightblue" points="98.536,-18.0289 89.1189,-22.8837 99.5081,-24.9611 98.536,-18.0289"/>
</g>
</g>
</svg>
