<?xml version="1.0" encoding="UTF-8" standalone="no"?>
<!DOCTYPE svg PUBLIC "-//W3C//DTD SVG 1.1//EN"
 "http://www.w3.org/Graphics/SVG/1.1/DTD/svg11.dtd">
<!-- Generated by graphviz version 2.38.0 (20140413.2041)
 -->
<!-- Title: /home/gogo/rendu/tek2/cpp_plazza/gui/mainwindow.cpp Pages: 1 -->
<svg width="585pt" height="151pt"
 viewBox="0.00 0.00 584.50 151.00" xmlns="http://www.w3.org/2000/svg" xmlns:xlink="http://www.w3.org/1999/xlink">
<g id="graph0" class="graph" transform="scale(1 1) rotate(0) translate(4 147)">
<title>/home/gogo/rendu/tek2/cpp_plazza/gui/mainwindow.cpp</title>
<!-- Node1 -->
<g id="node1" class="node"><title>Node1</title>
<polygon fill="#bfbfbf" stroke="black" points="248.5,-112.5 248.5,-142.5 409.5,-142.5 409.5,-112.5 248.5,-112.5"/>
<text text-anchor="start" x="256.5" y="-130.5" font-family="Helvetica,sans-Serif" font-size="10.00">/home/gogo/rendu/tek2</text>
<text text-anchor="middle" x="329" y="-119.5" font-family="Helvetica,sans-Serif" font-size="10.00">/cpp_plazza/gui/mainwindow.cpp</text>
</g>
<!-- Node2 -->
<g id="node2" class="node"><title>Node2</title>
<g id="a_node2"><a xlink:href="mainwindow_8h.html" target="_top" xlink:title="mainwindow.h">
<polygon fill="none" stroke="black" points="41.5,-56.5 41.5,-75.5 120.5,-75.5 120.5,-56.5 41.5,-56.5"/>
<text text-anchor="middle" x="81" y="-63.5" font-family="Helvetica,sans-Serif" font-size="10.00">mainwindow.h</text>
</a>
</g>
</g>
<!-- Node1&#45;&gt;Node2 -->
<g id="edge1" class="edge"><title>Node1&#45;&gt;Node2</title>
<path fill="none" stroke="midnightblue" d="M270.542,-112.475C226.449,-101.896 166.84,-87.5946 126.323,-77.874"/>
<polygon fill="midnightblue" stroke="midnightblue" points="126.996,-74.436 116.455,-75.5064 125.363,-81.2429 126.996,-74.436"/>
</g>
<!-- Node5 -->
<g id="node5" class="node"><title>Node5</title>
<polygon fill="none" stroke="#bfbfbf" points="139,-56.5 139,-75.5 231,-75.5 231,-56.5 139,-56.5"/>
<text text-anchor="middle" x="185" y="-63.5" font-family="Helvetica,sans-Serif" font-size="10.00">ui_mainwindow.h</text>
</g>
<!-- Node1&#45;&gt;Node5 -->
<g id="edge4" class="edge"><title>Node1&#45;&gt;Node5</title>
<path fill="none" stroke="midnightblue" d="M294.874,-112.399C270.713,-102.416 238.598,-89.1465 215.333,-79.5335"/>
<polygon fill="midnightblue" stroke="midnightblue" points="216.532,-76.2419 205.953,-75.6578 213.859,-82.7114 216.532,-76.2419"/>
</g>
<!-- Node6 -->
<g id="node6" class="node"><title>Node6</title>
<polygon fill="none" stroke="#bfbfbf" points="249,-56.5 249,-75.5 317,-75.5 317,-56.5 249,-56.5"/>
<text text-anchor="middle" x="283" y="-63.5" font-family="Helvetica,sans-Serif" font-size="10.00">QFileDialog</text>
</g>
<!-- Node1&#45;&gt;Node6 -->
<g id="edge5" class="edge"><title>Node1&#45;&gt;Node6</title>
<path fill="none" stroke="midnightblue" d="M318.099,-112.399C311.414,-103.753 302.824,-92.642 295.815,-83.576"/>
<polygon fill="midnightblue" stroke="midnightblue" points="298.579,-81.4284 289.693,-75.6578 293.041,-85.7099 298.579,-81.4284"/>
</g>
<!-- Node7 -->
<g id="node7" class="node"><title>Node7</title>
<polygon fill="none" stroke="#bfbfbf" points="335.5,-56.5 335.5,-75.5 416.5,-75.5 416.5,-56.5 335.5,-56.5"/>
<text text-anchor="middle" x="376" y="-63.5" font-family="Helvetica,sans-Serif" font-size="10.00">QMessageBox</text>
</g>
<!-- Node1&#45;&gt;Node7 -->
<g id="edge6" class="edge"><title>Node1&#45;&gt;Node7</title>
<path fill="none" stroke="midnightblue" d="M340.138,-112.399C346.968,-103.753 355.745,-92.642 362.906,-83.576"/>
<polygon fill="midnightblue" stroke="midnightblue" points="365.709,-85.6745 369.161,-75.6578 360.216,-81.3354 365.709,-85.6745"/>
</g>
<!-- Node8 -->
<g id="node8" class="node"><title>Node8</title>
<polygon fill="none" stroke="#bfbfbf" points="434.5,-56.5 434.5,-75.5 513.5,-75.5 513.5,-56.5 434.5,-56.5"/>
<text text-anchor="middle" x="474" y="-63.5" font-family="Helvetica,sans-Serif" font-size="10.00">QTableWidget</text>
</g>
<!-- Node1&#45;&gt;Node8 -->
<g id="edge7" class="edge"><title>Node1&#45;&gt;Node8</title>
<path fill="none" stroke="midnightblue" d="M363.363,-112.399C387.691,-102.416 420.029,-89.1465 443.456,-79.5335"/>
<polygon fill="midnightblue" stroke="midnightblue" points="444.979,-82.6921 452.901,-75.6578 442.321,-76.2161 444.979,-82.6921"/>
</g>
<!-- Node9 -->
<g id="node9" class="node"><title>Node9</title>
<polygon fill="none" stroke="#bfbfbf" points="531.5,-56.5 531.5,-75.5 576.5,-75.5 576.5,-56.5 531.5,-56.5"/>
<text text-anchor="middle" x="554" y="-63.5" font-family="Helvetica,sans-Serif" font-size="10.00">cstdlib</text>
</g>
<!-- Node1&#45;&gt;Node9 -->
<g id="edge8" class="edge"><title>Node1&#45;&gt;Node9</title>
<path fill="none" stroke="midnightblue" d="M384.72,-112.435C421.204,-103.124 470.164,-90.4411 521.401,-76.3923"/>
<polygon fill="midnightblue" stroke="midnightblue" points="522.621,-79.6871 531.334,-73.6596 520.764,-72.9379 522.621,-79.6871"/>
</g>
<!-- Node3 -->
<g id="node3" class="node"><title>Node3</title>
<polygon fill="none" stroke="#bfbfbf" points="0,-0.5 0,-19.5 80,-19.5 80,-0.5 0,-0.5"/>
<text text-anchor="middle" x="40" y="-7.5" font-family="Helvetica,sans-Serif" font-size="10.00">QMainWindow</text>
</g>
<!-- Node2&#45;&gt;Node3 -->
<g id="edge2" class="edge"><title>Node2&#45;&gt;Node3</title>
<path fill="none" stroke="midnightblue" d="M74.2297,-56.083C68.4384,-48.4554 59.9415,-37.2645 52.8625,-27.9408"/>
<polygon fill="midnightblue" stroke="midnightblue" points="55.479,-25.5991 46.6443,-19.7511 49.9039,-29.8321 55.479,-25.5991"/>
</g>
<!-- Node4 -->
<g id="node4" class="node"><title>Node4</title>
<polygon fill="none" stroke="#bfbfbf" points="98.5,-0.5 98.5,-19.5 145.5,-19.5 145.5,-0.5 98.5,-0.5"/>
<text text-anchor="middle" x="122" y="-7.5" font-family="Helvetica,sans-Serif" font-size="10.00">QLabel</text>
</g>
<!-- Node2&#45;&gt;Node4 -->
<g id="edge3" class="edge"><title>Node2&#45;&gt;Node4</title>
<path fill="none" stroke="midnightblue" d="M87.7703,-56.083C93.5616,-48.4554 102.058,-37.2645 109.138,-27.9408"/>
<polygon fill="midnightblue" stroke="midnightblue" points="112.096,-29.8321 115.356,-19.7511 106.521,-25.5991 112.096,-29.8321"/>
</g>
</g>
</svg>
