<?xml version="1.0" encoding="UTF-8" standalone="no"?>
<!DOCTYPE svg PUBLIC "-//W3C//DTD SVG 1.1//EN"
 "http://www.w3.org/Graphics/SVG/1.1/DTD/svg11.dtd">
<!-- Generated by graphviz version 2.38.0 (20140413.2041)
 -->
<!-- Title: /home/gogo/rendu/tek2/cpp_plazza/gui/mainwindow.h Pages: 1 -->
<svg width="164pt" height="95pt"
 viewBox="0.00 0.00 164.00 95.00" xmlns="http://www.w3.org/2000/svg" xmlns:xlink="http://www.w3.org/1999/xlink">
<g id="graph0" class="graph" transform="scale(1 1) rotate(0) translate(4 91)">
<title>/home/gogo/rendu/tek2/cpp_plazza/gui/mainwindow.h</title>
<!-- Node1 -->
<g id="node1" class="node"><title>Node1</title>
<polygon fill="#bfbfbf" stroke="black" points="6,-56.5 6,-86.5 156,-86.5 156,-56.5 6,-56.5"/>
<text text-anchor="start" x="14" y="-74.5" font-family="Helvetica,sans-Serif" font-size="10.00">/home/gogo/rendu/tek2</text>
<text text-anchor="middle" x="81" y="-63.5" font-family="Helvetica,sans-Serif" font-size="10.00">/cpp_plazza/gui/mainwindow.h</text>
</g>
<!-- Node2 -->
<g id="node2" class="node"><title>Node2</title>
<polygon fill="none" stroke="#bfbfbf" points="0,-0.5 0,-19.5 80,-19.5 80,-0.5 0,-0.5"/>
<text text-anchor="middle" x="40" y="-7.5" font-family="Helvetica,sans-Serif" font-size="10.00">QMainWindow</text>
</g>
<!-- Node1&#45;&gt;Node2 -->
<g id="edge1" class="edge"><title>Node1&#45;&gt;Node2</title>
<path fill="none" stroke="midnightblue" d="M71.2836,-56.3993C65.4486,-47.9315 57.9843,-37.0991 51.8103,-28.1393"/>
<polygon fill="midnightblue" stroke="midnightblue" points="54.522,-25.9062 45.9659,-19.6578 48.758,-29.8781 54.522,-25.9062"/>
</g>
<!-- Node3 -->
<g id="node3" class="node"><title>Node3</title>
<polygon fill="none" stroke="#bfbfbf" points="98.5,-0.5 98.5,-19.5 145.5,-19.5 145.5,-0.5 98.5,-0.5"/>
<text text-anchor="middle" x="122" y="-7.5" font-family="Helvetica,sans-Serif" font-size="10.00">QLabel</text>
</g>
<!-- Node1&#45;&gt;Node3 -->
<g id="edge2" class="edge"><title>Node1&#45;&gt;Node3</title>
<path fill="none" stroke="midnightblue" d="M90.7164,-56.3993C96.5514,-47.9315 104.016,-37.0991 110.19,-28.1393"/>
<polygon fill="midnightblue" stroke="midnightblue" points="113.242,-29.8781 116.034,-19.6578 107.478,-25.9062 113.242,-29.8781"/>
</g>
</g>
</svg>
