<?xml version="1.0" encoding="UTF-8" standalone="no"?>
<!DOCTYPE svg PUBLIC "-//W3C//DTD SVG 1.1//EN"
 "http://www.w3.org/Graphics/SVG/1.1/DTD/svg11.dtd">
<!-- Generated by graphviz version 2.38.0 (20140413.2041)
 -->
<!-- Title: Utils::epur Pages: 1 -->
<svg width="391pt" height="39pt"
 viewBox="0.00 0.00 391.00 39.00" xmlns="http://www.w3.org/2000/svg" xmlns:xlink="http://www.w3.org/1999/xlink">
<g id="graph0" class="graph" transform="scale(1 1) rotate(0) translate(4 35)">
<title>Utils::epur</title>
<!-- Node1 -->
<g id="node1" class="node"><title>Node1</title>
<polygon fill="#bfbfbf" stroke="black" points="0,-6 0,-25 62,-25 62,-6 0,-6"/>
<text text-anchor="middle" x="31" y="-13" font-family="Helvetica,sans-Serif" font-size="10.00">Utils::epur</text>
</g>
<!-- Node2 -->
<g id="node2" class="node"><title>Node2</title>
<g id="a_node2"><a xlink:href="classplazza_1_1_command_manager.html#a9cdbbe033645c4f2f730aa923db71585" target="_top" xlink:title="Parse command provided as parameter. ">
<polygon fill="none" stroke="black" points="98,-0.5 98,-30.5 232,-30.5 232,-0.5 98,-0.5"/>
<text text-anchor="start" x="106" y="-18.5" font-family="Helvetica,sans-Serif" font-size="10.00">plazza::CommandManager</text>
<text text-anchor="middle" x="165" y="-7.5" font-family="Helvetica,sans-Serif" font-size="10.00">::parseCommand</text>
</a>
</g>
</g>
<!-- Node1&#45;&gt;Node2 -->
<g id="edge1" class="edge"><title>Node1&#45;&gt;Node2</title>
<path fill="none" stroke="midnightblue" d="M72.4688,-15.5C80.5172,-15.5 89.1643,-15.5 97.8157,-15.5"/>
<polygon fill="midnightblue" stroke="midnightblue" points="72.2835,-12.0001 62.2835,-15.5 72.2834,-19.0001 72.2835,-12.0001"/>
</g>
<!-- Node3 -->
<g id="node3" class="node"><title>Node3</title>
<g id="a_node3"><a xlink:href="classplazza_1_1_reception.html#a73427abbd4f108f41e9c9c348b50310a" target="_top" xlink:title="run the office ">
<polygon fill="none" stroke="black" points="268,-6 268,-25 383,-25 383,-6 268,-6"/>
<text text-anchor="middle" x="325.5" y="-13" font-family="Helvetica,sans-Serif" font-size="10.00">plazza::Reception::run</text>
</a>
</g>
</g>
<!-- Node2&#45;&gt;Node3 -->
<g id="edge2" class="edge"><title>Node2&#45;&gt;Node3</title>
<path fill="none" stroke="midnightblue" d="M242.523,-15.5C250.942,-15.5 259.402,-15.5 267.523,-15.5"/>
<polygon fill="midnightblue" stroke="midnightblue" points="242.3,-12.0001 232.3,-15.5 242.3,-19.0001 242.3,-12.0001"/>
</g>
</g>
</svg>
