<?xml version="1.0" encoding="UTF-8" standalone="no"?>
<!DOCTYPE svg PUBLIC "-//W3C//DTD SVG 1.1//EN"
 "http://www.w3.org/Graphics/SVG/1.1/DTD/svg11.dtd">
<!-- Generated by graphviz version 2.38.0 (20140413.2041)
 -->
<!-- Title: Utils::explode Pages: 1 -->
<svg width="406pt" height="56pt"
 viewBox="0.00 0.00 406.00 55.50" xmlns="http://www.w3.org/2000/svg" xmlns:xlink="http://www.w3.org/1999/xlink">
<g id="graph0" class="graph" transform="scale(1 1) rotate(0) translate(4 51.5)">
<title>Utils::explode</title>
<!-- Node1 -->
<g id="node1" class="node"><title>Node1</title>
<polygon fill="#bfbfbf" stroke="black" points="0,-0.5 0,-19.5 77,-19.5 77,-0.5 0,-0.5"/>
<text text-anchor="middle" x="38.5" y="-7.5" font-family="Helvetica,sans-Serif" font-size="10.00">Utils::explode</text>
</g>
<!-- Node2 -->
<g id="node2" class="node"><title>Node2</title>
<g id="a_node2"><a xlink:href="classplazza_1_1_command_manager.html#a9cdbbe033645c4f2f730aa923db71585" target="_top" xlink:title="Parse command provided as parameter. ">
<polygon fill="none" stroke="black" points="113,-17 113,-47 247,-47 247,-17 113,-17"/>
<text text-anchor="start" x="121" y="-35" font-family="Helvetica,sans-Serif" font-size="10.00">plazza::CommandManager</text>
<text text-anchor="middle" x="180" y="-24" font-family="Helvetica,sans-Serif" font-size="10.00">::parseCommand</text>
</a>
</g>
</g>
<!-- Node1&#45;&gt;Node2 -->
<g id="edge1" class="edge"><title>Node1&#45;&gt;Node2</title>
<path fill="none" stroke="midnightblue" d="M87.1435,-17.5137C95.4748,-18.8276 104.275,-20.2155 112.998,-21.591"/>
<polygon fill="midnightblue" stroke="midnightblue" points="87.6739,-14.0541 77.2507,-15.9535 86.5834,-20.9687 87.6739,-14.0541"/>
</g>
<!-- Node3 -->
<g id="node3" class="node"><title>Node3</title>
<g id="a_node3"><a xlink:href="classplazza_1_1_reception.html#a73427abbd4f108f41e9c9c348b50310a" target="_top" xlink:title="run the office ">
<polygon fill="none" stroke="black" points="283,-0.5 283,-19.5 398,-19.5 398,-0.5 283,-0.5"/>
<text text-anchor="middle" x="340.5" y="-7.5" font-family="Helvetica,sans-Serif" font-size="10.00">plazza::Reception::run</text>
</a>
</g>
</g>
<!-- Node1&#45;&gt;Node3 -->
<g id="edge3" class="edge"><title>Node1&#45;&gt;Node3</title>
<path fill="none" stroke="midnightblue" d="M87.4561,-8.50682C95.9642,-8.29561 104.742,-8.11233 113,-8 172.55,-7.18995 187.448,-7.35627 247,-8 258.565,-8.12501 270.941,-8.3379 282.758,-8.57936"/>
<polygon fill="midnightblue" stroke="midnightblue" points="87.1695,-5.01306 77.2652,-8.77539 87.3539,-12.0106 87.1695,-5.01306"/>
</g>
<!-- Node2&#45;&gt;Node3 -->
<g id="edge2" class="edge"><title>Node2&#45;&gt;Node3</title>
<path fill="none" stroke="midnightblue" d="M257.246,-21.417C265.756,-20.2357 274.313,-19.048 282.523,-17.9085"/>
<polygon fill="midnightblue" stroke="midnightblue" points="256.724,-17.9558 247.3,-22.7975 257.686,-24.8893 256.724,-17.9558"/>
</g>
</g>
</svg>
