<?xml version="1.0" encoding="UTF-8" standalone="no"?>
<!DOCTYPE svg PUBLIC "-//W3C//DTD SVG 1.1//EN"
 "http://www.w3.org/Graphics/SVG/1.1/DTD/svg11.dtd">
<!-- Generated by graphviz version 2.38.0 (20140413.2041)
 -->
<!-- Title: /home/gogo/rendu/tek2/cpp_plazza/sources/main.cpp Pages: 1 -->
<svg width="1076pt" height="95pt"
 viewBox="0.00 0.00 1075.50 95.00" xmlns="http://www.w3.org/2000/svg" xmlns:xlink="http://www.w3.org/1999/xlink">
<g id="graph0" class="graph" transform="scale(1 1) rotate(0) translate(4 91)">
<title>/home/gogo/rendu/tek2/cpp_plazza/sources/main.cpp</title>
<!-- Node1 -->
<g id="node1" class="node"><title>Node1</title>
<polygon fill="#bfbfbf" stroke="black" points="408.5,-56.5 408.5,-86.5 557.5,-86.5 557.5,-56.5 408.5,-56.5"/>
<text text-anchor="start" x="416.5" y="-74.5" font-family="Helvetica,sans-Serif" font-size="10.00">/home/gogo/rendu/tek2</text>
<text text-anchor="middle" x="483" y="-63.5" font-family="Helvetica,sans-Serif" font-size="10.00">/cpp_plazza/sources/main.cpp</text>
</g>
<!-- Node2 -->
<g id="node2" class="node"><title>Node2</title>
<polygon fill="none" stroke="#bfbfbf" points="0,-0.5 0,-19.5 54,-19.5 54,-0.5 0,-0.5"/>
<text text-anchor="middle" x="27" y="-7.5" font-family="Helvetica,sans-Serif" font-size="10.00">iostream</text>
</g>
<!-- Node1&#45;&gt;Node2 -->
<g id="edge1" class="edge"><title>Node1&#45;&gt;Node2</title>
<path fill="none" stroke="midnightblue" d="M408.223,-64.3599C326.039,-56.9686 190.017,-42.8449 63.8841,-19.9549"/>
<polygon fill="midnightblue" stroke="midnightblue" points="64.5151,-16.5123 54.0473,-18.148 63.2504,-23.3971 64.5151,-16.5123"/>
</g>
<!-- Node3 -->
<g id="node3" class="node"><title>Node3</title>
<polygon fill="none" stroke="#bfbfbf" points="72,-0.5 72,-19.5 152,-19.5 152,-0.5 72,-0.5"/>
<text text-anchor="middle" x="112" y="-7.5" font-family="Helvetica,sans-Serif" font-size="10.00">Reception.hpp</text>
</g>
<!-- Node1&#45;&gt;Node3 -->
<g id="edge2" class="edge"><title>Node1&#45;&gt;Node3</title>
<path fill="none" stroke="midnightblue" d="M408.41,-59.3658C345.386,-49.8282 252.463,-35.463 161.976,-20.1321"/>
<polygon fill="midnightblue" stroke="midnightblue" points="162.541,-16.678 152.096,-18.4526 161.368,-23.579 162.541,-16.678"/>
</g>
<!-- Node4 -->
<g id="node4" class="node"><title>Node4</title>
<polygon fill="none" stroke="#bfbfbf" points="170,-0.5 170,-19.5 214,-19.5 214,-0.5 170,-0.5"/>
<text text-anchor="middle" x="192" y="-7.5" font-family="Helvetica,sans-Serif" font-size="10.00">mutex</text>
</g>
<!-- Node1&#45;&gt;Node4 -->
<g id="edge3" class="edge"><title>Node1&#45;&gt;Node4</title>
<path fill="none" stroke="midnightblue" d="M408.365,-57.858C358.628,-49.003 291.645,-36.2552 224.233,-20.1351"/>
<polygon fill="midnightblue" stroke="midnightblue" points="224.829,-16.6783 214.286,-17.7323 223.185,-23.4826 224.829,-16.6783"/>
</g>
<!-- Node5 -->
<g id="node5" class="node"><title>Node5</title>
<polygon fill="none" stroke="#bfbfbf" points="232,-0.5 232,-19.5 294,-19.5 294,-0.5 232,-0.5"/>
<text text-anchor="middle" x="263" y="-7.5" font-family="Helvetica,sans-Serif" font-size="10.00">Mutex.hpp</text>
</g>
<!-- Node1&#45;&gt;Node5 -->
<g id="edge4" class="edge"><title>Node1&#45;&gt;Node5</title>
<path fill="none" stroke="midnightblue" d="M431.142,-56.4747C392.242,-45.9542 339.73,-31.752 303.802,-22.035"/>
<polygon fill="midnightblue" stroke="midnightblue" points="304.7,-18.6522 294.133,-19.42 302.872,-25.4094 304.7,-18.6522"/>
</g>
<!-- Node6 -->
<g id="node6" class="node"><title>Node6</title>
<polygon fill="none" stroke="#bfbfbf" points="312,-0.5 312,-19.5 386,-19.5 386,-0.5 312,-0.5"/>
<text text-anchor="middle" x="349" y="-7.5" font-family="Helvetica,sans-Serif" font-size="10.00">CondVar.hpp</text>
</g>
<!-- Node1&#45;&gt;Node6 -->
<g id="edge5" class="edge"><title>Node1&#45;&gt;Node6</title>
<path fill="none" stroke="midnightblue" d="M451.244,-56.3993C428.962,-46.5054 399.409,-33.3832 377.809,-23.7919"/>
<polygon fill="midnightblue" stroke="midnightblue" points="379.058,-20.5172 368.498,-19.6578 376.217,-26.9149 379.058,-20.5172"/>
</g>
<!-- Node7 -->
<g id="node7" class="node"><title>Node7</title>
<polygon fill="none" stroke="#bfbfbf" points="404.5,-0.5 404.5,-19.5 469.5,-19.5 469.5,-0.5 404.5,-0.5"/>
<text text-anchor="middle" x="437" y="-7.5" font-family="Helvetica,sans-Serif" font-size="10.00">Thread.hpp</text>
</g>
<!-- Node1&#45;&gt;Node7 -->
<g id="edge6" class="edge"><title>Node1&#45;&gt;Node7</title>
<path fill="none" stroke="midnightblue" d="M472.099,-56.3993C465.414,-47.7533 456.824,-36.642 449.815,-27.576"/>
<polygon fill="midnightblue" stroke="midnightblue" points="452.579,-25.4284 443.693,-19.6578 447.041,-29.7099 452.579,-25.4284"/>
</g>
<!-- Node8 -->
<g id="node8" class="node"><title>Node8</title>
<polygon fill="none" stroke="#bfbfbf" points="487.5,-0.5 487.5,-19.5 572.5,-19.5 572.5,-0.5 487.5,-0.5"/>
<text text-anchor="middle" x="530" y="-7.5" font-family="Helvetica,sans-Serif" font-size="10.00">ThreadPool.hpp</text>
</g>
<!-- Node1&#45;&gt;Node8 -->
<g id="edge7" class="edge"><title>Node1&#45;&gt;Node8</title>
<path fill="none" stroke="midnightblue" d="M494.138,-56.3993C500.968,-47.7533 509.745,-36.642 516.906,-27.576"/>
<polygon fill="midnightblue" stroke="midnightblue" points="519.709,-29.6745 523.161,-19.6578 514.216,-25.3354 519.709,-29.6745"/>
</g>
<!-- Node9 -->
<g id="node9" class="node"><title>Node9</title>
<polygon fill="none" stroke="#bfbfbf" points="591,-0.5 591,-19.5 709,-19.5 709,-0.5 591,-0.5"/>
<text text-anchor="middle" x="650" y="-7.5" font-family="Helvetica,sans-Serif" font-size="10.00">CommandManager.hpp</text>
</g>
<!-- Node1&#45;&gt;Node9 -->
<g id="edge8" class="edge"><title>Node1&#45;&gt;Node9</title>
<path fill="none" stroke="midnightblue" d="M522.577,-56.3993C551.097,-46.238 589.174,-32.6716 616.257,-23.0221"/>
<polygon fill="midnightblue" stroke="midnightblue" points="617.455,-26.3111 625.7,-19.6578 615.105,-19.7171 617.455,-26.3111"/>
</g>
<!-- Node10 -->
<g id="node10" class="node"><title>Node10</title>
<polygon fill="none" stroke="#bfbfbf" points="727,-0.5 727,-19.5 783,-19.5 783,-0.5 727,-0.5"/>
<text text-anchor="middle" x="755" y="-7.5" font-family="Helvetica,sans-Serif" font-size="10.00">Utils.hpp</text>
</g>
<!-- Node1&#45;&gt;Node10 -->
<g id="edge9" class="edge"><title>Node1&#45;&gt;Node10</title>
<path fill="none" stroke="midnightblue" d="M550.724,-56.4509C595.345,-47.0774 655.305,-34.2606 716.848,-20.2212"/>
<polygon fill="midnightblue" stroke="midnightblue" points="717.77,-23.6008 726.737,-17.9578 716.208,-16.7772 717.77,-23.6008"/>
</g>
<!-- Node11 -->
<g id="node11" class="node"><title>Node11</title>
<polygon fill="none" stroke="#bfbfbf" points="801,-0.5 801,-19.5 883,-19.5 883,-0.5 801,-0.5"/>
<text text-anchor="middle" x="842" y="-7.5" font-family="Helvetica,sans-Serif" font-size="10.00">XorCypher.hpp</text>
</g>
<!-- Node1&#45;&gt;Node11 -->
<g id="edge10" class="edge"><title>Node1&#45;&gt;Node11</title>
<path fill="none" stroke="midnightblue" d="M557.669,-58.6419C617.964,-48.9869 705.272,-34.8273 790.916,-20.1658"/>
<polygon fill="midnightblue" stroke="midnightblue" points="791.544,-23.6091 800.809,-18.4686 790.361,-16.7099 791.544,-23.6091"/>
</g>
<!-- Node12 -->
<g id="node12" class="node"><title>Node12</title>
<polygon fill="none" stroke="#bfbfbf" points="901,-0.5 901,-19.5 999,-19.5 999,-0.5 901,-0.5"/>
<text text-anchor="middle" x="950" y="-7.5" font-family="Helvetica,sans-Serif" font-size="10.00">CaesarCypher.hpp</text>
</g>
<!-- Node1&#45;&gt;Node12 -->
<g id="edge11" class="edge"><title>Node1&#45;&gt;Node12</title>
<path fill="none" stroke="midnightblue" d="M557.724,-61.9802C637.629,-52.7094 768.316,-37.0873 891.018,-20.101"/>
<polygon fill="midnightblue" stroke="midnightblue" points="891.545,-23.5615 900.968,-18.7181 890.581,-16.6281 891.545,-23.5615"/>
</g>
<!-- Node13 -->
<g id="node13" class="node"><title>Node13</title>
<polygon fill="none" stroke="#bfbfbf" points="1016.5,-0.5 1016.5,-19.5 1067.5,-19.5 1067.5,-0.5 1016.5,-0.5"/>
<text text-anchor="middle" x="1042" y="-7.5" font-family="Helvetica,sans-Serif" font-size="10.00">File.hpp</text>
</g>
<!-- Node1&#45;&gt;Node13 -->
<g id="edge12" class="edge"><title>Node1&#45;&gt;Node13</title>
<path fill="none" stroke="midnightblue" d="M557.856,-67.1394C658.077,-61.7868 841.431,-49.0077 1006.16,-20.0713"/>
<polygon fill="midnightblue" stroke="midnightblue" points="1007.25,-23.4322 1016.48,-18.2324 1006.02,-16.5407 1007.25,-23.4322"/>
</g>
</g>
</svg>
