<?xml version="1.0" encoding="UTF-8" standalone="no"?>
<!DOCTYPE svg PUBLIC "-//W3C//DTD SVG 1.1//EN"
 "http://www.w3.org/Graphics/SVG/1.1/DTD/svg11.dtd">
<!-- Generated by graphviz version 2.38.0 (20140413.2041)
 -->
<!-- Title: xorf Pages: 1 -->
<svg width="336pt" height="154pt"
 viewBox="0.00 0.00 336.00 153.50" xmlns="http://www.w3.org/2000/svg" xmlns:xlink="http://www.w3.org/1999/xlink">
<g id="graph0" class="graph" transform="scale(1 1) rotate(0) translate(4 149.5)">
<title>xorf</title>
<!-- Node1 -->
<g id="node1" class="node"><title>Node1</title>
<polygon fill="#bfbfbf" stroke="black" points="0,-57.5 0,-76.5 33,-76.5 33,-57.5 0,-57.5"/>
<text text-anchor="middle" x="16.5" y="-64.5" font-family="Helvetica,sans-Serif" font-size="10.00">xorf</text>
</g>
<!-- Node2 -->
<g id="node2" class="node"><title>Node2</title>
<g id="a_node2"><a xlink:href="classplazza_1_1_xor_cypher.html#ad0a9d682c47c355d1e8ee848eaa8bd80" target="_top" xlink:title="Set current cypher key. ">
<polygon fill="none" stroke="black" points="73.5,-115 73.5,-145 177.5,-145 177.5,-115 73.5,-115"/>
<text text-anchor="start" x="81.5" y="-133" font-family="Helvetica,sans-Serif" font-size="10.00">plazza::XorCypher::</text>
<text text-anchor="middle" x="125.5" y="-122" font-family="Helvetica,sans-Serif" font-size="10.00">setKey</text>
</a>
</g>
</g>
<!-- Node1&#45;&gt;Node2 -->
<g id="edge1" class="edge"><title>Node1&#45;&gt;Node2</title>
<path fill="none" stroke="midnightblue" d="M29.2778,-76.82C39.4062,-84.9826 54.6149,-96.582 69,-105 72.198,-106.871 75.5611,-108.699 78.9841,-110.46"/>
<polygon fill="midnightblue" stroke="midnightblue" points="77.5944,-113.677 88.1126,-114.95 80.6837,-107.396 77.5944,-113.677"/>
</g>
<!-- Node3 -->
<g id="node3" class="node"><title>Node3</title>
<g id="a_node3"><a xlink:href="classplazza_1_1_file.html#a65844e0df72307648e3f5432ed964fdc" target="_top" xlink:title="Load file provided as parameter. ">
<polygon fill="none" stroke="black" points="80,-76.5 80,-95.5 171,-95.5 171,-76.5 80,-76.5"/>
<text text-anchor="middle" x="125.5" y="-83.5" font-family="Helvetica,sans-Serif" font-size="10.00">plazza::File::load</text>
</a>
</g>
</g>
<!-- Node1&#45;&gt;Node3 -->
<g id="edge2" class="edge"><title>Node1&#45;&gt;Node3</title>
<path fill="none" stroke="midnightblue" d="M33.2882,-69.8035C43.109,-71.5474 56.3792,-73.9038 69.7534,-76.2786"/>
<polygon fill="midnightblue" stroke="midnightblue" points="69.4876,-79.7861 79.9455,-78.0885 70.7115,-72.8939 69.4876,-79.7861"/>
</g>
<!-- Node5 -->
<g id="node5" class="node"><title>Node5</title>
<g id="a_node5"><a xlink:href="classplazza_1_1_file.html#a928bc2918fada3f1c04ca30d73e18341" target="_top" xlink:title="Check if file is loaded. ">
<polygon fill="none" stroke="black" points="221,-38.5 221,-57.5 325,-57.5 325,-38.5 221,-38.5"/>
<text text-anchor="middle" x="273" y="-45.5" font-family="Helvetica,sans-Serif" font-size="10.00">plazza::File::isOpen</text>
</a>
</g>
</g>
<!-- Node1&#45;&gt;Node5 -->
<g id="edge5" class="edge"><title>Node1&#45;&gt;Node5</title>
<path fill="none" stroke="midnightblue" d="M33.037,-65.8401C67.4992,-63.2672 151.927,-56.9642 210.59,-52.5847"/>
<polygon fill="midnightblue" stroke="midnightblue" points="211.149,-56.0527 220.861,-51.8178 210.628,-49.0721 211.149,-56.0527"/>
</g>
<!-- Node6 -->
<g id="node6" class="node"><title>Node6</title>
<g id="a_node6"><a xlink:href="classplazza_1_1_file.html#a9fb543de19476d4e0623788120dbe793" target="_top" xlink:title="Get loaded file buffer. ">
<polygon fill="none" stroke="black" points="69,-0.5 69,-19.5 182,-19.5 182,-0.5 69,-0.5"/>
<text text-anchor="middle" x="125.5" y="-7.5" font-family="Helvetica,sans-Serif" font-size="10.00">plazza::File::getBuffer</text>
</a>
</g>
</g>
<!-- Node1&#45;&gt;Node6 -->
<g id="edge6" class="edge"><title>Node1&#45;&gt;Node6</title>
<path fill="none" stroke="midnightblue" d="M31.1229,-57.4102C41.2988,-50.462 55.6882,-41.0834 69,-34 75.8173,-30.3724 83.2994,-26.8479 90.5014,-23.6668"/>
<polygon fill="midnightblue" stroke="midnightblue" points="92.2509,-26.7247 100.06,-19.5642 89.4899,-20.2921 92.2509,-26.7247"/>
</g>
<!-- Node4 -->
<g id="node4" class="node"><title>Node4</title>
<g id="a_node4"><a xlink:href="classplazza_1_1_file.html#aad99fa99466b458697a29effd5677b96" target="_top" xlink:title="Define file state. ">
<polygon fill="none" stroke="black" points="218,-76.5 218,-95.5 328,-95.5 328,-76.5 218,-76.5"/>
<text text-anchor="middle" x="273" y="-83.5" font-family="Helvetica,sans-Serif" font-size="10.00">plazza::File::setOpen</text>
</a>
</g>
</g>
<!-- Node3&#45;&gt;Node4 -->
<g id="edge3" class="edge"><title>Node3&#45;&gt;Node4</title>
<path fill="none" stroke="midnightblue" d="M171.342,-86C182.823,-86 195.397,-86 207.649,-86"/>
<polygon fill="midnightblue" stroke="midnightblue" points="207.834,-89.5001 217.834,-86 207.834,-82.5001 207.834,-89.5001"/>
</g>
<!-- Node3&#45;&gt;Node5 -->
<g id="edge4" class="edge"><title>Node3&#45;&gt;Node5</title>
<path fill="none" stroke="midnightblue" d="M163.216,-76.411C182.157,-71.4642 205.457,-65.3789 225.629,-60.1108"/>
<polygon fill="midnightblue" stroke="midnightblue" points="226.757,-63.4335 235.548,-57.5201 224.988,-56.6606 226.757,-63.4335"/>
</g>
</g>
</svg>
