<?xml version="1.0" encoding="UTF-8" standalone="no"?>
<!DOCTYPE svg PUBLIC "-//W3C//DTD SVG 1.1//EN"
 "http://www.w3.org/Graphics/SVG/1.1/DTD/svg11.dtd">
<!-- Generated by graphviz version 2.38.0 (20140413.2041)
 -->
<!-- Title: /home/gogo/rendu/tek2/cpp_plazza/sources/Reception.cpp Pages: 1 -->
<svg width="744pt" height="95pt"
 viewBox="0.00 0.00 743.50 95.00" xmlns="http://www.w3.org/2000/svg" xmlns:xlink="http://www.w3.org/1999/xlink">
<g id="graph0" class="graph" transform="scale(1 1) rotate(0) translate(4 91)">
<title>/home/gogo/rendu/tek2/cpp_plazza/sources/Reception.cpp</title>
<!-- Node1 -->
<g id="node1" class="node"><title>Node1</title>
<polygon fill="#bfbfbf" stroke="black" points="207,-56.5 207,-86.5 380,-86.5 380,-56.5 207,-56.5"/>
<text text-anchor="start" x="215" y="-74.5" font-family="Helvetica,sans-Serif" font-size="10.00">/home/gogo/rendu/tek2</text>
<text text-anchor="middle" x="293.5" y="-63.5" font-family="Helvetica,sans-Serif" font-size="10.00">/cpp_plazza/sources/Reception.cpp</text>
</g>
<!-- Node2 -->
<g id="node2" class="node"><title>Node2</title>
<polygon fill="none" stroke="#bfbfbf" points="0,-0.5 0,-19.5 51,-19.5 51,-0.5 0,-0.5"/>
<text text-anchor="middle" x="25.5" y="-7.5" font-family="Helvetica,sans-Serif" font-size="10.00">unistd.h</text>
</g>
<!-- Node1&#45;&gt;Node2 -->
<g id="edge1" class="edge"><title>Node1&#45;&gt;Node2</title>
<path fill="none" stroke="midnightblue" d="M225.544,-56.4873C181.351,-47.2082 122.247,-34.4876 60.9422,-20.034"/>
<polygon fill="midnightblue" stroke="midnightblue" points="61.6237,-16.5987 51.0863,-17.6997 60.0104,-23.4102 61.6237,-16.5987"/>
</g>
<!-- Node3 -->
<g id="node3" class="node"><title>Node3</title>
<polygon fill="none" stroke="#bfbfbf" points="69.5,-0.5 69.5,-19.5 125.5,-19.5 125.5,-0.5 69.5,-0.5"/>
<text text-anchor="middle" x="97.5" y="-7.5" font-family="Helvetica,sans-Serif" font-size="10.00">algorithm</text>
</g>
<!-- Node1&#45;&gt;Node3 -->
<g id="edge2" class="edge"><title>Node1&#45;&gt;Node3</title>
<path fill="none" stroke="midnightblue" d="M247.051,-56.3993C213.035,-46.0733 167.437,-32.2309 135.567,-22.5559"/>
<polygon fill="midnightblue" stroke="midnightblue" points="136.319,-19.1267 125.734,-19.5709 134.286,-25.8249 136.319,-19.1267"/>
</g>
<!-- Node4 -->
<g id="node4" class="node"><title>Node4</title>
<polygon fill="none" stroke="#bfbfbf" points="143.5,-0.5 143.5,-19.5 187.5,-19.5 187.5,-0.5 143.5,-0.5"/>
<text text-anchor="middle" x="165.5" y="-7.5" font-family="Helvetica,sans-Serif" font-size="10.00">thread</text>
</g>
<!-- Node1&#45;&gt;Node4 -->
<g id="edge3" class="edge"><title>Node1&#45;&gt;Node4</title>
<path fill="none" stroke="midnightblue" d="M263.166,-56.3993C241.977,-46.55 213.906,-33.5014 193.298,-23.9217"/>
<polygon fill="midnightblue" stroke="midnightblue" points="194.669,-20.6993 184.125,-19.6578 191.718,-27.047 194.669,-20.6993"/>
</g>
<!-- Node5 -->
<g id="node5" class="node"><title>Node5</title>
<polygon fill="none" stroke="#bfbfbf" points="206,-0.5 206,-19.5 247,-19.5 247,-0.5 206,-0.5"/>
<text text-anchor="middle" x="226.5" y="-7.5" font-family="Helvetica,sans-Serif" font-size="10.00">future</text>
</g>
<!-- Node1&#45;&gt;Node5 -->
<g id="edge4" class="edge"><title>Node1&#45;&gt;Node5</title>
<path fill="none" stroke="midnightblue" d="M277.622,-56.3993C267.485,-47.3967 254.338,-35.7214 243.915,-26.4652"/>
<polygon fill="midnightblue" stroke="midnightblue" points="246.05,-23.681 236.249,-19.6578 241.402,-28.915 246.05,-23.681"/>
</g>
<!-- Node6 -->
<g id="node6" class="node"><title>Node6</title>
<polygon fill="none" stroke="#bfbfbf" points="265.5,-0.5 265.5,-19.5 321.5,-19.5 321.5,-0.5 265.5,-0.5"/>
<text text-anchor="middle" x="293.5" y="-7.5" font-family="Helvetica,sans-Serif" font-size="10.00">Utils.hpp</text>
</g>
<!-- Node1&#45;&gt;Node6 -->
<g id="edge5" class="edge"><title>Node1&#45;&gt;Node6</title>
<path fill="none" stroke="midnightblue" d="M293.5,-56.3993C293.5,-48.4664 293.5,-38.458 293.5,-29.8583"/>
<polygon fill="midnightblue" stroke="midnightblue" points="297,-29.6577 293.5,-19.6578 290,-29.6578 297,-29.6577"/>
</g>
<!-- Node7 -->
<g id="node7" class="node"><title>Node7</title>
<polygon fill="none" stroke="#bfbfbf" points="339.5,-0.5 339.5,-19.5 419.5,-19.5 419.5,-0.5 339.5,-0.5"/>
<text text-anchor="middle" x="379.5" y="-7.5" font-family="Helvetica,sans-Serif" font-size="10.00">Command.hpp</text>
</g>
<!-- Node1&#45;&gt;Node7 -->
<g id="edge6" class="edge"><title>Node1&#45;&gt;Node7</title>
<path fill="none" stroke="midnightblue" d="M313.881,-56.3993C327.408,-47.0402 345.111,-34.7924 358.72,-25.3771"/>
<polygon fill="midnightblue" stroke="midnightblue" points="360.754,-28.2257 366.986,-19.6578 356.771,-22.4692 360.754,-28.2257"/>
</g>
<!-- Node8 -->
<g id="node8" class="node"><title>Node8</title>
<polygon fill="none" stroke="#bfbfbf" points="437.5,-0.5 437.5,-19.5 555.5,-19.5 555.5,-0.5 437.5,-0.5"/>
<text text-anchor="middle" x="496.5" y="-7.5" font-family="Helvetica,sans-Serif" font-size="10.00">CommandManager.hpp</text>
</g>
<!-- Node1&#45;&gt;Node8 -->
<g id="edge7" class="edge"><title>Node1&#45;&gt;Node8</title>
<path fill="none" stroke="midnightblue" d="M341.351,-56.4747C376.832,-46.0752 424.586,-32.0783 457.701,-22.3722"/>
<polygon fill="midnightblue" stroke="midnightblue" points="458.866,-25.6778 467.478,-19.5064 456.898,-18.9604 458.866,-25.6778"/>
</g>
<!-- Node9 -->
<g id="node9" class="node"><title>Node9</title>
<polygon fill="none" stroke="#bfbfbf" points="573.5,-0.5 573.5,-19.5 637.5,-19.5 637.5,-0.5 573.5,-0.5"/>
<text text-anchor="middle" x="605.5" y="-7.5" font-family="Helvetica,sans-Serif" font-size="10.00">Config.hpp</text>
</g>
<!-- Node1&#45;&gt;Node9 -->
<g id="edge8" class="edge"><title>Node1&#45;&gt;Node9</title>
<path fill="none" stroke="midnightblue" d="M372.487,-56.4662C424.183,-47.1209 493.453,-34.2978 563.417,-20.1731"/>
<polygon fill="midnightblue" stroke="midnightblue" points="564.186,-23.5884 573.292,-18.1717 562.796,-16.7279 564.186,-23.5884"/>
</g>
<!-- Node10 -->
<g id="node10" class="node"><title>Node10</title>
<polygon fill="none" stroke="#bfbfbf" points="655.5,-0.5 655.5,-19.5 735.5,-19.5 735.5,-0.5 655.5,-0.5"/>
<text text-anchor="middle" x="695.5" y="-7.5" font-family="Helvetica,sans-Serif" font-size="10.00">Reception.hpp</text>
</g>
<!-- Node1&#45;&gt;Node10 -->
<g id="edge9" class="edge"><title>Node1&#45;&gt;Node10</title>
<path fill="none" stroke="midnightblue" d="M380.325,-59.0533C449.493,-49.7082 549.046,-35.7556 645.487,-20.1141"/>
<polygon fill="midnightblue" stroke="midnightblue" points="646.104,-23.5597 655.411,-18.4967 644.978,-16.6509 646.104,-23.5597"/>
</g>
</g>
</svg>
