<?xml version="1.0" encoding="UTF-8" standalone="no"?>
<!DOCTYPE svg PUBLIC "-//W3C//DTD SVG 1.1//EN"
 "http://www.w3.org/Graphics/SVG/1.1/DTD/svg11.dtd">
<!-- Generated by graphviz version 2.38.0 (20140413.2041)
 -->
<!-- Title: /home/gogo/rendu/tek2/cpp_plazza/sources/main_cypher.cpp Pages: 1 -->
<svg width="347pt" height="106pt"
 viewBox="0.00 0.00 346.50 106.00" xmlns="http://www.w3.org/2000/svg" xmlns:xlink="http://www.w3.org/1999/xlink">
<g id="graph0" class="graph" transform="scale(1 1) rotate(0) translate(4 102)">
<title>/home/gogo/rendu/tek2/cpp_plazza/sources/main_cypher.cpp</title>
<!-- Node1 -->
<g id="node1" class="node"><title>Node1</title>
<polygon fill="#bfbfbf" stroke="black" points="101.5,-56.5 101.5,-97.5 232.5,-97.5 232.5,-56.5 101.5,-56.5"/>
<text text-anchor="start" x="109.5" y="-85.5" font-family="Helvetica,sans-Serif" font-size="10.00">/home/gogo/rendu/tek2</text>
<text text-anchor="start" x="109.5" y="-74.5" font-family="Helvetica,sans-Serif" font-size="10.00">/cpp_plazza/sources/main</text>
<text text-anchor="middle" x="167" y="-63.5" font-family="Helvetica,sans-Serif" font-size="10.00">_cypher.cpp</text>
</g>
<!-- Node2 -->
<g id="node2" class="node"><title>Node2</title>
<polygon fill="none" stroke="#bfbfbf" points="0,-0.5 0,-19.5 54,-19.5 54,-0.5 0,-0.5"/>
<text text-anchor="middle" x="27" y="-7.5" font-family="Helvetica,sans-Serif" font-size="10.00">iostream</text>
</g>
<!-- Node1&#45;&gt;Node2 -->
<g id="edge1" class="edge"><title>Node1&#45;&gt;Node2</title>
<path fill="none" stroke="midnightblue" d="M124.995,-56.4979C102.292,-45.9572 74.8856,-33.2326 54.8352,-23.9235"/>
<polygon fill="midnightblue" stroke="midnightblue" points="56.1801,-20.6891 45.6361,-19.6525 53.2323,-27.0382 56.1801,-20.6891"/>
</g>
<!-- Node3 -->
<g id="node3" class="node"><title>Node3</title>
<polygon fill="none" stroke="#bfbfbf" points="72,-0.5 72,-19.5 154,-19.5 154,-0.5 72,-0.5"/>
<text text-anchor="middle" x="113" y="-7.5" font-family="Helvetica,sans-Serif" font-size="10.00">XorCypher.hpp</text>
</g>
<!-- Node1&#45;&gt;Node3 -->
<g id="edge2" class="edge"><title>Node1&#45;&gt;Node3</title>
<path fill="none" stroke="midnightblue" d="M150.798,-56.4979C143.076,-47.2029 133.943,-36.2097 126.59,-27.3579"/>
<polygon fill="midnightblue" stroke="midnightblue" points="129.271,-25.1078 120.188,-19.6525 123.886,-29.581 129.271,-25.1078"/>
</g>
<!-- Node4 -->
<g id="node4" class="node"><title>Node4</title>
<polygon fill="none" stroke="#bfbfbf" points="172,-0.5 172,-19.5 270,-19.5 270,-0.5 172,-0.5"/>
<text text-anchor="middle" x="221" y="-7.5" font-family="Helvetica,sans-Serif" font-size="10.00">CaesarCypher.hpp</text>
</g>
<!-- Node1&#45;&gt;Node4 -->
<g id="edge3" class="edge"><title>Node1&#45;&gt;Node4</title>
<path fill="none" stroke="midnightblue" d="M183.202,-56.4979C190.924,-47.2029 200.057,-36.2097 207.41,-27.3579"/>
<polygon fill="midnightblue" stroke="midnightblue" points="210.114,-29.581 213.812,-19.6525 204.729,-25.1078 210.114,-29.581"/>
</g>
<!-- Node5 -->
<g id="node5" class="node"><title>Node5</title>
<polygon fill="none" stroke="#bfbfbf" points="287.5,-0.5 287.5,-19.5 338.5,-19.5 338.5,-0.5 287.5,-0.5"/>
<text text-anchor="middle" x="313" y="-7.5" font-family="Helvetica,sans-Serif" font-size="10.00">File.hpp</text>
</g>
<!-- Node1&#45;&gt;Node5 -->
<g id="edge4" class="edge"><title>Node1&#45;&gt;Node5</title>
<path fill="none" stroke="midnightblue" d="M210.805,-56.4979C234.588,-45.9093 263.322,-33.1169 284.256,-23.7968"/>
<polygon fill="midnightblue" stroke="midnightblue" points="285.853,-26.9172 293.565,-19.6525 283.006,-20.5223 285.853,-26.9172"/>
</g>
</g>
</svg>
