<?xml version="1.0" encoding="UTF-8" standalone="no"?>
<!DOCTYPE svg PUBLIC "-//W3C//DTD SVG 1.1//EN"
 "http://www.w3.org/Graphics/SVG/1.1/DTD/svg11.dtd">
<!-- Generated by graphviz version 2.38.0 (20140413.2041)
 -->
<!-- Title: /home/gogo/rendu/tek2/cpp_plazza/sources/Office.cpp Pages: 1 -->
<svg width="222pt" height="95pt"
 viewBox="0.00 0.00 221.50 95.00" xmlns="http://www.w3.org/2000/svg" xmlns:xlink="http://www.w3.org/1999/xlink">
<g id="graph0" class="graph" transform="scale(1 1) rotate(0) translate(4 91)">
<title>/home/gogo/rendu/tek2/cpp_plazza/sources/Office.cpp</title>
<!-- Node1 -->
<g id="node1" class="node"><title>Node1</title>
<polygon fill="#bfbfbf" stroke="black" points="24,-56.5 24,-86.5 179,-86.5 179,-56.5 24,-56.5"/>
<text text-anchor="start" x="32" y="-74.5" font-family="Helvetica,sans-Serif" font-size="10.00">/home/gogo/rendu/tek2</text>
<text text-anchor="middle" x="101.5" y="-63.5" font-family="Helvetica,sans-Serif" font-size="10.00">/cpp_plazza/sources/Office.cpp</text>
</g>
<!-- Node2 -->
<g id="node2" class="node"><title>Node2</title>
<polygon fill="none" stroke="#bfbfbf" points="0,-0.5 0,-19.5 51,-19.5 51,-0.5 0,-0.5"/>
<text text-anchor="middle" x="25.5" y="-7.5" font-family="Helvetica,sans-Serif" font-size="10.00">unistd.h</text>
</g>
<!-- Node1&#45;&gt;Node2 -->
<g id="edge1" class="edge"><title>Node1&#45;&gt;Node2</title>
<path fill="none" stroke="midnightblue" d="M83.4891,-56.3993C71.7622,-47.2185 56.4849,-35.2579 44.5551,-25.9182"/>
<polygon fill="midnightblue" stroke="midnightblue" points="46.5902,-23.0664 36.5587,-19.6578 42.2751,-28.5782 46.5902,-23.0664"/>
</g>
<!-- Node3 -->
<g id="node3" class="node"><title>Node3</title>
<polygon fill="none" stroke="#bfbfbf" points="69.5,-0.5 69.5,-19.5 133.5,-19.5 133.5,-0.5 69.5,-0.5"/>
<text text-anchor="middle" x="101.5" y="-7.5" font-family="Helvetica,sans-Serif" font-size="10.00">Config.hpp</text>
</g>
<!-- Node1&#45;&gt;Node3 -->
<g id="edge2" class="edge"><title>Node1&#45;&gt;Node3</title>
<path fill="none" stroke="midnightblue" d="M101.5,-56.3993C101.5,-48.4664 101.5,-38.458 101.5,-29.8583"/>
<polygon fill="midnightblue" stroke="midnightblue" points="105,-29.6577 101.5,-19.6578 98.0001,-29.6578 105,-29.6577"/>
</g>
<!-- Node4 -->
<g id="node4" class="node"><title>Node4</title>
<polygon fill="none" stroke="#bfbfbf" points="151.5,-0.5 151.5,-19.5 213.5,-19.5 213.5,-0.5 151.5,-0.5"/>
<text text-anchor="middle" x="182.5" y="-7.5" font-family="Helvetica,sans-Serif" font-size="10.00">Office.hpp</text>
</g>
<!-- Node1&#45;&gt;Node4 -->
<g id="edge3" class="edge"><title>Node1&#45;&gt;Node4</title>
<path fill="none" stroke="midnightblue" d="M120.696,-56.3993C133.316,-47.1293 149.793,-35.0254 162.561,-25.6469"/>
<polygon fill="midnightblue" stroke="midnightblue" points="164.727,-28.3987 170.714,-19.6578 160.582,-22.7572 164.727,-28.3987"/>
</g>
</g>
</svg>
